<?xml version="1.0" encoding="UTF-8"?>
<svg id="uuid-69dc1fac-e423-401d-a2b2-740c1b914808" data-name="Layer 1" xmlns="http://www.w3.org/2000/svg" viewBox="0 0 1920 1080">
  <defs>
    <style>
      .uuid-fb5315aa-d4f9-415d-9328-82d1c2e4ed9c {
        fill: #755820;
      }

      .uuid-0586663a-3e19-4e5f-9a8f-fcdb472f29d1 {
        fill: #fdba22;
      }

      .uuid-26583331-a5eb-4a49-b879-038b23ae6015 {
        fill: #bfe1e4;
      }

      .uuid-dd785c6c-0adc-4bc4-b0fb-40fc8e6f39a0 {
        fill: #e3ddd5;
      }

      .uuid-49be10af-af7a-4873-9d40-f72f99d76e3d {
        fill: #e69f0c;
      }

      .uuid-c9470849-33de-4920-a6fe-ab9885a7b616 {
        fill: #a8d3d8;
      }

      .uuid-a92e0ccd-656a-4665-8941-96848a3379c3 {
        fill: #412d20;
      }

      .uuid-43364392-7fee-4900-82cb-46d0af44d78c {
        fill: #74561d;
      }

      .uuid-3c096cdc-b178-4d88-afd8-90e2836a32c3 {
        fill: #cce9ec;
      }

      .uuid-dbaec870-2659-4e86-9c9c-1f32762cddad {
        fill: #fefcee;
      }

      .uuid-96108bb4-750d-4c9a-bce1-1f0c76b7f526 {
        fill: #54320c;
      }

      .uuid-b1490b76-1a32-4cad-ac87-dd87db46f9ec {
        fill: #e79f0d;
      }

      .uuid-c85194f0-1766-4fc0-a6ef-1b5497642728 {
        fill: #775920;
      }

      .uuid-cb9be328-da55-46ce-a33c-c28da1b4b12d {
        fill: #fdbb23;
      }

      .uuid-bd43167b-7674-4e81-ada7-7d8197cd6aca {
        fill: #512e09;
      }

      .uuid-e649a50f-eacb-45d3-95e1-3fb490c5d5a9 {
        fill: #74561b;
      }

      .uuid-6cedd609-a9fb-4f4a-9534-1c989854a3a9 {
        fill: #fdb922;
      }

      .uuid-7818bd99-d05a-444e-8bca-4b3840548d3a {
        fill: #522f09;
      }

      .uuid-4b87c592-5238-4901-9871-ec4e6ef24269 {
        fill: #73551c;
      }

      .uuid-d6c634cd-1d15-4e85-aecc-19deccb3572b {
        fill: #58340a;
      }

      .uuid-91627039-cea9-42b1-b7de-3897ecbef5cf {
        fill: #7b5d24;
      }
    </style>
  </defs>
  <path class="uuid-dd785c6c-0adc-4bc4-b0fb-40fc8e6f39a0" d="M983.72,578.78c.41-.19,4.3.17,5.1.24,5.17.45,12.64,1.22,17.46,2.94,1.3.46,3.95,1.62,2.64,3.36-1.17,1.55-7.98,3-10.05,3.39-13.39,2.46-29.05,2.64-42.67,2.31-10.55-.26-22.72-.71-32.96-3.27-1.88-.47-9.27-2.26-4.98-4.9,3.39-2.08,11.65-3.01,15.74-3.46,6.91-.76,14.07-1.2,20.99-1.33,2.32-.04,4.65.05,6.97,0,.27.02.3.42.49.62.11.11.16-.01.17,0l.3-.02c1.14,1.87,3.7,3.09,4.72.46l.26-.08c.09-.34.13-.72.11-1.13,3.67-.02,7.35.08,11.02.3l1.11.58.23-.17c1.04.58,2.04,1.06,3.04.07l.33.09Z"/>
  <path class="uuid-c85194f0-1766-4fc0-a6ef-1b5497642728" d="M951.09,502.95c2.23-15.54,19.19-20.28,23.12-3.62.06.24.13.5.03.74.18.05.2-.04.3-.12.52-.38,1.1-1.16,1.62-1.62,4.52-4.03,10.52-6.82,16.65-5.01,3.07.91,5.84,3.11,6.99,6.15,1.31,3.87.56,6.84-.59,10.58-.04.12-.03.22-.01.34-1.91,4.56-5.82,8.63-9.73,11.57-1.78,1.34-3.69,2.51-5.63,3.61,1.26.51,2.53,1.08,3.72,1.74.08.38.55.63.96.6.56.34,1.15.7,1.68,1.08.08.41.83.95,1.2.96.24.2.49.39.72.6-.02.24.06.32.24.24,1.01.94,1.78,1.87,2.64,2.88q-.68-.17,0,0c.48.57.97,1.03,1.44,1.68.08.3.23.76.6.84.28.42.48.9.72,1.32.14.25-.01.42-.45.51.27.78-.74.82-.51.09l-.14.15c-.97-.3-1.16,1.01-.05.71l.19.22c.17-.15.24-.08.12.12l-.12.23c-.23.06-.78.47-.6.71.16,0,.79,1,.79,1.07-.02.29-.29.38-.55.32l.16.47c-.19.13.37.53.47.42.65-.02.53.61,0,.77-.59.09-.7.17-.29.64-.12.37-.04.7.22.98-.17.28-.27.57-.32.88.6.23.67.81-.03.87l-.09,1.48c.56.27.71,1.08-.06.9.04.56-.33,1.96-.53.96l-.17-.52c.5-5.94.57-12.55-4.55-16.48l-.07-.39c.08-.22-.11-.49-.24-.24h-.37c-2.26-1.87-4.77-3.56-7.55-4.54l-.48-.38c-.16.28-.73.28-.83-.04-.07.24-.18.39-.33.45.04.72-.63.63-.83.02-.53.03-1.23.31-1.44.85l-.87.16c-.05.57-.14,1.09-.68.39-.19.7-.49.88-.89.54.25.32.06.54-.58.67,0,.06.79.7.96.61,1.09,1.2-.54,1.05-1.15.15-.71.72-1.37,0-.51-.57l-.19-.15c-.39.26-.84.38-1.36.37-.28.88-.57,1.03-.86.45-.03,0-.63.1-.66.12-.25.15-.49,1.05-.26,1.32.02.02.5.31.53.32.64-.24.59.35.5.81.33.11.49.6.17.72-.81-.1-.83.3-.82.99,1.09-.36.9.67.53,1.33.53.41,1.08,1.87.07,1.71-.28-.72-.63-.06-.45.45.74.08.53,1.28-.02,1.65-.13.63-.25,1.56.39,1.85.15.65.18,1.35-.72,1.15l-.15.76c.42.59.54,1.11.06,1.74,1.34.3,1.34,1.94-.02,2.04-.13.55-.71.4-.97,0-.01-.02-.09-.36-.07-.38.2-.26-.12,1.13-.21,1.19-.29.18-.51.13-.35-.17l-.09-.32c1.45-5.41,2.08-10.99.86-16.55l-3.68,1.26c-1.1.36-2.87.51-3.16-.92-.06-.31-.1-.89.31-.86l.11-.24c4.4-1.11,8.97-3.11,13.11-5.24,7.15-3.67,16.32-9.52,19.11-17.43,4.13-11.72-7.25-16.37-16.41-10.45s-15.74,19.87-17.7,30.65c.07.55.02,1.01-.14,1.39.06.7-1.09.68-1.61.39-1.68-.95-.59-4.68-.15-6.16-1.12-.03-2.24.07-3.36.2-.44-.12-.51-.1-.2.07,2.52,6.88,1.72,15.93-3.4,21.48-.5.54-.94.97-1.6,1.3l-.18.41c-1.87,1.48-3.89,2.69-6.07,3.63l-.47-.08-.79.08c-.89.48-2.05.73-3.05.73-.4-.35-.58-.32-.69.19-.22.17-1.39.34-1.45-.02.12.43-.75.4-.76,0,.2-.34.06-.44-.43-.31-.46-.07-.53-1.48.02-1.44,2.13-.09,4.53-.46,6.43-1.39l.35-.4c4.52-1.87,8.16-5.6,9.72-10.26l.37-.38c.87-2.5.97-5.4.6-8.04l-.3-.47c-1.16-8.14-7.4-15.47-15.67-16.71-.04.85-.13,2.33-.91,2.86-1.13.77-2.41-.4-2.33-1.61l-.07-1.85c-6.11-.24-11.93,2.03-15.93,6.72-6.66,7.81-8.39,21.32,1.29,27.49l.33.49c.05.18.19.28.41.3.36.41.69.52,1.29.66,1.19.45,1.38.75.59.88-.43-.51-.54.32-.5.35.03.02.55-.07.63-.19.2-.01.35.07.4.26-.07-.66.33-.78,1.19-.36.72.35,1.49.58,2.29.7.89.27,1.12.93.02.97-.17,0,.15.03.32-.02.31-.1.48-.29.52-.64.42,0,1.21.03,1.18.56.13.13.53-.09.53-.29,1.84.37,3.71.49,5.59.46.11.18.27.35.46.5-.04.34.58.86.85.8,1.14.9-1.06.8-1.69.71.05-.73-.18-.99-.68-.78.38,1.05-1.2.7-1.61.33.06.22-.12.27-.32.31-.06.49-.59.95-.85.28-.25.09-.49-.03-.73-.36-2.45-.34-4.86-1-7.24-1.71-4.63-1.79-8.27-4.58-10.44-9.12-1.27-3.01-1.78-6.11-1.68-9.36.39-5.89,3.61-12.94,7.98-16.92,1.23-1.12,2.63-1.98,3.98-2.93-1.31-4.6-4.34-7.94-9.08-9-1.96-.44-5.98-.4-5.93-3.24.02-1.26,1.15-2.03,2.3-2.19,2.7-.36,6.91,2.14,8.96,3.81,3,2.43,5.13,5.87,6.12,9.59,3.02-1.2,6.3-1.66,9.54-1.56-.36-3.76-2.54-6.73-5.96-8.26-1.6-.72-4.51-1.16-5.39-2.77s.33-3.19,2.05-3.36c4.12-.41,8.43,4.66,10.16,7.96,1.09,2.08,1.73,4.48,2.16,6.78,3.48.5,6.9,1.93,9.73,4,.78.57,1.46,1.22,2.2,1.83.05.04.06.39.28.13-.42-1.15-.64-2.45-.84-3.66-.35-3.16-.54-6.44-.24-9.6Z"/>
  <path class="uuid-e649a50f-eacb-45d3-95e1-3fb490c5d5a9" d="M998.12,537.98c-.03.2.02.39.16.65l-.16.19c.09.37.21.33.36-.12.3.06,1.13,2.12,1.32,2.52q-.27.13,0,0c1,2.14,1.89,4.33,2.32,6.68.96.58,1.93,1.19,2.84,1.83.13.28.29.4.6.48,1.25.89,2.87,1.87,3.96,2.88q-.13.12,0,0c.14.13.43.02.48.55.12,1.24-1.84,1.73-2.76,2.09-.11.03-.15-.01-.12-.12-.38-.07-.63.03-.96.24-.02.21-.22.28-.36.12-.28-.08-.41-.04-.41.12l-.55.24c-.92.49-1.97.79-3,.96-.23-.04-.43,0-.6.12l-.03.14c-.54.21-.93.65-1.17,1.3-.08.18-.13.39-.24.6-.25,0-.46.23-.36.48-.27.42-.58.73-.84,1.08q-.22-.09,0,0s-.04.19-.12.3c-4.26,5.64-10.65,9.23-17.52,10.74.93,2.23,4.73,3.97,2.76,6.72-.49.23-.79.7-1.5.73-.88.03-1.4-.47-2.1-.73-2.16-.96-3.45-3.6-4.05-5.77-.09.04-.17.08-.26.09-3.33.38-6.05.17-9.34-.15-.43-.04,1.06,3.43,1.24,3.78.38.79.4,1.49.18,2.28-.12.76-.87,1.64-1.65,1.77-1.9.33-2.57-.97-3.63-2.13-1.13-2.04-1.16-4.32-.97-6.59-3.8-.73-7.57-1.69-11.21-3.01-.33,0-.35.51-.43.76-.52,1.8-.42,5.58-1.96,6.67-1.24.89-2.69.22-3.21-1.11-1.03-2.57.5-5.91,1.47-8.3-2.45-1.45-4.94-2.88-7.02-4.87-.19-.04-.24.16-.32.27-1.41,2.19-1.5,4.68-2.17,7.07-.43,1.55-1.76,3.66-3.56,2.18s-.9-5.57-.25-7.43c.69-1.98,2.07-3.58,3.1-5.38-1.47-1.91-2.68-4.01-3.58-6.26-2.5-.42-4.95-.95-7.32-1.86l.24-.36c.64-.12.2.3.24.36.07.09,2.11.71,2.23.72.08,0,0-.27.11-.23.23.5.64.23.76.27.35.13.87.34,1.19.44.3.09.86.29.93-.11.17.02.47.6.78.36.27-.21-.46-.24-.24-.48.02-.03.5.2.72,0l-.36.6h.6s-.12-.24-.12-.24l.48-.12-.24-.24.6-.24c-.13.35.17,1.29-.48.72,0,.71.42.38.96.24l-.24.48c.7.14.1-.7.84-.6-.3-.53.45-.67.3,0,.26-.34.73-.07.42-.6.29-.06.28.07.24.31-.04.3-.26.07-.24.29.43.17.44-.02.66-.12.12-.05-.03.3.18.24.06-.63,0-.38-.47-.49-.02-.56.19-.24.33-.37.07-.06-.07-.47.2-.34.18.09.07.47.24.48.51.03-.7-1.12.24-.6-.11-.74.74.46.18.54.52.17.31.99.36,1.02.04.02.68-.09.84,0l-.24-.48c.29-.02.52.63.72.48.04-.03-.1-.36.24-.12.13-.67-.33-.16-.46-.25-.04-.03-.08-.26-.19-.36-.14-.12-.45-.27-.5-.36-.13-.21.37-.39-.53-.48l.24-.36c-1.85.03-3.72-.06-5.52-.48l.24.36-.6.12.6.36c-.87.35-.46-.11-.72-.3-.1-.07-.31-.03-.36-.07-.05-.04.35-.68-.54-.71-.28,0-.14.02-.18.18-.08.3-.12.7-.12,1.02.22.05.08-.2.12-.24.31-.27.17.22.18.24.07.17.4-.17.3.24-.6-.34-.73.25-.78.24-.13-.03-.68-.44-.54-.6l.48.36.12-.84c-.29.11-.44-.14-.54.24l-.3-.3c.86-.04.59-.6.06-.9l-.18.24c.01-.39-.66-.31-.96-.48v.48c-.03-.27-1.05-1.17-.96-.42.02.13.65-.28.17.18-.23.07-.41-.25-.57-.22-.1.02-.33.34-.44.22-.06-.06.02-.33.11-.43.17-.19.48-.07.49-.29-.42-.07-.74-.42-.96.12l.48.12c-.74.02-.3.43-.36.48-.05.04-.43-.11-.36.24-.32-.05-.01-.56-.3-.72l-.18.48c-.41.09-.1-.23-.12-.24-.39-.16-.36.27-.42.24-.42-.36-.17-.44-.06-.84-.83.03.09-.4.53-.36.1,0,0,.41.43.06-.03-.07-.82-.44-.96-.48-.33-.1-.73.03-1.2-.24-.35-.2.16-.17.12-.24-.17-.3-.49-.18-.55-.2-.06-.03-.25-.32-.05-.34l.59.07c6.44,3.42,14.4,4.25,21.37,2.05l.6.04c.27.12-.2.25-.26.28-.33.11-.81.2-1.09.35-.3.16-.72,1.14-.62.21-.35.14-1.11.15-1.39.3-.08.04-.02.42-.29.54,0-.63-.82-.45-1.24-.28-.19.08-.13.27-.15.28-.05.03-.95-.71-.6.12l-.78-.36c-.47.42.03.34.05.36.23.29-.23.14-.24.36.17-.08.56.06.36.24-.06.05-.4-.12-.36.12.28.23.68-.14.72-.12.02.01.05.37.24.36-.04-.26.29-.31.34-.39s-.22-.5.26-.45c-.08.15-.02.52-.07.6-.07.11-1.3.82-.29.84-.29-.44.21-.35.24-.72.41.07.07.54.12.6.03.04.91.01.95-.02.03-.03.18-.56.2-.58.18-.18.53,0,.42-.48.38.32.92-.17,1.08.24-.33.03-.64,0-.84.3.08.17.31-.06.41-.07.08,0,.01.25.24.26.16,0,1.88-.4,2.06-.48.26-.12.27-.33.3-.35.04-.02.85,0,.94.1-.08.09-.16.18-.25.26-.79.65-4.27,1.14-5.47,1.27-1.63.18-3.28.21-4.92.17.09.22.16.4-.04.58q-.78.12,0,0l.4.21,1.48,2.09.04.46.51.31c2.46,3.46,6.11,5.95,9.79,8.01,1-1.6,2.81-4.46,5.05-3.34,1.2.6,1.4,1.66.73,2.75-.61.82-1.17,1.67-1.7,2.52.09.09,1.42.57,1.61.54l2.87-1.47.24.14c.06-.03.12-.06.18-.05.56.12-.82.9-1.01.95.22.56.1.8-.53.85-.03.31.22.42.74.31l.48.43c.17-.33.53-.25.61.09.66.11,1.28.08,1.89-.09l.15.17c-.3.43.83.85,1.03.49-.32-.84.33-.97.75-.27-.11.43.38.9.73.57.52.29.76.19.71-.3-.28-.21-.4-.49-.02-.62.21-.82.34-1.65.4-2.49l.18-.2c-.4-.45-.15-.96.36-1.2-.28-.38-.1-.73.36-.58l.31-.28c.74-.21,1.35-.34,2.1-.05.17.11.21.31.16.49.34-.7,1.02-.04.41.46l.16.33c-.27.56-.03,1.08.24,1.53-.14.22-.13.46.05.73-.15.34-.17.86-.16,1.27.14.45.15.88.05,1.3l1.57-.29c.08-.26.31-.4.55-.47.06-.9.94-.89.98.02.28.49.38.34.66-.06.46.07.89.08,1.36,0,0-.75.59-.55.95-.08l.12-.1c-.18-.82.63-1.33.69-.34-.12.28.12.3.71.07l.21.17c-.36.77-1.44,1.59-2.28,1.68-.41-.04-.57.04-.48.24.01.15.14.18.39.08l3.54-.19-.23-2.25c-.19.24-.38.31-.58.19-.23-.05-.25-.27-.08-.66-.55-.09-.68-.87-.15-.94.97.02,1.3-.04.99-.19-.21-.36-.03-.77.55-1.23-.49-.81-.52-1.15.6-1.21.25-.4.55-.71.84-.16.18-.63.55-.28.84.09.33-.16.62-.08.37.21.34.81.65,1.75.9,2.63.03.09.02.19,0,.29s-.04.21-.07.32c.55.57.7,1.46.7,2.23,2.69-.68,5.27-1.57,7.72-2.67,1.14-1.03,2.08-2.29,2.83-3.77h.27c-.22-.37.38-1.41.84-1.31.46.45-.49,1.15-.1.5.39-.03.69-.21.92-.54.58.09.96-.03,1.15-.34.03-.73.46-.5.92-.25l.54-.14c.02-.54.38-.67.87-.52l.69-.96c.33-.11.45-.35.36-.73.51-.06.52-.37.55-.85.61-.05.84-.8.77-1.29.57-.35.92-.73.75-1.44-.8-.32-.27-1.6.56-1.41-.18-.13-.59-.55-.65-.72-.13-.41.26-.54.59-.31l.25-.1c-.41-.3-.07-.58.29-.81-.12-.57-.07-1.07.16-1.5-.08-.36-.03-.69.14-.98-.52-.2-.61-1.02-.13-1.24-.3-.15-.44-.4-.22-.68-.28-.53-.54-1.06-.78-1.58.18-.4-.26-.76-.65-.72-.46-.31-.1-.64.27-.84l.06-.42c-.2-.22-.33-.45-.11-.71-.36-.1-.18-.43.13-.56.03-.05-.44-.99-.52-1.01-.6.35-1.26-.31-.87-.9-.34-.39-.46-.73.03-.96.21-.1,1.59.35.08.02-.16.14-.31.12-.33-.1-.93.04-.62-.78-.48-.64.1.1-.02.19-.07-.05,0,0-.12-.11-.12-.12-.46-.32-.75-1.09,0-1.08.13.1.18.33.36.36-.26-1.15.01-.38.6-.96.06.11.23.24.36.48Z"/>
  <path class="uuid-96108bb4-750d-4c9a-bce1-1f0c76b7f526" d="M999.2,510.39c-.22-.11-.1-.41-.04-.58,1.29-3.78,1.74-5.8.64-9.8-.04-.16-.24-.43,0-.54,1.34,3.54.83,7.49-.6,10.92Z"/>
  <path class="uuid-bd43167b-7674-4e81-ada7-7d8197cd6aca" d="M951.33,512.55c-.52-3.19-.7-6.39-.24-9.6.37.22.03,1,0,1.38-.26,2.66.05,4.93.34,7.59.02.19.14.5-.09.62Z"/>
  <path class="uuid-7818bd99-d05a-444e-8bca-4b3840548d3a" d="M914.73,541.7c-1.48-3.1-1.91-5.93-1.68-9.36.31.09.14.24.14.43-.07,3.5.22,5.22,1.51,8.42.05.13.24.43.03.51Z"/>
  <path class="uuid-d6c634cd-1d15-4e85-aecc-19deccb3572b" d="M1007.12,555.62s.08.08.12.12c-2.09.8-4.26,1.39-6.39,2.06l-.8,1.06c.36-.78.21-1.07,1.2-1.44.23-.36.43-.4.6-.12,1-.32,2-.63,3-.96.39-.32.71-.44.96-.36.12-.04.24-.08.36-.12.31-.32.63-.4.96-.24Z"/>
  <path class="uuid-91627039-cea9-42b1-b7de-3897ecbef5cf" d="M990.2,528.99c.42.3.8.63,1.2.96.04.43-.36.1-.6.24-.08-.1.19-.59-.24-.48l.06.36c-.33-.32-.35-.84-.9-.84l.48-.24Z"/>
  <path class="uuid-91627039-cea9-42b1-b7de-3897ecbef5cf" d="M988.52,527.91c-.14.35-.16.55-.6.36l.24-.24-.9-.36.3-.36c.33.19.64.4.96.6Z"/>
  <path class="uuid-91627039-cea9-42b1-b7de-3897ecbef5cf" d="M997.04,536.18l-.24.36c-.04-.23-.14-.45-.26-.65-.18-.3-.56-.03-.1-.55.2.28.41.55.6.84Z"/>
  <path class="uuid-c85194f0-1766-4fc0-a6ef-1b5497642728" d="M998.48,538.7c0,.32-.15.36-.36.12.09-.45-.45-.07-.36-.42.03-.12.13-.02.21-.08.01-.01-.15-.27.15-.34.15.28.23.36.36.72Z"/>
  <path class="uuid-91627039-cea9-42b1-b7de-3897ecbef5cf" d="M1005.56,550.22h-.84s.24-.48.24-.48c.22.15.42.35.6.48Z"/>
  <path class="uuid-91627039-cea9-42b1-b7de-3897ecbef5cf" d="M999.8,559.46c-.1.19-.26.32-.36.48-.72-.27-.13-.2-.12-.3.02-.13-.29.04-.24-.18.55.21.45-.55.72,0Z"/>
  <path class="uuid-91627039-cea9-42b1-b7de-3897ecbef5cf" d="M992.36,530.79c-.39.72-.7.02-.24-.24.1.09.16.17.24.24Z"/>
  <path class="uuid-dbaec870-2659-4e86-9c9c-1f32762cddad" d="M980.12,578.78c-.21-.08-.81-.19-1.15-.35-3.63-.19-7.26-.29-10.9-.37l-.07,1.02-.12-.06c.29-1.89-1.82-4.34-1.74-6.36,3.29.59,6.71.52,10.02.17.76,2.24,1.98,4.56,3.95,5.95Z"/>
  <path class="uuid-6cedd609-a9fb-4f4a-9534-1c989854a3a9" d="M922.53,547.1c-9.41-5.66-8.86-17.4-3.53-25.79,4-6.29,10.6-9.47,18.05-9.13.25,1.12-.32,3.16,1.03,3.59,1.73.56,1.82-2,1.85-3.11,2.25.29,4.6,1.24,6.56,2.38,5.29,3.08,8.94,9.06,9.64,15.14.37,2.65.26,5.48-.6,8.04-1.49,5.05-5.54,9.19-10.44,11.04-6.74,2.54-16.39,1.55-22.56-2.16Z"/>
  <path class="uuid-3c096cdc-b178-4d88-afd8-90e2836a32c3" d="M964.76,531.51c-.17.33-.47.24-.48-.12,0-.14.01-.27.04-.4s.05-.26.11-.36c.86-1.52,1.85-2.95,2.89-4.35,4.24-5.71,9.35-10.84,14.42-15.87.21-.22.31-.79-.05-.6-.82.44-2.93,2.33-3.62,3.02-5.46,5.38-10.53,10.83-14.47,17.43-.2.24-.42.5-.64.17-.32.07-.34,0-.12-.24-.37-1.4.28-3.65.63-5.06,2.52-9.99,9.62-23.85,19.32-28.43,8.38-3.96,17.29.49,14.95,10.51-2.48,10.6-17.31,18.45-26.63,22.2-1.29.52-5.19,2.16-6.36,2.1Z"/>
  <path class="uuid-cb9be328-da55-46ce-a33c-c28da1b4b12d" d="M952.53,547.46c6.36-5.87,7.55-15.09,4.68-23.04,1.4-.16,2.79-.31,4.2-.24-.42,1.37-1.71,5.62.15,6.27.52.18.86.04,1.29-.27.02.07.08.17.12.24.23.01.46.16.68.43.37.12.58.3.64.53.14.04.35.11.48.12-.25.73-.02,1.45.75,1.71,1.43.47,4.46-1.17,5.97-1.47.86,4.15.94,8.21.2,12.38-.28,1.62-.78,3.18-1.16,4.78.1.16.06.3,0,.49-2.35,7.05-7.23,12.69-13.63,16.39-.1.06-.23.09-.36.11s-.26.04-.4.04c-.42.24-2.81,1.53-3.07,1.56-.6.06-1.37-.52-1.97-.6.43-1.57,3.66-3.71,1.36-5.14-2.18-1.36-4.07,1.83-5.02,3.34-3.44-1.83-6.81-4.24-9.36-7.2-.39-.45-.67-.97-1.02-1.44l.2-.17c2.31.46,4.74-.37,6.9-1.44,3.45-1.71,6.23-4.34,8.57-7.25l-.19-.13Z"/>
  <path class="uuid-91627039-cea9-42b1-b7de-3897ecbef5cf" d="M970.52,548.9s.07.1.11.12c.11-.19.31-1.28.37-1.32.03-.02.52.23.72.12.09-.52-.63-.05-.6-.42.02-.19.09-.36.12-.54l.12.36c.21.05.08-.18.13-.23.04-.03.34.15.47.11.03-.43-.37-.06-.12-.6.35,0,.68.44.61.77-.03.13-.37.12-.49.25-.17.18-.08.5-.12.54s-1.17-.03,0,.37l.12-.6c.42.4.58.04.96-.12l-.36-.24.36-.12c.09-.74-.97-.86-1.08-.96-.03-.02.23-.52.12-.72-.7.09.04.91-.6,1.08l.24-1.56c.39-.08.32.5.54.6.27-.31-.13-.69-.06-1.08l-.36.36.36-1.8h.12c-.06.37.32.23.6.24-.07-.49.13-1.34-.48-.66.47.09.11.34-.24.3-.22-.55.23-.73.23-.77-.03-.52-.17-1.13.01-1.68.1-.3.43-.36.48-.61,0-.05-.43-.05-.24-.3.05-.06.44.1.11-.6l-.12.36c-.52-.53-.06-1.67-.24-2.4.38.17.05.75.24,1.08l.36-.36.36.72c.04-.35.23-.55-.24-.6l.24-.12c.14-.19-.52-.71-.55-.89-.04-.29.39-.81.31-.9-.33-.39-.38,1.05-.72.84.01-.23-.06-.51.06-.73.03-.05.7-.18.66-.29-.16-.41-.67.1-.72.06-.31-.23.01-1.36,0-1.61,0-.03-.67-.29,0-.25v-.42c1.06-.08.07.39.12.66.07.36.38-.06.54-.06l.18.24c.05-.39.03-.39-.36-.36l.12-.96-.6.24c.14-.5-.36-.33-.48-.57s-.13-.82-.24-1.11l.36.12c-.23-.47.06-.32.09-.39.03-.06-.16-.46.09-.45.03,0,.11.21.43.19.38-.02.45-.5.83-.43-.17.17-.31.59,0,.72,0-.87.4-1.1,1.2-.84.15-.31-.28-.21-.24-.3.19-.42.55.1.6.06,0-.58.51.11.84.12.09.13-.81.54-.6.72.27.23.48-.35.54-.36.31-.03.97.91,1.32.84.32-.07,0-.42-.09-.45-.11-.04-.24.07-.33.03-.15-.07-.19-.31-.3-.42-.13-.11-.31-.07-.41-.21-.29-.42.21-.69.6-.51.11-.35-.29-.21-.36-.48l.72-.24.06.36c.43-.28.11-.82.73-.83.1,0,.11.45.41.35-.54-.55.11-.37-.12-.72.15.02,1.04-.1,1.07-.14.04-.06-.02-.23.04-.3.15-.17,1.46-.72,1.77-.75l-.12-.24h.48c.09.33-.26.29-.48.36-.07.09.22.6.3.6.03,0,.22-.19.18-.24s-.29.09-.24-.12c.29-.01.18-.33.48-.12-.27-.44.13-.34.13-.43s-.17-.25-.13-.29c.1-.09.71.15.36.48.37-.1.44-.07.72,0,.11.06.21.12.31.2.88.71,2.16,4.17,2.56,5.42,3.08,9.6.73,20.23-4.47,28.63-.13.21-1.92,2.78-2.1,2.79-.1,0-.18-.04-.26-.09,0,0,0-.14-.06-.12-.07.02-.13.23-.3.18-.23-.07-.42-.35-.54-.54-.15.01,0,.4-.06.48-.01.02-.33-.16-.48,0l-.06-.48-.54.72-.24-.24c-.29.37.11.34.12.36.11.54-.47-.08-.6-.24-.11.42.41.63.33,1s-.82.63-.69,1.03c.16.07.12-.5.36-.24.03.03-.09.81-.12.84s-.72-.12-.84-.12l.12.36c-.37-.11-.56.16-.48-.36-.5.23-.07.69.36.48l-.24.96c.14.33-.09.47-.36.24-.25.14-.58.07-.66.36l-.66-.36s.44-.48,0-.6c-.19.54.2.86-.44,1.06-.21.07-.29-.46-.58-.46-.39,0,.15.47.06.6-.41-.16-.83,0-1.24,0-.12,0-.39-.15-.44-.11-.32.27.34.22.36.24-.21.12.12.74-.18.6-.1-.04-.04-.39-.48-.24l.06-.24-.6.12c.23-.45-.06-.31-.11-.45-.06-.18-.01-.7-.31-.63-.37.2-.16.57-.18.6-.03.04-.74.09-.61.6-.36-.25-.11.09-.35.12,0-.08.03-.25-.06-.24-.59.12-1.33.8-1.74.06l.36-.3c-.14-.05-.45.14-.48.12-.21-.19.66-.37,0-.54.59-.29.31-.3-.12-.6.69-.02.26-.59.25-.97,0-.06.23-.05.23-.11.01-.24-.59-.81,0-.78v-.12c-.46,0,0-.64-.72-.6.58-.4.22-.33.23-.65,0-.13.42.09.08-.38-.03-.04-.36-.05-.19-.28.05-.06.5-.03.36-.48-.24.04-.12.37-.39.35-.54-.04-.14-.38-.2-.46-.02-.02-.47-.09-.54-.24-.1.47-.39-.04-.78,0l.36.36c-.53-.12-1.15-.39-1.2.36l-.48-.24c-.1.2.26.31.19.48-.09.2-.46.3-.52.38-.02.03.08.13.06.19-.01.03-.22.01-.2.08.03.12.48.67.36.78-.59-.06-.26.1-.3.3-.14.64-.14,1.87-.46,2.3-.07.09-.24-.02-.19.16.48-.04.31.81.09.94s-.57-.19-.45.38c-.25.03-.06-.41-.12-.48-.21-.24-.25.26-.3.24-.46-.24-1.05-.58-.78-1.2-.37.28-.13-.32-.48-.06.32.43.18.73-.34.83-.16.03-.31-.08-.42-.06-.15.02,0,.3-.2.25.22-.78-.55-.24-.6-.78,0-.07.38,0,.24-.3l-.48.36c-.24.03,0-.3-.24-.24.1.39-.38.1-.7.07-.39-.04-.71.3-.62-.31-.46-.13.06.3-.3.24-.46-.08-.51-.46-.62-.48s-.31.09-.5.05c-.31-.07-.54-.27-.86-.29l.48-.12-.12-.36.72-.12c.08-.2-.24-.46-.23-.54.01-.13.79-.5.96-.6.06-.03.5-.21.24-.3,6.82-3.81,11.86-9.46,14.28-16.98.02-.06.07-.05.12-.06Z"/>
  <path class="uuid-26583331-a5eb-4a49-b879-038b23ae6015" d="M956.26,522.26c-2.26-7.1-4.43-14.5-2.2-21.92,1.15-3.84,4.06-8.03,8.28-8.75,6.39-1.09,9.45,5.47,9.84,10.8-3.85,4.96-6.89,10.46-9.1,16.34-.2.53-.82,2.83-1.02,3.06-.19.22-5.09.2-5.81.47Z"/>
  <path class="uuid-0586663a-3e19-4e5f-9a8f-fcdb472f29d1" d="M990.92,532.35c.27-.13.35-.04.24.24,1.64,1.51,3.54,3.45,4.17,5.61,1.01,3.48,1.13,8.2.63,11.78.05.11.09.21.12.32s.04.21.03.31c-.5,3.91-2.26,7.78-4,11.24l-.35.25c-.36.39-.57.88-.84,1.32l-.71.12c-3.3,1.77-7.17,3.22-10.81,4.08-.26-.9-.6-1.78-.87-2.68-.07-.22-.15-.34.03-.56.16-.08.84-.98,1.01-1.21,5.64-7.43,8.22-18.33,6.27-27.49-.62-2.92-1.73-5.73-3.32-8.26,2.59.61,6.4,3.15,8.4,4.92Z"/>
  <path class="uuid-91627039-cea9-42b1-b7de-3897ecbef5cf" d="M996.92,539.3s.21-.03.24,0c.02.02-.17.34-.12.48.17-.15.53.03.58-.02.06-.05-.07-.27.13-.22-.04.13.14.3.11.35-.04.06-.27-.08-.23.13l.84-.12c-.25.3.15.2.19.47.02.18-.34.41-.07.73h-.36s0-.6,0-.6l.24.12c.12-.62-.32-.11-.72-.48-.33.58.23.72.23.77,0,.1-.26.65-.23.67h.48s-.24.24-.24.24c.47.1.86-.45,1.2-.72v.72s-.24-.24-.24-.24c-.29.52.09.46.11.56.07.34-.19.41.49.58-.25.31-.3.58-.72.48l.48.18c.1.32-.15.19-.21.3-.13.23.21.35.22.38.03.19-.13.49-.11.51.04.05.27-.08.23.13-.54.16-1.29.91-.12.36l-.24.36.36-.12v.36s.36-.12.36-.12c.09.11-.57,1.09.24.96-.03.2-.16.34.06.48.02-.16.86-.64.9-.6.1.1-.39.56-.45.61-.17.13-.64.05-.34.48.11.16.63.2.67.24.1.11.06.25-.17.22-.9-.11-.27.54.41.38-.09.3-.68.34-.84.48s.31.03.24.3c-.04.14-.24-.01-.24.12.08.21.75.39.59.65,0,.01-.17-.01-.23.1-.15.27.01.58-.04.79-.03.14-.17.2-.2.26-.04.08.38.11.36.3l-.48.12c-.05.21.24.05.24.19,0,.08-.1.22-.1.35,0,.35.34.47-.26.42.21.33.09.24-.24.24.06.35.43.08.48.12.1.09-.67,1.01-1.08.36-.15.6.38.27.48.36.26.24-.31.2-.24.36.17.04.59.02.6.24-.33-.03-.23.04-.12.3l-.18-.05c.1.88-.31-.01-.36,0-.15.03-.44.34-.48.48-.06.18.24.28.18.36-.03.04-.29-.09-.24.12,1.81.2.3.4.24.54.68-.12.01.82-.17,1.03-.15.17-.41.21-.43.23-.09.13.33.47.24.6-.01.02-.24.02-.36.17-.22.27-.07.67-.71.55l.19.48c-.4.19-.36.6-.79.36.56.72-.08.61-.17.72-.2.22-.54.72-.72.98-.09.13-.04.53-.31.34-.01,0,.03-.21-.08-.24-.64-.19-.38.44-.42.47-.03.02-.64.2-.75.22-.48.07-.6-.58-.8-.09.73.12-.16.32-.18.36-.04.06.09.19,0,.25-.53.33-1.39-.55-1.26.83-.2-.1-.43-.74-.48-.12l-.3-.24-.18.24c.05-.28.15-.58.24-.84.4-1.13,1.1-2.18,1.58-3.28,1.21-2.74,2.21-5.87,2.62-8.84l.12.3c.09-.57.17-1.04.18-1.62l.54.24c.06-.06-.26-.81-.48-.48-.06-.08.05-1.91.12-2.04.02-.04.91.19.24-.36l-.24.24c.02-.28-.06-.61.02-.88s.44-.26.22-.68l-.24.12c-.1-.31.09-.68.11-.91,0-.03-.39-.05-.23-.57.11-.36.96-.12.96-.62-.12-.14-.23.23-.42.18-.13-.03-.18-.57-.42-.36-.04.04.1.29-.12.24.05-.36-.29-.57.12-.66-.21-.08-.33-.69-.24-.78.06-.07.55.26.6-.12-.38.05-.39-.6-.51-.7-.08-.07-.29,0-.32-.03-.02-.02,0-.61,0-.64.03-.12.71-.68.95-.56Z"/>
  <path class="uuid-49be10af-af7a-4873-9d40-f72f99d76e3d" d="M952.53,547.46c.19-.13.5-.18.66-.48.09-.02.08.12.06.18-.26.61-1.48,1.91-1.97,2.47-2.77,3.13-6.56,5.75-10.69,6.82-.41.11-1.42-.04-1.49.49h-.12c0-.08.02-.22-.08-.24-.48-.12-1.33.03-1.84-.24-.64-.88-1.38-1.8-1.92-2.76-.12-.22-.17-.61-.36-.84,3.81.14,7.44-.16,11.04-1.44,2.92-1.04,4.27-2.33,6.72-3.96Z"/>
  <path class="uuid-91627039-cea9-42b1-b7de-3897ecbef5cf" d="M989,529.11c-.1-.01-.33.02-.36,0-.26-.24.31-.2.24-.36-.83.11-.35-.49-.06-.48.15,0,.08.26.11.33.03.08.26-.07.07.51.12.01.44-.03.48,0,.03.02-.02.18,0,.24.28,0,.49.07.6.36-.47-.02-.48-.02-.6-.36-.45-.01-.31.4.06.48.52.1.64-.12.66.6-.26-.02-.2-.43-.25-.47-.19-.16-1.34.25-.65.47.11.03.02-.23.12-.24.62-.13.3.47,0,.72-.11-.15-.87-.55-.9-.6-.04-.06.51-.45.36-.72-.2-.05-.05.2-.19.24-.64.17-.54-.55-.4-.96l.54.6s.15-.28.18-.36Z"/>
  <path class="uuid-91627039-cea9-42b1-b7de-3897ecbef5cf" d="M996.8,538.1c-.51.67-.07.53.06.71.07.1-.07.28-.06.37l-1.08.12c.05-.35-.13-.68-.13-1.02,0-.4.26,0,.35-.07.04-.03.08-.34.19-.35.03,0,.63.21.66.24Z"/>
  <path class="uuid-a92e0ccd-656a-4665-8941-96848a3379c3" d="M956.13,530.19l.12-.06c.2,2.35.23,4.72-.3,7.03l-.42,1.08c.72-2.44.89-5.51.6-8.04Z"/>
  <path class="uuid-91627039-cea9-42b1-b7de-3897ecbef5cf" d="M995,533.67l-.6.12.12.24h-.6c.12-.43-.15-.7.47-.79.23-.03.38.36.6.43Z"/>
  <path class="uuid-91627039-cea9-42b1-b7de-3897ecbef5cf" d="M983.96,523.83c-.39.78.28.22.24.72-.27-.23-.36.24-.66.36-.04.02-.4-.71-.36,0-.2-.03-.21-.22-.54-.3.32-.16.85-.14,1.2-.06.04-.54-.46-.22-.48-.24-.11-.19.44-.61.6-.48Z"/>
  <path class="uuid-91627039-cea9-42b1-b7de-3897ecbef5cf" d="M994.73,535.26c.57.48-.27,1.48.87,1.52l-.24.12c.62.4.18.41.24.96-.49.1-.21-.71-.26-.81-.02-.05-.55-.48-.64-.75-.05-.15.21-.27.18-.41-.02-.12-.38-.2-.47-.38-.18-.35.28-.29.32-.25Z"/>
  <path class="uuid-91627039-cea9-42b1-b7de-3897ecbef5cf" d="M985.52,526.7c-.28-.1-.5.49-.54.48-.39-.11.18-.45.06-.6l-.36.06c.26-.25.84-.49.84.06Z"/>
  <path class="uuid-91627039-cea9-42b1-b7de-3897ecbef5cf" d="M984.08,527.55s.07.29-.17.23c-.37-.1-1.15-.42-1.39-.71.25.11,1.43.37,1.56.48Z"/>
  <path class="uuid-91627039-cea9-42b1-b7de-3897ecbef5cf" d="M967.4,531.87c.08.21-.2.3-.2.42,0,.08.43.5.08.54l-.48-.78.6-.18Z"/>
  <path class="uuid-91627039-cea9-42b1-b7de-3897ecbef5cf" d="M990.92,532.35l-.24-.48c.3-.12.48.32.5.33.09.04.25-.27.34.33l-.36.06c-.09-.08-.18-.18-.24-.24Z"/>
  <path class="uuid-91627039-cea9-42b1-b7de-3897ecbef5cf" d="M992.48,531.75l-.6.72c-.11-.52.64-.36-.12-.54l.72-.18Z"/>
  <path class="uuid-91627039-cea9-42b1-b7de-3897ecbef5cf" d="M965.6,531.63l-.36.12c.22.55.07.26-.14.36-.17.08-.02.27-.22.23-.11-.65.1-.72.72-.72Z"/>
  <path class="uuid-91627039-cea9-42b1-b7de-3897ecbef5cf" d="M982.88,526.35c-.06-.06.17-.36-.36-.12v-.36c.49.32.31-.19.72-.36-.06.09-.24.95-.36.84Z"/>
  <path class="uuid-91627039-cea9-42b1-b7de-3897ecbef5cf" d="M990.68,531.27c.07.07-.02.42-.18.48l-.54-.42c.09-.1.69-.08.72-.06Z"/>
  <polygon class="uuid-91627039-cea9-42b1-b7de-3897ecbef5cf" points="993.08 532.71 992.66 533.3 992.48 532.71 993.08 532.71"/>
  <path class="uuid-91627039-cea9-42b1-b7de-3897ecbef5cf" d="M972.73,529.32c.03.05.23-.02.19.08-.03.1-.39.4-.48.3v-.72c.39-.06.23.24.29.33Z"/>
  <path class="uuid-91627039-cea9-42b1-b7de-3897ecbef5cf" d="M993.67,532.95s.06.28.13.35c-1.28.34-.38-.54-.13-.35Z"/>
  <path class="uuid-91627039-cea9-42b1-b7de-3897ecbef5cf" d="M986.6,527.79c-.44-.27.01.29-.6.24l.42-.6.18.36Z"/>
  <path class="uuid-91627039-cea9-42b1-b7de-3897ecbef5cf" d="M984.2,526.83c-.17.39-.37.36-.72.24.09-.31.46-.24.72-.24Z"/>
  <path class="uuid-91627039-cea9-42b1-b7de-3897ecbef5cf" d="M986.84,528.51s-.07.87-.48.47c-.06-.2.26-.06.25-.19,0-.11-.17-.26-.13-.41.07.07.35.11.36.12Z"/>
  <path class="uuid-91627039-cea9-42b1-b7de-3897ecbef5cf" d="M965.27,532.67c.18.13.54-.14.45.27-.37-.01-1-.21-.48-.48,0,.06-.01.17.03.21Z"/>
  <path class="uuid-91627039-cea9-42b1-b7de-3897ecbef5cf" d="M970.16,530.67v.36s-.48,0-.48,0c-.09-.28.22-.33.48-.36Z"/>
  <path class="uuid-91627039-cea9-42b1-b7de-3897ecbef5cf" d="M980.24,526.83s-.16,0-.24,0c-.02-.23-.02-.46.18-.6.16.06.12.55.06.6Z"/>
  <path class="uuid-91627039-cea9-42b1-b7de-3897ecbef5cf" d="M984.08,524.79v.48c-.48,0-.47-.48,0-.48Z"/>
  <path class="uuid-91627039-cea9-42b1-b7de-3897ecbef5cf" d="M995.48,535.1c-.01.13.03.3,0,.41-.12.41-.68-.12,0-.41Z"/>
  <path class="uuid-b1490b76-1a32-4cad-ac87-dd87db46f9ec" d="M979.4,567.62c.1-.22.2-.21.39-.26,3.16-.92,6.16-2.07,9.12-3.36.41-.18,1.61-1.2,2.01-.57-.52.85-1.87,3.08-2.51,3.67-.45.4-2.06,1.01-2.7,1.26-1.85.71-3.77,1.24-5.7,1.68-.17-.8-.37-1.61-.6-2.4Z"/>
  <path class="uuid-91627039-cea9-42b1-b7de-3897ecbef5cf" d="M1002.92,550.22c-.43.55.74.59.84.72.03.03-.38.81.12.54-.26-.24.01-.43.29-.43.05,0,.32.5.86.49.32,0,.18-.36.41-.36.05.18.06.85.3.84.05,0,.64-.91.42-.12h.36c-.32.54.38.44.72.78l-.36.24.12.42.3-.36.54.36-.18-.36c.13.21.97.3.78.6-.03.04-.74.61-.82.46l-.32-.46c.06.4-.07.52-.5.58-.37.05.09-.44-.44-.32-.56.13-.96,1.09-1.4.4.39-.03.24-.59-.12-.54-.08.14,0,.65-.02.69-.03.05-.86.63-.95.68-.42.22-1.33.21-1.43.67h-.12s-.18-.48-.18-.48l-.06.24c-1.1-.19-.06-.47-.03-.66.04-.22-.11-.99-.09-1.19.01-.12.29-.09.35-.27s-.11-.75.01-1l.24.12c.11-.43-.2-.32-.36-.6l1.08-.12c-.16-.48-.57-.01-.78-.04-.41-.05-.24-.61.05-.42.01,0,.04.46.25.22.02-.02-.2-.43-.12-.6l-.24.12c-.06-.51-.2-.98.48-.84Z"/>
  <path class="uuid-49be10af-af7a-4873-9d40-f72f99d76e3d" d="M974.6,568.46c.12-.1.74-.71.84-.6-.09.98.17,1.91.24,2.88l-4.5.24c-.14-.08.25-.33.3-.36-.13-.25.26-.33.48-.24.82-.53,1.53-1.09,2.28-1.68.08-.06.2-.11.36-.24Z"/>
  <path class="uuid-c85194f0-1766-4fc0-a6ef-1b5497642728" d="M935.13,553.7l-.48.18c.15.5.4,0,.36.42l.24-.18s.24.34.24.36c0,.05-.46.08-.24.3.07.07.42-.32.36.06-.35.14-.1.52-.12.54-.03.03-.78-.33-.24.36l-.6.36.3-.96c-.13-.31-.46-.08-.52-.13-.07-.06.06-.27-.14-.22-.1.2.26.69.24.72-.02.02-.45.14-.47.12-.03-.02-.27-.68-.24-.72.01-.02.2.09.24.06.51-.33-.19-.22-.24-.42.54-.12,1.18.59,1.32-.12l-.72.12c.22-.46-.3-.63-.36-.3-.1.53-.5-.26-.48-.29.01-.02.31-.02.36-.2.06-.23-.3-.37.12-.47l-.24-.3.36.12c-.11-.3.14-.52.36-.36.06.04-.39.56-.36.6.11.08.46,0,.47.01.11.21-.21.45.49.35Z"/>
  <path class="uuid-91627039-cea9-42b1-b7de-3897ecbef5cf" d="M1000.49,543.05c.22.19.14.88.17.92.05.06.26-.07.21.13h-.48c-.05.22.2.08.24.12.06.06-.26.23-.23.4.03.16.43.28.35.56-.36-.51-.84,0-.72-.6.56.34.01-.66.48-.9-.28-.43-.32.22-.42.18-.55-.21.23-.8-.66-.48.1-.43.78-.57,1.06-.33Z"/>
  <path class="uuid-91627039-cea9-42b1-b7de-3897ecbef5cf" d="M999.8,541.22c.09.17.22.84.36,1.08-.36-.22-.55.21-.96.12-.05-.22.2-.08.24-.12.13-.15-.05-.3-.24-.24.14-.06.3-1.38.6-.84Z"/>
  <path class="uuid-91627039-cea9-42b1-b7de-3897ecbef5cf" d="M1001.48,546.26l-.36-.6-.12.48c-.83-.48.07-.77,0-1.44l.48,1.56Z"/>
  <path class="uuid-91627039-cea9-42b1-b7de-3897ecbef5cf" d="M998.48,538.7c.09.27.36.65.06.84l-.12-.36c-.15.6-.43-.47-.9-.12.08-.31.4-.2.6-.24.1-.02.24-.14.36-.12Z"/>
  <path class="uuid-91627039-cea9-42b1-b7de-3897ecbef5cf" d="M1004.84,556.34l.48-.25c-.23-.31.07-.21.16-.35.05-.08.22-.81.56-.18.01.02-.53.22-.24.42-.32.11-.63.25-.96.36Z"/>
  <path class="uuid-91627039-cea9-42b1-b7de-3897ecbef5cf" d="M1006.16,555.86l.36-.36c.12-.12-.49-.13-.24-.36.11-.1.71.4.84.48-.29.12-.68.15-.96.24Z"/>
  <path class="uuid-91627039-cea9-42b1-b7de-3897ecbef5cf" d="M1001.84,554.18c.07.3-.51.43-.59.35-.04-.04,0-.24-.08-.34-.1-.14-.33-.06-.3-.25l.96.24Z"/>
  <path class="uuid-91627039-cea9-42b1-b7de-3897ecbef5cf" d="M969.32,569.42c.09.42-.43.08-.36.48l-.48-.24c-.1-.41.62-.28.84-.24Z"/>
  <path class="uuid-91627039-cea9-42b1-b7de-3897ecbef5cf" d="M999.96,545.14s.42.09.08.22c-.54.21-.45,0-.6-.42.14.06.47-.14.48-.12.01.02-.03.19.04.32Z"/>
  <path class="uuid-91627039-cea9-42b1-b7de-3897ecbef5cf" d="M971.96,570.38c-.21.13-.36.17-.48.24-.13.03-.42-.16-.36-.24.38-.08.52-.35.84,0Z"/>
  <path class="uuid-c85194f0-1766-4fc0-a6ef-1b5497642728" d="M938.37,551.3c-.27.99-.22.16-.84.12,0-.26.81-.15.84-.12Z"/>
  <path class="uuid-91627039-cea9-42b1-b7de-3897ecbef5cf" d="M1004.24,555.5c-.07.08-.39.47-.42.47-.2.01-.4-.24-.3-.47h.72Z"/>
  <path class="uuid-91627039-cea9-42b1-b7de-3897ecbef5cf" d="M978.8,567.38l-.24-.36c.47.09.06-.52.36-.6.01.32.32.78-.12.96Z"/>
  <path class="uuid-91627039-cea9-42b1-b7de-3897ecbef5cf" d="M999.92,554.78c.06.11-.07.32-.18.36-.32.12-.28-.27-.54-.24.09-.31.19-.17.35-.16.04,0,.36.03.36.04Z"/>
  <path class="uuid-91627039-cea9-42b1-b7de-3897ecbef5cf" d="M1001.72,547.34h-.36c-.13-.32.24-.21.25-.31,0-.16-.2-.43-.13-.65.27.01.27.92.24.96Z"/>
  <path class="uuid-91627039-cea9-42b1-b7de-3897ecbef5cf" d="M1001.24,557.42c.18-.28.17-.44.3-.72l.3.6c-.19.06-.45.07-.6.12Z"/>
  <path class="uuid-91627039-cea9-42b1-b7de-3897ecbef5cf" d="M977.36,565.7c-.03-.07-1.03.05-.72-.24.09-.09.85-.21.72.24Z"/>
  <path class="uuid-91627039-cea9-42b1-b7de-3897ecbef5cf" d="M1004.01,550.33c.12.1.56-.36.47.13-.56,0-.91.42-.6-.36.2-.05.07.18.13.23Z"/>
  <path class="uuid-91627039-cea9-42b1-b7de-3897ecbef5cf" d="M998.6,561.02s-.4.31-.48.24l.24-.6c.16.03.29.21.24.36Z"/>
  <path class="uuid-c85194f0-1766-4fc0-a6ef-1b5497642728" d="M939.21,552.62l-.6-.06c.07-.39.6-.37.6.06Z"/>
  <path class="uuid-91627039-cea9-42b1-b7de-3897ecbef5cf" d="M1009.52,553.1s.11.18.12.24c-.09.07-.79-.27-.84-.48.16-.01.63.16.72.24Z"/>
  <path class="uuid-91627039-cea9-42b1-b7de-3897ecbef5cf" d="M1009.04,553.34c.05.19-.18.09-.2.14-.04.1.06.39-.1.46l-.06-.72.36.12Z"/>
  <path class="uuid-c85194f0-1766-4fc0-a6ef-1b5497642728" d="M933.09,553.7c-.21-.22.14-.61.18-.6.43.18-.12.66-.18.6Z"/>
  <path class="uuid-91627039-cea9-42b1-b7de-3897ecbef5cf" d="M1004.84,555.38c.29-.68.83-.13.41,0-.12.03-.28,0-.41,0Z"/>
  <path class="uuid-4b87c592-5238-4901-9871-ec4e6ef24269" d="M937.86,527.69c1.79-.32,2.61,1.84,2.67,3.27.05,1.15-.52,3.42-1.86,3.65-3.33.57-3.34-6.46-.81-6.92Z"/>
  <path class="uuid-43364392-7fee-4900-82cb-46d0af44d78c" d="M921.18,527.33c3.62-.75,3.5,7.59-.09,6.63-2.12-.56-2.11-6.18.09-6.63Z"/>
  <path class="uuid-fb5315aa-d4f9-415d-9328-82d1c2e4ed9c" d="M925.14,535.73c1.32-.39,1.25.91,1.9,1.53.99.95,2.7,1.12,3.86.38.84-.53,1.06-2.13,2.23-1.55,1.1.54.43,1.84-.16,2.55-2,2.41-6.31,2.08-7.97-.54-.41-.65-.91-2.05.14-2.37Z"/>
  <path class="uuid-c9470849-33de-4920-a6fe-ab9885a7b616" d="M962.96,530.43c.28-.01.52-.4.65-.61,4.17-6.62,9.5-13.02,15.42-18.17.34-.29,2.41-2.04,2.61-2.08.7-.15.62.61.27,1-4.03,3.99-8.02,7.99-11.63,12.36-2.2,2.66-4.36,5.42-6,8.45-.6-.17-1.04-.41-1.32-.96Z"/>
  <path class="uuid-e649a50f-eacb-45d3-95e1-3fb490c5d5a9" d="M956.12,566.78s.24.74.23.78c-.02.13-.34.16-.35.18-.02.03.35.38.12.6-.03.03-.97-.05-.24-.3-.42-.65-.1-.27.04-.57.06-.14-.1-1.01.2-.69Z"/>
  <path class="uuid-e649a50f-eacb-45d3-95e1-3fb490c5d5a9" d="M957.09,566.3c-.09.24-.67.44-.84.18l.84-.18Z"/>
</svg>