<?xml version="1.0" encoding="UTF-8"?>
<svg id="uuid-41e3a34b-d0d4-45de-ba9d-99e36990a2c3" data-name="Layer 1" xmlns="http://www.w3.org/2000/svg" viewBox="0 0 1920 1080">
  <defs>
    <style>
      .uuid-f0787744-55a8-48b7-bc3d-94ada8f72b73 {
        fill: #a87531;
      }

      .uuid-73eb6d62-90e2-4052-a274-80f4952b9cd7 {
        fill: #d18a41;
      }

      .uuid-b8ccd15f-d103-4ac7-842e-890ccbe60ac3 {
        fill: #e89c4e;
      }

      .uuid-cb2ffe81-78ec-4ebf-9707-4ff522d92e28 {
        fill: #dda053;
      }

      .uuid-bcc6d401-9d6b-4922-97f9-34d62b325572 {
        fill: #e9e4dc;
      }

      .uuid-2e857aa2-191c-4232-aeb2-f3cd8d938625 {
        fill: #9d6226;
      }

      .uuid-922231f6-d16f-467a-b060-f65794698de2 {
        fill: #9d6225;
      }

      .uuid-f861fbe0-da95-4cf5-b3cd-a9febcfc49d8 {
        fill: #f0b565;
      }

      .uuid-e95275f0-54f9-4939-967d-703eaa1bca44 {
        fill: #e79c4e;
      }

      .uuid-60a0bc91-fd72-4796-b2d9-f014b6dcab64 {
        fill: #b06e2d;
      }

      .uuid-59fbad9d-e875-4a94-8e33-16483e6fa2f3 {
        fill: #b26e2e;
      }

      .uuid-b0515507-b6c6-4e1d-9de3-41a013dc733a {
        fill: #b16e2d;
      }

      .uuid-e11cc968-d437-4fe8-b5ae-6ce0ed91a942 {
        fill: #6d4a0f;
      }

      .uuid-9519765a-1382-479d-ba75-6106c9304150 {
        fill: #e79b4e;
      }

      .uuid-4015ce75-7707-4812-b2d0-f2ce741a5a53 {
        fill: #dea254;
      }

      .uuid-ffc1ceb3-d247-43a0-8776-a86fcd0bffb6 {
        fill: #fefefe;
      }

      .uuid-2c48ff9a-7688-4cbb-8cdd-1fe0279f06ae {
        fill: #6c4a0f;
      }

      .uuid-216c3b54-9c21-4237-8d57-863d06845965 {
        fill: #6d4b0f;
      }

      .uuid-018cf33d-d980-4b64-8d18-8b3953aefc08 {
        fill: #f0b665;
      }
    </style>
  </defs>
  <path class="uuid-216c3b54-9c21-4237-8d57-863d06845965" d="M718.92,379.86c1.11-13.92,10.05-29.45,22.34-36.26,8.33-4.62,18.68-5.6,27.88-3.44,7.71-30.68,30.32-53.82,58.19-67.39,10.86-5.29,23.08-9.63,35.09-11.07-.83-7.42-1.26-11.31,6.08-14.72,9.43-4.39,20.59-.58,29.78,3.01.98.38,4.61,2.53,5.04,2.49.23-.02,2.44-2.26,3.32-2.76,8.67-4.85,17.42,3.9,22.74,9.95.72.82,1.95,3.5,2.72,3.96,1.55.95,7.83,1.95,10.1,2.7,24.74,8.16,43.65,21.37,58.64,42.77,9.69,13.83,15.7,29.04,18,45.86,9.49-.52,18.75-1.83,27.4,2.98,36.92,20.51,21.04,85.78-19.29,96.8-7.4,2.02-13.96,1.83-21.48.77-1.88,5.67-5.03,11.35-8.27,16.36-.53.82-3.13,3.62-2.78,4.15.88.13,1.66.71,2.35,1.25,19.18,15.09,38.32,29.35,54.08,48.29,28.68,34.47,49.86,79.11,52.62,124.37.25,4.04-.37,8.18.24,12.19,19.77-12.61,33.03-36.62,34.22-60.01,4.13-81.28-80.99-126.45-62.26-210.09,9.91-44.27,57.76-74.19,98.66-46.4,18.84,12.8,35.3,46.89,22.03,68.09-8.09,12.94-32.14,12.64-37.63-2.74-2.08-5.82-1-11.4-3.37-17.2-7.45-18.23-27.56-10.77-33.13,5.12-14.76,42.14,24.09,83.7,40.8,119.24,32.12,68.3,25.07,157.53-52.06,190.02-3.14,1.32-16.09,5.19-17.53,6.39-.81.67-4.76,8.38-6.03,10.23-.9,1.31-5.01,5.73-5.24,6.27-.27.63,1.05,4.5,1.21,5.73,2.19,2.41,1.11,7.58.28,10.69-5.58,20.97-33.71,29.61-52.33,34.91-28.89,8.22-82.46,8.9-59.93-35.63.03-.24-2.44-.8-2.52-.69-6.38,24.4-29.61,53.94-57.57,44.32-5.37,1.02-10.5.87-15.38-.46-12.59-4.34-27.25-10.32-25.16-26.39-7.49-.02-14.81-2.15-20.13-7.47-2.9,11.98-14.59,16.53-24.68,9.27-5.06,5.91-9.09,9.53-17.05,9.99-13.08.75-34.62-2.29-41.13-15.39-.86-1.72-2.28-4.66-1.24-6.14-.32-2.38-.26-4.7.21-6.96,2.28-14.76,12.27-21.1,17.94-32.53,2.39-4.82,4.48-13.49,6-18.91,14.72-52.21,20.46-106.31,29.76-159.63,1.24-7.09,2.8-14.21,4.55-21.2-.12-.82-8.96-3.53-10.55-4.16-25.81-10.35-51.22-27-60.85-54.43-2.41-6.88-4.39-14.67-3.16-21.96-14.92-5.43-25.22-19.28-29.74-34.11l-1.78-9.94c.19-3.28-.26-6.81,0-10.05Z"/>
  <path class="uuid-bcc6d401-9d6b-4922-97f9-34d62b325572" d="M1083.39,736.73c1.23-.68,2.71-.55,4.06-.47,24.64,1.47,72.46,11.09,92.03,26.12,20.73,15.92,6.69,30.57-10.63,39.98-37.03,20.11-99.63,26.98-141.66,30.05-74.35,5.44-170.08,3.55-241.78-17.46-18.98-5.56-72.53-23.59-45.21-50.48,4.75-4.68,17.8-12.12,24.15-14.12.49-.15.92-.31,1.45-.22l.48,3.82c.2-1.92-.25-4.16-.02-6.02.08-.66.49-1.06.5-1.15-1.21,8.91,2.42,17.14,10.5,21.31,3.03,1.56,11.93,5.16,15.09,5.48,4.75.48,16.14,1.29,20.45.38,5.23-1.11,9.65-6.12,13.02-9.93,10.75,7.79,21.31,3.24,24.17-9.33.47-2.08,1.09.16,1.63.72,5.57,5.85,12.51,7.01,20.36,7.17-2.08,10.47,4.15,18.43,13.61,22.03,3.79,1.44,6.18,2.42,9.83,4.04,7.1,3.13,9.96.49,15.98.76,1.54.07,4.11,1.58,6.31,1.82,25.44,2.75,45.08-24.21,50.44-46.31l4.74.93c-4.65,9.54-10.13,21.77-1.74,30.92,10.54,11.5,35.17,9.75,49.2,7.2,14.07-2.55,45.3-12.72,54.67-23.3,6.09-6.88,9.64-14.66,8.36-23.92Z"/>
  <path class="uuid-60a0bc91-fd72-4796-b2d9-f014b6dcab64" d="M994.42,488.45c7.4,5.91,15.45,11.04,22.71,17.23,36.04,30.78,66.17,77.54,74.24,124.76,4.73,27.64,4.87,67.32-12.85,90.66-1,1.31-4.81,4.54-5.08,5.44-.73,2.45.63,9.2.59,12.34-.25,17.87-17.13,23.13-31.3,28.46l-.91-1.26c.05-11.39-9.09-19.42-18.56-24.16l-.61-1.37c3.37.21,11.35,2.25,13.67-.44.62-.72.89-.96.46-1.94-1.22-2.74-12.42-5.09-15.69-6.34-18.66-7.16-34.16-23.65-34.19-44.49,5.5-17.06,7.39-36.85,12.82-53.68,5.92-18.35,25.83-24.35,43.12-20.69,2.25.48,11.56,3.89,12.84,3,1.59-3.88-4.81-7.89-7.83-9.44-11.97-6.16-26.79-5.24-38.26,1.61l-6.55,4.69c.79-7.93,1.66-17.15.95-25.1-.48-5.4-4.08-13.36-6.47-3.61-2.81,11.47-2.95,25.79-5.13,37.92-7.31,40.49-20.71,89.37-35.74,127.62l-1.06-.06c-3.68-5.64-10.28-5.53-16.37-5.03l-3.01-.3c-7.86-4.8-16.01-9.18-25.77-7.73l-1.13-.75-1.36-5.38c12.87-32.41,20.65-68.73,24.79-103.46,1.66-13.92,3.65-31.11,2.89-44.99-.44-8.03-2.82-16.67-6.02-3.11-.96,4.08-1.19,8.37-2.14,12.45l-.97-.88c-.22-16.32-22.27-27.94-36.53-30.56l-1.24-1.09c.95-.46.44-1.28-1.52-2.47-1.13-3.04-4.61-9.37-3.45-2.16-2.92,2.49-9.41,3.08-8.96-2.42-1.57-1.39-2.08-3.28.07-4.25-.79-1.13-2.5-1.41-3.84-1.43.53,5.78-5.09,2.31-3.52-1.14,2.81-1.26-1.92-.55-2.98.1,1.61,1.16.91,2.64.17,4.09,2.78-.42,3.62,1.13,2.53,4.65,3.59,3.04.4,5.34-3.2,4.28-.83.51-1.6.59-2.31.25,1.18,4.07-1.56,3.41-4.26,2.48l.05,2.13c-2.38,2.24-6.67,1.41-5.29-2.83l-2.72-.19c.47,3.92-2.05,5.18-3.63,1.08-4.3,1.12-7.7-.2-7.18-5.07-3.4-.33-3.13-4.62.06-5.13-5.59-3.01-1.99-5.13,2.42-5.11-.82-1.7-1.56-3.77.72-4.76.16-.31-3.34-4.86-4.71-4.82-2.12-.5-4.15-1.24-6.09-2.22l-.23-1.37c.06-.29-.06-.67,0-.96.35-.13.71-.25,1.08-.31.92-.14,15.58,4.4,17.87,5.24.66.24,1.17.76,1.62,1.29l-.07,1.18c1.2,2.01,1,3.29-.61,3.85-1.82-.99-2.92-1.29-2.78,1.26-2.47,1.8-2.39,1.97.59,1.8-.11-2.56,1.75-2.53,3.07-.71.75.47,5.84.74,5.96.45.48-1.2-2.63-1.99-3.47-1.85-1.68-.97-1.66-4.31-1.24-5.97.83-1.15,1.91-.94,1.91.48.38,1.51,10.9,1.81,12.06,1.36l.86-.88c-.06-.37-.07-.94.16-1,2.99-.75,13.24-2.81,15.86-2.72l.72.85c.15,1.05.92,1.74,2.3,2.08.57,1.09,1.1,1.55,1.58,1.38-2.07-2.09-.74-3.48,1.73-3.98l.13-1.39c3.66-2.59,7.7-4.73,12.14-6.41,20.07-10.91,40.36-19.76,62.49-24.9,10.96-2.74,19.97-7.81,28.4-14.61l1.24.48Z"/>
  <path class="uuid-018cf33d-d980-4b64-8d18-8b3953aefc08" d="M870.06,509.98c-31.64,1.01-68.43-10.99-91.36-33.01-20.17-20.99-17.59-57.21,3.58-76.4,1.99-1.78,1.95-3.58,1.74-6.1-7.71-29.64,3.51-65.53,35.74-74.5,18.08-5.04,32.14,4.42,44.77,15.67l1.05.27c13.22-8.18,26.83-15.82,43.23-16.56,52.63-2.39,74.86,53.92,45.51,92.79-1.24,1.58-1.49,3.04-.75,4.38,9.84,9.29,11.12,24.22,8.44,37.03-8.65,41.27-53.88,57.66-91.95,56.44Z"/>
  <path class="uuid-60a0bc91-fd72-4796-b2d9-f014b6dcab64" d="M778.71,476.97c-12.14-11.66-20.63-28.34-18.59-45.62.92-7.85,3.98-17.24,7.03-24.54.41-.97,3.06-6.91,3.4-7.11.29-.17,4.17.73,5.29-.23-1.34-10.04-1.95-20.72-1.46-30.87,2.23-45.7,26.13-76.92,68.78-92.43,5.9-2.15,21.86-7.05,27.59-6.78,1.69.08,3.62,1.89,5.9,2.23,12.74,1.91.49-6.31-2.04-9.44-1.93-2.39-4.8-6.7-.25-7.91s22.52,4.91,26.56,7.9c2.09,1.54,8.37,9.3,10.12,9.47.86.08,3.54-1.4,3.44-2.44-.13-1.36-5.44-10.12-4.23-11.33,4.62-.8,9.15,4.15,11.97,7.4,1.31,1.51,2.22,3.5,3.33,4.8,2.66,3.09,18.46,6.87,23.57,8.96,28.42,11.63,52.5,38.35,59.06,68.66.46,2.13,2.14,11.17,1.31,12.55-.35.59-5.14,3.42-6.2,4.32-3.64,3.05-7.85,7.99-9.57,12.44-2.27,5.86-.52,8.55,5.49,5.25l1.02.88c.34,3.25,1.73,6.29,3.84,8.77l-.07,1.35.23,1.42c-5.22,10.19-4.34,22.66-3.28,33.69l-.78.77-.17.92c-2.18,3.95-2.92,8.61-2.7,12.96-2.67-.26-2.5,4.03-3.35,5.74-.15.64-.14,1.3.01,1.99-10.6,17.53-23.52,33.04-42.14,43.51-4.72,2.66-19.26,9.95-23.85,9.74-.49-.02-.97-.11-1.46-.22-16.15,4.83-36.93,6.88-53.82,6.71-.81,0-2.13.31-2.62-.49,29.67-.95,64.25-9.21,81.9-35.05,10.05-14.72,15.01-38.23,4.39-53.89-2.42-3.57-5.75-4.02-3.45-8.32,3.1-5.78,6.97-9.61,9.48-16.35,10.53-28.22-.06-62.27-29.9-72.49-22.15-7.59-40.69-2.7-59.99,8.9-1.58.95-5.1,3.93-6.49,4.07-2.94.29-5.53-3.59-7.68-5.29-13.38-10.57-26.11-15.64-43.04-9.11-24.33,9.38-35.23,36.68-32.22,61.43.52,4.25,2.77,10.71,1.74,14.77-.44,1.72-6.48,7.23-8,9.22-13.93,18.12-14.44,45.04-1.83,64,1.17,1.77,2.97,3.18,3.74,5.11Z"/>
  <path class="uuid-59fbad9d-e875-4a94-8e33-16483e6fa2f3" d="M1097.74,702.76c3.51-9.53,4.56-19.65,5.98-29.65,11.52-5.17,20.26-14.03,27.41-24.25,18.47-26.41,19.54-56.21,11.91-86.84-15.45-61.96-73.84-99.61-57.59-170.78,7.47-32.74,41.23-55.18,73.99-42.71,18.9,7.19,35.44,31.44,31.46,52.02-1.88,9.76-8.61,14.53-18.45,11.51-6.41-1.97-5.15-10.07-5.89-15.16-2.49-17.21-17.94-28.26-34.85-21.58-25.51,10.09-24.45,47.06-18.32,69.02,7.22,25.84,25.03,46.4,37.05,70.1,24.47,48.26,34.05,111.05-3.45,155.55-12.93,15.35-30.55,25.85-49.25,32.78Z"/>
  <path class="uuid-018cf33d-d980-4b64-8d18-8b3953aefc08" d="M888.72,558.77c12.21,1.04,25.85,9.31,33.73,18.65,4.36,5.18,4.98,7.11,5.02,13.88.14,24.62-5.65,57.13-11,81.32-.75.84-1.32.36-1.7-1.45-4.8,1.08-8.84.09-13.37-1.23-1.9-.69-3.34-.02-4.32,2.04l-3.85,1.24,4.19,3.59c.72.88.61,1.52-.57,1.54-9.11-7.83-17.1-18.12-23.64-28.27-6.79-10.54-15.41-26.48-17.98-38.71-6.49-19.03-1.3-47.8,21.25-52.84,3.66-.82,9.11-1.81,12.23.22Z"/>
  <path class="uuid-b0515507-b6c6-4e1d-9de3-41a013dc733a" d="M830.84,532.46c2.86,2.49,6.74,1.64,9.59,4.54.35.35.32,1.1.62,1.51.49.66,2.2,1.21,1.71,2.75-.25.78-1.86.24-1.4,2.41.38,1.83,4.42,3.64-1.14,2.8l-3.64,1.07c-.28,1.36,5.05,2.73,3.58,4.55-2.45-1.6-4.22,1.98-1.9,2.86,1.12.42.77-1.54,1.27-1.84.41-.25,1.36.12,1.75-.13.76-.49-.55-2.58,3.19-1.85,2.36.46,1.44,4.02-1.13,4.54-1.52.3-4.87-1.22-3.33,3.28.61,1.78,4.69,1.64,6.14.79l-1.91-2.38c.62-.46,2.74.1,2.87,0,.2-.17-.64-4.79,0-5.26,1.52-1.11,2.03,3.36,2.37,3.62.29.22,4.46-.79,5.27,1.4-1.39,2.22-4.04-.85-4.78-.5-.2.1-3.34,2.74-3.36,2.97-.15,1.48,1.98,4.6,1.94,2.3,0-.58-.46-2.78,0-3.09.18-.13,3.24.81,4.29,0,.74,1.52.05,2.74.02,4.3,3.22-.6,4.55,1.58,3.34-2.87,1.56-1.14,3.81.47,4.07.47,2.28-.06-.7-4.29-.72-4.54-.04-.46.23-3.44.76-3.55,2.42,0,3.7.36,5.45,2.12-1.21,1.7-2.4-.24-3.81-.24.03,1.21-.36,2.55.71,3.34,1.19-1.66,3.43.12,4.57-.68,1.93-1.35-.99-2.78-1.02-2.97-.24-1.5,2.45-5.7-2.24-3.68-.75.32-.83,1.45-1.34,1.57-.22.05-2.93-.83-2.59-1.64.83-2.03,1.5.9,2.89.02.23-.15,1.64-3.26,1.69-3.59.19-1.31-2.47-1.37-2.19-2.88,2.05.8,6.2-2.19,7.11.3.65,1.79-1.14.89-1.37,1.13-.37.38.58,2.56,1.2,2.86,1.32.64.43-2.59.72-2.86.85-.8,4.72.07,5.51,1.42,1,1.71-.65,1.42-.98,1.9-.9,1.3.78,1.79,1.1,2.76.45,1.36-.45,3.04,1.79,3.47.9.17,5.06-.53,5.49-.95.12-.12-.85-1.46-.76-2.15.05-.41.87-.94.76-1.42s-1.44-.56-1.47-1c-.06-.7,1.15-1.9.99-2.11-.06-.08-1.26-.12-1.68-.96-1.52-3.02,2.71-2.2,2.99-.67.08.42-.35,1.02-.28,1.39.63,3.38,1.29,2.65,2.54,4.55.86,1.31,1.52,5.78,4.25,5.28.22-.04,2.3-2.79,3.66-2.42-.55.88.14,3.71-.45,4.08-1.96,1.26-2.34-1.19-2.66-1.21s-.72,2.12-2.15,1.43c-31.67-2.69-38.83,27.13-33.48,52.62-5.66-12.67-8.49-26.51-12.66-39.72-4.75-2.28-3.83,6.96-3.59,9.81,1.01,12.1,7.58,33.57,11.95,45.21.43,9.85-.96,20.69-2.28,30.83-2.11,16.24-5.36,31.76-10.42,47.01-2.35,7.06-2.85,13.92-2.48,21.06l-1.08.6-1.2.28c-2.26-1.56-5.07-2.02-7.76-1.7-2.73,1.12-5.08,1.27-7.74-.11-7.41-4.2-16.47-6.35-24.97-4.94l-.91-.71c8.37-24.13,14.73-49.55,19.87-74.61,7.6-37.09,11.37-74.87,18.88-111.96Z"/>
  <path class="uuid-2e857aa2-191c-4232-aeb2-f3cd8d938625" d="M994.42,488.45c-3.7,1.54-6.62,5.16-9.89,7.09-13.73,8.11-32.9,10.72-47.98,16.6-15.66,6.1-30.23,15.4-46.4,21.76.02,1.67-4.41,2.52-5.74,1.91l-16.74,2.87c-3.56,1.29-9.56,1.49-12.91-.48-.43-.05-1.2-.37-1.91-.48-.22,1.34-.99,1.27-1.43,0-6.97-1.21-13.9-3.96-20.57-6.22,1.06-5.16,2.64-10.23,3.44-15.45l.61-.74c3.15.99,6.38,1.76,9.65,2.25,21.16,3.17,56.94,3.11,76.16-6.93,2.24-1.17,8.05-3.89,5.8-6.88,22.46-6.72,41.06-18.09,55.2-36.88,3.13-4.16,10.09-13.82,12.24-18.14-.4,2.2,3.11,2.98,2.68,4.78-.34,1.4-5.77,9.91-6.98,11.73-5.3,8-12.86,16.76-20.62,22.43-2.73,1.99-21.51,12.34-21,14.39,2.61,2.53,7.33.92,10.52,0,6.11-1.75,11.06-5.1,16.23-8.65l13.26-10.69c.71-.12,5.41,4.92,6.39,5.71Z"/>
  <path class="uuid-f861fbe0-da95-4cf5-b3cd-a9febcfc49d8" d="M997.29,443c-2.26-2.05-.11-8.71.87-11.33.27-.73.88-2.79,2-2.54,1.03-.6,3.03.3,3.35,1.44l1,.15c.92,2.14,6,1.79,8.18,1.62,17.95-1.34,26.06-20.72,27.3-36.56.66-.35.93-1.03.82-2.05l-1.17-.81c-4.61-16.05-26.66-9.86-34.42.23l-1.25.1c-2.81-2.97-4.63-6.9-4.78-11,13.71-29.98,55.22-23.59,57.42,10.27,2,30.89-19.6,59.82-52.65,52.66-1.54-.33-5.66-1.24-6.68-2.17Z"/>
  <path class="uuid-018cf33d-d980-4b64-8d18-8b3953aefc08" d="M956.64,749.64c-4.71,11.97-11.18,22.73-23.11,28.79-4.33,2.2-15.71,6.35-17.94.03-2-5.65,7.7-16,11.32-20.06-.07-4.92-6.28-.17-8.27,1.31-6.33,4.71-11.78,12.53-12.21,20.55-11.8,1.89-12.31-7.73-7.37-15.75,1.97-3.2,7.74-8.33,8.84-10.77,2.3-5.08-4.02-2.62-6.41-1.16-6.55,4-13.39,13.11-13.71,20.97-12.91-3.37-3.99-16.9,1.43-23.22,3.97-4.63,14.22-13.22,20.1-14.58,6.05-1.4,14.41.57,19.95,3.25,1.81.88,5.32,3.88,7.18,4.3,3.3.75,7.95-.35,11.64.32,2.9.53,7.54,3.06,8.59,6Z"/>
  <path class="uuid-018cf33d-d980-4b64-8d18-8b3953aefc08" d="M834.67,726.2c.24-.09.49-.17.74-.2,1.95-.21,7.86,11.57,5.96,14.07.86,1.59,1.02,3.5.48,5.74,0,5.31-.45,14.04-7.91,11.5-6.42-2.18-.34-8.3-1.38-12.97-.26-1.16-1.98-4.09-3.34-3.76-.84.2-7.15,12.91-8.51,14.94-2.69,3.99-7.61,10.19-13.03,9.39-7.94-1.16-2.16-11.42-.04-15.29.76-1.38,4.41-6.19,4.48-7.01.09-.91-1.46-2.17-2.45-2.01-2.71.42-9.96,9.05-11.36,11.65-1.96,3.65-2.57,7.53-2.45,11.66-11.49,2.41-7.69-13.27-4.94-19.53,1.13-2.56,5.1-7.41,3.6-9.85-1.84-3.01-4.76.72-6.23,2.44-5.21,6.07-7.62,13.81-7.9,21.75-6.95-4.34-4.43-13.68-1.76-19.94,1.55-3.65,10.27-18.57,13.48-19.77,4.81-1.8,15.43.07,20.34,1.91,2.96,1.11,7.03,4.12,9.98,3.82,1.09-.11,2.11-.8,3.4-.94,3.07-.33,6.46.36,8.85,2.39Z"/>
  <path class="uuid-018cf33d-d980-4b64-8d18-8b3953aefc08" d="M1022.64,740.56c10.61,5.1,20.87,13.9,20.09,26.79-10.9,4.11-22.24,7.51-33.98,7.93-1.47-7.39,3.76-15.81,9.14-20.7-.56-5.3-5.28-1.06-7.45.79-6.18,5.27-10.68,12.08-9.79,20.59-10.86,1.42-14.75-4.08-9.58-13.65,1.19-2.21,8.7-10.24,8.58-10.92-.71-4.21-8.55.76-10.01,2.56-1.62.79-1.24-.97-.15-2.02-1.09-2.72-2.03-5.66.15-8.03,9.62-4.61,22.64-4,33-3.35Z"/>
  <path class="uuid-018cf33d-d980-4b64-8d18-8b3953aefc08" d="M753.84,416.21c-.45,1.76-1.49,5.02-2.28,6.57-.22.44.13.78-.82.62-2.91-.51-10.19-7.86-12.12-10.37-15.39-19.98-12.65-58.33,15.59-63.65,2.07-.39,11.32-1.37,12,.65,1.31,3.86-2.3,14.65-1.38,19.31-8.02-4.45-17.38-4.62-22,4.31-2.26,9.69-2.88,17.79,3.69,26.04,2.91,2.67,6.04,5.06,9.4,7.15.35,3.2-.34,6.33-2.09,9.39Z"/>
  <path class="uuid-922231f6-d16f-467a-b060-f65794698de2" d="M842.32,740.08c-.77.11-.23-1.17-.19-1.11.09.18-.25,1.43-.76,1.11-.79-4.42-3.21-10.91-6.7-13.87.61-2.68-.19-5.54-.02-8.39.62-9.97,6.13-23.43,8.41-33.69,3.74-16.87,5.94-34.24,6.92-51.44.1-1.76.53-4.24.95-5.98,1.5,3.99,12.45,24.56,12.33,25.99-.07.78-1.33,2.44-1.68,3.56-3.05,9.95-4.91,20.31-8.03,30.24-2.56,8.17-10.76,26.15-10.76,33.73v8.13c0,.19.49.79.5,1.42.04,3.43.06,7-.97,10.3Z"/>
  <path class="uuid-2e857aa2-191c-4232-aeb2-f3cd8d938625" d="M897.33,721.9c3.43-4.27-4.87-7.44-7.8-9.66-9.38-7.1-15.45-16.17-18.95-27.45-2.68-8.63-3.56-13.22-1.02-22.01.18-.61.04-1.22.75-1.63,7.83,12.52,18.17,23.85,30.22,32.43,2.74,1.95,6.08,4.51,9.24,5.36-2.34,7.69-4.68,15.41-7.41,22.98-.17.48-.67.79-.72.94-.77,2.14-3.35.26-4.3-.96Z"/>
  <path class="uuid-b8ccd15f-d103-4ac7-842e-890ccbe60ac3" d="M753.84,416.21c.44-1.7,1.89-7.93,1.19-9.09-.25-.42-5.42-3.21-6.7-4.3-8.29-7.03-10.41-19.7-5.49-29.19l.48,2.87c.47.34,4.89-3.23,6.48-3.33,1.35-.08,7.2.91,8.54,1.46,5.2,2.14,6.95,16.18,5.82,21.04-.46,1.97-2.79,4.87-3.71,6.82-2.13,4.53-3.7,9.68-6.61,13.72Z"/>
  <path class="uuid-ffc1ceb3-d247-43a0-8776-a86fcd0bffb6" d="M878.67,716.63c-8.74,1.3-17.4,3.95-23.43,10.78l-5.27,7.88c-1.51-7.78.11-14,2.38-21.3,2.72-8.76,6.51-17.24,9.1-26.06l3.74,9.41c3.47,7.11,8.17,13.46,13.47,19.29Z"/>
  <path class="uuid-e95275f0-54f9-4939-967d-703eaa1bca44" d="M901.63,722.86c-.64,1.78-1.88,7.62-2.65,8.59-.89,1.12-4.75,3.16-6.19,4.34-2.92,2.39-7.02,5.92-9.59,8.59-1.32,1.37-6.7,8.84-7.25,9.01-1.04.32-3.64.12-4.22-.86-1.88-3.19,2.78-11.23,4.82-13.85.67-.86,4.5-4.25,4.51-4.57.01-2.4-6.91-.56-8.12.72-1.89.58-1.05-1.64.51-2.15,2.86-.34,3.49-2.18,1.89-5.5,6.19-1.54,12.39-2,18.28-3.48,1.18-.3,3.18-1.66,3.72-1.78,2.03-.45,2.75,1.82,4.3.96Z"/>
  <path class="uuid-2e857aa2-191c-4232-aeb2-f3cd8d938625" d="M981.98,706.11c1.32,7.03,6.58,13.38,11.24,18.67.9,1.02,6.26,5.92,6.32,6.44.03.23-.36.79-.4,1.16-3.56.46-7.63,1.05-11.04,2.1-2.06.64-6.23,3.22-7.78,3.23-1.85.01-5.44-1.89-7.65-2.43-.55-.13-.89.39-.72-.68l10.03-28.48Z"/>
  <path class="uuid-4015ce75-7707-4812-b2d0-f2ce741a5a53" d="M896.85,678.37s.51-.12-.17-.94-4.59-3.46-4.59-4.08c0-1.47,3.67-1.68,4.44-2.12.63-.36.94-2.05,2.11-2.35,2.18-.57,7.63,1.59,9.92,1.86,1.38.16,7.15-.78,7.43-.49.19.2-.4,2.09.48,2.39-1.34,6.07-2.94,12.11-4.31,18.18-4.97-3.83-11.23-7.64-15.3-12.44Z"/>
  <path class="uuid-73eb6d62-90e2-4052-a274-80f4952b9cd7" d="M875.33,727.16c1.01-.41,1.6,1.93,1.69,2.4.79,4-2.21,2.91-4.12,4.57-.45.39.06.66.04.68-3.22,3.01-7.23,6.73-8.02,11.35-.33,1.94.19,3.94-.6,5.87-11.43-1.76-6.47-15.48-.22-20.56,3.76-3.05,6.93-3.25,11.23-4.32Z"/>
  <path class="uuid-cb2ffe81-78ec-4ebf-9707-4ff522d92e28" d="M989.64,743.9c.67,1.21-.44,2.17-.44,3.53,0,1.23,1.39,4.47,1.33,4.77-.12.52-.91.84-1.1,1.27-.12.27.22.45.21.47-.9,1.41-2.31,2.31-3.27,3.67-2.96,4.24-5.48,9.21-5.35,14.51-11.49-6.76.08-24.14,8.61-28.22Z"/>
  <path class="uuid-b0515507-b6c6-4e1d-9de3-41a013dc733a" d="M842.32,740.08c.08,1.73.34,4.37-.48,5.74,0-1.8-.16-3.99-.48-5.74.78-1.64.85-2.32.96,0Z"/>
  <path class="uuid-b0515507-b6c6-4e1d-9de3-41a013dc733a" d="M852.85,537.72c1.3,1.17.6,3.95,1.16,4.82s3.22-.53,4.34,2.39c1.08,2.79-1.96,1.38-2.87,1.4-2.69.05-3.53,1.1-5.74-1.9-.61.35,0,2.16-.23,2.39-.22.22-5.93.43-3.86-2.2.59-.75,1.95-.33,1.47-2.1-.21-.21-3.88.4-3.35-1.43,1.44-.92,2.26.26,3.16.34,1.23.1,2.63-1.12,3.77.6,2.07-1.82-2.74-2.33.72-4.3.44.08.99-.07,1.43,0Z"/>
  <path class="uuid-b0515507-b6c6-4e1d-9de3-41a013dc733a" d="M890.15,533.89c2.74,2.13-.42,2.37-1.59,2.88-1.37.59,1.2,2.63,1.84,2.85,1.18.41.45-1.66,1.47-1.88,2.21-.49,2.53,3.8-.14,4.21-.81.13-1.68-1.59-2.87-1.76-.68-.09-1.9.54-2.05.4-.07-.07.09-1.32-.68-1.96-.67-.56-2.27-.65-3.15-.92-.07-.09,1.28-1.79,1.43-1.91,1.34-1.01,3.97-1.22,5.74-1.91Z"/>
  <path class="uuid-b0515507-b6c6-4e1d-9de3-41a013dc733a" d="M867.67,538.68c1.74,2.91-3.96,1.47-4.97,1.48-2.7.04-3.82,1.15-6.91-.38-.9-.45-1.31.13-1.03-1.58,4.19.49,8.69.46,12.91.48Z"/>
  <path class="uuid-b0515507-b6c6-4e1d-9de3-41a013dc733a" d="M854.76,553.98c-.28-.29.1-1.65.73-1.91,2.09.41,4.06,2.65,2.87,4.79-.93,1.67-1.86-2.42-2.17-2.65-.4-.31-1.35-.15-1.43-.23Z"/>
  <path class="uuid-b0515507-b6c6-4e1d-9de3-41a013dc733a" d="M846.15,550.64c-.6.62-2.45-1.29-2.82-1.72-1.06-1.24.18-1.77,1.4-1.88.28.64,1.85,3.17,1.42,3.61Z"/>
  <path class="uuid-b0515507-b6c6-4e1d-9de3-41a013dc733a" d="M847.58,539.15c-.67.91-4.52.46-3.35-1.91,1.01-.59,4.14.84,3.35,1.91Z"/>
  <path class="uuid-e11cc968-d437-4fe8-b5ae-6ce0ed91a942" d="M860.98,432.96c-3.66.46-6.05,1.89-7.17,4.31-.46,4.43-.44,16.53.71,20.58.86,3.04,2.32,4.64,5.41,5.6,7,2.16,19.38-3.34,24.72-8.01,3.26-2.85,7.99-12.44,12.65-7.84,3.32,3.28-.05,8.56-2.36,11.43-16.06,19.95-56.86,20.15-75.79,4.54-4.02-3.31-11.95-13.04-6.11-17.69,4.61-3.68,7.35,4.26,9.91,7.19,5.61,6.41,14.91,10.2,23.2,11.47-3.41-9.4-1.11-19.55-2.49-29.32-4.88-5.26-16.66-14.6-6.45-21,6.99-4.38,18.63-3.47,26.01-.47,13.68,5.56,7.55,14.05-2.24,19.22Z"/>
  <path class="uuid-216c3b54-9c21-4237-8d57-863d06845965" d="M920.12,408.39c-7.26,6.83-15.1.96-16.93-7.37-1.59-7.26,1-22.32,8.71-25.49,9.37-3.86,13.84,8.22,14.15,15.54.22,5.12-2.13,13.74-5.93,17.31Z"/>
  <path class="uuid-216c3b54-9c21-4237-8d57-863d06845965" d="M816.36,371.83c10.06-2.04,12.26,12.72,11.55,19.68-.67,6.58-6.84,20.95-15.32,15.44-5.69-3.69-6.6-14.94-5.55-21.01.77-4.47,4.34-13.1,9.32-14.11Z"/>
  <path class="uuid-f0787744-55a8-48b7-bc3d-94ada8f72b73" d="M860.98,432.96c-.79.42-1.55,1.08-2.53,1.54-1.81.84-3.39.22-4.65,2.77.07-.64.04-1.17.35-1.78.56-1.1,5.4-3.55,6.82-2.52Z"/>
  <path class="uuid-2c48ff9a-7688-4cbb-8cdd-1fe0279f06ae" d="M1040.82,393.73c.07,2.55-.79,3.96-3.09,2.04-8.44-10.62-25.9-.65-29.33,9.96,1.24,6.48,2.57,13.68.48,20.22-.69,2.15-3.08,6.84-5.36,4.61-.87.1-2.94-.65-3.35-1.44-.2-.39-.45-2.47-.5-3.09-.73-9.81-1.25-24.59,4.32-32.79,7.88-11.6,33.18-17.86,36.83.48Z"/>
  <path class="uuid-9519765a-1382-479d-ba75-6106c9304150" d="M1003.51,430.56c5.94-.66,5.68-13.21,5.26-17.46-.61-6.09-3.29-5.96,1.04-12.36,5.06-7.47,17.87-14.15,26.19-8.18,1.47,1.05,3.92,5.81,4.82,1.16.75,3.78-1.64,13.79-3.12,17.69-2.15,5.69-9.31,17.11-15.07,19.37-1.82.71-9.03,2.55-10.82,2.61-.86.03-5.94-.38-6.52-.55-.87-.25-1.67-1.38-1.77-2.29Z"/>
</svg>