<?xml version="1.0" encoding="UTF-8"?>
<svg id="uuid-317662cd-ea94-4ff1-acd6-5d5fd536635d" data-name="Layer 1" xmlns="http://www.w3.org/2000/svg" viewBox="0 0 1920 1080">
  <defs>
    <style>
      .uuid-124b013f-0163-4242-85b1-aba9cf9a8253 {
        fill: #8d5626;
      }

      .uuid-2a6ce0be-518f-496e-8b11-0551eed21803 {
        fill: #2e0800;
      }

      .uuid-c8e90582-469f-4276-ac3f-1e0201cb19fb {
        fill: #643f10;
      }

      .uuid-8cc027ac-34cc-4118-bc36-6a394e8e859d {
        fill: #8e5726;
      }

      .uuid-43574341-f476-4d57-97cb-b819845c0fd3 {
        fill: #1c0400;
      }

      .uuid-b8f447f5-4a6b-418b-8bfb-232002b33630 {
        fill: #d0914e;
      }

      .uuid-f96fb832-9b77-47a6-9017-1d34cdb98eb8 {
        fill: #aa6c31;
      }

      .uuid-da4c0634-f030-45ae-ac66-cfb89bbcc1bb {
        fill: #6c4112;
      }

      .uuid-eb6888e5-50d0-4842-9a5d-3f1917e6465a {
        fill: #1f0401;
      }

      .uuid-8250b269-80aa-448d-a087-ba0664753790 {
        fill: #a96b30;
      }

      .uuid-2d79c30b-5005-4ce6-8e93-4c2a1dab5d8c {
        fill: #e9e1d7;
      }

      .uuid-22bb9ca9-50ef-4fe1-924c-86620ce9ed17 {
        fill: #8c5525;
      }

      .uuid-fc7be55b-9854-43b1-84e4-c6f9a1156eb2 {
        fill: #955c27;
      }

      .uuid-3dfe12ca-12ce-4af4-be59-1dc076cc27d0 {
        fill: #8f5726;
      }

      .uuid-117e2584-585e-43c9-bc0b-5c40c8a4d4a0 {
        fill: #945b27;
      }

      .uuid-a7d78bdf-1dfa-4d08-a44b-8833a48603ee {
        fill: #492003;
      }

      .uuid-f152f36d-a13b-4a14-8d86-545cd449de25 {
        fill: #fefefe;
      }

      .uuid-a3e0d21a-1b61-4e86-853d-0ba0d87205db {
        fill: #935b26;
      }

      .uuid-00e765ed-5fd6-4c9e-aacd-226575652b7e {
        fill: #170100;
      }

      .uuid-668e8b98-adcc-4736-9ca2-60bde019150e {
        fill: #240601;
      }

      .uuid-ca47c909-de9b-4777-8e3e-a5b464af6127 {
        fill: #623f0f;
      }
    </style>
  </defs>
  <path class="uuid-ca47c909-de9b-4777-8e3e-a5b464af6127" d="M616.6,501.38c-1.19.02-2.33-.2-3.41-.72-48.48-23.56-98.79-56.16-110.23-112.93-8.61-42.74,10.6-71.94,20.61-111.31,7.96-31.31,10.84-64.34,26.26-93.23l-.28-1.24c-24.9-13.42-35.9-48.5-30.81-75.16,9.62-50.46,61.37-82.13,109.59-59.23,15.75,7.48,25.53,20.56,34.19,35.22,18.22-5.35,38.33-9.39,57.31-10.98,35.29-2.96,65.8.38,99.72,9.52,3.85,1.04,18.27,6.48,20.63,6.26,1.94-.18,10.49-14.77,12.95-17.64,19.36-22.56,48.43-31.97,77.52-25.66,67.1,14.56,87.18,101.77,36.97,146.62,6.54,11.41,8.35,23.12,11.55,35.6,6.73,2.14,13.51,4.04,20.5,5.22,20.53,3.47,41.06,1.42,61.77,2.11,103.53,3.43,190.89,30.51,254.5,115.82,1.36,1.82,5.33,9.04,6.15,9.59,2.67,1.8,12.93,2.66,16.66,3.7,53.89,15.11,74.33,90.88,25.11,123.32.44,5.42.39,11.01.87,16.41.54,5.99,1.54,10.54,1.75,17.22v38.88c-1.07,33.43-8.76,66.2-11.12,99.51l-3.7,28.24c-1.66,21.86-2.51,48.24-1.77,72.06l-1.01,2c-2.17,5.19-7.22.29-7.32-4.05l-.51-6.9c-5.9-7.6-6.82-13.99-2.78-19.18-3.09-1.4-2.38-3.79-.49-5.92-4.64-3.84-3.13-20.15-1.14-25.5,2.77-4.11,8.47-13.4.14-13.82-.33,3.56-2.41,6.08-2.71,1.31-.83-2.01-1.29-4.1-1.36-6.27l9.06-95.45c9.83-104.75-11.41-218.23-104.21-280.27-66.57-44.51-144.3-48.95-221.82-49.89-10.23-.18-19.84-1.89-28.82-5.15,8.25,21.15,11.29,45.4,12.43,68.19,1.36,27.16-2.69,75.28-18.16,97.92-.83,1.21-2.23,1.87-3.54,2.44-16.36,36.46-51.1,63.09-88.96,74.96-4.85,1.52-33.81,7.84-38.8,4.72-5.45-3.41.27-6.64,4.98-8.92l35.74-17.57c49.29-26.84,84.56-70.46,85.33-127.69.14-1.05.76-1.81,1.72-2.33l-1.72-4.1c.13-45.17-9.7-91.1-30.52-131.27-5.27-5.4-8.92-11.23-10.95-17.48,27.27-19.8,45.22-38.92,36.94-74.77-7.77-33.67-42.33-59.87-76.76-47.15-23.95,8.85-33.01,27.45-42.62,49.21-6.32,13.74-17.01,1.86-18.82-7.54-90.29-32.61-203.55-19.42-256.7,71.21-17.34,29.57-24.19,61.21-29.2,94.56-1.05,10.07-4.07,18.86-9.06,26.37-21.78,56.45-23.79,101.42,24.62,143.26,41.55,35.91,87.71,54.61,141.76,60.91l3.61,2.51c4.59-.94,21.81,1.17,15.85,8.47-7.17,8.79-72.94,1.21-85.09-4.22.39,3.75-.29,6.65-2.04,8.7.71,1.72.71,3.26,0,4.63-.79,4.88-.85,9.93,0,14.81.94,2.22,1.86,4.52,2.08,6.94,3.02,33.75,6.37,67.33,12.01,100.79,5.94,48.47,6.65,99.73,3.37,148.09-1.92,28.28-5.93,53.66-25.15,75.12-8.41,11.45-14.64,32.15,3.13,37.07l.87,2.3c-2.86-1.89-2.98-11.76,0-13.42l-1.65-1.33c2.1-5.22,8.63-20.61,13.39-22.83,7.31-3.4,16.13.68,11.2,9.03-6.04,5.65-9.57,24.11-7.19,31.23.36,1.06,21.78,3.37,22.17,2.32-1.98-9.93,9.69-36.85,19.49-40.8,5.52-2.23,13.13,4.13,8.75,9.68-7.26,9.64-10.56,19.41-11.47,31.49,6.84-.88,13.76-1.86,20.77-2.94l3.24,1.28,1.91-2.25c39.84-4.49,49.07-41.32,56.15-75.42,6.93-33.39,12.17-68.32,17.21-102.22-17.76-6.7-36.29-16.03-50.67-28.59-.59-.51-1-1.23-1.41-1.98s-.72-1.61-.98-2.47c-1.2.07-2.45,0-3.5-.64-7.34-4.48-31.94-35.74-30.6-43.86,1.14-6.95,6.24-3.89,10.13-.88,10.37,8.01,21.07,16.75,30.84,25.47l2.39,4.18c1.19-.43,2.16-.18,3.13.5,33.98,23.77,68.92,37.56,110.8,41.07l-2.94-17.46c1.33-1.09,1.67-2.65,1.03-4.67l-2.12-1.56c-2.23-7.4-6.64-36.15,8.4-23.65,13.68,11.38,20.61,56.89,22.39,74.52,4.44,44.05,3.45,93.11-10.08,134.85-14.81,10.35-39.94,47.14-9.92,54.93-1.04-10.21,4.6-30.8,12.86-37.89,3.7-3.17,16.6-2.04,15.3,4.95-4.45,6.25-7.73,12.97-9.83,20.18l-2,.94c2.64-.77,2.2,15.04,1.85,15.81-.31.69-1.12,1.04-1.85,1.31l4.09-1.18c6.79,1.06,13.66,1.38,20.53,1.32-.3-9.91,9.05-35.38,17.49-40,7.75-4.24,16.58.96,10.71,10.1-3.35,3.06-13.24,28.48-9.73,29.57,2.39.74,20.06-2.13,23.94-2.91,32.57-6.6,41.7-22.27,49.85-53.76,8.45-32.66,11.41-66.49,14.14-100.04,2.48-36.91,5.04-73.82,7.68-110.7-.48-17.07,11.5-24.59,15.87-5.66,1.51,6.55,1.64,13.73,1.68,20.34l-1.64,1.1c3.4,6.64,2.11,16.48.88,23.84,48.42-5.17,96.43-16.23,138.07-42.72.02-7.57,0-15.16-.03-22.75l1.79-1.88-1.65-1.81c.37-9.1,13.27-54.26,19.96-58.41s6.03,5.01,5.79,9.09c-7.11,51.11-4.65,99.59,10.66,148.83,7.93,37.79,13.97,78.72-14.24,108.92-6.74,10.31-14.16,29.89,1.12,36.06-1.77-9.6,6.34-31.24,15.29-35.55,5.8-2.8,15,.93,10.81,8.1-5.68,3.48-10.66,28.97-7.85,32.12.75.85,21.74,3.23,22.02,1.98-2.84-9.19,11.08-39.98,21.13-40.89,6.23-.56,10.87,4.54,7.33,10.17-7.19,9.34-10.79,19.47-10.78,30.38l-1.82,1.89c-2.12,1.46-3.43-.04-3.94-4.51-3.48.46-4.8,2.71-3.97,6.75l-1.6,2.98c2.33,8.08-9.42,8.09-6-.69l-1.69-.52c.39,7.11-3.79,9.74-12.53,7.89.47,2.21-.27,3.86-2.26,4.96l30.08,1.59.99,1.91-1.64,1.91c-37.95,1.68-95.41-2.11-85.41-55.33,1.27-6.75,4-17.74,10.21-20.64l-.6-2.41c14.75-16.26,19.54-23.74,19.41-46.77-.09-15.11-2.79-30-6.6-44.57-5.1-16.92-9.25-33.89-12.45-50.9-10.63,6.71-21.92,11.37-33.86,13.96l-2-.77c.02,19.75-.29,39.5-.93,59.25.43.54.82,1.09,1.11,1.69,1.97,4.17-6.45,58.59-9.68,61.88-.47.48-1.03.87-1.61,1.23,1.48,6.68-3.2,14.58-7.06,20.56-15.22,23.61-43.97,31.13-70.5,32.94l-2.99-1.66c-9.01-1.1-19.24-.57-28.7,0,.79.12,1.87.62,1.74,1.16-6.19,25.69-17.51,53.01-43.06,65.58-30.64,15.07-106.48,18.05-135.57-1.06-20.99-13.79-19.63-44.23-6.25-63.09,9.58-10.89,16.5-22.85,20.78-35.87l2.19-1.9c2.61-35.86,4.09-72.4,1.58-108.66l-51.63-9.54c-3.77,36.16-9.64,71.74-17.62,106.74l-1.77,2.21.99,3.86c-8.08,35.85-21.43,65.79-58.93,77.2-30.38,9.24-96.67,11.39-121.67-9.6-7.91-6.64-10.04-13.15-10.97-23.03-.38-4.06-1-11.59,1.73-14.18,2.21-20.9,19.81-34.77,25.98-54.18,9.84-30.92,9.11-101.43,7.34-135.14-2.68-51.07-16.09-101.34-17.58-152.3v-41.66Z"/>
  <path class="uuid-2d79c30b-5005-4ce6-8e93-4c2a1dab5d8c" d="M1128.57,843c13.78.74,28.75,2.09,44.92,4.04,1.99.59,2.93,1,2.29,3.36-6.85,10.44-10.09,23.17-9.29,35.68,2.52,39.68,57.14,39.41,86.14,38.38l2.52-1.96c29.59-1.78,64.23-8,80.11-35.76l2.55-.24c.04-.05.65.97,1.34.09.84-1.07,1.25-3.85,1.96-3.83,1.92.04,13.49,3.97,16.33,4.93,33.24,11.19,90.52,40.3,44.68,77.47-48.11,39.01-171.37,55.91-233.28,62.98-131.13,14.97-269.58,15.93-400.86,1.85-68.41-7.34-184.4-23.21-242.03-59.78-47.03-29.84-19.34-59.75,19.4-75.81,17.62-7.31,36.87-12.78,55.51-16.23.33,1.5-.91,3.07-.89,4.33.02,1.39.89,2.03.9,2.15.39,9.11-1.17,18.34,3.14,26.86,14.03,27.74,79.14,26.38,105.35,22.84,53.85-7.27,68.84-34.3,80.37-83.96l2.13-3.15c22.53-2.3,45.89-3.77,68.77-4.6-.69,5.77-1.18,11.43-1.47,17-3.44,24.78-27.96,36.42-30.43,61.69-2.81,28.78,11.29,40.55,37.65,46.36,27.85,6.13,68.02,5.59,95.54-2.05,26.12-7.24,39.89-21.8,49.79-46.49,1.79-4.45,7.47-20.45,7.61-24.33,9.43-.91,19.26-.58,28.7,0,36.7-2.18,70.01-13.28,80.54-51.84Z"/>
  <path class="uuid-da4c0634-f030-45ae-ac66-cfb89bbcc1bb" d="M1334.09,686.54l.93,2.31c-2.49-7.75,5.99-6.3,7.25-2.63,2.53,7.35-2.38,8.99-3.87,13.43-1.25,3.71-2.22,18.05-1.4,21.43.3,1.24,2.28,2.01,2.51,3.09.32,1.5-1.72,3.18-1.7,3.58.07,1.57,4.36,1.24,4.56,1.44.13.13.17,3.51.05,3.64-.53.57-3.54-1.05-3.69-.93-.24.19-1.63,5.13-1.6,5.88.13,2.81,5.04,8.24,5.8,11.7.64,2.89-.97,13.76,5.97,11.13.61.84,1.09,1.68,1.14,2.55,1.62,28.15,1.41,56.35-.21,83.54-1.66,13.83-6.25,27.22-12.04,39.81-2.91,3.47-5.31,8.13-8.36,11.54-17.63,19.77-51.47,25.52-76.81,26.41l-35.18-1.86v-3.69c7.43,1.66,3.48-3.45,4.63-4.64.58-.6,9.41.88,11.18-.39,1.33-.96.79-6.09,1.8-7.93.65-.45,5.37,1.63,5.54,1.87.23.32-3.78,6.5.46,5.53,3.75-.86.56-3.96.45-5.07-.07-.69,1.71-.26,2.19-1.62.9-2.56-1.95-6.59,4.38-8.59,5.11-1.61,2.33,4,5.49,6.02l1.59-1.19c66.18-.45,76.43-44.47,75.72-100.05-2.58-37.4-3.06-73.06.94-110.96.1-.91.46-1.8.84-2.71s.9-1.79,1.45-2.65Z"/>
  <path class="uuid-a7d78bdf-1dfa-4d08-a44b-8833a48603ee" d="M1351.68,686.54c.41,8.32-.62,17.84-.94,26.38-1.63,43.89,4.26,90.72-.92,133.79-3.07-7.59.62-16.3.96-23.65.94-20.29-1.34-41.74-1.89-62.45-.47-17.95-.14-31.68.92-49.54.54-9.04.29-18.26.94-27.3,1.56-.25.87,1.74.92,2.77Z"/>
  <path class="uuid-eb6888e5-50d0-4842-9a5d-3f1917e6465a" d="M616.6,543.04c-.41-13.85.3-27.8,0-41.66v41.66Z"/>
  <path class="uuid-00e765ed-5fd6-4c9e-aacd-226575652b7e" d="M1366.5,558.78v-38.88c.4,12.54.4,26.34,0,38.88Z"/>
  <path class="uuid-8250b269-80aa-448d-a087-ba0664753790" d="M1334.09,686.54c-1.32,17.39-3.55,35.52-3.74,53.19-.71,67.64,24.71,160.36-72.7,165.32-2.07.11-2.37.16-4.11-.95-.09-5.27-.22-10.65,1.4-15.73,1.49-4.68,10.53-17.87,10.66-19.99.25-4.05-5.33-6.21-8.87-4.14-2.49,1.46-9.15,10.46-10.77,13.29-4.84,8.45-7.04,17.75-6.3,27.49-1.03,1.03-22.51-2.33-25.82-2.88-.5-10.69-.78-19.6,4.37-29.22,1.77-3.3,8.54-9.09,1.35-11.22-7.49-2.22-11.19,4.68-14.32,10.29-4.39,7.86-7.8,17.48-5.4,26.54-19.32-4.38-13.89-25.47-6.13-38.07,7.78-12.63,15.23-17.12,18.68-33.17,11.52-53.69-15.23-98.74-18.09-150.49-1.43-25.98,1.97-48.74,3.68-74.06.47-6.9.1-14.14-5.38-4.45-6.88,12.17-15.35,41.07-16.83,54.92-.65.89-1.33,1.75-2.1,2.51s-1.51,1.48-2.39,1.95c-43.02,22.66-86.92,33.56-134.3,40.29l-1.93-1.23c-.27-6.88-.59-22.33-4.26-27.68-4.13-6.04-7.43-2.35-8.47,3.39-4.26,23.57-3.89,51.56-5.8,75.67-3.89,48.85-6.59,119.72-24.04,164.82-12.31,31.82-40.8,35.13-71.31,37.47.73-5.92.87-12.41,2.73-18.1,1.4-4.3,12.72-19.32,8.43-22.22-.55-.38-5.8-1.04-6.66-.85-8.13,1.76-21.11,32.31-18.39,41.18-9.07.39-17.96-.19-26.85-1.86v-17.13c0-2.08,2.89-9.44,3.97-11.77s5.8-8.44,6.08-9.75c1.03-4.9-9.15-4.82-11.9-3.49-1.41.69-6.91,10.39-7.89,12.48-3.91,8.37-6.32,17.82-3.21,26.87-15.35-2.23-22.04-10.7-18.27-26.13,2.03-8.28,13.14-23.56,19.17-29.92,1.21-1.28,3.09-1.02,3.81-1.95,3.1-4.05,8.23-32.35,9.07-38.85,5.47-42.04,5.53-128.3-17.65-164.52-6.05-9.46-12.06-9.54-10.83,3.43.47,4.94,1.89,11.14,2.66,16.31,1.2,6.13-.48,6.3-5.74,4.6-20.67-.11-41.34-3.18-61.48-7.99-17.37-4.15-28.54-8.04-43.22-16.35-.11-.06,1.36.71-1.57.29-11.86-8.91-22.79-19.57-34.33-28.16-10.47-7.79-7.39,1.05-4.11,7.81,6.61,13.61,17.87,26.21,29.18,36.09,1.3,3.57,3.74,7.06,7.31,10.46,13.75,23.87,13.45,53.4,11.81,80.79-1.47,24.46-4.61,49.94-11.39,73.49-5.87,20.39-15.57,33.34-29.94,48.19-8.22,1.55-16.53,3.02-25,2.78-.34-6.79.61-14.19,3.06-20.55,1.43-3.71,8.52-13.17,8.86-15.3.54-3.46-4.6-5.59-7.55-4.72s-11.63,13.3-13.2,16.47c-3.71,7.48-5.39,16.68-5.05,25.04l-25.92-2.79c.08-9.38-1.08-18.41,2.87-27.2,2.01-4.48,10.46-11.31,2.63-13.94-3.39-1.14-5.75-.63-8.28,1.8s-11.11,18.42-11.11,21.3v13.42c-11.4-4.12-14.99-8.29-13.77-20.72,1.56-15.95,15.38-26.49,21.97-40.05,12.58-25.89,11.35-63.2,12.13-91.56.72-26.44,1.32-52.12-.9-78.65-3.88-46.59-14.69-92.5-15.73-139.34-.85-4.9-.79-9.91,0-14.81v-4.63c2.76-.28,3.68,2.47,2.76,8.24,1.37,8.03,37.2,25.66,43.75,28.23,109.67,43.03,252.8-31.44,294.19-138.31,18.45-30.73,21.6-72.89,19.48-107.89-1.26-20.85-5.86-41.41-11.14-61.52,35.51,7.62,71.86,4.1,107.85,7.41,111.25,10.22,201.73,61.42,236.09,172.18,28.42,91.58,11.17,166.14,4.15,258.31Z"/>
  <path class="uuid-f96fb832-9b77-47a6-9017-1d34cdb98eb8" d="M708.26,506.94c-52.44-9.09-77.39-13.05-122.5-43.68-66.5-45.16-77.76-87.33-49.5-163.03.99-2.66,3.31-4.1,4.01-6.17,6.34-18.79,8.12-41.67,12.89-61.18,28.49-116.71,136.85-161.76,248.79-135.79,5.06,1.17,29.72,7.76,32.57,9.81.67.48.93,3.8,1.99,5.62,1.87,3.2,7.66,10.82,11.03,6.47,8.06-10.39,10.14-24.44,19.97-35.58,43.93-49.75,113.88-7.99,107.25,55.41-2.26,21.59-22,38.85-38.84,50.18,1.64,5.68,8.74,11.56,11.37,16.4,20.18,37.16,32.23,93.71,30.36,135.82l-1.23,1.83c-16.26,73.98-86.34,121.79-154.99,145.43-35.9,12.37-75.82,20.22-113.19,18.45Z"/>
  <path class="uuid-fc7be55b-9854-43b1-84e4-c6f9a1156eb2" d="M977.66,341.22c-.79,17.79-4.83,44.88-13.14,60.46-15.18,28.48-41.53,53.64-69.56,69.31-14.97,8.37-31.59,14.32-45.97,23.45.02,4.41,21.1.72,24.24.19,46.13-7.83,80.81-37.25,104.42-76.57,1.72.78.5,3,.03,4.19-43.77,111.57-204.98,187.95-314.5,126.51-5.13-2.88-22.72-14.08-24.82-18.69-1.14-2.51-.14-5.35-.44-7.93-.14-1.16-.96-2.11-.97-2.24-.24-3.66.17-7.44,0-11.11,23.09,6.3,47.69,10.06,71.78,8.36,1.9-.13,12.62-1.75,13.42-2.32.99-.69,1.21-2.7.93-3.71-.22-.81-12.84-3.84-14.85-4.19.96-1.54,3.51-.92,5.08-.94,99.89-1.26,233.56-55.1,261.13-160.12.56-2.15-2.06-4.99,3.2-4.66Z"/>
  <path class="uuid-3dfe12ca-12ce-4af4-be59-1dc076cc27d0" d="M1119.26,724.53c3.39,2.37-.96,55.2-1.92,63.27-2.08,17.41-6.64,51.85-16.71,65.69-11.02,15.14-35.31,19.84-52.6,22.85-.62-.87,1.09-10.04,1.53-11.89,1.19-5.01,7.17-16.37,6.81-20.02-.3-3.09-5.85-5.73-8.6-4.98-5.58,1.51-13.15,20.01-14.33,25.54-.43,1.99-.72,11.83-1.14,12.28-.29.31-7.45.17-8.38-.43l11.25-135.57c28.49-3.53,57.02-6.88,84.1-16.73Z"/>
  <path class="uuid-f152f36d-a13b-4a14-8d86-545cd449de25" d="M1175.78,850.41c-1.31-1.25-2.39-1.57-4.15-1.86-13.04-2.22-26.92-1.72-39.84-3.72-1.72-.27-3.75,1.17-3.23-1.82,5.14-18.81,8.72-45.42,10.18-64.81.64-19.74.95-39.49.93-59.25,12.92-3.08,25.16-9.06,36.57-15.72,1.48.09,2.38,10.51,2.92,12.79,8.52,36.38,21.44,65.29,15.98,104.22-1.63,11.6-13.39,21.06-19.36,30.17Z"/>
  <path class="uuid-f152f36d-a13b-4a14-8d86-545cd449de25" d="M859.16,859.66c.02-.16-1.27-.68-.97-3.18.24-1.93,2.34-12.1,1.89-12.55-21.4,1.9-42.92,2.76-64.33,4.63-3.09.27-6.16.36-5.09,4.15l-.93-2.3c4.38-18.87,7.71-40.67,10.87-59.95,2.79-16.96,4.95-34.1,7.16-51.13l54.7,10.11c1.93,36.71,3.03,73.92-3.3,110.23Z"/>
  <path class="uuid-fc7be55b-9854-43b1-84e4-c6f9a1156eb2" d="M711.96,913.36c-1.47-1.7.04-2.11.85-3.27,5.45-7.79,13.81-15.36,18.44-23.26,17.59-30.03,24.91-114.01,18.6-147.91-.83-4.46-6.01-20.53-8.08-24.32-1.7-3.13-6.38-7.63-8.58-10.92-1.2-1.8.29-1.79.99-3.24,15.84,13.82,34.33,24.26,54.08,31.58l1.27,1.99c-4.77,25.82-8.1,51.94-13.03,77.72-4.46,23.29-10.09,59.15-23.42,78.41-10.91,15.76-23.06,19.83-41.11,23.23Z"/>
  <path class="uuid-f96fb832-9b77-47a6-9017-1d34cdb98eb8" d="M614.75,111.62l-2.39-.13c-10.79-19.98-39.38-23.63-49.01-.32-5.53,13.38,2.67,28.23,9.74,39.33l-11.57,16.65c-18.22-14.55-27.51-35.64-22.03-59.05,4.79-20.48,14.75-35.15,34.55-43.22,28.36-11.56,57.65,1.64,70.27,28.59-9.54,6.42-20.28,11.34-29.55,18.14Z"/>
  <path class="uuid-a3e0d21a-1b61-4e86-853d-0ba0d87205db" d="M1175.78,653.21c-.46,4.28.82,24.23-.15,25.78-42,26.57-91.09,39.35-140.57,42.73-.25-8.3.32-16.7,0-25,1.69-.7,3.51-1.33,5.33-1.61,27.14-4.25,51.52-8.09,77.77-16.66,20.23-6.61,38.92-15.26,57.62-25.24Z"/>
  <path class="uuid-124b013f-0163-4242-85b1-aba9cf9a8253" d="M614.75,111.62c-12.48,9.16-31.93,26.95-41.66,38.88-2.81.99-4.69-3.86-5.72-5.85-6.48-12.53-11.44-24.29-4.05-37.71,8.91-16.17,28.18-17.52,42.09-6.81,4.4,3.39,6.14,7.24,9.34,11.49Z"/>
  <path class="uuid-117e2584-585e-43c9-bc0b-5c40c8a4d4a0" d="M743.44,684.69c1.06-2.5,1.41-1.73,3.28-1.01,4.2,1.62,7.35,4.57,12.26,6.38,26.5,9.77,62.35,16.85,90.42,16.81,3.4,0,7.01,3.72,6.06-2.74.46,3.11,4.6,23.03,3.7,24.07-35.18-3.13-71.37-13.44-101.19-32.58-5.07-3.26-9.72-7.33-14.53-10.93Z"/>
  <path class="uuid-22bb9ca9-50ef-4fe1-924c-86620ce9ed17" d="M1331.32,381.96c32.98,5.33,48.18,41.02,37.21,70.99-1.63,4.44-4.46,8.34-8.04,11.38l-12.48-43.05c-4.86-13.39-10.34-26.57-16.68-39.32Z"/>
  <path class="uuid-668e8b98-adcc-4736-9ca2-60bde019150e" d="M1138.75,778.19l.93-59.25c-.16,19.75.56,39.56-.93,59.25Z"/>
  <rect class="uuid-2a6ce0be-518f-496e-8b11-0551eed21803" x="635.12" y="705.98" width=".93" height="57.4"/>
  <path class="uuid-43574341-f476-4d57-97cb-b819845c0fd3" d="M1048.02,894.85c-9.46.56-19.21-.41-28.7,0,0-.09-1.15-.23-.93-.91,8.17.06,16.37-.11,24.55-.03,1.56.02,4.12-.59,5.08.94Z"/>
  <path class="uuid-da4c0634-f030-45ae-ac66-cfb89bbcc1bb" d="M1354.46,653.21c-1.93.5-3.76-2.54-3.51-4l4.43-8.95-.92,12.95Z"/>
  <path class="uuid-fc7be55b-9854-43b1-84e4-c6f9a1156eb2" d="M636.97,539.34c-1.54-3.75-1.56-10.87,0-14.81,0,4.92-.11,9.89,0,14.81Z"/>
  <path class="uuid-da4c0634-f030-45ae-ac66-cfb89bbcc1bb" d="M1344.27,662.48c.25,2.84-2.33,3-4.62,2.77-.25-2.84,2.33-3,4.62-2.77Z"/>
  <path class="uuid-b8f447f5-4a6b-418b-8bfb-232002b33630" d="M677.5,306.3c68.67-7.71,133.83,49.53,114.55,121.03-21.9,81.2-154.39,87.18-192.59,14.82-13.69-25.94-8.32-73.6,9.9-96.6,14.62-18.46,44.55-36.6,68.14-39.25Z"/>
  <path class="uuid-8cc027ac-34cc-4118-bc36-6a394e8e859d" d="M931.68,163.78c-1.3,1.32-3.09,4.48-5.6,5.93-2.04,1.18-4.38,2.73-6.72,1.64s-14.57-15.98-18.52-19.47c-3.09-2.73-20.72-14.62-21.15-15.88-4.59-13.34,14.41-38.17,28.16-40.04,28.77-3.92,42.97,22.89,37,48.1-2.23,9.43-6.8,13.28-13.16,19.71Z"/>
  <path class="uuid-ca47c909-de9b-4777-8e3e-a5b464af6127" d="M804.27,259.02c19.27-4.39,26.86,24.59,25.17,39.05-1.03,8.78-8.63,21.41-18.03,22.7-24.2,3.32-27.47-30.64-20-46.85,1.9-4.12,8.48-13.9,12.87-14.9Z"/>
  <path class="uuid-ca47c909-de9b-4777-8e3e-a5b464af6127" d="M612.66,257.2c15.65-2.99,22.16,12.09,22.49,25.29.27,10.96-8.33,43.03-24.42,33.6-15.98-9.37-20.09-54.68,1.93-58.89Z"/>
  <path class="uuid-c8e90582-469f-4276-ac3f-1e0201cb19fb" d="M681.56,389.52c-1.02,8.66-3.28,30.8,2.62,37.35,10.31,11.44,48.38,5.4,54.84-9.05,2.08-4.66,1.01-9.23,8.82-9.7,16.32-.99,8.06,16.1,2.05,23.35-13.94,16.85-47.91,23.71-67.81,16.02-1.89-.73-4.15-3.06-4.8-3.15-1.52-.21-6.4,1.87-8.6,2.19-18.36,2.63-29.82,1.99-43.18-11.89-7-7.27-17.1-24.15.01-25.78,8.4-.8,7.7,4.95,10.35,9.86,3.99,7.43,18.21,15.13,24.8,6.83,3.36-4.24.28-13.92.31-19.05.03-4.52,2.23-10,2-14.72-17.56-6.02-35.26-19.8-32.23-40.59,1.06-7.31,5.05-11.79,11.98-13.94,16.72-5.2,61.8-7.8,71.14,10.88,9.93,19.87-16.57,36.31-32.29,41.4Z"/>
</svg>