<?xml version="1.0" encoding="UTF-8"?>
<svg id="uuid-a5a23998-6879-4e43-a9ef-81c7b0252d08" data-name="Layer 1" xmlns="http://www.w3.org/2000/svg" viewBox="0 0 1920 1080">
  <defs>
    <style>
      .uuid-4a9f0a08-3dec-4ce9-840c-6f2cb0c45b14 {
        fill: #e5610d;
      }

      .uuid-aadb56c5-53b5-4e62-bc62-d3926493269f {
        fill: #f68112;
      }

      .uuid-8fa0dfbe-a8b7-4ea5-bf4d-3c6ae3765821 {
        fill: #21201d;
      }

      .uuid-9a1b8fdc-c938-414e-bde6-5f7b8a12fe49 {
        fill: #060404;
      }

      .uuid-ab089246-c89f-40bc-ac91-67563fe00801 {
        fill: #af5008;
      }

      .uuid-98d7ca53-4673-48ea-b5d2-d3697b1a7a96 {
        fill: #e25f0d;
      }

      .uuid-ec06c64e-478b-4297-960d-9fb8e5f6edd0 {
        fill: #030303;
      }

      .uuid-81be4024-901a-4521-aa37-24ff74b7f5c5 {
        fill: #3a2014;
      }

      .uuid-c615afa3-7c13-41ce-9ce3-096b36b4da26 {
        fill: #90522b;
      }

      .uuid-ee065b1b-128e-4eec-84ec-3cc7c73bb037 {
        fill: #e3ddd5;
      }

      .uuid-a5298125-9350-4866-a96e-aae7d9762a42 {
        fill: #221610;
      }

      .uuid-478f3fe6-e55d-4409-94fd-f50c6cb10bd7 {
        fill: #e3600d;
      }

      .uuid-980665f2-ba23-441d-a284-58b363ab7b12 {
        fill: #eb690e;
      }

      .uuid-70a084e8-0c27-4de0-b8c6-343d6c3b91b6 {
        fill: #3d2215;
      }

      .uuid-cf5049cd-f7f5-4eb6-a3ea-855968bf9fe8 {
        fill: #1b1a18;
      }

      .uuid-ed2db847-538a-43b8-9329-b12771aa462a {
        fill: #af5508;
      }

      .uuid-cea432e7-1753-41a3-a0eb-80d2f9d16a9a {
        fill: #1d1510;
      }

      .uuid-2a34b190-becb-4951-b304-c2c48d000045 {
        fill: #e35f0d;
      }

      .uuid-9658c396-f0df-488d-b0cb-dfad5571bda4 {
        fill: #1d1c19;
      }

      .uuid-e9aa01c8-752f-476f-88ca-4dc018706b2a {
        fill: #040403;
      }

      .uuid-4408696f-517a-4eda-8bef-4d499ab95fd5 {
        fill: #f68012;
      }

      .uuid-ac4b9b45-21be-4013-9531-cb183f0b9bd0 {
        fill: #040404;
      }

      .uuid-547afa12-0958-4e0e-b3c1-2b270dd9f3f6 {
        fill: #e4600e;
      }

      .uuid-ae5e38ee-cda9-4d42-bfec-32f1dc0f85bc {
        fill: #6f3d1f;
      }

      .uuid-7a79eaee-018c-4f03-a727-3f11a24704a5 {
        fill: #f68011;
      }

      .uuid-e3dd318d-fbb7-4bc7-a2af-c7c0a7875837 {
        fill: #050504;
      }

      .uuid-48e24896-21d6-438e-a3ed-a3a3a86acd27 {
        fill: #151210;
      }

      .uuid-cbbfbcc2-d4a5-4cba-8b58-9498788f0471 {
        fill: #b25809;
      }

      .uuid-488009cb-6356-4e14-8827-d11980583021 {
        fill: #e4600d;
      }

      .uuid-8c24c754-99d0-45d7-91d5-63c6191b808d {
        fill: #050403;
      }

      .uuid-bdd52fc3-7f4e-4a01-88a2-6421d660d24b {
        fill: #3e2012;
      }

      .uuid-323c9a45-6556-4e9f-9c9c-009b939e061a {
        fill: #e35f0e;
      }

      .uuid-69e55fe8-802f-4c55-8d55-190dbd1b93ce {
        fill: #ab5f2e;
      }

      .uuid-3e502b5e-acad-4cc2-93b4-accb82fa41f6 {
        fill: #e25f0e;
      }

      .uuid-989cf368-ee11-4600-a064-a3705d557109 {
        fill: #4e301d;
      }

      .uuid-86af84dd-873e-4570-a4aa-cee431e77b14 {
        fill: #bb5d09;
      }
    </style>
  </defs>
  <path class="uuid-cf5049cd-f7f5-4eb6-a3ea-855968bf9fe8" d="M923.04,492.54c2.38,1.87,4.38,4,6.24,6.37,7.07,9.95,12.22,22.52,16.15,33.99l.12.05h.14c.22.2.38,1.33.13,1.56-.1.09-2.41.45-2.52.39-.12-.12-.18-.31-.18-.59l-.3-.33c-2.87-6.11-5.91-12.13-9.16-18.06-.83-1.51-3.61-6.52-5.32-7.25-2.62-1.12-2.33,4.13-1.87,5.63,2.57,8.4,7.83,15.31,13.25,21.88.38.39.47.72.28.99l-.38.07c-3.63-3.76-6.97-7.89-10.08-12-1.85-2.35-5.42-3.06-8.28-3.22-1.77-.1-2.05.7-1.82,2.25,1.5,10.44,10.59,14.21,19.85,16.32l.44.39.17.12c.04,1.33.46,2.63,1.05,3.81l.17-.07c2.12,2.86,6.08,3.68,8.96,1.37,2.31-1.01,2.49-3.08,2.55-5.34.03-.19.19-.2.39-.16.06-.25.09-.41.29-.23,1.22-3.12,2.54-6.25,3.96-9.38l.36-.43c.3-.4,1,.06,1.13.47-.22,1.79,1.21.36,1.32-.44-.44-.6-.19-.9.46-1.06.31-.57.71-1.08,1.19-1.51-.55-.85-.03-.99.72-.97.23-.49.97-1.43,1.28-.69l-.11.5c-2.22,3.94-4.2,8.03-5.75,12.29-.38.52-.69,1.09-.92,1.72l.2.24c-.5,1.15-.93,2.33-1.28,3.53.06.17,1.63-1,1.73-1.16l.3.11.45-.7c2.26-2.04,4.55-4.03,6.86-5.97l.42-.11c.26.41-.53,1.41-.9,1.72-.74.62-1.19.2-.42.26l.24.19.09.28-6.76,6.18c7.84-1.89,15.67-3.84,23.48-5.84,1.92-.68,3.86-1.2,5.83-1.57.15-.03.2-.02.14.14-.16.13-.32.26-.49.36s-.34.21-.52.27c-4.22,1.39-8.53,2.47-12.84,3.54-.19.05-.39.05-.59.06s-.41-.01-.61-.03c-.14.23-.46.32-.95.27-1.93.93-4.09,1.51-6.24,1.63-.27.1-.5.25-.7.45-2.66.6-5.31,1.22-7.95,1.85l.18.03c.12,1.84.88,2.59,2.29,2.25,2.27-.32,4.53-.74,6.77-1.27l.36.21c.05-.37.12-.33.27,0,2.12-.78,4.4-1.02,6.65-1.22,1.13.06,2.24.27,3.32.61l.07.34c.03.57-.5.76-1.6.56,1.05.16,2.1.42,3.12.8l.38.41c.23-.35.59-.28.68.14.33-.47.96.18.41.41h-.78c-2.03-.67-4.13-1.15-6.25-1.41l-.7-.35c-.21.16-.5.18-.54-.14-.3.1-.57.1-.81,0-.36-.14-.59-.1-.69.11-3.97.32-7.93.9-11.89,1.72.56.29,1.14.56,1.74.79l.13.36c1.2.28,2.43.67,3.25,1.63.18.3,0,.43-.33.35-1.96-1.25-4.34-1.55-.47.19.27.22.47.44.12.68l-.35.12c-1.25-.79-2.53-1.39-3.84-1.8.92,2.34,2.14,4.6,3.65,6.79.06.2.05.39,0,.59-.51.27-1.49-.44-1.15-1.11-1.09-1.34-1.3-.83-.63,1.55.66,1.58,1.34,3.16,2.04,4.74l-.12.39c.12.21.07.26-.14.14h-.14c-.03.14-.12.09-.27-.14l-.33-.05c-1.69-2.37-2.79-5.21-3.59-7.99-.2-3.25-.44-6.16-1.77-9.17-.2-.45-1.77-2.98-2.19-3.22-.1-.06-.54.3-.64.4-1.58,1.69-3.52,3.64-6.01,3.48-.26.15-.31.47-.15.98-.34.6-.29,1.13-.15,1.79.41,1.99,1.32,3.94,2.2,5.75.05.34-.1.49-.39.3l-.32-.02c-.49-.82-.88-1.7-1.16-2.63-1.21,1.88-2.36,3.81-3.46,5.78l-.2.81c-.29,3.45-.53,6.91-.74,10.38.01,3.98,1.82,2.24,2.9-.02,1.97-4.11,2.85-9.11,3.02-13.61l.24-.28c.09-.06.23-.13.28-.08.41.4,2.13,2.47,2.01,2.89l-.26.18.18.12c-.6,5.49-1.53,11.43-4.25,16.43-1.77,2.58-3.99,3.35-7.08,2.4-2.63-.81-6.19-4.74-7.97-6.88-3.66-5.14-7.45-11.34-8.71-17.91-.84-4.38-.54-9.67,2.74-12.87l1.63-1.08c-2.82-.69-4.86-2.76-6.51-5.02-1.28-2.06-2.36-4.24-3.24-6.55-2.11-8.08-4.13-16.19-6.06-24.33-1.21-5.47-3.13-16.86,5.73-15.48,2.25.59,4.3,1.58,6.14,2.97Z"/>
  <path class="uuid-8fa0dfbe-a8b7-4ea5-bf4d-3c6ae3765821" d="M998.99,539.19c-1.19,1.07-2.93,1.49-4.34,2.17-.41.31-.94.5-1.6.58-3.31,1.35-6.83,2.11-10.39,2.2-.83-.34-1.37-.46-1.62.53-.78.31-1.62.59-2.46.58-.32-.42-1.58-.29-1.52.34-.9.29-1.84.49-2.81.59l-.51-.08c-1.65.57-3.38.95-5.17,1.16-.2-.26-.44-.24-.72.08-.56.14-1.08.31-1.55.52-.08.01-.19-.01-.27,0-.17,0-.33-.09-.5-.24-1.25.19-1.15-.22-.65-1.07l-.52.06c-.2.8-.74.99-1.41.58-.5.18-.82.1-1.09-.39-.99.68-2.1.25-.81-.62.77-.52,1.58-.7,2.48-.73.44-.53.9-.85,1.55-1.1,2.08-.52,4.16-1.09,6.24-1.63.39.03.7-.06.95-.27,5.1-1.31,10.11-2.45,15.05-4.2,1.45-.49,2.85-1.08,4.2-1.76l.2-.4c3.73-1.77,5.88-4.42,6.47-8.45s-1.01-4.97-4.94-4.82c-3.33.13-6.96.67-10.23,1.36-1.1.23-2.05.68-2.93,1.39l-.36-.07-.26.06c-1.12,1.07-2.29,2.08-3.51,3.02-.26.92-1.08,1.04-.86-.08-.52-.26-.1-.53.28-.76l.31-.45c.66-.46,1.14-1.06,1.46-1.8l.13-.58c2.4-2.74,4.44-5.54,5.73-8.97,1.54-4.09-.8-7.34-4.86-4.84l-.32-.13c-1.35.66-2.9,1.89-4.1,2.92-.29.42-2.12,2.44-2.46,2.41-.32-.41-.7-.63-1.16-.67-.26-.8-1.02-.43-1.05.4.71-.78,1.99-.13,1.66.85-.24.71-.91,1.35-1.53.64-.7.22-1.06-.08-.86-.82-.3-.2-.41-.51-.33-.92l-1.2.05c-.2,0-.24-.17-.22-.38.78-1.1,1.55-2.18,2.31-3.25,4.28-5.06,9.42-10,14.51-14.24l.19-.08c4.11-3.35,9.3-7,14.76-8.7,9.77-3.04,13.13,3.37,10.9,12-1.28,3.91-2.37,7.86-3.29,11.85-.44,4.31-.68,8.64-.7,12.98-.25,5.06-2.07,10.06-6.27,13.18Z"/>
  <path class="uuid-8fa0dfbe-a8b7-4ea5-bf4d-3c6ae3765821" d="M999.53,543.26c1.62,1.05,3.02,2.59,4.07,4.2,5.15,8.6,2.18,18.59-3.12,26.31-1.48,1.95-3.39,3.88-5.29,5.42-2.1,1.42-4.45,2.91-7.18,3.65-5.72,1.54-11.57-.69-15.47-5l-.4-.67c-1.63-1.06-3-2.58-4.15-4.14.6-1.1.37-1.21-.5-.43-.65-.5-.77-.94-.38-1.31-.17-1.13.52-1.38,2.08-.77l.76-.26c.64.51,1.26,1.1,1.65,1.84.37-.23.99.38.84.78.2.07.42.1.65.08l.36-.05c1.6,1.29,3.31,2.62,5.22,3.42,6.25,2.64,3.38-3.71,1.96-6.51l.06-.52c-.38-.44.65-1.02.85-.93.28.12.82,1.61.84,2.01l.41.44c.77,1.75,1.44,3.51,2.01,5.3,1.48.67,3.16.39,4.56-.31l.04-.32c2.52-1.43,3.09-2.47,1.37-4.88-.74-1.04-1.59-2-2.46-2.92l.09-.3c-.1-.24-.42-.59-.95-1.05-.15-1.71.95-.57,1.52.14l.38.1.51.1c1.22,1.35,2.57,2.53,4.03,3.55,1.79.75,4.92-4.69,4.22-6.34-.25-.59-1.05-1.12-1.61-1.42-1.82-.97-3.65-1.93-5.54-2.79-.22-.15-.39-.34-.52-.56-1.24-.84-.61-1.49.66-.97.84.38,1.7.66,2.59.84l.28-.18,2.46,1.14c2.23.87,2.99.97,3.3-1.57.52-4.16-.07-6.38-4.9-6.44-3.02-.13-6.01-.2-8.98-.21.93,1.03,1.64,2.2,2.15,3.5l-.14.36c-.09.79,0,1,.63,1.47,1.2.77.96,1.14-.73,1.12-.04.87-.34,1.35-.91,1.45-1.11,2.3-2.8,1.09-1.01-.65.66-.12.8-1.83.74-2.5s-.18-1.87-.79-2.07l-.56-1.43c-.46-.18-1.15-.48-1.07-1.06-.43,0-.94-.34-1.03-.76-.44.19-.78,0-1.02-.59-1.05.18-3.07-1.04-1.01-1,.08-.57,1.17-.08,1.49.23.8.03,1.6.12,2.4.27.93-.18,1.92-.22,2.95-.11,1.26-.17,2.48-.11,3.66.18,1.56-.03,3.13.01,4.71.13,1.26-.01,1.51-1.19.63-1.88-.3.02-.61-.17-.91-.58-.48-.3-.77-.65-.86-1.04-.73-.61-1.62-1.07-2.65-1.4-.17-.4.62-1.09.95-1.29,1.69-.82,2.13-1.56,1.32-2.22,0-.4.34-.47,1-.21,1.29.46,2.53.99,3.72,1.59Z"/>
  <path class="uuid-ee065b1b-128e-4eec-84ec-3cc7c73bb037" d="M944.31,582.63c7.71-.28,14.25.7,21.8,1.45,6.28.63,12.58,1.07,18.85,1.76,3.15.35,6.8.65,9.86,1.4,1.69.41,3.96,1.13.85,1.98-4.94,1.35-12.39,1.57-17.62,1.91-13.39.87-27.07.88-40.4-.97-3.34-.46-9.13-1.27-12.07-2.71-3.38-1.66,1.48-2.7,2.89-3.03,4.85-1.14,10.84-1.61,15.84-1.79Z"/>
  <path class="uuid-a5298125-9350-4866-a96e-aae7d9762a42" d="M961.15,565.09c1.09,2.6,1.75,5.73,2.08,8.57.43,3.75-.78,7.45-4.79,3.77-1.18-1.34-2.18-2.7-2.98-4.07-1.24-2.34-1.98-4.55-2.53-7.16-.36-1.69-.14-3.38-1.4-4.64-.14-.34-.65-.82-1.08-.81,0-.37-.15-.64-.35-.94l-1.69-2.04c-.34.22-.57-.15-.27-.41.33-.14.02-.4-.05-.56-.77-1.66-2.18-4.79-2.13-6.57.01-.41.26-.59.27-.8.01-.23-.18-.39-.07-.76.19-.64.86-.32,1.36-.41,1.99-.36,3.58-1.94,4.83-3.3.14-.16.79-.67.99-.61.17.05,1.64,2.07,1.82,2.39,1.99,3.39,2,6.42,2.33,10.15.1,1.15,1.83,5.02,2.42,6.26.34.71.96,1.34,1.24,1.94Z"/>
  <path class="uuid-9658c396-f0df-488d-b0cb-dfad5571bda4" d="M961.56,559.53c.28-.13.54.02.8.46,3.01,4.51,6.46,8.86,10.58,12.6l.15.37c-.28.59-.82.06-1.22,0,0-.25.52-.18.41-.47-.22-.55-.51-.11-.64-.09-.42.07-.57-1.19-.79-1.2-.65-.02-.11,1-.2,1.08-.27.25-.64-.38-.63-.61,0-.16.4-.4.37-.81-.06-.73-.89-.09-1.17-.07-.44.03-.95-.47-1.73-.25-.36.1,0,.49-.11.83-.12.42-.68.28.09,1.04.13-.37.78-.84,1.09-.41.3.41-.46.94-.29,1.36.96.76,1.69,2.07,2.64,2.79.64.49,1.76.59,1.63,1.69-.47-.35-.92-.71-1.36-1.08-3.22-3.29-6.31-6.8-8.95-10.58-.25-.38-.44-.74-.54-1.08-.45-.94-.64-1.71-1.13-2.61-.33-.61-.9-1.92-1.09-2.56-.1-.34-.74-2.97.18-2.49.06.03.99.82,1.02.88.07.16-.17.46-.01.69.03.04.68.35.89.54Z"/>
  <path class="uuid-cea432e7-1753-41a3-a0eb-80d2f9d16a9a" d="M949.9,509.9l.07.16c-.34.21-.58.48-.72.81-.68.3-1.05.73-1.11,1.31l1.74-1.56c.89-.07,1-.21.34-.45l-.19-.27c.07-.3.69-.24.95-.12,1.13.52,1.09,2.04.42,2.92-5.69,4.89-5.18,13.44-4.51,20.31-.01.79.13,1.45.43,1.98-.49.26-1.08.17-1.76-.27-.34.25-.79.4-1.36.45-.55.31-1.05.43-1.49.37-2.37,1.71-2.91,5.29-1.9,7.92l-.13.35.39.93-.12.15c-.81-1.02-1.16-2.63-1.22-3.93l-.28-.2c-.05-1.01.13-1.99.54-2.95-.18-.28-.17-.5.01-.65.44-.38.82-.87,1.16-1.47l.71-.56c-.12-.31-.11-.54.03-.68-.21-.58.39-.3.62.12-.09-.27-.02-.44.2-.53.31-.05.32.66.29.62-.07-.12-.07-.38.11-.34.23.09.19.41.47.42.17,0,1.89-.29,1.97-.35.31-.22,0-.69.02-.96,0-.17.11-.36.11-.47-.11-5.39-.93-16.39,1.74-20.98.41-.7,1.44-1.91,2.19-2.21.22-.04.31,0,.27.14Z"/>
  <path class="uuid-9658c396-f0df-488d-b0cb-dfad5571bda4" d="M994.65,541.36c1.2-.05,3.83,1.22,4.88,1.9-.09.29-.4,0-.53-.08-1.23-.7-2.52-1.34-3.94-1.55-.07.41.37.26.48.67.35,1.29-2.63,1.83-2.79,3.12.72.19,1.48.56,2.13.92.07.04.6.32.31.43-.56-.01-1.14-.22-1.74-.62-1.21-.57-2.44-1.09-3.69-1.55l-.59.14c-1.2-.28-2.42-.47-3.65-.55l-10.84,2.37c-.57.09-1.15.11-1.73.08-2.21.44-4.43.83-6.65,1.22v-.81c.35-.1.33.32.43.38.48.28,1.54-.85,1.67-.79.34.77.61.28,1.12.17.75-.16,2.15-.09,2.61-.26.4-.15,1.04-.63,1.57-.72s.69.3,1.17.25c.61-.06,1.07-.52,1.14-.52.17,0,.56.25.72.13.07-.05.11-.74.41-.87.4.15.83-.12,1.16-.08.3.04.39.38.67.4.33.02,1.55-.33,1.8-.58.22-.22.32-.82.54-.89.04-.01.88-.01.92,0,.24.03.41.21.58.23,1.82.23,4.77-.55,6.56-.99,1.69-.41,3.61-1.48,5.27-1.55Z"/>
  <path class="uuid-e9aa01c8-752f-476f-88ca-4dc018706b2a" d="M998.99,539.19c8.61-7.73,5.25-15.64,6.8-25.81.69-4.49,2.38-8.3,3.44-12.57,1.61-6.52.03-13.35-8.1-12.17-5.53.8-13.13,5.47-17.26,9.19-.11.1-.36.46-.48.13,4.65-3.88,11.12-8.38,17.2-9.45,8.62-1.53,10.59,5.44,8.8,12.47-1.12,4.4-2.85,8.31-3.47,12.94-.97,7.31.82,15.28-3.44,21.79-.86,1.32-2.15,2.66-3.5,3.48Z"/>
  <path class="uuid-8c24c754-99d0-45d7-91d5-63c6191b808d" d="M949.63,509.76c1.89-.76,2.89,1.09,2.01,2.76-.38.72-1.01,1-1.47,1.51-3.8,4.31-3.74,10.97-3.4,16.41.09,1.42.33,2.84.42,4.26,2.95.49,4.98,3.06,6.03,5.7,3.81-10.14,8.64-19.91,15.66-28.21.29.14-.26.69-.35.8-.7.83-1.3,1.59-1.95,2.46-.04.16-.08.32-.13.48s-.12.29-.2.42c-3.07,4.55-5.95,8.95-8.26,13.95l-.36.34c-.76,1.62-1.53,3.24-2.23,4.89-.59,1.39-1.21,3.58-1.86,4.78-.13.23-.23.36-.51.37l-.29-.15c-.62-1.32-1.38-2.58-2.29-3.78h-.41c-.74-.61-1.55-1.14-2.48-1.42l-.23-.34c-.21-.13-.32-.25-.38-.5-.28-1.32-.24-2.96-.3-4.31-.26-5.17-.61-11.09,2.74-15.44.71-.92,2.18-1.94,2.39-3.04s-.57-2.27-1.73-1.8c-.03.12-.07.11-.14,0l-.27-.14Z"/>
  <path class="uuid-ec06c64e-478b-4297-960d-9fb8e5f6edd0" d="M923.04,492.54c-.11.32-.37-.04-.48-.13-3.89-2.89-10.49-5.16-12.04,1.37-1.4,5.92,2.43,17.66,3.91,23.85,1.67,6.96,2.07,11.52,5.93,17.81.1.17.32.3.11.5-1.44-1.98-2.56-4.14-3.39-6.44-1.96-9.02-5.04-18.39-6.58-27.46-.66-3.89-1.49-11.3,3.6-12.55,3.21-.79,6.54,1.15,8.95,3.05Z"/>
  <path class="uuid-ec06c64e-478b-4297-960d-9fb8e5f6edd0" d="M945.56,532.95s-.05.14-.07.13c-.21-.03-1.27-3.45-1.46-3.97-3.67-9.87-8.37-21.27-14.62-29.73-.09-.12-.45-.37-.13-.48,2.81,3.59,5.02,7.64,7.07,11.71,3.63,7.18,6.59,14.72,9.2,22.33Z"/>
  <path class="uuid-ac4b9b45-21be-4013-9531-cb183f0b9bd0" d="M931.32,572.83c-4.18-5.03-8.97-14.36-9.23-20.95-.14-3.4.45-7.6,3.26-9.84l-1.51,2.08c-4.35,9.29,1.81,20.73,7.35,28.22.09.12.45.37.13.48Z"/>
  <path class="uuid-ac4b9b45-21be-4013-9531-cb183f0b9bd0" d="M1000.48,573.77c-.3-.09.03-.38.11-.5,5.05-7.75,8.05-16.57,3.09-25.28-.07-.13-.37-.44-.08-.53,5.28,8.13,2.38,19.06-3.12,26.31Z"/>
  <path class="uuid-e3dd318d-fbb7-4bc7-a2af-c7c0a7875837" d="M972.55,577.84c7.02,6.53,14.29,7.31,22.17,1.48.12-.09.37-.45.48-.13-6.55,5.33-14.5,5.84-21.16.34-1.04-.86-1.91-1.83-2.85-2.78.06-.27.34.14.41.2.31.31.63.59.95.88Z"/>
  <path class="uuid-9a1b8fdc-c938-414e-bde6-5f7b8a12fe49" d="M961.42,565.23c.82,3.18,3.25,10.14,1.28,13.01-.96,1.4-2.26.8-3.41.04-1.74-1.15-2.88-3.11-3.84-4.91.11-.3.3.2.34.27,1.05,1.73,3.63,5.84,6.07,5.13.68-.2,1.23-1.98,1.3-2.63.25-2.22-1.06-8.97-2.02-11.04l.27.14Z"/>
  <path class="uuid-ac4b9b45-21be-4013-9531-cb183f0b9bd0" d="M951.52,561.57c-.11-.11-.85-.8-.95-.68-.12,3.1-.61,6.15-1.37,9.14-.64,2.52-1.35,5.1-2.84,7.27-.26-.07,0-.42.06-.55,1.95-3.54,3.04-7.87,3.58-11.88.16-1.16.44-3,.42-4.12.49-.35.85.49,1.22.75l-.13.07Z"/>
  <path class="uuid-a5298125-9350-4866-a96e-aae7d9762a42" d="M962.24,566.18c-.2-.29-.59-.58-.68-.95-.02-.07.05-.16.14-.14.17.36.58.63.54,1.08Z"/>
  <path class="uuid-aadb56c5-53b5-4e62-bc62-d3926493269f" d="M991.53,536.48c-1.34.77-2.85,1.3-4.34,1.63-9.63,3.4-20.28,5.23-30.17,7.87l7.53-6.92.06-.35c3.28-3.02,6.68-6.04,10.2-9.06.57-.2.95-.55,1.14-1.04,1.21-.96,2.38-1.97,3.5-3.04l.29-.08c1.17-.89,1.75-1.25,3.23-1.59,2.51-.58,6.31-1.05,8.91-1.26,1.73-.14,3.68-.34,5.25.44,2.5,1.25,1.23,5.94.36,8.01-1.03,2.45-3.61,4.25-5.95,5.38Z"/>
  <path class="uuid-7a79eaee-018c-4f03-a727-3f11a24704a5" d="M977.16,525.49c-.27.49-.6.97-.92,1.43-.56.4-1.17.96-1.4,1.56-2.84,2.89-5.76,5.66-8.77,8.31l-.44.1c-2.65,2.14-5.03,4.71-7.73,6.78-.46.15-.31-.31-.14-.58.05-.94.02-1.89-.11-2.83-.06.49-.53,1.52-.71.7,1.8-4.98,3.91-10.04,6.78-14.51l.02-.53c1.57-2.63,4.04-5.87,6.11-8.12.07-.07.18-.1.31-.12.39-.77.93-1.34,1.61-1.69,1.79-1.9,3.73-3.83,6.04-5,1.81-1.05,3.92-1.82,5.32.31.82,1.25.77,2.32.42,3.73-.98,3.93-3.81,7.43-6.41,10.47Z"/>
  <path class="uuid-aadb56c5-53b5-4e62-bc62-d3926493269f" d="M962.1,553.84l.46-.07c3.8,1.72,8.15,4.14,11.65,6.41,2.27,1.47,3.46,2.35,4.75,4.71.71,1.3,1.29,2.71,1.83,4.08-.1.09-.14.2-.11.33.46,1.02.98,1.97,1.36,3.05.52,1.49,1.79,4.52-.63,4.8-2.65.3-6.36-2.55-8.33-4.19-2.82-2.35-5.52-5.39-7.78-8.29-.99-1.26-2.76-4.28-3.74-5.14-.96-1.94-2.39-3.75-3.31-5.71-.3-.63-.67-1.3-.63-2.02.24-.04.42.03.64.11,1.12.38,2.74,1.36,3.84,1.93Z"/>
  <path class="uuid-4a9f0a08-3dec-4ce9-840c-6f2cb0c45b14" d="M940,537.16c.07.14.26.53.27.61,0,.23-.47,1.31-.52,1.78-.05.43-.03.97-.01,1.41-8.32-2.02-17.26-4.82-19.9-13.94-.3-1.02-1.06-3.58-.61-4.47.23-.45,1.07-.84,1.57-.84.95,0,2.4.27,3.36.44,5.15.92,5.43,2.97,8.39,6.53,2.13,2.56,4.69,5.73,6.98,8.08.15.15.29.3.48.4Z"/>
  <path class="uuid-4408696f-517a-4eda-8bef-4d499ab95fd5" d="M979.33,549.91c.48-.18,1-.02,1.54.48.73.05,1.33.31,1.77.79.56.12,1.5.74,1.69,1.25.83.46,1.17,1.1,1.47,1.98.9.71,1.01,2.92.55,3.97-.32.71-1.37,1.57-2.09,1.92-2.02.98-4.33,1.3-6.29.05-.25-.12-.5-.12-.76,0-4.93-2.05-9.61-4.73-14.2-7.4l-.23-.33c-1.07-.56-2.17-1.09-3.25-1.63-.08-.46.22-.51.91-.15l1.12-.14c3.3-1.06,6.65-1.91,10.04-2.56,2.69.27,5.18.84,7.73,1.76Z"/>
  <path class="uuid-980665f2-ba23-441d-a284-58b363ab7b12" d="M943.12,534.31l-.07.41c-.22-.17-.22-.46-.34-.68l-.45-.43c-2.96-5.45-6.05-10.85-9.15-16.21-.53-.91-2.35-3.39-3.37-1.89-.75,1.1-.49,2.04.56,2.76,3.68,1.86,5.97,5.33,8,8.88,1.17,2.37,2.41,4.71,3.71,7l-.1.29c.62,1-.06.88-.54,1.43-.24.27-.8,1.26-.95,1.36-.17.11-.27,0-.41-.08-.58-1.23-2.64-3.37-3.58-4.63-4.37-5.85-8.38-11.43-10.32-18.57-.37-1.36-.26-3,.11-4.37.3-1.13.91-1.59,2.11-1.24s2.82,2.81,3.47,3.85c3.02,4.82,6.17,11.11,8.7,16.26.94,1.91,1.72,3.91,2.64,5.84Z"/>
  <path class="uuid-478f3fe6-e55d-4409-94fd-f50c6cb10bd7" d="M945.68,547.88c.06.73-.05,1.5,0,2.23.05.58.63,2.78.48,3.06-.09.16-.34.2-.43.32-1.95,2.35-4.8,8.47-8.58,5.57-3.37-2.59-2.6-8.46.98-10.52.59-.34,3.86-1.7,4.33-1.58.16.04.32.25.51.32.9.33,1.74.55,2.71.62Z"/>
  <path class="uuid-547afa12-0958-4e0e-b3c1-2b270dd9f3f6" d="M948.4,557.77c.22,1.03-.36,4.91-.58,6.13-.4,2.24-2.18,9.25-4.26,10.25-.82.4-1.12.18-1.33-.64-.61-2.34.01-5.43.21-7.81.15-1.77-.05-4.26.7-5.81.9-1.85,2.59-3.67,3.37-5.65.31-.06.22.02.3.17.3.55.53,1.43.8,2.05.14.31.38.57.53.9.08.17.27.38.27.41Z"/>
  <path class="uuid-488009cb-6356-4e14-8827-d11980583021" d="M927.52,521.69c-1.26-.19-2.32-.88-3.49-1.32-2.32-.87-4.79-1.15-6.05-3.58-.68-1.31-1.91-7.09-1.7-8.45.19-1.19,1.48-.5,2.12-.11,1.36.82,2.45,2,3.64,3.01.93.79,2.56,1.67,3.02,2.81.3.75.33,1.83.57,2.69.47,1.72,1.21,3.32,1.9,4.95Z"/>
  <path class="uuid-980665f2-ba23-441d-a284-58b363ab7b12" d="M924.25,510.43c-.13.09-.47-.02-.61-.12-2.51-2.25-7.42-4.55-7.77-8.23-.76-7.94,5.95-2.62,8.46.22.49.55,2.15,2.6,2.23,3.2.11.8-.31.63-.67,1.07-.56.69-1.08,1.61-1.35,2.45-.09.27-.2,1.34-.29,1.41Z"/>
  <path class="uuid-9658c396-f0df-488d-b0cb-dfad5571bda4" d="M976.48,547.6c.03-.08.05-.14.09-.14.85-.05,1.67.17,2.45.49,2.39,1.26,4.85,1.78,7.38,1.55l.25.27c1.04.11,2.08.1,3.12,0,1-.35,2.54-.17,3.65-.02l.55.29,1.36.14.14-.27c1.52.12,1.97-.28,1.36-1.18l.13-.31c.16-.29.5.41.53.49.37.9-.27,1.5-1.15,1.54-1.13.04-2.84-.34-3.93-.28-.37.02-.59.25-.78.25-.36,0-.73-.33-1.11-.38-1.54-.21-3.55.18-5.15,0l-.07.42c-.49-.16-1.33-.48-1.87-.52-.33-.02-.67.17-.89.1-.17-.05-.19-.32-.31-.4-.21-.13-.58-.07-.79-.26l-.07.54-.95-.14c.47,1.39,2.13-.4,2.17,1.36,1.08-.57.67.24,1.08.48.24.14.57,0,.82.13.3.2-.24.3-.08.61.19.37.82.17,1.04.46.16.2.35,1.5.41,1.56.08.07.57-.06.66.23.01.71.27,1.79.25,2.43,0,.19-.22,1.5-.28,1.73-.17.69-.43.35-.65.45-.45.21-.52,1.12-.4,1.55.82.11.86-1.06,1.31-1.35.28-.18.71.19.84-.52.06-.33-.18-.67.08-.85.31-.23.9,0,1.3-.13.22-.21-.65-.92-.82-1.01s-.51-.06-.53-.08c-.08-.08.08-1.07.27-1.22l.31.04c.22,1.03.93,1.66,2.12,1.9l3.35,1.14.06.31-1.39-.17c-.35-.34-2.28-1.29-2.28-.31,0,.35.66.36.41.61l-.3.15c-.67-.43-1.37-.67-2.1-.7l-.17.76c-.8,1-1.7,1.94-2.71,2.8,1.15,1.51,2.55,2.88,4.19,4.08v.37c-.78.57-.74-1.14-1.62-.95-.1.82,0,.85.5,1.33.11.1.55.26.17.44-.39.15-1.02-.44-1.33-.74-1.22-1.2-2.43-2.43-3.58-3.71l-1.02-.16c-1.16.1-2.28,0-3.37-.31l-.07.16c2.14,3.74,3.95,7.6,5.43,11.59.8,1.84.99,2.09,3.05,1.79l1.56-.4.27.19-.7.45c-.57.06-1.26.34-1.81.37-.22,0-2.09-.19-2.17-.26-.37-.3-.05-.61-.13-.96s-1.66-4.34-1.82-4.53c-.14-.16-.43-.06-.59-.4-.15-.3.04-.52-.02-.78-.01-.06-.44-1.05-.48-1.08s-.98.32-.95.68c-.83-1.86-2.18-5.35-3.6-6.64-3.18-2.91-10.94-6.73-14.98-8.82-.06-.98-3.04-1.13-2.38-2.04.38-.53,2.06.54,2.52.76.14.07.46.34.54.07,4.71,2.47,10.28,5.9,15.19,7.73q-.02.39,0,0c1.83.68,3.35.73,5.19.1,3.81-1.3,4.21-3.88,1.92-7.01-1.41-1.93-3.55-2.75-5.75-3.54.07-.29-.17-.32-.41-.41-.23-.43-.46-.47-.68-.14-.7-.23-1.39-.47-2.11-.67-.37-.1-2.01-.35-2.09-.42-.41-.34.9-.41,1.02-.42.27,0,.64.15.8.12.17-.03.3-.32.49-.38.04-.12.09-.12.14,0Z"/>
  <path class="uuid-9658c396-f0df-488d-b0cb-dfad5571bda4" d="M977.83,510.98c-5.06,2.94-10.94,10.53-14.1,15.46-.04-.18-.64.19-.67.21-.23.2-.15.6-.59.77-.22.08-.6-.08-.64-.04-.2.22.13.67.4.75-.18.23-.48.19-.68.4-.16.16-.18.49-.3.58-.64.51-.23.22-.53.69-.05.08-.65.19-.65.37,0,.05.45.37.25.93-.06.16-.27.17-.34.27-.08.12-.07.29-.19.42-.07.08-.69.62-.74.62-.04,0-.57-.53-.59-.63-.15-.66.53-.63-.83-1.13,2.6-5.58,5.21-10.27,8.95-15.19.42.31,1.21-.08,1.49.06.4.2.11.53.2.75.07.16.36.28.42.41s-.15.24-.15.33c-.03.6.37.21.67.24.27.03.5.43.82.38.21-.03.57-.94.49-1.27,0-.04-.59-.49-.63-.49-.17-.03-.68.65-1.13.4-.05-.05.35-1.32.41-1.36s.31.12.45.1c.19-.03.39-.24.43-.23.23,0,.18.64.21.67.05.05.41-.03.58.03.21.07.43.75.77.59.11-.05,1.5-1.47,1.7-1.69.17-.19.19-.52.33-.62.51-.36,1.17-.74,1.69-1.15.66-.52,1.25-1.06,1.98-1.55.12-.08.45-.36.53-.08Z"/>
  <path class="uuid-3e502b5e-acad-4cc2-93b4-accb82fa41f6" d="M941.89,560.89c-.04,3.07-.57,6.11-.81,9.16-.1,1.19.04,2.6-.15,3.79s-1.71.73-2.47.32c-4.68-2.54-.69-8.5.03-12.22,1.05-.51,2.3-.61,3.4-1.04Z"/>
  <path class="uuid-98d7ca53-4673-48ea-b5d2-d3697b1a7a96" d="M932.92,550.76c.31-.02,1.29-.19,1.38.17.03.13-.6,2.04-.65,2.58-.06.65.12,2.17-.09,2.62s-1.72,1.47-2.17,1.9c-.99.94-2.26,3.33-3.48,1.45-.79-1.21-2.07-5.51-1.63-6.84.13-.38.41-.7.78-.85,1.45-.57,4.29-.94,5.87-1.05Z"/>
  <path class="uuid-2a34b190-becb-4951-b304-c2c48d000045" d="M931.18,543.12c.32-.02.48.07.47.27,1.94.62,3.85,1.33,5.75,2.12.91.4,1.59.29,2.49.12l.1.33c-1.46.75-2.86,1.79-4.25,2.47s-4.78.72-6.52.94c-.67.08-2.61.8-2.8-.22-.51-2.73,2.14-5.68,4.75-6.04Z"/>
  <path class="uuid-323c9a45-6556-4e9f-9c9c-009b939e061a" d="M934.03,557.64c.31-.22,1.15,1.43,1.36,1.69.59.75,1.57,1.34,1.91,2.17-.5,1.92-1.4,3.75-1.95,5.66-.27.94-.17,2.94-1.79,1.87-.26-.17-1.16-1.25-1.42-1.56-.6-.73-2.26-3.07-2.3-3.94-.09-1.92,3.34-4.3,4.2-5.89Z"/>
  <path class="uuid-a5298125-9350-4866-a96e-aae7d9762a42" d="M953.02,540.68s-.14.16-.14.33c.02,1.02-.21,2.99-.75,3.87s-3.75,2.68-4.81,2.92c-.82.19-3.45-.39-4.24-.78-.45-.23-1.88-1.7-2.14-2.13-.14-.24-.28-.79-.27-1.08l.35.08c1.92,3.54,5.76,1.51,8.08-.58s2.29-3.51,1.15-6.23l.18-.32c.81.7,2.57,2.89,2.58,3.93Z"/>
  <path class="uuid-cbbfbcc2-d4a5-4cba-8b58-9498788f0471" d="M989.77,544.62l1.92.69c.38.39-.58.43-.9.4-4.39.67-8.78,1.28-13.19,1.82-.58-.12-.95-.09-1.12.07-.05,0-.1-.01-.14,0-1-.57-2.42-.34-3.39-.95,4.2-.84,8.36-1.86,12.55-2.71,1.48.08,2.84.33,4.27.68Z"/>
  <path class="uuid-9658c396-f0df-488d-b0cb-dfad5571bda4" d="M965.09,544.34l-.54.41.27.68-.6-.41c-.55,1.09-.91.58-1.77.81-.2.05-2.01.83-1.69,1.09.39.03.92-.44,1.28-.41.12.01.15.39.35.49.19.09.41-.09.6-.07.46.04.57.55,1.03-.07.1-.13.1-.39.16-.44.15-.13,1.02-.21,1.19.04l-.68,1.02c.56-.1,1.17-.33,1.36.41-2.29.4-6,1.43-8.21,1.37-1.3-.04-1.16-1.79-1.56-2.72,2.87-.93,5.88-1.44,8.81-2.18Z"/>
  <path class="uuid-ed2db847-538a-43b8-9329-b12771aa462a" d="M970.24,548.01c.21.11.49.11.81,0,.28.02.51.13.54.14-.11.17-.21.27-.42.32-1.08.28-2.28.41-3.38.69-1.71.45-5.89,2.02-7.4,1.95-.29-.01-.63-.45-.87-.12-.55-.27-1.79-.71-2.17-1.02-.29-.24.19-.37.37-.43,3.59-.4,7.22-1.5,10.81-1.67.5-.02,1.25-.08,1.7.14Z"/>
  <path class="uuid-9658c396-f0df-488d-b0cb-dfad5571bda4" d="M979.73,525.49c-1.53,1.16-2.79,2.6-4.2,3.87-2.36,2.13-4.81,4.14-7.19,6.24-1.12.99-2.57,2.76-3.8,3.46-.2.11-.46.12-.61.4-.84-.81.42-.84.74-1.15.2-.19.81-1.25.95-1.42,1.39-1.69,3.97-3.54,5.63-5.15,1.96-1.9,4.13-4.17,5.9-6.24.36.28-.39.61-.47.81-.06.16.13.36-.06.62-.21.29-.78.28-.98.53-.12.15.08.42-.11.55-.08.06-.43-.13-.55.13l.41.14-.07.88c.64-.04.27-.7.34-.8.03-.04.33-.06.46-.16.54-.43.38-.2.69-.38.61-.36,1.57-1.53,2.17-2.04.11-.09.61-.57.74-.28Z"/>
  <path class="uuid-ab089246-c89f-40bc-ac91-67563fe00801" d="M940,545.97c-.42-.26-.7.19-1.27.13-1.53-.15-4.01-1.39-5.51-1.96-.74-.28-1.66-.38-2.3-.82l.61-.07-.34-.14c2.79-.38,6.69,1.69,9.57,2.02l.33.21c0,.12-.9.52-1.08.61Z"/>
  <path class="uuid-86af84dd-873e-4570-a4aa-cee431e77b14" d="M956.95,540.95l.17.1c.16-.34.22-.81.36-1.13.05-.12.06-.42.28-.19.3.3.33,2.8.28,3.33-.02.27-.33.5-.14.6-.67.52-1.42,1.35-2.3,1.36-.25-.25,1.16-3.53,1.36-4.07Z"/>
  <path class="uuid-9658c396-f0df-488d-b0cb-dfad5571bda4" d="M991.53,536.48l-.86.57c-1.07.52-2.24.8-3.35,1.2l-.14-.14c1.4-.49,3.01-.99,4.34-1.63Z"/>
  <path class="uuid-9658c396-f0df-488d-b0cb-dfad5571bda4" d="M962.82,540.18c-.08.08-.07.31-.17.44-.24.3-.82.51-1.09.13.46-.11.98-1.04,1.31-1.13.24-.06.51.1.45.32-.05.17-.41.15-.5.24Z"/>
  <path class="uuid-9658c396-f0df-488d-b0cb-dfad5571bda4" d="M959.25,532.82c.05.07.01.44-.06.55-.11.16-2.04.45-1.43-.55.26-.11.62.25.75.24.08,0,.49-.57.74-.23Z"/>
  <path class="uuid-8fa0dfbe-a8b7-4ea5-bf4d-3c6ae3765821" d="M978.24,549.36c-.06-.84.88-.6.68.14-.22-.08-.49-.07-.68-.14Z"/>
  <path class="uuid-9658c396-f0df-488d-b0cb-dfad5571bda4" d="M972.27,542.45l.13.41-1.08-.13c.31-.08.63-.19.95-.27Z"/>
  <path class="uuid-4408696f-517a-4eda-8bef-4d499ab95fd5" d="M970.24,548.01c.27,0,.55-.02.81,0-.39.3-1.03.07-1.49.13,0-.25.5-.13.68-.13Z"/>
  <path class="uuid-7a79eaee-018c-4f03-a727-3f11a24704a5" d="M982.04,522.37c.36-1.5,1.48-2.59,2.15-4.02.49-1.04,1.08-3.65,1.74-4.23.59-.52,2.74-1.55,3.57-1.99,1.93-1.02,6.93-3.71,8.9-3.71.88,0,1.06.51,1.13,1.28.22,2.26-.42,7.65-2.1,9.29-2.04,1.99-8.7,2.26-11.62,2.75-1.24.21-2.47.78-3.77.64Z"/>
  <path class="uuid-aadb56c5-53b5-4e62-bc62-d3926493269f" d="M997.88,497.46c3.08-.3,3.87,1.37,3.22,4.17-.76,3.25-2.97,4.16-5.63,5.63-2.29,1.26-5.61,3.18-7.96,4.11-1.71.68-1.13-.47-1.71-1.64-.25-.51-1.33-1.63-1.8-2-.73-.58-1.55-.33-.61-1.56,2.51-3.25,10.4-8.32,14.48-8.71Z"/>
  <path class="uuid-aadb56c5-53b5-4e62-bc62-d3926493269f" d="M988.41,567.4c.97.98,3.48,3.82,3.65,5.1.19,1.48-1.45,2.79-2.7,3.31-.63.26-2.25.62-2.92.6-1.41-.05-1.61-.73-2.12-1.87s-.85-2.38-1.35-3.53c-1.23-2.79-2.8-5.58-4.18-8.3v-.47c.56-.16,1.09.22,1.56.26,1.1.1,2.25-.18,3.3.22,1.12,1.23,2.29,2.4,3.47,3.59.36.36.92.7,1.29,1.08Z"/>
  <path class="uuid-aadb56c5-53b5-4e62-bc62-d3926493269f" d="M990.45,559.13c1.9.95,3.98,1.87,5.83,2.91,2.26,1.27,2.72,1.92,1.73,4.45-.55,1.4-2.38,4.54-4.21,4-.11-.03-.85-.6-1.03-.73-1.24-.9-2.27-2.14-3.4-3.18s-3.18-2.61-4.07-3.73c-.19-.24-.44-.42-.38-.79.08-.51,2.29-1.86,2.72-2.85.11-.25.07-.74.23-.85.53-.38,2.04.48,2.59.75Z"/>
  <path class="uuid-aadb56c5-53b5-4e62-bc62-d3926493269f" d="M993.7,558.99c-1.19-.47-4.24-1.31-5.06-1.92-.52-.38-.53-.92-.77-1.47-.41-.96-.69-1.69-1.3-2.57-.35-.5-1-.77-1.01-1.5,1.03-.37,2.17-.02,3.18,0,2.46.05,7.47-.15,9.61.83,2,.92,1.86,3.57,1.72,5.47-.06.79-.28,2.68-1.18,2.89-1.41.32-3.84-1.2-5.19-1.73Z"/>
  <path class="uuid-7a79eaee-018c-4f03-a727-3f11a24704a5" d="M995.19,546.79c.45.29,1.49,1.19,1.76,1.63,1.11,1.75-.22,1.74-1.63,1.76l-1.36-.14c-1.41-.02-2.81-.22-4.2-.27-1.04.1-2.08.11-3.12,0-1.31,0-2.03.23-3.42-.04-1.8-.34-5.27-2.18-6.75-2.13-.08-.43.22-.24.47-.27,4.57-.44,9.17-1.29,13.72-1.89.33-.04.67-.01,1-.02l-1.9-.81c1.71.42,3.95,1.21,5.42,2.17Z"/>
  <path class="uuid-70a084e8-0c27-4de0-b8c6-343d6c3b91b6" d="M950.25,557.14c-1.1-1.39-1.91-3.25-2.22-5.03-.05-.27-.16-1.73-.11-1.94.16-.65,3.78-3.26,4.49-3.38,1.01-.16,1.66.05,2.17.93,1.33,2.3,1.44,5.08.97,7.63-.14.74-.3,1.8-.85,2.27-2.05,1.79-2.87,1.51-4.46-.49Z"/>
  <path class="uuid-81be4024-901a-4521-aa37-24ff74b7f5c5" d="M956.36,560.13c1.8-.09,2.2.95,2.72,2.37.82,2.24,2.37,6.28,2.01,8.57-.2,1.29-1.06,1.81-2.26,1.17-.73-.38-1.81-2.05-2.22-2.8-.61-1.14-1.93-3.74-2.31-4.88-.07-.22-.32-1.37-.32-1.57-.04-1.13,1.22-2.8,2.38-2.86Z"/>
  <path class="uuid-8fa0dfbe-a8b7-4ea5-bf4d-3c6ae3765821" d="M969.16,569.3s-.11.78-.14.81c-.04.05-.64-.03-.81,0-.12-.45.34-.2.4-.27.09-.11-.07-.52-.13-.67.05-.04.66.11.68.14Z"/>
  <path class="uuid-bdd52fc3-7f4e-4a01-88a2-6421d660d24b" d="M947.32,534.99c1.2.28,2.21.97,3.12,1.76.64,1.97,1.53,3.44.14,5.32s-3.35,3.18-5.53,3.86c-.84.26-1.47.28-2.3-.07-.93-.39-1.61-1.2-2.07-2.07-1.15-2.19-.67-6.27,1.23-7.92.35-.31.58-.24.8-.35.09.33-.05.68-.41,1.05-1.15,1.24-.24,3.56,1.44,2.23.63-.5,2.51-2.43,2.22-3.27-.22-.29-.36-.56-.4-.82.41,0,1.35.17,1.76.27Z"/>
  <path class="uuid-cf5049cd-f7f5-4eb6-a3ea-855968bf9fe8" d="M942.71,534.04l.14.81c-.54.25-.76-.52-.88-.54-.08-.02-.06.14-.07.13-.37-.18-3.37-6.35-3.91-7.28-1.28-2.23-3.39-5.5-5.38-7.09-1.48-1.19-4.66-1.99-3.19-4.55,1.33-2.31,3.5,1.06,4.21,2.17,3.28,5.14,6.08,11,9.08,16.35Z"/>
  <path class="uuid-ae5e38ee-cda9-4d42-bfec-32f1dc0f85bc" d="M945.56,534.72c.67.29.83.93.6,1.62-.2.6-2.31,2.98-2.87,3.1-1.01.22-1.72-.43-1.8-1.42-.06-.73.77-1.93,1.22-2.49.96-.51,1.7-.84,2.85-.81Z"/>
  <path class="uuid-989cf368-ee11-4600-a064-a3705d557109" d="M950.03,509.9c.61-.04,1.08.36.75.95-.16.29-.27-.2-.6-.08-.51.18-1.7,1.78-2.11,1.7s-.11-.89.06-1.12c.18-.24.71-.47.96-.71.09-.09,0-.28.03-.31s.72-.42.77-.44c.04,0,.09,0,.14,0Z"/>
  <path class="uuid-8fa0dfbe-a8b7-4ea5-bf4d-3c6ae3765821" d="M980.28,562.25c.07-.99.52-.55.67-.69.05-.05-.03-.33.02-.38.04-.04,1.01-.06,1.21-.15-.17.32-.14.82.34.68.41-.12-.06-.68.2-.88.11-.08,1.56-.64,1.76-.69.73-.18.11.54.04.85-.19.75.18,1.22-.93,1.38s-1.55-.34-2.22-.33c-.27,0-.69.37-1.09.2Z"/>
  <path class="uuid-8fa0dfbe-a8b7-4ea5-bf4d-3c6ae3765821" d="M977.97,560.35l1.22.74c-.08.2-.66.49-.86.45-.38-.07-.27-.84-.76-.79-.17.44,1.07,1.56.09,1.6-.72.03-.23-1.67-.23-2.14.16.13.44.09.54.14Z"/>
  <path class="uuid-8fa0dfbe-a8b7-4ea5-bf4d-3c6ae3765821" d="M980.23,566.87c.35-.1,1.07.94.93,1.2-.47.94-1.72-.99-.93-1.2Z"/>
  <path class="uuid-8fa0dfbe-a8b7-4ea5-bf4d-3c6ae3765821" d="M987.46,565.5c-1.32.47-.67-.37-.95-1.22.24.16,1.15.92.95,1.22Z"/>
  <path class="uuid-8fa0dfbe-a8b7-4ea5-bf4d-3c6ae3765821" d="M968.52,556.64c-.78-.68.06-.98.64-.29-.07.36-.33.56-.64.29Z"/>
  <path class="uuid-8fa0dfbe-a8b7-4ea5-bf4d-3c6ae3765821" d="M989.77,549.77c-.92.23-2.2.23-3.12,0,1.03,0,2.09-.03,3.12,0Z"/>
  <path class="uuid-8fa0dfbe-a8b7-4ea5-bf4d-3c6ae3765821" d="M979.72,565.1c.39.6-1.04.69-.6-.01.13-.21.58-.03.6.01Z"/>
  <path class="uuid-8fa0dfbe-a8b7-4ea5-bf4d-3c6ae3765821" d="M989.9,557.77c.22.31-.5.51-.67.26-.35-.54.57-.39.67-.26Z"/>
  <path class="uuid-8fa0dfbe-a8b7-4ea5-bf4d-3c6ae3765821" d="M974.58,559.4c.22.22-.35.86-.54.34-.17-.47.48-.4.54-.34Z"/>
  <path class="uuid-8fa0dfbe-a8b7-4ea5-bf4d-3c6ae3765821" d="M995.33,550.18c-.42,0-1.05.11-1.36-.14.43,0,1.04-.11,1.36.14Z"/>
  <path class="uuid-8fa0dfbe-a8b7-4ea5-bf4d-3c6ae3765821" d="M974.24,529.56c.1,0,.51.45.13.54s-.4-.54-.13-.54Z"/>
  <path class="uuid-48e24896-21d6-438e-a3ed-a3a3a86acd27" d="M947.15,538c2.16-.56,2.09,2.04,1.35,3.39-.95,1.74-3.35.66-3.07-1.44.11-.78.97-1.75,1.72-1.94Z"/>
  <path class="uuid-c615afa3-7c13-41ce-9ce3-096b36b4da26" d="M931.86,516.95c-1.02.37-1.19-.46-1.76-1.02.48-1.06,1.99.76,1.76,1.02Z"/>
  <path class="uuid-69e55fe8-802f-4c55-8d55-190dbd1b93ce" d="M944.52,537.47c-.29.24-.49.4-.79.63s-1.03,1.26-1.36.54c-.05-.11-.05-1.33,0-1.5.35-1.58,3.36-2.17,3.35-.87,0,.62-.8.87-1.19,1.2Z"/>
</svg>