<?xml version="1.0" encoding="UTF-8"?>
<svg id="uuid-d919592a-3752-4772-b2ee-7ac4841e37e9" data-name="Layer 1" xmlns="http://www.w3.org/2000/svg" viewBox="0 0 1920 1080">
  <defs>
    <style>
      .uuid-4f151c3a-8885-4c8c-81e0-46808fabcc18 {
        fill: #ae6a25;
      }

      .uuid-325b2730-05ac-4dd4-aa8e-6f82cfc7290f {
        fill: #81592b;
      }

      .uuid-31b86ebd-d53a-4b20-83b5-a3e9d51ed57f {
        fill: #b77129;
      }

      .uuid-f62c18a2-5eba-4231-9cd3-a6769d6f4573 {
        fill: #b67029;
      }

      .uuid-ff5dc743-f040-4e36-870f-c993d51b5523 {
        fill: #e6dfd4;
      }

      .uuid-2f2ad009-db49-4629-8a60-ae82d9a51e40 {
        fill: #cc8236;
      }

      .uuid-0857a6c3-64b7-48cd-81fa-aa3db121f8ff {
        fill: #eba96b;
      }

      .uuid-127237ed-b689-4ba9-91d5-bf4a9d11e52e {
        fill: #623f11;
      }

      .uuid-f81b4747-b0c6-4464-9057-d3e22a382578 {
        fill: #280300;
      }

      .uuid-1d1fce4d-d5af-4ab5-84cc-d04d463392f6 {
        fill: #7a5325;
      }

      .uuid-732a1dbc-97d7-47ef-8e00-676fe7044739 {
        fill: #7c5529;
      }

      .uuid-7c832534-54df-4ac8-ac3a-5c8a96b155d0 {
        fill: #785228;
      }

      .uuid-fb0f051d-7362-4e77-842b-56bc9b3f393e {
        fill: #fefefe;
      }

      .uuid-7f421efd-c4bf-4575-9a33-7628e48f1c86 {
        fill: #785123;
      }

      .uuid-6bdb0808-42e2-4a60-b3de-9957857f2295 {
        fill: #b57028;
      }

      .uuid-9baf9fae-d94f-4847-8b07-f153c021d6b1 {
        fill: #cc8136;
      }

      .uuid-d81eb8c0-6793-473a-b88f-bde8086bc906 {
        fill: #280501;
      }

      .uuid-bee8a6f4-516b-4dde-9bf4-3cd35dd42211 {
        fill: #7b5325;
      }

      .uuid-9ad5b40d-66b8-40eb-9e57-6718a9943427 {
        fill: #613e11;
      }

      .uuid-d6680179-f953-412b-aeb8-3cabb9b0f454 {
        fill: #835a2b;
      }
    </style>
  </defs>
  <path class="uuid-127237ed-b689-4ba9-91d5-bf4a9d11e52e" d="M724.04,512.06c-.07-1.8.61-4.02-1.13-5.27-13.11,3.75-28.61,5.39-42.35,4.54-70.96-4.37-118.81-73.14-83.86-139.08,11.03-20.82,21.84-38.28,29.45-61.22,7.35-22.14,6.22-46.65,11.8-69.81,2.76-11.46,7.87-28.68,13.15-38.99,1.48-2.89,6.56-8.62,5.31-11.3-.55-1.19-6.31-6.98-7.96-9.44-16.24-24.22-19.65-59.5-8.65-86.53,9.04-22.23,25.84-19.41,43.22-7.74,13.84,9.3,25.86,21.01,38.52,31.75,4.46,1.33,7.72-1.56,11.54-2.5,17.19-4.23,37-6.57,54.59-3.93,13.67,2.05,26.85,7.07,39.42,12.59,7.43-11.66,17.56-22.01,28.47-30.49,19.7-15.3,40.55-29.07,54.71,1.08,9.07,19.33,10.87,57.5,5.6,78.11-.67,2.6-4.05,9.58-3.59,11.25.16.57,6.65,7.6,7.79,8.89,37.3,42.3,57.58,98.33,59.34,155.26.26,8.56.6,19.08-11.32,15.49-.54,5.64,2.72,10.74,5.16,15.61,7.73,15.42,18.09,32.59,33.13,41.68s25.77,1.07,40.87-1.94c31.84-6.34,65.4-7.33,96.51,2.88,3.19-.08,5.25-3.05,7.71-4.44,73.34-41.42,145.79,12.78,158.39,88.4,3.8,22.79-.6,41.61-6.08,63.2-5.75,22.65-14.9,68.95,8.49,84.77,4.57,3.09,10.41,1.46,8.67,10.18-1.45,7.3-23.15,14.44-29.92,15.41-20.75,2.99-34.51-3.03-50.15-15.4-.76-.6-.97-1.46-2.27-1.12,1.32,6.68-.7,13.48.19,20.58,2.56,20.27,15.86,36.66,17.21,57.59.87,13.46-2.89,29.61-4.56,43.11-3.1,25.09-5.74,51.9-10.59,76.69l1.11,2.18c-4.48,24.2-11.45,44.85-37.93,50.98-16.06,3.72-55.64,4.42-65.64-10.77-8.42-12.79,1.53-42.68,7.01-56.11l1.75-.63-.84-2.71c5.71-23.57,10.24-48.3,10.21-72.64-.02-14.19-2.68-20.11-11.65-30.66-12.61-11.97-22.75-25.53-31.78-40.67l-15.51,8.14c4.94,17.44,5.34,35.4,2.01,53.27-4.23,25.06-8.06,50.21-11.49,75.42l-1.41,2.28,1.19,1.97c-2.66,13.74-6.01,30.54-16.64,40.48-13.12,12.27-39.64,12.05-56.33,8.75-36.12-7.14-28.6-28.09-17.88-54.53l2.01-1.2c-.21-1.66-.4-3.39.01-5.03,6.14-24.76,12.76-51.46,10.69-76.91-.3-3.7-1.44-12.94-3.76-15.53-.8-.89-22.92.19-24.04.64-.59.24-1.15,2.33-1.21,3.13-1.99,25.99-4.36,52.94-7.04,79.19-.66,6.44-1.41,12.87-3.37,19.04-.72,2.66-.43,4.47.89,5.41-2.23,20.44-5.32,41.28-9.44,61.78-7.12,34.77-31.64,43.89-64.91,42.19-35.85-1.83-52.01-12.16-41.14-48.43,5.71-18.47,11.46-37.17,12.61-56.67l1.5-1.26-1.12-6.24c1.78-33.55,2.33-67.69-4-100.76-6.11-.59-12.19-1.43-18.24-2.5l-.61-.91c-2.49,32.14-6.29,64.37-11.22,96.26-.67,4.32-2.01,8.5-3.35,12.64l1.25,1.97c-.55,9.3-2.4,21.33-4.28,30.5-6.99,34.04-20.44,48.38-56.02,48.25-26.29-.09-58.66-5.57-49.24-39.99,2.53-6.84,4.8-13.74,6.81-20.72l1.74-1.13c1.93-7.61,4.68-14.98,6.43-22.66,6-26.28,6.12-53.66,8.68-80.1.45-9.07.5-18.14,0-27.2-1.66-15.31-1.06-31.64-2.27-47.22-.58-7.49-1.61-24.19-3.48-30.68-2.53-8.82-9.27-18.93-12.02-29.38-1.88-7.13-11.14-80.01-5.64-80.12,1.02-10.28,1.28-20.6.76-30.98Z"/>
  <path class="uuid-ff5dc743-f040-4e36-870f-c993d51b5523" d="M999.09,835.47c-5.33,16.23-19.23,39.57,2,49.76,16.84,8.09,51.87,9.63,67.14-2.16,11.92-9.2,16.03-28.83,18.51-43.07.5-.49.91-1.25,1.22-2.26,18.88.93,38.27,3.36,56.98,5.76,1.99.26,2.74,1.61,2.24,4.05-4.3,15.61-20.38,49.65-2.38,60.94,14.4,9.02,47.9,8.86,63.74,3.83,23.18-7.36,28.16-29.08,32.33-50.41l.76.37.39-1.89c22.4,6.82,46.17,13.03,66.47,24.96,53.35,31.33,15.96,58.63-23.06,74.4-65.16,26.32-164.8,36.97-235.32,40.48-112.17,5.58-263.54.58-370.82-32.74-31.35-9.74-107.02-39.32-52.97-76.71,29.73-20.56,70.48-26.71,104.9-35.65.8,1.03-.25,2.69-.35,4.07-.04.54.73,1.12.71,1.21-2.3,14.11-12.94,26.34-6.84,42.73,7.22,19.41,49.38,19.16,65.93,15.99,36.16-6.94,36.39-48.42,40.65-77.6l.57-1.56c12.32-1.07,24.64-2.01,36.96-2.8.6,1.68.93,3.64,1,5.87.29,8.75-3.54,25.78-5.66,34.77-4.28,18.13-22.13,54.52,2.99,64.25,16.52,6.4,38.35,7.39,55.72,4.28,40.16-7.2,37.91-47.65,44.33-79.59l3.12-26.73c1.28-7.08,1.44-7.29,8.75-7.16,6.27.91,12.54,1.34,18.81,1.31l1.15,1.32Z"/>
  <path class="uuid-d81eb8c0-6793-473a-b88f-bde8086bc906" d="M724.04,512.06c1.25.78.76,2.87.77,4.15.1,9.28-1.04,18.31-.78,27.59-.86.13-.69-.76-.75-.76-.3-10.36,1.17-20.61.76-30.98Z"/>
  <path class="uuid-f81b4747-b0c6-4464-9057-d3e22a382578" d="M746.71,757.64v-27.2c1.01,9.3.91,17.84,0,27.2Z"/>
  <path class="uuid-2f2ad009-db49-4629-8a60-ae82d9a51e40" d="M823.78,172.79c5.29-27,25.18-52.36,46.5-68.73,4.88-3.75,14.41-12.19,20.57-9.3,2.82,1.32,7.39,13.35,8.27,16.67,6.51,24.57,4.98,58.18-7.2,80.76-4.4,8.15-10.3,12.59-14.81,19.19-6.62,9.68,7.46,6.19,9.78,8.25.92.82,4.73,9.98,5.48,11.9,7.14,18.26,12.27,40.22,15.18,59.62,6.65,44.25,2.38,123.32,37.12,155.57,17.31,16.07,53.91,16.02,73.82,5.03,5.63-3.11,5.58-5.98,8.98-9.15,1.85-1.72,23.71-5.8,28.13-6.63,49.51-9.35,85.92-6.89,124.09,28.1,40.09,36.75,49.55,90.44,47.62,142.85-1.13,30.73-8.31,64.82-.57,94.96,4.25,16.55,14.3,30.86,13.38,48.57-.51,9.79-3.26,20.57-4.43,30.32-3.16,26.26-5.74,52.6-8.77,78.88-21.04,7.56-46.19,5.77-66.87-2.31,2.82-9.93,5.25-20.01,7.18-30.17,3.93-20.59,10.75-63.23,2.52-81.89-5.03-11.41-16.95-20.66-24.8-30.36-15.87-19.59-23.98-41.35-26.46-66.48-1.6-16.21-.27-32.49-.39-48.72-4.02-4.85-5.96,4.14-6.96,7.39-3.91,12.75-5.21,26.17-5.5,39.45-.36,2-.62,3.19-2.25,4.62-34.28,30.12-73.14,44.11-117.87,40.45-.35,5.92-2.91,3.07-3.05-1.25-.95-3.93-1.61-8.09-2.27-12.09l-1.85.79c-4.58,12.11-7.66,23.34-10,36.09-8.3,45.28-9.84,91.55-14.6,137.28-.59,5.7-3.35,34.63-5.68,37.39-2.06,2.44-14.6,4.06-18.21,4.46-17.86,1.99-35.41.68-52.42-5.21,15.23-58.37,12.02-119.62,1.27-178.45-1.12-6.11-4.55-29.12-8.46-32.34-3.11-2.56-5.63-.15-7.07,2.73-2.9,5.78-2.48,17.96-1.61,24.46-2.58-.47-5.28-1.28-8.09-2.43-23.57-4.05-46.06-11.74-66.9-23.86-9.04-5.26-17.55-10.8-23.24-19.8-17.22-20.57-23.9-54.95-24.97-81.2l.79-53.3c1.34-.22,2,.63,1.96,2.56,51.91.56,97.14-37.08,125.07-78.78,22.86-34.14,38.73-78.03,30.14-118.73-.33-2.76-2.01-12.65-3.4-14.36-.67-.83-.87-.96-1.53,0-1.42,2.05-3.43,21.2-4.38,25.85-3.8,18.59-10.34,34.6-20.17,50.48-23.04,25.22-55.34,37.8-89.16,38.54-.87-1.34-2.18-3.68-3.78-2.27l-1.56-2.11c-7.84-64.01-91.11-86.28-145.22-68.8l-2.83-.87c18.34-33.47,20.25-57.5,25.79-93.97,2.82-18.55,8.94-38.35,17.66-54.88,1.29,10.88,4.19,21.64,9.59,31.21,1.51,2.68,3.75,5.01,5.3,7.55,2.61,4.26,3.21,10.94,10.01,11.9,10.53,1.48,13.09-5.8,15.15-14.38,3.44,5.74,8.19,17.38,16.07,18.01,1.93.16,2.27-1.13,3.2-1.39l2.63-2.41c35.41-15.26,70.76-38.32,89.73-73.01,1.14-4.21,2.59-8.29,4.36-12.23Z"/>
  <path class="uuid-0857a6c3-64b7-48cd-81fa-aa3db121f8ff" d="M773.91,428.19c0,27.05-20.4,49.59-44.07,59.82-47.16,20.39-114.62-2.4-127.86-55.27-8.63-34.45,7.47-49.25,22.32-76.34,5.75-1.3,11.39-3.25,17.21-4.33,34.69-6.42,74.58,1.36,102.87,22.91,15.97,12.17,29.54,32.52,29.53,53.21Z"/>
  <path class="uuid-325b2730-05ac-4dd4-aa8e-6f82cfc7290f" d="M1184.97,422.14c64.42-14.83,104.88,40.78,110.31,98.61.72,7.65,1.07,22.07-1.89,29.08-3.7,8.79-5.1-5.26-5.9-7.7-1.54-4.7-8.46-20.9-11.53-23.99-.58-.58-1.2-1.59-1.85-.42-.02,4.07,1.69,8.44,2.21,12.14,1,7.01,1.99,15.62,2.36,22.65,1.49,28.58-5.64,59.67,3.75,87.24,1.19,5.48,3.17,10.76,5.93,15.83-1.33,4.18-7.07,1.31-9.57-.34-13.98-9.25-17.98-28.58-20.17-44.28-.81-5.81-1.24-11.66-1.65-17.5.04-44.01-6.4-87.51-34.84-123.39-12.47-11.93-5.52-13.51,6.21-7.53,2.45,1.25,4.53,2.42,6.78,4.04,13.22,11.91,14.46,12.01,3.73.32-14.48-11.96-30.32-21.86-47.52-29.7-5.61-2.37-15.2-10.87-6.37-15.06Z"/>
  <path class="uuid-fb0f051d-7362-4e77-842b-56bc9b3f393e" d="M1086.74,840c2.69-15.42,3.89-31.58,6.13-47.14,2.37-16.46,6.77-34.15,7.43-50.68.46-11.38-1.56-23.04-4.37-33.97l17.55-9.45c5.97,8.38,10.52,17.12,17.1,25.23,10.73,13.24,25.88,22.4,27.21,40.8,1.66,22.9-4.45,60.41-10.61,82.77-.76-2.69-2.48-2.6-5-2.93-16.66-2.16-34.57-4.02-51.32-5.38-.93-.08-2-.21-2.89-.02-.72.15-.35,2.76-1.24.77Z"/>
  <path class="uuid-9baf9fae-d94f-4847-8b07-f153c021d6b1" d="M761.82,722.88l3.45.94c19.07,15.37,37.24,30.03,50.74,50.79,2.7,4.15,5.98,10.87,6.26,15.52.16,1.59-.04,3.28,0,4.89l-8.42,70.54c-10.26,3.23-21.3,3.6-31.99,3.14-5.26-.23-11.85-.88-17.04-1.85-2.48-.47-16.95-4.45-17.18-6.04,10.57-34.53,13.43-71.65,14.18-107.7.98-7.89.97-17.03,0-24.94-.03-1.76.04-3.53,0-5.29Z"/>
  <path class="uuid-f62c18a2-5eba-4231-9cd3-a6769d6f4573" d="M896.32,329.96c3.85,7.14,3.91,17.26,3.81,25.34-.85,73.37-71.51,166.54-147.77,173.37-4.11.37-8.6-.8-12.45.77l-.76-4.53-.05-24.55c6.8-2.66,13.11-6.94,18.88-11.4,5.3-4.1,13.55-13.72,18.25-16.51,4.22-2.49,11.94-3.95,16.77-5.9,58.04-23.43,111.57-66.95,103.32-136.59Z"/>
  <path class="uuid-4f151c3a-8885-4c8c-81e0-46808fabcc18" d="M1080.68,716.08c3.36,8.5,4.24,16.91,3.78,26.06-1,19.72-6.07,40.76-8.29,60.47-1.26,11.16-1.44,22.45-2.65,33.62-.38.67-.93,1.13-1.67,1.35-1.96.58-8.89,1.49-11.19,1.66-14.76,1.08-31.15.34-44.85-5.38,3.41-16.14,7.07-32.27,8.88-48.73,1.85-16.81,4.02-35.92-2.93-51.67,20.5-2.33,39.76-10.3,58.93-17.39Z"/>
  <path class="uuid-732a1dbc-97d7-47ef-8e00-676fe7044739" d="M941.65,332.98c.23,3.21.44,6.86.95,10.01,4.67,28.68,23.75,70.13,46.28,88.98,1.36,1.14,10.02,6.49,10.2,7.19.38,1.57-2.15,2.41-3.26,2.76-9.6,2.94-26.76,1.03-34.52-5.79-30.94-27.18-29.39-87.99-34.09-126.1-3.51-28.52-10.04-63.43-22.45-89.39-1.04-2.18-2.9-5.99-4.31-7.78-.91-1.16-3.02-1.82-3.31-2.79-.49-1.63,6.18-12.47,10.16-10.14,3.73,2.18,14.76,17.4,17.59,21.74,22.73,34.87,34.8,75.17,35.65,116.97-.86,4.73-4.77-1.45-6.42-2.64-3.81-2.75-7.82-3.43-12.47-3.03Z"/>
  <path class="uuid-d6680179-f953-412b-aeb8-3cabb9b0f454" d="M758.04,127.45c3.74-.73,7.6-.7,11.33,0,12.25.26,19.44,1.49,30.98,5.29l8.91,3.77c4.25,1.73,7.96,5.15,2.15,7.85-18.73,4.89-33.02,10.54-47.17,23.99-15.99,15.2-29.31,34.81-36,55.47-.95,2.72-3.28,4.46-5.84,2.45-2.96-2.33-4.31-29.69-2.9-33.84,0-.25,0-.5,0-.76l1.51-6.8c1.11-6.89,3.09-14.68,5.67-21.16.31-.78,4.68-7.12.37-4.92-1.32.67-6.12,4.86-7.47,6.13-13.84,13.01-20.75,34.92-21.99,53.59-.33,4.98,2.25,8.03-4.11,11.02-3.59,1.68-7.7-3.28-8.9-6.33-18.83-47.86,27.53-93.42,73.46-95.75Z"/>
  <path class="uuid-7c832534-54df-4ac8-ac3a-5c8a96b155d0" d="M1184.97,422.14c-3.41,2.49-2.06,7,.69,9.51,4.07,3.72,18.42,10.28,24.23,13.55,12.6,7.09,23.95,13.21,33.65,24.53.92,1.07,6.21,8.05,6.4,8.71.8,2.71-5.63-2.03-6.41-2.66-5.23-4.21-8.32-8.25-14.96-11.48-3.28-1.6-9.03-3.65-12.61-4.01,2.27,3.44,5.42,6.21,7.88,9.5,16.81,22.44,28.63,50.59,32.15,78.92,3.38,27.17-1.28,82.92,19.64,102.01,2.86,2.61,7.4,6.46,11.36,5.27-.57-6.03-5.66-9.83-4.54-16.24,1.46,4.3,4.2,10.92,6.8,14.53,1.22,1.7,7.7,7.66,8.02,8.86.66,2.55-8.02,3.66-9.92,3.8-17.24,1.25-29.27-9.38-39.65-21.56-2.68-1.46-3.8,3.12-4.93,1.19-2.15-3.65-.37-7.51-.33-10.94.35-37.03,2.74-71.54-6.26-107.9-8.49-34.3-32.99-72.19-63.53-90.61-2.75-1.66-6.47-3.52-9.57-4.41,5.99-6.05,13.86-8.72,21.91-10.57Z"/>
  <path class="uuid-6bdb0808-42e2-4a60-b3de-9957857f2295" d="M1105.63,646.56c-.12,5.55-.42,12.31.01,17.74.27,3.42,3.58,15.14,2.67,17.01-36.93,24.29-81.99,39.55-126.6,38.54l1.58-21.53-.82-7.93c.2.81.75,3.71,1.5,3.77.17-.83-.22-3.55,0-3.78.81-.82,19.71.2,23.08.04,43.69-2.19,64-16.21,96.75-41.46,1.1-.84,1.26-1.1,1.83-2.39Z"/>
  <path class="uuid-fb0f051d-7362-4e77-842b-56bc9b3f393e" d="M869.87,843.02c-.02-.59-1.53-3-.75-4.54l-37.78,3.03c5.31-36.4,10.12-72.94,13.6-109.57,7.01.06,13.75,2.85,20.8,2.56l.86.81c5.84,35.56,5.69,71.83,3.27,107.72Z"/>
  <path class="uuid-fb0f051d-7362-4e77-842b-56bc9b3f393e" d="M970.37,840c.02-7.77,1.61-15.36,2.26-23.05,1.93-22.82,4.21-45.33,6.68-68.11.42-3.84-1.38-9.15,2.19-11.56l25.38-.82c5.33,9.37,4.72,21.57,4.32,32.17-.85,22.59-5.13,45.54-12.12,66.84-6.62,1.58-20.38-2.56-25.97-.66-1.93.66-2.06,8.37-2,10.48-1.4-.42-.75-4.04-.75-5.29Z"/>
  <path class="uuid-31b86ebd-d53a-4b20-83b5-a3e9d51ed57f" d="M822.27,790.13c-.35-3.48-1.22-1.82-2.11-3.53-1.88-3.6-3.32-7.72-5.44-11.21-13.2-21.66-33.94-36.4-52.9-52.51-.18-7.82-.19-16.86-.77-24.55-.52-6.93-3.78-13.32-3.39-20.03,14.78,16.32,32.11,30.36,51.85,40.33,3.23,1.63,17.96,7.4,19.15,8.81,2.12,2.52.85,7.74,1.15,10.92l-7.54,51.77Z"/>
  <path class="uuid-7c832534-54df-4ac8-ac3a-5c8a96b155d0" d="M800.36,132.74c3.11,1.02,6.36,1.7,9.35,3.11,11.18,5.28,6.1,7.75,3.25,16.67-.65,2.04-.52,4.17-1.23,6.33-2.56,7.78-5.34,7.57-10.26,12.4-9.15,8.99-17.28,18.99-27.18,27.22-14.53,12.09-31.75,20.85-45.75,33.59-1.47,1.34-2.06,3.71-4.49,4.19-4.75-13.95-8.17-29.12-4.55-43.83-.25,7.4.2,13.6,1.31,20.98.39,2.62.73,14.45,4.76,11.92,1.44-.9,4.64-11.89,5.88-14.52,9.87-20.77,31.13-48.07,51.98-58.34,8.83-4.35,19.36-6.64,28.62-9.94,4.54-4.43-9.86-6.88-11.71-9.8Z"/>
  <path class="uuid-1d1fce4d-d5af-4ab5-84cc-d04d463392f6" d="M1157.49,867.25c8.08.72,16.21,3.98,24.14,5.18,8.67,1.32,18.44,1.72,27.14.8,2.63-.28,13.39-3,14.42-1.54,1.71,2.44-5.61,16.86-7.98,19.31-11.62,12.01-39.02,10.05-53.98,6.37-2.49-.61-8.08-2.91-9.14-5.28-1.9-4.27,3.44-19.22,4.53-24.17l.89-.68Z"/>
  <path class="uuid-bee8a6f4-516b-4dde-9bf4-3cd35dd42211" d="M943.93,903.47c.48.48-1.91,8.73-2.42,10.04-.56,1.44-3.25,6.8-4.03,8.06-2.13,3.43-10.67,7.22-14.53,8.14-10.55,2.5-36.74.95-46.82-2.64-11.05-3.93-2.95-19.99-1.71-28.13,3.47-.06,6.46,2.11,9.63,2.83,13.2,3.04,30.22,5.16,43.63,3.96,2.35-.21,15.55-2.96,16.25-2.26Z"/>
  <path class="uuid-bee8a6f4-516b-4dde-9bf4-3cd35dd42211" d="M740.89,897.21c-4.17-5.23.12-20.98,4.03-26.17,2.14-.7,8.85,2.86,11.43,3.52,12.87,3.3,25.07,4.6,38.36,4.01,3.85-.17,9.44-1.65,12.83-1.61,1.34.02,2.55-.1,3.39,1.22-2.51,5.44-3.72,11.86-7.57,16.58-8.85,10.81-26.27,9.81-38.88,8.7-5.73-.5-14.53-1.51-19.7-3.72-.74-.32-3.48-2.04-3.88-2.54Z"/>
  <path class="uuid-7f421efd-c4bf-4575-9a33-7628e48f1c86" d="M1011.35,843.96c1.57-1.94,12.42,2.78,15.5,3.4,9.76,1.97,22.16,1.89,32.02,1.25,2.22-.14,9.16-1.79,10.14-1.61,1.07.2,1.13,1.48,1.13,2.41,0,2.48-2.09,10.4-3.13,12.81-4.96,11.49-23.93,14.13-34.94,13.77-5.77-.19-24.81-2.55-27.33-8.05-1.79-3.91,5.8-19.08,6.6-23.97Z"/>
  <path class="uuid-31b86ebd-d53a-4b20-83b5-a3e9d51ed57f" d="M727.06,260.44c10.86-23.69,36.18-33.96,55.52-49.13,11.74-9.21,21.01-20.82,32.12-30.6,3.21-2.82,7.39-3.93,9.08-7.92-1.6,8.16-.57,9.22-5.27,17.02-14.4,23.9-35.35,41.11-59.18,54.92-9.7,5.62-21.63,12.7-32.26,15.72Z"/>
  <path class="uuid-2f2ad009-db49-4629-8a60-ae82d9a51e40" d="M665.1,174.3c-14.95-17.84-21.47-51.48-10.15-72.49,1.01-1.87,4.44-6.91,6.64-6.69s24.62,17.49,28.05,20.26c4.75,3.84,10.32,8.33,14.76,12.44.62.57,2.91,2.47,2.25,3.4-7.4,3.1-11.95,10.01-17.75,15.13-2.74-5.16-6.99-10.73-10.96-15.12l-2.29-.25c-1.61-1.73-15.62-15.46-17.99-13.79-8.06,5.68,2.86,47.3,9.3,55.03.62,1.83-.03,2.8-1.86,2.07Z"/>
  <path class="uuid-6bdb0808-42e2-4a60-b3de-9957857f2295" d="M866.85,391.92c-4.48,7.25-8.75,14.11-14.72,20.41-18.94,19.98-47.45,29.21-71.05,42.29-1.15.36-1.2.03-.99-.98,1.61-8.04,2.28-15.99-2.39-23.18,1.24-3.79,1.32-1.17,4.11-1.47,36-3.79,55.67-11.25,82-35.75,1-.93,1.71-1.18,3.05-1.32Z"/>
  <path class="uuid-f62c18a2-5eba-4231-9cd3-a6769d6f4573" d="M677.95,131.23c-1.21,1.15-.13,4.03.14,5.53.65,3.58,4.06,16.51,3.51,18.83-.38,1.61-4.83,6.92-6.04,9.14-2.32,4.25-4.44,8.72-5.93,13.35-1.22.88-3.85-2.97-4.52-3.78,1.52-.45,0-2.26-.37-3.03-6.83-14.13-12.45-30.39-10.95-46.45,1.41-15.14,7.44-8.6,15.11-2.29,3.09,2.54,6.36,5.72,9.06,8.7Z"/>
  <path class="uuid-31b86ebd-d53a-4b20-83b5-a3e9d51ed57f" d="M861.56,705.5c.54,4.03,1.79,8.21,3.02,12.09-21.28-2.96-40.79-9.86-59.44-20.27-11.22-6.26-21.93-14.28-30.86-23.54-3.82-3.97-8.74-9.45-10.95-14.37,13.38,15.98,46.24,30.75,66.33,36.81,8.95,2.7,21.29,3.9,29.25,7.02,1.33.52,1.86,1.16,2.64,2.27Z"/>
  <path class="uuid-31b86ebd-d53a-4b20-83b5-a3e9d51ed57f" d="M761.82,753.1c.17-8.27.14-16.67,0-24.94,1.25.78.76,2.87.77,4.15.06,5.54.07,11.11,0,16.65-.02,1.28.48,3.36-.77,4.15Z"/>
  <path class="uuid-7c832534-54df-4ac8-ac3a-5c8a96b155d0" d="M769.38,127.45c-3.68-.08-7.68-.19-11.33,0,2.95-1.28,8.54-1.26,11.33,0Z"/>
  <path class="uuid-7c832534-54df-4ac8-ac3a-5c8a96b155d0" d="M719.51,191.68c.06-2.25.07-4.98,1.51-6.8-.35,2.14.51,4.99-1.51,6.8Z"/>
  <path class="uuid-f62c18a2-5eba-4231-9cd3-a6769d6f4573" d="M844.18,195.46c.2-1.8.43-3.65,1.22-5.29,10.7-22.18,22.09-44.8,33.54-65.73,7.09-4.85,9.63-6.34,10.57,4.17,2.03,22.64-5.97,59.88-30.97,67.24-5.53,1.63-9.22,1.64-14.35-.38Z"/>
  <path class="uuid-127237ed-b689-4ba9-91d5-bf4a9d11e52e" d="M799.4,290.85c18.89-3.23,22.72,20.31,18.87,33.98-2.94,10.42-11.26,20.99-22.98,14.36-14.44-8.17-11.8-45.62,4.12-48.34Z"/>
  <path class="uuid-9ad5b40d-66b8-40eb-9e57-6718a9943427" d="M669.43,286.31c11.17-2.32,14.91,9.39,14.59,18.37-.32,9.05-3.64,25.98-15.54,25.33-18.81-1.02-13.36-40.73.95-43.7Z"/>
  <path class="uuid-127237ed-b689-4ba9-91d5-bf4a9d11e52e" d="M844.18,195.46c-.15-.06-1.81,1.71-2.27-1.14-.61-3.77,2.24-17.29,3.41-21.52,4.59-16.66,19.34-38.59,33.62-48.37,1.55.71.32,2.34-.1,3.3-2.67,6.13-7.03,12.55-10.12,18.6-8.32,16.31-15.45,33.22-24.54,49.13Z"/>
  <path class="uuid-127237ed-b689-4ba9-91d5-bf4a9d11e52e" d="M675.11,469.94c2.15-2.1,7.25.4,10.03.55,18.59,1.04,30.48-3,42.66-17.01,2.29-2.64,8.53-15.03,12.65-5.82,4.57,10.19-12.18,23.56-19.96,27.98-9.96,5.66-22.34,6.77-33.66,5.24-3.82-.52-16.72-6.09-11.73-10.95Z"/>
  <path class="uuid-127237ed-b689-4ba9-91d5-bf4a9d11e52e" d="M711.03,395.85c16.35-1.3,12.07,25.35,1.12,27.62-17.9,3.73-16.88-26.37-1.12-27.62Z"/>
  <path class="uuid-127237ed-b689-4ba9-91d5-bf4a9d11e52e" d="M627.9,392.82c12.82-1.76,17.62,27.32,4.28,29.27-14.62,2.14-18.62-27.3-4.28-29.27Z"/>
</svg>