<?xml version="1.0" encoding="UTF-8"?>
<svg id="uuid-23d1ca6c-e195-4ff6-be58-e97447e6dcfc" data-name="Layer 1" xmlns="http://www.w3.org/2000/svg" viewBox="0 0 1920 1080">
  <defs>
    <style>
      .uuid-29900b4a-d14f-419a-ab0d-6d1d43d7c8e4 {
        fill: #fefbee;
      }

      .uuid-9d4fd9f5-120e-446e-80e6-479e023ca02a {
        fill: #6e8426;
      }

      .uuid-8f3ae5b5-19da-4bd4-89db-71fa7567b9bd {
        fill: #af712a;
      }

      .uuid-fa580b7a-75f1-490f-8840-9569a3b3962b {
        fill: #4f5c1e;
      }

      .uuid-2aef53e0-7685-4b01-a137-18c9ea5aeed9 {
        fill: #b0712b;
      }

      .uuid-3cddc2de-8fb1-4b49-8b79-1831fb7cce29 {
        fill: #b97a31;
      }

      .uuid-142fc753-ea11-4add-969c-95dbc4a85cc7 {
        fill: #745017;
      }

      .uuid-7c2deced-9149-4379-8d9d-4f657bd037ab {
        fill: #515d1f;
      }

      .uuid-fd98b890-048a-4ba3-858b-92f07de74677 {
        fill: #e3ddd5;
      }

      .uuid-41dca9e9-5206-4e04-9298-30208bee4f38 {
        fill: #7b9538;
      }

      .uuid-cea2ff83-44d7-4cbd-83c5-eaa15bcadb0c {
        fill: #839d40;
      }

      .uuid-02233c2a-0b8c-4dde-8f36-24b165133472 {
        fill: #ba7b31;
      }

      .uuid-e1cfee4e-c2f5-4caf-827c-5ed9ac217977 {
        fill: #9bb856;
      }

      .uuid-3a0e2a95-2f54-42df-b1b4-207e297c6f1b {
        fill: #61541b;
      }

      .uuid-5d6ab9f0-7475-4058-91db-4c59bb1ad9bf {
        fill: #c68829;
      }

      .uuid-ba760b47-04ef-4d33-89f3-bda726b18064 {
        fill: #65521a;
      }

      .uuid-bd665720-d8ce-4caf-a083-9f3a4b3b037f {
        fill: #9db957;
      }

      .uuid-087c9682-de2f-4212-86ce-4afd66b82881 {
        fill: #c38939;
      }

      .uuid-5d49e38f-9189-4b3b-ac02-f7636698aff7 {
        fill: #9cb856;
      }

      .uuid-962eedb9-2648-48df-9aa2-a41f1d808428 {
        fill: #c7892b;
      }

      .uuid-3bb04c9b-df29-4a92-b61c-82507a2cd115 {
        fill: #6c8028;
      }

      .uuid-4c2d36d4-81c9-42bf-9742-ae23a7a90d39 {
        fill: #728c2a;
      }

      .uuid-709d3153-5ffd-40d2-aa7c-014c570a42bd {
        fill: #809b3e;
      }

      .uuid-f79a10df-8058-4237-8c99-9cf67f02478b {
        fill: #4e5c1f;
      }

      .uuid-78244219-91ad-4afe-816e-c1e5df68746c {
        fill: #4d5b1e;
      }
    </style>
  </defs>
  <path class="uuid-fd98b890-048a-4ba3-858b-92f07de74677" d="M1054.21,628.02l.47,1.22c-3.98,15,4.13,18.71,17.46,20.3,16.35,1.96,43.87.64,49.34-18.41l.94-.87.35.87c0-.67.34-.54.89-.48,7.84.99,27.6,6.94,33.24,12.28,3.76,3.56,4.27,7.13.58,11.01-9.65,10.15-41.9,15.74-55.85,17.95-42.1,6.66-86.3,8.13-128.88,8.29-41.51.16-84.73-1.19-125.93-6.74-15.71-2.12-59.09-9.01-69.58-20.25-7.41-7.94,5.05-13.72,11.11-16.14,10.73-4.28,22.3-5.98,33.64-7.92-.62,2.54-.51,5.27.01,7.83.16-.06.3-.37.37-.38.2-.28.44-.39.75-.29,2.27,7.36,11.47,8.92,18.26,9.68,15.69,1.76,39.78,3.99,44.47-15.41l1.01-.69c.96-2.79,1.86-5.62,2.72-8.51,8.68-.12,17.52-.41,26.37-.72,2.32-.2,4.34.08,6.06.85-.29,2.95-.58,5.87-.86,8.76.77.43.6,1.3-.53,2.63-6.89,7.99-11.57,21.65,1,27.07,12.74,5.49,40.01,5.59,51.75-2.2,4.3-2.85,5.74-7.69,6.68-12.53.37-3.4,1.03-6.7,1.96-9.89,4.84.14,9.69.35,14.55.65,13.78.73,29.98-.43,37.11-13.96l1.17-.7.63-.69,19.83,1.93c.45.21.9.46.87,1.02-1.17,1.42-1.82,2.91-1.94,4.45Z"/>
  <path class="uuid-fa580b7a-75f1-490f-8840-9569a3b3962b" d="M872.68,448.73l.79.4c.12,2.05,1.27,3.72,3.44,5,.16.33.11.65-.13.94l1.49.57c7.3,8.07,10.97,18.18,12.12,28.89l-.57,1.48c1.39,1.9,1.71,5.31.75,7.46l.58.89c.72,7.5,1.63,15,2.74,22.48l-.34,1.97.8.58c-.44,2.43.91,4.16,2.56,5.75,2.86,2.2,5.05,4.81,6.55,7.83l-.58.75-.82.18c-7.2-7.22-2.08.33.34,3.43.88,1.21,2.63,4.7.48,4.96.85,2.14-2.96,2-3.73,0-.86-.02-3.02-1.48-3.73-2.15-9.17-8.62-10.5-20.28-11.64-32.28l-1.46-18.29c-2.76-40.98-44.58-58.12-80.12-43.02-18.02,7.65-29.31,26.34-33.09,44.96-1.69,8.32-2.8,20.27,3.73,26.61,6.92.44,13.84.99,20.76,1.64,8.4.6,16.94.31,24.49-3.01,3.11-1.09,7.37-1.43,7.3,3.1s-9.94,7.23-13.73,7.72c-9.77,1.26-16.15.83-25.8.16-.87-.06,5.24,4.45,6.13,4.98,18.44,10.93,38.75,9.45,58.15,4.07,1.45-.15,3.04-.27,4.05,1.01.72.91,1.07,3.93-.13,4.51l-.46.89c-4.83,2.41-9.52,4.47-15.04,5.23-.42.38,5.45,7.83,6.49,9.1,18.98,23.17,48.69,27.61,77.23,28.49l.08-6.82c1.18-2.12,5.2-1.16,6.6.39s1.53,7.49,1.41,9.75c-.58,1.23-.67,2.7-.27,4.42.19.32.36.65.49.99s.24.67.25.99c.13,8.44.24,16.97-.41,25.39-.56,7.26-1.28,13.43-6.32,18.6-2.18,3.23-4.34,7.68-2.42,11.47.46-2.76,5.9-13.67,8.91-13.07.66.13,1.03.68,1.35,1.2,7.41-1.86,1.86,5.05-.43,7.28-1.18,1.13-3.35,7.37-2.38,8.45.32.35,8.22,1.36,9.3,1.19-.08-3.07,4.94-13.19,7.48-13.95.38-.11,3.77.13,4.15.37,3.26,2.11.56,5.32-1.48,7.19-.69.53-2.59,6.71-2.25,6.84,2.22.86,11.37-1.24,14.18-1.91,7.34-1.73,11.51-4.87,12.7-12.42,1.86-11.81,2.13-23.82,2.23-35.82l.47-1.26c-1.05-4.84-1.48-9.79-1.28-14.86-16.03-1.18-33.24-7.03-45.64-17.59-6.77-5.77-12.69-14.71-17.32-22.3l-.25-1.53c-.41-.67-.56-1.41-.45-2.22l-3.62-5.34c-.34-.59-.28-.98.34-1.38.75-.39,1.43-.07,2.03.96,2.83,4.57,5.76,9.24,9.21,13.47,2.32,2.84,5.2,5.39,8.51,6.79.18-.62.55-.86,1.13-.72l1.35.46c2.83,3.28,6.16,6.07,9.7,8.56,11.46,8.06,20.99,9.91,34.55,12.39.3.06.59.2.88.36.3.17.58.38.86.6-.39.83-1.3,1.33-2.74,1.52,2.01.73,4.29.93,6.83.6.91,1.8,2.1,3.45,3.55,4.93l-.56.78c.48.58.59,1.44.35,2.58l.44,10.64-.44.85c24.92-.69,49.94-3.17,73.71-11.18-.63-.82-.92-3.62.13-4.38-.18-.89-.23-1.78-.15-2.68,1.66.29,3.28-.19,4.87-1.45l.87.41c1.34,1.19,3.41,8.01,2.97,9.33-.08.26-.22.5-.36.73.14.52.31.9.93.93.88,5.25,1.76,10.56,2.05,15.9.43,7.92-1.2,10.18-5.69,16.36-2.29,5.52-1.72,5.13,1.71-1.17,1.88-4.01,8.66-3.64,8.48.89-2.25,1.71-8.24,10.39-5.28,12.78.66.53,8.78,1.52,9.04,1-.27-2.96,3.99-12.17,6.33-13.49,2.6-1.47,7.98-.78,6.29,3.07-1.78,1.4-5.46,8.89-4.77,10.6.17.42,8-.41,9.04-.57,8.07-1.22,20.29-4.44,21.37-14.15,1.66-14.96-1.43-30.82-4.72-45.38l.34-1.68c-1.55-1.3-2.5-5.18-1.86-7.08-.04-1.5,1.95-.15.37.37.67-.03,1.13.46,1.36,1.45,2.77-.45,4.88-.87,6.62-3.25,1.93-1.28,4.6.18,2.54,2.08l.3.46c-.69.36-2.59.72-2.65,1.67,2,10.12,4.39,20.26,5.26,30.57.56,6.72,1.2,16.79,0,23.3-3.97,21.63-38.53,22.44-55.25,19.28-13.45-2.54-16.16-8.75-12.96-21.52-.18-.47-.02-.92.16-1.36,1.13-2.85,2.65-5.11,4.48-7.69,1.27-2.24,1.25-4.68,1.05-7.18-.1-1.18-1.15-9.59-1.54-9.9-6.16,2.37-12.55,4.15-18.98,5.55.05.26.02.51-.02.77-.45,2.58-2.18,10.52-3.38,12.35-.26.39-.71.59-1.14.75-4.86,10.44-15.29,14.64-26.26,15.3-8.51.51-17.8-.08-26.28-.75-1.25,6.68-1.53,16.69-7.09,21.43-10.92,9.31-44.87,9.42-56.68,1.87-7.3-4.67-6.33-13.82-2.74-20.65.98-1.87,5.22-6.86,5.36-8.25.2-2.69.48-5.39.86-8.12l-.45-.61c.59-3.14.8-6.3.66-9.48-9.67-.94-20.85-2.52-30.43-6.26-.15,5.04-.82,10.91-2.07,15.86-.08.32-.34.6-.65.86-.52,2.57-1.26,5.03-2.21,7.39-3.06,9.62-5.91,13.26-15.74,16.13s-20.71,2.17-30.61.59c-5.33-.85-13.55-2.04-16.57-6.91-.34-.55-1.32-3.12-1.56-3.1-.78-4.46.1-9.06,1.92-13.18.93-2.12,2.33-3.66,3.37-5.58,2.79-5.17,3.2-12.71,4.53-18.59,2.57-11.37,5.66-22.6,9.52-33.59l-11.87-16.11c-18.32.59-39.41-4.35-52.2-18.25-.68-.74-3.18-4.44-3.43-4.58-1.81-1-4.08-.59-6.8-2.71-14.6-11.39-4.31-45.41,3.34-58.89,17.26-30.41,55.4-40.1,86.81-26.03,2.23,1,14.58,8.08,15.15,9.64Z"/>
  <path class="uuid-142fc753-ea11-4add-969c-95dbc4a85cc7" d="M1119.07,528.5c2.73.43,5.07,1.48,7.02,3.16l-1.06,1.85c1.99,4.22-.82,6.04-4.22,3l-1-.18c-.46.48-1.34.64-2.63.49-16.68,11.22-38.26,17.73-58.39,21.84-28.69,5.85-60.96,7.83-89.84,2.77-21.81-3.82-30.19-18.21-39.75-36.21-8.05-14.89-20.63-26.12-37.31-30.59l-1.34-1.17c-.24-2.4-.45-5.02-.75-7.46.51-.39,1.26-.56,2.24-.49,8.64-13.25,18.96-25.28,29.53-37.01l.15-.73c-5.36-5.96-11.12-11.6-17.3-16.92-9.42,5.81-17.76,14.68-25.6,23.08-.62.51-1.31.89-2.08,1.13-1.53-1.71-2.79-1.64-3.93-4.47-.27-.67-.05-1.52-.17-1.87,22.72-26.57,53.9-44.16,88.95-48.04,72.19-7.98,131.55,38.32,151.58,105.9,2.67,6.87,3.44,15.12,5.87,21.9Z"/>
  <path class="uuid-3a0e2a95-2f54-42df-b1b4-207e297c6f1b" d="M1129.51,534.46c.92.22,1.53.64,1.83,1.26,1.93,4.73,1.39,9.81.78,14.77,1.05,1.56-.93,5.09-2.61,5.96l.11,1.22c-2.33,2.94-4.98,5.52-7.94,7.72l.02.93c-3.41,3.87-6.78,7.2-12.04,8.27l-.65-.63c-.07-.16.05-.51,0-.74l-.37.37c-1.13-.27-2.47-.21-4.02.17l-7.36,2.87c-11.05,2.79-22.03,5.82-32.94,9.07l-1.53-.18c-1.7.72-4.23,2.92-5.59,1.49v2.24c-.71-.12-1.22-.82-1.54-2.11-22.43,3.23-46.52,6.65-69.31,4.58-1.16-.11-2.27-.54-3.34-.98.08-.88-1.88-2.35-2.55-3.23-.35-.45-.73-1.84-.87-1.93-.63-.39-3.36.34-4.54.27-1.54-.08-2.56-1.07-3.97-1.64,1.52-.26,3.37-1.11,4.84-1.3-.08-1.39,3.26-1.06,2.61.37l-.24.62c.1.26,3.86-.12,4.34-.24,1.33-.3,2.68-.56,4.05-.55,19.27.12,36.82.03,56.03-2.67,17.97-2.53,36.08-6.76,52.9-12.6,7.41-2.58,16.08-5.69,22.36-10.35,6.19-4.59,10.6-15.59,2.19-20.16l-.35-1s.21-.36.73-.22c1.22.32,2.61,2.3,4.03.88,1.25-1.25-.33-2.45-.29-3.42s1.23-1.76,1.13-2.25c-.17-.78-5.07-2.48-6.1-2.12-.88-.36-.21-.65-.23-.7,2.68.04,5.8,1.44,7.83,3.16.37.32,2.56,2.61,2.61,2.8Z"/>
  <path class="uuid-7c2deced-9149-4379-8d9d-4f657bd037ab" d="M1119.81,574.72l-2.61.37c-.41-1.88.99-.7,1.87-1.29,1.15-.77.22-1.88-1.49-1.12-.72.32-1.47,1.76-2.53,2.31-.66.34-5.1,1.41-5.3,1.22-.09-.08-.51-1.66-.75-2.24,2.22-.38,5.57-1.88,7.36-3.26s3.46-3.95,5.31-5.31c4.86-4.51,10.92-8.03,16.77-11.18-.16-.32-.23-.72.02-.94,5.16-4.55,10.32-9.98,11.84-16.9l-16.69,5.4c.08,2.67.01,5.36-.56,7.98l-.95.74.33-7.97c-.65-1.37-1.29-6.49-2.22-7.11-.35-.23-.99-.13-1.1-.21-.09-.07.39-.66.37-.73,2.01-.17,3.96-.81,5.88-1.39,4.48-1.35,11.7-4.86,15.64-5.6,9.3-1.75,8.14,9.14,5.87,14.81-6.14,15.35-23.21,25.17-37.08,32.44Z"/>
  <path class="uuid-29900b4a-d14f-419a-ab0d-6d1d43d7c8e4" d="M921.14,630.26s-.43-.37-.35-.86c.2-1.21,1.26-6.42,1.07-7.1-.17-.6-.76-.57-1.26-.62-6.33-.73-15.14.18-21.62.41-2.03.07-7.9-.44-9.29.03-.87.3-1.76,6.75-2.43,8.02l-.42-.24c2.51-7.9,3.47-16.43,4.66-24.61,10.12,3.15,20.58,5.13,31.14,6.13.73.5.2,3.84.34,4.87l-1.86,13.98Z"/>
  <path class="uuid-29900b4a-d14f-419a-ab0d-6d1d43d7c8e4" d="M1034.83,621.31c2.04-4.39,2.79-9.72,4.09-14.36,6.79-1.85,13.64-3.41,20.14-6.14.07,5.94,3.49,13.05.45,18.52-1.54,2.77-4.52,5.33-5.29,8.69.01-.05-.45-.26-.23-1.1.17-.64,1.72-3,1.71-3.19l-.62-.49-20.25-1.93Z"/>
  <path class="uuid-5d49e38f-9189-4b3b-ac02-f7636698aff7" d="M899.14,542.29c2.5,2.27,3.08,7.27,3.46,10.63,1.88,16.27-2.91,30.63-21.89,20.8-6.78-3.51-12.24-8.36-17.24-14.04-1.85-2.1-9.89-14.62-9.98-16.56-.01-.34.27-.62.53-.84-.26-1.28.51-3.5-.9-4.5-2.06-1.46-11.74,1.96-14.67,2.53-17.39,3.36-38.14.91-52.07-10.71l-2.8-2.97c9.76,1.57,21.38,1.94,31.01-.48,3.22-.81,10.28-2.66,10.02-6.79-.35-5.51-9.17-.55-11.88.08-12.9,2.98-27.09-.09-40.14-.64-5.1-3.67-5.77-12.57-5.41-18.44,1.36-22.08,14.29-46.3,35.41-54.79,28.88-11.61,62.04-4.05,76.1,25.28,8.86,18.48.76,54.49,16.88,68.48,1.15,1,2.79,1.33,3.56,2.97Z"/>
  <path class="uuid-087c9682-de2f-4212-86ce-4afd66b82881" d="M1119.81,536.32c8.77,3.96,6.23,14.1.71,19.9-6.49,6.82-27.11,13.3-36.49,16.07-32.77,9.65-67.28,13.25-101.39,11.37-1.77.58-3.13.46-4.1-.37-.43-.57-1.9-.47-2.61-.37-8.57-.97-16.79-2.59-24.74-6.02-8.03-3.47-17.12-9.51-22.6-16.35l-.9-.34c-5.32-7.36-10.1-15.14-14.36-23.34-4.25-6.76-10.94-16.01-19.19-17.34l-.59-.73c-1.94-8.56-2.12-16.56-2.98-25.35,10.65,3.03,20.75,8,28.34,16.2,18.89,20.43,18.15,45.48,50.97,51.17,41.64,7.22,103.46-.43,140.87-20.72,1.3-.7,5.71-3.92,6.37-4.08,1.12-.28,1.74.15,2.7.29Z"/>
  <path class="uuid-e1cfee4e-c2f5-4caf-827c-5ed9ac217977" d="M930.08,593.73c-.08-.67-.49-4.3.03-4.4s1.06.47.99,1c15.38-.32,28.19,6.39,41.16,13.2,1.57.26,2.8.84,3.66,1.76.23,10.41.16,21.51-1.17,31.82-1.46,11.39-2.54,15.05-14.04,18.39-4.96,1.44-10.2,2.03-15.36,1.96.8-2.78.85-5.27,2.45-7.8,1.05-1.67,3.76-3.1,2.86-5.15-1.06-2.43-2.68-.91-4.68-1.53-1.36.3-8.13,11.7-6.59,14.11-.4.39-9.81-1.08-11-1.47-.54-3.44.6-6.62,2.5-9.46.83-1.24,4.85-4.94,4-6.18-1.29-1.21-3.16.42-3.31.33-.09-.05-.6-1.64-1.3-1.51-2.55.39-8.49,11.16-8.04,14.19-3.48-2.99-1.95-8.27,0-11.75,2.63-4.72,5-5.01,6.23-11.29,2.28-11.66,1.51-24.37,1.61-36.23Z"/>
  <path class="uuid-e1cfee4e-c2f5-4caf-827c-5ed9ac217977" d="M1110.5,580.68c3.54,13.56,6.63,32.82,5.17,46.74-1.41,13.48-21.34,15.88-32.01,15.89.2-3.91,1.36-6.63,3.34-9.88.42-.69,1.71-1.92,1.82-2.31.8-2.82-4.77-2.75-6.09-1.21-.89,1.04-4.07,6.77-4.56,8.11-.57,1.56-.82,3.63-.86,5.3-.35.36-9.57-1-10.05-1.32-1.52-1.03-.94-5.15-.41-6.71.8-2.34,5.48-6.97,5.52-7.43.03-.32-.69-1.32-1.03-1.49-.15-.07-2.67-.94-2.82-.95-2.85-.27-7.9,9.02-7.24,11.94-1.66-1.68-.38-6.14.47-8.3,1.51-3.85,5.32-6.3,5.83-10.57.66-5.55-1.12-17.1-2.2-22.88,14.15-5.22,29.53-10.58,43.98-13.93.02-.83.18-1.26,1.12-.98Z"/>
  <path class="uuid-cea2ff83-44d7-4cbd-83c5-eaa15bcadb0c" d="M854.04,542.29c.56,2.77,7.23,13.26,9.24,15.92,5.54,7.35,17.78,17.03,27.15,17.96,15.35,1.51,12.78-25.2,8.72-33.88.76.44,1.51.83,2.43.78,1.1-.05,1.21-.75,1.29-.78.13-.29.44-.67.61-.57,2.81,1.62,5.32,3.64,7.65,5.86l.31,1.42c4.73,5.87,7.97,12.99,13.6,19.02,12.65,13.52,32.04,20.05,50.1,22.02.4,5.06.67,10.17.78,15.25-6.25-1.04-11.43-5.12-17.01-7.78-8.92-4.26-18.58-6.35-28.47-6.38l-.18-1.5c-.33,0-.18,3.51-.19,4.1-.97-3.81,0-9.39-1.29-13.06-.51-1.46-4.6-2.91-5.81-1.22l.02,7.2c-7.54-.09-15.37-.6-22.87-1.54-16.56-2.07-35.67-7.97-48.33-19.14-5.85-5.16-10.07-11.84-14.9-17.9,3.4-.97,7.05-1.34,10.36-2.68,2.31-.94,4.28-2.55,6.79-3.09Z"/>
  <path class="uuid-41dca9e9-5206-4e04-9298-30208bee4f38" d="M880.5,625.41c-1.07,3.85-2.44,9.73-6.25,11.83-2.07,1.14-9.23,3.45-11.46,3.45h-11c.46-1.55,1.12-3.19,1.94-4.58,1.29-2.18,6.39-6.16,2.62-7.99-.27-.13-2.71-.84-2.9-.83-1.56.07-3.92,5-4.77,6.2-.22.31-.9.45-1.2.84-1.25,1.62-1.76,3.58-1.66,5.62l-11.56-1.87c.49-5.57,5.33-8.63,7.08-13.41-4.32-2.1-7.08.26-9.56,3.67l-1.99,4.53c-1.1-6.65,4.45-10.83,6.15-16.4s2.38-12.71,3.72-18.65c1.13-5,2.47-9.99,3.92-14.91l.86-.37c14.77,8.04,26.75,19.7,34.41,34.94.78,2.6,1.27,5.34,1.63,7.93Z"/>
  <path class="uuid-3cddc2de-8fb1-4b49-8b79-1831fb7cce29" d="M889.82,486c-1.55-12.83-4.34-21.2-13.05-30.94,6.62-7.09,13.42-14.49,21.07-20.49.93-.73,5.73-4.34,6.41-4.44.36-.05.51-.02.83.13.25.11,3.51,3.18,4.12,3.73,4.65,4.27,8.88,9.07,13.36,13.51l-.3,1.43c-10.66,11.69-20.96,23.8-29.66,37.07-.77.77-1.87.24-2.79,0Z"/>
  <path class="uuid-962eedb9-2648-48df-9aa2-a41f1d808428" d="M983.01,590.75c18.61,1.47,37.54.34,56.05-1.91,5.93-.72,11.84-1.9,17.75-2.56-.35,1.11.27,2.22.37,2.98.19,1.45.12,3.28.33,4.8-23.78,8.41-49.37,11.07-74.51,11.23.23-4.45-.45-8.84-.4-13.28,0-.7.39-1.13.4-1.26Z"/>
  <path class="uuid-3bb04c9b-df29-4a92-b61c-82507a2cd115" d="M983.01,612.37c.83.01,1.57.36,2.41.39,4.69.16,10.22-.11,14.92-.39,10.11-.62,20.25-1.95,30.2-3.73.65-.07.58-.02.57.57-.04,3.47-2.1,9.05-4.18,11.86-7.24,9.77-24.9,8.47-35.72,8.08-.52-.52,1.4-4.66,1.86-5.41,1.38-2.22,5.38-4.05,1.7-6.16-2.21-1.27-3.72.97-5.24,2.27-.34.29-1,.25-1.2.46-.21.22-2.26,4.93-2.45,5.57-.72,2.51.75,2.8-2.87,2.54v-16.03Z"/>
  <path class="uuid-4c2d36d4-81c9-42bf-9742-ae23a7a90d39" d="M843.6,582.92c1.14-3.88,2.23-7.87,3.91-11.55,2.63,2.21,5.27,4.49,8.12,6.42,1.25.85,4.76,2.36,5.48,3.09.59.59,2.09,4.8,3.06,6.26,2.69,4.05,10.4,9.49,14.84,11.44,1.02.47,2.01.97,2.98,1.49,1.2.44,2.26.09,2.59,2.07.4,2.47-1.08,9.67-1.58,12.54-.64,3.64-1.51,7.2-2.49,10.74.05-1.1-1.2-2.08-1.4-2.88-.43-1.67.14-2.75-.89-4.7-7.47-14.1-17.37-25.31-31.33-32.78-1.06-.57-2.15-1.57-3.27-2.13Z"/>
  <path class="uuid-cea2ff83-44d7-4cbd-83c5-eaa15bcadb0c" d="M1108.63,573.6c.67,2.16,1.28,4.84,1.86,7.08-.57.31-.14,1.18-.6,1.53-.91.69-5.82,1.38-7.39,1.85-9.38,2.78-19.01,5.74-28.26,9.01-2.52.89-5.15,2.26-7.73,3.11-.9.29-.67.04-1.12-.59-.62-3.35-1.81-6.74-2.61-10.06,9.26-3.94,22.95-6,33.09-9.21,2.82-.89,5.55-2.28,8.34-3.21,1.14-.38,3.25.08,3.3-1.37.57.19.95,1.33,1.11,1.86Z"/>
  <path class="uuid-5d6ab9f0-7475-4058-91db-4c59bb1ad9bf" d="M923,604.17c-18.2-1.77-38.11-6.79-51.81-19.38,6.14,2.85,12.66,4.6,19.31,5.84,8.76,1.63,18.54,2.45,27.47,3.1.89.06,5.03-.32,5.03.56v9.88Z"/>
  <path class="uuid-ba760b47-04ef-4d33-89f3-bda726b18064" d="M928.59,560.55c-.34.77-.44,1.67-1.6,1.45-3.44-1.91-6.22-3.9-8.63-7.06-1.93-2.53-4.2-5.77-6.11-8.43-1.52-2.11-2.41-4.91-4.54-6.46l-.9.02-4.2-5.48.26-.87c-.88-4.68-8.33-7.97-9.23-12.2-.2-.93.08-1.99-.08-2.71,5.39-.34,11.17,5.61,14.53,9.52,8.44,9.8,12.71,22.5,20.51,32.23Z"/>
  <path class="uuid-9d4fd9f5-120e-446e-80e6-479e023ca02a" d="M902.87,533.72c1.35,1.69,3.66,4.62,4.85,6.34.13.18.14.81.43,1.23.62.91,3.46,4.77,3.61,5.39.19.81-.31,1.54-.31,2.32-.89-1.1-3.81-3.54-5.03-4.47-.5-.38-3.32-2.32-3.54-2.24,1.21-2.64-2.25-5.77-3.65-8.09-.44-.73-2.31-3.86-2.31-4.4,2.19-.18,4.65,2.26,5.97,3.91Z"/>
  <path class="uuid-41dca9e9-5206-4e04-9298-30208bee4f38" d="M882,600.07c-.98-.36-2.45-.54-2.98-1.49.95.42,2.46.32,2.98,1.49Z"/>
  <path class="uuid-3cddc2de-8fb1-4b49-8b79-1831fb7cce29" d="M1005.83,555.25c-3.71-4.35-6.84-9.2-10.36-13.68-6.06-7.71-12.65-15.05-18.33-23.05-.09-4.82.97-9.65,1.4-14.45,1.24-13.85,2.13-27.74,3.73-41.56l51.46-7.25c7.9,8.87,13.96,18.81,19.56,29.23,3.32,6.19,11.15,20.15,12.31,26.46.55,2.98-2.37,12.26-3.29,15.75-2.17,8.21-4.61,16.42-7.73,24.32-15.97,3.26-32.42,4.63-48.74,4.22Z"/>
  <path class="uuid-02233c2a-0b8c-4dde-8f36-24b165133472" d="M1044.89,426c-1.74,3-3.9,5.69-5.65,8.69-2.54,4.35-4.53,9.09-7.03,13.47-8.27,1.83-16.73,2.41-25.11,3.59-14.22,2.01-24.12,4.91-38.7,2.09-10.05-1.95-21.11-4.6-30.94-7.45-2.12-.62-5.84-1.45-7.64-2.43-2.35-1.28-7.43-7.35-9.8-9.59s-6.77-5.26-8.78-7.62c-.23-.27-.65-.5-.55-.94.21-.92,13.52-7.28,15.41-8.09,28.11-12.05,60.8-13.82,90-4.51,10.03,3.2,19.57,7.77,28.79,12.78Z"/>
  <path class="uuid-02233c2a-0b8c-4dde-8f36-24b165133472" d="M975.15,462.55c-.61,7.77-1.79,15.51-2.57,23.26-.94,9.44-1.32,19.34-2.62,28.7-.13.96-.31,2.64-.65,3.45-.57,1.36-7.01,5.14-8.7,6.21-5.42,3.47-11.07,6.6-16.62,9.87l-.82-.57c-9.45-18.82-22.22-37.47-43.29-44.13,1.64-4.36,4.71-8.04,7.47-11.72,6.77-9.03,14.43-17.39,21.86-25.86l45.92,10.79Z"/>
  <path class="uuid-3cddc2de-8fb1-4b49-8b79-1831fb7cce29" d="M1071.73,507.62c-7.67-20.44-18.57-39.73-32.01-56.93-.18-.44,0-.81.11-1.22.45-1.62,2.93-5.96,3.87-7.7,2.19-4.05,4.75-7.92,7.36-11.7,11.44,7.41,20.91,17.48,29.22,28.18,5.68,7.32,11.56,15.68,15.36,24.15.82,1.83,3.05,6.66,3.23,8.36.05.43.1.73-.32,1.01-8.61,5.84-17.11,11.95-26.84,15.85Z"/>
  <path class="uuid-2aef53e0-7685-4b01-a137-18c9ea5aeed9" d="M1063.16,549.37l9.88-34.66c10.37-4.14,20.14-10.03,28.7-17.14,5.15,10.4,7.39,21.95,10.09,33.17-14.89,8.68-31.72,15.22-48.67,18.64Z"/>
  <path class="uuid-8f3ae5b5-19da-4bd4-89db-71fa7567b9bd" d="M973.31,524.77l23.12,30.56c-17.11-.27-37.12-.27-48.83-14.73l25.71-15.84Z"/>
  <path class="uuid-bd665720-d8ce-4caf-a083-9f3a4b3b037f" d="M1132.12,550.49c.86-3.17.8-6.02.78-9.28l18.6-6c-1.34,6.72-6.26,13.12-11.18,17.71-.57.53-1.32.84-1.87,1.3-2.64,1.19-5.39,2.12-8.24,2.81l-.71-.57c.97-1.64,2.11-4.13,2.61-5.96Z"/>
  <path class="uuid-709d3153-5ffd-40d2-aa7c-014c570a42bd" d="M1138.45,554.22c-5.76,4.88-11.31,7.14-16.77,11.18-.75-.16.4-.98.57-1.11,2.73-2.17,5.48-4.84,7.26-7.84l6.79-1.97,2.15-.27Z"/>
  <path class="uuid-fa580b7a-75f1-490f-8840-9569a3b3962b" d="M978.54,583.29c1.36.1,2.69.29,4.1.37-2.42.96-4.06,1.6-6.33,0,.03-.65,1.78-.4,2.23-.37Z"/>
  <path class="uuid-f79a10df-8058-4237-8c99-9cf67f02478b" d="M833.79,497.06c-2.79,2.8-6.55,1.98-9.37-.26-8.65-6.85-1.64-26.41,9.38-19.07,5.66,3.77,4.31,15-.01,19.33Z"/>
  <path class="uuid-78244219-91ad-4afe-816e-c1e5df68746c" d="M780.51,495.77c4.81-.95,4.81,6.26-1.59,5.52-4.75-.55-1.64-4.89,1.59-5.52Z"/>
</svg>