<?xml version="1.0" encoding="UTF-8"?>
<svg id="uuid-9e557883-d4ea-4c97-8c18-0932734cb06a" data-name="Layer 1" xmlns="http://www.w3.org/2000/svg" viewBox="0 0 1920 1080">
  <defs>
    <style>
      .uuid-26dac9f8-0364-4286-a76f-33223df5b2cf {
        fill: #ad6520;
      }

      .uuid-c9a25aff-4b49-4af8-9101-f01524bf5f5b {
        fill: #71480c;
      }

      .uuid-1a0f7f58-661b-45e8-a1df-be2f1e452cfb {
        fill: #60311a;
      }

      .uuid-f3d87379-4eaf-4cd3-bda0-af9d5f3f3498 {
        fill: #f9ab33;
      }

      .uuid-7f38b6d8-97aa-4c29-a600-b346f8ec9343 {
        fill: #fcbc50;
      }

      .uuid-fc4fe413-26fd-46ca-98f2-d5bfeb0e097f {
        fill: #dc8918;
      }

      .uuid-b885726a-ff5d-444f-8a30-78f3312f9e5a {
        fill: #f2a32a;
      }

      .uuid-b304cc17-fac9-4d1a-88ae-d758cf82a9c9 {
        fill: #f3a32a;
      }

      .uuid-589f7751-5273-4407-a2d3-0ad155fa9c06 {
        fill: #70480c;
      }

      .uuid-f28f1f9d-18f2-4401-891e-a58f98cae35a {
        fill: #9b5815;
      }

      .uuid-c5f0c0d0-e418-47a2-8d42-f8c61a588062 {
        fill: #70490c;
      }

      .uuid-ce321d75-baa4-48db-b053-37b472ef931d {
        fill: #d47e0d;
      }

      .uuid-c5d4e785-acc2-48c8-87e2-8d918f7a333d {
        fill: #d88718;
      }

      .uuid-ebbfdd4d-7b39-47bc-a9f8-950c0bd2f7be {
        fill: #9b5714;
      }

      .uuid-b606dd29-3d99-497c-a78a-54c0b5d2861b {
        fill: #d78719;
      }

      .uuid-069666f6-d12d-40bc-bf95-0da3c2b9f78d {
        fill: #fefefe;
      }

      .uuid-31f42ed7-5ebf-43e5-ae53-722451cc5b8f {
        fill: #d57e0c;
      }

      .uuid-8dd4e4af-5cd8-4d83-9edf-dbe868064fff {
        fill: #71490c;
      }

      .uuid-731d57b9-0abe-4ae9-8560-a933b86a5375 {
        fill: #e9e1d9;
      }
    </style>
  </defs>
  <path class="uuid-c9a25aff-4b49-4af8-9101-f01524bf5f5b" d="M538.64,884.08c-4.41-27.02,8.22-54.05,32.08-67.4,9.69-5.42,20.39-7.47,30.01-11.87,11.39-5.2,19.96-18.9,27.21-28.95,1.88-2.61,19.53-27.71,18.26-28.85-15.2,1.89-32.36-1.57-46.62-7.16-26.76-10.49-46.75-33.4-53.45-61.25-47.18,5.14-88.56-22.69-101.98-67.93-6.58-22.18-3.4-42.9,2.22-64.83-60.11-29.56-64.18-111.61-19.12-156.26-41.84-41.93-28.08-108.42,18.76-140.23,3.33-2.26,20.16-10.57,20.77-11.59,1.81-2.99-2-24.42-2.03-29.84-.15-28.27,14.52-57.38,36.32-74.86,27.33-21.91,58.73-28.38,92.81-19.45,23.1-65.03,115.67-76.53,161.32-29.13,2.09,2.17,6.09,9.11,8.75,9.36,1.53.14,23.17-9.7,28.41-11.18,29.7-8.4,59.97-7.52,86.6,9.42,20.78,13.22,31.61,34.66,38.49,57.65,3.88,1.13,8,.01,11.92.45,28.55,3.23,57.5,19.66,73.6,43.48,17.06,25.23,19.35,60.9,6.12,88.38,23.95,13.67,44.1,34.96,52.18,61.79,3.7,12.3,3.8,24.94,4.71,37.65,8.07.73,16.24-.63,24.17-.86,52.06-1.55,105.33-3.72,155.28,14.16,46.61,16.69,88.71,50.48,112.32,94.24,1.47,2.72,7.71,17.76,8.66,18.05,5.24,1.59,18.94-14.74,21.46-19.3,22.08-40.04-9.59-67.19-25.41-100.56-9.47-19.98-12.76-41.26-11.86-63.31.09-2.25,1.75-6.07,1.51-7.68-.12-.75-3.45-3.93-4.39-5.66-17.47-32.17-7.42-74.76,15.7-101.4,26.8-30.86,66.64-41.44,106.63-37.11,14.89,1.61,15.88,14.35,7.62,24.76-8.85,11.16-14.88,11.83-19.25,28.35-10.19,38.49,1.04,75.04-40.91,99.97-2.78,1.65-9.55,2.9-9.74,6.3-.3,5.43,6.02,22.04,8.63,27.54,7.09,14.95,19.44,28.19,27.63,42.81,36.92,65.85,20.14,135.79-49.96,167.39-2.87,1.29-9.89,2.16-10.22,5.08-.4,3.57,2.5,15.15,2.9,19.98,2.33,27.81-.69,56.77,10.31,82.98,4.62,11.02,12.07,20.66,17.19,31.35,11.84,24.71,15.62,51.29,17.25,78.41.57,19.25.7,38.8,0,58.06-.75,9.94-2.02,23.81-4.76,33.32.53,1.04,1.13,2.24.92,3.44-3.07,17.67-24.42,36.79-40.31,43.63-28.55,12.27-97.95,12.78-122.25-7.67-22.5-18.93-14.11-42.7-2.74-65.03l2.56-1.02c6.69-11.17,16.81-19.99,30.36-26.46,22.23-16.36,10.52-41.66-13.48-47.17l-20.28-11.26c-8.47,25.02-18,50.07-28.6,75.14l-2.27,2.13.69,3.25c-8.44,19.99-19.02,41.32-39.4,51.33-20.71,10.18-62.35,9.57-85.54,8.21-38.96-2.29-64.74-13.42-54.45-58.02.75-3.25,2.68-10.87,4.56-13.12.68-.8,1.81-1.01,2.79-1.17l-.43-2.99c8.07-11.36,19.01-19.76,32.82-25.21,21.9-11.28,33.21-38.67,9.53-54.71-20.2,4.78-41.08,7.74-62.66,8.87-2.24,21.17-6.03,42.58-11.47,63.23-.37,1.4-1,2.73-1.66,4.06s-1.47,2.62-2.3,3.89c-.35,1.31.05,2.44,1.08,3.41-12.55,47.08-29.16,99-82.51,110.93-28.77,6.43-81.2,8.59-109.34-.15-33.38-10.36-36.09-46-21.2-73.08,9.22-16.76,22.26-24.31,38.44-33.53l3.15.03c.96-2.87,2.67-5.46,5.15-7.77,12-18.84,16.89-42.75,20.85-65.1l1.4-3.27c-19.92-.14-40.86-5.78-59.58-12.64-13.92,30.85-34.32,59.6-54.79,86.61-.65.85-1.52,1.54-2.43,2.22s-1.92,1.29-2.94,1.85c-.15.93-.33,1.84-.63,2.71s-.6,1.68-1.12,2.3c-22.84,26.75-49.35,55-83.41,66.22-24.75,8.16-57.5,7.43-83.24,4.67-19.23-2.07-37.64-5.58-49.63-22.14-1.69-2.33-5.28-8.58-3.76-10.93Z"/>
  <path class="uuid-731d57b9-0abe-4ae9-8560-a933b86a5375" d="M1023.14,831.72c10.41-1.2,23.94-.72,34.93.86l1.24,2c-6.81,11.81-8.7,29.82-6.6,43.25,1.54,9.84,14.44,19.39,23.23,22.46,20.69,7.23,71.73,5.69,94.26,2.82,35.17-4.49,48.14-29.7,60.45-59.01l1.32-1.75,33.94,3.56c2.61.69,2.28,2.63-.99,5.81-9.74,21.49-21.32,41.45-.98,62.37,20.74,21.33,78.63,19.65,106.05,14.62,27.08-4.98,49.01-23.52,56.75-50.34,1.62-1.21,2.96-.93,4.78-.56,13.48,2.71,44.22,13.91,54.69,22.47,18.52,15.15,10.81,28.96-6.83,39.77-33.44,20.49-102.41,32.65-141.88,38.97-188.75,30.25-394.09,29.69-584.22,13.58-78.07-6.62-184.58-14.6-256.21-45.54-15.71-6.79-42.71-20.38-28.71-41.41,11.66-17.5,48.25-24.02,66.94-31.11,2.05-.22,1.21.18,1.41,1.44.45,2.78.38,6.18.99,9.06.43-.13.79-.95.93-.96.64-.07,4.7,9.3,6.27,11.34,14.57,18.98,43.73,19.89,65.64,20.98,34.38,1.72,63.84.04,93.07-20.13,21.88-15.1,39.8-34.86,56.81-55.03,4.97-2.66,10.51-3.09,16.05-3.3l73.11-3.15c6.13.2,6.15,1.05,3.18,4.54-8.07,6.29-17.91,9.95-25.71,16.65-27.85,23.89-35.12,78.07,8.34,88.78,29.76,7.34,95.71,6.7,123.69-6.25,39.25-18.17,54.01-68.09,64.07-106.79Z"/>
  <path class="uuid-1a0f7f58-661b-45e8-a1df-be2f1e452cfb" d="M1431.5,845.05v-58.06c1.13,18.86,1.4,39.43,0,58.06Z"/>
  <path class="uuid-b304cc17-fac9-4d1a-88ae-d758cf82a9c9" d="M887.98,713.69c38.04-3.26,73.51-38.88,84.25-74.24,3.81-12.53,3.31-23.32,3.73-36.25,32.44-5.07,63.7-29.97,73.56-61.6,10.51-33.7,3.8-68.46-15.02-97.72,12.46-10.37,21.15-25.79,25.87-41.34,9.27.99,18.65,1.06,28.01.88,26.73-.52,52.96-3.91,79.91-1.93,102.99,7.56,174.35,61.92,192.49,165.42,5.5,31.41,3.85,63.59,9.09,93.72,5.88,33.79,28.97,56.4,35.65,90,6.38,32.1,10.9,107.42-5.98,135.28-11.95,19.72-32.25,22.92-53.7,22.92v-13.8c0-1.03,2.11-8.17,2.68-9.7,2.35-6.29,12.14-15.38,7.72-21.65-4.65-6.59-17.51,5.84-20.33,9.99-2.35,3.45-6.25,16.48-6.25,20.4v15.71l-27.6-.95v-14.75c0-1.13,2.71-7.34,3.45-8.92,2.64-5.59,13-16.04,11.38-21.09-2.63-8.22-18.29,5.22-21.52,9.05-2.43,2.87-8.54,12.82-8.54,16.2v15.71c-25.05-9.96-10.49-38.68,5.4-50.29,10.1-7.38,23.48-11.82,29.98-23.32,14.46-25.57,10.63-55.31-16.95-69.03-12.91-6.42-24.06-10.45-36.81-18.4-42.58-26.56-69.05-55.71-79.22-106.39-2.63-13.1-3.07-25.79-4.29-39.02-7.23-.99-9.1,11.45-10.15,16.9-3.4,17.65-2.68,37.28,2.58,54.45l.2,2c-40.16,21.5-84.77,31.72-131.72,30.87l-3.64-1.46c-.33-5.65-4.23-32.19-8.56-34.75-.83-.49-3.52-.76-3.81-.48-.67.66-2.51,16.04-2.85,18.58-7.85,58.61-18.62,152.1-45.53,203.86-15.5,29.81-44.67,38.65-76.64,38.42-3.69-8.08-.79-19.99,2.2-28.14,1.86-5.08,9.01-13.82,3.91-18.15-7.23-6.14-17.97,10.51-20.24,16.09-.43,1.06-2.68,7.38-2.68,7.79v23.32h-32.84c-2.9,0-.89-17.72-.36-20.35,1.64-8.18,10.75-20.68,9.38-27.69-1.85-9.48-15.43,5.28-18.04,8.56-7.59,9.53-10.23,23.93-7.64,35.67-17.62,1.42-15.84-23.63-11.59-34.9,9.67-25.66,31.85-22.32,45.84-38.88,21.83-25.85,34.75-97.56,23.33-128.94-1.49-4.11-2.93-7.81-8.07-6.68-.83-.27-.82-.59,0-.95Z"/>
  <path class="uuid-b304cc17-fac9-4d1a-88ae-d758cf82a9c9" d="M912.73,511.89l-1.93.32c-27.37,51.09-81.79,83.56-134.13,107.97-24.92,11.62-51.29,22.38-78.09,26l-2.88.88c-31.35,1.28-60.86-3.21-90.43-12.37-3.35-1.03-1.65-3.69,1.6-3.71l35.19,7.1c55.44,8.27,109.98-38.41,96.28-95.18l1.15-2.44c-1.66-4.36-2.72-8.87-3.18-13.53l-3.45-2.41c-8.49-18.29-25.61-35.48-46.5-37.18-.4-2.01-.78-3.66-1.13-4.94l-1.16.7c-6.74-8.19-10.03-10.55-20.91-12.4-18.62-3.17-40.86-3.94-59.71-2.82-11.95.71-32.58,4.19-33.17,19.11l-2.13,1.12-.29,4.54c-19.63,15.24-34.34,29.84-29.99,56.91,4.76,29.63,21.93,63.6,51.49,73.96,4.94,2.15,7.78,7.1.68,6.42-58.7-23.1-106.62-68.75-100.89-136.58,2.68-31.64,19.61-58.89,23.77-91.4,4.42-34.47,6.61-61.03,23.44-92.69,46.82-88.09,177.51-105.37,261.83-66.9,4.65,2.12,22.29,12.59,25.28,12.36,6.4-.49,4.53-8.91,5.75-14.3,8.39-37.29,56.37-68.59,93.22-50.91,53.94,25.87,39.98,102.2-10.97,126.5-5.45,2.6-17.15,3.4-17.78,9.91-.4,4.09,6.4,13.57,8.43,18.13,22.47,50.36,28.72,115.53,10.61,167.87Z"/>
  <path class="uuid-26dac9f8-0364-4286-a76f-33223df5b2cf" d="M934.62,322.47c16.85-11.21,30.15-26.46,36.2-46.13,13.26-43.09-7.05-93.29-51.43-107.13-.23-1.66,2.16-.89,3.31-.94,52.68-2.1,88.09,52.66,72.36,101.85-1.89,5.91-9.78,17.8-7.93,23.17.89,2.59,15.68,8.28,19.17,10.33,43.9,25.82,55.16,91.6,14.44,125.44-3.02,2.51-11.3,5.93-11.9,10.07-.64,4.42,12.36,19.53,15.28,24.67,27.97,49.29,1.45,121.54-59.52,124.33-2.18.1-5.45-2.05-6.71-.13-1.4,2.13-.04,26.8-.39,31.97-3.15,45.39-63.72,97.02-106.59,65.58-4.79-3.51-9.73-13.1-15.48-2.99-11.09,19.51-8.18,28.17-30.35,41.99-33.83,21.1-70.71,13.38-99.88-11.33-4.8-4.07-8.54-12.04-16.16-8.56-2.59,1.18-10.82,9.36-14.74,11.91-49.56,32.18-111.22-4.87-111.12-62.18-6.23-10.2-10.86-.22-17.21,2.38-5.23,2.14-15.41,2.13-21.13,1.69-40.38-3.11-68.3-44.54-65.2-83.26.88-10.95,7.18-27.37,4.51-37.86-1.82-7.14-20.02-14.33-26.43-20.21-36.83-33.76-23.01-85.15,6.3-118.42,1.97-2.23,7.57-5.05,8.02-8.25.98-6.89-13.73-17.36-18.1-22.81-31.28-39.03-3.38-95.78,39.95-110.87,3.72,19.37,13.92,35.96,28.54,49.05,3.09,2.77,8.08,4.41,10.35,8.68-9.66,21.26-14.37,44.51-17.82,67.56-4.52,30.16-6.86,43.2-16.33,72.2-24.13,73.93,4.91,140.94,71.42,178.51,50.38,38.03,119.24,53.89,182.35,45.75,32.19-4.15,54.79-14.02,83.98-26.78.87-.38,1.82-.56,2.8-.71s2.06-.18,3.1-.18c4.28-5.69,12.48-9.51,19.08-11.69,7.04-5.91,15.23-12.28,23.77-15.52,5.32-6.9,13.76-14.41,21.88-17.53-1.29-2.49.24-3.79,2.86-2.86l2.54-4.96c75.92-66.74,89.22-182.06,44.38-270.17-2.35-1.92-3.07-3.81-2.19-5.67Z"/>
  <path class="uuid-26dac9f8-0364-4286-a76f-33223df5b2cf" d="M482.49,202.53c1.28-15.85,6.11-30.06,15.78-42.75,18.75-24.61,57.08-39.36,87-28.14,6.22,2.33,12.85,9.65,19.11,7.65,6.5-2.08,6.46-13.35,8.48-19.13,20.59-58.83,115.63-58.87,139.5-4.26,1.28,2.92.18,6.59,5.9,7.44,1.56.23,22.52-14.61,26.73-16.67,19.32-9.45,48.48-12.13,68.71-4.54,27.48,10.31,42.29,34.42,45.5,62.85-.35,1.18-1.28,1.09-2.21,1.34-6.05,1.66-14.03,1.55-20.61,3.18-29.77,7.36-52.06,32.48-64.04,59.61-16.6-8.71-33.62-15.37-52.07-19.26-38.59-8.15-82.66-8.33-120.92,1.53-3.81.98-24.47,8.51-25.78,8.18-2.27-.57-6.68-11.66-8.45-14.47-19.91-31.63-59.3-46.14-93.78-28.43-12.14,6.23-20.05,15.88-28.84,25.89Z"/>
  <path class="uuid-b606dd29-3d99-497c-a78a-54c0b5d2861b" d="M1081.21,880.74c.02.31,2.48,3-.42,2.33-14.69-3.42-9.37-28.15-4.71-37.92,6.75-14.14,18-15.09,30.17-22.19,10.8-6.3,18.18-13.23,24.27-24.28,10.58-19.16,9.71-37.07-4.55-54.07,13.15-5.17,26.69-8.86,39.65-14.58,11.55-5.1,23.32-11.68,34.1-18.24,10.68,16.76,26.16,29.45,42.41,40.5-4.7,11.07-8.85,22.44-12.86,33.78-12.39,34.99-24.06,98-71.44,98h-17.61v-15.71c0-.32,1.17-5.47,1.41-6.21,1.55-4.82,12.36-15.88,4.28-19.47-9.09-4.04-17.28,9.34-19.76,16.37-2.85,8.12-2.53,17.03-3.02,25.52-8.6,1.36-17.19-.05-25.75-.51v-18.56c0-7.51,12.49-17.33,10.28-24.55-2.41-7.86-16.3,5.19-18.82,8.39s-7.64,13.2-7.64,17.11c0,4.73-.25,9.57,0,14.28Z"/>
  <path class="uuid-b885726a-ff5d-444f-8a30-78f3312f9e5a" d="M739.49,832.67c-19.14,24.61-55.99,62.82-89.95,62.82h-15.71c-.15-9.82,1.53-20.87,5.96-29.73,1.44-2.87,4.99-5.45,5.45-8.9,1.18-8.92-6.55-8.44-12.3-4.61-8.29,5.53-12.83,16.2-14.27,25.71-.7,4.63,0,12.69-.98,16.91-.24,1.04-1.84,1.05-2.63,1.35l-28.82-1.68c-1.55-10.52.36-20.44,4.59-30.14,1.69-3.89,8.28-13.09,7.38-16.52-2-7.63-14.26,2.75-17.11,5.84-9.13,9.91-11.7,24.07-10.1,37.02-15.38-6.42-15.4-16.75-11.73-31.26,8.64-34.19,46.25-25.78,66.52-45.8,9.62-9.5,31.96-41.98,38.51-54.3,1.27-.54,2.74.37,4.4,2.71,30.84,12.1,59.17,33.7,68.06,67,1.23,1.18,2.14,2.38,2.74,3.58Z"/>
  <path class="uuid-7f38b6d8-97aa-4c29-a600-b346f8ec9343" d="M568.15,488.09l2.33,1.85c5.46,20.63,24.14,32.98,42.84,40.28l1.22,1.97c-.76,11.6-.75,23.22.03,34.88-12.33,13.48-34.77,3.82-41.94-10.49-4.09-21.03-19.41-6.28-12.01,7.26,12.68,23.19,39.32,29.08,62.19,16.96,36.05,25.15,89.38,14.2,101.46-30.16-.81-3.24-.81-6.01-.02-8.29-.22-1.76.92-2.42,3.43-1.98l1.27-2.38c-3.37-10.72,11.26-6.67,10.53,2.45,6.97,17.75.62,49.63-11.45,64.22-21.96,26.57-48.01,38.41-83.14,35.6-12.27-.98-24.74-5.5-36.75-7.05-1.8-.23-3.29-1.61-2.88,1.46-5.01-1.55-10.18-2.77-15.23-4.76.43-1.19,3.62-.26,2.39-1.91-2.35-3.13-12.58-6.18-16.22-8.54-16.01-10.39-27.55-28.5-33.78-46.18-10.61-30.12-12.16-50.04,12.84-72.86,4.29-3.92,11.36-6.89,12.88-12.35Z"/>
  <path class="uuid-26dac9f8-0364-4286-a76f-33223df5b2cf" d="M1371.53,324.37c.12-2.54.97-4.81,1.02-7.13.2-10.66-8.9-17.17-11.95-28.1-9.88-35.37,16.53-74.24,48.76-87.34,4.35-1.77,22.78-7.84,26.43-7.84h16.66c-2.86,4.28-6.25,8.11-8.73,12.69-16.57,30.59-.77,69.61-31.24,95.36-8.1,6.85-21.99,10.12-25.26,20.43-.61,1.92.13,4.45-1.4,5.74-4.39-.76-8.97-1.29-13.74-1.58l-.54-2.23Z"/>
  <path class="uuid-069666f6-d12d-40bc-bf95-0da3c2b9f78d" d="M760.43,841.24c21.72-29.45,43.55-58.95,59.45-92.12,20.1,6.04,40.45,11.49,61.45,13.12-2.7,18.75-7.18,38.87-14.51,56.41-3.73,8.93-6.51,14.81-14.06,20.69l.95-2.85c-31.11,1.67-62.3,1.54-93.28,4.75Z"/>
  <path class="uuid-f28f1f9d-18f2-4401-891e-a58f98cae35a" d="M889.88,603.27c-.75-.25-1.68-.71-1.68-1.38.11-10.47-2.43.36-1.18,4.23-21.39,19.02-39.23,31.42-64.73,44.74-2.49.81-4.38-3.59-3.5-5.57,4.71-2.67,8.04-7.62,10.16-12.52,3.14-1.63,6.07-3.78,9.52-4.76l1.39,1.51c-2.88,9.2,2.91,7.28.18-1.67l1.29-1.75c3.63-2.87,7.69-4.93,11.42-7.62,2.22,3.45,11.92,5.06,10.78-.86,4.42-5.52-.7-2.9-1.6,1.21-2.77,3.15-7.66.11-5.38-3.2,52.63-38.97,80.51-88.88,85.66-154.69,3.45-44.19-8.26-88.49-23.86-129.34,5.41-2.94,11.12-5.74,16.26-9.15,1.06,1.94,2.96,3.03,4.01,5.04,24.67,47.06,30.54,101.24,21.56,153.31-8.7,50.44-33.3,88.64-70.3,122.45Z"/>
  <path class="uuid-c5d4e785-acc2-48c8-87e2-8d918f7a333d" d="M664.29,759.38c1.99-3.75,5.37-8.98,4.16-13.13-.53-1.8-2.82-3.43-1.84-4.98,9.43-3.47,17.62-8.48,25.77-14.29,24.97,19.95,51.41,29.97,83.81,27.68,6.78-.48,12.75-3.24,19.47-2.89l-29.11,44.65c-8.96,12.13-17.8,24.35-27.05,36.25-1.49-.88-2.12.5-3.69-1.5-2.07-2.63-4.26-12.4-6.39-16.5-10.58-20.37-25.5-32.51-45.11-43.42-4.46-2.48-14.44-5.88-17.55-8.15-1.3-.95-1.45-2.6-2.46-3.73Z"/>
  <path class="uuid-b304cc17-fac9-4d1a-88ae-d758cf82a9c9" d="M1371.53,324.37c4.38,1.94,9.62.56,14.28.95.05.95-.05,1.91,0,2.86,2.23,43.11,38.94,70.3,50.92,109.47,16.19,52.95-6.74,95.38-57.57,114.22-.59-8.26-3.69-15.82-5.71-23.76,17.39-7.74,31.42-21.83,37.57-40.04,12.12-35.83,1.21-58.47-16.24-88.42-16.8-28.83-24.9-39.67-23.24-75.28Z"/>
  <path class="uuid-069666f6-d12d-40bc-bf95-0da3c2b9f78d" d="M1059.32,834.58l-27.13-1.99c-2.19.03-4.26.61-6.42.75-1.55.1-3.18.82-2.62-1.61,6.17-23.71,10.82-48.07,14.28-72.34,13.75-1.27,27.67-2.78,41.28-4.9,4.67-.73,20.02-5.05,22.92-4.65,1.73.24,7.72,6.39,9.07,8.14,12.86,16.65,2.33,36.64-13,46.92-15.79,10.59-27.5,10.83-38.37,29.69Z"/>
  <path class="uuid-b304cc17-fac9-4d1a-88ae-d758cf82a9c9" d="M571,242.51l-2.26.26c-10.98-11.9-28.12-26.91-42.96-11.76-1.53,1.56-4.39,12.58-4.04,14.79,1.05,6.63,11.18,22.16,19.6,19.3l1.11,2.16c-7.99,8.78-14.76,19.14-20.48,29.52-10.88-7.18-19.78-17.18-25.08-29.18-10.77-24.4-8.51-50.21,12.73-67.9,31.96-26.61,71.85-6.49,86.03,28.08-7.79,5.44-16.84,9.37-24.66,14.74Z"/>
  <path class="uuid-c5d4e785-acc2-48c8-87e2-8d918f7a333d" d="M1177.35,669.9c2.72,8.87,7.98,16.76,10.68,25.09.28.85,1.21,1.17-.2,2.01-11.61,4.48-23.08,9.52-34.74,13.85-22.15,8.21-45.8,15.82-69,20.48-14.12,2.84-28.43,4.99-42.87,4.26.13-11.41,1.62-22.83.96-34.27,12.56-1.81,25.8-.83,38.54-1.91,20.32-1.73,40.41-6.34,59.75-12.59l36.87-16.91Z"/>
  <path class="uuid-069666f6-d12d-40bc-bf95-0da3c2b9f78d" d="M1264.92,851.71c.6-1.33.91-2.61,1.9-3.8l-36.17-3.82c6.2-14.76,12.59-31.11,18.1-46.15,1.52-4.15,10.08-33.57,11.86-33.71,7.52,3.68,14.6,8.34,22.04,12.14,5.24,2.67,10.29,3.19,15.07,6.82,11.09,8.43,13.85,21.34,8.16,33.82-4.36,9.57-22.64,16.35-31.01,24.2-3.61,3.39-5.78,7.77-9.97,10.49Z"/>
  <path class="uuid-ebbfdd4d-7b39-47bc-a9f8-950c0bd2f7be" d="M828.96,632.78c3.1,4.82.99,3.06-.96,5.5-1.23,1.54-2.98,5.05-4.25,5.99-3.27,2.42-5.01-.8-1.46,6.6-45.59,23.81-86.51,33.65-138.56,31.41-38.14-1.64-102.35-20.3-131.12-45.86-1.23-1.09-2.64-1.48-2.55-3.63,83.19,46.98,194.98,43.63,278.9,0Z"/>
  <path class="uuid-fc4fe413-26fd-46ca-98f2-d5bfeb0e097f" d="M912.73,511.89c-31.4,90.7-126.66,131.48-217.03,135.17l2.85-1.89-2.85-.95c8.63-.76,19.44-2.43,27.76-5.09,53.64-17.11,132.61-57.11,168.29-101.09,4.57-5.63,16.12-26.27,19.06-28.53,1.63-1.25.73,1.98,1.91,2.39Z"/>
  <path class="uuid-ce321d75-baa4-48db-b053-37b472ef931d" d="M571,242.51c-9.86,6.77-20.51,15.91-28.56,24.75-2.55-.92-4.45.75-7.58-.52s-9.41-8.48-11.21-11.63c-.56-.98-3.76-8.46-3.78-9.06-.14-3.25,2.34-13.88,4.53-16.34,1.16-1.31,10.33-6.66,12.08-6.99,11.76-2.26,27.57,11.22,34.51,19.8Z"/>
  <path class="uuid-b606dd29-3d99-497c-a78a-54c0b5d2861b" d="M887.98,713.69v.95c-1.79,8.47-4.02,16.92-3.81,25.7-18.36-1.94-36.52-5.98-54.26-10.96l16.65-24.18c12.28,6.64,27.49,9.68,41.42,8.49Z"/>
  <path class="uuid-ebbfdd4d-7b39-47bc-a9f8-950c0bd2f7be" d="M856.57,615.65c4.67,7.13,3.42-.82,6.66-2.38,1.51-.73,3.27-.85,4.78,0,2.13,1.19-2.19,3.34-2.68,4.97-.42,1.4,0,4.86-.19,5.05-.39.39-9.99-.37-11.07-.8-2.36-.94-1.13-2.02-1.3-3.96,1.29-.93,2.53-1.91,3.81-2.86Z"/>
  <path class="uuid-ebbfdd4d-7b39-47bc-a9f8-950c0bd2f7be" d="M841.34,626.12c1.27,2.23,2.2,11.4-.49,12.36-1.1.39-4.01-3.98-4.15-4.48-.22-.8,1.33-5.26,1.78-5.98,1.27-2.02,2.2-1.38,2.86-1.9Z"/>
  <path class="uuid-c5f0c0d0-e418-47a2-8d42-f8c61a588062" d="M685.23,482.38c2.44,4.73,1.41,8.24-.22,13.01-6.86,20.1-34.74,31.63-53.46,36.6.57,6.06.91,12.58-.58,18.54-.17,10.87.63,13.57,9.66,18.89,28.8,16.97,56.5,2.71,69.36-26.26,2.9-6.14,13.43-8.26,14.28-.81,4.9,9.81-.4,18.53-6.27,26.57-23.66,32.4-62.79,34.71-95.27,13.61-21.55,12.64-49.6,6.03-62.57-15.52-3.75-6.22-5.66-16.68,1.39-21.28,9.73-6.34,10.5,6.06,13.41,11.23,6.78,12.03,26.76,20.6,37.96,9.46-.01-11.33-2.31-22.59-.11-33.91-.61-1.97-8.46-3.89-11.03-5.23-15.44-8.04-30.41-21.39-33.62-39.2.56-2.01,0-3.99,1.2-6.89,4.19-10.14,20.84-14.28,30.65-15.03,15.33-1.18,64.86-.8,76.98,6.85,3.16,2,7.62,9.28,8.24,9.36Z"/>
  <path class="uuid-f3d87379-4eaf-4cd3-bda0-af9d5f3f3498" d="M685.23,482.38c.07,0,.46-.89.93-.97-.8,6.85,4.18,3.98,8.62,5.22,13.92,3.86,26.41,15.68,34.65,27.22,1.93,2.71,3.26,7.45,4.86,9.42.92,1.13,3.18,1.63,3.78,2.88.93,1.92.24,4.68.66,6.94s2.79,4.06.75,7.35c-.29-.73-4.66-6.55-5.7-7.61.33,6.66-1.44-1.24-3.81.96-.51.48.89,3.26.85,4.32-.07,1.6-2.21,3.22-1.82,5.2-1.4-1.61-4.51-.87-4.75-.96-1.45-.52-2.67-2.3-4.5-2.69-7.52-1.62-10.27,9.62-13.17,14.06-12.28,18.82-30.74,28.9-53.77,23.42-4.42-1.05-19.64-8.85-21.74-12.53-.92-1.6-1.98-11.78-2.01-14.17-.02-1.61.92-3.18.95-4.77.07-4.87-.18-9.76.14-14.61,22.9-7.81,55.61-19.68,55.08-48.68Z"/>
  <path class="uuid-31f42ed7-5ebf-43e5-ae53-722451cc5b8f" d="M899.08,224.79c16.08.55,23.29,17.19,22.09,31.41-1.07,12.68-12.43,29.02-22.41,36.6-2.15,1.63-10.76,7.12-12.93,6.66-7.28-1.54-25.79-25.68-35.94-27.9-2.89-3.26,1.73-11.19,3.46-14.65,9.01-18.06,24.37-32.85,45.73-32.12Z"/>
  <path class="uuid-589f7751-5273-4407-a2d3-0ad155fa9c06" d="M750.28,386.57c7.96-7.06,18.62-6.22,25.21,2.22,13.23,16.97,9.28,61.85-19.28,57.36-10.86-1.71-16.8-21.44-16.81-30.87,0-8.73,4.21-22.78,10.89-28.7Z"/>
  <path class="uuid-8dd4e4af-5cd8-4d83-9edf-dbe868064fff" d="M567.9,377.9c16.31-2.61,22.04,18.07,21.21,30.75-.95,14.48-12.87,38-30.2,27.27-17.46-10.81-11.55-54.75,8.98-58.03Z"/>
  <path class="uuid-ebbfdd4d-7b39-47bc-a9f8-950c0bd2f7be" d="M889.88,603.27c-.89.82-1.69,1.82-2.86,2.86-4.18-1.37-2.09-7.64-.49-10.49.92-1.63,1.12-.5,1.92,0,3.41,2.21,1.95,4.31,1.43,7.62Z"/>
</svg>