<?xml version="1.0" encoding="UTF-8"?>
<svg id="uuid-bb8892ae-8939-4b55-be07-6fda6eb08fc0" data-name="Layer 1" xmlns="http://www.w3.org/2000/svg" viewBox="0 0 1920 1080">
  <defs>
    <style>
      .uuid-958a5583-6bf7-451b-81d4-2d66b13ae9b0 {
        fill: #d37d09;
      }

      .uuid-85b31630-b4c7-4163-81aa-1015fba69778 {
        fill: #744b11;
      }

      .uuid-e47502e5-290b-4386-be57-dc54b534516f {
        fill: #744b12;
      }

      .uuid-fc34d36e-bacd-4a19-a8ad-54a35d3b15a9 {
        fill: #f29b1d;
      }

      .uuid-dbb5f9da-5d12-4546-887c-99984a4380d9 {
        fill: #f49d1c;
      }

      .uuid-2aca7a9d-2401-4597-9077-37dbd892e772 {
        fill: #e3ddd5;
      }

      .uuid-e48f270a-6c57-4d09-9522-a33a039108c7 {
        fill: #f39b1d;
      }

      .uuid-e9def6e8-1dc8-4c45-9398-324b0369ea26 {
        fill: #754b12;
      }

      .uuid-771ecab6-370e-4cc6-8664-e498d530c90e {
        fill: #754c12;
      }

      .uuid-61d92cc3-3eec-49be-9fb6-05a05549e18b {
        fill: #d37d0a;
      }

      .uuid-809172bc-aa42-48e8-ad6a-67aef61aaa82 {
        fill: #fac870;
      }

      .uuid-39898cb9-cffc-4f79-b594-1887395c8c00 {
        fill: #fefbef;
      }
    </style>
  </defs>
  <path class="uuid-771ecab6-370e-4cc6-8664-e498d530c90e" d="M588.08,869.8c-2.96-23.04,12.25-45.6,32.52-55.11,4.02-1.89,15.99-4.54,17.31-7.73,2.38-5.75,1.65-33.99,1.29-41.85-1.68-37.06-8.59-78.7-20.84-113.35-16.73-47.34-17.58-78.33-19.21-127.99-.1-2.99-1.57-5.33-.04-8.46-35.94-11.77-69.64-30.56-91.77-61.96-2.71-3.85-4.99-10.01-7.83-13.2-3.89-4.37-12.29-8.08-17.05-11.99-16.39-13.44-24.29-35.37-7.53-52.04-7.89-2.67-14.81-12.38-14.92-20.65-.15-11.58,15.29-24.66,21.76-34.11,15.32-22.37,19.83-50.13,29.83-74.94-11.05-19.72-23.23-38.2-26.54-61.21-7.64-53.16,40.1-89.31,89.36-67.33,14.92,6.66,27.05,17.28,37.35,29.8,7.87-1.74,15.43-4.83,23.34-6.45,14.67-2.99,32.61-4.2,47.56-4.51,27.36-.57,56.17,2.61,81.14,14.08,20.83-44.68,89.77-55.68,120.1-14.95,25.59,34.36,5.94,85.04-17.15,115.58,6.88,10.8,10.34,23.42,15.88,34.91,6.17,12.8,14.09,25.15,22.47,36.61,9.49,12.97,22.51,19.37,11.63,37.83-4.18,7.09-8.66,8.04-13.16,12.88-1.01,1.08-1.51.7-.04,1.93,1.73,1.45,9.09,4.25,11.73,5.29,49.68,19.53,107.82,5.74,159.95,4.2,65.86-1.94,122.93.16,176.69,41.7,11.38,8.79,30.97,30.52,44.68,31.44,15.66,1.05,35.06-16.82,40-31.08,18.32-52.97-35.7-78.47-61.77-114.4-27.54-37.95-40.09-79.82-12.61-122.2,14.17-21.86,42.36-37.88,68.94-31.27,24.2,6.02,28.17,33.36,18.17,53.28-11.41,22.73-27.44,22.63-9.01,52.72,17.1,27.94,47,48.61,64.72,77.47,27.83,45.32,30.26,107.97-4.3,150.53-20.34,25.05-49.78,36.81-81.62,39.05,1.79,4.82,2.99,8.31,3.86,13.65,2.6,15.9,2.29,33.59,4.28,49.8,3.18,25.93,8.89,66.97,18.72,90.43,9.95,23.73,18.83,36.47,20.24,63.87,1.67,32.4.11,76.91-6.05,108.69,1.52,3.56,1.05,6.02-.39,9.64-12.43,39.13-50.94,45.76-86.95,45.65-37.44-.12-87.35-3.32-76.78-54.82.86-4.18,3.41-12.86,6.91-14.49,1.09-7.84,8.24-15.66,14.43-20.97s12.89-9.39,20.8-9.82c.26-28.55-25.81-43.94-47.78-56.45l-.1-1.76c-6.04,26.28-14.06,52.89-24.13,77.83l-2.27,2.16.82,3.32c-16.79,45.76-46.2,55.06-91.35,54.59-32.37-.34-69.33-4.32-74.01-43.38-.54-4.46-.32-14.22,3.32-16.53-.95-6.55,2.89-11.63,7.25-16.59,8.9-10.13,24.31-18.8,37.57-18.6.71-23.29-3.13-47.5-25.6-59.78-25.2,4.45-50.64,7.43-76.31,8.92-4.11,26.28-7.89,52.63-11.33,79.02l-2.28,3.97c-.97,8.47-2.44,16.84-4.4,25.09l1.47,3.09c-3.1,17.67-7.11,35.75-19.97,49.09-30.12,31.24-95.2,28.14-133.97,17.44-28.59-7.89-31.62-30.25-22.67-56.38,4.59-13.41,14.73-33.64,29.93-34.27-.37-1.93.25-3.88,1.86-5.86,2.95-17.54.19-38.51-2.21-56.49-.17-1.28-3.63-24.59-4.63-21.57-6.31,27.64-12.67,55.21-19.09,82.7l-1.97,2.23,1.12,3.49c-10.16,44.93-28.75,66.38-76.51,68.7-21.25,1.03-66.29-.12-82.34-14.61-5.92-5.35-13.71-16.08-10.51-23.54Z"/>
  <path class="uuid-2aca7a9d-2401-4597-9077-37dbd892e772" d="M927.55,855.79c2.09-8.98,3.67-18.15,4.75-27.5l3.48-1.5c21.27-.4,42.53-.15,63.78.75,3.13-.38,4.16,1.69,3.1,6.22-.67,9.29-2.86,11.34-.3,21.83,3.39,13.91,12.02,24.53,25.35,29.72,21.25,8.27,73.24,8.62,94.38.28,21.96-8.66,33.52-28.84,41.8-49.83,12.73-2.58,28.35-.3,40.92,3.19l-1.86,5.82c-3.05,10.73-6.74,14.95-6.05,27.58,1.76,32.09,25.59,36.26,52.62,38.5,45.67,3.79,100.14,2.14,110.65-52.06l1,2.49,1.52-9.52c26.15,5.78,56.42,10.31,80.28,22.87,32.57,17.14,12.58,33.97-11.01,44.42-53.69,23.78-142.38,33.29-201.47,38.87-156.59,14.79-323.82,14.79-480.66,3-67.97-5.11-163.03-13.04-226.09-37.28-25.24-9.7-61.29-29.17-19.44-50.01,24.9-12.4,56.65-16.18,83.31-23.84l-.52,22.51,1.01-2.5c1.42,11.03,8.91,21.73,18.7,26.86,17.73,9.3,68.94,11.39,88.66,7.89,42.8-7.6,50.58-30.87,60.88-68.8.66-3.82,24.31-5.71,25.41-4.94,1.8.43,2.01,1.74.62,3.94-3.84,3.41-8.07,3.75-11.02,6.51-12.59,11.79-22.46,36.81-20.9,53.96,2,21.96,13.85,25.72,32.91,30.17,37.4,8.75,100.48,10.5,127.16-22.07,11.07-13.51,13.97-30.76,17.05-47.54Z"/>
  <path class="uuid-fc34d36e-bacd-4a19-a8ad-54a35d3b15a9" d="M544.01,466.24c-6.26-5.64-13.43-12.36-18.44-19.11-5.89-7.93-10.24-22.72-18.38-26.68-8.84-4.3-15.7-4.32-22.09-13.96-9.98-15.04,7.12-16.98,8.75-28.96.95-6.92-.15-9.23-5.44-13.41-6.42-5.07-14.02-3.68-6.89-13.95,3.37-4.86,8.76-9.47,12.25-14.79,20.55-31.37,24.95-67.43,44.07-99.13,23.61-39.14,64.34-70.68,109.75-79.32,2.05,2.84,5.12,8.39,1.08,9.89-10.62,3.93-42.29,9.19-49.22,16.37-4.49,4.65-2.1,11.59,4.22,12.61,6.17.99,33.99-6.32,36.49-3.94-.72,3.41-2.68,12.41-5.03,14.49-2.72,2.41-18.75,6.29-23.69,8.36-2.97,1.24-13.91,6.16-14.37,8.71-1.19,6.5,6.03,9.25,11.39,9.12,4.44-.11,15.34-5.11,18.27-2.73,4.25,3.45-5.03,20.03,2.42,23.65,10.53,5.11,12.16-19.49,15.04-25.54,11.41,1.57,36.34,9.57,45.98,2.43,20.75-15.36-35.13-20.92-36.85-23.61-1.57-2.46,2.98-12.25,4.85-13.4,3.69-2.26,37.79,3.52,44.08,5.02,5.55,1.33,23.29,8.67,27.01,7.01,5.67-2.55,2.8-9.89-.45-13.53-9.83-10.99-32.16-18.88-46.36-21.74-3.57-.72-15.04-.05-13.83-4.34.17-.6,6.05-10.14,6.56-10.49.64-.44,13.22-1.4,15.52-1.51,16.1-.77,35.88,1.39,51.38,5.79,2.36.67,16.49,5.47,17.1,6.43,1.72,2.74-3.76,11.92,1.2,16.32,8.13,7.2,11.78-14.47,13.8-19.16,12.84-29.77,51.84-44.99,80.96-29.53,41.28,21.92,18.99,75.52-2.7,103.79-2.15,2.79-10.32,10.11-10.04,13,.31,3.18,5.33,5.21,7.08,7.32,10.1,12.19,17.38,38.83,25.02,53.31l-.04,2.22c-6.93,3.97-15.99,9.35-16.07,18.3,1.61,23.01-6.93,44.98-18.26,64.85-2.38,4.17-8.82,15.01-13.7,12.77l-.82-2.49c12.99-20.87,8.54-45.96-10.02-11.7-13.84,16.21-35.46,23.63-56.21,25.44-14.86,1.02-6.63,8.07,2.67,10.14,14.06,3.13,29.14,2.41,42.52-3.2l2.84.84-.39,3.22-20.96,17.92c-2.87,2.31-14.7,13.88-13.57,17.21,2.09,6.1,36.07-1.59,41.59-4.62l2.33,1.33c-6.12,3.48-14.14,5.76-21.02,7.52-4.65,1.19-29.09,4.44-29.03,9.01,4.79,4.14,12.38,5.09,18.52,5.5,20.82,1.38,42.6-4.3,60.6-14.49l33.02-21.55c-1.89,5.96-.51,12.25-1.13,18.39-1.34,13.34-5.43,26.16-10.71,38.36-1.99,4.59-19.98,36.67-18.2,38.37,6.28,1.15,11.46-2.75,16.03-6.49,29.15-23.84,46.79-75.23,43.1-112.22-.34-3.44-2.69-6.7-2.69-7.96,0-1.5,7.96-16.12,9.11-16.29,3.45,1.9,8.17,1.8,11.56,3.27,7.43,3.21,19.21,28.48,22.5,36.59,15.97,39.37,20.45,88.45,16.54,130.64-1.05,11.36-5.32,24.88-4.02,36.08.93,8.03,8.91,8.65,13.47,3.41,4.97-5.73,12.7-30.67,15.1-38.98,12.7-43.98,16.21-86.55,5.22-131.39-2.64-10.75-6.48-21.63-12.73-30.82,7.52,2.09,38.47-3.27,43.06-.51,1.08.65,9.92,15.45,11.19,17.85,22.02,41.44,30.19,99.76,27.86,146.37-.78,15.54-6.68,39.86-5.01,54.11.53,4.52,1.81,6.04,6.55,5.57,8.44-.85,15.63-22.58,18.21-29.91,22.65-64.3,31.66-140.38-6.72-200.48,17.39.07,34.8-.64,52.08,1.49,21.15,26.39,31.72,59.96,35.9,93.28,2.04,16.2,3.04,34.61,2.14,50.92-.98,17.8-6.37,36.56-7.04,54.04-.16,4.1-1.03,11.79,4.6,12.59,10.11,1.44,19.23-24.21,22.22-31.82,20.52-52.2,27.22-97.01,7.28-150.98-2.59-7.02-6.06-13.67-9.02-20.51,15.56,5.73,30.5,12.04,44.36,21.22,4.45,2.94,14.94,9.63,16.69,14.35,1.99,5.37,3.71,20.81,4.07,26.97,3.26,55.66-13.19,115.25-44.29,161.08-2.47,3.63-10.26,10.19-6.92,14.3,4.24,5.21,17.39-4.96,21.14-8.09,23.03-19.22,44.03-55.42,50.57-84.62,6.46-28.84,5.02-57.98,2.5-87.13l8.17,13.34c19.37,42.08,40.35,94.29,14.27,137.79-20.11,33.53-41.26,44.54-68.04,69.15-5.56,5.11-15.38,14.29-1.89,15.97,29.49,3.68,61.46-21.56,79.04-42.96l13.49-17.03c.91,11.8,2.48,23.06,6.27,34.29,1.01,2.99,5.89,11.84,5.35,13.79-1.3,4.71-17.2,20.55-21.61,24.53-12.56,11.33-30.36,20.3-41.56,30.54-5.18,4.73-4.8,9.24,2.94,9.02,16.2-.45,48.74-11.01,62.94-19.24,1.64-.95,13.02-9.64,13.71-8.81,4.3,31.06,4.27,64.37,1,95.62-4.4,42.16-8.22,63.46-55.7,67.47-2.26.19-14.36.54-15.25-.01-2.47-1.54-.59-13.91.37-16.87,1.95-6.04,9.72-12.82,10.46-17.59.99-6.39-.86-11.11-7.95-7.93-3.16,1.42-12.74,14.85-14.58,18.46-3.98,7.85-5.17,15.27-4.47,24.07-10.9-2.89-21.94,1.37-23.76-12.77-2-15.52,4.92-15.98,10.14-26.39,4.23-8.45-3.98-12.78-10.46-8.46-10.36,6.9-16.84,24.98-14.96,37.11-.49,3.98-5.4-6.06-5.77-8.25-2.74-15.98,7.48-37.71,23.07-43.54,4.9-1.83,8.55.46,13.68-3.34,7.41-5.5,6.06-15.73,4.62-23.52-9.39-50.82-52.58-55.52-85.69-85.56-25.56-23.19-34.39-50.78-47-81.92-11.06-9.03-9.75,8.89-9.05,15.8.86,8.55,10.04,25.73,9.02,32s-28.03,16.26-34.55,18.6c-38.36,13.77-87.65,23.85-128.16,21.97-4.5-.21-9.07.23-13.57.05l3.01-45.58c-.51-3.2-1.87-10.25-6.03-8.04-5.05,2.69-11.2,34.69-12.52,41.57-8.31,43.11-12.29,87.19-20.97,130.24-8.29,41.14-10.72,62.03-58.13,67.05-2.25.24-15.81,1.21-16.85.85-5.86-2.01-2.55-16.92-.54-21.24,2.74-5.89,12.29-13.06,7.94-20.21-5.8-9.55-20.38,13.24-22.8,18.38-3.21,6.83-4.78,14.88-3.3,22.23-4.71.07-21.37-.11-23.95-3.58-4.1-5.53-3.28-15.68-.95-21.82,2.29-6.03,13.14-14.99,7.44-20.71-9.89-9.93-23.47,17.9-24.51,25.68-.47,3.49-.07,7.19.17,10.69.08,1.13,2.02,1.98-.74,1.73-7.6-4.29-7.17-8.12-6.25-16.23,1.04-9.2,10.03-32.44,18.76-36.31,5.34-2.37,11.39,1.21,15.18-7.84,5.93-14.19-1.27-40.19-.17-55.76,21.99,4.01,45.49-7.79,61.55-22.06,4.58-4.06,19.62-17.61,5.07-18.49-11.89-.72-32.55,7.49-46.11,8.49-7.93.59-16.48-.36-24.47-.04l-7.06-49.01c24.1-1.81,51.78-14.57,67.61-33.04,5.37-6.27,16.44-21.21-.57-17.58l-70.03,20.58c-1.13-1.17-5.79-26.67-7.94-31.62-1.72-3.95-4.84-2.19-6.19.98-.89,2.08-1.81,9.48-1.94,12.08-.72,14.46,3.01,32.27,4.04,47.12.6,8.78.86,17.73,1,26.53-47.12-8.14-114.7-28.91-139.36-73.43-6.84-12.34-10.41-26.12-13.84-39.72,7.79,1.51,34.98,8.72,40.75,4.69.85-.59,3.58-4.65,3.23-6.01-.74-2.87-22.39-12.15-26.62-14.53-7.58-4.25-14.66-9.33-21.82-14.23-1.88-11.82-3.85-25.04-3.54-37.02-.72-6.15.38-7.74,3.3-4.77,29.06,11.92,62.35,12.51,84.73-12.5,7.27-8.12,16.87-20.64,15.11-31.8,4.35-3.94,6.36-12.52-1.76-13.84-4.02-.65-20.86,6.21-26.28,7.84l-1.5-3.07c4.02-13.14,9.37-25.8,16.04-38,17.72-38.62-9.29-83.74-52.86-81.3l-2.74-1.81-2.1-1.11c-1.6-8.6-11.67-11.52-19.23-13.1-14.64-3.06-50.64-3.37-64.5,1.35-6.44,2.19-9.2,5.57-7.44,12.52l-1.87,1.34c-1.31,1.71-3.5,2.63-6.55,2.76-29.75,16.12-23.27,64.53-4.7,87.87l.24,3.5Z"/>
  <path class="uuid-809172bc-aa42-48e8-ad6a-67aef61aaa82" d="M691.22,495.28c-33.41,10.03-62.09,8.18-95.55-1.08-14.98-4.14-41.72-16.12-51.65-27.96-15.59-18.59-22.19-46.21-15.05-69.63,3.6-11.81,12.05-25.44,26.07-24.5l2.33,2.33c2.45,19.14,17.05,29.39,34.82,33.59,6.9,30.53-10.18,53.34-40.15,32.18-2.8,17.51,34.46,21.4,42.94,8.95,3.8-5.72,6.39-7.32,10.29-.49,17.86,16.62,67.84,17.66,77.92-7.49,2.5-6.23,1.92-16.18-5.78-8.8-12.2,18.89-48.13,21.21-64.42,7.19-6.53-5.62-15.97-26.51-8.14-33.15,16.56-6.3,38.05-15.68,43.29-34.12l2.02-1.18c41.56-3.93,71.34,33.81,61.01,73.53-4.81,18.51-17.22,32.09-19.95,50.65Z"/>
  <path class="uuid-958a5583-6bf7-451b-81d4-2d66b13ae9b0" d="M1073.76,874.81v-15.52c0-5.17,19.4-22.41,10.02-27.04-5.36-2.65-11.25,4.67-14.54,8.5-8.4,9.77-12.68,21-11.5,34.06-.72.71-17.68-1.86-19.38-2.92-4.05-2.53-2.69-17.98-1.38-22.34,2.46-8.14,10.81-12.51,13.01-19.12,1.57-4.72-3.35-8.35-8.07-7.05-13.1,3.61-22.75,24.86-18.24,37.4-9.58-8.39-3.28-28.47,4.02-36.55,8.81-9.75,31.24-10.88,35.52-16.55,4.98-6.59,1.85-22.25.52-30.01,9.28,3.31,19.56,1.29,29.06-.49,8.44-1.58,19.05-3.58,24.97-10.04-4.57-6.25-4.88-8.92-12.95-11.04-15.24-4.01-32.13-.13-47.05-5.02l-11.05-15.47c5.51-.67,10.75-3.54,16.25-5.28,12.29-3.89,24.96-6.5,37.08-10.98,11.56-4.27,22.67-10.31,34.29-14.51,11.34,14.97,24.62,27.89,39.47,39.38-8.18,23.3-13.77,47.53-22.2,70.75-5.62,15.46-13.26,36.29-26.31,46.79-14.33,11.54-34.14,10.9-51.55,13.04Z"/>
  <path class="uuid-fc34d36e-bacd-4a19-a8ad-54a35d3b15a9" d="M691.22,772.67c12.16-1.68,26.03,5.95,35.97,12.79,7.39,5.08,15.29,15.72,17.1,24.27-7.61,30.28-11.39,70.75-48.02,77.66-4.72.89-30.91,3.03-32.66.51-1.02-1.47-.58-12.74.03-15.11,1.61-6.29,12.32-18.71,12.55-22.59.42-6.93-7.72-4.42-11.55-1.43-10.58,8.27-19.24,25.7-15.5,39.07-11.59-.46-20.62,1.01-22.79-12.75-1.23-7.78.07-12.09,3.96-18.59,1.93-3.22,14.39-16.4,4.25-17.75-9.43-1.25-22.56,18.85-23.37,27.68-.36,3.91,1.19,7.08.92,9.89-.37,3.82-5.37-5.85-5.78-8.24-2.8-16.29,7.15-32.1,21.74-38.86,7.28-3.38,10.07-.46,15.9-2.13,14.66-4.2,11.59-20.82,12.2-32.86.4-8.01,2.44-16.51,0-24.54,4.75,1.57,9.43,3.6,14.53,3.98,6.81.51,13.41-1.27,20.52-.98Z"/>
  <path class="uuid-39898cb9-cffc-4f79-b594-1887395c8c00" d="M927.55,855.79c6.65-36.13,9.46-73.15,16.67-109.21,25.6-5.33,52.39-2.85,77.84-9.69,24.03,12.46,28.99,37.7,26.67,62.83-19.03,1.69-40.31,15-46.07,34.04.02-.22-1.74-2.15,0-4-23.28-1.82-46.74-.72-70.1-1.02l-4.01,27.55-.99-.51Z"/>
  <path class="uuid-809172bc-aa42-48e8-ad6a-67aef61aaa82" d="M890.5,386.13c1.27,1.71,1.4,3.91.39,6.59,1.17,17.49-12.47,29.79-24.42,40.47-13.4,12.95-32.5,24.07-50.07,30.04-11.83,4.02-30.95,10.09-42.89,6.34-5.58-1.75-2.29-6.87.31-10.38,8.29-11.19,23.8-20.91,33.57-31.02l.47-2.57c6.45-4.06,11.71-9.8,15.96-16.1l2.6-.36c2.89-.98,6.06-5.28,7.84-7.68,11.45-15.47,20.3-38.73,22.18-57.93.55-5.58-.99-11.82.79-17.24,1.86-5.7,11.74-12.93,17.26-15.29,3.65,6.91,11.67,16.39,16.63,22.93,4.04,5.33,14.54,13.53,11.19,20.38-4.41,9.02-18.9,4.89-20.61,10.46-2.05,6.68,4.29,16.66,8.82,21.34Z"/>
  <path class="uuid-61d92cc3-3eec-49be-9fb6-05a05549e18b" d="M744.29,809.72l-12.05-17.49c-7.29-7.91-30.46-19.13-41.02-19.56,3.94-1.65,11.85,0,9.87-7.29-2.15-7.9-38.6-15.98-45.68-21.99l-6.24-44.82,24.73,15.82c26.2,15.35,55.65,24.12,85.44,29.72l.96,1.02c-1.25.99-1.78,2.34-2.16,3.83-5.18,20.01-8.79,40.66-13.84,60.76Z"/>
  <path class="uuid-39898cb9-cffc-4f79-b594-1887395c8c00" d="M1163.88,835.76c5.83-14.8,10.44-31.08,15.29-46.3,3.67-11.51,6.94-23.21,10.24-34.81,23.63,13.7,52.23,29.36,50.57,61.07-16.34.6-29.11,16.18-37.04,29.05.08-.26-1.4-2.98,1-5-13.16-2.22-26.76-2.84-40.05-4.02Z"/>
  <path class="uuid-e48f270a-6c57-4d09-9522-a33a039108c7" d="M1299.08,475.26c20.55-.51,41-16.68,49.56-35.03,14.52,13.94,24.94,32.04,30.34,51.42-16.2,16.49-39.39,24.91-62.24,26.56l-17.66-42.94Z"/>
  <path class="uuid-61d92cc3-3eec-49be-9fb6-05a05549e18b" d="M719.26,501.29c6.05,4.14-.8,14.69-3.81,19.73-20.88,34.97-53.86,41.03-91.15,28.66-2.7-.89-6.65-1.89-7.69-4.34-.92-.03-.47,3.89-.5,5.02l-2-31.04c21.87.09,43.28,3.33,64.91-1.68,8.04-1.87,34.68-11.32,40.23-16.35Z"/>
  <path class="uuid-fc34d36e-bacd-4a19-a8ad-54a35d3b15a9" d="M571.05,173.83l-2.33-.35c-24.15-37.1-59.83-16.18-51.48,24.86l6.79,22.76-1.04,3.8c-.46.57-.33,4.34-2.46,1.96-3.53-3.95-10.08-16.44-12.42-21.63-7.67-16.98-11.31-31.76-3.91-49.69,14.62-35.44,53.94-32.84,79.89-11.27,1.85,1.53,12.06,10.93,12.06,12.05.11,1.37-.81,1.69-1.69,2.36-7.06,5.31-15.97,9.43-23.4,15.15Z"/>
  <path class="uuid-fc34d36e-bacd-4a19-a8ad-54a35d3b15a9" d="M1406.21,440.2c-14.11-12.85-30.21-26.16-50.05-28.04,1.04-10.78-1.19-20.73-3.6-31.07,8.5-3.86,17.99-6.54,27.27-7.84,15.62-2.18,19.83-4.19,24.89,11.88,5.74,18.23,5.38,36.51,1.49,55.07Z"/>
  <path class="uuid-e48f270a-6c57-4d09-9522-a33a039108c7" d="M1379.18,339.06c-15.93-1.68-30.24,6.12-43.41,13.92l-32.62-33.31c4.47-6.01,31.08-27.1,37.28-25.52,2.1.53,27.26,27.14,30.26,30.88,1.47,1.83,9.96,12.61,8.5,14.03Z"/>
  <path class="uuid-809172bc-aa42-48e8-ad6a-67aef61aaa82" d="M571.05,173.83c-20.55,15.84-32.05,31.34-48.07,51.07-4.04-15.9-12.42-31.72-7.95-48.51,2.41-9.05,9.56-21.11,19.14-23.91,12.47-3.64,32.34,9.63,36.88,21.35Z"/>
  <path class="uuid-e48f270a-6c57-4d09-9522-a33a039108c7" d="M1262.12,236.02c17.35-4.04,35.58-4.33,53.02-.62l1.23,14.76,3.63,13.14-44.37,20.62c-9.12-14.09-15.09-30.9-13.51-47.91Z"/>
  <path class="uuid-39898cb9-cffc-4f79-b594-1887395c8c00" d="M782.35,834.76c-1.28-.76,1.35-2.12-1.52-2.04-4.71.13-9.91,1.9-14.99,1.05l-9.53,1.99c7.38-27.18,11.02-58.32,18.96-84.69.38-1.27.09-2.57,1.59-3.43,1.54-.34,2.09,1.32,2.7,2.28,3.76,5.94,7.34,49.65,7.79,59.31.42,9.1,2.08,19.25-5,25.53Z"/>
  <path class="uuid-dbb5f9da-5d12-4546-887c-99984a4380d9" d="M866.47,433.19c5.04-4.87,17.46-18.68,19.93-24.63,3-7.25,1.12-15.24,4.11-22.43,2.74,2.84,9.61,5.67,8.27,9.7-1.47,4.45-14.95,21.09-18.77,25.36s-8.72,9.5-13.53,12Z"/>
  <path class="uuid-e47502e5-290b-4386-be57-dc54b534516f" d="M650.16,371.11c.43,12.81-19.99,26.23-30.16,31.42-3.63,1.85-12.06,4.08-14.31,5.72-5.35,3.88,1.95,21.92,5.43,26.45,11.96,15.58,45.53,14.93,59.58,2.5,3.09-2.74,8.53-13.45,14.05-8.03,5.13,5.04-.84,17.41-5.53,21.56-18.74,16.6-51.94,14.83-72.25,2.14-3.62-2.26-5.1-6.05-5.88-6.65-1.82-1.4-2.33,1.82-3.42,3.02-7.62,8.3-13.71,9.94-25.08,8.98-10.13-.86-28.99-7.73-21.58-20.58,7.59,2.67,10.39,7.79,19.57,8.56,22.55,1.88,21.31-20.68,20.42-36.94-20.49-4.06-33.69-16.06-35.95-37.15-.8-7.45-1.9-10.34,5.96-14.57,7.42-3.99,22.82-4.2,31.55-4.5,13.46-.46,56.96-2,57.62,18.07Z"/>
  <path class="uuid-809172bc-aa42-48e8-ad6a-67aef61aaa82" d="M829.17,149.06c9.84-1.31,21.25,2.36,25.46,12.07,9.18,21.15-5.59,58.88-16.73,77.8-2.27.53-11.55-11.57-13.47-13.55-12.21-12.59-24.5-25.15-39-35.13,7.12-15.52,25.97-38.83,43.73-41.19Z"/>
  <path class="uuid-e9def6e8-1dc8-4c45-9398-324b0369ea26" d="M804.12,288.16c8.14-1.63,14.6,12.63,16.59,19.05,13.39,43.26-15.8,77.15-59.92,73.94-4.73-.34-23.11-4.21-17.56-11.63,1.7-2.27,26.73-13.6,32.43-17.63,16.02-11.33,22.01-23.94,23.71-43.39.54-6.13-2.8-18.83,4.76-20.34Z"/>
  <path class="uuid-e47502e5-290b-4386-be57-dc54b534516f" d="M710.01,279.17c18-2.52,20.46,26.23,19.25,38.35-.75,7.49-5.91,19.96-13.98,22.07-32.8,8.59-32-56.68-5.27-60.42Z"/>
  <path class="uuid-e47502e5-290b-4386-be57-dc54b534516f" d="M826.41,409.16c-4.25,6.98-11.75,15.2-19.03,19.03-12.36,6.51-32.52,7.83-45.86,4.3-5.33-1.41-15.29-4.85-11.31-11.92,8.17-2.95,17.36-2.64,26.14-4.89,12.21-3.14,28.29-10.88,36.55-20.53,3.65-4.26,10.02-18.18,15.06-19.05,12.26-2.12,5.72,17.39,3.5,23.58-1.3,3.61-3.11,6.29-5.05,9.47Z"/>
  <path class="uuid-e9def6e8-1dc8-4c45-9398-324b0369ea26" d="M563.71,284.3c14.03-.28,12.23,26.93,9.12,36.01-2.91,8.51-11.39,19.79-20.85,11.28-4.27-3.84-7.4-20.32-6.87-25.96.87-9.29,8.43-21.13,18.6-21.33Z"/>
  <path class="uuid-85b31630-b4c7-4163-81aa-1015fba69778" d="M514.83,376.97c-1.55.96-6.38.26-7.92-1.3-6.34-6.44-13.23-37.27-8.84-45,2.13-3.74,6.77-3.99,8.4.37,2.04,5.44,2.71,15.49,4.18,21.86.99,4.31,7.91,21.76,4.18,24.07Z"/>
</svg>