<?xml version="1.0" encoding="UTF-8"?>
<svg id="uuid-58155ac5-1684-4938-953c-fa70083af043" data-name="Layer 1" xmlns="http://www.w3.org/2000/svg" viewBox="0 0 1920 1080">
  <defs>
    <style>
      .uuid-17dea0eb-0eb8-4d54-8687-e20427f50cdc {
        fill: #a87531;
      }

      .uuid-c84ede76-85d7-49dc-bc39-b5617b8f724a {
        fill: #d18a41;
      }

      .uuid-52ac1f9d-9d75-4b32-a213-4156825b57f8 {
        fill: #e89c4e;
      }

      .uuid-003b8a18-ad59-4018-9afb-8a374ce6768b {
        fill: #dda053;
      }

      .uuid-82935388-50f5-4ad4-b723-a9f76de3742b {
        fill: #e9e4dc;
      }

      .uuid-3fd68046-ea7a-4bd3-90e0-d578294ce5d1 {
        fill: #9d6226;
      }

      .uuid-a74fb491-b375-439c-9065-9191b3d5b087 {
        fill: #9d6225;
      }

      .uuid-b12e9505-6eb5-4848-9d08-f080eb310421 {
        fill: #f0b565;
      }

      .uuid-afce8aab-b628-4e73-a136-3d459af51e39 {
        fill: #e79c4e;
      }

      .uuid-1869d3ab-d76a-436d-a008-efe76f500865 {
        fill: #b06e2d;
      }

      .uuid-a4ef2b6d-8b4e-4974-ac33-8705fb74b81a {
        fill: #b26e2e;
      }

      .uuid-f5f14be6-c6aa-42a2-b5fb-edd715083722 {
        fill: #b16e2d;
      }

      .uuid-70e605ea-2d60-4197-9d0f-e9f7c07de394 {
        fill: #6d4a0f;
      }

      .uuid-6602cb6b-1f9d-4ed4-ae83-237e93ef8554 {
        fill: #e79b4e;
      }

      .uuid-307ff5b1-9dee-4827-a310-cfe662f72c42 {
        fill: #dea254;
      }

      .uuid-f270b3f9-baba-4150-94c9-82479ad4557b {
        fill: #fefefe;
      }

      .uuid-621e903f-df84-4873-9f28-722f0d7f28d1 {
        fill: #6c4a0f;
      }

      .uuid-d5b41b78-a0c8-4eb7-b576-ba7fe8047b01 {
        fill: #6d4b0f;
      }

      .uuid-e6bd4317-63de-46d5-a998-464a2e4bc0b7 {
        fill: #f0b665;
      }
    </style>
  </defs>
  <path class="uuid-d5b41b78-a0c8-4eb7-b576-ba7fe8047b01" d="M710.09,373.99c1.15-14.43,10.41-30.53,23.16-37.59,8.64-4.78,19.37-5.81,28.9-3.57,8-31.8,31.43-55.79,60.32-69.86,11.26-5.48,23.93-9.98,36.38-11.48-.86-7.69-1.3-11.72,6.31-15.26,9.77-4.55,21.34-.61,30.87,3.12,1.02.4,4.78,2.62,5.22,2.58.23-.02,2.53-2.34,3.45-2.86,8.99-5.03,18.06,4.05,23.57,10.32.75.85,2.03,3.62,2.82,4.11,1.61.98,8.12,2.02,10.47,2.79,25.65,8.45,45.25,22.16,60.79,44.33,10.05,14.34,16.27,30.11,18.66,47.54,9.84-.53,19.44-1.89,28.4,3.09,38.27,21.26,21.82,88.92-19.99,100.34-7.67,2.1-14.47,1.9-22.27.79-1.94,5.87-5.21,11.77-8.57,16.96-.55.85-3.25,3.75-2.88,4.3.92.14,1.72.74,2.43,1.29,19.88,15.65,39.73,30.43,56.06,50.06,29.73,35.73,51.69,82.01,54.55,128.93.26,4.18-.38,8.48.25,12.64,20.5-13.07,34.24-37.96,35.48-62.21,4.28-84.26-83.96-131.09-64.54-217.79,10.28-45.9,59.87-76.91,102.27-48.1,19.53,13.27,36.59,48.61,22.84,70.58-8.39,13.41-33.32,13.1-39.01-2.84-2.16-6.04-1.03-11.82-3.49-17.83-7.72-18.9-28.57-11.17-34.34,5.31-15.3,43.68,24.97,86.77,42.3,123.61,33.3,70.8,25.99,163.3-53.97,196.98-3.26,1.37-16.68,5.38-18.17,6.62-.83.7-4.94,8.69-6.25,10.61-.93,1.36-5.19,5.94-5.43,6.5-.28.66,1.09,4.67,1.26,5.94,2.27,2.5,1.15,7.86.29,11.09-5.79,21.73-34.95,30.7-54.25,36.19-29.95,8.52-85.49,9.23-62.13-36.93.03-.25-2.53-.83-2.61-.72-6.62,25.3-30.69,55.92-59.68,45.94-5.57,1.06-10.88.9-15.94-.47-13.05-4.5-28.25-10.69-26.08-27.36-7.76-.03-15.35-2.23-20.87-7.75-3.01,12.42-15.13,17.13-25.58,9.61-5.25,6.12-9.42,9.88-17.67,10.35-13.56.77-35.89-2.38-42.64-15.95-.89-1.78-2.36-4.83-1.28-6.37-.34-2.47-.26-4.88.21-7.22,2.37-15.3,12.72-21.87,18.59-33.72,2.48-4.99,4.64-13.99,6.22-19.61,15.26-54.12,21.21-110.21,30.85-165.48,1.28-7.35,2.9-14.73,4.71-21.97-.12-.85-9.29-3.66-10.93-4.31-26.76-10.73-53.1-27.99-63.08-56.43-2.5-7.13-4.55-15.21-3.28-22.76-15.47-5.63-26.14-19.99-30.83-35.36l-1.85-10.31c.2-3.4-.27-7.06,0-10.41Z"/>
  <path class="uuid-82935388-50f5-4ad4-b723-a9f76de3742b" d="M1087.91,743.94c1.27-.71,2.81-.57,4.21-.49,25.54,1.52,75.12,11.49,95.4,27.07,21.49,16.51,6.93,31.69-11.02,41.44-38.39,20.85-103.28,27.97-146.86,31.15-77.08,5.64-176.31,3.68-250.64-18.1-19.68-5.77-75.19-24.45-46.87-52.33,4.92-4.85,18.45-12.57,25.04-14.63.51-.16.95-.33,1.5-.23l.49,3.96c.2-1.99-.26-4.32-.02-6.24.08-.69.51-1.1.52-1.19-1.25,9.24,2.51,17.77,10.89,22.09,3.15,1.62,12.37,5.35,15.65,5.68,4.92.5,16.73,1.34,21.2.39,5.42-1.15,10-6.34,13.5-10.29,11.15,8.07,22.09,3.36,25.06-9.67.49-2.16,1.13.16,1.69.75,5.77,6.07,12.96,7.27,21.11,7.43-2.15,10.86,4.3,19.1,14.11,22.83,3.93,1.5,6.41,2.51,10.2,4.18,7.36,3.25,10.33.51,16.57.79,1.59.07,4.26,1.64,6.54,1.89,26.37,2.85,46.73-25.1,52.29-48.01l4.92.96c-4.82,9.89-10.5,22.57-1.81,32.05,10.93,11.92,36.46,10.11,51,7.47,14.58-2.64,46.96-13.18,56.67-24.15,6.32-7.13,9.99-15.19,8.67-24.8Z"/>
  <path class="uuid-1869d3ab-d76a-436d-a008-efe76f500865" d="M995.68,486.56c7.67,6.12,16.01,11.44,23.54,17.87,37.37,31.9,68.59,80.38,76.96,129.33,4.9,28.66,5.05,69.78-13.32,93.98-1.03,1.36-4.99,4.7-5.27,5.64-.75,2.54.66,9.54.61,12.79-.25,18.52-17.75,23.97-32.45,29.51l-.95-1.31c.05-11.8-9.42-20.13-19.24-25.05l-.63-1.42c3.49.22,11.77,2.33,14.17-.46.65-.75.93-1,.47-2.01-1.27-2.84-12.88-5.28-16.26-6.58-19.34-7.43-35.41-24.52-35.44-46.12,5.7-17.68,7.66-38.2,13.29-55.64,6.14-19.02,26.78-25.24,44.7-21.45,2.33.49,11.99,4.03,13.31,3.11,1.65-4.02-4.99-8.18-8.12-9.79-12.41-6.39-27.78-5.43-39.66,1.67l-6.79,4.86c.82-8.22,1.72-17.78.98-26.02-.5-5.59-4.23-13.85-6.7-3.75-2.91,11.89-3.05,26.73-5.32,39.31-7.57,41.97-21.47,92.65-37.05,132.29l-1.1-.07c-3.81-5.84-10.66-5.74-16.97-5.21l-3.12-.31c-8.14-4.97-16.6-9.51-26.71-8.02l-1.17-.78-1.41-5.58c13.35-33.6,21.41-71.25,25.7-107.25,1.72-14.43,3.79-32.25,3-46.63-.46-8.32-2.92-17.28-6.24-3.22-1,4.23-1.24,8.68-2.21,12.91l-1-.91c-.23-16.91-23.09-28.97-37.87-31.68l-1.29-1.13c.98-.48.46-1.33-1.58-2.56-1.17-3.15-4.78-9.71-3.57-2.24-3.03,2.58-9.75,3.19-9.29-2.51-1.63-1.44-2.16-3.4.07-4.41-.82-1.17-2.59-1.46-3.98-1.49.55,5.99-5.27,2.4-3.64-1.18,2.92-1.3-1.99-.57-3.09.1,1.67,1.2.94,2.73.18,4.24,2.88-.44,3.76,1.17,2.62,4.82,3.72,3.15.41,5.53-3.32,4.43-.86.52-1.66.61-2.39.26,1.22,4.22-1.62,3.54-4.42,2.58l.05,2.21c-2.47,2.32-6.91,1.46-5.49-2.94l-2.82-.2c.48,4.06-2.12,5.37-3.76,1.12-4.46,1.16-7.98-.2-7.45-5.25-3.53-.34-3.24-4.79.06-5.32-5.8-3.12-2.07-5.31,2.51-5.29-.85-1.77-1.62-3.91.75-4.94.16-.33-3.46-5.04-4.88-4.99-2.2-.52-4.3-1.29-6.31-2.3l-.24-1.42c.06-.3-.06-.69,0-.99.37-.14.74-.26,1.12-.32.96-.14,16.15,4.56,18.52,5.43.69.25,1.21.79,1.68,1.33l-.07,1.22c1.25,2.08,1.04,3.41-.63,3.99-1.89-1.03-3.02-1.34-2.89,1.31-2.56,1.87-2.47,2.04.61,1.86-.11-2.65,1.81-2.62,3.18-.73.77.49,6.06.76,6.18.46.5-1.25-2.72-2.06-3.6-1.92-1.74-1-1.72-4.47-1.29-6.19.86-1.2,1.98-.97,1.98.5.39,1.56,11.3,1.88,12.5,1.41l.89-.92c-.06-.38-.07-.97.16-1.03,3.09-.78,13.72-2.91,16.44-2.82l.75.88c.16,1.09.95,1.81,2.38,2.16.59,1.13,1.14,1.6,1.64,1.43-2.14-2.17-.76-3.61,1.8-4.13l.13-1.44c3.79-2.68,7.98-4.9,12.58-6.65,20.81-11.31,41.83-20.49,64.78-25.81,11.36-2.84,20.7-8.1,29.44-15.15l1.29.5Z"/>
  <path class="uuid-e6bd4317-63de-46d5-a998-464a2e4bc0b7" d="M866.77,508.87c-32.8,1.05-70.94-11.39-94.7-34.22-20.91-21.76-18.24-59.31,3.71-79.2,2.06-1.85,2.02-3.71,1.8-6.33-8-30.72,3.64-67.93,37.05-77.23,18.74-5.22,33.32,4.58,46.41,16.25l1.09.28c13.7-8.48,27.81-16.4,44.82-17.17,54.56-2.47,77.61,55.89,47.18,96.19-1.29,1.64-1.55,3.15-.78,4.54,10.2,9.63,11.53,25.1,8.75,38.38-8.96,42.78-55.86,59.78-95.32,58.5Z"/>
  <path class="uuid-1869d3ab-d76a-436d-a008-efe76f500865" d="M772.06,474.66c-12.58-12.09-21.38-29.38-19.27-47.3.96-8.14,4.12-17.87,7.29-25.44.42-1,3.18-7.16,3.53-7.37.3-.17,4.32.76,5.49-.24-1.39-10.41-2.03-21.48-1.51-32,2.31-47.38,27.09-79.74,71.3-95.81,6.12-2.23,22.67-7.31,28.6-7.03,1.75.08,3.76,1.96,6.12,2.31,13.21,1.98.51-6.54-2.12-9.78-2-2.47-4.98-6.95-.26-8.2,4.68-1.24,23.34,5.09,27.53,8.19,2.16,1.6,8.68,9.65,10.49,9.81.89.08,3.67-1.45,3.57-2.53-.13-1.41-5.64-10.49-4.39-11.74,4.79-.83,9.48,4.3,12.41,7.67,1.36,1.56,2.3,3.62,3.46,4.97,2.76,3.21,19.13,7.12,24.43,9.29,29.46,12.06,54.43,39.76,61.22,71.17.48,2.2,2.22,11.58,1.36,13.01-.37.61-5.33,3.55-6.43,4.48-3.77,3.16-8.13,8.28-9.92,12.89-2.36,6.08-.54,8.87,5.69,5.45l1.06.92c.36,3.36,1.8,6.52,3.98,9.09l-.08,1.4.24,1.48c-5.41,10.56-4.5,23.49-3.4,34.92l-.8.79-.18.95c-2.26,4.09-3.03,8.93-2.79,13.43-2.76-.27-2.59,4.18-3.47,5.95-.15.66-.15,1.35.01,2.06-10.99,18.17-24.38,34.25-43.69,45.11-4.9,2.75-19.97,10.32-24.73,10.09-.51-.02-1.01-.12-1.51-.23-16.74,5.01-38.28,7.13-55.79,6.95-.84,0-2.2.32-2.72-.5,30.76-.98,66.6-9.55,84.9-36.34,10.42-15.26,15.56-39.63,4.55-55.86-2.51-3.7-5.96-4.17-3.58-8.62,3.21-5.99,7.22-9.97,9.83-16.95,10.91-29.25-.06-64.55-30.99-75.15-22.97-7.87-42.18-2.8-62.19,9.22-1.64.98-5.29,4.08-6.73,4.22-3.05.3-5.73-3.72-7.96-5.48-13.87-10.96-27.07-16.21-44.62-9.45-25.23,9.72-36.52,38.03-33.4,63.68.54,4.41,2.87,11.1,1.8,15.31-.45,1.78-6.71,7.49-8.3,9.55-14.44,18.79-14.97,46.69-1.9,66.35,1.22,1.83,3.07,3.3,3.87,5.3Z"/>
  <path class="uuid-a4ef2b6d-8b4e-4974-ac33-8705fb74b81a" d="M1102.79,708.73c3.63-9.88,4.72-20.37,6.2-30.74,11.94-5.36,21-14.55,28.41-25.14,19.15-27.38,20.26-58.27,12.34-90.02-16.01-64.23-76.55-103.26-59.7-177.04,7.75-33.94,42.74-57.2,76.7-44.28,19.59,7.46,36.74,32.6,32.62,53.93-1.95,10.12-8.93,15.07-19.13,11.93-6.65-2.05-5.34-10.44-6.1-15.72-2.58-17.84-18.6-29.3-36.13-22.37-26.44,10.46-25.35,48.78-18.99,71.55,7.48,26.79,25.95,48.1,38.41,72.67,25.37,50.03,35.3,115.12-3.57,161.25-13.41,15.91-31.67,26.8-51.06,33.98Z"/>
  <path class="uuid-e6bd4317-63de-46d5-a998-464a2e4bc0b7" d="M886.11,559.46c12.66,1.07,26.8,9.65,34.96,19.33,4.52,5.37,5.16,7.37,5.2,14.39.15,25.52-5.86,59.22-11.4,84.31-.78.87-1.36.37-1.76-1.5-4.97,1.12-9.16.1-13.86-1.27-1.97-.72-3.47-.02-4.48,2.11l-3.99,1.29,4.35,3.72c.75.91.63,1.58-.59,1.6-9.45-8.12-17.73-18.79-24.5-29.3-7.04-10.93-15.98-27.45-18.64-40.13-6.72-19.73-1.35-49.55,22.03-54.78,3.8-.85,9.45-1.88,12.67.23Z"/>
  <path class="uuid-f5f14be6-c6aa-42a2-b5fb-edd715083722" d="M826.11,532.18c2.96,2.58,6.99,1.7,9.94,4.71.36.36.33,1.14.65,1.57.51.69,2.28,1.25,1.78,2.85-.25.81-1.92.24-1.45,2.5.4,1.9,4.58,3.78-1.18,2.91l-3.77,1.1c-.3,1.41,5.24,2.83,3.71,4.71-2.54-1.66-4.37,2.06-1.97,2.96,1.16.44.8-1.59,1.32-1.91.43-.26,1.41.13,1.81-.14.79-.5-.57-2.67,3.3-1.92,2.45.48,1.5,4.17-1.18,4.7-1.58.31-5.05-1.26-3.45,3.4.63,1.85,4.87,1.7,6.36.82l-1.98-2.47c.64-.48,2.84.11,2.97,0,.21-.18-.66-4.96,0-5.45,1.57-1.15,2.1,3.48,2.46,3.76.3.23,4.62-.82,5.46,1.45-1.45,2.3-4.18-.89-4.96-.52-.21.1-3.46,2.85-3.49,3.08-.16,1.53,2.05,4.77,2.01,2.38-.01-.6-.48-2.88,0-3.21.19-.13,3.35.84,4.44,0,.77,1.58.05,2.84.02,4.45,3.34-.62,4.72,1.64,3.47-2.97,1.62-1.18,3.95.49,4.22.48,2.36-.06-.72-4.44-.75-4.7-.04-.47.24-3.56.79-3.68,2.51,0,3.83.37,5.64,2.19-1.25,1.76-2.49-.25-3.95-.25.03,1.25-.38,2.65.74,3.46,1.23-1.73,3.55.13,4.74-.7,2.01-1.4-1.03-2.89-1.06-3.08-.25-1.55,2.54-5.91-2.33-3.82-.78.34-.86,1.5-1.39,1.63-.23.06-3.03-.86-2.69-1.7.86-2.11,1.55.94,2.99.02.24-.15,1.7-3.38,1.75-3.73.19-1.36-2.56-1.42-2.27-2.99,2.12.83,6.43-2.27,7.37.31.68,1.86-1.18.92-1.42,1.17-.38.39.6,2.66,1.25,2.97,1.37.66.45-2.69.74-2.96.89-.83,4.9.07,5.71,1.47,1.03,1.77-.67,1.48-1.01,1.97-.93,1.35.81,1.86,1.14,2.86.47,1.41-.47,3.15,1.86,3.6.93.18,5.24-.55,5.69-.98.13-.13-.88-1.52-.79-2.23.05-.43.9-.98.79-1.48s-1.49-.58-1.53-1.03c-.06-.72,1.19-1.97,1.03-2.19-.06-.08-1.31-.13-1.74-.99-1.57-3.13,2.81-2.28,3.1-.69.08.43-.37,1.06-.3,1.44.65,3.5,1.34,2.75,2.63,4.71.9,1.36,1.57,5.99,4.4,5.47.23-.04,2.38-2.9,3.8-2.51-.57.91.14,3.84-.46,4.23-2.04,1.3-2.43-1.24-2.76-1.25s-.75,2.2-2.23,1.48c-32.83-2.78-40.25,28.12-34.71,54.55-5.86-13.14-8.8-27.48-13.13-41.17-4.92-2.36-3.97,7.22-3.72,10.17,1.05,12.54,7.85,34.8,12.39,46.87.45,10.21-1,21.45-2.37,31.96-2.19,16.84-5.56,32.93-10.8,48.74-2.43,7.32-2.96,14.43-2.57,21.83l-1.12.62-1.24.29c-2.34-1.61-5.26-2.1-8.04-1.76-2.83,1.16-5.27,1.31-8.03-.11-7.68-4.35-17.07-6.58-25.88-5.12l-.94-.74c8.68-25.02,15.27-51.36,20.6-77.34,7.87-38.45,11.79-77.62,19.57-116.06Z"/>
  <path class="uuid-3fd68046-ea7a-4bd3-90e0-d578294ce5d1" d="M995.68,486.56c-3.84,1.6-6.87,5.35-10.25,7.35-14.23,8.4-34.11,11.12-49.74,17.2-16.23,6.32-31.34,15.97-48.1,22.56.02,1.73-4.57,2.61-5.95,1.98l-17.35,2.98c-3.69,1.34-9.91,1.55-13.39-.5-.44-.05-1.24-.38-1.98-.5-.22,1.39-1.03,1.32-1.49,0-7.23-1.26-14.41-4.11-21.32-6.45,1.1-5.35,2.74-10.6,3.57-16.02l.63-.76c3.26,1.03,6.61,1.82,10,2.33,21.94,3.28,59.03,3.22,78.95-7.18,2.32-1.21,8.34-4.03,6.01-7.13,23.28-6.97,42.56-18.75,57.23-38.23,3.25-4.32,10.46-14.33,12.69-18.8-.42,2.28,3.23,3.09,2.78,4.96-.35,1.45-5.98,10.27-7.23,12.16-5.5,8.3-13.33,17.38-21.38,23.25-2.83,2.07-22.3,12.79-21.77,14.92,2.71,2.62,7.6.95,10.9,0,6.33-1.82,11.47-5.28,16.82-8.96l13.74-11.08c.74-.13,5.61,5.1,6.63,5.92Z"/>
  <path class="uuid-b12e9505-6eb5-4848-9d08-f080eb310421" d="M998.66,439.45c-2.34-2.12-.12-9.03.9-11.75.28-.75.92-2.89,2.08-2.63,1.06-.62,3.14.31,3.47,1.49l1.04.15c.96,2.22,6.22,1.85,8.48,1.68,18.61-1.39,27.01-21.48,28.3-37.9.68-.36.96-1.07.85-2.12l-1.21-.84c-4.78-16.64-27.64-10.22-35.68.24l-1.29.11c-2.92-3.08-4.8-7.16-4.96-11.41,14.21-31.07,57.25-24.46,59.52,10.64,2.07,32.02-20.32,62.01-54.58,54.59-1.59-.34-5.86-1.29-6.92-2.25Z"/>
  <path class="uuid-e6bd4317-63de-46d5-a998-464a2e4bc0b7" d="M956.51,757.33c-4.88,12.41-11.59,23.56-23.96,29.84-4.49,2.28-16.28,6.58-18.59.03-2.07-5.86,7.98-16.59,11.73-20.8-.07-5.1-6.51-.18-8.58,1.36-6.56,4.89-12.21,12.99-12.66,21.31-12.23,1.96-12.76-8.01-7.64-16.32,2.04-3.32,8.02-8.64,9.17-11.16,2.38-5.26-4.16-2.71-6.65-1.2-6.79,4.15-13.89,13.59-14.22,21.74-13.38-3.49-4.14-17.52,1.48-24.07,4.12-4.8,14.75-13.7,20.84-15.11s14.94.59,20.68,3.37c1.88.91,5.52,4.02,7.44,4.46,3.42.77,8.25-.37,12.07.33,3.01.55,7.81,3.17,8.9,6.22Z"/>
  <path class="uuid-e6bd4317-63de-46d5-a998-464a2e4bc0b7" d="M830.08,733.03c.25-.1.51-.18.76-.21,2.02-.22,8.15,12,6.18,14.59.89,1.65,1.06,3.63.5,5.95,0,5.5-.47,14.56-8.2,11.92-6.65-2.26-.36-8.61-1.43-13.44-.27-1.2-2.05-4.24-3.46-3.9-.87.21-7.41,13.39-8.82,15.49-2.79,4.13-7.89,10.56-13.51,9.73-8.24-1.21-2.24-11.84-.04-15.85.79-1.43,4.57-6.42,4.65-7.27.09-.95-1.51-2.25-2.54-2.08-2.81.44-10.33,9.38-11.78,12.08-2.03,3.79-2.66,7.8-2.54,12.09-11.92,2.5-7.97-13.76-5.12-20.24,1.17-2.66,5.28-7.68,3.73-10.21-1.91-3.12-4.93.75-6.46,2.52-5.4,6.29-7.9,14.31-8.19,22.55-7.2-4.5-4.59-14.19-1.83-20.67,1.61-3.78,10.64-19.25,13.97-20.49,4.99-1.86,16,.07,21.08,1.98,3.07,1.15,7.28,4.27,10.35,3.96,1.12-.11,2.19-.83,3.52-.97,3.18-.34,6.69.37,9.18,2.48Z"/>
  <path class="uuid-e6bd4317-63de-46d5-a998-464a2e4bc0b7" d="M1024.94,747.91c11,5.29,21.64,14.41,20.82,27.77-11.3,4.26-23.06,7.78-35.23,8.22-1.52-7.66,3.9-16.39,9.47-21.45-.58-5.5-5.48-1.1-7.73.82-6.41,5.46-11.07,12.52-10.15,21.34-11.25,1.47-15.29-4.22-9.93-14.15,1.23-2.29,9.02-10.61,8.9-11.32-.74-4.36-8.87.79-10.37,2.66-1.67.82-1.28-1-.16-2.09-1.13-2.82-2.1-5.87.16-8.32,9.98-4.78,23.47-4.15,34.21-3.47Z"/>
  <path class="uuid-e6bd4317-63de-46d5-a998-464a2e4bc0b7" d="M746.28,411.68c-.47,1.82-1.55,5.2-2.36,6.81-.23.46.13.81-.85.64-3.01-.53-10.56-8.15-12.57-10.75-15.95-20.72-13.11-60.46,16.16-65.98,2.15-.41,11.73-1.42,12.44.67,1.36,4-2.39,15.19-1.43,20.02-8.32-4.61-18.01-4.78-22.8,4.46-2.34,10.05-2.99,18.44,3.82,26.99,3.01,2.77,6.26,5.24,9.75,7.42.37,3.32-.35,6.56-2.16,9.73Z"/>
  <path class="uuid-a74fb491-b375-439c-9065-9191b3d5b087" d="M838.01,747.41c-.8.11-.24-1.22-.2-1.15.1.19-.26,1.48-.79,1.15-.82-4.58-3.33-11.31-6.94-14.38.63-2.77-.2-5.75-.02-8.7.64-10.34,6.35-24.29,8.71-34.93,3.88-17.49,6.16-35.49,7.18-53.32.1-1.83.55-4.4.99-6.2,1.55,4.14,12.91,25.46,12.78,26.95-.07.81-1.38,2.53-1.74,3.69-3.16,10.31-5.09,21.06-8.32,31.35-2.66,8.47-11.15,27.1-11.15,34.96v8.43c0,.19.51.82.51,1.47.04,3.56.06,7.25-1.01,10.68Z"/>
  <path class="uuid-3fd68046-ea7a-4bd3-90e0-d578294ce5d1" d="M895.03,728.56c3.55-4.42-5.05-7.71-8.09-10.01-9.73-7.36-16.02-16.76-19.65-28.45-2.78-8.95-3.7-13.7-1.05-22.81.18-.63.04-1.26.78-1.69,8.12,12.97,18.83,24.73,31.33,33.62,2.84,2.02,6.3,4.67,9.58,5.55-2.42,7.97-4.85,15.98-7.69,23.82-.18.5-.69.82-.75.97-.8,2.21-3.47.27-4.46-.99Z"/>
  <path class="uuid-52ac1f9d-9d75-4b32-a213-4156825b57f8" d="M746.28,411.68c.45-1.76,1.96-8.22,1.24-9.42-.26-.43-5.62-3.33-6.95-4.45-8.6-7.28-10.79-20.42-5.69-30.26l.5,2.97c.49.36,5.07-3.35,6.71-3.45,1.4-.08,7.47.94,8.85,1.52,5.39,2.22,7.21,16.78,6.03,21.81-.48,2.04-2.89,5.05-3.84,7.07-2.21,4.69-3.84,10.03-6.85,14.22Z"/>
  <path class="uuid-f270b3f9-baba-4150-94c9-82479ad4557b" d="M875.69,723.1c-9.06,1.34-18.03,4.09-24.28,11.17l-5.46,8.17c-1.57-8.06.11-14.51,2.46-22.08,2.82-9.08,6.75-17.88,9.44-27.01l3.88,9.75c3.59,7.37,8.47,13.95,13.97,19.99Z"/>
  <path class="uuid-afce8aab-b628-4e73-a136-3d459af51e39" d="M899.49,729.56c-.66,1.85-1.95,7.9-2.75,8.9-.92,1.16-4.93,3.28-6.41,4.5-3.02,2.48-7.28,6.13-9.94,8.9-1.37,1.42-6.95,9.17-7.52,9.34-1.08.34-3.78.12-4.37-.89-1.95-3.3,2.88-11.64,5-14.36.69-.89,4.67-4.41,4.67-4.74.01-2.49-7.17-.58-8.42.74-1.96.6-1.09-1.7.52-2.23,2.96-.35,3.61-2.26,1.96-5.71,6.41-1.59,12.84-2.08,18.95-3.61,1.22-.31,3.3-1.73,3.85-1.85,2.11-.47,2.85,1.89,4.46.99Z"/>
  <path class="uuid-3fd68046-ea7a-4bd3-90e0-d578294ce5d1" d="M982.79,712.2c1.37,7.29,6.83,13.87,11.65,19.35.93,1.06,6.49,6.14,6.55,6.67.03.24-.37.82-.41,1.2-3.69.48-7.91,1.08-11.45,2.18-2.14.66-6.46,3.34-8.07,3.35-1.92.01-5.64-1.96-7.93-2.52-.57-.14-.92.41-.75-.71l10.4-29.52Z"/>
  <path class="uuid-307ff5b1-9dee-4827-a310-cfe662f72c42" d="M894.53,683.44s.52-.13-.18-.98-4.76-3.59-4.76-4.23c0-1.52,3.8-1.74,4.6-2.2.65-.37.97-2.12,2.19-2.44,2.26-.59,7.91,1.65,10.28,1.93,1.43.17,7.42-.81,7.7-.51.2.21-.41,2.16.5,2.48-1.39,6.3-3.05,12.55-4.47,18.84-5.16-3.98-11.64-7.92-15.86-12.89Z"/>
  <path class="uuid-c84ede76-85d7-49dc-bc39-b5617b8f724a" d="M872.22,734.02c1.05-.42,1.66,2,1.75,2.49.82,4.15-2.29,3.02-4.27,4.74-.47.41.07.68.04.71-3.34,3.12-7.5,6.98-8.31,11.77-.34,2.01.2,4.08-.62,6.08-11.85-1.82-6.71-16.05-.23-21.31,3.9-3.17,7.18-3.37,11.64-4.48Z"/>
  <path class="uuid-003b8a18-ad59-4018-9afb-8a374ce6768b" d="M990.73,751.38c.69,1.26-.46,2.25-.45,3.66,0,1.27,1.45,4.63,1.38,4.94-.12.54-.94.87-1.14,1.32-.12.28.23.47.22.49-.93,1.46-2.4,2.39-3.39,3.8-3.07,4.4-5.68,9.54-5.54,15.04-11.92-7.01.09-25.02,8.93-29.26Z"/>
  <path class="uuid-f5f14be6-c6aa-42a2-b5fb-edd715083722" d="M838.01,747.41c.08,1.8.35,4.53-.5,5.95,0-1.86-.17-4.13-.5-5.95.81-1.7.88-2.4.99,0Z"/>
  <path class="uuid-f5f14be6-c6aa-42a2-b5fb-edd715083722" d="M848.92,537.64c1.35,1.21.63,4.1,1.21,4.99s3.33-.55,4.5,2.48-2.03,1.43-2.98,1.45c-2.79.05-3.66,1.14-5.95-1.97-.63.37,0,2.24-.24,2.48-.22.22-6.14.45-4-2.28.61-.78,2.02-.34,1.52-2.18-.22-.22-4.02.41-3.47-1.48,1.49-.96,2.35.27,3.28.35,1.28.11,2.73-1.16,3.91.62,2.14-1.89-2.84-2.42.74-4.45.46.08,1.02-.07,1.49,0Z"/>
  <path class="uuid-f5f14be6-c6aa-42a2-b5fb-edd715083722" d="M887.59,533.67c2.84,2.21-.43,2.46-1.65,2.99-1.42.61,1.24,2.72,1.91,2.96,1.22.43.47-1.72,1.52-1.95,2.29-.51,2.62,3.94-.14,4.36-.84.13-1.74-1.65-2.98-1.82-.7-.1-1.97.56-2.12.42-.08-.07.09-1.36-.7-2.03-.69-.58-2.35-.67-3.27-.96-.08-.1,1.33-1.86,1.49-1.98,1.39-1.04,4.12-1.26,5.95-1.98Z"/>
  <path class="uuid-f5f14be6-c6aa-42a2-b5fb-edd715083722" d="M864.29,538.63c1.81,3.02-4.1,1.52-5.15,1.54-2.8.04-3.96,1.2-7.16-.39-.94-.47-1.35.14-1.07-1.64,4.34.51,9,.48,13.39.5Z"/>
  <path class="uuid-f5f14be6-c6aa-42a2-b5fb-edd715083722" d="M850.9,554.49c-.29-.3.1-1.71.76-1.98,2.17.42,4.21,2.75,2.97,4.97-.97,1.73-1.93-2.51-2.25-2.75-.42-.32-1.4-.15-1.48-.24Z"/>
  <path class="uuid-f5f14be6-c6aa-42a2-b5fb-edd715083722" d="M841.97,551.02c-.62.64-2.54-1.34-2.92-1.79-1.1-1.29.18-1.83,1.45-1.95.29.67,1.92,3.28,1.47,3.74Z"/>
  <path class="uuid-f5f14be6-c6aa-42a2-b5fb-edd715083722" d="M843.46,539.12c-.7.94-4.69.48-3.47-1.98,1.05-.61,4.29.87,3.47,1.98Z"/>
  <path class="uuid-70e605ea-2d60-4197-9d0f-e9f7c07de394" d="M857.35,429.03c-3.8.47-6.28,1.96-7.44,4.46-.48,4.59-.46,17.13.73,21.33.89,3.15,2.41,4.81,5.6,5.8,7.25,2.24,20.09-3.46,25.63-8.3,3.38-2.96,8.28-12.89,13.11-8.13,3.44,3.4-.05,8.87-2.45,11.85-16.65,20.68-58.94,20.89-78.56,4.71-4.17-3.44-12.38-13.51-6.33-18.34,4.78-3.81,7.62,4.42,10.27,7.45,5.82,6.65,15.45,10.57,24.05,11.89-3.54-9.75-1.15-20.27-2.58-30.39-5.06-5.45-17.27-15.13-6.69-21.77,7.24-4.55,19.32-3.59,26.96-.49,14.18,5.76,7.82,14.56-2.32,19.93Z"/>
  <path class="uuid-d5b41b78-a0c8-4eb7-b576-ba7fe8047b01" d="M918.65,403.56c-7.53,7.08-15.66.99-17.55-7.64-1.65-7.53,1.03-23.13,9.03-26.42,9.71-4,14.34,8.52,14.66,16.11.22,5.31-2.21,14.25-6.14,17.95Z"/>
  <path class="uuid-d5b41b78-a0c8-4eb7-b576-ba7fe8047b01" d="M811.1,365.67c10.42-2.12,12.7,13.18,11.97,20.41-.69,6.82-7.09,21.72-15.88,16.01-5.9-3.83-6.84-15.49-5.76-21.78.8-4.63,4.5-13.58,9.66-14.63Z"/>
  <path class="uuid-17dea0eb-0eb8-4d54-8687-e20427f50cdc" d="M857.35,429.03c-.82.43-1.6,1.12-2.62,1.6-1.87.87-3.51.22-4.82,2.87.07-.66.04-1.21.36-1.85.58-1.14,5.59-3.67,7.07-2.61Z"/>
  <path class="uuid-621e903f-df84-4873-9f28-722f0d7f28d1" d="M1043.78,388.37c.07,2.64-.82,4.11-3.2,2.12-8.75-11.01-26.85-.68-30.41,10.32,1.28,6.72,2.66,14.18.49,20.97-.71,2.23-3.19,7.09-5.56,4.78-.9.1-3.05-.68-3.47-1.49-.21-.41-.47-2.56-.52-3.2-.76-10.17-1.29-25.49,4.48-33.99,8.17-12.02,34.4-18.51,38.18.5Z"/>
  <path class="uuid-6602cb6b-1f9d-4ed4-ae83-237e93ef8554" d="M1005.1,426.55c6.16-.68,5.89-13.7,5.45-18.1-.64-6.31-3.41-6.18,1.08-12.81,5.24-7.74,18.52-14.66,27.15-8.48,1.52,1.09,4.07,6.03,4.99,1.21.78,3.91-1.7,14.3-3.23,18.34-2.23,5.9-9.65,17.74-15.62,20.08-1.88.74-9.36,2.64-11.22,2.71-.89.03-6.16-.39-6.76-.57-.9-.26-1.74-1.43-1.84-2.38Z"/>
</svg>