<?xml version="1.0" encoding="UTF-8"?>
<svg id="uuid-57cb8683-3587-4376-a36d-18108aad58db" data-name="Layer 1" xmlns="http://www.w3.org/2000/svg" viewBox="0 0 1920 1080">
  <defs>
    <style>
      .uuid-e94d9a41-68d6-4949-9357-6d74660c38a0 {
        fill: #d57b67;
      }

      .uuid-aebe92ce-2edb-4c09-ae05-ece02c768c70 {
        fill: #f9b7a9;
      }

      .uuid-ba00d76a-ea8f-4fae-a552-fbefe9d19501 {
        fill: #f69b81;
      }

      .uuid-69e511f5-e826-4544-9e9b-cb560df66b6c {
        fill: #471d05;
      }

      .uuid-c746f90e-e251-4372-a27e-c5f570000151 {
        fill: #380d03;
      }

      .uuid-abfb4685-5da4-462b-975a-6f6bc2d17f0c {
        fill: #411602;
      }

      .uuid-7610a56d-8bcc-40ad-8302-edd704f29c46 {
        fill: #694114;
      }

      .uuid-41dd503b-37bc-49ae-9314-22d018d76aa4 {
        fill: #f8b2a4;
      }

      .uuid-fa067300-a597-47eb-b2fa-346908332968 {
        fill: #694115;
      }

      .uuid-94d7be21-527f-4ad7-9239-bbb73b280eb9 {
        fill: #6a4114;
      }

      .uuid-81d70cb1-ac89-4739-9664-cf3fac72cd22 {
        fill: #e3dcd1;
      }

      .uuid-604edb37-5b05-4ea7-ae9d-039b70de9b0c {
        fill: #eb876f;
      }

      .uuid-9cb5ff77-1887-4b64-b123-42e3d99d0f9c {
        fill: #f09b89;
      }

      .uuid-16e989da-1192-43e9-99a3-c8900e557aad {
        fill: #300e04;
      }

      .uuid-c885e6d5-e8be-451a-9991-182c062d20e9 {
        fill: #f69c82;
      }

      .uuid-d69d9bff-2a18-4961-8f04-7fcd2dee893f {
        fill: #8e4d1d;
      }

      .uuid-53f6063b-26e3-4632-9cdc-8dc6bd579dcb {
        fill: #ed8870;
      }

      .uuid-e782c117-fc89-4613-8ae5-01e55f4b2915 {
        fill: #fefefe;
      }

      .uuid-18199303-3427-4eef-822b-80a0c6f6ffac {
        fill: #ee967e;
      }

      .uuid-1f8dc247-a952-4627-9587-bebb9f1a638c {
        fill: #f69a80;
      }

      .uuid-c3a7ee1d-4977-4466-801b-aebe51190141 {
        fill: #ef9b89;
      }

      .uuid-d832f850-bd16-48f3-a746-2853afa3705e {
        fill: #f09b8a;
      }

      .uuid-f5aeebfa-4c92-412c-9c6b-24e1b4dd9109 {
        fill: #8a4d1c;
      }

      .uuid-78371c30-5ce0-4c9c-828d-d007a8c35034 {
        fill: #f09c8a;
      }

      .uuid-70faa05b-2837-4d25-8cfb-a3d54ea98a1f {
        fill: #804b1a;
      }

      .uuid-4e234da6-89ac-4194-a413-9e6dcedae9a4 {
        fill: #523609;
      }

      .uuid-254e4257-4510-4941-b93f-535d7aec2622 {
        fill: #f8b7a8;
      }

      .uuid-5bbc59c3-5e8a-43af-8ac6-72ae8ca59668 {
        fill: #8b4d1d;
      }
    </style>
  </defs>
  <path class="uuid-7610a56d-8bcc-40ad-8302-edd704f29c46" d="M729.84,786.03c6.84-39.83,12.79-90.54,5-130.53-.64-3.3-7.58-13.73-9.46-18.6-7.13-18.53-9.8-40.04-11.34-59.72-21.68-8.21-43.46-18.07-61.51-32.87-40.83-33.48-54.15-88.47-31.66-136.64,3.27-7,9.07-14.47,11.69-21.4s3.86-16.49,6.12-24.09c4.05-13.6,9.58-26.88,15.41-39.78-6.13-8.93-13.28-17.25-18.04-27.07-13.6-28.07-13.54-63.86-12-94.52.87-17.21,4.46-41.41,25.66-43.4,16.12-1.51,48.87,6.76,65.01,11.78,25.59,7.96,46.75,24.51,53.24,51.44,8.6-1.52,16.99-4.32,25.64-5.66,7.59-1.17,15.74-1.91,23.28-2.26,12.28.39,24.51.63,36.69.72,9.44.77,19.4,1.97,28.8,3.93,11.73,2.45,22.96,6.66,34.49,9.74,9.22-27.68,37.49-45.1,64.87-51.32,16.65-3.79,51.14-9.19,66.95-4.59,9.11,2.65,14.09,12.11,16.39,20.66,3.45,23.55,3.69,47.53.72,71.93-2.08,15.88-5.9,29.59-14.94,42.97-8.21,12.15-20.5,24.5-34.69,28.98,1.57,1.61,1.45,6.01,2.5,7.2.84.95,5.08.8,5.41,2.14l1.17.73c24.59.04,48.9,1.71,72.93,5.02,32.89,6.39,63.46,20.08,89.54,41.02,1.67,1.35,9.45,9.33,10.67,9.21.33-.03,6.26-2.06,6.26-2.4-6.58-5.04-9.75-15.01-10.7-23.12-4.87-41.76,46.81-64.53,74.73-33.01,12.36,13.95,11.4,30.41,9.34,47.86.26.26,6.2-.8,7.19-1.08,8.03-2.28,16.7-13.04,22.43-1.57,10.94,21.89-21.7,44.19-40.78,45.8-4.22.36-12.28-.86-15.67.16-.71.21-7.45,5.55-9.19,6.63-1.3.8-7.72,3.61-7.78,4.36,10.8,19.6,18.35,40.8,22.75,62.79,1.98,9.87,3.56,20.36,4.51,30.38.83,25.92-.27,52.53-2.16,78.41-2.9,24.04-13.3,53.03-12.26,75.92.17,3.79,1.28,8.43,1.46,12.21.72,14.99-2.9,31.73-6.08,46.42-3.03,14-7.62,27.65-10.46,41.7l.75,1.26c-7.02,20.37-13.43,36.84-36,45.52-18.96,7.29-64.68,7.42-73.73-14.65-4.54-11.07,1.12-34.46,4.43-46.04l1.68-1.2-.66-4.68c3.02-15.98,4.29-32.28,5.46-48.34-8.03-5.5-15.8-12.19-19.92-21.2l-31.26,16.83c-2.94,15.37-6.4,30.96-10.37,46.77l-1.51,1.99c.55.69.79,1.46.86,2.32.21,2.86-5.57,16.84-7.3,20.17-13.37,25.83-37.14,27.51-63.24,25.25-6.62,43.14-30.55,56.89-72.83,54.28-25.05-1.55-45.35-8.71-42.09-37.41,3.56-20.07,5.61-40.11,7.49-60.76.06-.65.29-1.3.56-1.94s.63-1.29,1.02-1.9l-.92-1.5c.06-9.33-.46-18.46-1.55-27.38-18.07-1.01-36.03-4.13-53.44-8.98l-3.72,37.17-1.52.7c-.27,1.33-.46,2.31.97,2.92-3.94,33.29-10.97,72.61-52.75,72.85-16.44,1.14-49.29.63-56.59-17.36-3.67-9.05-.57-30.74,2.42-40.14l1.64-.99Z"/>
  <path class="uuid-81d70cb1-ac89-4739-9664-cf3fac72cd22" d="M895.29,768.76c-.29,9.66-1.08,20.17-2.25,29.76-4.13,33.75-19.46,65.01,28.51,70.22,14.69,1.6,33.32,1.63,47.1-3.96,20-8.12,27.71-29.57,31.7-49.23,13.71-.48,27.57,1.71,40.51-3.73,18.97-7.98,24.98-24.57,29.95-43.06l.81-1.37,56.02,5.6c1.18.6,1.66,2.07,1.44,4.4-4.37,25.3-18.31,52.98,15.67,61.66,29.76,7.6,64.9,3.49,79.41-26.64,1.25-2.6,6.72-19.91,7.79-19.91.05,0-.11.85.71.71,0-.37-.08-1.07.14-1.27.85-.78,18.44,5.35,21.1,6.3,20.98,7.49,74.55,28.73,49.63,58.29-25.16,29.86-110.21,46.31-148.39,52.31-119.93,18.82-258.79,18.3-378.81.11-41.06-6.22-122.27-21.51-153.29-48.85-26.35-23.23,1.59-43.12,23.1-53.11,25.57-11.88,55.2-17.68,82.64-23.83l1.06,2.86c-2.03,11.82-7.86,32.29-1.59,42.95,9.53,16.19,46.76,15.78,62.99,13.06,36.58-6.13,37.85-43.65,42.9-73.28,20.45-1.04,40.55-1.52,60.3-1.44l.85,1.44Z"/>
  <path class="uuid-69e511f5-e826-4544-9e9b-cb560df66b6c" d="M1098.14,350.82c-.74,1.24-2.68.76-3.86.64-15.22-1.56-29.82-4.32-45.43-4.94-8.48-.34-17.05.24-25.53-.01-.29-.2.8-1.11.72-1.43,24.87-.37,49.61,1.86,74.09,5.75Z"/>
  <path class="uuid-abfb4685-5da4-462b-975a-6f6bc2d17f0c" d="M1259.28,616.26l2.16-78.41c2.38,25.15.88,53.29-2.16,78.41Z"/>
  <path class="uuid-c746f90e-e251-4372-a27e-c5f570000151" d="M1065.77,263.78c-1.24-.74-.76-2.68-.64-3.86,1.4-13.92,2.59-27.76,2.11-41.85l-2.19-26.23c5.06,18.83,3.29,52.29.72,71.93Z"/>
  <path class="uuid-16e989da-1192-43e9-99a3-c8900e557aad" d="M853.56,213.43c-5.03,2-11.2.11-16.16-.03-5.51-.15-11.07.11-16.58.04-1.22-.02-3.2.46-3.95-.73,11.82-.55,24.9-.24,36.69.72Z"/>
  <path class="uuid-254e4257-4510-4941-b93f-535d7aec2622" d="M1013.98,500.45c5.48-11.29,10.24-22.16,13.46-34.37,9.11-34.47,5.51-70.35-3.39-104.46l32,.72c63,4.13,115.3,26.14,153.87,77.04,39.27,51.81,40.66,125.26,31.25,187.2-3.51,23.08-11.11,45.65-9.98,69.21.15,3.16,1.3,6.93,1.46,10.05,1.36,25.5-9.21,52.72-15.22,77.21-8.71,1.64-16.88,3.42-25.78,3.71l-7.91.72c-5.51.03-11.04-.05-16.55,0-2.95-.45-5.93-.58-8.93-.4-.38,1.77-1.25,1.29-1.86-.32-2.67-.2-12.74-.18-12.97-3.22,2.4-12.83,4.77-25.83,5.77-38.87.5-6.55,1.76-20.48.42-26.3-1.34-5.78-13.47-13.67-17.66-19.03-2.5-3.21-3.69-6.73-5.66-10.2,15.18-18.03,27.99-40.63,30.09-64.6.31-3.56.67-10.21.59-13.67s-1.85-7.99-5.67-4.9c-2.56,6.72-4.7,13.61-7.14,20.37-4.51,6.37-9.58,11.96-16.01,17.42-25.76,21.91-57.92,34.09-91.18,38.63-11.03.75-22.51,2.13-33.09,3.65-3.08,2.09-3.53,5.63-4.21,9.1-3.86,19.51-3.62,42.39-5.86,62.48-1.93,17.33-5.05,34.48-7.89,51.66-.43,1.8-14.19,2.56-16.56,2.66-7.79.78-15.94.71-23.74,0-12.37-.25-23.85-.47-35.97-3.6-.28-.94-1.75-1.66-1.87-2.49-.22-1.45,1.65-9.08,1.86-11.55,2.4-27.04,4.32-66.07-2.92-92.02-.91-3.26-3.33-11.71-7.5-11.66s-4.2,7.14-4.67,9.81l-.52,6.13c-.22,1.45-.95.99-1.97-.12-21.92,1.67-44.61.95-66.46-2.82-21.63-3.74-34.19-12.5-51.05-25.37-.72-.55-1.36-.99-2.29-.84-21.04-20.31-33.18-40.91-38.84-69.78-1.01-3.89,2.76-3.94,2.41-1.74-.42,2.64,35.04,9.54,40.97,10.25,67.68,8.07,141.36-10.99,192.74-56.21,19.8-17.42,37.39-38.37,48.58-62.35.17-.36-3.42,8.03-4.15,2.87Z"/>
  <path class="uuid-254e4257-4510-4941-b93f-535d7aec2622" d="M1049.23,198.32l.22,2.96c-11.31,3.17-22.38,6.75-33.22,10.74l-.81-.76c0,2.12-2.71,2.56-3.6.72l-1.7,2.01c-34.58,6.86-54.63,42.44-49.7,75.48,1.34,1.91,1.93,3.66,1.77,5.24,1.42.58,2.94.5,4.03-.67,1.51-.19,11.01,14.6,12.37,16.97l-.58,1.68c3.68,6.3,7.52,12.38,11.53,18.26l-.02,1.89c-1.64,1.18-1.76,3.87-.91,5.59,1.71,3.49,11.18,2.49,14.58,1.6,4.88,19.42,10.45,38.75,12.86,58.72,7.98,65.97-17.58,119.09-74.5,152.63-5.79,3.41-15.48,6.97-20.36,10.93-10.44,3.91-20.93,7.82-31.49,11.71-19.3,5.65-43.23,7.1-63.3,7.95-.55.02-1.08.03-1.61-.24-22.53-1.75-44.11-4.1-66.19-8.98-54.66-12.09-116.34-34.27-130.43-95.45-7.21-31.31-.47-47.35,13.55-73.95,9.73-18.46,12.25-39.97,20.15-59.7,25.75-64.32,63.6-98.55,132.55-111.31,39.04-7.23,78.62-1.9,115.88,10.66.7,5.18-1.97,23.05,4.39,24.8,1.43.39,2.44.16,3.58-.82,1.8-1.55,9.58-26.81,11.92-31.95,11.27-24.76,28.74-35.4,54.55-41.84,13.14-3.28,39.64-8.5,52.53-7.02,8.29.95,10.24,4.88,11.95,12.15Z"/>
  <path class="uuid-78371c30-5ce0-4c9c-828d-d007a8c35034" d="M1013.98,500.45c.55,1.59,1.64-1.06,1.82-1.42,1.32-2.53,2.46-5.17,3.83-7.68l7.29-17.52c.14,1.24-.04,2.42-.32,3.63-10,43.69-54.58,89-93.17,109.68-42.78,22.92-82.64,32.88-131.31,32-23.39-.43-45.84-3.04-67.52-12.15l-.45-2.23-.71,2.87c-1.69-8.6-2.76-17.18-4.04-25.84l.79-1.47c14.15,4.65,29.22,8.66,44.01,10.65,13.45,1.81,33.35,3.24,46.28-.96,4.54-1.47,10.4-4.01,4.31-8.28l1.07-1.44c16.08-.51,32-2.5,48.01-3.79,4.46-1,8.96-1.91,13.34-3.21,11.28-3.33,22.26-9.71,33.98-10.98-6.41,5.2-6.11,9.33,3.23,8.62,31.66-2.4,60.01-31.72,79.5-53.94,3.27-4.31,6.25-8.81,8.63-13.67.55-1.43.94-1.85,1.44-2.88Z"/>
  <path class="uuid-1f8dc247-a952-4627-9587-bebb9f1a638c" d="M989.52,332.84c-.91-.93-2.07-1.45-2.79-2.61-3.08-4.96-6.05-12.18-8.72-17.53l1.74-.02c.22,1.12,4.69,6.29,5.16,5.32,5.89-12.24,11.33-23.69,14.85-37.04,4.66-22.72,9.78-45.74,20.03-65.98-4.79-.13-6.24-1.36-4.36-3.7,3.72-1.04,8.4-3.91,11.9-5,6.47-2.03,13.77-3.64,20.36-5.57,1.82-.53,1.78-.17,1.55-2.38,4.5,19.19,2.76,54.8-1.66,74.23-6.48,28.44-21.9,41.5-46.32,55.11-3.04,1.69-9.89,3.87-11.72,5.18Z"/>
  <path class="uuid-9cb5ff77-1887-4b64-b123-42e3d99d0f9c" d="M1144.18,626.33c-10.32,28.63-23.37,53.64-51.31,68.46-24.88,13.2-54.37,18.77-81.77,24.33.33-9.44-.23-18.9-2.5-28.08-.7-2.86-.82-5.63-4.7-5.01,5.7-3.87,25.4-4.04,33.35-5.14,38.23-5.28,76.19-21.19,102.26-50.24,1.52-1.7,2.03-4.91,4.67-4.32Z"/>
  <path class="uuid-254e4257-4510-4941-b93f-535d7aec2622" d="M643.52,182.49c1.96-5.2,2.55-7.91,8.99-8.63,13.64-1.54,55.92,10.31,69.18,16.42,16.24,7.49,27.11,19.95,31.17,37.52-15.74,4.9-30.69,12.66-43.52,23.01-.81,0-2.72-6.79-3.34-8.16-5.69-12.59-13.56-22.76-23.64-32.11-2.77.3-7.59-3.73-7.91-6.47-5.23-4.38-10.99-7.96-17.3-10.75l-7.21-6.34c-4.14-.77-6.28-2.26-6.42-4.49Z"/>
  <path class="uuid-aebe92ce-2edb-4c09-ae05-ece02c768c70" d="M753.58,695.39c-.7-3.04.87-5,2.24-1.32-.42,5-.31,9.91.34,14.72,15.09,20.86,38.71,35.13,61.81,46.08,1.82-.56,2.41.47,1.79,3.11.3,8.27-3.03,18.79-3.73,27.2-11.25,3.05-22.85,2.2-34.39,2.29-2.78-.14-5.54-.24-8.31-.3-.17.58-.34,1.04-.53,1.05-6.66.21-16.53-1.49-22.09-4.34-1.64-.28-3.4-.34-5.04-.73,5.5-22.2,6.23-45.2,7.2-67.96.06-1.38.68-2.76.74-4.29.2-5.14-.28-10.36-.03-15.5Z"/>
  <path class="uuid-e782c117-fc89-4613-8ae5-01e55f4b2915" d="M1070.81,768.76c4.38-16.28,6.62-33.2,10.44-49.62l33.42-18c3.69,9.71,12.59,16.95,20.89,22.72-.26.92-.72,1.84-.74,2.81-.34,17.45-2.8,33.61-5.75,50.72l-1.13-2.92-57.14-5.71Z"/>
  <path class="uuid-5bbc59c3-5e8a-43af-8ac6-72ae8ca59668" d="M909.67,808.33c.3.07,1.19.86,2.11,1.09,21.19,5.4,47.79,4.66,69.48,2.51.79-.08,3.2-.31,3.24.36-.83,4.22-1.99,8.36-3.41,12.41-6.05,17.18-13.1,25.1-31.67,28.04-3.53.56-20.63,2.28-21.71-.99-.17-6.23,4.52-22.15,1.95-27.08-.76-1.45-2.44-2.74-4.03-1.82-2.27,1.31-8.09,24.58-8.82,28.59-3.35-.04-11.88-2.48-13.45-5.49-3.92-7.54,4.07-28.65,4.2-37.58.66-.02,1.53-.16,2.12-.03Z"/>
  <path class="uuid-18199303-3427-4eef-822b-80a0c6f6ffac" d="M674.45,204.07l-1.83.49c-10.58-8.66-14.94-7.13-13.09,4.59-1.53,6.77,11.06,72.57,17.03,70.93,1.24-1.3,2.34-1.66,2.93.24l-16.19,24.44c-12.3-11.74-18.21-28.65-21.01-45.15-3.26-19.21-3.12-45.7-1.64-65.24.34-4.44,1.34-7.81,2.87-11.88,1.89,2.19,4.87,1.83,7.17,3.26,2.09,1.3,4.67,4.6,7.28,6.39,5.47,3.74,12.54,6.21,16.48,11.93Z"/>
  <path class="uuid-41dd503b-37bc-49ae-9314-22d018d76aa4" d="M1221.15,391.82c-4.6-2.36-10.31-12.05-11.34-17.07-6.97-34.03,49.39-44.68,53.05-4.14,2.48,27.52-13.02,49.92-37.66,60.68l-14.12-16.1c4.18-.77,7.74-2.94,11.51-4.67l1.16-2.14c8.35-3.97,15.79-9.52,18.89-18.5,2.19-6.35,5.53-28.77-4.52-30.34-14.33-2.24-12.78,18.73-7.99,26.85.12,3.08-7.84,11.05-8.97,5.43Z"/>
  <path class="uuid-d69d9bff-2a18-4961-8f04-7fcd2dee893f" d="M750.7,783.87c4.19.72,8.41,1.35,12.6,2.15l18.34,1.45c-2.03.02-4.09-.09-6.12,0-.87.04-2.67-.54-2.5.71,14.51.59,28.78,1.11,43.16-1.42-3.26,13.86-4.62,30.53-19.25,37.21-2.63,1.2-12.3,3.79-14.92,3.79h-15.83c-1.39,0-1.14-4.32-1.07-5.38.48-7.03,3.66-16.23,3.39-23.19-.06-1.51-2.72-5.23-4.18-3.36-.52.66-4.01,8.85-4.61,10.37-2.38,6.08-4.34,12.97-5.42,19.39-3.9.03-12.81-2.34-14.05-6.42-.74-11.74,3.84-23.66,5.44-35.29h5.03Z"/>
  <path class="uuid-f5aeebfa-4c92-412c-9c6b-24e1b4dd9109" d="M1167.2,787.47c-2.51.02-5.05-.07-7.57,0-.62.02-2.59-.3-1.42.72,17.21.07,33.89.82,50.88-2.36,2.28-.43,4.6-1.42,6.79-1.86,1.08-.22,1.13-.21.96.96-.42,2.94-4.38,13.41-5.73,16.58-4.89,11.5-12.17,18.99-24.48,22.28-7.59,2.03-17.69,3.59-25.23,1.38-.34-6.46,7.79-25.63,2.89-30.13-1.54-1.41-2.7-1.4-3.87.38-1.67,2.54-4.87,10.93-5.98,14.16-1.64,4.77-2.77,9.64-3.79,14.57-3.13-.82-9.8-1.84-11.82-4.36-4.39-5.5,4.37-26.38,3.92-33.77,4.33.84,8.07,1.46,12.52,1.38.54,0,1.02-.66,1.14-.66,3.37-.05,7.86-.57,10.79.72Z"/>
  <path class="uuid-d832f850-bd16-48f3-a746-2853afa3705e" d="M819.76,757.97c-.13-3.76-.08-1.15-2.17-1.74-.69-.19-3.81-1.79-4.94-2.31-13.94-6.38-34.3-19.59-45.42-30.12-2.11-2-11.88-12.82-12.55-14.79-1.41-4.17.23-11.25-.4-15.79-1.21-.19-.67,1.35-.71,2.15l-2.52-17.98c17.64,23.72,44.68,37.57,71.97,47.44-.14,11.09-.57,22.32-3.26,33.12Z"/>
  <path class="uuid-e782c117-fc89-4613-8ae5-01e55f4b2915" d="M834.14,768.76l3.97-39.57c18.59,4.98,37.92,8.61,57.18,9.37-1.76,3-.08,5.96.03,8.95.24,6.83.17,14.41-.03,21.25l-24.13-.03c-11.71.98-23.83,1.1-35.76,1.66-2.22.1-1.26,1.24-1.26-1.63Z"/>
  <path class="uuid-604edb37-5b05-4ea7-ae9d-039b70de9b0c" d="M674.45,204.07c3.03,2.06,5.21,3.96,7.91,6.47l-1.11,2.91,16.95,46.35-.69,1.49c-6.55,5.37-11.56,13.81-18.03,19.03-.15.12-1.83-.56-2.51,2.15-3.97-3.14-6.13-8.4-7.77-13.09-5.88-16.85-9.46-40.71-11-58.61-1.57-18.35,4.07-14.98,16.24-6.7Z"/>
  <path class="uuid-e94d9a41-68d6-4949-9357-6d74660c38a0" d="M1065.77,724.17l-10.13,40.21c-1.41,1.48-35.49,1.9-39.89,1.53-1.1-.09-5.61-.99-5.98-1.57-1.35-2.11,3.17-23.6,2.13-27.88l53.88-12.29Z"/>
  <path class="uuid-70faa05b-2837-4d25-8cfb-a3d54ea98a1f" d="M1054.26,765.89c.92.91-5.54,18.01-6.81,20.16-6.77,11.45-27.81,15.17-39.95,12.92.2-2.73,1.2-5.58,1.43-8.28.34-3.91.16-23.13,2.15-24.51.65-.45,8.64,1.11,10.42,1.18,10.97.42,21.84-.94,32.76-1.47Z"/>
  <path class="uuid-c3a7ee1d-4977-4466-801b-aebe51190141" d="M772.28,677.41c1.15-1.19.15-1.91,1.79-.72,14.61,10.64,27.39,20.2,45.54,24.24,22.89,5.1,46.95,5.3,70.28,4.53,2.54-.08,3.13-2.24,3.59,1.44.11-2.23.7-4.35,1.08-6.48-.33,7.24.57,14.41,1.44,21.58-43.35-3.98-91.48-13.47-123.73-44.6Z"/>
  <path class="uuid-4e234da6-89ac-4194-a413-9e6dcedae9a4" d="M1222.59,410.53c-4.07-.95-10.37-5.34-10.61-9.83s8.85-5.53,9.17-6.01c.41-.6-1.14-2.48,0-2.86,1.08.55,1.54,1,2.85.38.5-.24,4.84-4.7,4.87-5.05.04-.54-1.66-3.09-2-4.29-2.19-7.77-3.5-22.72,7.04-24.68,9.24-1.72,12.34,5.97,12.45,13.89.29,20.69-5.81,30.18-23.76,38.45Z"/>
  <path class="uuid-c885e6d5-e8be-451a-9991-182c062d20e9" d="M1265.75,419.16c3.81-15.89,20.34-13.66,30.92-22.3-4.71,12.8-17.67,20.96-30.92,22.3Z"/>
  <path class="uuid-5bbc59c3-5e8a-43af-8ac6-72ae8ca59668" d="M969.38,811.92c-.75,1.19-2.73.72-3.95.73-5.27.07-10.57.06-15.85,0-1.22-.01-3.2.46-3.95-.73,7.7.16,16.07.31,23.74,0Z"/>
  <path class="uuid-254e4257-4510-4941-b93f-535d7aec2622" d="M1003.91,516.99l8.63-13.67c-2.14,5.61-4.68,9.16-8.63,13.67Z"/>
  <path class="uuid-f5aeebfa-4c92-412c-9c6b-24e1b4dd9109" d="M1191.66,786.75c-1.9,1.32-5.43.71-7.91.72,1.93-1.37,5.39-.64,7.91-.72Z"/>
  <path class="uuid-7610a56d-8bcc-40ad-8302-edd704f29c46" d="M818.68,527.06c11.28-1.14,24.74-7.54,33.11-15.09,3.23-2.91,12.27-12.71,11.84-16.85-.35-3.4-6.19-10.26-.99-13.29,4.86-2.82,13.3,5.97,15.97,9.75,2.15,3.04,4.44,7.91,2.33,11.43-2.45,4.08-7.52,0-7.94.32-.4.29-3.34,7.15-4.46,8.85-16.45,24.98-52.56,36.26-80.62,26.22-3.05-1.09-9.06-4.98-11.11-5.44-7.94-1.77-18.55-.6-27.1-1.67-56.29-7.07-85.74-51.89-46.14-99.91,31.91-38.69,83.7-40.46,117.99-3.6,26.2,28.17,29.35,74.92-8.25,94.64-2.36,1.24-5.59,1.85-7.74,3.04-.83.46-1.21-.05-.92,1.61,4.52-.33,9.58.45,14.03,0Z"/>
  <path class="uuid-53f6063b-26e3-4632-9cdc-8dc6bd579dcb" d="M1015.42,211.27c.62,3.65,3.16,1.19,5.74,2.17,1.37,2.05-5.86,14.38-6.95,17.12-8.21,20.62-9.76,44.28-17.48,65.24-2.97,8.06-7.97,14.92-10.76,23.05-3.2,2.26-6.15-3.71-7.96-6.15s-10.74-16.62-11.65-17.11c-1.18-.63-2.55.5-4.17-.87.87-.86,1.79-1.68,2.74-2.46,5.38-31.11,15.93-60.29,45.29-77.5l1.61-2.77c1.39-.41,2.59-.44,3.6-.72Z"/>
  <path class="uuid-7610a56d-8bcc-40ad-8302-edd704f29c46" d="M880.7,371.13c12.53-2.59,21.5,11.69,22.49,22.51s-2.37,29.26-13.66,33.79c-30.33,12.17-32.4-51.42-8.83-56.3Z"/>
  <path class="uuid-7610a56d-8bcc-40ad-8302-edd704f29c46" d="M700.16,363.94c3.14-.52,4.99-.17,7.76,1.24,17.16,8.77,10.66,52.99-8.65,52.59-22.75-.47-17.84-50.76.89-53.83Z"/>
  <path class="uuid-7610a56d-8bcc-40ad-8302-edd704f29c46" d="M1011.82,211.99c2.41,3.71-4.03,5.68-6.42,7.61-16.02,13-26.23,24.99-32.62,45.07-1.53,4.8-5.54,27.4-6.96,29.01-1.01,1.14-2.26,1.15-3.64,1.03-10.15-8.61-.4-40.39,5.18-50.57,10.82-19.73,24.09-26.2,44.45-32.16Z"/>
  <path class="uuid-ba00d76a-ea8f-4fae-a552-fbefe9d19501" d="M757.74,416.49c30.77-3.16,64.99,22.76,67.76,54.11,5.37,60.79-111.1,55.75-122.96,13.62-8.64-30.7,26.06-64.73,55.2-67.73Z"/>
  <path class="uuid-fa067300-a597-47eb-b2fa-346908332968" d="M785.02,453.12c13.71-3.16,19.41,21.97,9.92,29.33-12.86,9.98-25.8-14.72-13.68-26.63,1.1-1.08,2.16-2.33,3.76-2.7Z"/>
  <path class="uuid-94d7be21-527f-4ad7-9239-bbb73b280eb9" d="M733.97,450.95c7.26-1.4,10.04,9.06,9.56,14.64s-6.64,18.6-13.35,13.29-5.88-26.06,3.79-27.93Z"/>
</svg>