<?xml version="1.0" encoding="UTF-8"?>
<svg id="uuid-5f78996e-0a8f-4f96-aa2f-e0ee4a2558e1" data-name="Layer 1" xmlns="http://www.w3.org/2000/svg" viewBox="0 0 1920 1080">
  <defs>
    <style>
      .uuid-a8f62e37-69d8-4acf-9c03-fbf715498c69 {
        fill: #d0c5ab;
      }

      .uuid-b63db325-5c84-40c1-a985-dc91bb5559c6 {
        fill: #f5d69d;
      }

      .uuid-c87cec2c-431e-4a1d-9128-7d413f6fbdb1 {
        fill: #b36e29;
      }

      .uuid-ebb4b05d-3336-4207-bfd4-57e5ac6e189c {
        fill: #e6dfd4;
      }

      .uuid-503c5cbb-4edb-4587-8fbd-8d26b1e03c1f {
        fill: #6b440d;
      }

      .uuid-8e4dd3d6-1e3b-40d0-9965-1d30575aa369 {
        fill: #b46f29;
      }

      .uuid-4ad13724-eb24-4292-806e-a8b5e72ef62f {
        fill: #b16d28;
      }

      .uuid-7c27cf68-ad22-4aef-b242-448c1089ca25 {
        fill: #704b10;
      }

      .uuid-ea87929d-152c-411f-abd6-fc8bcd2287ba {
        fill: #feedc9;
      }

      .uuid-f7040478-fd6d-407f-9f14-edfd085ddc35 {
        fill: #8a5719;
      }

      .uuid-87007187-5947-495e-8cda-be4e7f5f67a7 {
        fill: #68410b;
      }

      .uuid-6f5a1d20-e8e0-414e-8072-e0b32e22089e {
        fill: #c77f33;
      }

      .uuid-96a66818-4e44-44cd-8561-a807f2551965 {
        fill: #feedc8;
      }

      .uuid-be4bb12e-a964-4534-9cba-e21306911f99 {
        fill: #fefefe;
      }

      .uuid-b83b3bee-42d7-42e2-a15d-44e4ec012545 {
        fill: #b26e28;
      }

      .uuid-12ff6664-40d9-406c-b148-178e27a944cd {
        fill: #f5d59d;
      }

      .uuid-253a84f5-3777-4f92-b4f2-cde6a2597463 {
        fill: #b06c28;
      }

      .uuid-91148129-14b8-41b1-8db3-29c1bd9628f7 {
        fill: #8b5719;
      }
    </style>
  </defs>
  <path class="uuid-503c5cbb-4edb-4587-8fbd-8d26b1e03c1f" d="M694.77,221.64c.79,1.25.06,2.73-2.19,4.44,3.77,1.55,5.83,4.4,6.17,8.55l.81,1.37-.07,1.91c-2.94,2.58-5.15,5.44-6.96,8.88-1.92,3.65-3.14,6.62-2.54,11.09l1.58.8c4.96,17.03,24.44,20.89,36.45,8.07,1.71-1.44,2.77-1.22,4.02.65,14.42,26.12,46.48,27.86,66.02,7.06,2.49-2.23,4.58-1.39,6.73.84,11.2,13.97,26.54,24.68,45.63,21.88l2.26,1.03c5.49.99-1.81,3.33-5.54,2.94l-7.47-.05,3.44,9.44c7.12.86,16.89-2.39,24.67-5.34,1.58-.45,4.79-1.24,5.41.53-2.34,3.91-9.65,5.78-14.36,5.47l-1.21,1.67c-21.83,4.52-42.12-1.03-56.66-18.19-22.96,17.71-54.68,13.15-74.26-6.71-8.67,3.13-16.93,2.85-25.92,2.17-9.29,22.7-19.47,44.83-30.36,66.63-14.63,30.73-28.09,66.57-13.18,99.72l-.07,3.06c.22.32.39.64.37.95-.16,2.78-4.58-2.44-5.14-3.59-1.5,3.05-3.4,5.35-5.7,6.89,1.25,1.8,3.53,5.27.21,5.31-13.53-23.39-14.41-51.68-7.33-77.39,5.49-19.91,17.06-37.7,24.4-56.94-.53-.65-.64-.86-1.52-.87-2.59-.01-6.37,1.18-9.03,1.24-13.18.32-28.06-5.22-36.58-15.43-3.73-4.46-4.86-7.97-6.86-13.31v-9.57c10.91-25.85,41.07-33.43,64.83-43.18.98-14.36,9.48-23.5,19.94-32.01Z"/>
  <path class="uuid-a8f62e37-69d8-4acf-9c03-fbf715498c69" d="M1310,532.68h-.68c-1.98-1.75-1.91-8.46,0-10.25h.68v10.25Z"/>
  <path class="uuid-7c27cf68-ad22-4aef-b242-448c1089ca25" d="M694.77,221.64c.94-.76,4.47-3.28,4.67-3.87.58-1.71.42-7.74.98-10.64,6.77-34.96,46.33-55.74,79.48-43.63,1.49.54,4.42,2.84,5.33,2.67.45-.09,5.73-4.68,7.33-5.65,30.36-18.49,76.16-15.85,97.59,15.09.66.96,1.35,3.53,1.5,3.64.39.29,8.15-2.31,9.39-2.54,41.69-7.82,72.91,20.64,71.21,62.34-.28,6.83,4.79,9.22,8.12,14.5,2.18,3.46,3.79,7.15,5,11.07,15.57.1,30.69,2.56,45.01,8.65,27.8,11.81,47.15,37.25,21.92,63.6l-15.42,11.93,15.73,11.37c32.7-19.88,87.52-15.44,106.38,21.36,37.55-7.44,80.58,14.27,87.37,53.78,27.74.4,47.12,28.47,41.79,54.92,10.89,4.68,20.19,20.64,21.15,32.19.25,3.04.16,7.17,0,10.25-1.19,23.25-21.69,48.98-46.75,46.41-2.12-.22-5.4-2.11-7.26-.97-.6.37-5.14,10.55-6.54,12.61-1.16,1.7-6.19,6.8-6.34,7.38-.41,1.56,2.42,12.43,2.63,15.58,1.48,22.12-8.6,48.84-25.62,63.23-.87.73-3.06,1.3-3.14,1.78-.21,1.28,4.46,11.16,5.19,13.93,7.06,26.68-1.5,83.31-7.18,111.43,1.12,1.95,1.06,4.47-.18,7.55-6.33,30.63-17.26,40.66-49.14,43.16-18.76,1.47-50.84.13-49.34-25.22.6-10.1,7.12-27.13,10.89-36.97l1.64-.83-.68-2.83c5.09-19.57,7.68-39.43,2.41-59.24-.36-1.36-6.3-18.62-7.18-13.5-3.25,24.04-7.44,47.9-12.55,71.58l-2.5,3.99.89,1.87c-6.16,29.35-23.82,36.12-51.79,36.75-35.52.8-57.82-10.16-39.67-46.88l1.71-.63c-.31-3.14.62-6.43,2.8-9.87,6.14-17.64,10.04-34.69,12.87-53.06-.44.57-.96,1.04-1.63,1.31-3.41,1.38-10.9,1.82-14.88,2.04-11.62.65-23.22-1-34.05-5.28-.97,27.05-4.1,55.14-9.54,81.96l1.02,2.64c-1.4,15.95-4.23,31.62-8.48,47.01-8,29.47-39.35,35.17-65.77,29.73-34.81-7.18-32.35-24.27-21.58-52.05,3.4-14.33,5.37-27.04,7.57-41.59.23-1.52,1.03-2.89,1.79-4.2l-1.15-2.48c1.31-14.42,2.04-28.94,1.83-43.44-.03-2.14-.38-18.18-3.94-18.39-8.82,2.45-18.91,2.66-28.1,1.52l.55,2.38c-1.68,20.51-3.73,41.06-6.13,61.63l-2.02,4.24c-.18,1.29.12,2.24.91,2.86-1.37,7.72-2.75,15.51-4.84,23.1-2.77,10.07-5.92,21.48-14.56,28.03-14.93,11.34-39.88,11.03-57.32,6.37-31.76-8.5-27.62-26.43-17.48-51.37l1.68-.78c9.83-31.68,14.38-61.33,15.75-94.65-.46-3.98.15-22-1.59-24.11-.95-1.14-5.12-2.86-6.59-4-19.26-14.86-25.61-42.49-19.3-65.44-19.55-18.01-25.3-46.26-23.12-71.9.56-6.6,2.5-13.6,3.41-20.18-32.89-2.86-63.05-16.53-79.98-45.8,1.64-1.22-2.1-5.15-2.03-5.82.08-.8,2.06-.83,2.53-1.2.67-.55,3.04-5.52,4.28-6.34,1.5-.99,2.86,1.73,3.57,2.63.27.34,1.49,2.62,1.92,1.16l2.36,1.59c13.78,24.92,41.92,35.4,68.93,38.65,59.82,7.22,120.11-16.96,154.57-67.51,2.01-3.89,4.49-7.09,7.24-10.34l-.09-2.18c15.52-29.07,20.61-69.5,9.33-100.58-8.83-1.83-17.24-6.56-23.54-13.05-1.25.49-2.18.36-2.79-.39l-5.61.88c-8.2,3.25-16.4,6.01-25.42,5.31l-4.52-12.34c5.66.49,11.12.41,16.74-.69l-1.7-.68.79-1.55c8.24-2.37,15.98-5.87,23.2-10.51,1.95-1.27,3.72-1.09,5.3.65,8.27,14.26,28.66,22.93,40.47,7.77l2.02-.46c.26-.94.18-1.71-.22-2.3,3.73-7.94,3.28-16.71-.47-24.43-2.39-12.51,8.71-9.95,14.56-3.02,7.47,2.29,15.44,2.09,23.92-.62l5.12-.51-10.11-11.51c-1.52-1.85-3.07-3.81-2.58-6.38,5.9-18.43-1.52-37.68-18.2-47.82s-30.31-6.68-47.04-2.88c-3.02.81-5.19.28-6.53-1.61-15.44-37.1-69.34-34.2-94.85-9.74-2.1,1.63-4.29,1.86-6.57.46-26.99-21.03-72.26,6.52-67.45,40.24-.05,4.91-8.71,10.22-12.9,12.49l-1.58-.48h-2.73c.15-2.86-.14-6.13-2.8-7.81-3.07-1.94-3.36.39-6.09.97l6.84-7.51Z"/>
  <path class="uuid-ebb4b05d-3336-4207-bfd4-57e5ac6e189c" d="M1018.79,782.87c-5.6,14.73-14.16,31.57,4.53,40.93,14.96,7.5,50.81,6.82,65.66-1.17,11.54-6.2,15.28-18.94,18.68-30.88.75-1.85,1.6-3.18,2.54-4.01l17.18,2.52.78,1.5c-6.36,24.02-27.49,54.49,12.72,60.77,17.81,2.78,49.05,1.43,61.4-13.66,6.64-8.12,10.02-24.94,12.02-34.81.97,1.4.12-.9,1.57-.61,4.7.94,12.4,3.79,17.08,5.54,26.4,9.87,76.27,34.41,40.15,65.82s-128.08,44.51-174.67,49.54c-73.54,7.95-151.97,8.5-225.58,3.43-60.84-4.18-132.4-12.06-189-35.22-18.63-7.62-56.37-27.1-40.62-52.23,14.27-22.76,73.12-37.6,98.71-42.79,5.41-1.1,10.86-2.62,16.42-2.38-5.54,17.85-17.19,35.88,5.89,47.08,18.67,9.06,56.08,10.79,70.65-6.43,8.14-9.61,13-36.1,15.05-48.86.43-1.38,1.03-2.49,1.8-3.31l36.23-3.44.94,1.28c-1.35,14.47-3.45,29.01-7.17,43.08-5.26,19.93-18.83,39.57,8.06,50.02,20.3,7.89,52.09,8.29,67.48-9.34,12.08-13.83,14.54-47.01,17.07-65.3l.86-.6,2.09-17.59c.08-1.11.46-1.81,1.14-2.11,10.87.36,21.86.6,32.97.7,3.26-.19,5.72.64,7.37,2.51Z"/>
  <path class="uuid-6f5a1d20-e8e0-414e-8072-e0b32e22089e" d="M858.83,311.19c16.56-1.83,28.46-1.67,35.18,17.17,11.49,29.73,5.84,63.88-4.67,93.29l.94.28c-14.58,30.93-45.36,54.23-76.1,67.79-44.73,19.73-131.93,20.75-157-30.2-22.94-46.62,10.03-96.89,28.83-138.31,4.8-10.56,8.77-21.52,13.83-31.97,1.44-1.12,12.46.36,15.78.05,2.8-.26,9.97-3.03,11.48-2.62.65.18,8.11,6.78,9.85,7.98,19.75,13.57,44.7,12.64,64.03-1.17,7.49,6.39,15.66,14.25,25.21,17.2,8.95,2.76,23.55,2.68,32.65.51Z"/>
  <path class="uuid-ea87929d-152c-411f-abd6-fc8bcd2287ba" d="M699.55,236c2.37-2.1,11.84-7.66,12.49-9.05,1.48-3.2.05-12.56,1.39-17.75,5.99-23.22,36.47-40.14,59.25-32.31,3.4,1.17,9.47,6.63,11.93,6.47,2.69-.17,6.45-4.87,8.65-6.43,24.41-17.28,66.67-19.97,85.96,6.21,1.42,1.92,4.75,9.73,5.57,10.14,2.72,1.36,19.33-3.44,24.29-3.76,27.3-1.74,51.33,19.3,48.86,47.49-.24,2.78-2.32,7.95-1.93,10.1.51,2.81,8.76,10.42,11.1,13.56.48.64,3.01,3.56,2.46,4.03-9.93-.84-22.79,6.03-31.93.83-3.15-1.79-6.72-7.93-11.36-4.98-4.49,2.86,1.05,10.42,1.54,14.12.82,6.3.25,14.11-3.36,19.42-1,1.08-1.76.62-1.74-.84-10.77,1.91-21.06-.27-28.8-8.54l-12.89-14.55c-25.64,26.32-56.97,21.05-74.96-9.69l-3.35-3.75c-10.83,13.48-22.88,23.49-41.86,20.16-16.46-2.89-24.37-13.42-29.58-27.87-10.09,8.74-29.96,18.52-39.34,3.97.11,2.61-.54,4.24-1.94,4.88-1.82-9.37,2.79-15.86,9.57-21.88Z"/>
  <path class="uuid-b63db325-5c84-40c1-a985-dc91bb5559c6" d="M689.98,257.87l.69-7.52c2.14-.04,2.43,2.65,3.73,4.12,7.07,8.01,21.2,3.84,28.89-1.24,2.15-1.42,6.56-6.22,8.62-5.55,1.4.45,4.03,9.53,5.35,11.78,10.82,18.35,37.16,22.12,53.21,8.33,2.21-1.12,11.04-12.69,11.94-12.7,2.33-.01,10.46,12.87,12.68,15.4,8.62,9.86,20.32,16.52,33.84,15.42,12.8-1.04,22.81-9.75,32.01-17.75,10.44,10.1,15.48,22.69,31.73,24.37,4.04.42,8.09-1.13,11.43-.49.75.14-.85,1.83.34,2.05-10.17,14.97-28.39,11.22-39.31-.68-1.48-1.61-3.91-6.78-6.13-6.84-.84-.02-11.81,6.59-14.25,7.63-3.51,1.49-8.4,3.33-12.08,3.98-15.35,2.73-29.51-2.44-40.69-12.97-2.28-2.15-8.59-10.63-11.03-10.84-1.41-.12-10.58,8.52-13,10.01-11.12,6.88-25.65,7.26-37.6,2.3-9.34-3.88-15-11.82-20.39-19.94-6.22,5.99-12.08,9.71-21.19,8.87-9.13-.85-17.1-9-18.8-17.77Z"/>
  <path class="uuid-6f5a1d20-e8e0-414e-8072-e0b32e22089e" d="M681.09,296.15c-15.37,9.13-36.13,6.38-51.69-1.73l-.26-1.68c3.65-3.95,8.36-6.63,13.07-9.15,11.23-6.01,23.54-10.27,35.15-15.47,1.38.02,4.28,5.87,5.5,7.47,1.44,1.89,3.51,3.24,4.88,5.17-2.14,5.16-4.49,10.24-6.64,15.39Z"/>
  <path class="uuid-4ad13724-eb24-4292-806e-a8b5e72ef62f" d="M629.14,292.74c1.91.99,4.18,2.33,6.17,3.06,12.96,4.78,27.46,6.87,40.58,1.64,1.7-.68,4.26-4,5.21-1.28-3.17,7.57-6.2,15.24-9.88,22.59-12.42,4.76-29.18,2.93-39.96-5.22-9.06-6.85-9.93-12.31-2.11-20.79Z"/>
  <path class="uuid-c87cec2c-431e-4a1d-9128-7d413f6fbdb1" d="M873.18,305.72c.88-.36,2.12-1.43,2.98-1.26l8.36,7.34c4.3,1.88,9.28,4.32,13.42,6.01,1.58.64,2.06-1.38,3.81,2.76,10.16,24.09,4.29,79.98-11.48,101.37-.12.16-3.17,4.11-2.74,1.7,8.42-24.4,14-50.58,10.18-76.48-1.56-10.57-5.7-24.29-13.83-31.63-7.86-7.09-15.95-1.03-25.05-4.34,4.45-1.07,10.02-3.71,14.36-5.47Z"/>
  <path class="uuid-96a66818-4e44-44cd-8561-a807f2551965" d="M891.64,448.6c25.52-37.22,35.73-86.82,23.87-130.83.08-.51,5.55-2.67,6.44-2.53.49.08,4.84,6.68,5.93,7.89,9.2,10.18,23.48,19.9,35.97,25.56,2.01.91,12.76,4.38,13.14,4.97,1.25,1.93-1.57,8.45-2.52,10.62-1.81,4.13-11.3,17.63-11.09,20.38.36,4.68,9.81-1.56,11.6-2.79,9.21-6.35,13.07-16.28,19.16-25.26,5.19,1.3,10.4-.44,15.44-.36,11.17.19,25.58,6.64,34.14,13.73,1.83,1.52,7.19,7.97,8.91,7.96,26.54-21.3,71.12-20.51,93.29,6.74,1.51,1.86,7.03,11.57,8,11.87,27.55-6.55,57.02,2.13,72.83,26.24,8.33,12.7,11.29,35.77,6.88,50.25-.77,2.53-4.39,8.98-4.28,10.69.13,2.03,9.99,17.6,11.74,21.81,1.45,3.49,2.35,7.08,3.29,10.72.43,1.29-.39,1.57-1.49,1.06,4.3,25.81-9.48,54.39-35.41,62.27-1.66,17.65-4.22,32.45-17.99,45.87-20.52,19.99-51.64,20.52-68.94-3.3-25.8,40.94-91.43,46.72-118.79,4.26-6.93,12.11-15.37,21.39-28.83,25.18l-2.76,1.62c-15.5,42.89-69.12,36.94-84.62-2.75-29.22,19.01-67.85-3.09-67.38-38.33-26.98-4.68-44.11-29.35-38.47-56.43,2.27-10.92,19.21-23.69,27.92-29.45,32.79-18.89,64.31-43.54,84.89-75.79-.39-.53-.68-1.15-.87-1.87Z"/>
  <path class="uuid-12ff6664-40d9-406c-b148-178e27a944cd" d="M891.64,448.6s.29.74.96.05c.89-.91,1.83-3.67,2.81-4.15,1.86-.32.9,1.74.49,2.55-12.2,24.44-44.1,52.17-66.53,67.46-13.35,9.1-27.37,14.78-38.24,26.7-6.46,7.08-9.94,9.52-10.92,19.84-2.43,25.75,14.4,45.13,38.87,50.33.62,14.74,6.25,27.27,17.92,36.42,10.77,8.44,29.32,10.93,41.66,4.86,2.8-1.38,4.95-3.43,7.49-4.46,5.74,16.16,19.46,29.75,36.76,32.64,18.77,3.13,32.41-3.87,41.98-19.88,1.48-2.47,2.55-6.76,4.29-8.7s10.55-4.48,13.98-6.53c8.92-5.31,13.06-14,18.88-22.14,9.68,15.22,25.77,28.46,44.44,30.06,27.91,2.4,53.66-5.74,70.61-28.48,1.16-1.55,2.88-6.03,4.28-4.56,1.02,1.07,2.04,3.33,3.34,4.71,27.26,28.91,70.52,7.91,78.85-27.14.86-3.61,2.02-18.73,2.86-19.7.33-.38,7.43-2.78,9.24-3.75,18.1-9.67,27.5-31.26,26.68-51.31-.03-.82-2.56-13.48.65-10.56l.66,3.8.71-.38c5.48,21.05,4.74,50.46-9.29,68.3-1.68,2.14-8.25,7.5-8.51,9.32-.33,2.36,2.41,7.17,3.1,9.87,5.46,21.4-2.61,52.56-22.7,64.13-3.49,2.01-8.74,3.06-11.49,4.91-2.17,1.46-5.06,6.86-7.15,9.26-17.89,20.47-50.95,24.27-68.66,1.63-2.58-3.29-9.04-17.03-13.05-17.05-6.6-.04-1.11,17.1.9,20.31l9.69,14.57c-15.95,4.6-32.75,6.46-48.31-.56-5.22-2.35-9.35-6.14-14.23-8.98-4.33,1.9-7.58,5.56-11.76,8.04-14.64,8.7-37.22,10.84-52.54,2.87-1.61-2.55,9.39-20.23-2.02-19.2-4.17.37-9.71,11.24-12.65,14.74-22.88,27.13-73.63,27.32-88.97-7.38-1.34-3.04-4.94-18.42-6.48-18.86-2.5-.72-8.37,5.31-9.27,7.65-2.18,5.69,5.21,17.38,8.35,22.36-26.42,5.64-55.55-3.95-66.98-29.74-9.47-.26-17.33-.23-26.23-3.85-21.54-8.75-32.3-35.41-26.09-57.34.66-2.32,3.32-6.34,2.94-8.37-.31-1.65-10.46-10.38-12.51-12.8-8.08-9.55-11.35-22.22-12.63-34.54-1.38-13.29,1.05-26.85,3.48-39.91,12.13.5,23.64.67,35.74-.84,39.46-4.92,80.22-28.16,107.08-56.98,2.69-2.89,4.8-6.32,7.5-9.25Z"/>
  <path class="uuid-6f5a1d20-e8e0-414e-8072-e0b32e22089e" d="M953.85,823.2c-1.92,1.67-7.11,2.02-9.97,2.06-8.95.14-40.32-.24-45.82-6.18-.37-.4-.67-.86-.95-1.35,5.9-29.23,8.37-60.45,6.84-90.23,19.86,7.16,45,7.11,63.56-3.42-.31,11.93-1.01,23.97-2.05,35.88-1.4,16.03-3.22,33.23-5.56,49.13-.3,2.07-1.68,12.63-2.27,13.46-.73,1.03-2.69.63-3.79.66Z"/>
  <path class="uuid-6f5a1d20-e8e0-414e-8072-e0b32e22089e" d="M1195.84,802.7l-1.03,1.36c-17.89,2.75-37.37,1.96-54.61-4.35l.27-2.47c5.2-20.42,9.25-47.7,4.79-68.36-.11-2.83,2.34-.78,2.6,1.58.91,1.1,6.1-.03,7.48-.39,7.88-2.09,19.93-6.7,27.42-10.08,10.32-4.65,17.27-12.73,22.36-22.51-.39-1.9-.84-4.23,1.67-3.46,9.98,31.29-2.73,73.97-5.66,106.11-.47,3.02-2.74,2.74-5.28,2.58Z"/>
  <path class="uuid-6f5a1d20-e8e0-414e-8072-e0b32e22089e" d="M841.74,735.02c-1.43,20.12-3.67,40.25-6.84,60.16-.8.71-1.7,1.29-2.75,1.53-7.62,1.68-24.02,1.12-32.19.43-5.12-.43-9.81-1.37-14.8-2.38-3.16-.64-8.56-2.07-10.41-4.36,6.11-24.9,10.08-50.92,11.62-76.56.96-.37,1.95-.63,2.96-.79,3.5-6.88,8.79-4.07,13.75-.5,10.36,10.14,21.76,19.29,36.97,20.94l1.69,1.54Z"/>
  <path class="uuid-be4bb12e-a964-4534-9cba-e21306911f99" d="M974.36,799.96c3.5-25.26,6.18-50.79,8.2-76.23.21-2.6-.13-5.26.01-7.85,16.77,7.35,34.96,7.68,52.63,3.42-1.87,18-5.31,35.36-11.59,52.32-1.42,3.84-3.36,7.44-4.81,11.25-10.61-2.45-21.67-1-32.5-1.34-2.02-.06-7.65-2.04-8.42.41l-2.16,20.06-1.36-2.05Z"/>
  <path class="uuid-ea87929d-152c-411f-abd6-fc8bcd2287ba" d="M1261.46,534.73c-.55-13.52-4.08-27.06-9.45-39.43-.92-2.11-6.66-12.13-6.69-12.86-.11-2.49,4.01-13.45,4.44-17.87.28-2.96.18-6.5.12-9.52-.04-1.99-1.86-4.58,1.49-4.28,15.83,1.43,24.31,21,23.08,35.07-.24,2.74-2.22,5.87-1.01,8.54.69,1.51,6.65,5.43,8.29,7.09,14.24,14.34,18.68,31.4,6.39,48.98-1.16.53-2.59.32-4.28-.63-9.89-.75-17.25-4.78-21.25-14.25l-1.13-.85Z"/>
  <path class="uuid-253a84f5-3777-4f92-b4f2-cde6a2597463" d="M1045.45,322.81c-10.94,15.65-40.42,21.76-58.26,18.96-17.88-2.82-36.11-14.22-48.38-27.15,14.42-1.21,28.97-.96,43.4-2.06,6.71-.51,29.9-2.19,34.5-5.15,2.32-1.5,3.02-2.89.04-4.08-4.27-1.71-18.87-2.42-23.93-2.39l.64-1.71c1.97-1.32,16.77-.48,20.24-.25,2.16.15,13.01,1.29,14.07,1.94,5.42,3.35,5.09,7.28,3.64,12.94,2.46,2.76,5.93,4.52,10.41,5.29,2.84.73,4.05,1.95,3.63,3.66Z"/>
  <path class="uuid-be4bb12e-a964-4534-9cba-e21306911f99" d="M888.91,781.51l-37.16,3.52c-1.72.54-1.04,3.22-1.13,4.68l-.68-2.73c2.02-12.54,2.85-25.31,4.13-37.91,1.05-10.35,2.71-20.69,2.7-31.14,7.84.03,15.72.14,23.52-.75,1.69-.19,4.15-1.49,5.54-1.32,2.32.28,4.25,6.33,4.47,8.53,1.64,16.37.14,40.55-1.4,57.12Z"/>
  <path class="uuid-6f5a1d20-e8e0-414e-8072-e0b32e22089e" d="M1045.45,322.81c-4.19-3.91-12.09-3.18-15.1-7.85-1.42-2.2,2.84-6.25-1.01-11.24-2.91-3.77-11.19-1.55-15.75-3.4-6.91,1.23-13.76-2.39-20.78.62-11.66.09-23.58.78-35.2,1.43l-20.17-1.43c3.62-5.78,4.19-12.66,6.26-19.03,27.55-5.53,57.87-5.94,83.95,5.73,13.68,6.12,28.63,19.69,17.8,35.18Z"/>
  <path class="uuid-f7040478-fd6d-407f-9f14-edfd085ddc35" d="M953.85,823.2c.62.07,2.11,1.26,3.42.69-2.45,17.43-8.1,40.65-29.13,42.99-3.37.38-14.77-.08-15.85-3.83-1.77-6.17,2.35-18.54-.55-23.38s-5.74-1.19-6.93,2.53-1.74,20.58-3.59,21.72c-.82.51-4.34-1.79-5.27-2.31-1.36-.77-4.6-2.44-5.19-3.7-.9-1.93-.7-9.97-.43-12.41.89-7.96,5.05-19.25,6.76-27.76,15.24,6.04,29.98,6.45,46.17,6.18,3.41-.06,6.75-1.15,10.57-.71Z"/>
  <path class="uuid-6f5a1d20-e8e0-414e-8072-e0b32e22089e" d="M1047.5,731.6c1.39-.86,1.98.46,2,1.8,16.57,7.37,36.24,11.97,53.37,7.77-2.18,13.46-3.44,25.72-6.84,38.96l-2.53,1.48c-10.33.87-48.43,1.57-54.68-5.6-.35-.4-.63-.87-.89-1.35,4.17-13.97,7.22-28.67,9.57-43.07Z"/>
  <path class="uuid-91148129-14b8-41b1-8db3-29c1bd9628f7" d="M834.9,795.18c-2.22,13.98-4.14,31.02-18.67,37.73-7.42,3.43-18.05,5.07-26.14,4.01-1.82-.24-3.25-1.15-3.66-3.06-.03-5.02,5.37-20.58,3.69-24.3s-6.11-.87-7.67,1.87c-1.45,2.54-3.68,10.4-4.73,13.73-.87,2.75-.09,8.59-4.33,6.6-1-.47-7.08-6.64-7.39-7.65-1.55-5.09,3.39-13.78,4.84-18.81s2.69-9.95,3.91-14.89c3.93.63,7.62,2.3,11.48,3.22,16.21,3.86,32.16,2.48,48.68,1.57Z"/>
  <path class="uuid-91148129-14b8-41b1-8db3-29c1bd9628f7" d="M1140.47,797.23c-.34,1.63.76,1.49,1.85,1.88,12.19,4.36,28.01,5.42,40.91,4.99,3.85-.13,8.84-1.57,12.62-1.4.58.03,2.69,1.39,4.11.69-2.26,17.1-8.18,30.24-25.84,35.35-3.59,1.04-19.31,3.9-21.4,1.29-2.87-3.58,8.39-24.73-2.94-24.11-2.54.14-3.86,6.16-4.46,8.38-1.19,4.35-1.61,8.92-2.8,13.27-11.22-3.75-12.04-5.51-9.36-16.54,1.95-8.02,5.31-15.86,7.33-23.78Z"/>
  <path class="uuid-f7040478-fd6d-407f-9f14-edfd085ddc35" d="M1096.04,780.14c-5.2,20.29-10.03,34.16-33.85,36.22-2.97.26-12.72,1.01-13.34-2.39-.74-4.08,2.63-14.3,2.55-19.05-.7-2.74-3.41-4.33-6.11-3.01-4.97,2.42-5.15,17.27-6,22.42-5.7-1.36-12.57-3.94-11.31-10.97,1.54-8.6,7.36-20.01,9.95-28.68,18.76,7.9,38.24,6.33,58.11,5.47Z"/>
  <path class="uuid-b83b3bee-42d7-42e2-a15d-44e4ec012545" d="M1047.5,731.6c.95-5.84,1.95-11.73,2.16-17.67,2.12-.58,4.45-2.45,6.57-2.72,3.05-.39,4.55,1.92,7,2.95,14.61,6.08,28.14,6.08,43.74,4.46-1.3,7.49-2.89,15.06-4.1,22.55-.83.82-.16,1.92-1.66,2.11-2.25.28-5.88.53-8.22.65-16.19.86-29.8-3.04-44.34-9.57l-1.14-2.77Z"/>
  <path class="uuid-8e4dd3d6-1e3b-40d0-9965-1d30575aa369" d="M786.37,713.83c.59-9.79.85-19.58.68-29.4,5.6.28,10.96,1.82,16.62,1.5,1.66.5,3.73,5.61,4.98,7.33,7.12,9.76,13.85,15.84,25.21,19.9,2.84,1.01,5.77,1.57,8.63,2.45.31.84.64,1.73.62,2.65-.11,5.24-1,11.45-1.37,16.76-10.8-.83-22.16-6.01-30.4-13.01-4-3.39-12.16-13.57-18.36-11.52-1.6.53-2,6.25-6.61,3.34Z"/>
  <path class="uuid-be4bb12e-a964-4534-9cba-e21306911f99" d="M1128.16,791.76l-18.77-2.75-.96,3.19-.78-.44c6.96-24.42,9.24-51.09,13.82-76.07,3.22-4.42,4.77.88,6.12,3.83,10.48,22.89,6.82,48.59.56,72.24Z"/>
  <path class="uuid-8e4dd3d6-1e3b-40d0-9965-1d30575aa369" d="M1206.78,694.01c-1.47,1.25.22,2.77-.49,4.58-1.14,2.9-8.97,12.84-11.49,15.23-7.29,6.9-12.44,7.6-21.18,10.95-5.62,2.15-20.93,9.31-26.15,7.07-1.77-.75-.95-4.44-2.2-2.96-.53-2.44-5.63-14.8-4.78-15.72,1.3-.09,2.48.59,3.76.68,19.25,1.33,39.26-4.78,52.27-19.5,2.29-2.59,4.02-6.04,6.52-8.52,1.58,2.63,2.82,5.25,3.76,8.2Z"/>
  <path class="uuid-12ff6664-40d9-406c-b148-178e27a944cd" d="M1261.46,534.73c1.33-.67,1.3-1.34,2.21.19,3.22,5.44,5.35,9.66,12,11.92,3.78,1.29,9.59.84,12.46,3.61-6.97,9.97-16.72,16.12-29.34,12.93,1.57-9.74,3.08-18.7,2.68-28.66Z"/>
  <path class="uuid-503c5cbb-4edb-4587-8fbd-8d26b1e03c1f" d="M672.02,423.43c5.81-1.28,4.97,2.37,7.02,5,5.42,6.98,11.37,9.73,20,6.31,5.13-2.03,15.53-11.49,19.97-10.77,2.8.45,3.94,5.46,3.86,7.88-.33,9.83-23.5,17.58-23.87,19.19.95,8.21-.13,17.11,6.72,23.19,6.17,5.47,13.68,5.79,21.46,4.36,13.1-2.41,22.06-15.18,32.23-22.48,15.84.32,4.15,16.37-2.1,21.85-16.17,14.18-42.59,22.05-60.49,6.52-10.92-9.48-10.64-21.77-11.95-35.22-5.56-2.4-18.63-9.96-18.7-16.73-.04-3.2,2.44-8.35,5.86-9.11Z"/>
  <path class="uuid-87007187-5947-495e-8cda-be4e7f5f67a7" d="M827.89,342.8c7.65-1.25,14.45,4.45,17.11,11.27,5.01,12.79,2.91,32.4-11.2,38.39-10.2,4.33-17.69-2.6-20.58-12.08-3.54-11.6.11-35.21,14.67-37.58Z"/>
</svg>