<?xml version="1.0" encoding="UTF-8"?>
<svg id="uuid-78b7ef89-0792-46c0-bfa1-fa018ff497c6" data-name="Layer 1" xmlns="http://www.w3.org/2000/svg" viewBox="0 0 1920 1080">
  <defs>
    <style>
      .uuid-5cafd5cc-7901-4de6-910b-ee5e4a986eb0 {
        fill: #2c0700;
      }

      .uuid-0d3d958d-84c3-478d-a250-a2d6caca4d5d {
        fill: #ec9211;
      }

      .uuid-a332b8c6-4a74-44bc-b6a6-65fa8b105371 {
        fill: #e6e1d8;
      }

      .uuid-ba5759ce-4a65-4e38-99ea-f1a1f8ca3f6c {
        fill: #ad6d23;
      }

      .uuid-85608c7d-d49b-487e-8ef6-e8be679bc597 {
        fill: #945616;
      }

      .uuid-24084a51-7e66-479e-b6b9-bc088d2e3380 {
        fill: #ad6920;
      }

      .uuid-89794a65-63d6-4586-afbf-eac805fa3d39 {
        fill: #643f0d;
      }

      .uuid-19c4dfd4-d414-4940-b87f-ccf4aa918793 {
        fill: #593407;
      }

      .uuid-e2bae4c8-53d7-4676-8002-025b68d43aea {
        fill: #fea61d;
      }

      .uuid-cc049bc7-9c51-4c06-95e4-85c7f05506b6 {
        fill: #fefefe;
      }

      .uuid-12dde739-02d4-4278-8e05-672b4152e3f7 {
        fill: #633e0d;
      }

      .uuid-933dbb13-2023-4fe9-a08b-964caefcdfcd {
        fill: #cb8a38;
      }

      .uuid-bfd95636-6150-42b1-93d0-b231b49825bc {
        fill: #925516;
      }
    </style>
  </defs>
  <path class="uuid-12dde739-02d4-4278-8e05-672b4152e3f7" d="M877.71,493.95c1.08,3.58,2.18,7.44,3.57,10.9.18.44.84,2.35,1.35,2.14,11.44-12.54,24.94-23.78,39.19-33.02,7.48-4.85,15.75-8.89,23.1-13.8,14.01-9.36,12.54-17.75,17.39-32.23,11.53-34.44,42.89-51.68,78.59-44.54,17.02,3.4,32.25,15.41,37.94,32.05,1.33,3.88,1.91,7.91,2.52,11.96,8.9,2.3,18.59,6.92,24.74,13.91,4.88,5.55,6.18,11-2.13,13.75-1.1.36-3.25.45-3.98,1.02-.49.38-.97,1.32-1.68,1.91-5.92,4.86-12.06,8.49-19.41,10.81-.18.26-.73,5.15-.77,5.91-.48,9.15,3.68,19.74,4.13,29.43-.3,3.74-.33,8.02,0,11.77-1.55,50.38-39.89,95.67-89.4,104.99l7.68,24.45c5.31.27,10.71-.22,16.02.04,3.86.19,10.15.74,13.84,1.59,8.39-.66,9.87,10.86.65,10.12-.81-.28-16.77-3.18-16.21-2.46l8.96,4.25c8.64,5.49,1.34,13.85-6.59,8.32l-14.9-7.93c-5.39-2.97-10.95-4.54-16.98-3.98-7.79.55-9.47-8.66-.99-9.69.74-.09,6.15-.21,6.38.02.1.1.17.24.23.39-2.61-7.2-5.35-14.63-8.22-22.29l-.49-.27-11.11,1.57h-22.29s3.03,18.96,3.03,18.96c-.3.44-.42,1.01-.36,1.71l.6.6c.35,2.99.79,5.97,1.3,8.95l-.32.22c8.58,0,17.16,1.97,25.38,3.97,4.07.99,11.19,3.35,9.84,8.79-1.23,4.97-7.37,3.51-11.03,2.6-4.69-1.46-9.39-2.85-14.11-4.18,3.05,1.92,5.94,4.02,8.81,6.19,6.41,4.83,4.43,12.93-3.58,10.35-5.53-3.7-10.85-7.74-15.96-12.12-4.97-3.96-10.5-6.55-16.68-7.09-6.88-.68-6.82-9.76.33-9.7l7.16.37-1.06-8.32c.01-.56.15-1.09.41-1.58-1.12-7.71-2.65-15.3-4.49-22.86-.52-.1-1.05-.02-1.56-.18-11.91-3.72-22.93-7.64-33.68-14.04-3.01-1.79-11.94-8.59-14.34-9.22-1.33-.35-7.57.3-9.72.2-5.41-.27-12.93-1.46-17.55-4.4-2.08-1.32-3.5-3.31-3.94-5.76-6.34.34-19.97-1.22-22.84-7.86-4.21-9.74,8.25-19.73,15.86-23.5-3.13-5.71,1.89-11.33,4.44-16.19-3.1-2.23-6.44-4.12-9.49-6.43-9.42-7.16-18.78-17.34-24.84-27.49-1.04-2.19-.6-2.3,1.6-1.86.72.07,1.17-.31,1.45-.95.89-2.31,1.37-3.37,3.31-1.01l1.56,1.26c7.88,11.98,18.51,22.18,30.95,29.32l16.89-20.48c.04.06.18.12.17.11-1.88-4.01-3.99-8.68-5.05-12.99-.16-.65-.08-1.33.03-1.99-1.41-1.31,3.14-10.5,3.69-10.67.16-.05.33-.1.49-.14.38.04,2.2,7.31,1.86,7.15-.05-.02-.07-.96.32-.79Z"/>
  <path class="uuid-a332b8c6-4a74-44bc-b6a6-65fa8b105371" d="M990.96,646.01c-3.82.7-11.17-1.39-11.48,4.29s7.59,4.02,11.28,4.34c8.96.78,20.53,9.68,29.25,13.06,2.26.88,5.13,1.34,6.44-1.31,1.62-3.29-.42-5.54-3.15-7.07l-11.35-5.35c2.54,0,5.26.05,7.79.32,3.87.41,8.53,2.04,12.1,2.23,4.38.23,6.39-3.91,3.65-7.16-.94-1.11-3.67-2.05-5.09-2.38.67-.2,1.35-.37,2.07-.35,13.5.5,33.93,4.25,46.92,8.14,7.8,2.34,34.05,10.9,20.85,22.12-10.83,9.2-37.76,13.84-51.9,15.86-44.63,6.38-91.91,6.92-136.76,2.9-19.99-1.79-40.62-3.91-59.89-9.78-9.76-2.98-35.44-12.19-16.72-23.57,6.82-4.15,16.81-6.97,24.59-8.81,23.67-5.61,48.14-7.35,72.4-8.41,3.47-.15,7.22-1.02,10.64-.33.5,3.48,1.08,6.97,1.27,10.5-3.23.36-11.3-2.1-12.34,2.45-1.46,6.36,5.89,5.49,9.79,6.62,9.9,2.85,17.94,12.5,26.43,17.79,2.42,1.5,5.07,1.91,6.72-.86,1.92-3.23-.05-5.41-2.46-7.53-3.55-3.12-7.89-5.38-11.6-8.28,6.36.96,12.6,3.93,18.82,5.2,2.86.58,7.28,1.38,8.39-2.32,1.78-5.93-7.73-7.8-11.81-8.9-7.51-2.03-15.28-2.93-23.04-3.53.04-3.16-1.56-7.11-1.27-10.18-.05-.78.04-1.48.29-2.11,12.86-.35,25.5-.27,37.91.23.93.19,1.4,1.34,1.25,2.2Z"/>
  <path class="uuid-19c4dfd4-d414-4940-b87f-ccf4aa918793" d="M820.44,506.99c-1.91-3.19-3.97-6.89-5.46-10.28-5.21-11.86-10.37-34.49,7.05-38.4l-.96-6.84c.78-7.33,1.2-15,6.21-20.83,6.62-7.69,16.75-7.73,24.5-1.59,12.83,10.17,21.03,48.71,25.93,64.9l-.32.79-1.75-6.83-3.59,6.91-.71,3.59c-.87-.49-1.17-1.34-1.37-2.27l-6.85-24.79c-3.15-10.89-6.46-21.92-12.65-31.49-6.85-10.58-18.08-9.06-20.33,3.83-2.1,12,1.69,27.02,5.07,38.5.29,1.43.64,3.68-1.39,3.08-2.72-.8-9.95-16.67-10.53-19.39-5.47,1.96-5.56,7.36-5.08,12.79.74,8.27,4.31,16.14,8.52,23.2l.06,1.32-1.75-.95c-1.31,2.85-1.21,4.27-4.93,3.18l.32,1.59Z"/>
  <path class="uuid-5cafd5cc-7901-4de6-910b-ee5e4a986eb0" d="M1082.26,515.9c-.53-.33-.32-1.21-.32-1.75-.03-2.75-.03-5.53,0-8.28,0-.54-.2-1.41.32-1.75.17,3.73.12,8.02,0,11.77Z"/>
  <path class="uuid-933dbb13-2023-4fe9-a08b-964caefcdfcd" d="M907.61,493.63c6.43-5.22,13.21-10.19,20.19-14.64,8.12-5.17,17.94-9.68,25.3-15.74,13.5-11.1,12.18-24.88,18.71-39.51,12.96-29.02,44.78-41.96,74.66-30.65,13.07,4.95,25.16,17.74,26.86,32,.13,1.09-2.42.12-3,.14-18.77.48-30.07,25.18-17.82,39.77,4.77,5.68,12.44,5.39,19.25,4.77-2.88,10.22,1.9,20.13,2.86,30.38,2.66,28.53-5.63,55.92-23.86,77.78-10.09,8.1-23.34,15.68-36.23,20.81-24.35,9.69-49.13,11.74-74.83,6.93-1.82-.34-7.88-1.49-8.71-2.41-.07-.08.21-.65.37-.91,33.4-6.83,76.31-34.15,77.6-72.43.2-5.82-.73-11.39-1.75-17.07.41.34.3.29-.34-.14-.72-6.61-3.17-12.83-7.19-18.11-2.52-3.31-9.95-10.87-14.13-11.16-5.78-2.65-11.78-4.75-18.4-5.81-20.95-3.34-41.88,4.66-58.68,16.75-.77.3-1.19.01-.86-.76Z"/>
  <path class="uuid-24084a51-7e66-479e-b6b9-bc088d2e3380" d="M985.55,483.45c-1.69-.12-2.99.18-2.06,2.22.46,1.01,5,4.61,6.2,5.88,18.18,19.2,10.88,46.31-6.68,63-7.27,6.9-23.27,17.21-32.77,20.2-15.22,5.74-32.26,8.4-48.52,9.09-3.15.13-20.38.34-21.04-1.24-.07-.16-.09-.34-.11-.53,21.91-7.54,43.77-17.82,61.56-32.77.44-.51-.28-.34-.57-.25-3.69,1.15-9.27,5.03-13.16,6.89-8.37,4-18.96,8.5-27.79,11.18-15.53,5.44-33.87,9.31-50.34,7.31-1.27-.15-3.95-.48-4.14-1.91-.09-.7,8.05-8.55,9.63-9.21,8.69-4.49,17.78-8.26,26.41-12.88,12.31-6.59,24.12-14.71,34.35-24.19-.51-.33-1.43.38-1.91.63-16.52,8.57-31.94,17.4-49.62,23.71-1.17.24-1.76.27-2.84-.19-.84-.36-2.99-1.73-2.57-2.67,11.25-18.47,31.24-40.45,48.04-54.08.18.68.92-.06,1.19-.25,20.47-14.44,45.36-22.22,69.92-13.44,2.24.8,5.23,1.8,6.83,3.5Z"/>
  <path class="uuid-24084a51-7e66-479e-b6b9-bc088d2e3380" d="M871.34,498.4c1.63,5.07,3.35,10.14,5.59,14.97l-17.52,21.24c-13.15-7.59-24.57-18.52-32.61-31.44-5.6-8.98-10.36-20.15-9.19-30.98.35-3.26,2.52-6.46,6.02-6.75,1.94,4.87,3.99,9.79,6.73,14.28.32.52,3.54,5.94,4.39,4.99.28-2.76-1.23-5.21-1.88-7.82-2.39-9.61-6.1-28.73-2.09-37.67,4.45-9.91,13.69-8.67,19.51-.75,10.26,13.99,15.56,42.82,21.05,59.91Z"/>
  <path class="uuid-ba5759ce-4a65-4e38-99ea-f1a1f8ca3f6c" d="M1006.87,512.72c.85-.55.53-.34.73.38,11.67,43.14-29.05,75.49-65.37,87.19l-11.06,2.77c3.7.76,7.34,1.81,11.07,2.46,39.72,6.91,75.73-3.89,107.42-27.28.27-.2.87-1.05,1.13-.3-33.87,40.62-94.36,50.44-140.62,25.3-3.16-1.72-6.13-3.76-9.22-5.58-.1-.82,0-.5.46-.64,2.28-.7,5.66-.87,8.14-1.41,39.59-8.68,102.89-32.07,97.34-82.88Z"/>
  <path class="uuid-cc049bc7-9c51-4c06-95e4-85c7f05506b6" d="M990.96,646.01c-.3-2.5-3.54-1.48-5.56-1.59-.62-.04-1.22-.3-1.9-.33-10.46-.4-21.02.34-31.49,0-.08.01-.49,1.52-.5,1.6l-3.5-21.31h23.08s11.44-1.61,11.44-1.61l.73.55c1.9,5.36,4.06,10.65,5.93,16.02.61,1.74,1.7,4.33,1.95,6.02.04.3.34.63-.18.65Z"/>
  <path class="uuid-e2bae4c8-53d7-4676-8002-025b68d43aea" d="M1102.94,448.45c-4.19,1.09-8.56,1.88-12.89,2.23-9.35.74-24.53,1.39-33.04-2.59-2.61-1.22-2.87-1.06-1.85-3.99,1.6-4.6,6.71-9.96,11.34-11.56,7.2-2.49,19.41,2.67,25.83,6.31,4,2.27,8.63,5.37,10.6,9.59Z"/>
  <path class="uuid-bfd95636-6150-42b1-93d0-b231b49825bc" d="M950.24,574.75c-8.73,4.11-18.36,7.33-27.68,10.02-15.04,4.34-33.8,8.14-49.38,5.48-2.82-.48-5.95-1.07-7.89-3.4,5.12-1.47,10.23-3.04,15.27-4.78.7.4,1.89.54,2.71.63,20.1,2.3,47.67-1.89,66.96-7.95Z"/>
  <path class="uuid-bfd95636-6150-42b1-93d0-b231b49825bc" d="M855.75,563.3l-9.22,9.39c.5.33,1.24.57,1.83.71,13.5,3.21,38.84-2.22,52.25-6.28-3.68,1.85-7.85,3.26-11.78,4.6-11.2,3.83-35.92,13.21-46.34,6.28-2.44-1.63-1.21-3.35.22-5.31,3.09-4.25,8.51-7.04,13.04-9.38Z"/>
  <path class="uuid-0d3d958d-84c3-478d-a250-a2d6caca4d5d" d="M1088.62,456.73l-5.61,3.13c-6.02,2.66-15.64,5.07-22.05,3.05-4.49-1.42-5.24-5.99-6.38-10,2.11.97,4.09,2.06,6.36,2.7,8.69,2.46,18.78,1.88,27.67,1.12Z"/>
  <path class="uuid-85608c7d-d49b-487e-8ef6-e8be679bc597" d="M864.98,550.58c-2.75.98-5.47,2.02-8.27,2.86.16-2.28,1.75-3.91,2.86-5.73,1.51,1.26,3.32,2.82,5.41,2.86Z"/>
  <path class="uuid-89794a65-63d6-4586-afbf-eac805fa3d39" d="M1022.37,424.99c11.76-1.97,12.11,23.66.87,23.4-9.98-.23-10.49-21.79-.87-23.4Z"/>
</svg>