<?xml version="1.0" encoding="UTF-8"?>
<svg id="uuid-6c2ba8ae-df46-4eb5-aa8d-94e0cd89ebf8" data-name="Layer 1" xmlns="http://www.w3.org/2000/svg" viewBox="0 0 1920 1080">
  <defs>
    <style>
      .uuid-2dfc150f-7da9-4004-9f0a-641b8ac9a752 {
        fill: #ede3c6;
      }

      .uuid-3d8dec8a-720a-4491-9f53-a1c699298774 {
        fill: #1a2534;
      }

      .uuid-8f214c37-7792-4fa3-a083-04d3629bcb20 {
        fill: #121b2a;
      }

      .uuid-14286acc-6b5c-4b94-8aa2-c5aa0669d602 {
        fill: #917361;
      }

      .uuid-a99a026f-0794-4b9c-b83a-a3af5a85ea60 {
        fill: #a7adb2;
      }

      .uuid-e61e6ff9-4131-4d6d-8bec-63c6982156f4 {
        fill: #474f58;
      }

      .uuid-a3eade7d-c6ee-44ac-a345-87e43add8e93 {
        fill: #e3ddd5;
      }

      .uuid-05c82881-f44f-4b77-9fb4-0d6c64f1bb14 {
        fill: #7d858d;
      }

      .uuid-389b1f7a-fba5-4c64-8d56-1a06e98cd465 {
        fill: #c6ced0;
      }

      .uuid-497fe7fe-065a-4c51-b682-62332abd7b5f {
        fill: #a6abb1;
      }

      .uuid-da9dcab2-28ba-420e-8ddd-7157d518feb3 {
        fill: #81898f;
      }

      .uuid-718a6387-0f4c-4a81-965d-098708d1d42a {
        fill: #a7acb1;
      }

      .uuid-d4221e86-681d-4a2f-ab96-da44a1c02344 {
        fill: #828a90;
      }

      .uuid-8b3c1b9e-7ea6-4a15-ac33-da103e2a95dd {
        fill: #81888f;
      }

      .uuid-a484e1b5-c05d-4151-8316-7c9670cee1d8 {
        fill: #a6acb1;
      }

      .uuid-61ca8681-69ab-4005-95c9-be2e542e9064 {
        fill: #9da3a8;
      }

      .uuid-b000416f-7305-40d5-9cac-2fbe84591f73 {
        fill: #939a9f;
      }

      .uuid-427e5184-8cd4-4ee4-b4fd-035b40170b4e {
        fill: #fefbf2;
      }

      .uuid-f4659bb4-48d6-4635-bc93-ae417ceb0fc6 {
        fill: #7e868e;
      }

      .uuid-5e829797-16a1-4707-8595-de1496d20add {
        fill: #82898f;
      }

      .uuid-1c004d80-ad2e-40a7-9c76-fcceb10f8850 {
        fill: #484f58;
      }

      .uuid-ebe956fd-7f28-4608-b01f-915f90388b4c {
        fill: #cec5a8;
      }

      .uuid-87fe8a72-d790-4f01-98f3-a02c9b0ec0cc {
        fill: #7d868d;
      }

      .uuid-6bc871c7-3fc0-4d81-a293-3924820b3851 {
        fill: #c5cdcf;
      }

      .uuid-409ba011-8a86-46fa-b77b-06aa21661b9e {
        fill: #c4ccce;
      }

      .uuid-5ca9414c-a0c2-44e9-90ea-4181c3de2c20 {
        fill: #9ca2a8;
      }

      .uuid-65fddfc0-5c34-407f-97df-a67a87b789c3 {
        fill: #9ca3a8;
      }

      .uuid-bae8c9fd-2cbc-4a2f-8516-19d41b19ac09 {
        fill: #6b737b;
      }

      .uuid-df092c48-04ba-4997-afa4-4ca79ae18536 {
        fill: #fbfaf6;
      }

      .uuid-a6873a86-cc39-4a6e-8abf-cf73e2008d0f {
        fill: #111c2e;
      }

      .uuid-c6d196f9-f742-4b09-9a1b-9e0b938684f9 {
        fill: #a6abb0;
      }
    </style>
  </defs>
  <path class="uuid-1c004d80-ad2e-40a7-9c76-fcceb10f8850" d="M1093.79,108.44h48.35c148.52,4.62,300.74,79.03,353.82,224.64,6.61,18.12,13.13,35.07,20.23,52.89,10.98,27.55,20.07,56.77,27.76,85.45,6.71,25.01,11.06,60.17,19.81,82.79.75,1.94,7.17,14.42,7.95,15.05,1.65,1.33,11.4,3.93,15.9,7.1,11.35,8.02,23.66,25.81,25.07,39.79,2.18,21.66.76,40.15,7.69,61.89,2.3,7.23,13.56,24.97-.26,28.06-34,7.59-91.26-36.8-94.67-71.11-.45-4.48-.42-12.02-.05-16.54.37-4.61,4.51-16.35,4.16-18.35-1.29-7.59-16.96-22.5-18.29-31.72l-21.21,108.49c-1.89-6.4-2.2-6.08-.95.96-1.35,16.74-2.67,33.49-3.24,50.27-.28,8.42-.62,21.07.65,12.45,1.96,1.23,1.18,4.47,1.2,6.47.63,51.18,8.73,95.14,12.94,145.08.76,9.03,2.3,21.32,1.19,30.06,3.09,5.95-1.35,12.25-5.53,17.37-26.19,32.03-100.05,40.4-138.6,37.75-71.8-4.95-63.82-45.19-51.94-101.57l2.66-1.9c-.28-13.21-.06-26.54.65-39.97l-2.18,30.08c-1.06,2.52-2.12,5.03-3.18,7.53,1.89,3.1,2.3,4.86,1.31,8.67-2.59,43.29-29.96,52.12-68.8,57.46-59.5,8.19-150.68,8.62-118.17-76.54l2.87-1.39-1.07-4.63c5.41-15.48,9.88-31.21,13.43-47.18l2.97-3.62c2.53-13.55,2.63-30.23,1.18-44.81-1.28.59-2.48-1.04-2.09-.9.53.2,1.03.82.3.85-29.35,1.04-57.81-1.88-87.08-5.6-2.78,32.41-4.57,64.88-5.38,97.4-1.82,7.97-2.64,16.31-2.46,25-.97,4.15-.85,9.4-.61,13.82.02.42.77.79,1.74,1.16.83,19.13-.7,59.49-14.62,73.28-28.56,28.3-109.45,29.42-147.59,24.55-29.16-3.72-56.54-12.02-61.51-44.31-31.29,9.22-66.11,12.07-98.68,10.32-39.56-2.12-87.05-10.75-84.2-59.99.17-3.01,1.34-10.23,4.51-10.56,20.5-59.95,35.51-121.9,44.65-184.73,4.14-28.47,8.81-62.04,9.65-90.59.46-15.58-7.09-25-13.23-38.76-3.5-7.86-6.92-16-9.33-24.27-22.05,2.23-44.13,10.09-66.54,8.15-5.63-.49-15.82-5.21-21.3-1.27-2.76,1.98-10.55,18.66-12.51,22.87-36.62,78.71-70.35,193.07-176.05,200.15-44.66,2.99-134.21-17.37-132.78-74.97.45-18.15,13.11-55.92,36.88-48.57,20.5,6.34,41.35,38.07,64.57,10.84,19.47-22.83,28.82-93.31,31.86-123.81,12.12-121.61,21-330.15,118.56-415.67,67.09-58.82,174.7-82.5,258.05-46.32,48.49-30.07,104.97-47.24,161.78-31.57,39.22,10.82,71.49,33.74,94.54,67.08,21.63-2.43,43.47-3.98,65.24-4.55Z"/>
  <path class="uuid-a3eade7d-c6ee-44ac-a345-87e43add8e93" d="M1040.72,876.18c.36,5,.75,9.72,1.18,14.15-.97-11.1-1-24.02,0-35.38l6.85-2.24c23.67-.14,46.93.2,69.79,1.03,2.15.26,2.94,2.23,2.37,5.92-7.04,23.86-15.61,52.53,11.77,67.83,29.62,16.55,97.52,11.59,129.74,2.34,34.51-9.9,37.32-24.7,41.28-58.37l1.01-.49c.14-5.13,1.36-7.42,3.65-6.88l.05,9.73c-3.46,25.57-17.52,63.53,1.74,84.94,22.45,24.95,97.8,16.38,127.99,8.83,21.37-5.35,60.49-20.24,63.68-45.41l1.19,2.94c.04-14.8.51-29.65-2.36-44.21,3.65-3.06,82.67,16.27,93.16,19.45,25.25,7.67,92.91,30.99,49.92,64.07-38.23,29.42-154.25,46.3-203.99,53.1-188.32,25.77-382.42,26.39-571.82,16.69-109.93-5.63-233.23-13.5-339.3-42.8-24.01-6.63-112.94-31.4-68.71-68.04,21.35-17.69,70.75-28.31,98.23-33.85s54.36-9.83,81.59-12.16c-2.13,2.65.03,6.64,0,7.07-.27,3.78-2.1,8.46-2.33,12.4-.75,12.67,3.64,26.56,12.92,35.39,28.64,27.25,109.64,22.11,146.51,15.55,8.33-1.48,16.58-3.86,24.51-6.73.05,18.28,9.13,30.49,25.54,37.57,38.35,16.57,146.12,14.55,177.94-15.13,16.09-15.01,14.47-59.65,14.69-80.83.02-1.99-.75-5.24,1.2-6.47Z"/>
  <path class="uuid-3d8dec8a-720a-4491-9f53-a1c699298774" d="M1490.04,676.88c-1.11,6.08-.77,12.2-1.13,18.32-.09,1.53-1.22,3.07-1.22,3.49v21.23c0,.44-1.16,1.95-1.22,3.49-.21,5.69.15,11.45.04,17.14-.11,5.68.23,11.43,0,17.11-.06,1.44.89,4.39-1.17,4.11-.75-30,.47-59.82,3.54-89.62l1.17,4.71Z"/>
  <path class="uuid-a6873a86-cc39-4a6e-8abf-cf73e2008d0f" d="M1142.14,108.44h-48.35c15.7-.41,32.67-.49,48.35,0Z"/>
  <path class="uuid-718a6387-0f4c-4a81-965d-098708d1d42a" d="M1458.2,306.57c11.6,48.82,7.97,102.78-.6,153.33l-15.93,87.85c-12.76,65.39-12.44,132.73-5.52,199.08l11.58,116.02c.75,4.92.26,9.79-1.32,14.51-1.99,12.83-12.84,27.13-21.12,37.44l-3.65,1.47c-1.45-2.36-10.58-11.67-13.07-13.46-14.11-10.15-27.44-5.1-39.41,5.09-9.37-13.79-22.47-26.89-40.68-22.3,9.44-40.31,4.43-78.76-9.73-117.04-16.12-43.58-35.32-77.15-44.15-124.5-1.15-6.19-4.23-36.54-6.47-38.97-.51-.56-1.95.01-2.15-.17l-2.92-.63c.96-13.26,3.8-26.38,8.51-39.36,1.83-9.56-2.61-2.87-4.98,1.88-24.35,68.66-105.33,110.74-176.84,103.25-7.51-.79-28.05-3.1-31.81-8.1.33-5.29-.07-10.54-.71-15.76-2.88-17.13-9.72-18.22-14.53-.97-18.18,65.1-21.12,147.84-24.38,215.61-1.91,27.98-6.74,55.92-23.68,78.79-4.08,5.51-13.06,16.46-18.85,19.05-.19.09-.06-3.69.08,1.22-6.12,1.2-12.62,2-18.87,2.36v-24.18c0-1.06-3.68-11.46-4.5-13.19-8.39-17.7-26.65-24.99-43.74-13.83-2.33,1.52-11.86,10.79-13.07,9.91-7.78-21.95-20.5-37.85-46.01-28.31,12.43-46.32,20.72-92.67,18.92-140.97-.69-18.35-5.77-81.81-14.39-95.29-6.06-9.48-8.92-5.27-11.6,2.76l-1.34,6.54c-34.4-12.34-68.34-53.85-55.08-91.88,4.49-12.87,19.67-33.47,34.52-33.26,61.07,19.35,128.07-15.26,160.58-69.17,8.34-19.02,18.96-36.25,31.86-51.71,70.87-62.49,99.04-172.71,43.61-254.42-1.36-4.63-3.55-7.85-6.59-9.67-2.63-6.77-5.46-13.35-8.26-20.04,111.09-14.09,231.26,1.2,323.99,66.95,41.67,29.55,68.8,58.51,92.32,104.04Z"/>
  <path class="uuid-718a6387-0f4c-4a81-965d-098708d1d42a" d="M921.61,65.99c51.83,10.72,84.03,43.46,104.33,90.85,33.43,78.02,20.74,159.32-41.81,217.56-3.77,3.51-12.81,8.66-15.38,12.06-9.18,12.11-16.8,39.45-25.3,54.58-33.99,60.57-121.57,84.56-154.14,9.03-11.7-27.13-9.26-49.98-15.45-76.54-1.23-5.28-4.07-12.2-9.66-5.6-4.57,5.39-4.79,39-4.16,47.13-.54,36.04-32.62,67.75-66.08,77.32-9.9,2.83-32.28,5.89-41.65,2.32-1.4-.53-2.34-1.77-3.12-2.99-.18-19.9-10.4-44.65-30.69-51.27-21.77-7.1-29.8,12.22-43.04,24.11-25.16,22.61-47.17,21.71-75.47,33.03-11.55,4.62-11.02,9.71-7.7,20.71,5.17,17.16,19.64,28.91,36.62,33.56.44.83.84,1.68,1.08,2.56s.45,1.69.29,2.42c-15.64,74.28-65.48,173.67-147.91,187.24-32.73,5.39-66.49-8.76-94.05-24.76-7.18-13.56-3.92-34.14,3.56-47.17,1.84-1.28,12.86,11.52,15.41,13.45,14.15,10.73,33.36,13.8,50.35,9.28,26.91-7.16,36.49-39.22,43.91-62.83,1.99-1.46,29.39,16.01,36.06,16.45,11.77.77,1.03-10.05-3.04-13.52-3.52-3-28.24-18.4-28.39-20.13l9.56-49.96c14.52-3.58,29.84,5.81,42.99,5.92,15.24.13,2.95-9.56-3.51-13.09-11.21-6.11-25.78-7.95-38.36-8.24l4.71-60.14c8.03-.5,16.05-1.88,24.16-1.16s24.52,7.96,31.01,5.04c4.99-2.25-3.39-9.85-5.61-11.57-10.41-8.07-22.83-8.85-35.41-8.82-.91-.21-2.26-.71-2.21-1.36.57-7.13,4.86-55.19,6.88-57.24,9.2-1.23,18.65-1.74,28.35-1.54,4.11.42,7.74.73,11.8,1.76,5.62,1.43,17.44,9.57,18.59.96.86-6.46-15.99-13.27-21.24-14.82-12.75-3.78-19.85-3.21-32.74-2.05-.57-.77-1.11-1.55-1.49-2.4-2.87-6.37,7.72-59.63,9.67-69.04,10.59-51.03,24.17-102.3,49.67-146.15-3.1-1.41-3.91-3.17-2.42-5.3,46.64-70.28,152.25-107.29,233.52-86.7,3.45.88,12.88,3.09,15.32,4.73,1.97,1.31.73,1.26,0,2.37-2.56,3.88-9.08,8.41-12.4,12.37-4.81,5.74-16.23,24.58-16.86,31.56-.9,9.87,12.24,9.01,17.47,2.65,1.26-1.45,3.04-1.55,5.36-.32,42.24-52.68,110.36-85.67,178.62-76.33Z"/>
  <path class="uuid-5e829797-16a1-4707-8595-de1496d20add" d="M1050.16,155.61l3.52-2.35c6.33,15.57,16.79,29.18,23,44.83,24.96,62.93,8.31,135.51-30.27,189.04-14.58,20.24-33.01,31.38-45.98,53.09-6.88,11.52-12.04,24.59-19.36,36.07-28.34,44.41-81.77,76-135.5,72.03-6.33-.47-24.96-6.07-28.05-5.66-5.83.77-19.21,13.63-22.58,18.75-26.65,40.56,8.42,85.69,45.9,102.49.24.08,1.48-3.87,1.76-4.71l-.58,40.09c-21.28-9.16-41.87-20.08-60.62-33.73-42.42-30.9-70.21-76.83-92.1-123.71,9.77-4.42,40.68-10.64,45.1-20.94,3.44-8.03-5.56-12.36-12.56-11.4l-84.43,19.97c3.12-7.23,7.67-13.75,9.75-21.49,1.55-5.74,2.08-10.31,2.03-16.25,52.23,10.84,101.62-24.55,110.86-76.66,3.64,46.85,29.9,99.75,81.98,103.77,61.81,4.77,105.77-30.45,130.51-84.1,3.5-7.59,7.94-24.03,11.73-29.55,2.14-3.12,12.12-9.1,15.81-12.49,68.45-62.91,83.24-151.68,50.09-237.08Z"/>
  <path class="uuid-8b3c1b9e-7ea6-4a15-ac33-da103e2a95dd" d="M1447.59,938.69l-2.74.07c.63-17.66.58-35.47-.16-53.43l1.73-7.97c-5.66-86.43-21.25-164.45-16.56-253.01,5.01-94.45,41.21-187.27,31.88-282.98-.94-9.67-3.33-19.25-4.17-28.94-.18-2.12-1.09-3.8.64-5.85,41.35,80.05,41.66,167.6,27.96,254.98-9.99,63.71-22.48,118.59-20.93,184.37,1.19,50.53,11.43,99.2,14.19,148.56.31,5.58.92,18.67-.01,23.55-1.56,8.14-24.43,18.11-31.82,20.66Z"/>
  <path class="uuid-da9dcab2-28ba-420e-8ddd-7157d518feb3" d="M1057.23,646.21c.84,4.99,1.7,9.8,1.32,15.19,46.52,14.05,96.8,7.38,138.2-17.78,19.69-11.97,45.4-33.8,57.19-53.66,5.15-8.67,8.27-22.05,13.39-29.07,4.49-6.16,7.85-4.4,6.79,3.25-.78,5.6-12.23,37.31-8.15,40.79-9.25.52-10.2,20.35-10.6,27.73-1.34,24.5,4.81,49.66,12.96,72.5-67.63,28.62-146.22,36.18-218.05,19.95,1.48-26.44,8.75-52.24,6.95-78.9Z"/>
  <path class="uuid-8b3c1b9e-7ea6-4a15-ac33-da103e2a95dd" d="M708.15,688.67c1.97-15.02,3.83-30.12,4.86-45.27l2.2-11.33c29.65,44.17,76.35,76.02,127.45,90.34-2.27,65.49-15.71,129.62-25.07,194.23-1.27,2.44-6.19,3.2-8.96,4.01-9.73,2.85-20.82,4.06-30.91,5.06-2.45.09-4.59-.33-6.42-1.25,2.81-20.73,4.42-43.85,5.21-65.8,1.84-51.19.99-103-39.82-139.89l-27.2-25.69-1.35-4.42Z"/>
  <path class="uuid-5ca9414c-a0c2-44e9-90ea-4181c3de2c20" d="M708.15,688.67c21.3,19.45,47.45,41.75,59.18,68.78,17.83,41.08,11.85,104.61,8.06,148.82-.54,6.28,1.58,12.18-2.38,17.67l4.73,1.78c-4.25.42-8.44,2.02-12.85,1.05-3.72-18.38-3.64-44.86-24.08-53.16-11.47-4.65-20.8-1.24-31.5,3.24-8.4-13.58-17.2-28.61-35.35-28.97,17.1-51.73,27.11-105.19,34.21-159.2Z"/>
  <path class="uuid-bae8c9fd-2cbc-4a2f-8516-19d41b19ac09" d="M1158.66,804.24c.55-4.42.99-11.27,1.23-15.87.56-10.74-.57-21.68.01-32.42,40.33-4.09,79.99-12.98,117.86-27.19.65,6.35,6.09,13.5,7.01,19.53,1.04,6.76.37,19.76.12,27.1-.79,23.11-2.83,48.73-4.78,71.88-1.08,12.81-1.87,34.22-4.81,45.9-2.55,10.08-15.9,11.65-24.66,13.67-4.85.32-5.34-1.9-2.38-5.34,1.78-12.15,2.89-32.97-1.03-44.54-9.83-29.04-50.5-41.5-77.84-46.73-7.81,1.35-11.39-.65-10.74-5.99Z"/>
  <path class="uuid-427e5184-8cd4-4ee4-b4fd-035b40170b4e" d="M1040.72,876.18c-.4-41.68,2.16-83.67,5.95-124.98l53.62,5.86,36.4-.04c1.45.29.5,1.81.74,2.41,1.37,14.79,1.44,30.26-1.18,44.81-2.54,18.01-10.15,37.87-15.33,55.43-1.43-1.44-.27-3.29-2.87-3.64-4.85-.65-11.42.44-16.64.15-2.79-.16-5.37-1.18-8.16-1.28-17.07-.6-34.28.55-51.35.05v35.38h-1.17c-.06-4.71.03-9.45-.01-14.15Z"/>
  <path class="uuid-da9dcab2-28ba-420e-8ddd-7157d518feb3" d="M528.9,551.87c8.42,2.3,16.79,2.43,25.37,3.55,1.63.21,2.06-.67,1.73,1.73-40.16,72.52-61.03,183.47-158.74,197.43-28.9,4.13-94.17-7.36-108.94-35.24,1.99-1.68,2.95-.12,4.56.67,43.29,21.08,76.05,33.65,122.84,10.57,61.88-30.53,100.3-113.97,113.18-178.7Z"/>
  <path class="uuid-05c82881-f44f-4b77-9fb4-0d6c64f1bb14" d="M1158.66,804.24c1.46,5.93,6.23,2.87,11.08,3.66,17.45,2.86,44.08,11.55,58.39,21.8,28.25,20.22,24.78,40.26,22.48,71.81-.21,2.93-4.53,3.28.03,5.34-9.69,2.23-19.55,3.87-29.48,4.72v-18.28c0-1.68-2.93-10.46-3.82-12.69-7.32-18.41-23.46-24.39-40.32-12.69-6.63-9.97-15.13-19.65-27.76-21.25,2.23-14.09,7.64-28.26,9.39-42.41Z"/>
  <path class="uuid-14286acc-6b5c-4b94-8aa2-c5aa0669d602" d="M1596.17,682.77c-25.77-10.63-58.04-38.36-48.88-69.52,1.48-5.04,9.49-17.23,14.35-18.7,5.3-1.6,13.31,3.78,16.89,7.4,14.68,14.86,9.64,35.24,11.77,54.28,1.01,9,2.78,18.06,5.87,26.55Z"/>
  <path class="uuid-2dfc150f-7da9-4004-9f0a-641b8ac9a752" d="M623.24,475.21c.91,8.35-6.49,16.58-12.13,22.41-23.03,23.83-61.17,31.12-92.64,23.21l-2.55,1.55c-.78-1-4.07-7.65-3.54-8.24,26.89-4.69,54.16-14.73,74.31-33.61,3.65-3.42,17.43-21.04,19.71-21.66,8.84-2.4,14.34,10.5,16.83,16.34Z"/>
  <path class="uuid-6bc871c7-3fc0-4d81-a293-3924820b3851" d="M500.59,175.66c.8,3.46,5.54,2.01,5.9,2.36,1.03,1.01-11.25,22.2-12.81,25.52-22.68,48-35.21,103.38-43.61,155.7-2.09,13.01-4.59,26.17-4.91,39.31-3.95.35-7.83,1.03-11.79,1.17,11.65-75.6,24.14-159.15,67.22-224.07Z"/>
  <path class="uuid-ebe956fd-7f28-4608-b01f-915f90388b4c" d="M515.92,522.38v-4.71c38.9,11.68,90.67-2.8,107.32-42.46,8.25,19.29,5.02,41.52-15.71,50.92-20.03,9.07-76.63,15.33-91.61-3.75Z"/>
  <path class="uuid-497fe7fe-065a-4c51-b682-62332abd7b5f" d="M877.96,963.46c-7.37-2.69-27.24-5.03-31.86-11.18-8.64-11.52,4.7-49.32,20.61-46.63,2.23.38,7.96,6.25,9.42,8.34,9.59,13.79,4.59,34.11,1.83,49.47Z"/>
  <path class="uuid-497fe7fe-065a-4c51-b682-62332abd7b5f" d="M941.66,964.63c-8.56-.75-16.89,1.26-25.41,1.22-2.49-.01-4.7-1.06-7.03-1.21-4.14-.26-9.18.57-13,0-1.87-.28-1.77.72-1.78-1.78-.02-4.4,3.82-15.96,6.13-19.85,2.17-3.67,16.28-19.17,19.79-20.3,10.94-3.52,21.3,10.74,21.3,20.11v21.82Z"/>
  <path class="uuid-61ca8681-69ab-4005-95c9-be2e542e9064" d="M688.1,924.54c-28.37-2.7-34.08-21.78-22.97-45.98,3.48-7.58,9.64-19.52,18.26-11.22,11.38,10.95,9.08,43.15,4.72,57.2Z"/>
  <path class="uuid-65fddfc0-5c34-407f-97df-a67a87b789c3" d="M748.25,928.07h-32.43c-2.5,0-8.9-4-12.34-3.59-.35-8.03,12.31-35.13,19.44-36.48,3.09-.58,10.27-.47,13,1.09,8.95,5.1,13.19,29.27,12.32,38.98Z"/>
  <path class="uuid-a484e1b5-c05d-4151-8316-7c9670cee1d8" d="M1348.13,904.88c9.85,9.53,4.99,34.49,3.94,46.78-22.34-1.3-32.84-6.31-28.96-30.73,1.88-11.8,13.36-27.33,25.02-16.05Z"/>
  <path class="uuid-409ba011-8a86-46fa-b77b-06aa21661b9e" d="M921.61,65.99c-1.23,2.19-4.24,1.06-6.13.85-57.84-6.4-120.52,22.53-159.58,64-2.29,2.43-10.87,14.18-12.91,14.18-1.02,0-4.02-1.82-5.35-2.37,2.48-3.01,5.16-9.65,8.28-13.54,38.12-47.44,116.08-75.45,175.7-63.12Z"/>
  <path class="uuid-c6d196f9-f742-4b09-9a1b-9e0b938684f9" d="M1414.57,948.12c-14.48.62-29.85,4.56-44.13,2.49-3.86-2.71,7.06-23.3,9.65-26.94,18.27-25.62,32.49,6.66,34.48,24.44Z"/>
  <path class="uuid-5e829797-16a1-4707-8595-de1496d20add" d="M1517.18,464.6c2.23.37,1.93,2.49,2.49,3.99,2.94,7.85,5.33,16.37,7.31,24.53,5.37,22.13,6.79,49.74,15.91,70.18,1.6,3.58,7.01,8.76,5.56,12.1-.19.43-4.39,5.86-4.76,5.95-1.93.5-4.22-4.18-5.06-5.54-10.42-17.08-19.98-49.4-21.45-69.36-1.04-14.09,2.82-27.92,0-41.85Z"/>
  <path class="uuid-b000416f-7305-40d5-9cac-2fbe84591f73" d="M1447.59,938.69c-2.36.82-16.97,5.44-17.68,4.72-1.31-7.77-4.19-20.52-8.26-27.13,7.75-13.32,18.92-24.44,24.77-38.92,1.33,20.33,2.09,34.57.53,55.46-.16,2.1-1.1,3.81.64,5.86Z"/>
  <path class="uuid-d4221e86-681d-4a2f-ab96-da44a1c02344" d="M975.86,959.91c-1.24-1.43-3.68-.71-1.09-2.86,19.39-16.09,29.63-34.19,35.9-58.45,3.21-12.41,4.88-25.26,7.65-37.75-1.07,22.22,1.13,55.12-3.83,75.77-3.87,16.11-24.11,20.44-38.62,23.29Z"/>
  <path class="uuid-f4659bb4-48d6-4635-bc93-ae417ceb0fc6" d="M1159.82,912.74c-20.92-4.78-28.95-9.28-21.75-31.79,2.91-9.09,10.48-23.75,20.03-11.89,9.12,11.32.04,30.37,1.72,43.67Z"/>
  <path class="uuid-87fe8a72-d790-4f01-98f3-a02c9b0ec0cc" d="M1204.65,913.92h-29.48c.29-10.93,4.56-22.92,12.34-30.71,4.86-4.86,8.5-6.32,12.97.09,1.5,2.15,4.18,11.26,4.18,13.51v17.1Z"/>
  <path class="uuid-389b1f7a-fba5-4c64-8d56-1a06e98cd465" d="M468.75,412.71c-3.34,2.93-24.85.02-25.95,1.17l-7.07,58.97c-2.95,0-6.69-.37-9.43,0-.96-1.4.26-3.28,1.51-2.98.71.17-.38,2.12-.17-1.53.84-14.32,2.56-28.56,4.53-42.77-.3-1.68-.69-3.22-1.15-4.61.33-2.2-.35-4.77.06-7.02,12.44-1.88,25.15-2.52,37.68-1.24Z"/>
  <path class="uuid-df092c48-04ba-4997-afa4-4ca79ae18536" d="M1308.43,873.82l-1.19-9.43-2.34,10.02-1.19-2.95c1.83-15.53,3.09-35.56,3.58-51.25.16-5.03-.62-9.86-.64-14.79,1.99,4.76,3.38,12.12,3.99,17.24,2.01,17.01.08,34.24-2.21,51.16Z"/>
  <path class="uuid-a99a026f-0794-4b9c-b83a-a3af5a85ea60" d="M431.01,420.96l1.18.61v-6.51c1.83.21,3.82-1.18,3.47,1.69-2.23,18.27-5.19,36.49-5.82,54.93l-3.55,1.17c-.13.02-.86,1.7-2.35,1.17,2.42-16.93,3.54-34.22,6-51.17.14-.99,1.04-1.65,1.07-1.89Z"/>
  <path class="uuid-8f214c37-7792-4fa3-a083-04d3629bcb20" d="M1137.43,759.43c.34.85,1.08,1.2,1.23,2.85,1.18,13.29-.23,29.23-1.27,42.53l-1.14-.57c2.08-14.77.83-29.92,1.18-44.81Z"/>
  <path class="uuid-e61e6ff9-4131-4d6d-8bec-63c6982156f4" d="M606.46,313.86c11.76-1.33,22.34,10.83,23.76,21.7,1.47,11.23-1.96,36.27-15.93,38.12-22.61,2.99-24.41-23.03-22.87-39.38.82-8.76,4.92-19.29,15.04-20.44Z"/>
</svg>