<?xml version="1.0" encoding="UTF-8"?>
<svg id="uuid-82448a90-6fc3-478a-8233-27edd6063e2b" data-name="Layer 1" xmlns="http://www.w3.org/2000/svg" viewBox="0 0 1920 1080">
  <defs>
    <style>
      .uuid-5baf64c8-10b2-4652-8653-18073e72ffdc {
        fill: #d47b02;
      }

      .uuid-7ea78ec1-8428-4ced-a55c-3b8d20016f67 {
        fill: #dc7f02;
      }

      .uuid-bdfed20c-55f9-4e19-8714-712bd49777ed {
        fill: #e08d15;
      }

      .uuid-3846ad2a-b6cd-4bdb-afff-da5e4d53f3b9 {
        fill: #cc7502;
      }

      .uuid-2a4e85d6-1396-4fd2-b872-6acc5a3d4a44 {
        fill: #44290c;
      }

      .uuid-d3bd5038-1ad9-4c9c-a3b0-8ddc355e5f1c {
        fill: #ce7702;
      }

      .uuid-5aab1f1a-c6df-4c85-936b-6dc1cb25587e {
        fill: #43280a;
      }

      .uuid-d6407396-511c-4c95-bac6-25dc378a68ab {
        fill: #d87d02;
      }

      .uuid-0352fbbe-cee9-4be9-a586-369daa993331 {
        fill: #d07802;
      }

      .uuid-76188c31-dd01-48d8-a382-573681c616cb {
        fill: #da7f02;
      }

      .uuid-f432a6e4-dd16-4b5e-8a08-b037366c4da0 {
        fill: #e3ddd5;
      }

      .uuid-90164c0d-1d53-4a15-ba53-77afba500f21 {
        fill: #cc7602;
      }

      .uuid-bc3ba311-bbc9-4c86-8738-c471bf502aec {
        fill: #45290a;
      }

      .uuid-09d3b059-387b-4ddc-88e4-0ac6c5b783b3 {
        fill: #452a0b;
      }

      .uuid-990fe6c9-baaa-4760-9f45-906d8bdb0b40 {
        fill: #2c1201;
      }

      .uuid-f64aa254-ea93-4fab-93f0-54ade137d6c2 {
        fill: #d18b20;
      }

      .uuid-b339728d-8d90-4ac8-9701-bce938608fb0 {
        fill: #e18302;
      }

      .uuid-e3e9bc8c-0f8f-4125-9c40-0c3db03ddf59 {
        fill: #da7f03;
      }

      .uuid-530434ce-edcd-42ac-ae05-7ffb5241a9fc {
        fill: #301704;
      }

      .uuid-a400966a-a8a7-4791-8b64-ce1caaf93a03 {
        fill: #765218;
      }

      .uuid-04e74dfa-df92-4419-9700-d6bdec4f7b12 {
        fill: #f09d26;
      }

      .uuid-43a175c5-2be1-4dc2-893e-4c45b6b0f250 {
        fill: #d17902;
      }

      .uuid-dacf9aa2-c330-4901-82b0-74a380c25ab3 {
        fill: #f7a554;
      }

      .uuid-fdef0125-ae26-4fe3-8677-4ce51f388fcd {
        fill: #dc7f01;
      }

      .uuid-d39b5660-70ae-4db0-9a7f-b83337d6ca3d {
        fill: #422404;
      }

      .uuid-4ffb82e0-754e-46c6-85a3-84a527e8281b {
        fill: #ec9c25;
      }

      .uuid-be289ca6-0432-4792-8a40-7dcf2d188b16 {
        fill: #301502;
      }

      .uuid-f935c553-d946-42c2-9589-1a6fa0f0c8ec {
        fill: #ce7703;
      }

      .uuid-6fdfba64-772b-456b-a74b-cf0c16b98ccd {
        fill: #f8b44e;
      }

      .uuid-ff446f63-4bd2-4a82-9f26-d0086e72ef22 {
        fill: #d27a03;
      }

      .uuid-e42f6c57-47cc-4385-94fc-e12526685684 {
        fill: #e18504;
      }

      .uuid-c929e9c4-631b-4b59-a949-4451618b9378 {
        fill: #ee9c25;
      }

      .uuid-d0f116a4-c78f-4878-af86-93ce02f2209b {
        fill: #3f2409;
      }

      .uuid-0ecf87d6-c1b9-4dcb-8ff3-4efd706da250 {
        fill: #f7a654;
      }

      .uuid-8a975f64-23c2-4705-bf45-f69ad37862dc {
        fill: #d17802;
      }

      .uuid-6d19605f-4a9d-4c8d-9e57-c8eb87655c95 {
        fill: #f3a028;
      }

      .uuid-b8f5da36-1ecf-42f2-8034-741eff24a487 {
        fill: #3f2407;
      }

      .uuid-a2f5c26b-72de-4797-9268-105c2a8c3942 {
        fill: #432609;
      }

      .uuid-d4cf051c-835d-457c-8eee-e787d70b9c83 {
        fill: #ec9b25;
      }

      .uuid-48d9fc55-de36-48ba-83d1-904369428f5c {
        fill: #e48603;
      }

      .uuid-3a66905b-2812-48e2-9413-b3df5e03b9e3 {
        fill: #755117;
      }

      .uuid-507fef23-6a4e-4746-8dc6-6a3f2c59d824 {
        fill: #fbfae9;
      }

      .uuid-fd132959-59ea-42da-84f6-6b70e3979d60 {
        fill: #f19e26;
      }

      .uuid-1987d7b2-c164-4e66-a137-8d389f364b2e {
        fill: #e08d16;
      }

      .uuid-33ff31fb-d665-4dcd-b4ec-0a7035c577dc {
        fill: #976415;
      }

      .uuid-70715d66-1d25-4497-ae17-30596bd2ec5b {
        fill: #f29f27;
      }

      .uuid-10cb538c-ca81-47fd-a5e6-88876f898682 {
        fill: #d77c02;
      }

      .uuid-fbfb9bc0-12cb-4471-9f6f-329c06ba34bb {
        fill: #402407;
      }

      .uuid-6152ec09-aa03-4375-a19a-94b5855e57ca {
        fill: #442a0b;
      }

      .uuid-14cc6596-5aca-4497-b892-d778b6bb8f41 {
        fill: #50351a;
      }

      .uuid-0302d5b9-e99a-48c6-bdb4-9f1873fafefe {
        fill: #785318;
      }
    </style>
  </defs>
  <path class="uuid-0302d5b9-e99a-48c6-bdb4-9f1873fafefe" d="M981.12,326.77c-.5,11.91-1.1,23.75-1.81,35.52-.27,2.09-.89,4.03-1.2,6.02-1.42,5.16-2.7,10.9-3.83,17.2.25-.21,10.16,30.09,7.41,27.08-.55-.61,0-.78.63-.34,2.07,10.8,2.58,16.4,2.53,27.4-.02,5.18,9.32,2.99,8.31,9.59-.68,4.46-8.27.45-9.37,2.11-.39.6-2.27,11.76-2.85,14-1.07,4.14-2.26,8.32-4.08,12.17,3.11,1.8,9.63,6.36,7.56,10.57-2.11,4.31-8.69-1.66-10.83-1.21-1.52.32-.13,2.59.27,3.33,7.41,13.68,42.16,29.66,55.95,38.56,35.31,22.79,64.33,57.08,73.49,98.97,1.24,9.67,2.25,18.9,3.01,27.69l.9,3.01c3.48-4.71,6.07-10.92,7.48-16.6,13.86-55.54-39.63-90.28-59.65-135.29-15.61-35.08-18.98-85.4,15.21-110.81,18.77-13.95,51.19-17.63,59.37,9.75,8,26.79-17.33,31.03-19.11,53.38-2.38,29.73,25.92,58.93,40.6,82.84,11.73,19.11,21.01,40.82,24.43,63.15.9,9.56,1.3,19.28,1.2,28.89-2.66,38.27-24.65,75.59-61.69,89.1-3.92,1.43-15.01,3.58-17.48,5.39-2.19,1.6-1.91,4.54-2.69,6.64.28.69.6,1.48.41,2.24-.61,2.48-3.17,6.39-4.72,8.59-9.87,14.01-27.35,16.71-43.16,19.01l-1.89-.94c-17.24,1.98-34.75,3.44-52.51,4.39-4.94-.57-5.9-.43-2.87.43,1.09,2.27-3.31,2.73-3.61.6-6.7-.67-14.34-.41-21.07,0l-1.28,1.07c-10.63-1.42-21.64-4.12-28.66-12.81-1.11-1.37-3.54-5.41-1.96-6.63-2.19-1.29-1.55-8.37,0-10.23l-.42-.44c-1.51,10.06-4.05,19.72-12,26.94l-2.03.29c-6.88,5.88-15.13,7.55-24.1,8.12-13.87.89-29.96.11-42.71-5.11l-1.46.5c-4.74-3.24-8.79-7.85-10.28-13.5-3.94,3.03-8.23,5.39-12.88,7.07l-1.87-.69c-16.21,2.45-33.7.24-48.76-6.02-2.55.94-4.95-2.76-6.21-4.85-1.56-2.58-2.36-5.53-2.8-8.5-.41-2.73-1.11-8.01,1.18-9.53.93-8.39,7.99-16.45,14.5-21.32,3.37-2.52,7.31-4.19,10.47-6.98,1.32-5.94.81-12.01.91-18.05.13-1.06.34-1.32.64-.76.35-22.31-.28-45.33-2.2-67.37,0-.04.13.57-.25.71l-1.97-16.39c-1.46-5.93-3.1-11.88-4.05-17.92-1.45-16.28-1.57-33.01-1.2-49.36.35-4.98,1.8-9.91,1.11-14.95-18.32-6.41-34.22-19.25-45.29-35.06-4.13-5.89-7.61-11.89-9.35-18.96-4.96-.4-27.6,10.01-30.65,8.09-.88-.56-.71-3.5-.24-4.58,2.32-5.31,23.5-10.4,29.09-11.97l-1.52-15.31-27.63-2.47c-4.34-5.35.94-6.79,5.62-7.13,4.8.35,9.65.41,14.45,0,1.01.05,2.3-.22,3.19.01.55.14.19,1.25,1.28,1.24.72,0,3-.47,3.37-1.07.79-1.28.9-8.89,1.27-11.23,1.64-10.43,4.27-19.77,7.58-29.74,1.03-3.09,3.98-8.56,4.26-11.42.17-1.74-1.9-8.51-2.29-10.99l.23-1.43c-3.47-25.5-6.24-52.14-.83-77.43,8.07-24.24,30.29-10.56,44.86-1.22,10.22,6.55,19.94,14.7,28.97,22.79,2.59,1.54,3.61.84,6.23.69,20.94-1.57,42.01-1.37,63.2.6,2.75.41,5.53,2.06,8.4.87,15.88-10.34,46.77-38.17,65.85-38.15,23.46.02,23.45,30.89,23.87,48.11Z"/>
  <path class="uuid-f432a6e4-dd16-4b5e-8a08-b037366c4da0" d="M769.24,734.89c-.95,8.53.21,17.83,7.83,22.87,15.04,6.27,32.5,8.45,48.76,6.02,2.53-.7,4.78-1.69,7.15-2.78l8.5-5.64c.52,6.04,5.81,11.99,10.84,15.05,12.91,5.13,28.89,5.92,42.71,5.11,8.85-.51,17.16-2.18,24.11-8.12,4.83-4.55,8.37-9.39,10.4-15.78,1.1-3.47,1.31-7.79,2.8-11.04.33-.71.53-1.6,1.53-1.48.93.33-.29,1.37-.29,1.51v10.23c0,.36,1.89,4.25,2.29,4.93,5.3,8.89,19.91,12.48,29.61,13.43,7.01-.34,14.04-.34,21.07,0,1.14-.02,2.96.41,3.61-.6,18.5-1.18,36.96-2.79,55.38-4.82,21.75-3.24,40.77-5.89,49.36-28.89l.67.38c1.8-9,3.32-5.64,9.89-5.17,31.79,2.3,67.28,5.84,97.9,17.02,5.36,1.96,19.07,8.65,16.28,15.89-3.43,8.9-23.87,15.55-32.64,17.93-39.08,10.58-80.42,13.75-120.69,16.56-79.48,5.54-159.8,5.39-238.99-2.41-32.05-3.16-76.41-7.8-106.06-19.74-6.43-2.59-20.48-9.73-15.12-18.38,6.66-10.76,36.26-17.34,48.42-19.6,2.44-.45,5.62-.3,8.21-.82,2.19-.44,3.99-2.15,6.47-1.66Z"/>
  <path class="uuid-14cc6596-5aca-4497-b892-d778b6bb8f41" d="M740.34,371.92c-3.31-21.27-7.34-58.62-.6-78.86,1.15.58.39,2.03.21,2.91-5.24,24.9-1.86,47.99.82,72.82.1.97.7,2.5-.43,3.13Z"/>
  <path class="uuid-2a4e85d6-1396-4fd2-b872-6acc5a3d4a44" d="M793.32,621.12c.02-.77-.49-3.04.6-3.01-.34,5.53.94,11.07,1.2,16.56.79,16.39,1.75,35.57,1.21,51.79-.04,1.16.61,2.42-1.2,2.08.01-.8,0-1.61,0-2.41.53-4.39.53-8.85,0-13.24-.08-10.86-.12-21.99-.58-32.83-.26-6.31-1.41-12.59-1.23-18.94Z"/>
  <path class="uuid-a2f5c26b-72de-4797-9268-105c2a8c3942" d="M883.01,315.93c-.6,1.07-2.18.59-3.14.44-15.13-2.31-30.57-2.64-45.91-1.64-4.44.29-9.9,2-14.15.6,22.87-1.29,40.15-2.86,63.2.6Z"/>
  <path class="uuid-b8f5da36-1ecf-42f2-8034-741eff24a487" d="M787.3,586.81c-2.5-15.8-2.33-33.41-1.2-49.36l1.2,49.36Z"/>
  <path class="uuid-5aab1f1a-c6df-4c85-936b-6dc1cb25587e" d="M978.11,368.3c-.45,2.83-3.57,16.15-3.49,17.01.22,2.24,3.48,8.86,4.39,11.88,1.51,5.02,2.34,9.96,3.31,15.05l-.63.34c.82-7.94-7.63-21.47-7.82-27.75-.13-4.15,4.21-11.93,3.66-16.82l.58.29Z"/>
  <path class="uuid-6152ec09-aa03-4375-a19a-94b5855e57ca" d="M979.32,362.28c-1.39-4.25.28-9.71.6-14.15.43-6.01.52-12.03.6-18.06.01-1.02-.39-2.68.61-3.3.29,11.84-.31,23.78-1.81,35.52Z"/>
  <path class="uuid-bc3ba311-bbc9-4c86-8738-c471bf502aec" d="M1106.33,655.43l-.6,2.4c-.3-9.13-.98-18.19-2.63-27.18-.16-.88-.92-2.35.22-2.92,1.99,9.11,2.85,18.36,3.01,27.69Z"/>
  <path class="uuid-be289ca6-0432-4792-8a40-7dcf2d188b16" d="M1176.76,633.76l-1.2-28.89c1.35,8.84,1.82,19.96,1.2,28.89Z"/>
  <path class="uuid-530434ce-edcd-42ac-ae05-7ffb5241a9fc" d="M721.68,435.12c-4.31,1.01-10.14,1.01-14.45,0,4.34-.31,10.05-.2,14.45,0Z"/>
  <path class="uuid-0302d5b9-e99a-48c6-bdb4-9f1873fafefe" d="M795.12,686.13c.05-4.4.03-8.84,0-13.24,1.01,3.88,1.01,9.36,0,13.24Z"/>
  <path class="uuid-fd132959-59ea-42da-84f6-6b70e3979d60" d="M922.13,307.51c9-6.32,26.74-17.84,37.66-18.08,5.05-.11,7.82,7.04,8.64,11.22,4.4,22.47,2.13,54.91-2.64,77.3-.9,4.23-2.72,7.08-2.15,11.76.05.38,2.98,3.79,3.55,4.89,3.24,6.24,5.63,16.09,6.73,23.07l-.84,1.22c-4.03.04-19.57,1.4-20.49,5.75-.11.54.1,3.29,1.05,3.6,1.66.55,18.04,4.09,18.96,3.78.48-1.19,1.24-1.82,2.24-.92l-.31,6.44c-.15.91.12,2.05,0,3.01-15.17-1.12-31.26-2.1-46.01,2.44-1.32.41-7.09,2.58-7.61,3.38-1.63,2.49-.2,4.81,2.75,5.02,5.53.4,13.02-1.49,18.67-1.81,4.99-.28,11.34-.61,16.22-.63s9.86.6,14.78.94l-6.64,23.77c-11.76-5.46-23.71-11.39-36.99-12.06-3.75-.19-13.06.07-7.72,5.31,14.18,2.66,27.01,7.86,39.73,14.43,2.07.67-2.21,5.66-3.14,6.78-5.37,6.44-14.87,13.27-22.03,17.7-5.09,3.15-13.81,6.47-17.97,9.71-1.57,1.22-1.59,2.56.39,3.15,3.85,1.15,14.05-1.87,18.05-3.37,10.62-3.98,19.73-11.6,28.77-18.18,4.03,8.15,12.28,12.66,19.57,17.47.42.72.8,1.52.77,2.38-.38,9.43-6.19,23.11-10.73,31.36-4.41,4.63-26.08,32.52-4.58,23.47,17-7.15,30.87-18.96,34.51-37.79.49-2.9,1.65-4.56,3.5-4.97,10.88,6.71,19.84,11.91,30.1,19.86,1.45,2.59-.69,7.57-2,10.37-8.91,13.17-26.99,40.57,3.77,25.25,6.63-4.37,11.34-10.91,15.03-17.84l1.85-.93c8.42,8.98,14.27,16.37,20.47,27.09l.31,1.46c-9.82,11.99-21.51,22.35-34.74,30.86-14.92,10.15-3.48,15.12,9.03,13.04,13.65-2.27,25.73-9.07,34.64-19.86l2.2-.82c4.86,14.67,6.44,28.86,6.59,44.27.02,2.42.6,4.84.03,7.5-1.31.47-1.56-.36-1.84-1.46-6.63.9-13.43,2.36-19.94,4.13-6.04,1.65-11.82,3.22-17.47,6.01-3.97,1.96-5.16,2.6-1.63,5.31,8.34,6.42,24.08,7.78,34.43,7.1,4.1-2.01,5.65-1.21,4.64,2.38-1.95,12.03-5.57,31.13-10.72,41.95-5.93,12.45-23.22,15.62-35.41,17.57-19.01,3.03-38.41,4.47-57.7,5.5-3.27.18-7.3.63-10.53,1.2-.47-2.18-.7-4.05-.6-6.32.17-3.76,5.71-16.67-1.45-15.96-5.86.58-9.63,16.99-6.98,21.67-6.83-.19-12.36,1.61-13.18-6.99-.49-5.13,2.97-11.07,2.95-16.48-1.85-.29-4.46.45-5.48,2.08-.55.88.2,1.68-.01,2.01-.19.28-1.29.39-1.75.98-3.01,3.86-3.68,11.49-1.78,15.99-12.37-5.66-7.19-21.63,1.26-28.54,11.12-9.1,27.53-8.92,40.45-4.43,4,1.39,14.22,8.32,15.96.64,1.28-5.66-5.79-8.8-10.13-10.69-3.81-1.66-13.48-3.37-15.59-4.88-.83-.59-5.06-6.57-5.95-7.89-5.13-7.66-9.81-18.04-11.39-27.14-3.83-22.07,11.28-49.44,30.53-60.04,3.52-1.94,10.87-4.16,13.4-6.3,4.13-3.49,1.25-7.24-3.45-7.29-5.99-.07-15.61,4.44-20.61,7.74-15.92,10.5-29.3,33.15-30.85,52.22-.32,3.94.1,8.31,0,12.33.83,2.54-.3,5.85-1.8,2.29.34-4.07.29-8.06-4.25-9.49-.67,2.29-1.85,2.33-1.77-.02,1.06-7.94,2.55-21.43,1.73-29.12-.34-3.19-.7-7.03-4.31-6.25-2.91.63-3.35,7.67-3.87,10.56-1.86,10.44-2.66,21.1-4.56,31.55-2.73,14.97-7.29,29.48-10.48,44.29-2.12,9.84-2.73,21.53-5.88,30.84-4.43,13.12-17.55,17.9-30.4,18.63-.48-2.95-.82-5.61-.54-8.64.34-3.79,5.82-13.46.14-14.06-4.83-.51-8.3,9.64-8.64,13.39-.19,2.06.76,7.68.55,8.34-.16.5-.46.74-.95.9-.9.29-9.58.32-10.75.1-2.72-.51-2.95-8.25-2.7-10.55.16-1.49,1-4.23,1.68-5.54.89-1.7,4.05-3.82,2.86-6.18-2.41-4.81-9.42,5.83-10.49,8.19-1.79,3.97-1.57,7.47-.69,11.66-14.27-6.74-5.84-22.14,3.33-29.48,6.87-5.5,11.58-3.37,12.35-14.14.41-5.65-.11-12.02-.02-17.78,10.33-.51,29.69-2.99,37.98-9.82,1.71-1.41.93-3.26-1.84-2.35-2.14-1.72-4.78-2.52-7.92-2.4-7.02-.78-16.03-1.7-22.58.74-2.76-2.47-4.16-1.91-4.21,1.69l-1.42.11-.6-25.28c.77-.34,1.48-.17,1.58.63.07.54,8.51,0,10.42-.22,8.69-.97,25.1-4.78,30.37-12.16,2.58-3.62-.47-5.03-3.91-5.07-12.78.77-25.56.99-38.31.66l-1.36-1.29c-.59-8.66-.44-19.54-2.55-27.85-.51-1.99-1.74-2.59-3.68-2.03-2.29.67-3.05,2.67-3.35,4.95-1.21,8.98.11,22.61.54,31.86.1,2.1-.05,4.22,0,6.31-5.89-1.79-12.1-4.03-17.67-6.7-30.11-14.44-49.52-48.59-50.98-81.45-.55-12.35.01-25.39,1.23-37.65,1.05-.47,1.55-.23,1.73.84-1.58,9.57,4.2,11.18,12.16,13.15,3.01,2.6,9.2,2.12,13.26,1.75,21.36-2,33.82-13.55,40.27-33.2l.71-1.7c13.69-7.01,24.64-23.81,19.52-39.34-5.91-17.9-23.93-22.4-40.22-26.33-1.23-.46-2.65-1-2.88-2.46l-1-.98c.57-2.38-.81-5.12-3.12-5.97-3.07-1.13-26.74-2.81-30.38-1.19-1.8.8-3.54,3.09-4.46,4.79l-1.37.35c-.61,5.45-1.04,5.99-6.63,6.43-10.16,4.53-16.94,13.2-20.19,23.77-4.01,13.04,6.4,29.66,17.52,36.39.7,1.17.41,1.76-.94,2.03-20.3-8.13-34.69-19.18-45.25-38.72-1.07-1.98-2.45-4.09-2.3-6.42h10.53c.19,0,2.81-2.3,2.92-2.55,3.38-8.05-12.07-5.03-14.86-5.97-2.49-.84-2.27-10.14-2.2-12.54l16.52,2.38c.98-.06,3.07-1.21,3.25-2.17.84-4.33-16.38-8.32-19.71-8.71.81-18.92,6.39-37.46,14.28-54.52,6.18-13.37,14.78-28.09,25.69-38.11,3.05-2.8,9.57-5.58,11.72-8.14.88-1.05.67-2.08.61-3.3,1.32.4,2.49.08,3.51-.95,5.3-2.11,10.9-4.01,16.35-5.07.17.04.4-.01.6,0,2.63.06,3.65.76,3.04,2.1-6.22,9.63-10.98,19.75-11.93,31.15-.89,10.61,5.31,13,9.94,3.23,2.61-12.89,7.15-25.02,13.62-36.39l-.22-1.9c5.21-.45,9.79-.64,15.05-.6,1.87-.28,8.99-.57,8.89-.13-.06.26-.24.5-.46.73-.06.46-.18,1.13-.53,1.2-1.82.39-8.63.51-9.4-1.2l.44,1.23c-7.01,12.24-11.32,25.56-11.8,39.98-.42,12.61,8.94,1.28,10.44-4.29,3.18-9.36,6.59-17.47,12.47-25.75,3.06-4.31,6.76-9.48,10.42-11.18-1.86,1.71-8.7,2.09-10.23,0-.54-.38-.64-.94-.22-.95,2.67-.11,5.43-.07,8.04.35,4.61-.04,9.3-.18,13.84.6l.42,1.52c-5.33,7.31-9.78,16.9-12.06,25.69-.75,2.91-1.96,14.92-.19,15.93,1.99,1.13,9.33-5.58,9.6-8.12,3.49-7.75,7.37-15.36,11.64-22.82,2.81-4.28,4.77-6.78,9.26-8.59.58-.16,1.15-.59,1.81-.6,1.86-.93,3.84-.58,5.96,1.03,2.77-.57,5.12-.18,7.04,1.16,1.69-.84,3.2-.35,3.24,1.63,1.94-1.38,3.55-1.85,4.82-1.41l.37,1.46c-5.08,5.06-5.54,8.52-1.39,10.39,11.22,5.8,22.06,13.7,30.33,23.41,1.34,1.53,4.36,3.88,3.8.48l1.2-.82c-2.59-7.26-1.58-10.36,4.08-15.76,7.85-11.93,8.99-31.13-.65-42.08-1.31-.01-2.26-.8-2.83-2.35l-.36.74c-4.86.54-9.48,3.03-13.84,7.47l-1.45-.38c-3.35-2.33-8.38-4.22-12.61-4.76l-.64-1.26Z"/>
  <path class="uuid-6fdfba64-772b-456b-a74b-cf0c16b98ccd" d="M801.74,443.55l1.04,1.1c-.52,3.3.96,6.1,3.55,8.03,6.41,3.94,12.89,9.38,10.42,17.98-.56,1.95-1.91,5.34-4.18,4.79-2.9,1.74-6.11,2.55-9.63,2.41-2.05,1.85-5.16-1.34-6.6-3.07-3.73-7.68-6.17-8.43-7.31-2.23.79-.29,1.38-.16,1.84.6,3.69,15.51,17.51,15.72,28.47,7.13l1.14.12c9.13,8.04,20.98,10.57,31.38,2.56,9.26-7.12,7.58-22.08-3.53-7.56-11.3,8.3-24.51,4.7-26.32-10.1-1.26-10.34,3.48-11.28,12.34-12.61,3.39-.6,5.17-2.89,6.35-5.97l1.36-.17c1.41.22,2.89,1.29,4.1,1.62,13.92,3.8,25.61,5.28,35.28,17.69,14.15,18.17,2.03,41.73-16.5,50.51-.19.42-.39.83-.66,1.19-4.55,6-36.3,7.08-44.39,4.6l-1.89-1.58c-8.17-1.64-18.69-5.3-26.49-8.43.38-1.73-.23-1.47-1.11-2.19-2.26-1.86-5.02-3.46-7.03-5.62-5.76-6.2-11.94-19.47-10.45-27.93.73-4.14,5.43-14.05,8.05-17.24,2.29-2.79,9.21-8.38,12.41-9.87,4.21-1.96,8.06.85,7.77-6.08l.59.3Z"/>
  <path class="uuid-04e74dfa-df92-4419-9700-d6bdec4f7b12" d="M1100.31,451.97c-1.08.16-2.64-.26-3.65-.76-11.37-7.03-25.13-12.71-38.65-10.25-.18,1.35-1.16,1.47-1.64.18,3-17.23,11.65-31.92,27.29-40.43,10.64-5.79,26.17-8.76,33.41,3.52,9.62,16.32-3.2,21.63-10.63,33.1-2.58,3.98-5.14,10.03-6.12,14.65Z"/>
  <path class="uuid-1987d7b2-c164-4e66-a137-8d389f364b2e" d="M805.35,650.62l-.19-8.93c.44-2.26,2.39-.36,2.15,1.65-.74,6.18-.52,12,.69,17.46.78.56,8.22,2.28,9.51,2.57.24.06.33.42.28.7,4.23.22,8.22,1.01,11.97,2.36,1.37-1.14,2.89-.87,3.43.89,1.82-.84,3.27-.2,4.06,1.62l1.68-.56c2.52,1.07,5,.83,7.7.49,1.23,2.25,5.17,2.09,7.64,1.54-2.57-.5-3.42-1.47-2.55-2.93.68.28,4.64,1.03,4.81,1.21-.73,7.71-1.76,15.36-3.19,22.98-1.41,7.53-4.37,24.16-7.04,30.59-.71,2.71-1.48,5.44-2.31,8.18l-1.45.13c-3.22-3.33-6.99-5.54-11.33-6.65-4.74-2.57-9.53-4.35-14.38-5.33-1.04-1.86-3.12-2.53-6.22-2.01-2.44-.44-7.41-1.75-5.84-4.55,1.08-5.52,1.07-11.27,1.2-16.85l.3-.81c7.21.02,14.81-.18,22.2-1.36,3.79-.6,13.09-3.4,5.07-5.4-6.68-1.24-13.45-2.61-20.04-4.53l-6.96.13-.56-1.27c-.02-10.45-.36-20.86-.6-31.3Z"/>
  <path class="uuid-70715d66-1d25-4497-ae17-30596bd2ec5b" d="M804.75,712.02c.45,1.95,4.23,3.03,6.02,3.36,1.55.29,4.4-.19,5.67.22.72.23.12,1.49.39,1.76s2.07,0,2.99.35c5.94,2.22,11.3,5.44,17.56,6.97l5.59,4.81c1.19.21.75-.25,1.04-.78,1.05-1.94.67-3.81,1.19-5.45.25-.79,1.05-.93,1.08-1-1.11,13.63-9.72,25.65-23.01,29.66-2.51.76-10.04,3.11-10.71-.48-.18-.97.84-6.56,1.22-7.52-.94-.78-.6-1.96,1.02-3.52.72-.91.59-4.84.36-5.57-.74-2.39-9.76,8.2-8.97,10.22l-1.44.68c-.76,3.25-.61,5.16,0,8.43-2.34-1.11-11.14-.05-12.51-2.53-.75-1.35-.41-7.16.17-8.92.71-2.17,5.38-8.31,4.48-9.58-1.18-1.66-5.37,1.19-6.53,2.12-4.64,3.71-6.46,9.55-4.87,15.3-9.44-8.69-4.41-20.3,4.27-27.34,3.61-2.92,13.63-7.62,14.99-11.19Z"/>
  <path class="uuid-c929e9c4-631b-4b59-a949-4451618b9378" d="M1112.35,504.34c.94,2.01-1.18,1.68-2.35.04-4.27-1.41-27.94,13.86-31.91,16.77-.81.26-1.63.27-2.45.05-6.76-10.75-14.19-26.28-17.46-38.52-.11-.46-.2-1.19.1-1.32,8.64-3.78,17.69-6.09,26.79-8.2l1.09,1.09c.06-.47.19-1.16.53-1.2,1.27-.17,11.24-.24,12.17,0l.85,1.2c-2.32,0-2.83-5.7,0-4.82,1.57,12.45,6.95,23.93,12.64,34.91Z"/>
  <path class="uuid-4ffb82e0-754e-46c6-85a3-84a527e8281b" d="M1126.19,607.28l2.18-1.33c12.66-1.05,24.98-1.54,36.94,2.53,2.61,18.91,1.1,35.11-5.42,52.97-1.6-.26-2.9-1.51-3.9-3.75-2.37-.46-2.33-1.77-1.78-3.76-6.29-8.63-16.72-12.7-26.97-14.59l-.46-1.38c1.42-8.27.94-22.37-.6-30.7Z"/>
  <path class="uuid-76188c31-dd01-48d8-a382-573681c616cb" d="M1056.37,441.14l.58.28c-.61-1.95,2.27-2,3.92-2.11,9.73-.68,16.46,1.31,25.23,4.91,3.49,1.44,7.82,3.87,10.79,5.75,1.08.68,2.73.3,3.43,2-1.29,6.09-1.38,11.31-.6,17.46-1.45,1.19-.17,3.31,0,4.82h-13.54c-2.15,0-7.67,2.55-10.58,2.06l-17.41,6.37c-3.87-14.49-4.36-26.83-1.81-41.53Z"/>
  <path class="uuid-7ea78ec1-8428-4ced-a55c-3b8d20016f67" d="M864.95,516.38c1.31.72.39,1.87.03,2.74-5.19,12.33-8.35,19.72-20.89,26.06-9.42,4.76-21.81,7.3-32.3,4.9-.44-.1-.34-1.05-.83-1.17-3.12-.78-5.39-1.2-8.42-2.92-6-3.42-3.96-4.8-4.38-10.69-.06-.78-.62-1.38-.63-1.46-.08-2.63-.1-5.21.67-7.76,1.38-1.18,15.2,2.5,19.5-.66,2.49-1.82,1.14-2.55.3-4.82,14.92,2.99,32.94,2.43,46.95-4.21Z"/>
  <path class="uuid-ff446f63-4bd2-4a82-9f26-d0086e72ef22" d="M1152.08,565.74c6.5,13.48,11.19,27.85,13.24,42.74-.95,1.62-.44.97-1.62.77-4-.68-7.76-2.29-11.9-2.6-8.17-.62-17.43.18-25.61.63-1.62-8.74-5.64-18.56-9.63-26.49-.54-1.87.02-2.61,1.28-3.9,4.62-4.78,19.29-9.82,26-11.53,2.01-.51,7.06-1.23,8.24.38Z"/>
  <path class="uuid-d4cf051c-835d-457c-8eee-e787d70b9c83" d="M1152.08,565.74l-7.95.78c-7.92,2.95-19.09,5.43-25.46,11.24-1.08.98-1.33,1.93-2.11,3.03-4.89-9.7-12.35-21.18-18.66-30.1,1.11-3.74,6.01-7.55,9.3-10.07,6.4-4.9,14.21-7.87,22-9.73l1.81.54c7.58,11.25,15.15,22.05,21.07,34.31Z"/>
  <path class="uuid-5baf64c8-10b2-4652-8653-18073e72ffdc" d="M1075.63,521.2c8.29-4.75,15.72-11.05,24.55-14.87,1.75-.76,9.7-3.8,10.85-3.07.29.18.36,1.16.71,1.39s.58-.32.6-.3c4.46,4.21,14.49,20.9,18.66,27.09-5.39,2.47-11.31,3.11-16.67,5.91-6.42,3.35-11.21,8.54-16.44,13.35-6.96-9.84-15.8-19.19-22.27-29.5Z"/>
  <path class="uuid-bdfed20c-55f9-4e19-8714-712bd49777ed" d="M1117.77,661.45c2.39-.33,6.04,2.24,8.13,3.83l2.85,3.29c3.55.88,5,2.74,4.36,5.56,3.14.72,6.87,2.1,7.85,5.49,2.36,1.75,4.06,3.72,5.1,5.9-.16.2-.15.97-.58,1.5-11.47,14.29-26.89,25.59-45.17,29.19.74-6.77,3.03-13.68,4.06-20.32.78-5.02.92-18.45,2.7-21.98.66-1.31,3.48-2.54,4.67-3.75,1.9-1.93,4.54-6.28,6.03-8.72Z"/>
  <path class="uuid-8a975f64-23c2-4705-bf45-f69ad37862dc" d="M1008.81,529.02c-3,4.62-3.37,11.18-5.78,16.19-5.33,11.1-17.05,21.67-28.41,26.37-3.94,1.63-14.61,5.93-14.63-1.33-.01-6,11.32-17.56,14.75-23.23,6.17-10.18,8.39-20.95,10.58-32.46,7.65,5.04,15.77,9.69,23.48,14.45Z"/>
  <path class="uuid-90164c0d-1d53-4a15-ba53-77afba500f21" d="M1078.04,592.83c4.71,8.15,8.45,15.66,11.44,24.68-7.68,9.93-18.58,17.45-30.82,20.65-5.62,1.47-16.08,3.3-20.92-.5-3.08-2.42-3.24-5.56-.65-8.43,4.48-4.97,13.95-10.28,19.43-14.75,3.08-2.51,5.71-5.72,9.19-7.81l12.34-13.84Z"/>
  <path class="uuid-f935c553-d946-42c2-9589-1a6fa0f0c8ec" d="M1126.79,637.98l7.23,1.99c4.59-.78,20.54,9.85,21.36,13.58.2.92-.5,2.08-.29,3.09l1.79-1.2c-.47,2.45,2.17,3.62,3.02,6.02-3.74,10.24-7.27,15.6-13.84,24.08-1.34-.45-2.84-1.98-3.77-2.99-.88-.95-2.02-1.88-2.29-2.2-.49-.57-.26-1.53-1.54-2.56-1.66-1.33-5.3-2.9-7.45-2.49,2.8-5.08-.5-4.11-2.97-5.75-.75-.5-2.63-3.28-3.71-4.09-2.02-1.51-4.9-2-6.56-4,4.34-7.11,7.61-15.22,9.03-23.48Z"/>
  <path class="uuid-fdef0125-ae26-4fe3-8677-4ce51f388fcd" d="M947.41,664.46l.6,1.5c-.87-3.66,1.54-3.02,3.73-1.51,3.85,2.65,2.84,6.06,2.9,10.24,1.09.03.58-2.24.6-3.01l2.1,10.24c2.93,9.49,7.57,18.19,12.95,26.47-9.58,1.06-18.03,5.06-25.57,10.86-.88.68-4.59,4.6-4.92,4.71-1.06.34-5.81-.6-6.21-1.15-.23-.32.98-5.26,1.23-6.24,4.39-17.33,10.22-34.25,12.6-52.11Z"/>
  <path class="uuid-0ecf87d6-c1b9-4dcb-8ff3-4efd706da250" d="M763.22,306.9c.77,6.32,18.8,19.65,18.67,24.41-.03,1.14-4.85,4.27-6.03,5.38-6.18,5.77-13.14,13.32-18.05,20.17l-1.97-3.42c-2.73-6.92-5.4-13.83-8.01-20.75-1.96-5.54,10.26-26.55,13.91-27.4,1.47-.34,2,.2,1.48,1.6Z"/>
  <path class="uuid-3846ad2a-b6cd-4bdb-afff-da5e4d53f3b9" d="M1094.29,692.75c.64-4.48-2.11-1.41-4.5-1.19-9.51.91-22.14-.94-31.02-4.54-1.02-.41-6.18-4-6.45-4.66s-.35-3.75-.17-4.06c.03-.05.79.48,1.2.23,9.09-5.63,23.38-8.41,34.19-10.88,2.61-.6,5.31-.92,7.95-1.39-.52,1.16.54,2.48.6,3.01.88,7.88-.56,15.78-1.81,23.48Z"/>
  <path class="uuid-43a175c5-2be1-4dc2-893e-4c45b6b0f250" d="M1038.91,548.89c7.31,5.67,12.36,10.13,18.66,16.85-4.67,9.05-10.54,17.28-19.94,21.9-8.09,3.97-19.33,4.71-14.39-7.77,2.59-6.54,9.43-14.52,12.58-21.13,1.43-3.01,2.22-6.64,3.08-9.86Z"/>
  <path class="uuid-10cb538c-ca81-47fd-a5e6-88876f898682" d="M860.73,324.96c-2.6.02-5.22-.02-7.82,0v.6s10.23,0,10.23,0c.4,1.57-.59.95-1.2,1.64-5.75,6.53-11.21,13.6-15.07,21.52-2.97,6.08-5.84,18.36-10.52,22.59-2.81,2.54-6.98,4.16-7.52-.89-1.21-11.28,2.49-24.33,6.93-34.61.62-1.43,4.67-10.24,5.41-10.24h9.93v-.6c-2.8-.03-5.63.02-8.43,0,4.56-1.06,10-.66,14.76-.61,1.02.01,2.68-.38,3.3.61Z"/>
  <path class="uuid-6d19605f-4a9d-4c8d-9e57-c8eb87655c95" d="M784.29,305.1c.98,2.05-1.24,2.04-2.83,1.91-1.04,2.62-4.2,2.03-6.4,1.18-.27.98-.8,1.35-1.6,1.12-2.07-1.24-6.11-5.03-8.63-4.15-.78.27-1.03,1.68-1.61,1.75-.1.01-.59-.81-1.09-.54-1.91,1.05-9.74,12.98-10.77,15.47-.85,2.05-2.56,8.68-2.56,10.75,0,.86,3.28,6.96,3.89,8.63,1.87,5.17,1.78,8.81,5.34,13.19.58.72-.45,1.65-.22,2.46-2.36,3.3-4.17,7.28-6.48,10.65-.37.54.1,1.11-1.34.79-2.08-16.42-3.78-33.04-3.01-49.66.32-6.8,1.13-17.92,4.48-23.82,4.49-7.91,12.32-2.72,18.2.53,5.06,2.8,9.99,6.32,14.64,9.74Z"/>
  <path class="uuid-5baf64c8-10b2-4652-8653-18073e72ffdc" d="M851.7,667.47c1.4,2.56,4.5.53,3.61,4.21-2.41-.34-5.88.46-8.1.04-.72-.14-.15-1.46-.33-1.85-1.59.55-4.07.48-5.84.42-.87-.03-1.31-.82-2.03-.76-.68.06-1.59.87-2.08.82-.67-.06-.94-1.98-1.87-2.23-.81-.22-1.87.8-2.64.29-.46-.3-.47-1.44-.6-1.54-.64-.48-1.76,1.2-2.68,1.22-.37,0-.18-1.07-.71-1.22-3.72-1.03-7.65-.91-11.19-1.84-.52-.14-.36-1.01-.87-1.16-1.75-.5-8.86-.89-9.8-2.88-1.87-3.96.16-14.65-.61-19.41-1.05-.14-.57,1.37-.6,2.1-.09,2.3.06,4.63,0,6.93l-.91-21.07c8.84,10.3,18.17,20.67,29.6,28.18,4.61,3.03,12.64,7.67,17.65,9.74Z"/>
  <path class="uuid-0352fbbe-cee9-4be9-a586-369daa993331" d="M873.98,646.4c3.27.29,6.64-.12,9.96-.02,1.61.05,3.08.68,4.78.67,5.76-.02,26.05-2.91,29.55-.09,3.96,3.2-1.04,7.7-3.67,9.66-6.62,4.94-21.34,8.51-29.49,9.04-2.96.19-5.97-.13-8.94.03-.26-.07-.85-1.45-.99-1.83-1.13-3.15-.91-13.16-1.2-17.46Z"/>
  <path class="uuid-d6407396-511c-4c95-bac6-25dc378a68ab" d="M893.24,329.18c-.1,1.57-1.98,1.62-3.32,3-6.02,6.17-9.37,14.35-13.1,21.81s-5.62,15.17-15.48,16.12c-.26-4.1-.96-8.22-.63-12.36.53-6.66,6.57-20.69,10.02-26.7,1.02-1.78,2.7-3.73,3.85-5.48,5.1.88,11.59,3.82,16.74,4.07,1.1.05,1.21-.27,1.92-.46Z"/>
  <path class="uuid-d6407396-511c-4c95-bac6-25dc378a68ab" d="M827.63,325.57l2.4.9c-6.14,8.26-9.16,18.32-12.22,28.11-1.54,4.95-1.11,8.98-4.65,13.41-2.38,2.98-3.86,4.22-7.65,2.26-1.73-.89-2.29-3.47-2.5-5.32-.51-4.54,1.56-13.95,3.09-18.45,2.12-6.24,6.09-12.61,9.48-18.21l-2.4-.9c4.22.22,10.16-1.43,14.45-1.81Z"/>
  <path class="uuid-b339728d-8d90-4ac8-9701-bce938608fb0" d="M875.78,689.14c0-.08.49-.75.63-1.46.43-2.28-.93-3.86,3.79-2.74.47.11.41,1.19.73,1.23,1.07.12,2.13-1.07,3.55-1.27,4-.57,22.28.2,25.95,1.51.95.34,1.75,2.11,2.61,1.45.08-.06.08-2.22,1.26-1.11.36.34-.94,1.42,1.81.9l-.78,4.33c-3.21,1.29-6.09,3.63-9.33,4.81-5.72,2.1-22.26,5.8-28.15,5.66-1.23-.03-1.52-.19-2.08-1.27.06-3.87-.34-8.28,0-12.04Z"/>
  <path class="uuid-48d9fc55-de36-48ba-83d1-904369428f5c" d="M922.13,307.51l3.01.24,10.83,3.98-.6,1.8-.43,1.9c-5.56,5.33-11.21,10.55-16.95,15.67l-1.88-.11c-.54.38-3.24,2.22-3.43,2.28-3.55,1.26-2.35-1.44-2.59-1.68-.37-.39-2.11.64-2.66.62-.37-.01-.26-1.07-.77-1.21-2.29-.6-4.34-.22-5.9-.23-.31,0-4.28-2.37-5.73-2.19,9.01-7.02,17.73-14.49,27.09-21.07Z"/>
  <path class="uuid-e42f6c57-47cc-4385-94fc-e12526685684" d="M812.58,327.37c.34,1.61-.81,1.19-1.8,1.48-4.59,1.37-9.63,2.82-14.03,4.66-1.15.48-1.75,2.17-3.42,1.66.18-.8-.43-1.27-.63-1.79-4.18-10.95-12.77-15.09-19.26-24.08-.02-.03.43-.32.26-.6-.56-.89-1.73-1.39-2.07-2.4,2.87-.32,4.94,2.04,8,1.21.63-.17.59-1.28,1.27-1.59s2.65.37,3.37-.83c7.94,5.82,15.16,13.3,22.93,18.91,1.05.76,4.41,3.13,5.37,3.36Z"/>
  <path class="uuid-d3bd5038-1ad9-4c9c-a3b0-8ddc355e5f1c" d="M805.96,681.92c2.35.34,5.89-.5,8.01.01,3.11.75,7.86,2.18,11.59,2.96,1.9.4,13.79,1.74,13.52,4.54-2.29-.09-1.4,1.47-2.23,2.12-.18.14-2.83,1.22-3.32,1.37-8.24,2.58-15.32,2.41-24.36,2.61-1.07.02-2.11-.48-3.2-.38.11-4.4,0-8.84,0-13.24Z"/>
  <path class="uuid-e3e9bc8c-0f8f-4125-9c40-0c3db03ddf59" d="M973.9,417.66c1.11,7.1,1.81,12.77.6,19.86v-6.02c-1.24-.21-.11,1.79-.91,1.81-1.5.04-6.43-1.4-8.49-1.74-3.95-.65-4.48-.4-8.53-1.71-1.72-.55-4.47.22-4.94-2.28-.15-.82.2-2.29,0-2.71-.04-.08-1.35.81-1.8-.3,2.13.02,1.89-1.68,2.95-2.45,4.61-3.34,15.41-4.41,21.12-4.47Z"/>
  <path class="uuid-507fef23-6a4e-4746-8dc6-6a3f2c59d824" d="M865.55,684.93c.16,7.42-.04,14.84-.6,22.27-.17,3.82-.37,7.63-.6,11.44.79.51.34,1.38-.6,1.2-1.81,2.16-5.78,3.97-7.53,6.62-.49.09-.31-.51-.32-.91-.18-7.01,4.98-23.39,6.46-31.47,1.1-5.99,2.13-12.1,2.59-18.18,1.05-.14.57,1.37.6,2.1.09,2.28.08,4.66,0,6.93Z"/>
  <path class="uuid-33ff31fb-d665-4dcd-b4ec-0a7035c577dc" d="M804.75,745.73c1.04-4.41,6.21-13.47,11.61-11.92,2.49.71-.17,1.24-.21,1.46-.2.96.65,2.27.41,3.85-.35,2.26-2.27,3.54-2.77,4.8-2.25-.56-1.81-.94-1.21-3.01-3.14-.54-1.93.63-2.77,1.73-1.74,2.27-2.34,4.31-2.32,7.6,0,1.1,1.01,3.18.89,3.3-.06.06-1.44.55-1.52.55-2.18.01-.86-7.19-2.1-8.37Z"/>
  <path class="uuid-d0f116a4-c78f-4878-af86-93ce02f2209b" d="M919.12,767.4c-9.36,8.82-20.14,8.6-32.18,8.4-10.85-.17-25.13.39-34.64-5.39l13.55,3.61c15.92,1.09,32.91,3.68,47.87-3.28l5.39-3.34Z"/>
  <path class="uuid-09d3b059-387b-4ddc-88e4-0ac6c5b783b3" d="M1045.53,763.78c-18.37,2.48-36.79,4.57-55.38,4.82l-1.8-.6c17.84-.76,35.67-1.75,53.27-4.82l3.91.6Z"/>
  <path class="uuid-fbfb9bc0-12cb-4471-9f6f-329c06ba34bb" d="M825.82,763.78c-11.06,3.06-38.96.47-48.76-6.02.36-1.21,1.8,0,2.42.29,10.26,4.87,28.72,7.09,40.04,6.35,2.15-.14,4.47-1.62,6.3-.62Z"/>
  <path class="uuid-d39b5660-70ae-4db0-9a7f-b83337d6ca3d" d="M865.55,684.93c1.66,3.39.09,7.73-.02,11.11-.24,7.04.61,14.81.03,21.7-.05.64-.42,4.02-1.81,2.1.44-.53.4-.69.6-1.2.24-3.8.44-7.62.6-11.44.1-7.47.36-14.83.6-22.27Z"/>
  <path class="uuid-990fe6c9-baaa-4760-9f45-906d8bdb0b40" d="M986.54,769.2c-6.95.1-14.27.67-21.07,0,.63-1,2.28-.6,3.3-.61,4.81-.06,9.65-.05,14.46,0,1.02.01,2.68-.38,3.3.61Z"/>
  <rect class="uuid-d39b5660-70ae-4db0-9a7f-b83337d6ca3d" x="866.15" y="675.9" width=".6" height="8.43"/>
  <path class="uuid-a400966a-a8a7-4791-8b64-ce1caaf93a03" d="M842.07,446.56c-.21.71-1.66,3.53-2.14,4.18-3.91,5.23-12.23,2.19-15.93,6.94-2.3,2.96-.23,12.85,1.82,15.66,4.84,6.64,14.79,6.48,21.01,1.76,3.86-2.93,5.19-8.75,10.73-6.41,3.68,1.55.23,9.38-1.65,11.88-5.97,7.95-19.3,10.7-28.1,6.43-2.13-1.04-6.81-5.71-8.29-5.56-.6.06-5.94,3.93-8,4.7-10.62,3.98-19.92-2.32-21.83-13.09l-.89,1.2c-2.89-1.15,1.2-10.3,4.79-5.99,3.37,4.04,2.8,7.41,9.35,9.61l.66-.63c3.34,1.15,6.07-.19,8.97-1.78,3.67-4.06,4.31-8.12,2.23-13.37-2.87-7.24-15.18-7.48-13.07-18.54.42-2.19,4.03-6.17,6.35-6.59,3.2-.59,12.66-.29,16.27-.03s7.01.55,10.64.75c4.92.27,8.52,3.92,7.07,8.88Z"/>
  <path class="uuid-dacf9aa2-c330-4901-82b0-74a380c25ab3" d="M951.03,305.7c.71.02,2.61-2.15,1.21,1.2,3.41-1.44,6.18,5.05,7.1,7.65,4.29,12.15,3.25,25.48-3.84,36.25-.94,1.43-4.82,5.34-5.2,6.33-.64,1.71.36,6.32.12,8.76l-1.8-1.27c-4.95-12.02-15.83-19.59-26.13-26.73-.15-2.6,1.06-4.96,3.62-7.1,7.94-7.08,15.58-14.34,22.92-21.8.38-1.6,1.04-2.7,1.98-3.3Z"/>
  <path class="uuid-0302d5b9-e99a-48c6-bdb4-9f1873fafefe" d="M951.03,305.7c.51,4.25-4.32,7.76-7.21,10.54-3.08,2.96-21.25,17.63-20.43,21,11.35,7.45,22.15,15.39,27.05,28.65-.09.96.35,2.71-.56,3.35-3.02,2.15-7.3-4.92-9.13-6.6-5-4.59-12.17-10.33-17.81-14.09-2.4-1.6-10.19-5.26-11.37-6.7-2.5-3.02,2.65-8.46,4.56-10.88,6.09-4.29,12.89-12.43,19.26-17.46,2.99-2.36,10.01-8.24,13.55-8.45.89-.05,1.72.61,2.1.62Z"/>
  <path class="uuid-3a66905b-2812-48e2-9413-b3df5e03b9e3" d="M879.83,406.97c14.38-2.92,16.44,11.52,13.94,22.37-2.44,10.57-14.97,17.55-21.02,5.51-2.53-5.02-2.69-10.15-1.72-15.61.77-4.37,4.02-11.3,8.8-12.27Z"/>
  <path class="uuid-a400966a-a8a7-4791-8b64-ce1caaf93a03" d="M784.12,405.16c10.41-.95,9.72,17.66,7.08,23.94-1.1,2.62-4.25,7.35-7.29,7.65-8.14.81-11.83-7.72-11.7-14.59.15-7.59,3.3-16.21,11.91-17Z"/>
  <path class="uuid-f64aa254-ea93-4fab-93f0-54ade137d6c2" d="M812.58,475.45c-2.97,3.28-5.23,3.89-9.63,2.41l.29-1.8c3.04,1.7,6.26-.38,9.34-.61Z"/>
  <path class="uuid-0302d5b9-e99a-48c6-bdb4-9f1873fafefe" d="M864.35,718.64c.36-3.65-.77-8,.6-11.44-.05,3.43.58,8.51-.6,11.44Z"/>
</svg>