<?xml version="1.0" encoding="UTF-8"?>
<svg id="uuid-78227927-8476-498b-971d-2fd2f4decaff" data-name="Layer 1" xmlns="http://www.w3.org/2000/svg" viewBox="0 0 1920 1080">
  <defs>
    <style>
      .uuid-59936d1f-b263-48d1-8cec-7140a7fa042c {
        fill: #d37d09;
      }

      .uuid-e7f488ab-a619-4a49-8085-8d1f320cd462 {
        fill: #744b11;
      }

      .uuid-2ea48e60-9966-40fd-aa67-d7a8bd6ba6bb {
        fill: #744b12;
      }

      .uuid-fd124d47-01aa-4a82-a417-9c1bf1770232 {
        fill: #f29b1d;
      }

      .uuid-693065da-3339-44f8-91a4-392a943f2008 {
        fill: #f49d1c;
      }

      .uuid-fc148b84-b995-439b-b0a3-a87ed71ba612 {
        fill: #e3ddd5;
      }

      .uuid-dfca1bc0-87b5-4022-9522-0107e82d7cfd {
        fill: #f39b1d;
      }

      .uuid-d2e4335c-f957-4483-956c-bb948d82c299 {
        fill: #754b12;
      }

      .uuid-88a2a203-465f-4d61-b4ab-41730b9ecb21 {
        fill: #754c12;
      }

      .uuid-4e02bc1c-4ecf-4d12-9c6a-367a97c59ac9 {
        fill: #d37d0a;
      }

      .uuid-201d6749-2193-4c4d-b77e-d4542c9433d2 {
        fill: #fac870;
      }

      .uuid-6c1652ba-4194-4ece-84e9-177f1e0e1a4e {
        fill: #fefbef;
      }
    </style>
  </defs>
  <path class="uuid-88a2a203-465f-4d61-b4ab-41730b9ecb21" d="M600.57,858.73c-2.86-22.27,11.84-44.07,31.42-53.26,3.89-1.82,15.45-4.39,16.73-7.47,2.3-5.55,1.59-32.85,1.25-40.45-1.62-35.81-8.3-76.06-20.14-109.54-16.17-45.75-16.99-75.7-18.57-123.69-.1-2.89-1.51-5.15-.04-8.18-34.73-11.38-67.3-29.54-88.69-59.88-2.62-3.72-4.82-9.67-7.57-12.76-3.76-4.23-11.87-7.81-16.48-11.59-15.84-12.99-23.47-34.18-7.28-50.29-7.63-2.58-14.31-11.97-14.41-19.96-.14-11.19,14.78-23.83,21.03-32.96,14.8-21.62,19.17-48.45,28.83-72.42-10.68-19.06-22.45-36.91-25.65-59.15-7.39-51.37,38.75-86.31,86.36-65.07,14.42,6.43,26.15,16.7,36.1,28.8,7.6-1.68,14.91-4.67,22.56-6.23,14.18-2.89,31.52-4.06,45.96-4.36,26.44-.55,54.29,2.53,78.41,13.61,20.13-43.18,86.75-53.81,116.06-14.45,24.73,33.2,5.74,82.19-16.57,111.69,6.65,10.44,10,22.64,15.34,33.73,5.96,12.37,13.62,24.31,21.72,35.38,9.17,12.53,21.75,18.72,11.24,36.56-4.04,6.85-8.37,7.77-12.72,12.45-.97,1.05-1.46.67-.03,1.87,1.67,1.4,8.79,4.11,11.34,5.11,48.01,18.87,104.2,5.54,154.58,4.06,63.65-1.88,118.81.16,170.75,40.3,11,8.5,29.93,29.49,43.18,30.38,15.13,1.02,33.89-16.26,38.65-30.04,17.71-51.19-34.5-75.84-59.69-110.56-26.61-36.67-38.75-77.14-12.18-118.1,13.7-21.12,40.94-36.61,66.62-30.22,23.38,5.82,27.22,32.24,17.56,51.49-11.03,21.97-26.52,21.87-8.71,50.95,16.53,27,45.42,46.97,62.55,74.87,26.89,43.79,29.24,104.34-4.16,145.48-19.65,24.21-48.11,35.57-78.88,37.74,1.73,4.66,2.89,8.03,3.73,13.19,2.51,15.37,2.21,32.46,4.13,48.13,3.07,25.06,8.59,64.72,18.1,87.39,9.61,22.93,18.2,35.24,19.56,61.73,1.61,31.32.11,74.33-5.85,105.04,1.47,3.44,1.01,5.81-.38,9.32-12.01,37.82-49.23,44.22-84.03,44.11-36.18-.11-84.42-3.21-74.2-52.98.83-4.04,3.29-12.43,6.67-14,1.05-7.58,7.96-15.13,13.94-20.27,5.68-4.88,12.46-9.08,20.1-9.49.25-27.59-24.94-42.47-46.17-54.56l-.1-1.7c-5.84,25.4-13.59,51.11-23.32,75.22l-2.19,2.09.8,3.21c-16.22,44.22-44.65,53.21-88.29,52.75-31.28-.33-67-4.17-71.53-41.93-.52-4.31-.31-13.74,3.21-15.98-.92-6.33,2.79-11.24,7-16.04,8.6-9.79,23.49-18.17,36.31-17.98.68-22.51-3.03-45.91-24.74-57.77-24.35,4.3-48.94,7.18-73.75,8.63-3.97,25.4-7.62,50.86-10.95,76.37l-2.2,3.84c-.94,8.19-2.36,16.27-4.25,24.25l1.42,2.98c-2.99,17.07-6.87,34.55-19.3,47.44-29.11,30.19-92,27.2-129.47,16.86-27.63-7.63-30.56-29.24-21.91-54.49,4.44-12.96,14.23-32.51,28.92-33.12-.36-1.86.24-3.75,1.8-5.67,2.85-16.95.18-37.21-2.13-54.59-.17-1.24-3.51-23.76-4.47-20.84-6.09,26.71-12.24,53.35-18.45,79.92l-1.91,2.15,1.08,3.38c-9.82,43.42-27.78,64.15-73.94,66.4-20.53,1-64.06-.12-79.58-14.12-5.72-5.17-13.25-15.54-10.15-22.75Z"/>
  <path class="uuid-fc148b84-b995-439b-b0a3-a87ed71ba612" d="M928.64,845.18c2.02-8.68,3.55-17.54,4.59-26.58l3.36-1.45c20.56-.38,41.1-.14,61.64.72,3.03-.37,4.02,1.63,2.99,6.01-.65,8.98-2.76,10.96-.29,21.1,3.28,13.44,11.61,23.71,24.5,28.73,20.54,8,70.78,8.33,91.21.27,21.22-8.37,32.4-27.87,40.39-48.16,12.3-2.49,27.39-.29,39.54,3.08l-1.8,5.63c-2.95,10.37-6.51,14.45-5.84,26.65,1.7,31.01,24.74,35.04,50.85,37.21,44.14,3.66,96.78,2.07,106.93-50.31l.97,2.41,1.47-9.2c25.27,5.58,54.52,9.97,77.58,22.1,31.48,16.57,12.16,32.83-10.64,42.93-51.89,22.98-137.59,32.17-194.7,37.56-151.33,14.29-312.94,14.29-464.52,2.9-65.68-4.94-157.56-12.61-218.5-36.03-24.4-9.38-59.23-28.19-18.79-48.33,24.06-11.98,54.75-15.63,80.51-23.04l-.5,21.76.97-2.42c1.37,10.66,8.61,21,18.07,25.96,17.13,8.99,66.63,11.01,85.68,7.63,41.36-7.34,48.88-29.83,58.84-66.49.64-3.69,23.5-5.52,24.56-4.78,1.74.42,1.94,1.68.6,3.81-3.71,3.3-7.8,3.62-10.65,6.29-12.17,11.39-21.71,35.58-20.2,52.15,1.93,21.22,13.38,24.85,31.81,29.16,36.14,8.45,97.11,10.14,122.89-21.33,10.69-13.06,13.5-29.73,16.48-45.94Z"/>
  <path class="uuid-fd124d47-01aa-4a82-a417-9c1bf1770232" d="M557.98,468.72c-6.05-5.45-12.98-11.94-17.82-18.47-5.69-7.66-9.9-21.96-17.76-25.79-8.54-4.16-15.17-4.18-21.35-13.49-9.64-14.53,6.88-16.41,8.46-27.99.91-6.69-.15-8.92-5.26-12.96-6.2-4.9-13.55-3.56-6.66-13.48,3.26-4.7,8.47-9.16,11.84-14.29,19.86-30.32,24.11-65.17,42.59-95.8,22.81-37.83,62.18-68.3,106.06-76.66,1.98,2.75,4.95,8.11,1.04,9.56-10.27,3.8-40.87,8.88-47.57,15.82-4.34,4.49-2.03,11.2,4.07,12.18,5.97.96,32.85-6.11,35.27-3.8-.69,3.29-2.59,11.99-4.86,14-2.63,2.33-18.12,6.08-22.89,8.08-2.87,1.2-13.44,5.95-13.89,8.42-1.15,6.28,5.83,8.94,11.01,8.82,4.29-.1,14.82-4.94,17.65-2.64,4.11,3.33-4.87,19.36,2.34,22.85,10.17,4.94,11.75-18.83,14.54-24.68,11.03,1.51,35.11,9.25,44.44,2.35,20.06-14.84-33.95-20.22-35.61-22.81-1.52-2.38,2.88-11.84,4.69-12.95,3.56-2.19,36.53,3.4,42.6,4.85,5.37,1.28,22.51,8.38,26.1,6.77,5.48-2.46,2.71-9.56-.44-13.08-9.5-10.62-31.08-18.25-44.8-21.01-3.45-.7-14.54-.05-13.37-4.19.16-.58,5.84-9.8,6.34-10.14.62-.43,12.78-1.35,15-1.46,15.56-.74,34.68,1.34,49.65,5.59,2.28.65,15.94,5.28,16.52,6.21,1.67,2.64-3.64,11.52,1.16,15.77,7.85,6.96,11.39-13.98,13.34-18.51,12.41-28.77,50.1-43.48,78.24-28.54,39.89,21.18,18.36,72.99-2.61,100.3-2.07,2.7-9.97,9.77-9.7,12.56.3,3.07,5.15,5.03,6.84,7.08,9.76,11.78,16.79,37.53,24.18,51.52l-.04,2.14c-6.69,3.84-15.45,9.04-15.53,17.69,1.55,22.24-6.69,43.47-17.64,62.68-2.3,4.03-8.52,14.51-13.24,12.34l-.79-2.4c12.56-20.17,8.26-44.42-9.69-11.31-13.38,15.66-34.27,22.83-54.32,24.59-14.36.98-6.41,7.8,2.58,9.8,13.58,3.02,28.16,2.33,41.09-3.09l2.75.81-.38,3.11-20.25,17.32c-2.78,2.23-14.21,13.42-13.11,16.63,2.02,5.89,34.86-1.54,40.19-4.46l2.25,1.28c-5.91,3.36-13.66,5.56-20.32,7.27-4.49,1.15-28.11,4.29-28.05,8.7,4.63,4,11.96,4.92,17.9,5.31,20.12,1.34,41.17-4.16,58.56-14l31.91-20.82c-1.83,5.76-.49,11.84-1.09,17.77-1.29,12.89-5.24,25.28-10.35,37.07-1.92,4.44-19.31,35.44-17.59,37.08,6.07,1.11,11.08-2.66,15.49-6.27,28.17-23.04,45.22-72.71,41.65-108.45-.33-3.32-2.6-6.48-2.6-7.69,0-1.45,7.7-15.58,8.8-15.74,3.34,1.83,7.9,1.74,11.17,3.16,7.18,3.1,18.57,27.53,21.74,35.36,15.43,38.04,19.76,85.48,15.99,126.25-1.02,10.98-5.14,24.04-3.88,34.87.9,7.76,8.62,8.36,13.01,3.29,4.81-5.54,12.27-29.64,14.59-37.67,12.28-42.51,15.66-83.64,5.04-126.98-2.55-10.39-6.27-20.9-12.3-29.79,7.27,2.02,37.18-3.16,41.61-.49,1.05.63,9.58,14.93,10.82,17.25,21.28,40.05,29.18,96.41,26.92,141.45-.75,15.02-6.46,38.52-4.84,52.29.51,4.37,1.75,5.84,6.33,5.38,8.15-.82,15.11-21.83,17.6-28.9,21.89-62.14,30.6-135.67-6.5-193.75,16.8.07,33.63-.62,50.33,1.44,20.44,25.5,30.65,57.95,34.7,90.15,1.97,15.66,2.93,33.45,2.06,49.21-.95,17.2-6.15,35.33-6.8,52.23-.15,3.96-.99,11.39,4.45,12.16,9.77,1.39,18.59-23.4,21.48-30.75,19.83-50.45,26.31-93.76,7.03-145.91-2.51-6.78-5.86-13.21-8.72-19.82,15.03,5.53,29.47,11.64,42.87,20.51,4.3,2.85,14.44,9.3,16.13,13.87,1.92,5.19,3.58,20.11,3.93,26.07,3.15,53.79-12.75,111.38-42.8,155.67-2.38,3.51-9.92,9.85-6.69,13.82,4.1,5.03,16.8-4.79,20.43-7.82,22.26-18.58,42.55-53.56,48.87-81.78,6.24-27.88,4.86-56.03,2.42-84.2l7.9,12.89c18.72,40.66,39,91.13,13.79,133.16-19.43,32.41-39.87,43.04-65.76,66.83-5.37,4.94-14.86,13.81-1.83,15.43,28.5,3.55,59.4-20.84,76.38-41.52l13.04-16.46c.88,11.41,2.4,22.29,6.06,33.14.98,2.89,5.69,11.45,5.17,13.33-1.26,4.55-16.63,19.86-20.89,23.7-12.14,10.95-29.34,19.62-40.17,29.51-5,4.57-4.64,8.93,2.85,8.72,15.66-.44,47.1-10.64,60.83-18.6,1.58-.92,12.58-9.32,13.25-8.52,4.16,30.02,4.12,62.21.97,92.41-4.26,40.75-7.94,61.33-53.83,65.2-2.18.18-13.88.52-14.74-.01-2.38-1.48-.57-13.45.36-16.31,1.88-5.83,9.39-12.39,10.11-17,.96-6.17-.83-10.74-7.68-7.67-3.05,1.37-12.32,14.35-14.09,17.84-3.84,7.59-5,14.76-4.32,23.26-10.54-2.79-21.2,1.33-22.97-12.34-1.94-15,4.76-15.44,9.8-25.5,4.09-8.16-3.84-12.35-10.11-8.18-10.02,6.67-16.28,24.14-14.45,35.86-.47,3.85-5.22-5.85-5.58-7.97-2.65-15.45,7.23-36.45,22.29-42.08,4.74-1.77,8.27.45,13.22-3.23,7.17-5.32,5.86-15.2,4.46-22.73-9.07-49.11-50.82-53.65-82.81-82.68-24.7-22.41-33.24-49.07-45.42-79.16-10.69-8.73-9.42,8.59-8.75,15.27.83,8.26,9.7,24.86,8.71,30.93s-27.09,15.71-33.38,17.97c-37.07,13.31-84.71,23.05-123.85,21.23-4.35-.2-8.77.22-13.11.04l2.91-44.05c-.49-3.09-1.81-9.91-5.82-7.77-4.88,2.6-10.82,33.53-12.1,40.18-8.03,41.66-11.88,84.26-20.26,125.87-8.01,39.76-10.36,59.95-56.18,64.79-2.17.23-15.27,1.17-16.28.82-5.66-1.94-2.47-16.35-.52-20.53,2.65-5.69,11.87-12.62,7.67-19.54-5.6-9.23-19.7,12.79-22.03,17.76-3.1,6.6-4.62,14.38-3.19,21.49-4.55.07-20.66-.1-23.14-3.46-3.96-5.35-3.17-15.15-.92-21.08s12.7-14.48,7.19-20.02c-9.56-9.59-22.68,17.3-23.68,24.81-.45,3.38-.07,6.95.16,10.33.07,1.09,1.95,1.91-.71,1.67-7.35-4.14-6.93-7.85-6.04-15.69,1.01-8.89,9.69-31.35,18.13-35.09,5.16-2.29,11.01,1.17,14.67-7.58,5.74-13.71-1.23-38.84-.16-53.89,21.25,3.88,43.96-7.53,59.49-21.32,4.42-3.93,18.96-17.02,4.9-17.87-11.49-.7-31.46,7.24-44.57,8.21-7.66.57-15.92-.34-23.65-.04l-6.82-47.36c23.29-1.75,50.04-14.08,65.34-31.93,5.19-6.06,15.89-20.5-.55-16.99l-67.68,19.88c-1.09-1.13-5.59-25.78-7.67-30.56-1.66-3.82-4.68-2.12-5.99.94-.86,2.01-1.75,9.17-1.88,11.67-.7,13.97,2.91,31.18,3.9,45.54.58,8.48.83,17.13.97,25.64-45.53-7.86-110.85-27.94-134.68-70.97-6.61-11.93-10.06-25.25-13.38-38.39,7.53,1.46,33.81,8.43,39.38,4.53.82-.57,3.46-4.5,3.12-5.81-.71-2.77-21.64-11.75-25.73-14.04-7.33-4.11-14.17-9.02-21.09-13.75-1.82-11.42-3.72-24.2-3.42-35.77-.7-5.94.37-7.48,3.19-4.61,28.08,11.52,60.25,12.09,81.89-12.08,7.02-7.84,16.3-19.95,14.6-30.73,4.2-3.81,6.14-12.1-1.7-13.38-3.89-.63-20.16,6-25.4,7.57l-1.45-2.97c3.88-12.7,9.05-24.94,15.51-36.72,17.13-37.32-8.98-80.93-51.09-78.57l-2.65-1.74-2.03-1.07c-1.55-8.31-11.28-11.13-18.58-12.66-14.15-2.96-48.94-3.26-62.34,1.3-6.23,2.12-8.89,5.38-7.19,12.1l-1.8,1.29c-1.27,1.65-3.38,2.54-6.33,2.67-28.75,15.58-22.49,62.36-4.54,84.92l.23,3.38Z"/>
  <path class="uuid-201d6749-2193-4c4d-b77e-d4542c9433d2" d="M700.25,496.78c-32.29,9.69-60,7.9-92.34-1.05-14.48-4-40.32-15.58-49.92-27.02-15.07-17.97-21.44-44.65-14.55-67.29,3.48-11.41,11.64-24.59,25.19-23.68l2.25,2.25c2.37,18.5,16.48,28.41,33.65,32.46,6.67,29.51-9.83,51.55-38.8,31.1-2.71,16.92,33.31,20.68,41.5,8.65,3.67-5.53,6.17-7.07,9.95-.48,17.26,16.06,65.56,17.06,75.31-7.24,2.41-6.02,1.86-15.63-5.59-8.5-11.79,18.26-46.51,20.5-62.26,6.95-6.31-5.43-15.43-25.62-7.86-32.04,16.01-6.08,36.78-15.16,41.84-32.98l1.96-1.14c40.17-3.8,68.94,32.67,58.96,71.06-4.65,17.89-16.64,31.01-19.28,48.95Z"/>
  <path class="uuid-59936d1f-b263-48d1-8cec-7140a7fa042c" d="M1069.94,863.57v-15c0-5,18.75-21.65,9.69-26.13-5.18-2.56-10.87,4.52-14.05,8.22-8.12,9.44-12.26,20.29-11.11,32.92-.7.68-17.08-1.79-18.73-2.82-3.92-2.44-2.6-17.37-1.33-21.59,2.37-7.86,10.45-12.09,12.57-18.48,1.51-4.56-3.24-8.07-7.8-6.81-12.66,3.49-21.99,24.02-17.63,36.15-9.26-8.11-3.17-27.51,3.89-35.32,8.52-9.42,30.19-10.52,34.33-15.99,4.82-6.36,1.79-21.5.5-29,8.97,3.2,18.91,1.25,28.09-.47,8.16-1.53,18.41-3.46,24.13-9.7-4.42-6.04-4.71-8.62-12.51-10.67-14.73-3.88-31.06-.13-45.47-4.85l-10.68-14.95c5.33-.64,10.39-3.42,15.71-5.1,11.87-3.76,24.12-6.28,35.84-10.61,11.17-4.13,21.91-9.96,33.14-14.03,10.95,14.46,23.79,26.95,38.14,38.06-7.9,22.52-13.31,45.93-21.46,68.37-5.43,14.94-12.82,35.07-25.43,45.22-13.85,11.15-32.99,10.53-49.82,12.6Z"/>
  <path class="uuid-fd124d47-01aa-4a82-a417-9c1bf1770232" d="M700.25,764.86c11.75-1.62,25.16,5.75,34.76,12.36,7.14,4.91,14.78,15.2,16.53,23.45-7.35,29.26-11.01,68.38-46.4,75.05-4.56.86-29.87,2.93-31.56.5-.99-1.42-.56-12.32.03-14.61,1.56-6.08,11.91-18.08,12.13-21.84.4-6.7-7.46-4.27-11.16-1.38-10.22,7.99-18.6,24.84-14.98,37.76-11.2-.45-19.92.98-22.03-12.32-1.19-7.52.07-11.68,3.83-17.96,1.86-3.11,13.91-15.85,4.1-17.15-9.12-1.21-21.8,18.22-22.59,26.75-.35,3.78,1.15,6.84.88,9.55-.36,3.69-5.19-5.66-5.59-7.96-2.71-15.75,6.91-31.02,21.01-37.56,7.04-3.26,9.73-.44,15.37-2.06,14.17-4.06,11.2-20.12,11.79-31.76.39-7.74,2.36-15.95,0-23.71,4.59,1.52,9.11,3.48,14.04,3.85,6.59.49,12.96-1.23,19.83-.95Z"/>
  <path class="uuid-6c1652ba-4194-4ece-84e9-177f1e0e1a4e" d="M928.64,845.18c6.43-34.92,9.14-70.7,16.11-105.54,24.74-5.15,50.63-2.75,75.23-9.37,23.23,12.04,28.02,36.43,25.77,60.72-18.39,1.64-38.95,14.49-44.52,32.9.02-.21-1.68-2.08,0-3.86-22.5-1.76-45.17-.69-67.75-.98l-3.88,26.62-.96-.49Z"/>
  <path class="uuid-201d6749-2193-4c4d-b77e-d4542c9433d2" d="M892.83,391.29c1.23,1.65,1.35,3.77.38,6.37,1.13,16.91-12.06,28.79-23.6,39.12-12.95,12.51-31.41,23.26-48.39,29.03-11.44,3.88-29.91,9.75-41.45,6.13-5.39-1.69-2.21-6.64.3-10.03,8.01-10.82,23-20.21,32.45-29.97l.46-2.48c6.23-3.93,11.32-9.47,15.42-15.56l2.51-.35c2.79-.95,5.86-5.1,7.58-7.42,11.06-14.95,19.62-37.43,21.44-55.98.53-5.39-.95-11.42.76-16.66,1.8-5.51,11.34-12.49,16.68-14.78,3.52,6.68,11.27,15.84,16.07,22.16,3.91,5.15,14.05,13.08,10.81,19.69-4.27,8.71-18.27,4.73-19.92,10.11-1.98,6.45,4.15,16.1,8.52,20.63Z"/>
  <path class="uuid-4e02bc1c-4ecf-4d12-9c6a-367a97c59ac9" d="M751.54,800.66l-11.64-16.9c-7.05-7.64-29.44-18.49-39.65-18.9,3.81-1.6,11.45,0,9.54-7.04-2.07-7.63-37.31-15.44-44.15-21.25l-6.03-43.32,23.9,15.29c25.32,14.83,53.78,23.31,82.57,28.73l.93.98c-1.2.96-1.72,2.26-2.09,3.7-5.01,19.34-8.5,39.29-13.38,58.72Z"/>
  <path class="uuid-6c1652ba-4194-4ece-84e9-177f1e0e1a4e" d="M1157.04,825.82c5.64-14.3,10.09-30.04,14.77-44.74,3.55-11.12,6.71-22.43,9.9-33.64,22.84,13.24,50.48,28.37,48.87,59.02-15.8.58-28.13,15.64-35.8,28.07.07-.26-1.36-2.88.97-4.83-12.71-2.14-25.86-2.74-38.71-3.88Z"/>
  <path class="uuid-dfca1bc0-87b5-4022-9522-0107e82d7cfd" d="M1287.69,477.43c19.86-.49,39.63-16.12,47.9-33.86,14.03,13.47,24.1,30.97,29.32,49.69-15.65,15.93-38.06,24.08-60.15,25.66l-17.07-41.49Z"/>
  <path class="uuid-4e02bc1c-4ecf-4d12-9c6a-367a97c59ac9" d="M727.34,502.59c5.85,4-.77,14.19-3.68,19.06-20.18,33.8-52.05,39.65-88.09,27.7-2.6-.86-6.43-1.82-7.43-4.19-.89-.03-.46,3.76-.48,4.85l-1.93-30c21.13.09,41.83,3.22,62.73-1.63,7.77-1.8,33.52-10.94,38.88-15.8Z"/>
  <path class="uuid-fd124d47-01aa-4a82-a417-9c1bf1770232" d="M584.11,186.13l-2.25-.33c-23.33-35.85-57.82-15.63-49.76,24.02l6.56,21.99-1.01,3.67c-.45.55-.32,4.19-2.37,1.89-3.41-3.82-9.74-15.88-12.01-20.9-7.41-16.41-10.93-30.69-3.78-48.02,14.13-34.25,52.13-31.74,77.2-10.89,1.78,1.48,11.65,10.56,11.65,11.64.1,1.33-.79,1.64-1.64,2.28-6.82,5.13-15.43,9.11-22.61,14.64Z"/>
  <path class="uuid-fd124d47-01aa-4a82-a417-9c1bf1770232" d="M1391.22,443.55c-13.64-12.42-29.19-25.28-48.37-27.1,1.01-10.42-1.15-20.04-3.48-30.03,8.21-3.73,17.39-6.32,26.36-7.57,15.1-2.11,19.16-4.05,24.05,11.48,5.55,17.61,5.2,35.29,1.44,53.22Z"/>
  <path class="uuid-dfca1bc0-87b5-4022-9522-0107e82d7cfd" d="M1365.1,345.8c-15.4-1.63-29.22,5.92-41.96,13.46l-31.52-32.19c4.32-5.81,30.04-26.19,36.03-24.67,2.02.51,26.34,26.23,29.24,29.84,1.42,1.77,9.62,12.19,8.21,13.56Z"/>
  <path class="uuid-201d6749-2193-4c4d-b77e-d4542c9433d2" d="M584.11,186.13c-19.86,15.31-30.98,30.28-46.45,49.36-3.91-15.37-12-30.66-7.69-46.88,2.33-8.75,9.24-20.4,18.5-23.11,12.05-3.52,31.26,9.3,35.64,20.63Z"/>
  <path class="uuid-dfca1bc0-87b5-4022-9522-0107e82d7cfd" d="M1251.98,246.22c16.77-3.91,34.38-4.19,51.24-.59l1.19,14.27,3.51,12.69-42.88,19.93c-8.81-13.61-14.58-29.86-13.06-46.3Z"/>
  <path class="uuid-6c1652ba-4194-4ece-84e9-177f1e0e1a4e" d="M788.31,824.86c-1.24-.74,1.3-2.05-1.47-1.97-4.55.13-9.58,1.83-14.49,1.01l-9.21,1.93c7.14-26.27,10.65-56.36,18.32-81.84.37-1.23.08-2.48,1.53-3.31,1.49-.33,2.02,1.27,2.61,2.21,3.64,5.75,7.09,47.98,7.52,57.32.41,8.79,2.01,18.6-4.83,24.67Z"/>
  <path class="uuid-693065da-3339-44f8-91a4-392a943f2008" d="M869.61,436.78c4.87-4.7,16.88-18.05,19.26-23.81,2.9-7,1.08-14.73,3.97-21.68,2.65,2.74,9.29,5.48,8,9.38-1.42,4.3-14.44,20.39-18.14,24.51-3.56,3.97-8.43,9.18-13.08,11.6Z"/>
  <path class="uuid-2ea48e60-9966-40fd-aa67-d7a8bd6ba6bb" d="M660.57,376.78c.41,12.38-19.32,25.35-29.15,30.37-3.51,1.79-11.65,3.94-13.83,5.52-5.17,3.75,1.88,21.18,5.24,25.56,11.56,15.06,44,14.43,57.58,2.42,2.99-2.64,8.25-13,13.58-7.76,4.96,4.87-.81,16.83-5.34,20.84-18.11,16.05-50.19,14.34-69.83,2.07-3.49-2.18-4.93-5.84-5.69-6.42-1.76-1.35-2.25,1.76-3.31,2.92-7.36,8.02-13.25,9.61-24.24,8.67-9.79-.83-28.02-7.47-20.86-19.89,7.34,2.58,10.04,7.53,18.91,8.27,21.79,1.82,20.59-19.99,19.74-35.7-19.8-3.92-32.56-15.52-34.74-35.9-.77-7.2-1.84-9.99,5.76-14.08,7.17-3.86,22.05-4.06,30.49-4.35,13.01-.44,55.04-1.93,55.69,17.46Z"/>
  <path class="uuid-201d6749-2193-4c4d-b77e-d4542c9433d2" d="M833.56,162.19c9.51-1.26,20.54,2.28,24.61,11.67,8.87,20.44-5.4,56.9-16.17,75.18-2.2.52-11.17-11.18-13.02-13.09-11.8-12.17-23.67-24.3-37.69-33.95,6.88-15,25.1-37.53,42.27-39.81Z"/>
  <path class="uuid-d2e4335c-f957-4483-956c-bb948d82c299" d="M809.35,296.62c7.87-1.58,14.11,12.21,16.03,18.41,12.94,41.81-15.27,74.56-57.91,71.46-4.57-.33-22.34-4.07-16.97-11.24,1.64-2.2,25.84-13.15,31.35-17.04,15.48-10.95,21.27-23.14,22.91-41.93.52-5.93-2.71-18.19,4.6-19.66Z"/>
  <path class="uuid-2ea48e60-9966-40fd-aa67-d7a8bd6ba6bb" d="M718.41,287.93c17.39-2.43,19.77,25.35,18.6,37.06-.72,7.24-5.71,19.29-13.51,21.33-31.69,8.3-30.93-54.78-5.09-58.39Z"/>
  <path class="uuid-2ea48e60-9966-40fd-aa67-d7a8bd6ba6bb" d="M830.9,413.55c-4.11,6.75-11.36,14.69-18.39,18.39-11.95,6.29-31.43,7.56-44.32,4.16-5.15-1.36-14.78-4.68-10.93-11.52,7.89-2.85,16.78-2.55,25.26-4.73,11.8-3.04,27.34-10.52,35.33-19.84,3.53-4.12,9.69-17.57,14.55-18.41,11.85-2.05,5.53,16.81,3.38,22.79-1.25,3.49-3,6.08-4.88,9.16Z"/>
  <path class="uuid-d2e4335c-f957-4483-956c-bb948d82c299" d="M577.02,292.89c13.56-.27,11.82,26.02,8.81,34.8-2.81,8.23-11.01,19.13-20.15,10.9-4.12-3.71-7.15-19.64-6.64-25.09.84-8.98,8.15-20.42,17.98-20.62Z"/>
  <path class="uuid-e7f488ab-a619-4a49-8085-8d1f320cd462" d="M529.78,382.44c-1.5.93-6.17.25-7.66-1.26-6.13-6.22-12.79-36.02-8.54-43.49,2.05-3.61,6.54-3.86,8.12.35,1.97,5.26,2.62,14.97,4.04,21.13.96,4.16,7.64,21.03,4.04,23.26Z"/>
</svg>