<?xml version="1.0" encoding="UTF-8"?>
<svg id="uuid-09e72f7a-da4f-41ec-a4f8-255ab707863f" data-name="Layer 1" xmlns="http://www.w3.org/2000/svg" viewBox="0 0 1920 1080">
  <defs>
    <style>
      .uuid-eabd684e-b2a0-40e8-8f0e-94194533b535 {
        fill: #779e2d;
      }

      .uuid-bf1a89fe-1cab-4412-8edc-85c6851338b0 {
        fill: #e8e1d9;
      }

      .uuid-d166ad9f-7832-467b-b5d6-a6825b8c2a91 {
        fill: #2b1d02;
      }

      .uuid-fd3571be-7ecb-49b8-b916-99c4aaae274e {
        fill: #5a490c;
      }

      .uuid-5aef7b47-1a0e-429f-ab28-df01b71f8a41 {
        fill: #94b63f;
      }

      .uuid-b3079d18-43ed-42ce-b60c-7fe44c3847da {
        fill: #5b490c;
      }

      .uuid-745e6bab-445a-4b85-81c1-261b1c0f41a0 {
        fill: #7ca431;
      }

      .uuid-9b5f484a-f80e-48a0-a797-078d2df006f3 {
        fill: #7aa230;
      }

      .uuid-07faa065-7f51-49d9-bf4e-5a02036d6d9f {
        fill: #789f2e;
      }

      .uuid-b0738b8b-37b6-4e81-9f8b-8a0751a9001d {
        fill: #648e2a;
      }

      .uuid-879ceae9-5b3e-4295-a042-854491939a90 {
        fill: #769b2b;
      }

      .uuid-ad4f5b8d-03cc-4f6f-ad6f-97d0f9b8a1f3 {
        fill: #614f0c;
      }

      .uuid-2b3195ee-244a-44b7-bdef-108e9932ff4c {
        fill: #fefefe;
      }

      .uuid-9f52fd47-c970-4067-adf8-532aa6b3b854 {
        fill: #749c2d;
      }

      .uuid-a5076918-3e22-4866-87e5-40da3b92f22f {
        fill: #59490c;
      }

      .uuid-816b166d-74c0-4965-8ea1-aa4c3643d56a {
        fill: #789e2e;
      }

      .uuid-472ebd67-2ec3-4f05-8074-c4079425fbbc {
        fill: #584a0c;
      }
    </style>
  </defs>
  <path class="uuid-472ebd67-2ec3-4f05-8074-c4079425fbbc" d="M1044.76,457.53c.85,3.03,1.29,6.04,1.32,9.04.08,1.13.13,3.44.62,4.34s1.78,1.78,2.46,2.61c7.58,9.14,13.08,20.86,9.05,32.86-3.8,11.33-13.35,19.52-23.71,24.8-.41,1.41-.34,3.08-.6,4.47-.44,2.28-2.37,7.07-2.37,8.88s2.03,7.56,2.54,9.81c1.56,6.9,2.38,14.63,4.26,21.31.43,1.53,1.37,4.68,2.61,5.55,4.01,2.83,13.71,6.47,15.3,11.38,1.18,3.64.4,7.47-3.1,9.38-.06.53-.46.86-1.18.97l-1.54.32c-.59,5.67-8.06,7.88-12.76,6.06-5.59,6.49-15.37,1.04-20.74-3.27-6.09-4.88-7.89-8.66-7.21-16.36l.43-.51-.12-1.99c.02-.62-.19-1.08-.62-1.4-.95-2.29-1.81-4.61-2.56-6.97l-4.04,3.99c.89,1.06,1.76,2.34,1.38,3.72,1.05.75.93,2.92.78,4.19-.61,5.24-5.89,7.86-10.7,6.97-.41,2.56-2.84,4.76-5.43,5.27,5.45,5.6,3.13,14.25-5.09,14.51.15,6.46-8.66,8.26-13.64,6.3-5.05,6.39-13.23,2.09-18.52-1.75-7.37-5.35-11.68-12.69-14.26-21.39-2.76.15-5.54-.05-8.25-.5,2.86,5.03-1.83,10.38-7.17,10.23-.83,6.67-9.51,7.1-14.49,5.28-5.45,6.61-13.5,1.61-18.86-2.59-5.45-4.27-10.25-9.35-14.92-14.4v-.65c-5.08-5.61-8.64-11.37-11.87-18.22-7.47-15.84-16.92-44.77,8.46-49.03.56-1.48.88-3.04,1.43-4.53,5.65-15.31,17.84-28.86,31.55-37.46,8.39-5.26,17.73-7.85,25.44-14.25.76-.63,3.98-3.47,4.32-4.06s.51-3.83.71-4.81c2.53-12.61,11.79-24.32,25.41-25.08,9.63-.54,17.07,5.46,22.97,12.3.57.09,1.15.06,1.72.04,2.42-.1,5.06-.6,7.49-.67,3.48-.1,6.91.5,10.37.67.68-.13,1.32-2,1.78-2.64,11.81-16.46,36.3-12.47,41.33,7.26Z"/>
  <path class="uuid-bf1a89fe-1cab-4412-8edc-85c6851338b0" d="M1004.18,586.52l-.04-.97c.34-.54,5.29-.02,5.49.19.36,1.1.53,2.24.5,3.43.17,5.23-.88,7.91,2.87,12.45,4.61,5.59,16.76,14.07,23.7,8.27.3-.25.53-.98.87-1.02.43-.05,1.45.49,2.01.56,3.57.45,8.67-1.02,10.06-4.67.16-.41.31-1.78.43-1.88.07-.06,1.52-.31,1.9-.42.42-.12.8-.41,1.15-.5.02,0,.15.22.43.14,1.07-.31.5-.86,2.21-.24,7.93,2.87,15.1,11.14,6.94,18.4-9.52,8.47-32.68,13.53-45.26,15.6-27.26,4.47-55.12,5-82.63,3.15-19.13-1.28-38.42-3.4-56.72-9.21-8.5-2.7-32.43-11.32-20.01-23.44,4.16-4.07,10.29-6.12,15.55-8.37,5.23,5.77,18.17,19.62,25.9,20.29,2.27.2,4.71-.16,6.5-1.68.42-.35.96-1.31,1.27-1.39s2.78.75,3.51.83c4.37.44,10.55-.74,10.67-6.15,4.61.23,8.84-3.28,7.84-8.17-.17-.84-.79-1.41-1-2.19,3.01.61,6.04.74,9.12.69l.32.34c2.24,6.84,4.94,12.97,10.28,17.94,4.5,4.18,13.19,10.52,19.46,7.1.8-.44,2.26-2.18,2.42-2.23.48-.16,1.94.53,2.63.61,4.66.55,10.87-1.22,10.91-6.79,8.65-.82,10.33-8.89,4.39-14.57,3.09-.19,5.33-2.4,6.2-5.27,7.03.75,12.04-3.56,10.12-10.83Z"/>
  <path class="uuid-d166ad9f-7832-467b-b5d6-a6825b8c2a91" d="M1046.08,466.57c-.32.6-.22-.38-.22-.55,0-2.88-.39-5.7-1.1-8.49,1.4,2.86,1.12,6.02,1.32,9.04Z"/>
  <path class="uuid-5aef7b47-1a0e-429f-ab28-df01b71f8a41" d="M1017.41,532.28c-.37.3-.78.59-1.25.71-3.22.87-7.57,1.23-10.95,1.49-6.09.47-12.18.79-18.28.71,12.26,6.01,26.68,5.72,40.29,3.49.49-.06.6.31.33,1.1-5.05,17.24-18.83,33.8-34.4,42.56-8.66,1.36-18.37,1.9-27.26.61l-.74-.39c-1.29-4.76-2.24-9.92-1.98-14.88.23-4.56,2.36-12.9-.35-16.86-.14-.21-.76-1.07-1.09-.67-.38.46-.78,2.29-.98,2.99-2.67,9.76-3.32,19.39-.57,29.2,1.26,4.49,5.75,15.98,10.04,17.97,3.91,1.81,8.99,1.69,12.64,4.34,2.09,1.53,6.27,6.64,1.53,7.63-2.26.47-2.37-.91-3.82-2.03-2.45-1.9-6.57-3.62-9.69-3.43-.39.38,1.23,1.81,1.54,2.1,1.64,1.54,5.9,4.08,6.35,6.22.83,3.96-3.49,4.37-6.35,3.7-3.36-.79-2.68-1.66-4.52-3.86s-5.11-4.22-8.05-3.97c-.47.45,3.47,4.91,3.93,5.66,2.65,4.33,1.55,6.31-3.48,4.36-12.29-4.74-18.75-21.08-22.38-32.74-3.31-10.63-4.8-18.4-3.39-29.63.45-3.57,1.45-7.1,1.29-10.72-.22-.25-1.68,1.31-1.88,1.54-6.23,7.35-5.47,19.83-3.64,28.67-.22.09-.45.16-.68.21s-.45.08-.66.05c-3.26-.45-6.42-1.35-9.55-2.29-.5-.15-1.6-.72-1.45-1.28,2.06-13.25-8.69-27.96-19.02-35.11-6.73-4.66-15.05-8.47-23.31-8.99.9-3.3,2.2-6.44,3.75-9.48l.71-.26c5.13,1.52,9.9,2.42,14.59-.69,3.98-2.64,7.37-6.86,9.06-11.32l.56-.3c.29-.61.87-.72,1.75-.33,10.22,5.05,27.21-8.93,24.82-19.62-.32-1.42-1.34-2.33-2.65-2.85-1.5-.6-3.15-.85-4.74-1.05-.53-.36-.52-.46,0-.84,4.05-2.22,12.26-8.13,13.9-12.45.78-2.05,1.01-4.45,1.6-6.56,5.2-18.81,22.54-26.84,37.09-11.2.79.85,3.38,4.49,4.2,4.63,3.16-.22,6.32-.93,9.47-1.1,7.03-.38,13.95,1.22,20.94,1.32.66-1.68-3.57-2.93-3.83-3.33-.39-.62,1.69-3.27,2.17-3.84,11.61-13.6,30.73-4.46,32.17,11.94.19,2.14-.23,7.47.53,9.17.4.89,3.09,3.45,3.9,4.47,8.37,10.49,12.42,20.94,5.12,33.55-6.38,11.01-21.19,18.98-33.33,21.68Z"/>
  <path class="uuid-5aef7b47-1a0e-429f-ab28-df01b71f8a41" d="M872.32,567.34c-.35,6.85,6.23,13.02,11.76,16.13,6.55,3.68,10.78,3.63,17.87,4.62,2.25.31,12.01,5.31,14.47,6.7s5.91,3.71,7.46,6.21c.98,1.58.87,3.56-1.23,3.99s-2.73-.92-4.31-1.98c-3.14-2.11-6.63-4.03-10.52-4.14-.05.46.29.78.55,1.11,1.57,2.05,7.75,6.19,8.23,8.31.91,4.05-7.11,3.22-8.98,1.49-.46-.43-.88-1.61-1.33-2.19-.54-.7-1.73-1.81-2.42-2.43-.61-.55-5.67-4.62-6.18-4.08.25,3.38,5.85,7.35,5.93,10.5.06,2.23-2.44,2.14-4,1.79-7.16-1.62-17.29-12.88-22.12-18.45-9.83-11.36-19.61-31.84-18.64-47.09.35-5.46,3.14-9.24,8.27-11.13,12.44-4.59,30.32,5.74,38.03,15.33,9.19,11.43,14.73,33.76-7.79,30.95-8.65-1.08-16.01-6.41-21.86-12.54-.72-.76-1.69-2.22-2.43-2.86-.28-.24-.37-.29-.76-.23Z"/>
  <path class="uuid-5aef7b47-1a0e-429f-ab28-df01b71f8a41" d="M1031.53,566.01c1.11,5.67,1.94,15.5,6.63,19.28,3.08,2.48,11.42,5.43,13.22,8.83.67,1.27.55,4.04-1.16,3.61-.52-.13-2.95-1.97-3.77-2.42-1.19-.65-7.6-3.86-8.53-3.05,1.09,3.51,7.61,5.78,7.7,9.61.08,3.36-5.52,3.13-7.63,2.11-1.26-.6-1.83-2.27-2.82-3.35s-5.5-4.79-6.81-4.39c-.94.29.27,1.75.63,2.19,1.16,1.45,8.26,7.62,2.82,8.54-3.74.63-8.4-2.76-11.19-5.02-2.54-2.07-5.47-4.62-5.82-8.07-.33-3.19-.19-5.84-.91-9.12-.09-.42-.07-.82.05-1.2,6.36-5.08,13.05-10.69,16.95-17.98.24-.26.45-.11.65.44Z"/>
  <path class="uuid-879ceae9-5b3e-4295-a042-854491939a90" d="M923.48,483.99c-.13.65.32.4.73.47,5.18.87,7.92,1.8,7.18,7.99-1.07,9.07-14.18,19.52-23.45,17.1-1.06-.28-2.53-1.29-3.65-.87l-.28-.65c1.25-4.37-1.01-7.68-4.22-10.29l.09-.53c8.01-6.07,15.11-8.58,23.59-13.23Z"/>
  <path class="uuid-b0738b8b-37b6-4e81-9f8b-8a0751a9001d" d="M899.89,497.22l2.86,2.76c2.09,2.63,2.48,5.51,1.55,8.71-1.52,5.21-7.71,12.3-13.06,13.73-3.98,1.06-8.03-.09-11.86-1.16,4.75-9.29,12.22-17.76,20.51-24.03Z"/>
  <path class="uuid-9b5f484a-f80e-48a0-a797-078d2df006f3" d="M917.97,574.83l1.65.89c3.48,1.11,7.06,1.96,10.7,2.42,1.21,5.82,3.37,11.47,5.51,16.98-3.65-.15-7.37-.55-10.9-1.56-2.95-.84-4.93-2.48-7.62-3.85-2.38-1.21-4.99-2.31-7.5-3.19-.11-.51.07-.35.28-.49,4.38-2.81,7.03-5.77,7.87-11.19Z"/>
  <path class="uuid-745e6bab-445a-4b85-81c1-261b1c0f41a0" d="M1031.53,566.01c-.67-.45-.32-.11-.5.26-2.32,4.74-8.5,10.63-12.51,14.18-1.26,1.12-3.05,2.23-4.18,3.32-.33.32-.53.45-.46.98-.72-3.29-1.91-6.61-3.21-9.7,7.35-6.89,13.69-14.99,17.77-24.25l1.04,4.14c.64,3.7,1.33,7.39,2.05,11.07Z"/>
  <path class="uuid-9f52fd47-c970-4067-adf8-532aa6b3b854" d="M1017.41,532.28c-.13.62.31.42.69.51,3.6.82,7.41,1.43,10.99.16.17.23-.58,3.64-.72,4.24-.21.88-.57,1.74-.82,2.6,0-.59.2-.73-.53-.64-10.27,1.33-18.2,2.4-28.62.35-2.03-.4-11.16-2.98-12.2-4.34-.13-.17-.14-.24-.1-.44,6.37.09,12.73-.06,19.07-.66,4.06-.39,8.26-.88,12.24-1.76Z"/>
  <path class="uuid-07faa065-7f51-49d9-bf4e-5a02036d6d9f" d="M993.16,582.33c-1.22.69-2.29,1.41-3.6,2.02-6.77,3.15-14.34,5.09-21.63,6.59-.98-2.77-2-5.54-2.77-8.39,3.61.49,7.27.71,10.92.67,4.92-.06,9.86-.46,14.77-.88.74-.06,1.6-.21,2.31,0Z"/>
  <path class="uuid-eabd684e-b2a0-40e8-8f0e-94194533b535" d="M971.55,595.78c-.09-.39.12-.44.37-.62.95-.72,7.21-2.08,8.89-2.57,1.03-.3,3.51-1.4,4.33-1.43.69-.03,5.14,2.95,5.14,3.86,0,1.09-2.75,2.86-3.84,2.98-2.27.25-9.42-.49-11.62-1.17-1.11-.34-2.08-1.15-3.26-1.04Z"/>
  <path class="uuid-816b166d-74c0-4965-8ea1-aa4c3643d56a" d="M998.67,585.2c1.19,2.08,2.17,6.66-1.2,7.06-.65.08-2.67.09-3.26-.06-.49-.12-1.06-.83-1.55-1.09-.96-.52-1.97-.96-3.02-1.28l9.04-4.63Z"/>
  <path class="uuid-2b3195ee-244a-44b7-bdef-108e9932ff4c" d="M1004.18,586.52c-.36-1.36-1.04-3.01-2.2-3.86,1.82-.92,3.23-3.26,4.74-4.3.19-.13.22-.31.55-.22.36,3.82,3.5,7.15,2.87,11.02,0-.04-.19-.18-.2-.35-.06-.91.05-1.82-.26-2.71l-5.16-.47-.33.89Z"/>
  <path class="uuid-a5076918-3e22-4866-87e5-40da3b92f22f" d="M970.82,494.18c.41-.09.81-.08,1.23,0,1.59.33,5.21,4.86,7.02,6.22,15.11,11.4,42.49,12.05,56.65-1.3.89-.84,2.64-3.35,3.68-3.59,3.13-.72,3.7,2.5,2.04,4.69-14.31,18.89-51.34,16.73-68.01,2.31-1.47-1.27-4.44-4.2-4.3-6.25.06-.82.87-1.89,1.69-2.08Z"/>
  <path class="uuid-879ceae9-5b3e-4295-a042-854491939a90" d="M920.57,513.59c3.03-.28,6,2.76,5.76,5.76-.41,5.09-6.21,10.14-10.73,11.77-3.17,1.14-8.13,2.03-9.58-1.99-2.62-7.27,8.23-14.95,14.55-15.53Z"/>
  <path class="uuid-ad4f5b8d-03cc-4f6f-ad6f-97d0f9b8a1f3" d="M962.89,460.89c4.84-.84,7.52,4.86,7.77,8.88.28,4.52-2.06,11.89-7.81,11.11-3.64-.5-5.81-6.38-5.88-9.57-.07-3.39,2.04-9.75,5.91-10.42Z"/>
  <path class="uuid-ad4f5b8d-03cc-4f6f-ad6f-97d0f9b8a1f3" d="M1025.07,460.23c.89-.13,1.81-.01,2.63.35,6.68,2.9,5.91,19.48-1.81,19.67s-8.94-18.79-.82-20.02Z"/>
  <path class="uuid-fd3571be-7ecb-49b8-b916-99c4aaae274e" d="M998.61,489.11c2.44-.54,5.74,3.03,4.45,5.33s-6.43-.81-5.88-3.67c.13-.65.75-1.51,1.44-1.66Z"/>
  <path class="uuid-b3079d18-43ed-42ce-b60c-7fe44c3847da" d="M1017.36,488.22c.3-.03.4.04.65.12,2.99.94,1.07,6.74-1.12,6.66-3.04-.1-2.19-6.55.47-6.79Z"/>
</svg>