<?xml version="1.0" encoding="UTF-8"?>
<svg id="uuid-73abcc72-e69e-4cff-9686-12434361f54c" data-name="Layer 1" xmlns="http://www.w3.org/2000/svg" viewBox="0 0 1920 1080">
  <defs>
    <style>
      .uuid-dd579484-935f-4fb7-b817-a1deefe5deaf {
        fill: #7d5932;
      }

      .uuid-75d2adb0-1813-45cd-89eb-04abf65560b3 {
        fill: #fae3bf;
      }

      .uuid-08677f63-3d8d-44ac-a728-0cd4efebb931 {
        fill: #fefced;
      }

      .uuid-dc7931df-19ff-4fe0-b2e0-b548264098cc {
        fill: #76532c;
      }

      .uuid-7e03edfb-2f88-4d9c-b454-a737e36d3106 {
        fill: #f0cb99;
      }

      .uuid-792d9fef-dbac-4ea6-8ba6-e24e51c6f788 {
        fill: #f6ad81;
      }

      .uuid-6c76b00b-bbda-4296-9de8-b59ff6865a29 {
        fill: #cc8b64;
      }

      .uuid-3333cdc4-00e1-484a-a61e-59511593dcd7 {
        fill: #fae4c0;
      }

      .uuid-3c6f14a9-16f1-43b2-bbed-15039500f505 {
        fill: #fae7c5;
      }

      .uuid-6e3481cf-43e1-4309-bfbf-5111cd3e7ca7 {
        fill: #694b24;
      }

      .uuid-936c70ad-bb51-4f15-8f0b-800f3b3b0e3a {
        fill: #fae6c4;
      }

      .uuid-a50ddf40-0f02-4bb3-a8ad-f9c14abe9c59 {
        fill: #e3ddd5;
      }

      .uuid-48bafb8d-b3c6-4437-8c0c-5e96b68534cc {
        fill: #efc996;
      }

      .uuid-c860534b-62f2-490c-926e-35378187e185 {
        fill: #78542d;
      }

      .uuid-2002bfb5-ee3e-4232-9ceb-e8c7082c09a4 {
        fill: #fae4c1;
      }

      .uuid-9ddd56ce-f452-4b47-8f04-b458404011df {
        fill: #f0cb98;
      }

      .uuid-feb87bc9-535c-4bf3-a1b0-354481c8f07f {
        fill: #401b06;
      }

      .uuid-15dcda9d-6ab6-4a03-bc12-9d45732ac5a8 {
        fill: #987241;
      }

      .uuid-bad7d44d-e33a-43b0-af4c-66f7d98958fc {
        fill: #e5a173;
      }

      .uuid-249195de-5437-4667-a7a0-58580a16a7b9 {
        fill: #7e5a32;
      }

      .uuid-7e129117-7fb6-4ce4-b1c3-ee0511cbb2a6 {
        fill: #997241;
      }

      .uuid-24902f2d-fb3f-4eeb-b0e5-72187253562a {
        fill: #e6b980;
      }

      .uuid-ca8a2d50-d088-480d-866b-ed2f1cacc5b1 {
        fill: #f7b78c;
      }

      .uuid-5a2f9561-2798-47c3-8c6f-69b7e614b628 {
        fill: #3e1601;
      }

      .uuid-301d7de5-5390-4029-bc43-24533cd5aa68 {
        fill: #381000;
      }

      .uuid-0728e470-d1d1-4110-b037-ca1edca8abce {
        fill: #6b4c25;
      }

      .uuid-a3017e80-5d1e-4f42-9d47-358e191a90de {
        fill: #9a7341;
      }

      .uuid-f052f2b3-7ee0-4672-8753-5173fb3aa2f5 {
        fill: #f6d6a9;
      }

      .uuid-51230d71-ecce-4288-b5ab-a075a4bf486f {
        fill: #7e5932;
      }

      .uuid-6d901dc9-e8ba-4bd1-a7da-4cfe327d1ab3 {
        fill: #321002;
      }

      .uuid-1a3d5e5b-72bc-40c9-a2f8-72b21b6804a9 {
        fill: #9a7342;
      }

      .uuid-364f9105-7a4a-47d7-810c-c10dc3448341 {
        fill: #f8ba90;
      }

      .uuid-1d5892e4-3c30-49ed-8b19-2e2029194ce5 {
        fill: #fae7c4;
      }
    </style>
  </defs>
  <path class="uuid-6e3481cf-43e1-4309-bfbf-5111cd3e7ca7" d="M647.42,725.59l-5.07-53.8c-.17-29.29-15.8-50.77-23.34-77.58-5.1-18.14-7.7-36.84-9.19-55.62-25.87,3.42-52.34-2.25-76.69-10.87-11.01-3.9-21.92-7.74-32.92-11.61-44.8-15.77-82.68-58.67-64.29-108.39,10.59-28.62,37.04-43.49,51.02-69.7,6.48-12.15,10.16-25.75,14.05-38.88-34.47,4.21-84.07-33.57-80.14-69.77,1.62-14.9,27.79-25.67,40.57-28.69,22.55-5.34,45.88-3.34,67.28,5.44-14.54-22.55-5.87-84.37,23.69-90.58,18.72-3.93,14.9,14.16,18.36,26.28,3.18,11.15,14.08,27.63,24.72,32.74,4.16,2,21.15-4.52,27.02-5.74,22.12-4.59,47.51-5.6,69.95-3.25,5.52.58,32.5,6.97,34.18,6.5,1.52-.43,8.01-4.84,9.78-6.11,9.4-6.75,19.05-17.98,24.01-28.43,4.89-10.32,5.6-27.51,22.11-19.49,10.99,5.33,20.43,23.29,23.72,34.66,4.8,16.62,3.12,34.61-3.45,50.45,10.16-3.96,20.35-8.26,31.28-9.77,22.14-3.06,51.2,3.15,71.59,12.28,16.24,7.28,19.57,13.34,13.92,30.67-9.26,28.38-35.33,56.88-65.34,62.81-.28.22.51,1.23.98,1.49,3.4,1.87,15.07,4.85,19.59,6.14,22.22,6.32,45.12,10.01,68,13.13l38.08,2.98c-2.85.28-5.48.61-7.92.99,22.33-.99,46.71-.94,69.26,0-2.76-.37-5.73-.7-8.91-.99l115.23-8.95c48.37-.96,99.98,5.06,139.96,34.26,5.52,4.03,15.18,14.72,19.51,17.1,7.56,4.15,20.04,6.63,29.08,11.49,70.6,37.93,69.81,111.83,76.17,181.08,1.1,11.95,3.17,23.87,5.81,35.56,20.1,1.07,37.86,13.37,45.12,32.24,5.08,13.2,5.53,38.46,18.96,46.35,5.37,3.16,21.24,5.53,14.65,15.93-7.71,12.17-38.4,13.23-51.27,11.79-33.96-3.78-67.6-34.59-63.94-70.61.29-2.88,2.95-9.29,2.72-10.73-.19-1.22-6.32-9.63-7.56-12.16-11.56-23.56-9.39-46.08-12-71.11-2.23-21.47-7.24-42.38-13.86-62.83-1.65-.27-1.08,2.41-1.02,3.49.22,3.5.93,6.54,1.03,10.36v43.54c-1.66,45.45-20.72,98.31-10.4,141.5,1.79,7.47,5.07,14.36,6.94,21.75,7.78,30.74.45,71.85-4.62,103.24-3.26,20.15-7.92,40-11.71,60.03.41,8.47-3.97,21.46-9.04,28.68-15.33,21.85-64.02,21.96-87.83,17.24-37.13-7.36-29.23-27.55-17.22-54.4l2.27-.42c1.61-4.29,2.38-8.5,2.31-12.63,7.67-22.02,12.04-44.3,12.9-67.3.47-12.5-3.59-19.62-14.46-25.83-8.75,7.23-19.48,12.28-29.97,16.38l-6.5,30.79c-4.07,18.93-8.58,37.64-15.73,55.63,1.66,3.73-.57,8.94-2.36,12.62-13.76,28.25-64.37,31.17-91.35,25.29-30.89-6.73-25.65-24.14-15.46-47.28l2.31-.52c1.27-2.87,1.55-5.53.82-7.98,7.67-20.29,12.87-41.39,13.45-63.11-13.03-3.52-25.08-11.81-35.32-20.56-19.17,3.57-38.42,5.49-57.75,5.78l-3.32-1.19h-49.47c-7.74,3.07-17.67,1.51-25.61-.83-2.81,27.05-5.34,54.12-7.56,81.2l-2.01,3.48c-.27,6.12-1.08,12.14-2.42,18.06-.07,1.58.43,2.77,1.5,3.59-4.16,31.17-10.63,59.68-45.31,67.16-24.53,5.29-86.5,5.96-82.71-31.85.68-6.76,6.29-20.46,9.45-26.86l2.3-1.16c1.28-8.22,2.54-16.48,3.76-24.8.13-17.16-.02-34.44-1.2-51.82-.21-3.05-5.95-51.74-8.25-53.14-.31-.19-7-1.15-7.13-.82-2.68,23.63-5.46,47.32-9.89,70.73-3.09,16.31-6.16,32.36-11.94,47.97.26,11.55-7.09,27.95-16.86,35.07-19.74,14.39-65.44,16.32-87.8,7.33-8.34-3.35-13.35-8.95-13.38-18.08-.02-5.17,1.74-16.18,6.23-18.38,4.24-12.47,10.3-24.53,12.86-37.6,6.1-28.91,4.94-61.36,3.53-91.62,0-.04-.25.23-.56.59Z"/>
  <path class="uuid-a50ddf40-0f02-4bb3-a8ad-f9c14abe9c59" d="M892.81,849.28c1.15-7.37,2.37-14.96,3.65-22.76,55.95-.44,111.76-.17,167.44.83l-1.9,7.09c-5.54,14.91-17.4,34.62,3.97,43.03,27.42,10.78,97.96,7.88,101.92-32.62.2-.48.5-.55.97-.51,1.66-4.43,3.24-9.14,4.74-14.13,16.4.88,33.78,2.06,49.8,5.22l-3.09,11.87c-5.02,13.71-19.7,37.19-1.31,47.32,21.96,12.09,84.51,11.85,101.24-9.22,6.06-7.63,8.72-19.33,10.9-28.68.2-.48.5-.55.97-.51.16.01.55.85.97,1,.53-2.35.4-7.82,3.38-7.88,31.32,6.93,68.11,9.51,96.59,25.17,14.47,7.96,26.82,20.03,9.81,33.59-24.15,19.24-92.87,31.21-124.24,36.05-80.85,12.46-163.65,15.04-245.29,17.9-147.19,5.16-301.13,5.88-446.9-17.07-29.96-4.72-111.08-18.29-129.93-41.25-16.69-20.33,24.83-34.48,38.33-38.89,31.42-10.27,66.08-15.49,98.72-20.49.95,1.23-4.74,7.51-1.97,9.89-6.08,17.86-8.47,29.93,12.65,36.33,20.96,6.35,61.69,4.49,80.29-8.19,10.74-7.32,15.12-21.37,17.89-33.56.2-.48.5-.55.97-.51,1.35-5.38,3.01-10.68,4.97-15.89,1.37-1.01,30.05-2.74,33.69-1.88-.95,10.02-2.29,19.9-4.03,29.64-1.83,9.43-9.52,18.79-9.92,30.23-1.27,36.42,69.51,33.77,91.73,24.36,25.56-10.82,29.59-41.01,32.97-65.48Z"/>
  <path class="uuid-feb87bc9-535c-4bf3-a1b0-354481c8f07f" d="M647.42,725.59c.03-1.43-.85-5.73.98-5.93.97,32.45,2.87,65.26-2.97,97.46l-.97-.49c2.29-11.65,3.56-28.08,4-40.03.62-17.04-1.38-33.98-1.03-51Z"/>
  <path class="uuid-5a2f9561-2798-47c3-8c6f-69b7e614b628" d="M980.87,322.89c17.41-.31,35.03-.26,52.44,0,2.96.04,5.94-.04,8.9,0v.98s-69.26,0-69.26,0v-.98c2.63-.05,5.29.04,7.92,0Z"/>
  <path class="uuid-301d7de5-5390-4029-bc43-24533cd5aa68" d="M1351.91,529.68v-43.54c.38,14.06.51,29.51,0,43.54Z"/>
  <path class="uuid-936c70ad-bb51-4f15-8f0b-800f3b3b0e3a" d="M770.12,442.61c12.77.22,23.38-14.58,29.21-24.72,18.2-31.65,21.53-69.35,15.31-104.9,4.4.77,11.1-4.33,14.86-3.53s14.71,6.85,20,8.74c12.3,4.39,24.94,8.21,37.8,10.63l-.43,3.95.68,1.83c-20.27,50.01-6.57,122.79,44.76,149.84,14.01,5.08,26.38,9.87,33.88,23.81,16.11,30.46,29.51,51.07,65.15,59.45,41.22,9.7,76.32-6.21,82.91-49.25,4.2-17.27,18.86-25.91,35.51-29.62,29.84-5.47,46.9-13.4,59.05-43.32,14.2-34.98,7.6-75.56-11.04-107.59l-.21-4.16c78.94,8.67,128.42,54.76,135.55,134.56.46,3.02-.07,4.05-1.57,3.08-41.23-40.65-100.89-13.5-104.28,43.37-3.23,54.04,34.5,106.49,90.58,109.72l3.41,2.13c-3.57,34.23,6.92,50.39,11.6,80.91,2.45,15.98,0,35.82-1.83,52.04-3.03,27.04-8.15,54.12-13.9,80.63-.52.42-1.37,0-1.81.13l-.68,2.21c-9.04,3.12-67.83-1.24-70.89-5.66l.33-2.49c5.94-19.05,13.88-60.54,10.78-79.54-3.89-23.83-21.84-28.14-39-39.17-27.91-17.94-48.46-48.91-59.86-79.65-1.82-4.9-8.36-29.17-10.85-30.72-2.63-1.64-5.66.82-6.82,3.13-4.61,9.16.39,28.32,3.34,37.96,2.29,7.51,5.64,14.48,8.41,21.77-.8.7-1.72,1.23-2.42.39-58.35,49.2-144.53,45.55-217.05,41.35-7.88-1.52-15.65-2.1-23.32-1.75-.15-7.1-.35-14.17-.61-21.19-3.02-17.2-11.84-10.59-14.57,2.74-6.12,29.83-8.47,68.61-12.13,99.67-2.69,22.81-4.25,45.06-7.93,67.77-.98.59-1.98,1.15-3.03,1.57s-2.06.8-3.1.89c-20.02,1.68-39.62.83-58.95-2.33l-2.2-2.1-7.01-1.62c9.85-51.76-.42-107.91-15.04-157.89-2.21-7.55-9.06-32.42-13.11-37.34-4.47-5.42-7.95.16-8.42,5.35-1.36,14.89,4.44,31.71,7.96,46.05-42.57-8.05-80.21-32.08-106.28-66.37-15.08-19.84-22.42-37.13-28.28-61.26l1.91-1.97c64.23-13.14,119.71-72.07,131.72-136.11l1.93-1.43Z"/>
  <path class="uuid-51230d71-ecce-4288-b5ab-a075a4bf486f" d="M1197.56,333.77c23.46,37.47,29.71,88.83,5.36,127.56-16.42,26.12-35.2,23.41-60.31,31.71-35.15,11.62-21.48,36.19-40.06,58.88-26.01,31.78-85.59,23.22-112.82-3.89-15.13-15.07-23.52-44.91-39.86-54.14-5.33-3.01-11.35-4.32-16.84-6.9-43.3-20.37-59.1-73.28-56.09-118.14.34-5,6.39-35.48,9.93-36.07.09-.01.56.83.95,1,.34-.98.58-3.87,1.64-4.03,2.52-.39,21.06,4.17,25.77,4.85,49.29,7.12,101.54,7.18,151.26,4.16,43.03-2.61,87.93-9.73,131.06-4.99Z"/>
  <path class="uuid-3c6f14a9-16f1-43b2-bbed-15039500f505" d="M480.21,377.31c3.67-4.61,8.18-8.78,11.71-13.53,29.99-40.37,26.34-94.79,58.57-134.37,32.35-39.73,91.77-50.06,140.47-46.03-2.3,6.06-1.81,12.47-1.98,18.79-.92,5.88-.95,11.93,0,17.81.27,7.44.63,13.39,1.98,20.78l2.72,3.55c8.84,42.66,40.1,77.18,81.2,91.26l3.15,3.14c7.06,2.24,14.27,4.64,21.76,4.96-.22,23.07-5.77,46.76-16.3,67.29-3.56,6.95-12.76,18.14-14.37,24.72-16.46,12.2-32.79,24.44-48.99,36.72l-2.46-.11c-.72.46-2.66.61-3.98,1.43-21.37,13.28-44.62,26.51-68.25,35.18l.56-2.85c16.61-14.23,19.57-40.85,17.26-61.52-8.86-79.05-119.04-103.35-179.37-67.25l-3.69.02Z"/>
  <path class="uuid-364f9105-7a4a-47d7-810c-c10dc3448341" d="M645.45,508.91c-4.53,3.04-13.29,5.79-18.8,7.42-19.2,5.68-37.56,7.49-57.38,3.45l18.8-3.44c21.12-3.83,55.62-22.02,59.89-44.98,2.29-12.28-6.84-17.03-14.91-7-7.74,9.62-6.16,15.08-18.97,23.58-47.18,31.32-144.18,22.62-163.07-39.39-7.56-24.81,8.29-57.24,29.19-71.24,55.64-37.27,164.36-17.1,182.77,54.21,5.87,22.73,4.03,62.92-17.53,77.39Z"/>
  <path class="uuid-249195de-5437-4667-a7a0-58580a16a7b9" d="M1321.24,626.65c-55.09-1.52-93.02-47.15-96.02-100.39-2.47-43.75,25.24-80.45,71.65-75.61,13.75,1.43,24.64,9.22,34.57,18,1.3,1.15,1.66,3.48,1.66-.31,3.12,34.92,1.73,72.24-3.07,107.26-2.33,17.02-7.02,33.93-8.81,51.06Z"/>
  <path class="uuid-08677f63-3d8d-44ac-a728-0cd4efebb931" d="M979.88,747.36c20.62-.69,41.1-3.59,61.48-6.41,10.92,8.84,22.94,16.75,36.34,21.39.97,25.04-7.13,49.05-15.7,72.09l.99-5.93h-167.22s-1.97,23.24-1.97,23.24l-.99-2.47c3.31-23.99,4.28-48.61,6.93-72.72,1.14-10.39,2.58-20.82,3.95-31.18,8.81,1.04,17.83,1.77,26.71,1.98h49.47Z"/>
  <path class="uuid-dd579484-935f-4fb7-b817-a1deefe5deaf" d="M690.96,240.77c2.05-4.98-.74-11.94-1.03-17.27-.26-4.82-.45-38.44,2.68-39.18l20.12,2.04c-6.74,32.03,26.29,54.15,55.43,47.01,2.72-.67,5.35-2.58,7.88-3.09s4.45.65,7.38-.4c2.29-.82,2.91-2.47,4.99-2.96l-1.47,4.94.46,2.23c-5.95,5.51-11.06,11.65-15.32,18.43.98,8.37,7.21,15.62,13.03,21.41l-.15,2.46,3.8,4.64c-.9,5.32,2.79,8.9,4.45,14.32,1.79,5.83,8.89,44.67,6.59,47.33-5.83-.94-11.49-2.68-17.21-4.1-1.61-.4-3.12-1.39-4.55.14-45.39-14.41-78.47-50.7-87.07-97.96Z"/>
  <path class="uuid-24902f2d-fb3f-4eeb-b0e5-72187253562a" d="M769.13,435.69c-1.03,4.21.79,4.46.99,6.93.42,5.22-1.98,11.71-3.47,16.82-15.3,52.49-59.62,98.94-110.8,117.76-6.69,2.46-14.1,5.24-21.29,4.93-3.77-15.49-7.01-31.34-6.83-47.4,28.1-8.23,58-21.55,80.06-41.15,3.98-3.53,22.76-19.95,9.88-21.29.52-.33,1.56-2.41,3.04-3.38,16.83-10.95,30.17-22.69,45.95-34.22,2.26-1.65.89-.64,2.46.99Z"/>
  <path class="uuid-2002bfb5-ee3e-4232-9ceb-e8c7082c09a4" d="M664.25,707.78c-.78-5.57-.31-13.77,3.29-4.49,1.26,3.24,2.67,5.5,4.81,8.27,17.68,22.82,40.35,42.77,64.01,58.89,1-2.33,2.17-2.7,3.08-.33-2.73,21.09-5.98,41.65-10.88,62.34-.72.61-1.46,1.18-2.27,1.62-7.94,4.37-45.13,1.27-56.65-1.16-7.5-.45-10.62-2.91-9.35-7.39,9.86-40.95,3.35-77.21,3.96-117.74Z"/>
  <path class="uuid-08677f63-3d8d-44ac-a728-0cd4efebb931" d="M1220.31,847.3l1.95-10.83-48.01-4.74c-1.35.26-4,11.41-4.42,13.61-.42-.15-.81-.99-.97-1,7.76-28.91,14.43-58.12,20.7-87.41,10.77-5.09,21.66-9.97,31.26-17.16,17.17,8.04,17.33,18.59,16.37,35.84-1.32,23.58-8.8,49.64-16.87,71.69Z"/>
  <path class="uuid-9ddd56ce-f452-4b47-8f04-b458404011df" d="M1150.06,668.21c1.65,1.93,8.55,12.23,7.5,13.87-.7,1.08-19.99,10.34-22.97,11.71-70.7,32.6-151.82,40.68-228.97,33.32l1.04-40.1c.06.33.9,1.07,1.03,2.39.27,2.85-.57,16.62-.03,17.39,6.5-2.51,13.67.49,20.28.98,55.58,4.13,119.43,5.58,172.17-13.82,17.4-6.4,34.87-14.81,47.48-28.71.51,1.4,1.64,1.99,2.47,2.96Z"/>
  <path class="uuid-ca8a2d50-d088-480d-866b-ed2f1cacc5b1" d="M789.9,279.35c-4.14-3.84-2.71-6.51.87-12.02,21.09-32.51,76.64-47.06,112.93-40.33v2.88c-12.76,44.36-72.91,73.95-113.8,49.47Z"/>
  <path class="uuid-792d9fef-dbac-4ea6-8ba6-e24e51c6f788" d="M1123.35,751.32c-21.46.35-34.51-.53-53.45-11.36-.58-.33-6.61-3.12-4.93-4.47,36.39-6.75,71.32-20.62,103.58-38.44l34.94,32.48c-19.73,11.33-39.52,18.46-62.33,20.79-3.42,3.56-14,4.11-17.81.99Z"/>
  <path class="uuid-48bafb8d-b3c6-4437-8c0c-5e96b68534cc" d="M664.25,707.78l-3.47-38.58c23.17,24.16,51.45,42.42,83.48,52.56-.89,15.61-1.97,31.23-3.92,46.77-.1.83-.87,1.39-.9,1.59l-.99-.5c-.05,1.28.73,4.33-1.47,3.46-1.78-.7-10.04-6.84-12.3-8.48-16.72-12.21-36.6-30.27-49.53-46.45-3.99-4.99-10.64-11.92-9.93-18.27-1.89,1.02-.95,5.91-.98,7.91Z"/>
  <path class="uuid-7e129117-7fb6-4ce4-b1c3-ee0511cbb2a6" d="M804.75,855.21c8.04.25,17.83,2.68,26.18,3.01,13.63.54,27.59.13,41.1-1.03-2.75,16.95-2.07,33.98-20.78,42.05-13.1,5.65-45.07,6.22-58.18.79-9.12-3.78-8.68-6.36-6.41-14.92,2.69-10.15,9.46-19.14,10.18-29.9,1.86.27,3.52,1.05,5.45,1.09,2.22.05,2.32-1.09,2.46-1.08Z"/>
  <path class="uuid-7e129117-7fb6-4ce4-b1c3-ee0511cbb2a6" d="M1315.3,840.37c2.38,1.36,1.57.78,1.35,2.72-2.93,25.84-12.72,39.21-39.58,41.68-6.74.62-47.66,0-49.76-6.45-1.38-4.23,14.39-36.35,16.74-43.89.97,1.59,2.71,1.71,4.31,2.12,13.03,3.36,54.98,7.3,66.93,3.81Z"/>
  <path class="uuid-3333cdc4-00e1-484a-a61e-59511593dcd7" d="M786.94,231.86c14.45-11.58,38.33-20.88,56.85-21.81,21.42-1.08,41.29,6.49,60.81,13.98.64.91-.52,4.51-.91,5.85-.94-1.91-1.38-1.88-3.37-2.05-28.75-2.36-60.75,3.14-85,19.06-6.94,4.55-26.06,20.77-26.22,29.19-.03,1.6,2.72,2.82.8,3.27-1.65-.99-3.42-1.76-4.95-2.97-5.56-4.41-15.29-16.82-14.82-24.18.2-3.11,13.65-17.82,16.8-20.34Z"/>
  <path class="uuid-bad7d44d-e33a-43b0-af4c-66f7d98958fc" d="M521.77,243.73c-5.95,11.8-10.13,24.49-15.31,36.64-24.11,6.24-52.84-10.69-64.03-32-1.64-3.12-5.06-11.28-4.76-14.53,15.16-9.88,39.09-8.15,56.28-3.82,5.73,1.44,24.63,7.45,27.03,11.7.35.62.58,1.3.79,2.01Z"/>
  <path class="uuid-a3017e80-5d1e-4f42-9d47-358e191a90de" d="M660.29,825.53c-.29,2.68-.39,2.56,1.96,3.45,4.28,1.63,12.63,2.93,17.35,3.47,16.22,1.86,32.86,2.22,48.97.01-2.04,8.6-4.38,23.73-9.47,30.61-11.88,16.06-57.22,17.45-74.21,8.98,2.29-15.97,11.55-30.54,15.4-46.51Z"/>
  <path class="uuid-7e03edfb-2f88-4d9c-b454-a737e36d3106" d="M1086.74,818.6c4.9-15.98,8.24-33.73,7.92-50.46,2.24,1.37,9.63,2.48,10.89,3.44.82.62,2.48,8.17,4.1,10.74,8.09,12.83,31.43,12.85,40.4,1.15,3.47-4.53,5.33-16.63,6.04-17.21.54-.44,11.67-1.1,13.75-2.07-3.84,13.95-6.18,28.29-9.57,42.36-1.48,6.13-3.64,12-5.26,17.99-.78.57-1.58,1.1-2.44,1.5s-1.66.75-2.5.81c-18.86,1.28-40.38-1.02-58.81-5.21-.82-.19-1.57-.67-2.34-1.19s-1.49-1.17-2.18-1.85Z"/>
  <path class="uuid-1a3d5e5b-72bc-40c9-a2f8-72b21b6804a9" d="M1155.01,824.54c-2.99,11.01-2.8,24.21-13.52,31.5-17.27,11.74-51.51,11.2-70.65,4.51,3.67-14.54,11.5-27.58,15.9-41.94,22.12,5.16,45.64,7.78,68.27,5.94Z"/>
  <path class="uuid-08677f63-3d8d-44ac-a728-0cd4efebb931" d="M743.4,848.29c9.21-40.07,16.47-80.64,19.8-121.7,1.85,1.88,10.2,1.62,10.77,2.09,1.27,1.03,5.29,28.22,5.87,32.22,4.86,33.37,6.57,66.33-1.81,99.27.02-.12-1.21-1.08-.95-2.31,1.78-8.68,4.48-17.34,3.92-26.38l-33.61,3.01-3.03,14.81c-.42-.15-.81-.99-.97-1Z"/>
  <path class="uuid-1d5892e4-3c30-49ed-8b19-2e2029194ce5" d="M1356.86,445.58c-1.4-1.68-.17-2.41,3.7-2.18l8.33-8.96c.96-.32,1.89-.21,2.81.26,14.22,25.1,19.71,55.14,22.75,83.61,2.78,26.05,1,53.47,10.77,78.18l-11.24,7.4c-12.74-22.37-9.88-49.04-12.39-73.71-2.28-22.36-11.19-66.97-24.73-84.6Z"/>
  <path class="uuid-15dcda9d-6ab6-4a03-bc12-9d45732ac5a8" d="M1459.75,667.21l-5.93-.98c-.09,3.91,3.45,6.8,5.92,9.41.98,2.29-4.33,1.56-5.48,1.51-15.01-.57-30.02-8.56-39.55-19.82-6.87-8.11-15.02-25.71-5.85-34.57,9.04-8.72,23.14-7.46,32.09.41,11.93,10.48,10.12,20.37,14.55,33.93,1.15,3.51,3.07,6.63,4.23,10.11Z"/>
  <path class="uuid-dd579484-935f-4fb7-b817-a1deefe5deaf" d="M778.54,136.88c1.51-.36,7.69,9.41,8.57,11.2,12.06,24.58,5.39,50.35-17.06,65.41-1.51,1.01-9.57,6.06-10.53,6.28-8.35,1.94-21.56-5.09-26.45-11.73-14.17-19.23,10.27-27.8,21.67-37.56,5.26-4.51,12.41-12.73,16-18.63,1.47-2.41,6.43-14.65,7.79-14.98Z"/>
  <path class="uuid-75d2adb0-1813-45cd-89eb-04abf65560b3" d="M521.77,243.73c-24.39-14.9-57.05-19.66-84.1-9.89.26-2.83,5.67-5.59,8.24-7.1,24.89-14.63,60.39-14.41,85.31.15-2.61,5.91-6.53,11.05-9.45,16.84Z"/>
  <path class="uuid-7e129117-7fb6-4ce4-b1c3-ee0511cbb2a6" d="M553.42,142.82c2.37,17.43,15.14,30.49,27.71,41.54l-29.15,17.86c-6.55-10.82-9.07-21.55-8.49-34.21.35-7.66,1.74-22.19,9.93-25.19Z"/>
  <path class="uuid-f052f2b3-7ee0-4672-8753-5173fb3aa2f5" d="M1371.7,434.7c-3.8,2.57-7.98,10-11.89,11.41-1.43.52-2.5-2.66-2.95-.53-2.42-3.15-10.52-9.02-10.87-9.67-2.06-3.85-2.62-12.9-5.21-17.29l-11.61-25.48c17.82,10.41,32.29,23.46,42.54,41.56Z"/>
  <path class="uuid-6c76b00b-bbda-4296-9de8-b59ff6865a29" d="M1141.16,750.33c-.3,6.2,1.02,13.76-1.77,19.5-1.61,3.31-12.56,11.97-14.84,7.49-2.96-5.83-.26-19.18-1.2-26,6.44-.11,11.45-.34,17.81-.99Z"/>
  <path class="uuid-6d901dc9-e8ba-4bd1-a7da-4cfe327d1ab3" d="M979.88,747.36c-16.02.54-33.42.39-49.47,0h49.47Z"/>
  <path class="uuid-dd579484-935f-4fb7-b817-a1deefe5deaf" d="M688.98,219.99c-1.66-4.95-1.66-12.78,0-17.81-.15,5.87-.21,11.95,0,17.81Z"/>
  <path class="uuid-51230d71-ecce-4288-b5ab-a075a4bf486f" d="M819.41,496.28c18.62-.67,35.88,21.48,51.61,29.96,16.14,8.7,36.69,8.18,47.33,25.89,16.68,27.77-8.37,64.25-35.18,74.29-49.87,18.67-92.2-11.55-99.92-61.88-3.86-25.16,4.24-67.1,36.16-68.26Z"/>
  <path class="uuid-c860534b-62f2-490c-926e-35378187e185" d="M680.8,307.3c12.38-2.08,18.92,6.69,20.04,18.07s-2.79,31.47-16.35,32.19c-23.13,1.23-23.99-46.85-3.69-50.26Z"/>
  <path class="uuid-dc7931df-19ff-4fe0-b2e0-b548264098cc" d="M547.22,299.33c26.05-5.65,18.88,61.46-6.71,46.86-14.83-8.47-4.47-44.44,6.71-46.86Z"/>
  <path class="uuid-0728e470-d1d1-4110-b037-ca1edca8abce" d="M594.72,415.15c19.81-3.26,14.38,24.29-1.45,27.23-19.29,3.59-16.37-24.3,1.45-27.23Z"/>
  <path class="uuid-6e3481cf-43e1-4309-bfbf-5111cd3e7ca7" d="M488.84,410.15c13.05-1.75,19.1,34.84,1.23,30.02-13.98-3.77-14.83-28.19-1.23-30.02Z"/>
  <path class="uuid-7e129117-7fb6-4ce4-b1c3-ee0511cbb2a6" d="M779.03,149.74c11.39,15.31,8.36,39.17-3.94,52.96-7.95,8.91-16.61,14.66-28.43,7.6-3.85-2.3-12.24-13.96-10.69-17.95,3.2-8.27,13.51-11.51,20.22-16.47,9.39-6.95,16.41-16.67,22.85-26.14Z"/>
</svg>