<?xml version="1.0" encoding="UTF-8"?>
<svg id="uuid-16d342fb-d8f8-4b3a-b7aa-4ff848a3d7f6" data-name="Layer 1" xmlns="http://www.w3.org/2000/svg" viewBox="0 0 1920 1080">
  <defs>
    <style>
      .uuid-6fac1dd0-38b0-4445-909b-f687dac321d6 {
        fill: #f5f5f1;
      }

      .uuid-3e3697cb-829e-4def-8372-75473301a063 {
        fill: #d5ca22;
      }

      .uuid-cc04d721-19ee-444d-813b-d6cfe94531fd {
        fill: #b0a70a;
      }

      .uuid-bc8bf3fb-ff27-4acd-8063-3d268b879717 {
        fill: #e4d848;
      }

      .uuid-f637090f-9314-4f66-a4a6-98d68337d714 {
        fill: #443a0b;
      }

      .uuid-fcf1784e-b2bc-4271-b7a4-fe9e4261a854 {
        fill: #e1d642;
      }

      .uuid-bcd33a2d-c432-4ac4-ba0a-a2fcd14defab {
        fill: #9f9b13;
      }

      .uuid-d345fbcf-b40f-4615-b4c0-1ed377d80aa2 {
        fill: #899c29;
      }

      .uuid-7dbb6c4e-0f41-4876-b6a4-38ab1ed2f334 {
        fill: #5b550d;
      }

      .uuid-89e3388e-3c66-464e-8675-e815586e599e {
        fill: #774315;
      }

      .uuid-f512d8ea-2d10-422c-8bf0-9e10f60c120e {
        fill: #6f8823;
      }

      .uuid-51f04775-9ad5-4847-8c48-4b3d462e3cce {
        fill: #987627;
      }

      .uuid-b126e3a5-7abf-4df0-b4f4-5b0bd9b165d9 {
        fill: #514b07;
      }

      .uuid-0122a766-a81f-4ec5-a333-e9dab0bb8084 {
        fill: #e3ddd4;
      }
    </style>
  </defs>
  <path class="uuid-0122a766-a81f-4ec5-a333-e9dab0bb8084" d="M827.95,734.34l5.83-.71c72.67,50.59,191.89,47.65,248.4-26.06l6.03-2.72c1.13,4.02,4.72,2.96,7.54,3.74,22.07,6.14,74.14,19.6,32.93,46.26-56.56,36.6-241.64,49.16-299.51,15.58-12.11-7.03-25.21-19.45-15.89-34.27,5.8-9.22,7.08-5.89,14.67-1.81Z"/>
  <path class="uuid-f637090f-9314-4f66-a4a6-98d68337d714" d="M1006.66,382.13c1.59,5.11-1.43,5.07-5.93,4.26-.02,3.01.22,6.21.72,9.62-3.2,2.39-8.27,1.13-15.22-3.77-3.21,10.82-11.44,14.97-24.68,12.44-2.57,7.21-25.78.52-17.35-6.94-2.81-.34-3.74-2.09-2.78-5.24-5.33.58-10.76,1.17-16.3,1.77-.89,3.01-3.59,5.05-8.08,6.13-4.99,4.61-9.23,6.04-12.74,4.28-10.65,2.82-17.48,10.81-20.49,23.98-4.16,14.51-8.96,28.79-14.42,42.83-2.41,6.13-9.34,6.37-6.73.85l22.55-62.45c-26.29,8.13-53.68,7.23-79.25-3.16-10.04-4.08-23.17-8.16-18.29-20.66,3.48-8.92,17.48-32.42,23.26-40.93,22.82-33.58,79.54-66.26,116.75-37.58,7.79,6,10.75,16.05,22.54,13.81,12.73-2.42,14.47-42.02,44.32-28.62,30.35,13.62,2.53,37.55-4.32,54.7-3.23,8.08-4.9,16.3-5.96,24.9.77,2.66,17.78,7.23,22.41,9.76Z"/>
  <path class="uuid-b126e3a5-7abf-4df0-b4f4-5b0bd9b165d9" d="M1006.66,382.13c36.32,19.88,31.19,70.37,44.28,104.07,8.69,22.38,25.34,42.93,36.44,64.19,26.72,51.16,33.32,103.84.83,154.46-45.44,70.78-156.58,81.12-227.91,48.33-11.46-5.27-21.33-12.93-32.35-18.84-4.87-6.08-10.49-11.47-15.62-17.35l-1.8-4.85c-10.58-9.2-13.58-24.91,3.54-14.24l5.74,1.82c97.29,115.32,333.91,36.47,257.87-130.08-19.57-30.18-35.68-61.61-48.32-94.32-2.75-22.99-8.76-44.48-18.06-64.48-5.1-4.8-8.39-9.75-9.85-14.85l-6.93-6.06c3.06-1.04,3.2-7.5,3.52-7.79,1.34-1.22,7.24,3.32,8.62-.04Z"/>
  <path class="uuid-7dbb6c4e-0f41-4876-b6a4-38ab1ed2f334" d="M862.65,472.35c.15-.03.86,1.46,1.57,1.69,8.56-15.89,11.2-34.23,17.92-50.73,4.5-11.04,7.55-17.89,19.62-22.03,2.85-.98,2.58,3.2,2.52,3.4l2.42,3.61-11.64,24.13c-11.73,45.45-35.49,80.16-67.65,114.29-32.74,35.84-46.03,80.05-23,125.45-1.26,2.14-1.56,4.35-.76,6.66,5.31,2.22,13.09,13.49,10.41,19.09h-10.4c-.78,7.65,12.32,11.51,8.67,19.09-43.95-50.36-48.52-110.71-11.51-166.79,13.19-19.99,31.45-35.75,46.16-54.47,3.12-3.97,14.28-23.14,15.66-23.38Z"/>
  <path class="uuid-3e3697cb-829e-4def-8372-75473301a063" d="M925.11,394.28l12.96-1.5c2.21,3.9,4.25,5.56,6.13,4.97-.33,6.99,12.47,5.99,17.35,6.94,21.37-7.17,32.11,27.73,34.44,43.89,2.05,40.32,9.97,77.27,24.62,114.68,6.35,20.87,10.76,43.85,4.85,65.36-25.93,94.37-157,112.55-221.81,50.2-37.57-78.99,5.08-113.93,50.27-169.21,23.34-28.55,24.85-43.09,36.9-75.88,3.53-9.62,10.86-20.53,13.46-29.04,6.92-4.34,12.22-9.71,20.82-10.41Z"/>
  <path class="uuid-cc04d721-19ee-444d-813b-d6cfe94531fd" d="M1001.45,396.01c25.96,17.71,24.16,54.07,32.11,81.54,13.67,47.27,56.65,85.87,61.57,136.22,15.07,154.07-205.24,187.94-281.06,84.13-5.09-6.96-6.91-11.72-10.41-19.09-.35-5.76.89-3.2,3.47-.87,63.39,56.99,182.96,41.94,213.02-43.76,14.81-42.23-10.14-83.61-19.92-123.31-5.22-21.21-4.36-41.03-7.66-61.74-1.85-11.6-10.89-39.41-22.67-43.31-3.16-1.05-5.7-.63-8.34-1.15,11.3-2.76,21.44-2.51,20.83-17.35.8-.86,17.05,7.29,19.08,8.68Z"/>
  <path class="uuid-f512d8ea-2d10-422c-8bf0-9e10f60c120e" d="M919.91,319.67c3.95,2.8,7.89,6.2,10.41,10.39-21.95-4.14-47.58,6.53-66.46,17.7-6.79,4.02-15.18,9.22-20.29,15.26,11.02-5.16,21.04-12.57,32.51-16.92,18.8-7.13,41.32-12.22,61.19-9.09,4.46,4.36-12.87,28.68-16.47,32.99-17.96,21.46-45.94,31.48-73.76,31.21-5.46-1.99-11.64-3.23-18.53-3.74,1.02-6.5,2.55-13.02,4.6-19.56-3.25,1.41-9.42.18-9.28-3.78.24-6.88,29.19-28.88,36.59-33.76,17.07-11.25,39.46-20.64,59.48-20.7Z"/>
  <path class="uuid-d345fbcf-b40f-4615-b4c0-1ed377d80aa2" d="M919.91,319.67c-10.3,5.32-22.36,6.54-33.42,10.82-22.7,8.79-43.67,26.36-60.26,43.84,2.27,2.74,9.41-2.87,10.35,1.84.84,4.19-5.97,20.82-5.14,21.57,3.36,1.45,16.42-3.55,15.61,3.48-7.68-.08-41.05-5.8-43.24-13.28-1.79-6.12,21.39-39.79,26.73-45.73,20.81-23.15,60.66-42.88,89.38-22.53Z"/>
  <path class="uuid-51f04775-9ad5-4847-8c48-4b3d462e3cce" d="M973.69,343.96c-1.34,12.06-4.44,25.45-6.74,37.51-.63,3.29.48,7.14-.16,9.86-.32,1.39-7.88,6.52-8.72,2.04,4.18-22.53,2.73-66.04,17.36-84.11,5.67,8.69,3.78,25.98-1.74,34.7Z"/>
  <path class="uuid-89e3388e-3c66-464e-8675-e815586e599e" d="M975.43,309.26c2.45-3.03,2.42-5.37,7.6-5.18,3.72.13,11.56,3.35,11.5,7.75-.02,1.59-13.6,23.21-15.95,27.56-1.3,2.42-.69,5.49-4.89,4.56,1.21-10.84,1.1-23.66,1.74-34.7Z"/>
  <path class="uuid-6fac1dd0-38b0-4445-909b-f687dac321d6" d="M947.43,371.48c-.73,1.16-10.96,2.5-12.78,5.44-1.17.38-1.26-1.65-.84-2.57,2.04-4.42,12.17-15.17,15.58-19.98-.99,3.27-1.01,15.6-1.96,17.11Z"/>
  <path class="uuid-bcd33a2d-c432-4ac4-ba0a-a2fcd14defab" d="M925.11,394.28l20.81-6.93-1.73,10.4c-3.34,7.69-4.83-1.49-9.94-3.11-2.52-.8-6.42-.58-9.15-.36Z"/>
  <path class="uuid-bc8bf3fb-ff27-4acd-8063-3d268b879717" d="M867.42,521.35c13.41-3.61,13.92,8.71,11.81,18.78-2.32,11.05-27.35,45.21-38.4,46.75-7.18,1-12.93-4.11-12.94-11.27-.02-14.84,24.95-50.33,39.53-54.26Z"/>
  <path class="uuid-fcf1784e-b2bc-4271-b7a4-fe9e4261a854" d="M924.6,406.78c18.68-5.65,11.95,14.93,8.36,25.7-2.58,7.74-24.69,43.93-28.61,23.34-2.45-12.87,6.67-44.93,20.26-49.04Z"/>
</svg>