<?xml version="1.0" encoding="UTF-8"?>
<svg id="uuid-8477f0ea-5fc2-4cd4-86ad-c67912ef6286" data-name="Layer 1" xmlns="http://www.w3.org/2000/svg" viewBox="0 0 1366 768">
  <defs>
    <style>
      .uuid-1baa35d3-c48f-429f-971d-5a17b04b11d0 {
        fill: #9a573b;
      }

      .uuid-feb29e8d-76d1-404b-ae58-b021b7e13d12 {
        fill: #180d07;
      }

      .uuid-110f83ed-b2fb-4837-a497-88c231348ad5 {
        fill: #db7575;
      }

      .uuid-7a31d2a0-35f9-4dcb-9869-31cb6c15abbe {
        fill: #23190f;
      }

      .uuid-b9887bef-c0b6-413c-b1d2-cdecee6dd340 {
        fill: #e49f66;
      }

      .uuid-b81f1a1a-87d5-4d88-9a19-c565caba00cb {
        fill: #0a0703;
      }

      .uuid-180ce1cd-83d3-46c6-8aff-25b71744ab32 {
        fill: #faf8f4;
      }

      .uuid-d20f7336-675c-4f90-9522-4bb5225d55ba {
        fill: #0e0904;
      }

      .uuid-a5fb0c59-fa50-4ec9-952f-6c836f961fef {
        fill: #703f20;
      }

      .uuid-97331e79-7bba-4264-9e88-1f71c7e2cf64 {
        fill: #130c06;
      }

      .uuid-da3b7036-a896-427e-844e-d988934e3752 {
        fill: #db7576;
      }

      .uuid-c797d832-7ebe-4621-9e34-ae73b4f8eafe {
        fill: #f99b9e;
      }

      .uuid-ade15077-a07a-42cf-b2c7-20c897d6f914 {
        fill: #030301;
      }

      .uuid-30e8f073-a057-43bb-9f71-a491041b2fc2 {
        fill: #0d0704;
      }

      .uuid-eb813db4-129c-4960-a30f-7fe6d274953a {
        fill: #040201;
      }

      .uuid-43ddd5a4-efb3-4988-b581-613d6fe97d85 {
        fill: #84482a;
      }

      .uuid-286667f4-15e3-4dfb-a590-d00421ddc1ce {
        fill: #070402;
      }

      .uuid-fb7f6292-16cc-48cc-96c6-4ed4fc341879 {
        fill: #050201;
      }

      .uuid-392fa0a7-9893-4970-9528-7abd75c916ef {
        fill: #140e08;
      }

      .uuid-240c5705-26cc-4d9c-9137-d0a5292f787b {
        fill: #402d1b;
      }

      .uuid-6038366f-9b33-481c-aa41-c0113fa1aae1 {
        fill: #db7676;
      }

      .uuid-9d4b720c-5ea1-4c22-9c15-f8f89df445a1 {
        fill: #7a4228;
      }

      .uuid-44a4ea1e-438e-4596-9dfe-f7014a91337f {
        fill: #070502;
      }

      .uuid-84c5b6c7-86d5-4f04-91f3-2a5e7d7e1aa6 {
        fill: #100a05;
      }

      .uuid-0cc571d3-9bdd-4654-9e06-e2238cb57ddc {
        fill: #723b22;
      }

      .uuid-bc1e7f16-d621-4d83-a48c-5cabf5cef86a {
        fill: #0e0804;
      }

      .uuid-ed993cad-7107-46ca-9cc9-a70b16d90a9c {
        fill: #100a06;
      }

      .uuid-dfbdacf9-92be-4954-b78d-52835ab0b9b5 {
        fill: #150e08;
      }

      .uuid-aa11d3fc-3066-4d77-943b-2bcc5852e463 {
        fill: #150d07;
      }

      .uuid-8471a7cd-490f-4ebb-81ff-5072bc1841d7 {
        fill: #120b06;
      }

      .uuid-b6c7abef-148c-4e39-8457-96f44e075876 {
        fill: #9e5b3e;
      }

      .uuid-54917fd7-d3ef-4c6f-a23e-9e0bfc4fb183 {
        fill: #140e05;
      }

      .uuid-f8e8798d-8a50-45e0-9918-d598def69b03 {
        fill: #e49f67;
      }

      .uuid-87fe4900-2f82-4398-af5c-20bc0cc5cab1 {
        fill: #160e08;
      }

      .uuid-b5622122-0c79-44fa-833e-09b154df7b3d {
        fill: #dc7676;
      }

      .uuid-662f5168-617b-4333-9534-11e4a7235fe1 {
        fill: #dc7677;
      }

      .uuid-986f0a41-3075-4a0e-aeb1-83d15ad6b050 {
        fill: #755136;
      }

      .uuid-c2e7fae9-37b3-44fe-83e1-0b0b014ae17d {
        fill: #140c06;
      }

      .uuid-e2332db3-3e04-4b9c-8f2d-5ec65fe11ba8 {
        fill: #130d07;
      }

      .uuid-0e1c355e-71f5-4e05-a587-ae28708bbf7c {
        fill: #e2ddd4;
      }

      .uuid-44bb6a09-fa2f-46e9-bd36-6110a98b6643 {
        fill: #f99c9f;
      }

      .uuid-228b5eb9-877f-4398-9794-b30b2247595d {
        fill: #8c4d2a;
      }

      .uuid-82e5645e-f3db-474c-86d9-d66bfc36d21e {
        fill: #f9f6f2;
      }

      .uuid-cf0367b2-78a8-4e6a-a6cc-4261893c752e {
        fill: #f2b581;
      }

      .uuid-26e969c9-a668-4e0b-9d5d-7f6b9fd2ee6f {
        fill: #19120b;
      }

      .uuid-5e14090c-e240-4326-907c-6c7788b620c0 {
        fill: #010100;
      }

      .uuid-eb7266c9-ecfb-4633-a5d3-86db3370a2e0 {
        fill: #723920;
      }

      .uuid-e1f54952-21c0-452a-9665-0327dc95a60a {
        fill: #f99b9f;
      }

      .uuid-75e450f1-ad36-487a-96a0-5a042473a970 {
        fill: #150f09;
      }

      .uuid-4f7e7f85-828b-4d45-96a3-dd492af524d9 {
        fill: #050100;
      }

      .uuid-1222aa45-aa68-42a1-96f6-69ec1693c5c2 {
        fill: #0d0703;
      }

      .uuid-953e154a-3fdd-4692-b320-ef5e8f95d949 {
        fill: #da7575;
      }

      .uuid-809311a4-5888-4c3a-a312-418ef5f4faf8 {
        fill: #84482b;
      }
    </style>
  </defs>
  <path class="uuid-240c5705-26cc-4d9c-9137-d0a5292f787b" d="M454.32,248.35c5.1-10.3,19.6-19.94,30.01-24.8.79-.37,2.76-.71,2.86-.82.26-.3.02-4.16.25-5.47,3.62-20.47,16.6-19.54,29.37-29.12,2.46-1.84,5.19-6.73,7.41-7.41,3.84-1.17,5.82,3.05,8.55,4.98,8.94,6.33,16.66,6.49,25.11,15.9.88.98,2.59,4.12,2.81,4.25.37.22,7.66.42,7.93.14.12-.12.03-2.41.31-3.39,4.99-17.8,14.52-17.14,26.81-26.31,2.94-2.2,5.95-7.44,9.76-6.85,2.88.45,5.93,4.59,9.07,6.4,10.21,5.88,19.78,6.2,26.29,18.08.79,1.45,2.2,6.38,2.47,6.6.47.38,3.54-.25,4.62.76,1.24-8.64,6.95-15.32,13.92-20.05,3.9-2.65,8.57-4.24,12.25-7.24,3.26-2.66,5.38-7.91,9.79-7.72,2.91.12,6.33,4.44,9.31,6.21,10.82,6.41,21.08,7.03,27.89,19.85.96,1.8,2.62,7.87,2.94,8.15.27.24,4.99.97,5.22.76.09-.08.23-1.71.56-2.44,5.45-11.84,14.05-12.98,22.64-20.41,2.28-1.97,3.75-4.76,5.71-6.39,5.73-4.76,8.91,1.87,13.68,4.51,13.03,7.22,23.76,7.14,30.07,23.72.5,1.31,1.22,6.05,1.44,6.29.15.17,4.05,1.28,4.27,1.26.58-.06,6.07-7.42,7.71-8.88,5.1-4.55,11.88-6.81,16.76-10.81,3.42-2.81,4.54-7.84,10.18-6.03,1.7.55,5.32,4.56,7.57,5.88,11.54,6.74,28.13,10.17,31.09,26.73.33,1.83.09,8.37.38,8.7.1.11,1.99.4,2.84.85,17.42,9.3,31.99,22.36,34.74,42.93.68,28.38,1.33,57.75-1.34,86.06-.82,2.27-2.2,3.55-3.36,5.38-1.31.42-1.84,1.37-2.04,2.69l.03,157.74c-.67,4.25-1.57,8.37-2.7,12.36v.67l-.21,2.53c-2.5,3.28-5.38,6.23-8.49,8.92-3.75,3.25-9.38,8.02-14.17,8.04-26.85,12.67-56.78,21.36-86.73,24.88-68.7,11.43-139.2,11.69-208.36,3.95-34.61-3.88-68.84-11.57-100.24-24.12l-1.69.7c-10.77-5.39-22.41-11.46-29.16-21.8l.59-1.76c-2.54-3.52-3.74-8.07-4.06-12.68-.25-45.85-.43-91.69-.52-137.54.19-2.44-.59-4.05-2.14-5.09-1.79-1.35-3.02-2.7-4.03-4.71-1.28-4.05-1.95-8.17-2.53-12.39-.72-26.8-1.35-53.83-.61-80.63.31-11.33,1.01-22.43,7.18-32.02Z"/>
  <path class="uuid-0e1c355e-71f5-4e05-a587-ae28708bbf7c" d="M909.48,532.07c.24-.34.94-.54,1.49-1.51,2.03-3.64,2.64-9.83,2.55-13.95,16.79,6.29,27.34,21.67,12.13,36.67-22.3,21.98-85.35,34.68-116.1,39.21-81.2,11.94-170.76,12.7-251.92-.02-29.01-4.54-101.49-19.05-119.73-42.3-12.75-16.25,1.65-29.48,17.08-34.23-.78,2.69,2.79,17.84,5.05,18.14.09.01.23-.45.33-.66.19-.53.42-.52.67,0,4.68,9.62,20.68,18.43,30.25,22.86,11.2,4.19,22.55,8.05,34.05,11.57l1.59,1.2c52.76,14.97,115.24,17.75,172.79,17.48,48.63-2.26,98.04-5.01,145.27-18.01,10.29-2.83,21.24-6.15,30.2-10.9-.21-.26-.37-.52-.36-.77.03-.65,10.61-5.08,11.79-5.28,9.26-5.29,16.57-10.71,22.86-19.5Z"/>
  <path class="uuid-4f7e7f85-828b-4d45-96a3-dd492af524d9" d="M914.19,358.61c-1.12,1.76-1.34.98-1.34,3.03v157.32c0,.6-.76,4.81-.97,5.75-.51,2.26-1.89,4.41-2.39,6.69-1.5-1.46.66-3.49,1.02-5.36s.87-3.77,1.02-5.71l-.06-158.73c-.27-.83,1.6-4.17,2.72-2.99Z"/>
  <path class="uuid-fb7f6292-16cc-48cc-96c6-4ed4fc341879" d="M450.29,373.4c-2.37-4.7-3.1-11.85-3.39-17.12-1.33-24.64-1.31-57.43,0-82.08.45-8.57,1.8-19.07,7.42-25.86-2.99,6.04-5.58,13.72-6.08,20.48-2.2,29.74,1.72,62.14,0,92.16l2.04,12.41Z"/>
  <path class="uuid-5e14090c-e240-4326-907c-6c7788b620c0" d="M461.04,533.42h-.67c-2.22-3.8-3.55-8.01-4.06-12.41l.06-139.23-2.06-3.66c.29.22,1.42.05,2.07.94,1.97,48.36-.86,97.37,1.45,145.81,1.01,2.82,1.9,5.89,3.2,8.56Z"/>
  <path class="uuid-b81f1a1a-87d5-4d88-9a19-c565caba00cb" d="M917.55,353.23l1.34-86.06c.25,1.9.59,4.5.7,6.36,1.14,19.85,1.26,48.17,0,67.96-.21,3.33-.93,8.65-2.05,11.74Z"/>
  <path class="uuid-cf0367b2-78a8-4e6a-a6cc-4261893c752e" d="M487.94,461.48c12.55,4.73,25.42,8.5,38.32,12.1,5.58,1.37,11.11,3.12,16.81,4.03,1.68-.12,3.35.04,5.01.29,9.96,1.5,20.42,3.15,30.29,4.99.15.03.25.36.34.77,25.84,3.38,52.74,5.63,80.68,6.72,14-.19,27.22-.42,39.67-.67-.3-.44,23.03-1.1,25.55-1.34,35.56-1.61,71.17-4.89,106.23-11.43,6.21-1.89,12.49-3.24,18.83-4.03,3.73-.64-.48,3.38-1.56,2.8-.55-.3.19-1.48.22,2.15.2,26.66-.4,53.45-4.56,79.81l36.95-13.15,1.22.99c-5.59,3.07-12.88,6.48-18.83,8.74-22.45,8.55-46.69,14.09-70.59,16.14-2.17.31-4.76.45-6.72,1.34-24.86,3.76-50.16,5.96-75.3,6.05-18.93.11-38.59.76-57.73-.11.96.01-13.53-.56-13.53-.56-10.74.14-21.49-.54-32.27-2.02-27.57-3.14-55.49-6.55-82.02-14.79-20.88-5.9-43.71-14.71-58.49-30.93-1.74-1.27-3.01-4.49-2.69-6.72-.1-24.71.11-49.44.63-74.18l.72-.45c6.41,5.31,15.23,10.09,22.86,13.45Z"/>
  <path class="uuid-9d4b720c-5ea1-4c22-9c15-f8f89df445a1" d="M708.46,355.92c-21.55-9.85-37.84,2.8-39.66,25.22-.83,10.24,2.39,32.38-13.69,31.88-18.14-.57-12.99-23.41-13.86-35.27s-5.47-20.42-16.65-24.36c-15.45-5.45-22.12,7.55-33.98,5.74-13.66-2.09-17.35-20.23-37.51-17.01-25.45,4.05-17.07,34.56-20.98,50.96-2.03,8.5-10.25,13.63-17.34,6.92-11.85-11.2,4.3-48.03-14.44-62.88-12.92-10.24-23.3.76-25.7,13.94-.9,4.91-.58,10.91-1.81,15.67-4.05,15.66-19.12,6.9-18.55-5.73,1.68-29.58-2.17-61.48.03-90.78,1.51-20.09,16.34-32.67,33.88-39.93,5.82,11.22,16.99,19.48,29.99,19.42-5.88,6.33-12.18,11.66-13.96,20.66-9.51,47.95,89.59,47.49,78.99.7-1.69-7.45-6.93-15.45-13.32-19.63-2.17-1.42-15.44-7.24-15.39-8.8,9.13-6.18,12.93-18.83,9.4-29.24.96.17,4.34-.3,4.68.03.21.21.69,4.37,1.25,5.81,2.53,6.55,8.41,10.85,14.68,13.56,21.36,9.24,59.52,4.51,60.08-24.78,4.31-.91,3.36,4.09,4.37,7.4,6.86,22.62,54.61,24.26,68.59,8.75,3.61-4,6.99-10.69,6.38-16.15h4.04c-1.16,18.45,15.23,28.46,31.9,29.62,16.32,1.14,37.08-3.06,42.56-20.71.6-1.92-.86-3.69,2.46-2.8.79.21.77.65.78,1.32.03,2.57-1.19,5.44-1.07,8.35.21,5,3.25,11.91,6.7,15.52,1.98,2.07,5.06,3.19,6.73,4.7.45.41,1.14,1,.69,1.64-.33.48-8.72,4.5-10.29,5.52-5.43,3.54-9.47,7.36-13.24,12.64-4.27,6.94-5.06,14.61-3.26,22.44-3.33,2.2-4.74,4.47-4.23,6.8l-1.24,1.01c-1.37.57-2.89-.33-4.54-2.69l-1.51-.67c.13,4.53-.99,6.54-3.37,6.05l-.91-2.1c3.09-13.31-4.27-24.64-16.19-30.22-5.95-2.54-11.01-4.81-15.91-9.17-5.85-7.65-8.63-10.77-13.32-.22-5.09,4.45-10.84,8.19-17.25,11.22-21.52,15.58-17.6,43.12,9.26,48.12.88.45.72,1.25-.14,1.87,9.55,2.98,24.58,2.71,36.42-1.43.62.79.62,1.76.61,2.71,4.26-.55,10.88-1.38,14.06,1.41,1.12,1.75-3.31,4.31-4.76,4.51l-8.63-1.21c-1.26,1.85-3.62,2.05-7.08.59-7.31.95-14.5,1.19-21.58.71,3.39.69.79,6.9-2.71,7.21-4.32-1.84-10.14-3.45-2.79,1.57,4.33-4.41,4.68,4.74,1.85,5.9-1.71.7-5.69-2.6-6.03-4.4-2.43,3.43-4.28,2.36-7.38.53-4.97,1.61-7.68.92-8.15-2.08-2.16,1.38-4.5.95-6.36-.69l-.25,1.71c3.74,1.89,3.11,6.75-1.23,6.67l-.78,2.34c3.07,2.26,2.7,4.64,2.03,8.11,2.99-.38,9.02,2.51,8.63,5.48Z"/>
  <path class="uuid-cf0367b2-78a8-4e6a-a6cc-4261893c752e" d="M496.68,343.15c2.63,3.15,4.39,5.99,5.38,10.08,1.04,2.34,2.01,5.83,1.34,8.4.58,10.07.57,21.46,0,31.6,1.29,1.23,2.04,4.29,2.02,6.39,6.03,13.96,25.36,14.67,31.73.47,6.31-14.07-1.12-35.28,9.29-46.52,3.71-4.01,8.4-4.93,13.71-4.3,7.75.92,12.46,8.37,18.56,12.03,9.4,7.89,20.01,4.8,29.71-.53,7.91-3.61,16.79-1.87,22.06,5.23.23.42,1.22,2.38,1.34,2.69l1.81,3.99c1.11,10.07,1.62,20.17,1.55,30.3,1.15,6.55,2.81,9.77,8.07,13.45,8.97,5.38,19.81,4.82,26.89-3.36.83-1.09,2.18-2.84,2.69-4.03.7-3.95,1.59-7.65,2.69-11.09-.64-4.76-.47-11.03,0-16.14-.29-3.2,1.19-7.57,2.69-10.42.79-.14,4.18-8.05,11.56-10.29,15.29-4.63,17.83,6.94,29.45,10.62,20.85,6.59,27.11-17.13,43.32-16.49,16.57.65,11.75,26.15,30.29,24.23,15.86-1.65,14.2-23.92,30.63-20.54,3.15.65,4.98,2.6,7.36,4.41,2.15,1.45,3.83,5.3,3.36,7.73.64,6.71.76,14.62.58,21.74,0,.15-.26.3-.58.45l.61-.03,2.08,7.09c4.69,7.71,16.52,9.16,24.2,5.38,1.13,2.07-3.21,5-4.37,2.69-.86,2.18-8.69,2.09-9.75,0,.53.13,1.33.34,1.37.74.3,2.9,1.1,19.38.62,21.09l-1.32,1.02c-9.02,3.03-18.73,5.61-28.24,6.05l-28.91,4.71c-15.41,2.36-31.1,3.71-47.06,4.03-9.78,1.16-19.73,1.66-29.58,1.34-17.19-.15-34.67-.37-52.44-.67-23.16-.72-46.02-1.84-68.58-3.36-17.63-.84-35.12-4.04-52.44-7.4-17.71-3.15-34.74-8.31-51.1-15.46-10-4.52-16.86-9.43-24.2-17.48-2.61-3.37-3.28-7.63-2.02-12.77,1.56-1.12.16-6.91.67-7.4.17-.17,3.45,0,4.75-.29,1.94-.45,3.11-1.29,4.67-2.39,4.07-3.9,6.83-8.47,7.2-14.18-.16-8.4,1.91-33.23,16.04-23.49.17.12.25.38.3.68Z"/>
  <path class="uuid-228b5eb9-877f-4398-9794-b30b2247595d" d="M846.96,439.29c.52,0,1.33.13,1.34.45.4,7.64.4,17.33,0,24.98l-1.34.79c-61.87,16.37-129.55,18.11-193.3,16.14-49.77-1.54-116.52-6.47-162.14-26.79-6.48-2.89-27.79-13.93-27.79-21.96v-19.16c1.03-.22,1.58.23,2.4.63,3.86,1.87,8.91,6.5,13.28,8.9,44.11,24.27,121.47,29.13,171.59,30.78,63.01,2.07,134.59.21,195.96-14.76Z"/>
  <path class="uuid-0cc571d3-9bdd-4654-9e06-e2238cb57ddc" d="M906.8,253.73c3.22,5.51,4.93,10.69,5.4,17.12,1.73,23.45-1.36,48.98,0,72.66-.52,6.03-3.84,15.22-11.49,12.78-5.11-1.63-6.07-15.17-8.44-19.8-6.15-12.01-18.33-7.96-24.35,1.73-8.58,13.8-4.24,31.56-5.58,46.86-.79,8.94-2.85,16.2-13.54,14.38-10.39-1.77-6.65-17.97-7.23-25.71-1.02-13.59-9.19-24.06-23.87-22.53s-15.25,20.98-26.22,20.9c-7.84-.05-8.44-9.4-11.87-14.4-5.33-7.77-14.25-11.34-23.43-8.87-15.68,4.22-21.99,24.96-40.95,12.74-2.19-1.41-4.65-4.1-6.77-5.67-.84-.62-5.5-3.93-5.85-4.01-1.29-.29-2.88.12-4.23-.03-.22-.22.82-5.2.54-6.24-.36-1.34-2.47-1.84-2.43-3.37,0-.25,1.11-3.71,1.27-3.82.21-.14,3.55,1.44,3.09-2.38-.14-1.18-2.2-1.43-2.4-1.77-.34-.59.86-3.35-.08-4.59,2.64-.23,2.76,2.26,5.71,2.08,1.8-.11,4.95-3.57,5.71-2.76,1.24,1.32-2.82,3.1-2.01,4.7,2.26.64,5.06-.91,7-.67,1.28.16,2.92,1.93,4.11,1.79.83-.09,1.53-1.71,2.33-2.14,2.66-1.42,1.64.69,2.65,2.05.39.52,3.66,2.77,4.08,2.33l.67-4.7c-2.33-.36-.34,1.72-2.88,1.23-.91-.18-3.51-2.63-4.31-3.49-.39-.42.18-1.44-1.01-2-2.32-1.1-2.81.77-4.1.76-.2,0-3.69-1.06-3.82-1.22-.94-1.16,2.97-2.79,3.35-3.69l-2.99.34-1.02-2.02c1.43.11,2.55-.63,3.99-.3,3.34.76,1.38,2.49,1.49,3.34.17,1.26,2.18.53,3.05.86,3.8,1.42,2.9,1.87,7.11,2.31.54.06,1.13,1.01,1.52,1.03,1,.05,5.06-4.9,1.66-4.89-2.6,5.61-1.93,2.4-3.64.99-.89-.73-2.35-.57-3.06-1.65,2.28-3.69,6.4-.12,6.7-.35.07-.05-.12-.95.16-1.14,1.44-1.01,4.66.38,6.25.34,5.59-.15,12.64-1.96,18.11-1.17,1.11.16,2.06,1.47,2.72,1.32.61-.14.78-1.65,1.15-1.88,1.34-.81,8.12,1.06,10.22,1.04l4.45-3.2c.38-1.28.96-1.28,1.34,0,1.48.46,3.05.46,4.71,0l2.43-1.21c21.16-3.33,42.31-6.52,63.46-9.55,2.35-2.13,8.18-4.55,11.43-4.03,3.51-2.47,7.1-3.81,10.76-4.03l.87-1.87c17.66-8.34,36.97-23.89,34.24-45.55.61-2.13,1.91-1.79,3.88,1.03Z"/>
  <path class="uuid-f8e8798d-8a50-45e0-9918-d598def69b03" d="M904.11,526.02c-.56.1-4.72,7.21-6.72,9.08-3.92,3.68-10.7,7.8-15.47,10.41l-39.66,14.11c4.17-28.14,5.18-56.51,4.66-84.97l3.16-.99-.43-.77c11.64-4.04,23.3-8.07,34.96-12.1,7.49-3.51,14.4-8.3,20.84-13.45.51,24.03.62,48.14.34,72.33-.15,2.03-.44,4.93-1.68,6.33Z"/>
  <path class="uuid-b9887bef-c0b6-413c-b1d2-cdecee6dd340" d="M905.45,364.66c.59,12.34.61,25.29,0,37.65-8.36,12.73-29.89,21.32-43.7,25.55-4.64,1.79-9.34,2.91-14.12,3.36l-.67-22.86h9.75c1.35,0,3.42-1.83,4.37-2.69,2.77-2.52,5.71-7.14,6.72-10.76-.22-.68-.16-1.37-.09-2.06.36-3.61.94-8.46,2.11-11.39l.33.35-.05-20.9c.48-5.3,1.14-10.56,2.41-15.75-.48-.85.41-2.48,1.34-2.69,12.68-13.54,12.04,3.33,14.45,11.43,2.37,7.95,9,11.72,17.15,10.76Z"/>
  <path class="uuid-c797d832-7ebe-4621-9e34-ae73b4f8eafe" d="M853.68,294.07v-1.68c10.16-5.94,2.4-16.98-3.39-23.22-2.22-2.39-11.28-11.1-13.68-12.01-.56-.21,3.97,9.64,5.63,9.9,13.08,8.81,17.33,22.88-.4,29.15,1.98-.38,3.24.02,3.78,1.22-17.24,3.98-55.33-.58-46.24-26.41,5.14-14.61,21.62-15.02,29.77-26.69,8.28,10.65,27.42,10.45,33.4,23.06,4.21,8.88.67,23-8.86,26.68Z"/>
  <path class="uuid-e1f54952-21c0-452a-9665-0327dc95a60a" d="M574.67,286c-2.03-.41-2.04-2.63-.04-6.68l.04-3.68c-2.36.09-4.49-.46-6.37-1.65-1.75-2.6-16.49-18.75-17.81-18.35s2.51,9.38,4.09,9.98c10.48,10.47,16.88,18.97,1.8,29.13-2.96.94-3.81,2.06-2.56,3.35-17.1,3.49-50.1-4.13-42.21-27.75,5.21-15.59,21.71-17.76,33.47-26.41,7.57,10.12,22.37,11.19,28.79,22.35,3.85,6.69,4.29,12.81.79,19.72Z"/>
  <path class="uuid-c797d832-7ebe-4621-9e34-ae73b4f8eafe" d="M555.17,232.21l-1.24-.78,1.38-8.9c-3.52-1.19-6.6-3.37-9.24-6.52-4.55-5.14-23.27-24.97-12.29-5.51,3.3,3.06,6.76,5.97,10.38,8.74,4.17,3.27,6.37,11.28,1.6,14.31-4.34-.88-5.05,3.04-7.75,5.36-7.99,6.89-24.06,4.65-32.8-.11-10.06-5.47-13.91-14.91-9.1-25.66,5.89-13.18,20.41-13.09,29.24-23.25,6.83,6.23,16.88,7.44,23.78,13.06,8.04,6.55,11.91,20.08,6.04,29.25Z"/>
  <path class="uuid-c797d832-7ebe-4621-9e34-ae73b4f8eafe" d="M871.83,230.2c-2.01.34-1.87-1.33-1.44-2.99l1.47-4.37c-.77-1.74-.97-3.31-.61-4.72l-8.44-2.19-15.2-13.45c2.57,6.24,6.76,11.71,12.56,16.41,10.16,12.13,3.03,16.29-8.82,21.24l.31,1.5c-5.12,1.07-10.55,2.59-15.13-.67-2.76-1.97-5.49-9-10-5.99-3.29,2.19-.72,6.87-8.42.89-9.8-7.61-8.15-20.16-.71-28.83,4.57-5.32,11.91-8.55,17.68-12.57,1.41-.98,2.61-2.79,4.02-3.43,1.87-.86,6.82,3.42,9.19,4.58,3.99,1.95,8.43,3.03,12.36,5.12,11.46,6.08,17.51,17.02,11.19,29.49Z"/>
  <path class="uuid-44bb6a09-fa2f-46e9-bd36-6110a98b6643" d="M714.51,215.41c-.84-1.53-.76-3.45.24-5.75-.34,0-.62-.03-.68-.16-2.98-6.73-8.9-13.86-14.84-18.37-5.32-4.04-13.12-8.36-5.42.89,14.54,13.19,24.31,26.67-2.37,33.52l.21,1.29c-16.46,2.24-44.26-5.8-35.96-27.56,4.98-13.05,19.7-13.92,27.6-24.21,14.61,9.46,37.04,12.25,33.73,35.11-.45,3.12-1.2,3.21-2.51,5.22Z"/>
  <path class="uuid-43ddd5a4-efb3-4988-b581-613d6fe97d85" d="M906.8,253.73l-2.68-2.02c3.86,22.86-17.71,40.16-36.31,48.41-6.4,1.43-5.59-1.17-3.36-5.38,12.97-16.55,6.51-38.66-13.44-45.05l11.42-3.35c7.97.21,21.21.5,25.82-8.28-.98-1.34-.5-2.39,1.07-1.81,7.43,5.14,12.83,9.53,17.48,17.48Z"/>
  <path class="uuid-44bb6a09-fa2f-46e9-bd36-6110a98b6643" d="M636.52,215.41c-.8.93-1.57.92-1.9-.26.31-.76,1.24-12.37-.7-9.02-.64,4.57-3.09,3.11-4.48-.3-3.21-3.63-15.24-15.68-18.9-17.01-1.04-.38,5.22,12.23,7.07,12.2,14.31,9.07,14.66,21.66-3.2,25.8,1.5.04,2.14.62,1.27,2.04-16.05,3.26-46.81-3.06-39.86-25.4,4.62-14.86,19.29-15.08,28.43-25.4,6.08,5.25,13.74,7,20.39,10.59,9.76,5.27,15.4,15.83,11.89,26.77Z"/>
  <path class="uuid-44bb6a09-fa2f-46e9-bd36-6110a98b6643" d="M793.17,220.11l-1.17-1,1.88-9.55c.51-2.12-.76-3.12-3.81-3-.69-2.52-20.74-16.63-20.73-15.07.04,3.54,9.06,11.99,12.62,13.89,9.81,9.26,5.18,17.74-5.99,22.12,1.52,0,1.97.75,1.07,2.02-14.85,4.09-43.57-1.58-42.08-21.52,1.21-16.19,19.2-18.39,27.63-29.57,5.39,6.77,14.55,7.3,21.4,11.54,9.93,6.15,16.07,19.51,9.2,30.14Z"/>
  <path class="uuid-a5fb0c59-fa50-4ec9-952f-6c836f961fef" d="M846.96,439.29c15.51-3.78,31.03-8.83,45.06-16.46,4.52-2.46,8.62-5.83,13.43-7.75v17.14c0,7.29-12.08,15.23-17.82,18.48-12.88,7.3-26.52,11.05-40.67,14.8v-26.22Z"/>
  <path class="uuid-809311a4-5888-4c3a-a312-418ef5f4faf8" d="M853.68,302.81l-.86,1.91c-2.88.75-5.28,1.91-7.21,3.47-21.56,5.43-43.86,7.99-65.89,10.76-2.44,1.15-4.01,1.15-4.71,0-.45,0-.9,0-1.34,0-4.2-.06-7.52-.89-11.69-.48-3.57.35-3.62,3.88-3.78-2.88-.88-.64-9.22,2.79-10.68,2.99-7.96,1.11-17.61-.52-25.63-1.66.1-.29.67-.55.68-.66l2.22-1c11.46,1.72,23.49,1.67,34.37-2.75l2.41.4c7.79-2.06,20.46-5.53,23.19-14.06-.2-2.49.36-4.08,1.69-4.76.05-1.13-.71-2.06-.33-3.32,1.3-4.3,5.78-3.04,5.02-7.73-.48-2.99-1.27-2.73-.68-6.73.78-5.35,1.7-8.23,4.73-12.48-14.49,31.42,16.85,44.52,43.35,42.35,5.16-.42,10.1-2.4,15.14-3.35Z"/>
  <path class="uuid-6038366f-9b33-481c-aa41-c0113fa1aae1" d="M553.82,298.1l-5.37-1.34c7.05-2.25,15.94-7.16,15.49-15.78-.38-7.18-14.85-14.88-14.87-24.23,0-.8.17-3.04,1.06-3.01.74.03,9.85,8.42,11.11,9.72,1.87,1.92,6.76,8.9,8.35,9.81,4.21,2.42,7.52-1.77,6.37,6.29-.29,2.07-2.32,4.55-1.29,6.44-3.69,7.27-13.32,10.65-20.84,12.1Z"/>
  <path class="uuid-6038366f-9b33-481c-aa41-c0113fa1aae1" d="M691.65,226.84l-4.03-1.34c1.15-.08,2.03-.91,3.13-1.15,2.13-.47,4.14-.86,6.74-2.1,25.58-12.13-6.54-23.27-9.2-37.77,7.63,1.08,14.95,7.68,19.84,13.43,2.59,3.05,5.61,6.79,6.39,10.76,1.51-.2.35-3.61.04-4.41-.88-2.25-2.29-2.11-3.4-3.64l4.7-.02c1.32,5.33.45,9.76-1.34,14.8-5.63,8.57-13.02,10.4-22.86,11.43Z"/>
  <path class="uuid-110f83ed-b2fb-4837-a497-88c231348ad5" d="M615.68,228.85c-.06,0,.05-.64-1-.65l-5.72-.68c5.86-3.07,18.62-4.27,17.85-12.82-.63-6.97-6.04-8.75-10.14-12.72s-7.94-10.25-7.71-16.15c7.12,5.76,15.68,12.1,21.51,19.15.73.88,1.24,1.88,1.35,3.03,1.6.05-.15-2.5-.01-2.68.2-.27,3.3-.97,4.08-.4,1.62,1.18.2,7.53-.04,9.46-.13,1.06.67.96.67,1.02-.69,6.38-15.09,13.31-20.84,13.45Z"/>
  <path class="uuid-6038366f-9b33-481c-aa41-c0113fa1aae1" d="M777.04,229.52c-.06,0,.04-.78-1.03-.68-1.84.17-3.45.62-5.32.72-.79.04-3.73.47-3.73-.7,1.38.05,2.71.1,4.06-.31.7-.21,11-5.84,11.73-6.42,4.76-3.8,3.58-9.92,0-14.12-1.99-2.33-4.36-3.17-6.4-5.03-4.62-4.22-7.8-8.25-9.4-14.46.51-.48,10.21,5.62,11.37,6.44,2.35,1.66,5.97,4.32,7.97,5.9.97.77,3.92,4.44,4.83,4.77,2.17.8,3.85-2.69,4.1,4.03l-2.04,10.45c-3.03,4.68-10.64,8.79-16.14,9.41Z"/>
  <path class="uuid-b5622122-0c79-44fa-833e-09b154df7b3d" d="M851.66,241.63l-4.03-1.01c4.67-3.25,16.67-5.54,16.11-12.69-.72-9.14-19.41-17.01-17.45-28.66l17.52,15.78c1.37-.13,9.09,1.99,9.37,2.38.47.65-1.11,1.88-1.11,2.34,0,.42,1.1,1.3,1.15,2.66.1,2.64-2.66,5.41-1.39,7.77-3.53,6.95-12.99,9.92-20.17,11.43Z"/>
  <path class="uuid-110f83ed-b2fb-4837-a497-88c231348ad5" d="M853.68,294.07c-2.87,2.15-4.52,2.54-8.07,3.36l-10.75.67,8.74-4.24c2.98.25,8.03-5.7,8.58-8.34,2.05-9.87-8.57-13.66-13.17-20.14-2.28-3.2-4.22-7.62-4.15-11.65,8.06,7.09,22.41,17.14,24.7,28.07,1.38,6.61-.68,8.38-5.88,12.27Z"/>
  <path class="uuid-110f83ed-b2fb-4837-a497-88c231348ad5" d="M545.76,233.56c-.12-.27,1.35-4.45,1.35-5.72,0-7.65-10.28-11.3-14.4-16.52-1.28-1.62-5.67-11.36-5.1-12.04,1.03-1.22,1.42,1.21,1.81,1.33,1.02.3,1.83-.16,3.27.64,5.63,3.14,15.22,16.63,21.85,19.87.73.36,1.87-.42,2.33.32l-1.7,10.78c-.72,1.12-4.88,5.33-5.72,5.32-.27,0-3.59-3.73-3.69-3.98Z"/>
  <path class="uuid-1222aa45-aa68-42a1-96f6-69ec1693c5c2" d="M799.9,576.45c.55.02.82.07.67.67l-4.05,1.37c-32.05,4.52-64.44,7.36-96.8,7.37-1.91.56-4.16.64-6.05,0h-29.58c-45.91-.23-92.79-4.64-137.15-16.81-11.88-3.3-24.45-7.6-35.63-12.77.66-1.41,2.07-.25,2.93.1,26.14,10.48,49.61,16.35,77.53,20.63,73.52,11.29,154.62,10.91,228.14-.56Z"/>
  <path class="uuid-eb7266c9-ecfb-4633-a5d3-86db3370a2e0" d="M889.31,236.25c-1.45.31.72,1.04.36,2.01-.74,2-4.99,6.38-7.05,7.1-3.04,1.07-15.11,2.99-18.08,2.55-1.19-.17-2.53.19-2.12-1.58,7.33-4.37,13.41-7.91,17.13-16.07,3.5,1.64,6.6,3.8,9.76,5.98Z"/>
  <path class="uuid-26e969c9-a668-4e0b-9d5d-7f6b9fd2ee6f" d="M785.78,571.74l2.01.67c-43.26,5.32-87.1,8.01-130.79,6.76-16.62-.47-33.77-1.99-50.06-4.06,10.67.89,21.56,1.79,32.27,2.02,2.12-.53,23.36.82,28.6.97,8.74.21,18.69,0,27.76-.28q.15,0,1,.13c5.08-.28,9.31-.31,13.9-.15,25.2-.93,50.3-2.98,75.3-6.05Z"/>
  <path class="uuid-87fe4900-2f82-4398-af5c-20bc0cc5cab1" d="M649.29,446.69l8.07.67c1.32-.55,2.69-.52,4.03,0,17.46-.36,34.99-.48,52.44,0,9.88-.19,19.72-.74,29.58-1.34.59.19.58.42,0,.67-38.96,2.42-77.36,2.26-116.31,0-.43-.33-.2-.56.67-.67,7.14-.29,14.31-.06,21.51.67Z"/>
  <path class="uuid-30e8f073-a057-43bb-9f71-a491041b2fc2" d="M830.82,476.27c-36.8,7.53-76.08,10.24-113.62,11.43-46.35,1.47-91.82.54-137.83-5.38-1.71.52-1.78,1.09,0,1.34,24.33,3.69,50.17,5.88,75.3,5.38,3.79.2,7.6.42,11.43.67,10.96.68,21.98.45,32.94,0,1.28-.21,2.76-.37,3.9-.38,4.82-.05,9.45-.27,14.26-.29.58-.26,4.93-.13,7.4-.67,33.77.01,73.13-4.73,106.23-11.43.58-.26.59-.48,0-.67Z"/>
  <path class="uuid-392fa0a7-9893-4970-9528-7abd75c916ef" d="M886.63,551.57c-1.64.94-11.29,5.26-11.43,6.05-11.16,5.55-23.3,9.12-35.34,12.28-12.75,3.36-26.25,6.53-39.29,7.21l-.67-.67c29.91-4.67,56.79-11.43,84.03-24.55.68-.33,2.3-1.68,2.7-.33Z"/>
  <path class="uuid-84c5b6c7-86d5-4f04-91f3-2a5e7d7e1aa6" d="M592.82,443.32c11.64.17,23.43,1.07,34.96,2.69l-.67.67c-29.18-1.7-58.25-3.96-86.73-10.76,17.26,3.04,34.95,5.53,52.44,7.4Z"/>
  <path class="uuid-87fe4900-2f82-4398-af5c-20bc0cc5cab1" d="M524.91,560.31c26.45,7.48,54.83,11.34,82.02,14.79-27.87-2.33-55.44-6.82-82.45-14.03l.43-.76Z"/>
  <path class="uuid-dfbdacf9-92be-4954-b78d-52835ab0b9b5" d="M863.09,554.26c1.69.65-.74,1.01-1.18,1.16-20.51,6.92-44.26,13.09-65.81,15.57-1.1.13-2.92.55-3.6-.59,22.98-3.27,48.92-7.9,70.59-16.14Z"/>
  <path class="uuid-7a31d2a0-35f9-4dcb-9869-31cb6c15abbe" d="M873.85,342.48c-.4.91-1,1.76-1.34,2.69-2.26,11.97-3.16,24.08-2.69,36.31-1.21,4.26-.81,9.17-2.02,13.45-1.75-1.91.67-6.34.67-8.4v-27.57c0-2.56,2.8-16.25,5.05-17.13.2-.08.41.35.33.66Z"/>
  <path class="uuid-ade15077-a07a-42cf-b2c7-20c897d6f914" d="M905.45,447.36c1.06,0,.63,1.54.68,2.35,1.35,23.31-1.04,47.85.02,71.3.05.91-1.1,5.43-1.38,5.69-.44.4-.62-.68-.66-.67l1.37-6.36-.02-72.3Z"/>
  <path class="uuid-43ddd5a4-efb3-4988-b581-613d6fe97d85" d="M861.75,298.1c.87-1.97,2.24,1.46,1.49,2.69l-6.2,3.36c-3.45,2.04-7.56,3.06-11.43,4.03.27-2.18-.64-1.13-1.91-.91-1.45.25-6.71,2.27-6.15-.43,5.7.24,11.18-1.37,16.13-4.04,1.75-.94,6.78-3.72,8.07-4.71Z"/>
  <path class="uuid-97331e79-7bba-4264-9e88-1f71c7e2cf64" d="M630.47,366.01c-2.14-1.54-3.81-3.66-6.27-4.83-12.8-6.08-19.59,5-31.03,5.53-4.89.23-11.34-1.54-14.47-5.41,19.56,11.73,24.95-4.27,40.01-2.69,5,.52,9.41,3.1,11.76,7.4Z"/>
  <path class="uuid-75e450f1-ad36-487a-96a0-5a042473a970" d="M884.61,460.81c-9.98,4.67-24.25,9.31-34.96,12.1-5.91,1.54-12.77,2.81-18.83,4.03v-.67c17.31-3.54,34.51-8.78,50.86-15.37.86-.35,2.27-1.51,2.93-.1Z"/>
  <path class="uuid-eb813db4-129c-4960-a30f-7fe6d274953a" d="M463.06,519.97v-73.96l.53.12c-.39,24.67-.56,49.28-.53,73.84Z"/>
  <path class="uuid-aa11d3fc-3066-4d77-943b-2bcc5852e463" d="M540.38,435.93c-16.28-2.87-32.25-7.3-47.73-13.12l-3.37-2.34c15.6,7.06,34.53,11.51,51.1,15.46Z"/>
  <path class="uuid-986f0a41-3075-4a0e-aeb1-83d15ad6b050" d="M464.4,446.69c-1.11.7-.67,2.55-.68,3.69-.24,22.47-1.15,47.36.01,69.6h-.67v-73.96c1.26-.33,1.07.36,1.34.67Z"/>
  <path class="uuid-c2e7fae9-37b3-44fe-83e1-0b0b014ae17d" d="M496.68,343.15c-8.79-5.34-13.07-.02-14.62,8.58-1.83,10.18,1.14,21.29-8.91,28.4l4.59-6.51c5.41-8.82-1.54-37.27,16.27-32.84.62.15,2.27.99,2.73,1.41.7.63-.09.92-.06.96Z"/>
  <path class="uuid-bc1e7f16-d621-4d83-a48c-5cabf5cef86a" d="M790.48,441.98c.74.03,2.19-.46,2.01.67-13.58.98-27.1,3.07-40.68,4.03-2.78.2-5.62-.17-8.4,0v-.67c7.03-.43,14.15-.75,21.17-1.35,7.96-.68,18.19-2.97,25.89-2.69Z"/>
  <path class="uuid-e2332db3-3e04-4b9c-8f2d-5ec65fe11ba8" d="M861.75,427.86l-6.58,2.5c-10.73,2.31-21.4,5.79-32.27,7.41-1.07.16-2.84.71-3.51-.5,9.54-1.4,18.91-3.71,28.24-6.05,4.5-1.13,9.77-2.03,14.12-3.36Z"/>
  <path class="uuid-dfbdacf9-92be-4954-b78d-52835ab0b9b5" d="M487.94,461.48l38.32,12.1c-13.25-3.26-25.78-6.59-38.32-12.1Z"/>
  <path class="uuid-44a4ea1e-438e-4596-9dfe-f7014a91337f" d="M505.42,399.62c-.32-.73-2.02-6.05-2.02-6.39v-31.6c0-1.19-.99-6.93-1.34-8.4,0-.91-.3-1.55.67-1.34-.37,2.02,1.35,5.5,1.35,7.06v32.94c0,1.94,2.87,6.02,1.34,7.73Z"/>
  <path class="uuid-feb29e8d-76d1-404b-ae58-b021b7e13d12" d="M836.87,400.3c-.64-1.06-2.69-6.2-2.69-7.06v-22.19c0-2.06-2.06-6-3.36-7.73.03.02.38-.51.68-.31,1.48.97,3.05,4.96,3.3,6.76,1.12,8.05-.52,16.55.79,24.76l1.29,5.77Z"/>
  <path class="uuid-8471a7cd-490f-4ebb-81ff-5072bc1841d7" d="M579.37,482.32v1.34c-.13.58-.35.56-.67,0l-35.63-6.05c4.36-1.36,10.15,1.09,14.64,1.84,7.18,1.19,14.46,1.94,21.67,2.87Z"/>
  <path class="uuid-d20f7336-675c-4f90-9522-4bb5225d55ba" d="M678.2,371.39c-.48,2.86-2.69,7.76-2.69,10.42v16.14c0,1.85-1.86,9.16-2.69,11.09l2.02-14.46v-13.45c0-.81,2.3-10.06,2.7-10.42.44-.4.62.68.66.67Z"/>
  <path class="uuid-87fe4900-2f82-4398-af5c-20bc0cc5cab1" d="M670.14,413.07c-6.89,9.03-17.96,9.61-26.89,3.36,6.5,3.2,14.67,4.17,21.32.81l5.57-4.17Z"/>
  <path class="uuid-ed993cad-7107-46ca-9cc9-a70b16d90a9c" d="M635.17,402.98c-2-11.34,1.02-23.12-3.36-34.29l2.23,3.48c2.01,7.77.75,15.84,1.1,23.77.1,2.24,1.69,5.12.03,7.03Z"/>
  <path class="uuid-44a4ea1e-438e-4596-9dfe-f7014a91337f" d="M905.45,402.31v-37.65l.69.97.02,35.07c.22.87-.43,1.17-.71,1.61Z"/>
  <path class="uuid-809311a4-5888-4c3a-a312-418ef5f4faf8" d="M867.8,300.12c-3.52,1.56-6.94,3.26-10.76,4.03.68-.4,4.85-3.59,5.06-4.04.25-.53.46-1.01.3-1.62l-.65-.39c.63-.49,2.05-2.55,2.69-3.36,1.86.97-1.34,2.64-1.33,3.03.04,1.56,3.45,2.18,4.69,2.35Z"/>
  <path class="uuid-286667f4-15e3-4dfb-a590-d00421ddc1ce" d="M463.06,390.21c.07,4.56-.81,8.85,2.02,12.77-.03-.04-.41.7-.96.06-.25-.29-1.73-2.91-1.73-3.08v-17.14h.67c.04,2.46-.03,4.94,0,7.4Z"/>
  <path class="uuid-eb813db4-129c-4960-a30f-7fe6d274953a" d="M463.73,522.66c.38,2.44,1.61,4.57,2.69,6.72-.03-.04-.41.69-.96.06-1.03-1.19-3.23-5.93-1.73-7.45.02.22-.03.45,0,.67Z"/>
  <path class="uuid-180ce1cd-83d3-46c6-8aff-25b71744ab32" d="M875.2,557.62c-.22,1.27-4.56,2.81-7.22,3.88-48.55,19.39-116.16,23.66-168.26,25.03-.59-.19-.58-.42,0-.67,33.63-.69,67.65-3.52,100.85-8.74,25.49-4.01,50.72-9.74,74.63-19.5Z"/>
  <path class="uuid-82e5645e-f3db-474c-86d9-d66bfc36d21e" d="M526.93,569.05c41.29,11.47,94.19,15.95,137.15,16.81h29.58c2.01-.03,4.04.04,6.05,0v.67c-57.92,1.53-116.83-2.67-173.22-16.72l.43-.76Z"/>
  <path class="uuid-240c5705-26cc-4d9c-9137-d0a5292f787b" d="M777.04,296.76c.9,3.36-3.21,8.08-5.65,10.59-2.66,2.75-5.77,5.67-9.82,5.54-11.86,5.65-26.32,5.54-38.99,3.36.03-.32,0-.53-.34-.66-26.77-4.56-32.05-33.05-11.03-49.37,5.04-3.91,13.43-6.73,17.75-11.16,1.85-1.9,3.81-7.4,5.51-7.93,5.34-1.64,7.84,4.68,10.94,7.62,5.49,5.2,11.94,6.36,18.12,10.12,12.03,7.31,16.94,17.94,13.5,31.88Z"/>
  <path class="uuid-240c5705-26cc-4d9c-9137-d0a5292f787b" d="M637,247.14c4.87-1.46,7.91,6.23,11.67,8.9,11.76,8.36,23.96,6.53,29.73,24.06,17.79,54.04-97.35,49.76-76.3-1.29,5.75-13.95,19.63-15.24,28.69-23.75,2.21-2.08,4.34-7.35,6.21-7.91Z"/>
  <path class="uuid-b6c7abef-148c-4e39-8457-96f44e075876" d="M612.99,317.59c-13.08,1.75-27.01-1.91-40.1-3.93-4.61-.71-11.51-.43-15.52-2.62-.78-.43-1.13.02-.86-1.5,7.21-1.1,14.55-.69,21.77.08,8.05.85,24.09,2.74,31.38,4.92,1.46.44,3.47,1.11,3.32,3.06Z"/>
  <path class="uuid-1baa35d3-c48f-429f-971d-5a17b04b11d0" d="M501.38,292.05c-6.82.83-13.55-2.55-19.29-5.92-4.59-2.68-16.98-12.47-18.02-17.55-.15-.75.34-1.35.34-2.08,1.48-1.12,11.96,9.33,13.79,10.74,2.39,1.83,5.84,4.18,8.44,5.67,3.55,2.04,11.07,4.35,13.38,6.12,1.13.87,1.57,1.52,1.36,3.01Z"/>
  <path class="uuid-0cc571d3-9bdd-4654-9e06-e2238cb57ddc" d="M777.04,296.76c.09-.18.85-.34,1.33-1.67.64-1.75.72-3.88.68-5.73,3.71-.61,4.96,2.74,7.39,4.71-.19,4.59.04,6.26-3.09,10.02-3.36,4.04-13.26,8.04-18.45,9.16-1.31.28-2.15.54-3.35-.36,7.33-3.49,11.78-9.11,15.46-16.14Z"/>
  <rect class="uuid-0cc571d3-9bdd-4654-9e06-e2238cb57ddc" x="706.45" y="322.98" width="3.35" height="1.34"/>
  <path class="uuid-9d4b720c-5ea1-4c22-9c15-f8f89df445a1" d="M779.73,318.94c-2.65,1.02-2.81,3.27-3.03,3.37-1.46.66-1.23-2.76-1.67-3.37,1.07-.01,3.1-1.05,4.71,0Z"/>
  <path class="uuid-9d4b720c-5ea1-4c22-9c15-f8f89df445a1" d="M705.77,337.77c.54,1.64-1.74,5.24-3.34,4.02-2.15-1.64,2.97-4.42,3.34-4.02Z"/>
  <path class="uuid-9d4b720c-5ea1-4c22-9c15-f8f89df445a1" d="M710.47,351.88c-.74.71-4.82-1.38-4.7-1.67.79-1.88,5.74-1.43,4.7,1.67Z"/>
  <path class="uuid-b9887bef-c0b6-413c-b1d2-cdecee6dd340" d="M872.51,345.16l-2.05,15.77.02,25.91c-1.28-.69-.65-4.02-.67-5.38-.15-11.25-1.23-25.82,2.69-36.31Z"/>
  <path class="uuid-6038366f-9b33-481c-aa41-c0113fa1aae1" d="M826.11,253.73c.42,3.8-2.66,6.87-3.69,10.09-3.11,9.78.95,15.98,10.05,19.52l7.75,1.98c-15.1,7.14-35.12-8.09-23.53-23.86.74-1.01,8.5-8.76,9.41-7.73Z"/>
  <path class="uuid-953e154a-3fdd-4692-b320-ef5e8f95d949" d="M541.05,250.37c1.35,1.49-6.66,14.17-7.24,17.3-1.69,9.17,9.32,16.22,17.32,16.99-3.76,4.31-14.16,1.34-18.38-1.47-15.5-10.32-4.83-27.02,8.29-32.83Z"/>
  <path class="uuid-6038366f-9b33-481c-aa41-c0113fa1aae1" d="M520.87,197.93c2.34,3.7-.99,7.3-1.36,11.73-.59,7.14,1.4,10.43,6.81,14.76l8.68,5.09c-10.69,4.48-23.54-4.88-23.27-16.35.14-5.79,3.7-12.89,9.14-15.23Z"/>
  <path class="uuid-110f83ed-b2fb-4837-a497-88c231348ad5" d="M836.2,198.6c.58,3.25-1.7,5.85-2.39,8.7-2.62,10.71,2.11,16.57,11.62,20.73,1.28.56,8.07,1.69,2.91,3.2-13.72,4.01-26.56-9.2-20.54-23.23.46-1.08,7-11.01,8.4-9.41Z"/>
  <path class="uuid-6038366f-9b33-481c-aa41-c0113fa1aae1" d="M682.23,181.79c-.11,6.48-5.13,21.7.33,26.22,3.66,3.03,9.91,3.08,14.46,3.36-1.48,1.94-4.79,3-7.13,3.28-17.36,2.1-23.67-15.65-14.06-28.18.74-.97,5.32-5.79,6.4-4.69Z"/>
  <path class="uuid-6038366f-9b33-481c-aa41-c0113fa1aae1" d="M600.88,185.83c.85,4.4-1.9,8.23-2.06,12.43-.25,6.97,3.92,12.79,10.13,15.46,2.3.99,9.6,1.58,4.02,4.03-7.69,3.38-19.32-3.45-21.54-11.39-1.78-6.37-.66-10.61,3.38-15.51.59-.71,5.4-5.77,6.06-5.02Z"/>
  <path class="uuid-6038366f-9b33-481c-aa41-c0113fa1aae1" d="M760.89,186.5c-.56,9.57-5.65,17.22,2.68,25.23,3.16,3.04,6.95,3.71,10.1,6.36-10.2,3.73-23.81-4.73-23.55-15.76.12-4.99,5.5-14.81,10.77-15.83Z"/>
  <path class="uuid-c797d832-7ebe-4621-9e34-ae73b4f8eafe" d="M553.83,226.16l-1.35-4.7c1.13.76,3.64,4.32,1.35,4.7Z"/>
  <path class="uuid-0e1c355e-71f5-4e05-a587-ae28708bbf7c" d="M693.67,585.86h-29.58c9.81.2,19.77.14,29.58,0Z"/>
  <path class="uuid-c797d832-7ebe-4621-9e34-ae73b4f8eafe" d="M769.64,295.41c-2.03-.65-2.26-3.06-.67-7.23l-.5-3.85c-1.57,2.21-3.14,2.83-4.71,1.87-2.92-3.64-15.83-16.81-19.8-17.02-2.37-.13,12.17,16.12,13.21,16.12,11.97,11.19-3.49,19.7-13.29,23.76l-.48,1.15c-14.89,1.16-40.89-3.02-38.26-23.14,2.06-15.8,22.75-19.08,31.3-29.93,12.04,11.49,41.74,14.86,33.19,38.27Z"/>
  <path class="uuid-da3b7036-a896-427e-844e-d988934e3752" d="M743.42,310.2l-1.69-1.35c5.46-2.98,18.88-8.15,18.54-15.78-.29-6.65-15.86-14.68-17.72-24.05-.68-3.44,3.98.04,5.65,1.09,6.42,4.05,12.3,9.98,17.06,15.88,3-4.51,4.98-3.74,5.06,1.71.04,2.6-1.88,5.3-.69,7.7-3.53,9.67-16.76,14.05-26.22,14.79Z"/>
  <path class="uuid-e1f54952-21c0-452a-9665-0327dc95a60a" d="M672.15,295.41c-.8.92-1.57.91-1.91-.25l.47-8.69c-2.36-.54-4.72-.96-7.07-1.27-3.85-4.66-14.43-14.35-19.85-16.19-1.31-.44,8.08,12.06,9.35,11.88,14.32,7.77,10.13,20.86-2.87,27.5,4.84-1.49,6.98-1.11,6.41,1.15-12.75,3.07-28.28,3.45-39.87-3.5-3.53-2.11-5.17-4.4-7.87-7.26-6.9-7.79-1.55-21.79,6.72-26.22,7.08-5.41,17.78-7.85,22.2-16.13h.98c6.65,8.92,18.08,9.39,26.23,16.15,7.22,5.99,9.03,13.72,7.07,22.84Z"/>
  <path class="uuid-662f5168-617b-4333-9534-11e4a7235fe1" d="M656.69,309.53c-.08.01-.07-.9-1.58-.64-3.72.63-7.44,1.54-11.19,1.98,6.78-4.89,17.97-8.98,16.82-19.17-.63-5.64-5.37-6.88-8.76-10.06-4.6-4.31-8.91-8.87-10.75-15.13,1.08-1.09,17.73,11.4,19.52,13.08,1.16,1.1,3.15,4.4,4,4.77.92.39,1.73-.94,2.37-.89s1.24,1.56,2.15,1.78c.83.2,2.12-.68,2.21-.6,1.33,1.18.17,7.83,0,9.73-.1,1.07.69.97.68,1.03-.28,5.57-10.27,13.28-15.46,14.12Z"/>
  <path class="uuid-54917fd7-d3ef-4c6f-a23e-9e0bfc4fb183" d="M615.68,272.55c-8.25,6.31-12.53,16.64-6.72,26.22-.06-.06-.36.91-1.23-.36-5.52-7.96-.82-19.27,5.59-25.2.54-.5,1.79-2.25,2.36-.66Z"/>
  <path class="uuid-b5622122-0c79-44fa-833e-09b154df7b3d" d="M734,266.51c1.37,1.42-4.58,9.91-5.09,12.05-2.69,11.45,6.96,17.49,17.19,17.53-5.03,5.43-17.17,1.9-21.84-2.7-9.77-9.61-.93-23.25,9.74-26.88Z"/>
  <path class="uuid-6038366f-9b33-481c-aa41-c0113fa1aae1" d="M647.95,295.42c-1.33,2.52-.37,1.25.67,2.68-24.26,8.03-35.33-18.12-15.79-32.26,1.51,4.53-2.21,9.46-2.4,14.44-.38,10.12,7.99,16.05,17.52,15.14Z"/>
</svg>