<?xml version="1.0" encoding="UTF-8"?>
<svg id="uuid-4f955dcc-5bc2-4472-a491-14e138ee1703" data-name="Layer 1" xmlns="http://www.w3.org/2000/svg" viewBox="0 0 1366 768">
  <defs>
    <style>
      .uuid-311c8d22-7c1d-4d50-8c2e-4a97a910d7cc {
        fill: #e3ded6;
      }

      .uuid-ca9ea0f4-df2b-4f35-81dd-6026e2f687f0 {
        fill: #96802a;
      }

      .uuid-c8852c59-3a90-482c-8a5f-a475e1b29d63 {
        fill: #b7361a;
      }

      .uuid-405acba8-e67c-42e7-bf5d-2551de5d59c0 {
        fill: #47310c;
      }

      .uuid-c8ac11d5-e503-422e-b91d-830db28d8211 {
        fill: #9aa636;
      }

      .uuid-74d02023-6d81-440d-9471-1445efc7a17d {
        fill: #f2805c;
      }

      .uuid-b313b92f-496d-4fda-b63c-ff14a21bf4e3 {
        fill: #f3835c;
      }

      .uuid-28082bae-51c0-499a-af7b-0e3e7c0ffd12 {
        fill: #562610;
      }

      .uuid-2907a70e-ce14-4190-95a5-244dd79a1045 {
        fill: #da4523;
      }

      .uuid-1102eec1-adfd-4312-b095-345248addf40 {
        fill: #56260f;
      }

      .uuid-4fea6245-914a-42ae-8efc-dfa4967e01fd {
        fill: #db4725;
      }

      .uuid-98ee6082-da49-4d0e-a2ba-d259a3b7d521 {
        fill: #b23417;
      }

      .uuid-5a3c3dc2-886c-49fb-8ae4-4bf70e19edea {
        fill: #7d4417;
      }

      .uuid-d5b63126-4ba3-4a42-a13e-9ec8ff0d432a {
        fill: #b83518;
      }
    </style>
  </defs>
  <path class="uuid-405acba8-e67c-42e7-bf5d-2551de5d59c0" d="M642.24,379.71c1.51.56,4.81,2.54,5.7,1.34,9.79-24.56,19.07-50.86,35.98-71.54,5.63-6.88,16.35-19.49,24.17-7.42,6.78,10.48-8.96,14.54-11.95,22.73,10.3,20.82,18.15,42.69,24.72,64.97,5.57-2.7,10.47-4.04,16.79-3.36l-.51,1.36c-2.42.27-19.05,2.24-13.29,5.76l-.31,1.62c1.79-.73,4.33,3.16,3.36,4.7,1.07,3.53-5.74,5.8-8.78,6.6-6.08,1.61-15.12.36-9.36-7.27-1.21-.4-1.41-1.56-.6-3.49-1.75.05-2.83.07-2.09-1.88l.87-1.39c-1.63-8.06-4-16.04-6.64-23.87-1.56-4.63-12.23-34.27-14.08-34.16-2.89.18-24.13,46.18-25.76,51.85,2.4.17,3.93.9,4.61,2.19,1.66,2.43-2.1,1.89-3.88,1.39.53,2.96-1.09,4.06-3.48,5.32l-.7,2.03c1.11,1.45.2,2.12-1.34,1.34-1.73,1.83-3.66,1.85-5.38,0-3.17-.49-10.1-2.48-9.87-6.41.09-1.51,2.13-4.71,3.82-3.67-.16-1.73.21-3.38,1.1-4.95-4.63-2.02-5.66-3.28-3.11-3.78Z"/>
  <path class="uuid-311c8d22-7c1d-4d50-8c2e-4a97a910d7cc" d="M691.29,446.24l2.14.96c13.62,21.32,43.73,21.24,60.6,4.05l1.77.36s.35.48.67.3c1.31-.77,1.47-2.44,3.63-2.32,4.23.24,9.05,4.93,7.65,9.62-1.39,4.65-17.98,8.74-22.58,9.67-22.12,4.49-28.65.86-49.04-3.62-24.24-5.33-48.87,7.94-75.75-2.87-5.56-2.23-11.37-5.97-9.04-12.79.2-.15,2.16.5,2.68.68l1.47-.86c16.3,11.16,39.25,9.58,53.37-4.71l2.27-.48,1.73-.89c5.41.84,10.88,1.27,16.4,1.3l2.03,1.61Z"/>
  <path class="uuid-1102eec1-adfd-4312-b095-345248addf40" d="M642.24,379.71c-1.66.61.64,1,1.13,1.21,1.18.53,2.23,1.35,3.56,1.51-.2,2.31-1.64,4.08-2.68,6.01-3.66-3.32-8.28-4.36-13.18-4.11l-.93-1.27c-1.97.04-3.25.63-3.85,1.78-19.74,3.87-25.02,27.29-18.94,44.08l-.73,1.85c7.45,10.23,14.07,17.76,27.2,19.85,24.78,3.95,45.35-17.48,39.89-41.86-1.48-6.63-7.89-18.26-15.24-11.1l-1.46-.49-2.69-2.68c4.1.12,7.2-2.17,4.7-6.05,1.75-.3,3.37.34,5.05.55.46.06.94-.57,1-.55,1.68-2.26,6.12,1.86,7.87,3.49,14.85,13.84,11.41,36.78.18,51.98l-2,.3c-12.1,13.79-32.87,17.52-49.51,10.2-2.73-1.2-4.92-3.24-7.61-4.15-4.54-5.05-9.41-9.25-12.22-15.66-12.25-27.96,6.22-67.68,40.45-54.89Z"/>
  <path class="uuid-28082bae-51c0-499a-af7b-0e3e7c0ffd12" d="M755.8,451.61c-3.09,2.17-5.22,4.83-8.79,7-19.02,11.57-44.34,7.68-55.72-12.38-4.07-2.11-5.39-9.48-6.09-13.96-1.79-11.45.15-25.61,9.06-33.79,2.76-2.53,8.36-6.67,11.81-4.66l.46.54c4.64-.33,2.66,1.57,2.22,4.83l-1.11,1.56c-18.67,4.58-18.35,32.24-7.89,44.52l-.41,1.64c16.67,17.1,42.61,14.96,55.22-5.53s.31-51.62-25.53-47.44c-2.02,1.22-3.85,1.64-5.5,1.23-.85-1.16-3.88-2.7-2.03-4.36.59-.53,3.53-2.03,4.41-2.33,2.09-.72,9.74-2.08,11.73-2.05,4.46.07,12.01,4.17,15.46,7.05,17.07,14.22,17.65,42.16,2.68,58.13Z"/>
  <path class="uuid-4fea6245-914a-42ae-8efc-dfa4967e01fd" d="M699.36,446.91c-1.25-1.6-2.59-2.98-3.6-4.8-7.78-13.95-6.34-40.19,13.01-42.91,0,.06.58.43.51.9-.18,1.23-1.84,2.31-.88,3.81,2.5,3.93,11.47,1,14.74-.76,1.71-.92,3.55-3.18,3.78-3.28.12-.82,4.13-2.98,5-3.17,11.61-2.65,16.02,19.8,15.62,27.79-1.27,25.2-28.85,39.26-48.17,22.42Z"/>
  <path class="uuid-2907a70e-ce14-4190-95a5-244dd79a1045" d="M630.14,383.07l-.17,1.44c.05.81,10.44,9.39,12.21,10.78,2.52,1.98,5.02,2.65,8.12,3.24,1.79.04,3.59-.02,5.38,0,22.49,31.2-27.06,61.89-49.05,32.25-7.86-19.37-.39-46.68,23.52-47.71Z"/>
  <path class="uuid-d5b63126-4ba3-4a42-a13e-9ec8ff0d432a" d="M657.02,397.18c3.03-2.82,6.02-4.61,9.74-2.02,10.46,7.3,10.67,23.88,6.51,34.74-11.29,29.49-54.72,30.28-66.65.88,4.27,1.77,7.46,5.92,11.74,8.08,19.89,10.02,47.32-9.09,40.89-31.48-.79-2.75-4.56-6.2-3.58-8.85.16-.43.95-.98,1.34-1.34Z"/>
  <path class="uuid-c8852c59-3a90-482c-8a5f-a475e1b29d63" d="M699.36,446.91c3.35.87,5.92,3.6,9.25,4.53,23.97,6.68,41.42-13.07,36.93-36.26-1.05-5.45-5.33-17.75-12.24-17.39-1.75.09-2.38,1.24-3.7,1.78-.96.39-2.27.12-2.69.3-1.52-1.33-2.41-3.41-3.36-4.7,13.45-9.24,30.22,2.12,35.13,15.6,13.56,37.24-35.07,67.33-59.32,36.14Z"/>
  <path class="uuid-ca9ea0f4-df2b-4f35-81dd-6026e2f687f0" d="M681.89,327.3c-.91,2.55-4.65,7.45-6.16,10.3-9.55,17.97-18.31,36.65-24.08,56.23-.26.23-3.87-.26-3.41-1.67,9.51-24.39,17.7-51.03,34.32-71.57,1.94.84,1.93,6.66-.67,6.72Z"/>
  <path class="uuid-5a3c3dc2-886c-49fb-8ae4-4bf70e19edea" d="M682.56,320.58c.49-2.97,11.46-16.25,14.39-17.52s7.73-.95,7.73,3.08c0,2.83-8.15,8.2-10.4,10.38-2.47,2.4-6.62,6.3-8.73,8.74-1.35,1.56-2.3,6.51-3.67,2.04.92-2.58.31-4.52.67-6.72Z"/>
  <path class="uuid-c8ac11d5-e503-422e-b91d-830db28d8211" d="M691.3,326.63l7.5,15.67c8.37,18.53,14.25,37.98,20.67,57.25-5.56,4.44-4.96-2.87-6.2-7.21-3.63-12.68-7.54-25.39-11.89-37.83-3.25-9.3-7.86-18.3-10.09-27.87Z"/>
  <path class="uuid-98ee6082-da49-4d0e-a2ba-d259a3b7d521" d="M644.26,388.45c-.48.9-2.23,2.31-2.5,3.84-.52,2.88,6.5,5.12,8.55,6.24-4.74-.09-4.73.18-8.68-2.41-5.09-3.35-9.71-8.79-14.84-12.04,1.02.06,2.6-.92,3.36-1,3.66-.42,9.56.32,12.58,2.54,1.2.88,1.79,1.08,1.53,2.84Z"/>
  <path class="uuid-b313b92f-496d-4fda-b63c-ff14a21bf4e3" d="M705.22,409.38c6.09-.96,8.22,12.76.37,14.54-9.08,2.07-6.71-13.55-.37-14.54Z"/>
  <path class="uuid-74d02023-6d81-440d-9471-1445efc7a17d" d="M621.83,390.66c8.05-.8,8.63,10.64-.44,14.25-10.33,4.11-6.84-13.53.44-14.25Z"/>
</svg>