<?xml version="1.0" encoding="UTF-8"?>
<svg id="uuid-a444708b-6488-4244-9e04-5e64e143a8f8" data-name="Layer 1" xmlns="http://www.w3.org/2000/svg" viewBox="0 0 1920 1080">
  <defs>
    <style>
      .uuid-5c1b86f1-d1ff-43d7-a2d1-2761d76c909a {
        fill: #92501a;
      }

      .uuid-69f6179c-9913-44a8-a74b-3382004c0d96 {
        fill: #fdd62f;
      }

      .uuid-19e130c0-99eb-4d32-ae0c-5073982d8225 {
        fill: #fbcf78;
      }

      .uuid-ce7f51d7-5258-444e-b5b0-5ce2653b2cb0 {
        fill: #f2a850;
      }

      .uuid-3ffd7dee-96e4-42e4-8b85-c02adf1b84d2 {
        fill: #de832a;
      }

      .uuid-98b5321b-d249-4255-9a43-b772b840c4d4 {
        fill: #f2a03b;
      }

      .uuid-7c47f8eb-2261-41d1-92ef-647af7b96972 {
        fill: #693d14;
      }

      .uuid-767bbed0-0f9a-465c-a314-8a2f6c62abb5 {
        fill: #ee9a39;
      }

      .uuid-56899357-07f2-495a-b8cd-43fefb7a6d4b {
        fill: #dc8028;
      }

      .uuid-7422655a-35a5-4652-87f5-c00024497170 {
        fill: #844416;
      }

      .uuid-c3d956b6-491a-4af9-b4dc-9cb2d249dd6f {
        fill: #300e05;
      }

      .uuid-830033b1-3ebb-431f-8eac-1e4e308247f9 {
        fill: #fbd27d;
      }

      .uuid-9f62f215-650a-4a88-82a1-e2af4ce1a982 {
        fill: #fcd27c;
      }

      .uuid-319821e3-a270-4704-b15c-a7179f206f0d {
        fill: #794b20;
      }

      .uuid-846cb1f5-2c5e-419d-b296-1c99c37047d5 {
        fill: #794c21;
      }

      .uuid-ead5aab7-8b3c-4456-aa64-723ec1fbd80d {
        fill: #f09d09;
      }

      .uuid-2074e346-d639-4aca-8f94-1b2add7fd23b {
        fill: #683c16;
      }

      .uuid-da0a3ac1-644d-4c28-9da5-ff29ce8a37df {
        fill: #fcd27a;
      }

      .uuid-45bd5cc1-77af-49a6-80c1-82ed17ea5f44 {
        fill: #e3892e;
      }

      .uuid-14b38a86-c849-4255-b3ff-bcb182590014 {
        fill: #fcd178;
      }

      .uuid-15ce85c2-121d-402f-828d-049a898acd2b {
        fill: #fbd27a;
      }

      .uuid-cc6945d4-e972-4c9f-91ac-cab34ab3ec26 {
        fill: #e1dcd3;
      }

      .uuid-b70709ff-7ba0-4726-95aa-4037245119bb {
        fill: #58300f;
      }
    </style>
  </defs>
  <path class="uuid-7c47f8eb-2261-41d1-92ef-647af7b96972" d="M1062.7,205.33c44.32,9.62,79.99,20.5,118.93,44.47,63.19,38.89,144.33,125.72,113.87,206.19-6.93,18.32-11.73,18.87-24.09,29.46,3.68,11.66-.34,13.26-11.14,16.79,3.33,1.26,3.43,4.23,2.9,7.92l-2.35,5.67c-16.42-.34-26.45,5.32-30.1,16.99l-8.81,7.08c-91.76,40.29-180,95.98-265.4,150.07-10.02,7.34-22.6,3.19-28.38-6.79l-8.83,2.23c-62.39-39.1-127-58.38-198.15-76.19-14.56-3.64-122.5-18.69-127.8-12.86-1.35,1.49,1.39,14.28,2.34,17.61,14.49,50.73,94.69,67.49,139.69,76.69l3.25,6.24c16.95,6.99,49.5,12.77,73.68,14.87,16.66,18.12-6.24,15.68-19.78,14.05-12.39-3.3-26.9-4.58-40.16-4.2-15.97,5.3-37.18.57-49.43-10.98-13.41-.67-26.67-3.92-39.79-9.73-1.92,1.4-3.73,2.41-5.11,1.99-22.2-6.61-44.29-19.04-63.24-32.24-4.29,3.25-8.53,4.68-12.69,4.28-12.95,8.07-6.08-10.09-1.35-17.18-4.95,6.55-10,9.53-15.12,8.94,2.65-6.66,13.63-24.16,13.4-25.59-.37-2.24-5.7-7.07-7.2-12.2-2.1-7.16-5.16-37.37-6.55-38.75-.61-.61-12.27-1.55-16.88-3.73-16.2-7.65-15.08-23.1-10.22-37.83,7.85-2.54,9.67,3.2,5.45,17.24,2.95,16.16,30.86,17.75,7.91,8.03-10.54-7.54-2.53-38.01,5.86-22.53,1.46,12.57,12.52,17.65,33.17,15.25,114.14-2.23,234.04,24.78,331.07,85.16,16.5,7.62,25.21,10.37,40.64-1.25,59.18-40.95,123.84-80.53,192.01-111.47-127.77,28.52-266.13,26.27-396.02,10.3-28.73-3.53-132.9-20.27-148-39.02-1.37-1.71-2.45-3.65-3.44-5.67.33-7.64-1.45-14.52-5.35-20.63l2.6-6.83c5.57-4.07,12.04-.27,10.83,6.42l8.39,4.56,11.55-.61c50.72,22.9,106.51,27.63,161.35,31.12,128.7,8.19,292.85,14.47,414.02-28.67,149.86-53.34,6.43-204.22-81.83-239.28l-2.53-6.98c-17.41-3.58-34.7-6.74-51.88-9.45l-5.79-7.02c-.22-1.42-.29-2.79.13-3.98,3.1-8.8,37.29,3.63,44.34,6.42,1.89,3.21,51.67,20.52,48.52,19.06-30.93-14.31-62.56-27.66-96.19-34.29-8.24-2.73-10.27-9.13-2.29-9.17Z"/>
  <path class="uuid-cc6945d4-e972-4c9f-91ac-cab34ab3ec26" d="M1307.12,724.37l2.87,1.54c3.4-5.26-.71-24.35,6.65-23.47,14.57,1.74,48.51,21.26,57.82,32.85,27.44,34.19-4.16,60.18-32.55,77.42-143.88,87.37-527.16,101.49-679.27,32.98-12.75-5.74-31.41-14.6-36.58-27.92,4.63.59,9.13,1.83,13.73,2.72l3.93-1.94c126.72,42.87,270.64,51.64,404.82,35.86,85.73-11.52,204.51-37.77,248.78-118.47l7.05-3.33c-.84-4.64.08-7.39,2.75-8.24Z"/>
  <path class="uuid-319821e3-a270-4704-b15c-a7179f206f0d" d="M895.18,191.6c24.07,2.19,47.87,2.19,71.4,0,5.18.06,13.49-1.86,16.48,2.75,4.43,2.15,10.84,2.15,19.22,0,20.38,1.53,40.53,6.67,60.42,10.98l-1.53,2.86c38.18,6.84,73.82,22.17,108.63,38.36-1.96,5.25-6.44,8.56-12.1,8.25-5.31-.29-39.93-17.77-50.48-21.22-10.44-3.41-29.07-11-39.03-6.28l-9.49,3.47c-150.83-34.65-413.16-6.5-466.35,166.41-7.87,25.58,2.64,49.39,14.06,72.29l-2.33,7.74c5.9,11.98,12.55,17.02,2.75,27.46,5.35,6.11-1.73,12.64-8.24,8.24-2.27,8.7-16.92,23.93-27.46,21.97,4.23,7.1-6.16,18.63-13.73,16.48-5.53-6.89-5.49,13.57-5.15,14.62,2.38,7.37,15.55,6.69,16.17,7.37.49.53-4.74,9.22-.04,13.69-11.98,1.01-29.13-7.85-30.21-20.82-.51-6.13,5.36-13.44,0-17.61,7.17-21.7,34.79-44.62,52.05-59-56.41-68.49-8.35-152.22,48.11-201.96,67.91-59.83,167.26-91.5,256.84-96.04Z"/>
  <path class="uuid-b70709ff-7ba0-4726-95aa-4037245119bb" d="M1271.42,485.45c1.51,8.67,12.87,11.1,19.34,17.73,31.72,32.57,29,97-2.17,129.23,21.84,24.5,25.3,60.84,18.54,91.96-.28,1.29-2.02,6-2.75,8.24-6.83-.23-9.08-5.94-6.75-17.15l3.62-23.38c-.48-12.94-2.37-5.35-5.67,22.79-2.91,5-6.11,4.06-7.68-1.49l-5.23-2.59c2.31-6.93-3.25-56.77-11.42-54.9-96.25,70.64-228.77,83.7-347.25,84.32-26.96.14-152.24-2.7-167.36-14.15-1.61-1.22-2.97-2.78-4.25-4.43,13.63-6.18,28.72,4.06,43.96-2.72l-2.79,5.45c2.65-.9,22.72,3.13,19.22-4.06-4.7-9.66-16.5-3.94-22.05-5.34-16.82-4.25-22.27-9.77-45.26-12.5-2.15-.26-12.76-1.15-6.81-5.54l14.88-2.83c41.16,5.75,82.38,9.99,123.67,12.72l6.99,3.84c22.97,3.42,47.91,2.14,71.4,0,3.03-1.99,6.69-1.99,10.98,0l8.13-5.78c97.5-5.86,362.21-32.17,299.57-182.57-4.66-4-8.36-8.04-11.11-12.13-2.66-1.48-12.58-6.26-10.96-9.57,3.15-5.17,11.14-4.23,14.65-6.72,2.25-1.6,1.8-6.07,4.55-8.42Z"/>
  <path class="uuid-2074e346-d639-4aca-8f94-1b2add7fd23b" d="M1304.37,732.61c-17.88,55.45-99.63,90.89-151.05,105.72-140.24,40.46-313.1,37.31-453.71.6-19.88-5.19-39.98-14.6-59.82-18.44-.84-.94-1.67-2.08-2.75-2.75-5.5-6.1.51-9.21,7.4-7.62.26,2.51,86.02,30.01,77.66,22.39-19.83-6.04-39.7-11.78-59.62-17.23-6.5-4.54-5.68-10.73,2.02-8.52l12.76-1.46c38.13,11.46,74.86,21.06,113.57,28.92,6.16-1.76,12.54-3.47,18.99-3,66.4,6.47,133.35,12.93,199.47,8.36,21.49-3.21,42.96-5,64.4-5.36l3.53-6.14c64.15-13.11,159.21-34.8,196.97-93.01,3.05-9.91,7.62-17.14,13.7-21.69l2.7,1.37,3.33-29.66,10.41-18.38c-1.68,7.94,2.55,15.77,2.5,23.04-.08,12.07-7.33,30.66-2.48,42.86Z"/>
  <path class="uuid-846cb1f5-2c5e-419d-b296-1c99c37047d5" d="M565.64,666.7l10.97-15.12,8.25-4.08c-3.1,4.89,2.71,8.67,2.24,11.82s-6.04,7.18-7.33,12.04c-1.15,4.35,2.38,3.36,2.34,3.57l4.68,4.96c-6.75,11.23-9.22,25.13-7.42,41.72l6.74,4.73c9.54,36.68,40.61,60.21,74.75,73.18l3.64,7.23c-6.88,2.56,3.03,4.25,4.8,4.78,20.79,6.29,41.73,11.31,62.61,17.17,4.36,1.22,8.13-2.99,6.74,5.49-10.44-4.73-14.65,5.41-15.55,5.59-9.37,1.84-61.3-17.19-74.07-21.69-3.51-1.24-9.33-6.18-11.99-.36-5.98-3.72-12.95-6-19.01-9.83-47.44-29.99-74.13-86.62-52.39-141.21Z"/>
  <path class="uuid-c3d956b6-491a-4af9-b4dc-9cb2d249dd6f" d="M966.59,191.6c-2.85,4.55-10.42,2.75-15.06,2.79-17.97.19-39.39,2.07-56.34-2.79,22.96-1.16,48.23-.28,71.4,0Z"/>
  <path class="uuid-c3d956b6-491a-4af9-b4dc-9cb2d249dd6f" d="M983.06,194.35c6.16-.18,13.15-.46,19.22,0-8.94,6.09-22.74,1.34-32.94,2.72-.15-4.97,10.22-2.62,13.72-2.72Z"/>
  <path class="uuid-98b5321b-d249-4255-9a43-b772b840c4d4" d="M1068.2,227.3c18.5,4.39,40.13,9.53,57.67,16.48,1.7,10.03-9.24,7.64-16.63,4.79,40.1,45.24,44.9,112.83,3.85,159.33-14.54,16.48-82.06,47.99-103.84,51.39-109.89,17.15-231.12,8.55-340.85-7.56-10.39-7.81-16.18-6.51-17.37,3.89-15.27,1.65-23.58,5.8-24.93,12.44,3.16,10.09,4.51,18.8-8.35,14.2-.6-.21,10.61-.47,5.55,5.93-6.49-3.24-13.39-4.35-19.22-10.98-21.95-44.62-29.24-64.25-4.17-112.64,79.05-152.6,320.28-172.35,468.28-137.26Z"/>
  <path class="uuid-3ffd7dee-96e4-42e4-8b85-c02adf1b84d2" d="M1125.87,243.78c67.88,26.87,172.21,114.98,151.91,197.22-9.87,39.99-67.69,56.11-102.45,65.06-104.15,26.81-210.84,24.78-317.24,20.6-77.7-3.05-164.16-3.26-234.77-38.48l-8.22-5.53c-.89-5.38,6.77-1.47,8.25-2.73,1.2-1.02-5.7-12.42-1.47-19.24,4.89-7.86,24.35-7.43,25.74-8.65,1.9-1.67-1.31-9.6,7.35-10.75,7.86-1.04,11.03,4.67,16.54,5.57,89.58,14.62,246.1,22.92,334.1,7.56,20.97-3.66,83.54-32.41,99.26-46.29,42-37.11,38.68-106.53,6.87-148.84-4.77-6.34-15.31-12.33-18.81-20.98,10.85-1.5,22.82,11.69,32.95,5.46Z"/>
  <path class="uuid-56899357-07f2-495a-b8cd-43fefb7a6d4b" d="M1287.89,713.38c-11.66,74.52-152.38,111.13-214.21,120.83-41.04,3.84-82.33,6.51-123.88,8.03-3.31-2.7-2.5-6.81-.99-10.44-16.63-2.32-27.35-9.62-32.16-21.9-19.64-4.71-9.1-21.34,7.63-18.47-14.46-5.21-25.08-14.94-4.38-20.38l4.19-5.57c14.63,1.67,129.64-6.63,63.81-13.23-47,12.4-324.26-17.41-333.86-42.97-1.88-5.01-2.45-8.21,3.02-10.1,15.23,6.25,30.53,10.06,45.89,11.44,16.22,4.22,32.9,8.13,49.43,10.98,131.08,22.62,355.51,20.57,474.2-43.47,7.37-3.98,41.36-27.31,43.94-27.56,16.88-1.59,19.11,51.68,17.37,62.78Z"/>
  <path class="uuid-7422655a-35a5-4652-87f5-c00024497170" d="M1263.18,510.16c1.4.78,5.6-.48,9.71,2.54,13.95,10.25,19.34,45.37,17.44,61.7-3.75,32.25-20.57,49.03-45.46,67.11-68.3,49.62-194.76,66.65-278.27,69.12l-7.06-1.45c-19,3.15-40.26-5.23-31.38-26.02,3.98,1.56,16.9,5.9,20.03,5.08,38.29-20.41,72.64-46.79,109.94-68.71,42.84-25.17,87.81-48.27,131.8-71.42,11.32-5.96,29.35-9.6,37.69-20.07,2.05-2.57-.41-5.92,4.14-9.26,7.63-5.61,21.97-8.13,31.44-8.63Z"/>
  <path class="uuid-5c1b86f1-d1ff-43d7-a2d1-2761d76c909a" d="M928.14,683.17c2.97,7.01,6.31,19.97,13.77,23.3,8.21,3.66,18.06-1.86,24.67,4.16-3.66.11-7.33-.08-10.98,0-23.69,2.46-47.83,2.95-71.4,0-49.85-1.19-96.53-4.06-145.55-13.73-55.96-11.05-153.95-31.68-150.88-104.21,7.08-7.33,92.3,3.69,107.52,6.14,52.64,8.5,114.7,26.33,163.31,48.15,23.19,10.41,46.55,27.16,69.54,36.19Z"/>
  <path class="uuid-ead5aab7-8b3c-4456-aa64-723ec1fbd80d" d="M606.83,504.67c58.88,28.43,131.26,37.93,196.38,43.92,93.02,8.56,198.23,9.65,290.69-3.12,26.96-3.72,54.41-11.83,80.79-15.35,2.98-.4,9.47-3.04,8.84,1.98-57.31,24.38-111.59,54.16-164.52,86.77-14.61,9-60.52,44.16-72.98,45.31-5.63.52-9.29-.77-14.37-2.38-20.96-6.67-52.63-29.58-75.8-39.52-56.42-24.2-134.65-42.33-195.81-48.6-27.92-2.86-67.17.81-92.34-3.77-12.75-2.32-15.81-6.18-10.28-18.55,2.04-4.56,10.13-12.37,13.73-16.48,4.42-3.21,8.53-.45,12.32,8.3,27.56,3.69,55.58,6.04,84.04,7.03-12.23-3.06-74.67-25.12-74.83-29.46l5.92-7.84c1.03-.82,6.76-6.66,8.24-8.24Z"/>
  <path class="uuid-ce7f51d7-5258-444e-b5b0-5ce2653b2cb0" d="M702.95,710.64c-7.28,8.41-41.06-10.56-43.92-8.23-5.04,4.11,3.42,5.91,5.47,6.73,67.08,26.65,183.48,37.2,256.66,40.06,24.61.96,53.66-3.45,76.32-2.21,8.09.44,26.57,5.41,15.74,14.4-10.15,8.43-76.7,9.37-93.32,9.66-2.82,1.46-5.68,2.8-8.66,3.77-2.94.95-5.83,1.82-8.72,1.85-63.77.7-132.02-5.89-191.34-27.58l-9.41,3.33c-41.58-10.15-78.16-32.45-113.94-54.99.63,12.44-2.19,20.51-8.47,24.2-3.92-19.37-.49-28.23,2.75-46.69l9.61-13.69c31.18,25.82,72.38,39.27,111.22,49.39Z"/>
  <path class="uuid-69f6179c-9913-44a8-a74b-3382004c0d96" d="M598.59,512.91c-5.02,7.47-2.43,4.24,2.8,6.72,120.04,56.78,300.71,64.63,432.66,59.37,5.06-.2,8.79-1.94,13.52-2.96,3.56.63-1.6,4.62-2.72,5.51-13.91,11.1-57.58,36.82-74.68,46.16-6.23,3.41-14.18,8.7-21.34,8.85-29.33.59-115.06-44.03-151.3-54.83-41.95-12.5-96.61-22.02-140.25-27.27-16.87-2.03-63.81-.31-75.73-5.96-3.7-1.75-6.97-10.37-10.42-13.62,11.86-13.54,16.39-13.15,27.46-21.97Z"/>
  <path class="uuid-7422655a-35a5-4652-87f5-c00024497170" d="M955.6,710.64c-16.95,4.86-38.37,2.98-56.34,2.79-4.64-.05-12.21,1.75-15.06-2.79,23.62.56,47.79.54,71.4,0Z"/>
  <polygon class="uuid-2074e346-d639-4aca-8f94-1b2add7fd23b" points="1298.88 655.68 1285.15 655.68 1290.67 642 1298.88 655.68"/>
  <path class="uuid-45bd5cc1-77af-49a6-80c1-82ed17ea5f44" d="M919.9,771.05l-8.23,10.96c7.71-2.33,14.55,6.33,20.52,5.68,2.51-.28-.93-7.12,5.53-5.66,5.8,1.31-1.96,12.31-7.61,14.44-4.77,1.8-11.46-1.64-16.88,1.99-8.2,5.49,4.38,5.3,6.55,6.92,3.08,2.3,2.56,8.03,7.26,12.09,5.93,5.12,25.36,8.5,27.42,11.12,1.62,2.06-3.01,9.75-1.6,11.11,5.35,5.13,91.42-6.89,105.77-8.23,4.44-.42,12.29-1.63,15.05,2.76-95.25,14.95-188.19,13.42-282.86,0-20.22-5.24-41.22-9.35-63-12.33,1.78-9.9,2.21-20.18,1.26-30.84l3.8-6.01c23.1-13.01,19.89-19.7-9.62-20.06-4.87-1.93-15.96-10.24-12.09-15.9,67.43,15.75,139.51,23.18,208.71,21.97Z"/>
  <path class="uuid-767bbed0-0f9a-465c-a314-8a2f6c62abb5" d="M711.19,749.08l14.76,11.31,26.44,2.43c6.7,18.47-15.22,23.19-17.47,28.13-4.21,9.24,6.48,20.36-4.51,29.51l67.25,11.02-6.84,2.74c-42.28-5.99-86.04-12.98-126.33-27.46-40.63-14.6-76.03-40.2-85.13-85.13l4.11-35.69c2.73,2.79,5.31,5.72,8.7,7.78,42.15,25.75,69.7,43.85,119.02,55.37Z"/>
  <path class="uuid-14b38a86-c849-4255-b3ff-bcb182590014" d="M867.37,323.78c13.55,8.43-6.76,58.92-29.89,44.97-15.07-9.09,15.92-53.67,29.89-44.97Z"/>
  <path class="uuid-19e130c0-99eb-4d32-ae0c-5073982d8225" d="M1061.95,252.49c12.43-3.65,34.58,13.57,36.45,25.81,5.32,34.89-72.16-15.33-36.45-25.81Z"/>
  <path class="uuid-830033b1-3ebb-431f-8eac-1e4e308247f9" d="M741.4,295.95c7.36,16.82-19.97,51.07-35.87,39.99-14.18-9.88,20.36-47.4,35.87-39.99Z"/>
  <path class="uuid-da0a3ac1-644d-4c28-9da5-ff29ce8a37df" d="M1017.84,323.7c17.96-5.73,32.07,38.1,15.58,43.37-18.97,6.07-32.35-38.03-15.58-43.37Z"/>
  <path class="uuid-9f62f215-650a-4a88-82a1-e2af4ce1a982" d="M828.41,241.49c17.92-1.66,5.29,39.97-15.3,42.19-24.09,2.6-4.73-40.34,15.3-42.19Z"/>
  <path class="uuid-15ce85c2-121d-402f-828d-049a898acd2b" d="M935.58,252.49c20.41-6.1,27.46,31.63,20.2,36.78-16.76,11.91-40.06-30.84-20.2-36.78Z"/>
</svg>