<?xml version="1.0" encoding="UTF-8"?>
<svg id="uuid-8a0f30b0-63ec-4924-84b6-2f7ba40f1143" data-name="Layer 1" xmlns="http://www.w3.org/2000/svg" viewBox="0 0 1920 1080">
  <defs>
    <style>
      .uuid-1f878992-6627-4ebe-997e-f81742e9752e {
        fill: #733a11;
      }

      .uuid-391a06a7-59e3-4ed8-8de3-904e5aa70336 {
        fill: #7e4318;
      }

      .uuid-bb35247d-d110-4501-ab36-627c824926ec {
        fill: #e36b11;
      }

      .uuid-f6afbe6d-1f06-4589-bd1a-a2a9a67ec9f3 {
        fill: #e46c11;
      }

      .uuid-d8f0aa8a-7b31-4a6b-b015-30bac02b1822 {
        fill: #fc9227;
      }

      .uuid-9ee010f8-566e-412a-8523-3ceb05a050d6 {
        fill: #381206;
      }

      .uuid-6d4e77c4-80f4-4295-9632-a36dbc975a89 {
        fill: #ee7416;
      }

      .uuid-6d211084-3bdc-48f1-976c-f50f9fe48792 {
        fill: #40150a;
      }

      .uuid-7f11ae43-2c93-4654-9e45-06ccd4544104 {
        fill: #e3ddd4;
      }
    </style>
  </defs>
  <path class="uuid-7f11ae43-2c93-4654-9e45-06ccd4544104" d="M801.75,693.3l8.05,1.83c92.89,72.53,232.41,58.15,306.39-34.34l7.41-3.65c3.12,2.11,3.82-3.06,7.71-3.19,31.26-1.07,103.69,29.68,52.55,62.54-81.64,52.45-280.19,63.14-369.42,28.31-16.44-6.42-50.19-24.32-38.77-45.93,2.01-3.8,11.15-11.94,15.76-10.75,3.27.84,6.84,9.94,10.32,5.18Z"/>
  <path class="uuid-1f878992-6627-4ebe-997e-f81742e9752e" d="M1123.61,657.14c-75.9,101.34-224.6,116.99-321.86,36.16-13.56-11.27-25.43-24.19-36.16-37.97-1.12-6.07-2.12-18.66,7.23-14.47,3.27-2.29,4.47-.48,3.62,5.42l7.2,3.27c135.45,163.86,390.51,49.09,368.27-161.7-3.95-37.42-24.08-75.36-51.78-100.63-24.77-22.6-43.32-27.72-74.61-35.56-2.15-.54-3.79-1.81-4.97-3.74l-3.55,3.4c-1.3.64-27.18.86-27.19-3.4-5.76.07-1.23-9.29,1.38-13.42l-39.63-11.32-1.53-4.2h1.81c21.74,2.4,37.15,10.35,57.46,13.96,43.7,7.78,64.98,7.42,100.8,38.43,82.4,71.33,75.18,203.41,13.51,285.74Z"/>
  <path class="uuid-391a06a7-59e3-4ed8-8de3-904e5aa70336" d="M950.02,319l54.15,15.46,38.06,4.45c.46,3.1-4.3,1.93-6.29,1.77-3.64-.3-7.08-1.81-10.88-1.96-4.38-.17-8.5,1.97-12.25,1.6-8.49-.84-12.96-11.36-23,2.17,5.7.2,11.48-.21,17.19.02,2.2.09,6.72-1.37,6.3,1.79l-24.4,1.85.9,1.78-2.05,3.94c-12.24,2.23-24.36,6.63-34.29,14.25l-5.25-.11-.39,4.75c4.71,10.53,3.03,17.39-5.04,20.56l-4.84,5.42c-32.26,10.97-61.15,30.16-80.84,58.29l-6.54,3.2c-3.64,3.34-5.39-.15-4.38-4.63,5.59-24.86,36.55-52.6,59.02-63.95-6.61-14.61,8.99-25.85,19.79-33.11,13.05-8.78,29.04-16.9,44.9-17.65-.55-2.67,4.59-.79,4.32-.84-61.99-10.96-117.37-4.89-167.26,36.75-78.19,65.26-93.34,173.93-35.56,257.74l1.4,8.32c-9.79,4.91-.05,13.86-1.83,16.27-.92,1.25-4.44-5.86-5.41-1.81-22.65-29.07-39.91-64.36-45.21-101.26-1.3-23.43-.68-47.15,1.81-70.52,12.16-62.59,61.09-125.82,119.34-151.89,34.85-11.07,71.04-20.6,108.49-12.66Z"/>
  <path class="uuid-6d211084-3bdc-48f1-976c-f50f9fe48792" d="M951.83,319c-.6-.07-1.21.06-1.81,0-40.03-3.9-63.14-.7-100.6,12.42-2.31.81-6.13,4.08-7.89.24,32.68-14.63,75.48-21.66,110.3-12.66Z"/>
  <path class="uuid-9ee010f8-566e-412a-8523-3ceb05a050d6" d="M720.38,554.07c-3.22-22.45-2.52-48.22,1.81-70.52l-1.81,70.52Z"/>
  <path class="uuid-d8f0aa8a-7b31-4a6b-b015-30bac02b1822" d="M772.82,640.86c-56.59-78.18-53.82-175.64,10.9-248.58,47.82-53.89,122.03-76.36,191.61-55.18.46,3.38-3.59,1.21-5.42,1.79-19,1.57-36.85,11.36-53.49,20.51-16.98,13.59-35.27,23.5-54.87,29.72,14.04-2.3,16.91,5.88,11.67,16.87-2.28,4.77-5.04,9.25-8.05,13.62-22.45,30.53-46.53,63.64-48.24,102.85l27.34-59.45,6.31-4.78c22.28-34.21,53.67-54.63,92.22-66.9,5.48-5.71,20.55-13.35,26.22-7.23,2.15-6.54,22.96-4.61,27.12,0l.82-1.62c-10.8-2.09-21.66-3.89-32.57-5.4-7.2-.81-13.6-4.29-16.17-11.07,9.31-9.51,28.33-16.5,41.59-18.08,7.9-.94,22.55-.61,30.74,0,75.13,42.83,73.05,138.94,33.77,208.03-55.94,98.4-173.09,153.71-275.48,89.18l-2.4,1.14c-1.53-1.99-2.4-3.75-3.62-5.42Z"/>
  <path class="uuid-6d4e77c4-80f4-4295-9632-a36dbc975a89" d="M776.43,646.29c.16-3.17-1.7-7.16,3.62-4.52,41.95,20.78,70.63,33.92,119.73,25.71,110.99-18.55,216.11-158.69,164.46-268.31-9.5-20.16-25.27-39.53-46.4-47.61l2.7-3.62c74.48,5.59,130.75,75.27,135.69,147.29,14.78,215.64-248.59,321.69-379.8,151.06Z"/>
  <path class="uuid-391a06a7-59e3-4ed8-8de3-904e5aa70336" d="M787.28,664.35c-8.14,2.04-9.4,5.6-14.46-3.58,6.31-.18,11.39-4.09,14.46,3.58Z"/>
  <rect class="uuid-391a06a7-59e3-4ed8-8de3-904e5aa70336" x="1022.36" y="342.52" width="9.02" height="3.6"/>
  <path class="uuid-f6afbe6d-1f06-4589-bd1a-a2a9a67ec9f3" d="M969.91,338.89c-14.31,4.53-66.31,27.14-62.94,46.23.42,2.35,5.57,2.02,5.07,3.49-.99,2.87-21.58,13.69-26.17,17.22-16.24,12.5-27.23,29.3-35.83,47.67-1.65,3.52.63,4.52.53,4.74-11.88,24.7-21.24,44.71-32.05,70.12-.94,2.22-.99,5.33-4.1,5.83-5.03-25.61,7.95-54.25,20.22-76.49,9.39-17.01,26.61-36.31,34.79-52,1.82-3.5.18-8.82,4.63-11.65-16.44-4.86-30.56,4.13-45.21,9.04-1.29.43-7.01,2.59-4.53-.91,6.25-5.23,13.39-8.56,20.87-11.68,9.82-4.1,21.98-6.02,30.2-9.58,15.28-6.62,35.48-24.72,55.32-33.29,11.65-5.03,26.69-12.65,39.19-8.73Z"/>
  <path class="uuid-bb35247d-d110-4501-ab36-627c824926ec" d="M948.21,366.01c5.02-.96,6.75,4.5,8.65,5.28,13.07,5.4,38.29,1.99,49.21,16.4-3.35,1.09-7.91-3.6-9.94-3.6h-27.12c-1.45,0-22.69,6.11-26.22,7.23,7.24-9.87,3.44-9.65,1.89-17.29-2.09-10.32,2.8-7.28,3.53-8.02Z"/>
</svg>