<?xml version="1.0" encoding="UTF-8"?>
<svg id="uuid-c8c5d794-c976-4ec3-a4ed-44995d791509" data-name="Layer 1" xmlns="http://www.w3.org/2000/svg" viewBox="0 0 1366 768">
  <defs>
    <style>
      .uuid-962b9fd1-e406-4640-aeb6-5b1a1759cdc8 {
        fill: #4a3a26;
      }

      .uuid-6de5c7cf-4d9f-46b6-a37d-c3dc46f08a77 {
        fill: #fef1d2;
      }

      .uuid-79fdef1b-95a5-458b-89ba-d5e63d74b439 {
        fill: #fef2d3;
      }

      .uuid-f0e0e861-28b8-40e4-acb1-cf5c7a5e9850 {
        fill: #fee7b6;
      }

      .uuid-498e8a45-6de1-43e8-a163-7d83c09c9025 {
        fill: #edc380;
      }

      .uuid-15c2cb08-aabe-40b1-8f7a-bc3c2b42800a {
        fill: #eec380;
      }

      .uuid-ed43953e-9a71-4d17-a0e0-9062f9aa6bca {
        fill: #eec37e;
      }

      .uuid-21a6b455-3c68-417d-82a6-a026d8b4bd9e {
        fill: #f8edb1;
      }

      .uuid-7327c897-66d0-420e-a0a3-0a2175b3a0a0 {
        fill: #fef2d4;
      }

      .uuid-7284a9c9-8cc5-498d-b1b6-eec344903566 {
        fill: #e1dbd2;
      }
    </style>
  </defs>
  <path class="uuid-7284a9c9-8cc5-498d-b1b6-eec344903566" d="M709.71,411.65c.08-.01,3.91-4.89,4.26-4.77l7.92-4.38c8.92.92,18.24,1.86,26.26,5.52,20.34,9.26,4.88,18.19-7.98,24.24-15.23,7.16-35.33,13.17-52.4,16.29-15.16,2.77-37.71,4.41-52.69.87-.9-.21-11.86-1.01-11.66-2.08,10.12,1.6-43.27-9.06,5.29-24.16l27.33-5.01c11.66-2.79,43.56,6.99,52.82.83,1.91-1.27.42-7.29.84-7.35Z"/>
  <path class="uuid-962b9fd1-e406-4640-aeb6-5b1a1759cdc8" d="M740.89,383.19c-.51-4.28-2.26-9.51-5.36-12.56-.05-.07-.09-.27-.23-.47-.87-1.18-2.38-2.56-3.51-3.51-.47-.4-.88-.82-1.41-1.17-3.06-2.02-7.13-3.13-10.77-3.28.67-1.81,1.72-3.47,2.28-5.34.45-1.51.89-3.65,1-5.2.43-5.82-.44-10.57-3.98-15.22-.9-1.18-1.93-2.29-3.04-3.28-3.23-2.87-7.76-4.95-12.09-5.36-1.28-.12-3.59.23-4.61-.08-.49-.15-1.19-1.19-1.57-1.59-1.07-1.13-2.05-2.29-3.28-3.28-10.53-8.47-26.49-8.07-37.48-.7-.84.56-1.58,1.22-2.34,1.87-.93.8-1.83,1.6-2.58,2.58-.23.3-.34.54-.47.7-5.95,6.24-8.58,15.32-8.21,23.88-4.58.46-8.65,2.24-12.17,5.16-2.38,1.98-4.61,4.64-5.86,7.5-2.68,6.14-2.06,13.73,1.41,19.44.9,1.48,1.76,2.1,2.81,3.28-7.4,7.68-10.39,18.12-7.04,28.47.93,2.87,2.56,6.19,4.69,8.31.06.08.09.27.23.47,2.09,2.87,5.93,5.56,9.13,7.03,8.01,3.67,16.8,3.12,24.59-.7.53-.26,3.47-2.04,3.73-1.86,1.55,3.13,4.13,5.62,7.05,7.48,12.31,7.87,30.04,5.57,38.41-6.79.21-.31.48-.57.7-.94,2.08-3.48,3.53-7.89,3.75-11.95.39-.24.23-.89.24-1.28.01-.97.14-2.53,0-3.4,5.42-.24,10.95-1.3,15.46-4.45.47-.33.75-.59,1.17-.94,6.15-5.15,10.29-14.8,9.34-22.81ZM635.83,430.29c.21.1.42.21.63.31-.21-.1-.42-.2-.63-.31ZM714.18,418.05c-.05.28-.1.55-.16.83.05-.27.11-.55.16-.83Z"/>
  <path class="uuid-f0e0e861-28b8-40e4-acb1-cf5c7a5e9850" d="M730.15,370.16c-.19-.16-.37-.39-.47-.47-4.21-3.59-10.8-5-16.1-3.35-1.13.12-1.51,0-2.41-.64.25-1.05-.46-1.22-.98-.31-2.01,1.58-7.61,4.38-9.09.94-.69-1.62.54-2.22,1.87-2.74,6.62-1.67,12.7-7.96,13.11-14.98.15-2.53-.23-5.63-.57-8.12-.78-1.68-1.68-3.27-2.7-4.76-.08-.07-.15-.17-.23-.23-2.82-2.6-7.16-4.16-11.01-3.51-.04.36.32.83.47,1.17l-.05.34c2.13,4.11,4.62,9.17,2.4,13.71-.52.83-1.35.92-2.28.93l-.06.25-.48.3c-1.49,6.42-9.05,16.2-15.89,17.21-1.6.24-3.32.49-1.34-.91,14.41-9.67,18.43-27.66,4.84-40.24.55.26,1.13.47,1.16-.25-.82-.55-2.01-1.37-2.81-1.64-7.56-3.87-17.92-3.42-25.3.7-.18.09-.44.32-.7.47-1.72.63-3.44,1.92-4.68,3.28-1.28.65-2.35,1.92-3.28,3.04,0,.08.01.16,0,.23-7,9.24-8.28,21.75-2.58,31.85-.08.45.39,1.05.7,1.41,3.52,3.98,3.52,5.69,0,5.15-.61-.37-2.74-2.82-3.28-3.51-.34-.86-1.15-2.34-1.87-2.81-1.24-2.1-2.16-4.54-2.76-7.33-12.08.98-19.45,13.02-14.81,24.2.35,1.16.98,2.26,1.87,3.28.23.24.46.47.7.7l.77.42c2.49-1.73,4.57-2.92,7.58-3.67,1.89-.47,7.22-1.33,6.17,2.08-.2.29-.44.52-.73.71-5.98.93-11.31,4.28-14.96,8.43-.71.33-1.54,1.33-1.64,2.11-4.17,7.01-4.66,14.64-1.87,22.25-.1.48.27,1.39.7,1.64.39.75,1.01,1.77,1.64,2.34.3-.04.18-.31.08-.47,3.28,4.52,12.05,5.39,17.19,4.82,11.4-1.27,19.78-10.7,24.31-20.61,5.15-2.6,8.2,8.22,5.88,11.78-1.14,3.24-1.03,6.15.33,8.73,16.1,11.54,36.34-12.83,17.86-24.05-2.47-.65-4.84-1.42-4.27-4.51,2.06-6.15-.42-12.74-3.87-17.95-3.24-3.5.94-.99,2.2.21,3.93,3.74,7.07,8.74,6.76,14.38l.52.51v.23c.16-.08.31-.15.47-.23,3.1-.95,6.21.48,8.67,2.34.61.39,1.04.64,1.64,1.17l.26-.49c16.35,7.05,27.95-7.88,23.85-23.49.44.36-.06-1.71-.92-2.02Z"/>
  <path class="uuid-498e8a45-6de1-43e8-a163-7d83c09c9025" d="M690.33,324.49c.38.39.72.47,1.17.94,2.09,1.72,4.14,4.21,5.86,6.32l.23.47c2.52,2.79,4.24,11.36,4.24,11.36.11,1.46.14,2.91.11,4.37.31.12.39.19.09.43.04,4.44-7.51,13.74-11.32,15.97-2.59,1.52-4.33,2.23-7.3,2.11-.49-.02-1.37.58-.59-.64.64-1,3.43-2.79,4.46-3.73,11.79-10.82,13.53-23.88,2.46-36.19-.75-.83-2.24-1.94-2.06-2.98.75.24,1.93,1.1,2.65,1.58Z"/>
  <path class="uuid-7327c897-66d0-420e-a0a3-0a2175b3a0a0" d="M669.19,327.83c2.51-.3,7.34.63,9.64,1.72,1.45.69,1.82,2.78,1.14,4.14-.75,1.51-5.38,2.9-7.02,3.75-2.51,1.3-4.9,3.53-6.74,5.68-1.29,1.51-4.82,7.35-6.26,7.8-2.37.73-4.96-3.83-5.21-5.71-.09-.67.18-1.99.29-2.72,1.12-6.91,7-13.81,14.16-14.65Z"/>
  <path class="uuid-79fdef1b-95a5-458b-89ba-d5e63d74b439" d="M650.94,393.31c-.13.22-1.34.57-1.67.79-3.5,2.29-6.08,5.65-7.53,9.57-.64,1.75-1.41,7.27-3.15,7.85-.8.27-1.76.1-2.48-.36-.84-.54-2.82-3.12-3.21-4.06-2.79-6.84,2.85-14.99,9.29-17.26,1.97-.69,5.38-.24,7.27.69.83.41,1.99,1.88,1.46,2.78Z"/>
  <path class="uuid-6de5c7cf-4d9f-46b6-a37d-c3dc46f08a77" d="M633.73,370.78c-.57-.66-.54-2.11-.57-3.07-.07-2.81-.39-3.84,1.9-5.62.5-.39,2.8-1.92,3.27-2.11,1.11-.46,2.66.24,3.29,1.15.5.73-.78,2.49-1.12,3.37-.74,1.95-1.34,3.99-1.99,5.97-1.01,2.1-3.39,1.94-4.79.31Z"/>
  <path class="uuid-21a6b455-3c68-417d-82a6-a026d8b4bd9e" d="M699.93,433.17c-3.42,1.96-6.8,3.06-10.77,3.28-1.11.31-2.37.18-3.51,0-4.01-.24-7.87-1.61-11.24-3.75-.01-.26.08-.25.3-.19.58.15,2.24,1.29,3.05,1.64,7.52,3.17,14.02,2.59,21.23-.86.24-.11.8-.58.94-.11Z"/>
  <path class="uuid-ed43953e-9a71-4d17-a0e0-9062f9aa6bca" d="M709.3,405.3c-.11-.52-.42-1.01-.7-1.41-1.52-2.6-3.79-4.72-6.32-6.32l-5.45-2.46c-.66-.62-.89-1.6-.64-2.46-.18-1.44-.09-3.03-.34-4.46-.56-3.18-3.48-7.66-5.74-9.95-.56-.57-4.73-4.42-5.13-2.3-.11.59,1.01,1.37,1.33,1.88,3.45,5.48,5.23,9.92,4.24,16.58-.06.38-.39.65-.47,1.17-.16,1.12.04,2.34.82,3.19,1.12,1.22,2.79,1.17,4.19,1.9,6.05,3.13,8.46,11.46,5.03,17.37-4.53,7.78-13.58,11-21.72,6.59-3.19-1.73-1.85-6.16-1.31-9.01.21-1.1.86-2.64.93-3.7.22-3.09-3.3-12.03-7.61-8.59-.58,1.45-1.25,2.91-2.11,4.22-6.7,10.29-14.39,17.25-27.51,16.28-3.91-.29-9.05-2.02-11.72-4.91-.27.14.04.71.12.94.53,1.45,3.17,4.2,4.45,5.15,1.17,1.17,3.11,2.28,4.68,2.58,8.23,2.95,16.78,2.27,24.12-2.58.21-.13.58-.23.94-.47,1.22-.97,2.28-2.09,3.28-3.28.39-.52,1.07-1.37,1.41-1.87,1.91-2.34,3.09-5.12,3.55-8.34.33-1.44,1.59-2.82,2.73-1.2,0,0,.75,1.39.76,2.16.04,2.03-2.76,7.92-4,9.72-.71.44-1.26,1.14-1.64,2.11-.01.08,0,.16,0,.23-1.68,1.24-1.6,2.72.23,4.45,1.19,1.85,2.72,2.84,4.45,4.22h.23c7.76,4.76,17.17,5.38,25.53.47l.47-.23c2.51-1.52,5.75-4.51,7.26-7.03.9-1.06,1.73-2.85,1.87-4.22,1.62-5.57,1.94-10.93-.23-16.4Z"/>
  <path class="uuid-15c2cb08-aabe-40b1-8f7a-bc3c2b42800a" d="M734.13,374.85c-.63-1.03-.82-1.26-1.64-2.11-.97-1.01-1.64-2.25-2.81-3.04-.21,1.51.47.97.66,1.56,3.61,12.59-2.43,27.16-17.38,25.58-2.4-.25-4.44-1.73-6.7-1.73l.7,1.06c1.42,1.27,2.68,2.87,3.75,4.45.36.58,1.04,1.69,1.41,2.11.77,1.11,1.39,2.5,1.86,4.15,3.86.5,7.69-.02,11.49-1.58,1.05-.22,2.38-1.03,3.04-1.87,1.86-1.45,3.25-3.32,4.68-5.15,2.17-3.32,4.04-7.24,3.98-11.24.3-4.08-.94-8.7-3.04-12.18Z"/>
  <path class="uuid-15c2cb08-aabe-40b1-8f7a-bc3c2b42800a" d="M718.91,351.66c.07-1.6.15-3.66.01-5.32,0-.26,0-.51-.01-.77.05-1.67-.81-3.88-1.87-5.15-1.04-1.76-2.63-3.4-4.22-4.68-.45.4-.59.04-.23.58.92,1.4,2.62,3.71,2.73,5.42.12,1.75.11,3.28.28,5.15.59,6.44-4.52,13.04-10.28,15.43-1.87.78-6.23,1.32-4.49,4.5,1.87,3.43,7.47.68,9.72-1.1.25-.2.05-.56.4-.46,0,.18.12.34.24.47.53-.48,1-.95,1.41-1.41.9-.77,1.02-.95,1.64-1.87,4.07-4.58,4.77-12.28,4.68-10.77Z"/>
  <path class="uuid-962b9fd1-e406-4640-aeb6-5b1a1759cdc8" d="M689.16,436.45c-.02.11-.13.22-.23.23-.93.09-2.47.13-3.28-.23,1.08.06,2.43.06,3.51,0Z"/>
</svg>