<?xml version="1.0" encoding="UTF-8"?>
<svg id="uuid-3c326e3b-0e38-4193-89bd-1c701d69eccb" data-name="Layer 1" xmlns="http://www.w3.org/2000/svg" viewBox="0 0 1366 768">
  <defs>
    <style>
      .uuid-fbf4bef7-3865-4be6-975e-4352d44c22b4 {
        fill: #fbcb81;
      }

      .uuid-5e4e58c5-2944-43de-bd96-69aed1438ea6 {
        fill: #e2dcd2;
      }

      .uuid-183b21fe-1b62-4b55-880b-1e9d696ec570 {
        fill: #220703;
      }

      .uuid-04ad0036-6345-402d-acf4-5158185c3b3b {
        fill: #70441d;
      }

      .uuid-d1e88c52-a95f-4928-9ae0-119537419e7c {
        fill: #f6af54;
      }

      .uuid-f9df3253-21c6-4be0-ad04-b0d5cd5cae62 {
        fill: #e4903b;
      }
    </style>
  </defs>
  <path class="uuid-04ad0036-6345-402d-acf4-5158185c3b3b" d="M757.06,388c-.53,7.36-.53,14.63,0,21.82-.88,11.57-6.74,28.93-12.93,38.79-.67,6.67-7.93,13.24-13.1,17.72-24.16,20.96-60.12,24.54-88.75,11.01-6.53-3.09-15.8-7.69-18.55-14.19-45.5-40.79-23.8-123.22,12.1-163.65,61.5-69.27,117.87,30.73,121.23,88.5Z"/>
  <path class="uuid-5e4e58c5-2944-43de-bd96-69aed1438ea6" d="M623.74,463.15c35.49,31.82,94.58,26.58,120.4-14.54,13.32,2.79,36.25,14.36,15.6,27.31-27.9,17.49-91.54,20.62-122.08,10.08-4.59-1.59-14.41-6.44-17.01-10.46-2.75-4.26-2.71-11.58,3.1-12.39Z"/>
  <path class="uuid-183b21fe-1b62-4b55-880b-1e9d696ec570" d="M757.06,409.82c-1.34-.84-.81-3.07-.82-4.43-.06-5.56-.61-12.11.82-17.38.37,6.4.48,15.48,0,21.82Z"/>
  <path class="uuid-d1e88c52-a95f-4928-9ae0-119537419e7c" d="M696.46,286.99c.15.83.22,1.7-.59,2.01,24.84,33.01,38.4,81.62,18.79,119.97-21.07,41.21-74.84,51.84-105.04,15.5l-1.24.7c-7.19-21-4.1-43.73,2.02-64.64,9.54-32.57,43.91-95.93,86.05-73.53Z"/>
  <path class="uuid-f9df3253-21c6-4be0-ad04-b0d5cd5cae62" d="M696.46,286.99c61,32.41,84.18,176.16-7.77,189.79-31.4,4.65-77.17-17.12-80.3-51.62-.08-.83-.58-4.16.8-4.03,7.72,12.46,24.07,21.17,38.5,23.32,15.29,2.27,29.45-1.71,42.25-10.06,33.18-21.66,38.39-66.41,26.75-101.76-5.28-16.03-13.09-31.13-23.44-44.44l3.22-1.2Z"/>
  <path class="uuid-fbf4bef7-3865-4be6-975e-4352d44c22b4" d="M660.68,303.34c1.63-.35,5.11-.82,5.77,1.14,2.38,7.12-10.6,29.34-15.64,35.05-13.62,15.43-16.87-.12-11.61-13.23,2.83-7.05,13.87-21.33,21.48-22.96Z"/>
</svg>