<?xml version="1.0" encoding="UTF-8"?>
<svg id="uuid-c740b7c3-fe2f-42f5-a7de-2ba6ffcf32d0" data-name="Layer 1" xmlns="http://www.w3.org/2000/svg" viewBox="0 0 1366 768">
  <defs>
    <style>
      .uuid-aca9ffbc-a26c-429b-a656-68d38a78191e {
        fill: #704f13;
      }

      .uuid-ab69bdf5-b7cc-4446-be56-5cd0fdeabd6d {
        fill: #e3ddd5;
      }

      .uuid-98e13edb-53ff-4c74-90a9-bfe7d7c7f2cb {
        fill: #674c08;
      }

      .uuid-09aa5b8d-bcd0-431f-baf5-13d6ed75e123 {
        fill: #fcde6d;
      }

      .uuid-1ca332ce-762d-4ea1-baf0-b81722430980 {
        fill: #2a1403;
      }

      .uuid-0f17865c-ba11-4e0e-83fc-4494c3f07a63 {
        fill: #fdcc2a;
      }

      .uuid-1e28013c-1728-4b8b-ae9a-060dc7823987 {
        fill: #f0ac11;
      }
    </style>
  </defs>
  <path class="uuid-ab69bdf5-b7cc-4446-be56-5cd0fdeabd6d" d="M732.02,448.02c1.37-.76,3.8-2.41,5.07-2.37,3.62.11,18.04,4.48,22,6,12.51,4.8,15.33,9.18,2.67,16.95-26.08,16.01-98.79,18.34-128.89,13.6-7.29-1.15-26.78-5.54-28.36-13.91-.27-1.43-.7-3.2,1.55-2.72l2.17-.42c4.24,2.93,9.22,3.91,14.25,3.22,11.19-2.72,21.26-2.54,32.38,1.29,26.85,4.23,53.78-5.64,74.78-22.07l2.39.44Z"/>
  <path class="uuid-98e13edb-53ff-4c74-90a9-bfe7d7c7f2cb" d="M732.02,448.02c-4.16,2.3-7.85,5.72-12.03,8.3-18.37,11.38-39.09,17.39-60.91,15.6-6.61-.54-14.5-3.94-20.75-4.04-11.41-.19-20.41,6.53-32.28-2.33-12.6-9.4-5.9-25.18-7.18-37.86-.4-3.99-2.29-8.93-3.18-13.16,0-4.46,4.84-1.29,5.62,2.48l1.56.71,1.91,1.29c3.39,9.63,2.61,18.57,1.34,28.29-.4,4.99,1.74,9.24,6.23,11.63-.15.91.41,1.79,1.68,2.65l1.82-.95c2.37.97,4.88,1.58,7.41,1.37,7.5-1.72,13.58-2.5,21.58-1.33,71.25,21.47,142.91-63.04,112.83-130.19-1.79-8.94-2.98-17.98-3.58-27.13l1.05-2.02c-1.97-2.44-3.91-4.56-6.43-6.89l.05-1.88c-1.22-2.81,1.5-2.33,3.68-1.11-1.98-2.46-1.88-3.69.3-3.67,12.51,8.94,9.2,20.76,11.38,33.66,1.14,6.76,4.45,12.81,6.1,19.41,10.16,40.61-8.73,80.1-38.21,107.17Z"/>
  <path class="uuid-aca9ffbc-a26c-429b-a656-68d38a78191e" d="M752.75,287.78c-1.45,1,2.07,2.81,2.39,3.59.08.21-2.86.78-1.6,3.58-1.39-.06-3.16-4.56-4.78-2.39-1.69.63-3.69.39-6.01-.71-7.3.45-14.69,1.5-22.16,3.16-66.89-12.94-135.52,52.26-116.6,120.37l-1.12,2.36-1.6,2c-.72-.71-1.16-2.37-2-2.79-1.74-.88-.62,1.97-1.98,1.59l1.57-3.59-1.18-1.19c-.92,5.54-1.26-3.77-1.99.79-.34-1.63-1.29-3.6-1.59-5.58-.15-8.27-.38-17.22-.8-25.51,3.57-48.69,52.75-94.49,100.86-98.05,9.39-.69,17.85,1.76,26.29,1.65,11.74-.15,19.96-8.08,32.3.73Z"/>
  <path class="uuid-1ca332ce-762d-4ea1-baf0-b81722430980" d="M594.09,408.96c-1.15-7.46-1.35-17.94-.8-25.51,1.32.83.8,3.03.81,4.37.06,5.91-.1,11.04.56,16.99.14,1.28.91,3.32-.57,4.14Z"/>
  <path class="uuid-0f17865c-ba11-4e0e-83fc-4494c3f07a63" d="M748.76,292.56c3.7,2.34,5.02,4.79,6.38,8.77l-1.73.54c-2.84,4.94-8.65,7.03-14.06,7.5,13.8,25.97-1.51,59.09-19.32,79.45-23.15,26.46-61.56,46.82-97.12,44.64,9.85,5.85.18,22.9-7.95,25.67,1.42,1.65,1.18,3.01-.94,2.45-14.53-6.54-8.03-17-8.28-28.96-.1-5.13-1.9-9.94-2.88-14.89-.93-4.68-2.51-9.24-3.09-14.05-7.4-61.46,49.12-115.13,109.51-111.9,3.97.21,7.63,1.78,11.99,1.62,9.5-.35,17.95-6.86,27.49-.84Z"/>
  <path class="uuid-1e28013c-1728-4b8b-ae9a-060dc7823987" d="M614.03,461.58c2.21-.86-1.56-1.16-1.58-1.99-.05-1.78,6.14-3.59,7.2-4.75.97-1.07,6.34-12.25,6.42-13.6.27-4.37-6.36-7.69-8.85-10.75,10.66,3.14,21.62,1.67,32.23-.87,32.74-7.83,66.49-30.95,82.71-60.79,9.64-17.74,17.23-43.46,3.85-61.12,5.97.75,15.57-2.22,16.75-8.77l2.38,2.39c2.64,7.73,1.1,15.56,2.58,23.33,1.44,7.56,6.3,15.56,7.69,24.2,9.43,58.68-43.83,121.14-103.98,116.73-9.29-.68-16.43-4.67-26.27-4-9.04.61-11.63,4.26-21.14-.01Z"/>
  <path class="uuid-aca9ffbc-a26c-429b-a656-68d38a78191e" d="M602.07,446.43c-.29-2.05.42-4.73-.03-6.63-.15-.65-1.45-.21-1.64-1.69-.36-2.78.38-6.32.07-9.22l.8,2.39c3.3-1.05-.9-5.76,2.38-7.17,1.22,6.44.91,13.09.03,19.55-.16,1.2-.11,2.45-1.61,2.77Z"/>
  <path class="uuid-09aa5b8d-bcd0-431f-baf5-13d6ed75e123" d="M664.04,311.09c5.51-1.06,7.03.88,5.59,6.39-.91,3.51-16.23,19.09-19.8,21.65-7.36,5.27-17.62,7.72-14.89-5.33,1.76-8.46,21.03-21.16,29.1-22.71Z"/>
</svg>