<?xml version="1.0" encoding="UTF-8"?>
<svg id="uuid-d32378b7-9d2f-43b5-9499-2c672f7485ba" data-name="Layer 1" xmlns="http://www.w3.org/2000/svg" viewBox="0 0 1920 1080">
  <defs>
    <style>
      .uuid-1f991b8b-44e8-4f39-aff6-1f39da470fd5 {
        fill: #fbcb81;
      }

      .uuid-8a770368-644f-4070-aff7-0e2aa16e23fe {
        fill: #e2dcd2;
      }

      .uuid-508bd707-e032-490c-b030-92190da07613 {
        fill: #220703;
      }

      .uuid-18d6b2bc-8c06-408c-88bc-179e62334e31 {
        fill: #70441d;
      }

      .uuid-bcc2b0f8-85b3-40fb-aa02-2d6cf9fc70a3 {
        fill: #f6af54;
      }

      .uuid-0266453c-aac4-4be3-a044-587706d25d51 {
        fill: #e4903b;
      }
    </style>
  </defs>
  <path class="uuid-18d6b2bc-8c06-408c-88bc-179e62334e31" d="M1079.95,546.48c-.87,11.91-.87,23.69,0,35.33-1.42,18.75-10.92,46.86-20.94,62.82-1.08,10.81-12.85,21.45-21.21,28.7-39.13,33.94-97.37,39.75-143.74,17.83-10.58-5-25.59-12.46-30.04-22.98-73.69-66.07-38.54-199.56,19.6-265.04,99.6-112.19,190.9,49.76,196.34,143.34Z"/>
  <path class="uuid-8a770368-644f-4070-aff7-0e2aa16e23fe" d="M864.02,668.18c57.49,51.54,153.18,43.05,194.99-23.56,21.57,4.51,58.71,23.26,25.26,44.24-45.18,28.32-148.26,33.4-197.72,16.33-7.44-2.57-23.33-10.42-27.55-16.95-4.46-6.89-4.39-18.75,5.02-20.07Z"/>
  <path class="uuid-508bd707-e032-490c-b030-92190da07613" d="M1079.95,581.81c-2.17-1.36-1.31-4.97-1.33-7.18-.09-9.01-.98-19.62,1.33-28.16.6,10.37.78,25.06,0,35.33Z"/>
  <path class="uuid-bcc2b0f8-85b3-40fb-aa02-2d6cf9fc70a3" d="M981.8,382.89c.25,1.35.36,2.76-.95,3.25,40.23,53.46,62.19,132.18,30.42,194.31-34.12,66.74-121.21,83.96-170.11,25.1l-2,1.13c-11.64-34.02-6.64-70.83,3.28-104.69,15.46-52.75,71.11-155.36,139.37-119.09Z"/>
  <path class="uuid-0266453c-aac4-4be3-a044-587706d25d51" d="M981.8,382.89c98.79,52.49,136.33,285.31-12.59,307.38-50.86,7.54-124.98-27.73-130.06-83.6-.12-1.34-.93-6.74,1.29-6.53,12.5,20.18,38.98,34.29,62.36,37.76,24.76,3.68,47.69-2.76,68.42-16.29,53.74-35.07,62.17-107.55,43.32-164.8-8.55-25.95-21.21-50.41-37.96-71.98l5.22-1.94Z"/>
  <path class="uuid-1f991b8b-44e8-4f39-aff6-1f39da470fd5" d="M923.86,409.37c2.64-.56,8.28-1.32,9.34,1.84,3.86,11.54-17.16,47.51-25.33,56.76-22.06,24.99-27.32-.19-18.8-21.42,4.58-11.42,22.46-34.55,34.79-37.18Z"/>
</svg>