<?xml version="1.0" encoding="UTF-8"?>
<svg id="uuid-3fa9423d-7318-4944-81c1-1ea2489959b9" data-name="Layer 1" xmlns="http://www.w3.org/2000/svg" viewBox="0 0 1366 768">
  <defs>
    <style>
      .uuid-e095be51-ac18-485e-b2ed-de689129e97e {
        fill: #0b0703;
      }

      .uuid-146f3b0c-4b56-474b-bdec-2b330b8daa14 {
        fill: #2b5e19;
      }

      .uuid-0a731151-df35-4d26-9c1e-6c9e63d07ebc {
        fill: #497a28;
      }

      .uuid-7a7d4d6d-b564-4dd4-b71c-4641d77142c0 {
        fill: #0a0703;
      }

      .uuid-71cbcac6-4858-4740-928c-6969a1110356 {
        fill: #615234;
      }

      .uuid-25c261e5-6f22-4121-8e68-e15e987fbf98 {
        fill: #e3ddd5;
      }

      .uuid-122100d9-3b30-44ea-be78-ac18a065cb80 {
        fill: #3a6c22;
      }

      .uuid-aaf94295-ed1f-496b-a8f9-79501324687d {
        fill: #386920;
      }

      .uuid-205940d0-9627-4c04-9102-be48e9d0d23d {
        fill: #3a6b22;
      }

      .uuid-4b49071f-11bb-4b35-85ef-c0f35cb9c6a2 {
        fill: #2c5e19;
      }

      .uuid-6fd19639-96fa-485a-8c24-79c9b5b7558e {
        fill: #0b0903;
      }

      .uuid-8c456744-7311-491b-ac2f-a5783390901f {
        fill: #0c0803;
      }

      .uuid-2c15db84-ae90-4be5-9c7d-72f057ddfd24 {
        fill: #598c32;
      }

      .uuid-42cd5c80-f583-4f3a-9bad-12e26403473b {
        fill: #2f2918;
      }

      .uuid-a45fc0b8-808a-4b3d-bdd3-5e7dd2141771 {
        fill: #54862f;
      }

      .uuid-64f730c6-2af8-4acd-98b3-9a1c156f7726 {
        fill: #0e0b05;
      }

      .uuid-212ca3c8-56e9-4a96-ac45-c7a27369e28c {
        fill: #0b0803;
      }

      .uuid-0dd78fd6-9638-4aa7-922b-8645cefc15d0 {
        fill: #487a28;
      }

      .uuid-5088e72d-3788-4083-abfd-90914be28a55 {
        fill: #568931;
      }

      .uuid-8494bd43-e0f4-448a-ad74-26ceadcfd03c {
        fill: #31641d;
      }

      .uuid-7d52b80d-7e19-4514-bcf8-6ba346754c68 {
        fill: #578a31;
      }

      .uuid-0ec4f762-42c1-4ae0-b102-965c111876f0 {
        fill: #376820;
      }

      .uuid-1ee5038c-1ed7-4c4c-a24f-4f79a314f74f {
        fill: #2b5d19;
      }

      .uuid-898e13aa-dd1c-4020-a4de-c644599aa118 {
        fill: #2a5c18;
      }

      .uuid-c8789dcd-ffb2-4380-9708-72da6eb4447c {
        fill: #110c05;
      }

      .uuid-5c578002-9ab2-483d-b323-15bc0429bc31 {
        fill: #396a21;
      }
    </style>
  </defs>
  <path class="uuid-42cd5c80-f583-4f3a-9bad-12e26403473b" d="M696.53,159.82c1.15,1.36,2.23,2.66,3.04,4.25,3.02,9.44,4.09,19.29,3.19,29.52l.4.53c30.14,1,59.7,10.79,86.25,25.79,16.05,9.67,28.76,20.04,41.28,33.99,10.4,12.96,22.14,29.44,30.54,46.28,12.28,24.61,20.46,52.38,20.45,79.98,2.25,22.13-1.48,44.7-6.17,66.26l.1,1.72c-12.48,48.46-40.17,87.33-81.34,115.33-1.77,3.29-7.98,7.1-11.63,8.58l-2.34-.08c-18.59,9.27-36.81,17.33-57.86,21.87-39.77,8.58-78.29,4.2-115.5-12-18.8-8.19-36.11-19.91-51.85-31.72-20.52-17.28-37.51-37.97-49.78-61.92-8.19-19.67-16.01-39.78-19.45-61.41-7.39-46.46,1.85-92.77,23.09-134.06,12.22-21.33,29.06-40.29,47.95-55.85,12.25-9.27,26.71-18.93,42.01-25.9,24.89-11.33,53.92-17.78,81.3-17.19,3.05.07,1.33,1.19.26.12-.08-.08.06-.38.26-.75,3.52-.53,1.34-6.61,1.34-8.8,0-1.85.6-3.83.51-6.1-.08-2.02-.15-5.32-2.45-5.74.22-.18.38-.33.36-.33-6.43-1.93-10.61-3.28-8.59-11.99,2.58-11.1,19.22-7.55,24.62-.42Z"/>
  <path class="uuid-25c261e5-6f22-4121-8e68-e15e987fbf98" d="M576.34,565.92c.56-.03,1.08,0,1.5.24,5.83,3.22,12.64,7.09,18.24,10.62.41.26.67.74.9,1.29,50.93,27.3,116.79,27.85,167.54,2.43-.31-.32-.53-.58-.48-.67.79-1.25,13.98-7.03,16.26-7.83,5.01-2.81,9.19-5.25,13.96-8.5,8.9,1.81,18.75,3.33,27.3,6.39,9.37,3.35,23.3,11.65,11.88,22.17-16.83,15.51-76.97,21.17-100.19,22.42-40.68,2.2-84.5,1.03-124.97-4.32-17.29-2.28-51.98-8.64-66.14-18.24-5.74-3.9-7.75-10.08-1.55-14.7,7.8-5.81,19.24-7.66,28.34-10.51l7.41-.79Z"/>
  <path class="uuid-6fd19639-96fa-485a-8c24-79c9b5b7558e" d="M780.3,571.99c-2.16,1.21-15.63,7.62-15.78,8.5-52.94,25.84-115.66,24.64-167.54-2.43-7.04-3.43-14.08-7.84-20.64-12.14-7.34-4.82-14.54-10.13-21.25-15.78.57-1.49,1.62.22,2.12.61,53.87,42.36,116.4,58.86,183.5,37.8,13.55-4.25,24.56-10.28,37.15-16.27.62-.29,2.07-1.52,2.43-.3Z"/>
  <path class="uuid-e095be51-ac18-485e-b2ed-de689129e97e" d="M505.32,488.22c-30.7-59.92-29.95-136.83,3.64-195.46,1.22.36,0,1.82-.3,2.44-17.96,37.28-26.68,70.49-24.58,112.59,1.43,28.75,10.07,51.93,21.16,77.78.33.78,1.32,2.08.08,2.65Z"/>
  <path class="uuid-8c456744-7311-491b-ac2f-a5783390901f" d="M882.28,374.1c.37,1.98.66,4.18,0,6.07-.17.53-.38.52-.61,0-2.48-46.83-20.16-88.76-50.39-124.13-.43-.5-2.07-1.58-.6-2.13,27.76,30.94,49.96,78.25,51.6,120.19Z"/>
  <path class="uuid-7a7d4d6d-b564-4dd4-b71c-4641d77142c0" d="M680.75,193.21l1.21,1.21c-12.04.25-24.05.62-35.92,2.63-30.94,5.21-63.05,19.02-86.99,39.27-.5.42-1.58,2.07-2.13.61,35.2-28.99,77.94-43.85,123.83-43.71Z"/>
  <path class="uuid-212ca3c8-56e9-4a96-ac45-c7a27369e28c" d="M699.56,164.07c1.06,2.1,3.64,9.21,3.64,11.23v18.51c30.58.6,60.23,10.46,86.2,26.1-.4,1.29-1.79-.03-2.38-.36-20.33-11.43-41.46-19.93-64.8-23.22-2.98-.42-18.58-1.42-19.52-2.02-1.59-1.03-.02-6.34-.06-8.08-.07-3.41-1.1-6.79-.66-10.32l-2.42-11.85Z"/>
  <path class="uuid-c8789dcd-ffb2-4380-9708-72da6eb4447c" d="M882.89,381.99c.08,24.24-1.23,42.66-7.28,66.17-1.12-.59-.52-2.14-.34-3.06,4.53-23.39,7.7-40.66,6.41-64.92h.61c.24.48.44,1.09.61,1.82Z"/>
  <path class="uuid-64f730c6-2af8-4acd-98b3-9a1c156f7726" d="M696.53,159.82l-4.43-3.15c-8.66-5.83-22.33-3.47-19.71,9.39.94,4.62,5.43,5.78,9.57,5.91.17,1-1.16.6-1.82.6-12.06.02-12.36-18.4.35-19.98,6.51-.81,12.01,2.48,16.04,7.23Z"/>
  <path class="uuid-42cd5c80-f583-4f3a-9bad-12e26403473b" d="M882.89,381.99c-.79-.29-.58-1.16-.61-1.82-.08-2.01.08-4.06,0-6.07,1.12,2.02.6,5.4.61,7.89Z"/>
  <path class="uuid-a45fc0b8-808a-4b3d-bdd3-5e7dd2141771" d="M681.35,209.6c2.49-.14,4.82.47,7.28.61l.24,2.04c-19.1,28.53-22.97,66.77-25.97,100.77-6.7,75.81-6.34,155.14,6.47,230.52,0,1.44-.25,2.83-.77,4.18l-.97.96c-8.64.29-17.16,1.13-25.56,2.53l-1.4-.46c-2.55.69-3.33-2.23-3.64-4.25-.62-.37-1.23-.76-1.77-1.22s-1.05-.91-1.42-1.46c-26.42-39.5-37.56-98.03-38.25-145.02-.84-57.13,11.25-111.73,45.84-157.07,2.3-3.02,10.37-13.58,13.07-14.34.44-.12.9-.17,1.36-.19l-.04-1.62c.78-1.46,18.85-15.44,21.38-16.2,1.18-.35,2.95-.03,4.16.22Z"/>
  <path class="uuid-aaf94295-ed1f-496b-a8f9-79501324687d" d="M693.49,210.81l1.63,1.72c16.59,36.28,20.46,77.59,22.93,117.33,4.13,66.43,1.87,137.18-10.78,202.53-.17.87-.54,1.71-.92,2.56s-.84,1.66-1.33,2.45l-1.67,3.72c-9.83,3.1-20.23,5.11-31.21,6l-2.94,1.2c-.86.85-1.21.46-.61-.61-1.38-14.13-4.43-28.08-6.06-42.2-6.08-52.5-6.03-107-3.05-159.65,2.06-36.41,5.42-91.4,21.84-123.84,2.1-4.14,5.1-7.75,7.3-11.82,1.71.09,3.56.57,4.86.61Z"/>
  <path class="uuid-5088e72d-3788-4083-abfd-90914be28a55" d="M706.24,209.6l1.56.32c70.64,63.56,86.51,172.57,60.97,260,.61,1.95.66,3.06.04,5.24-3.73,12.99-8.2,27.37-13.91,39.58-.24.52-.65.96-1.08,1.4s-.94.84-1.45,1.21c1.38,1.36-.57,4.59-2.43,4.25-8.09,7.47-18.96,11.62-29.45,15.26-3.86,1.87-7.75,2.47-11.69,1.82-1,1.75-3.09,4.23-4.38,1.74-.4-.79-.2-1.81.61-3.04,15.99-77.16,17.36-182.61,6.6-260.64-3.15-22.82-8.87-44.98-18.14-65.94,4.18.11,8.65-.41,12.75-1.21Z"/>
  <path class="uuid-122100d9-3b30-44ea-be78-ac18a065cb80" d="M803.97,475.48c-3.07,7.33-9.78,13.46-15.83,18.86-3.2,2.85-6.4,5.66-9.69,8.41-2.58,2.15-21.37,16.81-24.8,16.22-1.04-.18-1.25-.33-1.28-1.61,6.49-13.82,11.53-30.09,15.74-44.1.21-.69-.66-2.87-.54-3.47.4-2.09,2.41-7.63,3.2-10.81,20.25-81.36,4.05-187.56-61.29-245.33-.97-.85-2.73-2.79-3.25-4.04,2.96-.58,6.11-1.02,8.5-3.04,1.43.09,2.92.19,4.22.83,10.98,5.32,22.55,13.63,31.88,21.52,42.71,36.12,64.36,92.14,68.02,147.11,1.6,24.07-.99,43.71-4.34,67.27-.92,6.49-5.07,23.93-7.76,29.18-.53,1.03-1.75,2.95-2.79,3.02Z"/>
  <path class="uuid-5c578002-9ab2-483d-b323-15bc0429bc31" d="M584.84,225.38c2.43-.45,5.3,4.88,2.82,6.64.09,2.64-1.71,4.39-5.37,5.24,1.93,3.05-1.16,4.19-3.7,4.92-.39.75-.85,1.49-1.72,1.77,4.48,3.06,3.73,5.97-1.59,6.34,1.79.76,2.55,1.77,2.28,3.01-.14,1.08-.5,2.07-1.1,2.98-26.75,26.05-42.64,59.1-50.96,95.11-7.16,30.98-3.78,71.22,3.44,102.2,7.47,32.06,24.6,56.87,45.14,82l.44,1.8c-.09,1.94-2.6,1.52-4.01.99-6.46-2.43-15.15-6.58-20.14-11.14l-2.3.06c-6.55-4.06-12.7-8.58-18.47-13.58-71.09-92.66-45.81-229.47,55.24-288.34Z"/>
  <path class="uuid-2c15db84-ae90-4be5-9c7d-72f057ddfd24" d="M850.71,385.64c1.81,2.68,1.85,6.47,0,9.11-.74,8.46-2.94,17.09-5.94,25.4-11.01,20.06-22.86,41.33-39.33,56.82l-1.47-.26c-.5-.18-.5-.58,0-1.21,2-1.37,8.08-26.19,8.92-30.24,11.75-56.89,4.28-118.68-24.6-169.27-17.39-30.46-42.25-53.55-73.55-69.4,0-.4,0-.81,0-1.21-1.21-.02-1.03-1.87-.31-2.01,4.14-.79,21.14,6.15,25.95,8.29,28.95,12.84,50.69,31.98,69.65,57.11,25.44,33.73,44.67,73.86,40.68,116.9Z"/>
  <path class="uuid-4b49071f-11bb-4b35-85ef-c0f35cb9c6a2" d="M853.14,298.23c54.32,103.24,11,233.71-97.14,278.91-13.94,5.82-29.26,10.66-44.29,12.46l1.89-1.75c81.44-22.77,132.57-100.89,135.68-184.46.97-2.63,1.45-5.51,1.45-8.65.07-3.02,0-6.08,0-9.11.28-1.02.49-1.27.63-.77-.28-14.03.57-28.18,2.54-42.44,1.24-14.13,1.28-28.66-2.8-42.27-.32-1.86.5-3.29,2.06-1.94Z"/>
  <path class="uuid-0a731151-df35-4d26-9c1e-6c9e63d07ebc" d="M850.71,394.74c-1.43,59.08-20.76,111.78-63.42,152.99-18.37,17.74-50.81,35.68-75.59,41.87-2.38.59-5.95.64-8.5,1.21l.45-1.39c47.77-20.31,81-64.94,99.63-112.42l.69-.31,7.53-7.35c12.51-15.51,23.2-32.42,32.19-49.76,2.74-5.27,2.91-12.15,4.83-17.29.29-.77,1.43-.65,1.6-1.3.47-1.72-.87-4.66.59-6.25Z"/>
  <path class="uuid-0ec4f762-42c1-4ae0-b102-965c111876f0" d="M853.14,298.23l-1.11.8c1.1,3.96,2.25,8.36,2.8,12.44,3.12,23.27-1.92,43.06-2.92,66-.09,2.14.41,3.31,0,6.05-.17,1.14.76,2.46-1.19,2.12-.03-37.95-8.71-66.15-29.12-98.05-22.49-35.15-49.1-62.58-88.64-77.68-5.86-2.24-12.2-4.21-18.21-5.76-.01.4,0,.81,0,1.21-1.59,0-2.82-1.22-4.14-1.63-.63-.2-9.87-1.55-8-3.22,31.87,1.89,63.19,11.13,89.78,28.88,26.65,17.79,45.93,40.66,60.76,68.84Z"/>
  <path class="uuid-1ee5038c-1ed7-4c4c-a24f-4f79a314f74f" d="M803.97,475.48c-.06.38.09.89,0,1.21-1.64,5.86-6.47,16.27-9.19,22.07-14.43,30.72-36.58,58.21-64.67,77.37-6.26,4.27-20.24,12.95-26.9,14.68-3.4.88-9.64,1.06-13.35,1.21-.51-.63-.3-1.33.62-2.11,23.16-17.93,43.65-39.86,57.86-66.94l1.61-1.37c.69-1.35,1.77-2.86,2.43-4.25,1.12.43,1.6.62,2.75.08,3.51-1.67,7.93-4.83,11.18-7.08,11.1-7.68,21.97-17.18,30.91-26.76,1.88-2.02,5.96-7.58,6.75-8.12Z"/>
  <path class="uuid-898e13aa-dd1c-4020-a4de-c644599aa118" d="M704.42,540.43c.2.55.37,1.1.47,1.66s.17,1.09.06,1.59c-2.74,13.14-7.46,35.51-14.59,46.51-.56.86-1.4,1.43-2.33,1.84-5.8.17-11.42-.23-17-.61-.9-1.69.7-.5.6-.52-11.52-2.49-28.91-13.18-38.79-20.12-5.76-4.05-21.27-15.62-23.72-21.19-.26-.6-.45-1.23-.6-1.87-.53-.17-.52-.38,0-.61l.25-.77c8.76.64,17.71,1.2,26.86,1.67.23-.76.7-1.26,1.42-1.51,1.14,1.71,2.83,3.11,3.64,4.25l1.54.17c1.6,3.87,3.26,5.89,6.94,8.06,9.13,10.75,18.51,21.71,30.06,29.41-5.22-11.68-8.34-24.13-10.65-36.68-.1-.52,0-1.08.12-1.66s.31-1.16.53-1.73c-.34-1.31,1.9-2.25,2.76-2.4,7.41-1.23,14.98-2.06,22.01-3.49,4.39-.89,8.72-.61,11.04-5.04-.21,1.01-.39,2.04-.61,3.04Z"/>
  <path class="uuid-8494bd43-e0f4-448a-ad74-26ceadcfd03c" d="M584.84,225.38c29.66-17.28,62.55-26,97.12-24.88.77.62-.02,1.07-.75,1.37-1.68.69-8.99,1.06-9,3.79,0,2.5,7.49,2.69,9.14,3.95-1.15.07-1.69.02-2.85.47-1.59.62-10.36,6.91-12.28,8.37-3.14,2.39-7.5,6.06-10.36,8.76-.82.55-1.5.1-2.02-1.37-3.98,3.28-5.63.59-3.42-3.32-1.11,3.94-4.57,5.5-5.16.48-3.68,1.17-3.73-.04-3.52-3.11,0-.02-.24-.02-.3.08-1.84,2.98-3.84,4.04-3.8-.04l1.08-2.21c7.33-5.05,15.47-8.61,23.61-12.03-31.65,5.59-59.82,24.23-82.27,46.73l-2.52.9-3.63-2.45c.05-2.3,2.48-2.51,4.23-1.79,1.68-4.16-3.47-2.8-3.64-6.68,2.98,1.42,2.34-.56,3.46-1.25.88-.55,3.58-.77,3.79-2.16.14-.88-1.82-1.76-.89-2.67,10.47-2.79,3.41-5.59,3.36-6.36-.02-.3,1.22-1.23,1.8-.91.26.14.31,2.99,1.82.91l-3.02-4.56Z"/>
  <path class="uuid-0dd78fd6-9638-4aa7-922b-8645cefc15d0" d="M749.95,521.61c-10.1,19.87-22.64,37.11-38.84,52.52l-21.25,17.9c-.61.02-1.22-.02-1.82,0,4.03-7.06,6.97-14.77,9.26-22.6,2.68-9.15,5.09-19.64,7.13-28.99,2.42.38,3.2-2.61,3.73-2.99.23-.17,3.93.71,5.69.26,7.1-1.8,21.14-7.87,28.35-11.27.71-.33,3.13-3.02,4.02-3.57.97-.59,2.57-1.21,3.74-1.26Z"/>
  <path class="uuid-146f3b0c-4b56-474b-bdec-2b330b8daa14" d="M529.6,513.72c1.82-1.03,4.26,2.26,5.62,3.22,2.35,1.66,11.51,8.53,13.23,9.22.81.32,1.62-.33,2.38,0,.69.29,1.8,1.98,2.85,2.64,4,2.55,7.6,3.9,11.89,5.72,2.85,1.21,5.04,3.72,8.96,2.88,1.98-.04,3.4,1.38,4.25,4.25.58.15,1.15.32,1.69.56s1.01.48,1.4.83c11.53,10.38,20.25,18.05,33.54,26.24,11.19,6.89,22.3,12.42,34.86,15.93,3.71.87,6.18,2.54,7.42,5.01-51.49-7.51-96.69-35.57-128.08-76.49Z"/>
  <path class="uuid-0dd78fd6-9638-4aa7-922b-8645cefc15d0" d="M608.51,547.71c17.45,19.52,39.62,32.9,63.74,42.79l-1.22.91c-4.47-.31-8.92-.57-13.35-1.21-6.76-4.56-15.65-5.93-23.21-9.27-9.98-4.41-21.36-11.46-30.44-17.54s-17.04-13.42-25.26-21.76c-3.31-3.94.27-4.26,3.31-1.91l22.99,6.12,3.45,1.86Z"/>
  <path class="uuid-71cbcac6-4858-4740-928c-6969a1110356" d="M688.09,204.08c-.8-.92.52-7.07.57-8.72.2-6.04.79-17.52-.06-23.05-1.11-7.16-9.78-6.61-10.76-8.36-1.12-2.01-.45-4.34,2.04-4.67,20.62-2.71,17.61,30.73,16.52,43.21-.39,3.48-7.36,2.69-8.31,1.58Z"/>
  <path class="uuid-25c261e5-6f22-4121-8e68-e15e987fbf98" d="M764.52,580.49c-.31,1.75-15.37,7.23-19.11,8.51-50.99,17.51-99.28,13.44-147.41-9.84-.46-.22-2.52-.53-1.02-1.1,17.62,8.59,39.87,15.8,59.27,18.73,37.22,5.63,74.15-1.3,108.27-16.3Z"/>
  <path class="uuid-205940d0-9627-4c04-9102-be48e9d0d23d" d="M637.65,219.92c2.75,3.48,2.23-.41,2.99-.95s2.16-.21,3.08-.27c.36,1.18-1.41,1.78-1.22,2.71.44,2.11,3.15-.29,3.35-.27,1.08.06.08,5.14,2.11,3.63.41-.3,3.5-8.05,4.55-9.07l2.73,1.48c-4.59,2.23-2.9,2.44-3.64,6.06-.17.83-1.66,2.32-1.2,2.74.97.89,3.32-1.7,3.94-2.41l1.52,3.63c-16.22,15.33-32.81,42.86-41.28,64.03-29.65,74.07-22.33,188.23,22.47,255.26.02,1.58.57,2.66-1.5,2.72-4.44.13-9.4-.88-13.87-.53-3.35-1.03-7.39-.62-10.43-.92-.25-.03-2.61-.59-2.73-.66-.27.2-.53.35-.72.29-3.78-1.17-13.88-16.09-16.61-20.17-60.21-89.76-47.95-240.5,42.7-306.11.5-.36,1.12-.57,1.76-.77s1.33-.33,2.01-.43Z"/>
  <path class="uuid-0dd78fd6-9638-4aa7-922b-8645cefc15d0" d="M668.61,547.71c.21.13.38.45.61.61,2.5,14.82,6.17,29.55,12.74,43.1-.41.49-9.53-6.57-10.45-7.31-9.68-7.75-15.19-15.36-23.21-24.29-1.01-1.12-3.72-2.44-4.23-3.02-.87-1-2.39-4.66-3.38-6.05,1.54-1.61,6.15-1.87,8.41-2.08.91-.08,1.85.32,2.79.23,3.16-.29,15.01-2.26,16.72-1.19Z"/>
  <path class="uuid-7d52b80d-7e19-4514-bcf8-6ba346754c68" d="M577.55,253.31c17.46-18.8,45.76-38.51,71.16-45.69,6.88-1.94,14.63-3.75,21.71-4.08-.19,1.15-1.28.99-2.05,1.28-11.68,4.37-20.41,7.92-30.73,15.1-26.31,18.33-43.97,41.47-58.5,69.88-38.53,75.3-30.54,187.47,25.13,252.74,1.06,1.24,3.03,3.89,4.23,4.57v.61c-.28.29-.68.34-1.04.21-4.83-1.72-10.18-2.84-14.75-4.13-3.54-1-7.69-1.87-11.05-2.92-2.12-.66-4.28-4.01-2.9.77-1.76-1.07-2.96-2.7-4.25-4.25-29.62-35.52-45.01-59.68-50.93-107.2-2.68-21.5-5.09-47.62-1.42-68.68,4.33-24.86,17.17-60.91,31.92-80.69,6.84-9.17,15.56-18.99,23.47-27.52Z"/>
</svg>