<?xml version="1.0" encoding="UTF-8"?>
<svg id="uuid-541c123c-ba24-4bd5-89b6-66b147ee5151" data-name="Layer 1" xmlns="http://www.w3.org/2000/svg" viewBox="0 0 1920 1080">
  <defs>
    <style>
      .uuid-d8870670-7536-4993-b3a5-cd8f389e8c3f {
        fill: #eb9c0b;
      }

      .uuid-aef21103-8ac8-49a7-a82e-5e632bd4544a {
        fill: #754b19;
      }

      .uuid-d748d1a7-01e4-45bb-994b-ad972bda5b50 {
        fill: #ed9c0d;
      }

      .uuid-c21c9a0c-13dc-4739-b4c2-00095e0e370e {
        fill: #3f3d0b;
      }

      .uuid-c18145cf-7bd2-4382-9b04-4391e58522fc {
        fill: #fdc628;
      }

      .uuid-af3cf647-57d5-44c1-8422-2fe7adef3c5c {
        fill: #eb9b0b;
      }

      .uuid-a1ff1604-6022-46d9-8541-25d91134100f {
        fill: #2d0d05;
      }

      .uuid-8eeabc79-84aa-4b0a-9675-da8a73cc4bae {
        fill: #fdc425;
      }

      .uuid-d871e749-ca5e-4101-ade6-1c0a3a04b8e1 {
        fill: #5a7823;
      }

      .uuid-092d33c9-0e9c-4325-a411-d186864091f1 {
        fill: #fdc324;
      }

      .uuid-9b6c3230-4069-4d90-a727-1f6ab81af7dd {
        fill: #fcca2f;
      }

      .uuid-3b53e3c0-2d78-40d1-a69d-13cbca53cf62 {
        fill: #fcca2d;
      }

      .uuid-5e4eafeb-c319-43fb-8daa-4bebc685fa0b {
        fill: #738f2e;
      }

      .uuid-e8b00d52-c860-480a-bc3a-f60286ac2592 {
        fill: #fdc426;
      }

      .uuid-04af971a-87f3-494a-9cd8-30cc6bcf71b0 {
        fill: #fcc92c;
      }

      .uuid-4bb9ec50-7b2a-45f2-b801-273ca03948b2 {
        fill: #eb960b;
      }

      .uuid-bd8dd0b1-7b79-4785-a99a-ba4460b76a90 {
        fill: #fcc72a;
      }

      .uuid-aabb939f-49e5-44b6-a066-6f603ab9c014 {
        fill: #5a7923;
      }

      .uuid-b6dae234-c815-47ca-abcf-9dbb198ed9d1 {
        fill: #ce7405;
      }

      .uuid-c62e68f9-4997-4d0a-a995-4d2281dbae2d {
        fill: #e2ddd4;
      }

      .uuid-e642a570-cbb5-4516-914b-613b3a6a8618 {
        fill: #69882b;
      }

      .uuid-fac12735-8f91-4c5e-b6c6-1deddce8e161 {
        fill: #ec9c0c;
      }

      .uuid-3c72ce46-b13e-4361-9229-7470f2e7e2e2 {
        fill: #ed9e0f;
      }

      .uuid-1eee2bdb-b745-443d-8737-a54e4555fd1f {
        fill: #fdc729;
      }

      .uuid-bad7d522-ab61-4144-9255-e5b37d7f6568 {
        fill: #648128;
      }

      .uuid-74743cbb-303a-46ae-8066-344629eb550b {
        fill: #597822;
      }

      .uuid-02073c41-b90b-44c4-9b6e-267812d14ce6 {
        fill: #ec9b0b;
      }

      .uuid-4ab11358-7941-46f5-b2a4-871bc196690b {
        fill: #eb980a;
      }

      .uuid-91f85317-da5f-4af2-af71-a43aa93a5888 {
        fill: #694109;
      }

      .uuid-488eeba2-0868-480e-b358-5a6e7e947d65 {
        fill: #fdc82a;
      }

      .uuid-d8e1228c-45d0-4526-8f9b-298f6f62d2eb {
        fill: #ec9c0b;
      }
    </style>
  </defs>
  <path class="uuid-c21c9a0c-13dc-4739-b4c2-00095e0e370e" d="M804.55,387.11c5.38-2.53,1.26-8-.45-11.32-20.34-39.62-48.84-74.52-76.57-109.05-10.71-29.25,36.43-16.09,50.77-11.54,14.82,4.7,27.78,13.45,41.92,19.49,2.34-2.46-11-32.37-13.43-37.52-6.12-12.99-41.96-59.45-16.53-64.35,32.15-6.2,82.57,42.53,88.45,41.53,10.7-1.81,30.87-84.08,52.48-96.61,14.9-8.64,19.86,4.97,26.33,15.76,15.86,26.44,23.96,57.83,35.28,86.31,4.24,3.11,66.5-47.29,89.61-43.94,9.39,1.36,15.53,11.47,11.1,20.49l-38.01,78.33c22.65-5.71,46.07-18.32,69.59-20.56,66.28-6.3,3.79,44.18-12.01,63.79-6.72,8.34-45.26,61.88-44.28,67.67.59,2.69,3.79,2.99,5,4.14,1.72,4.14.23,8.08-4.48,11.8,3.5,5.57,2.42,10.22-3.36,6.5,6.52,11.59-17.12,21.69-20.91,7.84-7.52,3.43-16.84,2.76-27.94-2.02-10.15-.15-17.39-2.96-21.73-8.43-22.9,2.46-45.9,4.06-69.01,4.81l-59.02,12.9c-19.09,6.74-33.93,4.32-44.5-7.26-7.48,1.9-8.25-3.46-2.61-7.84-8.24-1.02-14.4-13.34-15.68-20.91Z"/>
  <path class="uuid-c62e68f9-4997-4d0a-a995-4d2281dbae2d" d="M747.04,886.39c2.35-.67,4.96.2,7.84,2.61,5.59-4.91,13.5,1.07,10.46,7.84,2.86-.65,6.04-1.06,8.69.39,35.97,19.73,58.24,31.5,100.21,38.04,99.25,15.47,226.36-12.89,277.76-106.84l8.07-4.78c36.12-3.3,118.72,34.98,71.82,75.74-87.97,76.46-358.59,82.29-463.07,37.11-25.9-11.2-69.84-31.84-38.76-63.15,5.81,6.72,9.09,9.59,16.99,13.02Z"/>
  <path class="uuid-91f85317-da5f-4af2-af71-a43aa93a5888" d="M1180.97,609.3c-.98,9.17-.98,18.31,0,27.45,2.73,26.6,2.66,56.55,0,83.65-1.21,12.75-2.08,25.38-2.61,37.9-3.32,18.53-10.77,48.45-18.3,65.35-58.76,131.9-292.08,154.93-394.72,73.19,3.65-7.41.17-13.48-10.45-18.21-11.13-7.43-14.62-14.43-10.46-21l8.46.74c20.19,18.97,44.28,33.16,70.57,41.86l4.62,7.07,12.57-1.62c63.81,18.31,131.52,16.52,194.4-4.67l12.6,1.07,3.15-6.79c24.91-8.77,47.3-22.08,62.61-44.14l7.43-1.36c-4.34-6.35,2.72-20.61,10.46-18.3l-2.05-7.11c10.6-20.65,20.98-41.31,28.19-63.47l-4.32-5.31,4.04-37.71,5.5-4.03c-4.43-17.82-5.53-36.83-3.3-57.04-2.2-21.51-1.97-42.58.68-63.2-9.22-9.65-15.73-34.69-10.46-47.05-9.65-23.91-19.83-47.56-30.52-70.93l1.77-7.49c-8.21,1.41-19.05-13.31-15.68-20.91-2,1.06-4.78,1.63-5.79.04-9.96-15.67-17.9-22.56-34.1-32.87l.68-6.38c-.07-.12,2.69-1.33,2.01-2.06-.66-.7-3.83-.28-4.12-.89-2.49-5.13,6.15-12.31,9.96-15.35,7,6.66,17.51,11.89,24.76,18.38,53.9,48.25,75.39,131.42,82.42,201.2Z"/>
  <path class="uuid-aef21103-8ac8-49a7-a82e-5e632bd4544a" d="M804.55,387.11c7.04-.12,12.33,14.56,15.68,20.91l-3.62,5.22c-16.81,3.03-30.96,12.1-42.44,27.21l-6.22-1.06c1.85,8.52-6.83,19.87-15.68,18.3l.29,8.14c-18.61,23.96-32.42,52.08-36.68,81.69l-2.83,1.67c6.02,9.35-1.39,30.74-10.46,36.6l2.74,11.34c-5.68,30.71-8.5,61.64-8.44,92.8l-4.76,10.88,4.3,13.24c4.51,9.99,10.48,24.41,3.54,33.81,9.12,26.87,19.47,53.21,31.04,79l-2.28,7.26c2.32.73,2.29,1.61,0,2.61l13.07,18.3c2.25-1.1,3.04-.11,2.61,2.61,6.28,16.07,26.69,24.48,39.2,35.3-2.63,3.94-8.43-1.45-11.53-1.4-1.72.03-1.44,7.39-6.76,5.31-3.46-2.76-6.88-4.46-10.46-7.84-12.63-8.04-23.05-21.48-31.37-33.98-79.71-94.62-56.27-328.71,22.19-420.89,8.22-9.65,48.23-46.85,58.85-47.02Z"/>
  <path class="uuid-a1ff1604-6022-46d9-8541-25d91134100f" d="M1178.35,758.3c-2.78-.02-2.96-4.27-2.74-6.39.89-8.45,5.35-24.38,5.35-31.51v-83.65c0-5.85-7.62-20.86,0-27.45,4.67,46.35,5.58,103.22-2.61,149Z"/>
  <path class="uuid-91f85317-da5f-4af2-af71-a43aa93a5888" d="M754.88,889c-2.85-.26-5.28-1.5-7.84-2.61-7.49-10.58-19.37-18.43-23.53-31.37,8.52,10.11,21.9,25.03,31.37,33.98Z"/>
  <path class="uuid-4bb9ec50-7b2a-45f2-b801-273ca03948b2" d="M995.37,405.41c.19,6.6-7.65,9.21-23.53,7.84l-7.48,4.81c-22.86-.89-45.89,1.66-67.54,9.24,16.96,13.72,32.58,28.67,46.86,44.84l53.24-47.23,6.29,1.41c4.28-2.98,9.66-1.07,16.13,5.71l12.18,3.49c5.63,3.59,53.34,50.07,54.24,53.78,1.47,6.07-28.32,49.84-34.63,53.43l-6.09-1.4-4.24-4.45c8.67-13.24-2.66-87.88-17.2-87.52-3.67.09-57.08,43.09-56.31,46.68l65.81,57.62-1.12,5.96c2.76,3.99.73,9.84-6.11,17.56,9.06,3.32,13.32,9.61,3.5,13.81l2.4,4.97-67.14,65.96c-1.18,3.28,51.57,45.13,54.57,43.36,5.72-3.37,27.61-84.64,21.5-98.44l4.36-5.4,8.22.27c12.69,9.25,51.11,44.03,47.56,60-1.48,6.67-53.97,70.83-61.65,72.38-3.61.73-6.81-.26-9.39-2.89-5.17-8.36-9.03-8.51-11.57-.46,6.24,4.84,9.49,9.3,7.66,17.55-1.16,5.22-75.92,68.7-81.26,68.99-5.57.31-13.25-6.35-9.36-11.94l.99-6.5c13.64-7.32,70.02-48.68,69.53-61.93-.16-4.24-60.02-55.68-64.25-55.28l-76.2,64.96,65,52.28-.29,6.47,2.04,2.84c-5.38,5.09-6.19,10.68-2.42,16.76-22.31,18.57-44.84,37.78-67.6,57.61-5.92,3.18-43.92-28.35-50.37-34.49l.72-6.12,7.69-5.97c12.91-.33,80.73-11.47,83.27-19.64l-62.43-49.86c-8,4.58-53.31,45.27-53.16,49.53,9.83,7.12,14.55,14.02,14.18,20.71,2.4,4.63-.1,7.02-4.28,8.71l46.43,38.4c9.04,8.35-5.94,25.08-16.01,23.47-34.54-11.21-57.09-24.36-83.65-49.67-.89-.85-1.74-1.74-2.61-2.61l-13.07-18.3c-.34-.71.34-1.91,0-2.61l-.04-5.61c3.41-1.06,16.71-8.98,15.2-12.42-21.24-19.72-35.88-42.46-43.92-68.23-2.95-15.79-6.86-30.84-7.84-47.05,4.05-3.18,7.06-1.49,9.01,5.07,14.81-13.98,28.61-28.86,41.39-44.64l-37.8-61.91-2.14-13.54c2.44-12.74,7.41-24.31,10.46-36.6,15.12-22.84,32.43-43.18,51.95-61.02l-15.43-23.39,2.69-7.07c4-5.02,11.41-13.86,15.68-18.3,1.84-1.18,3.66-1.37,5.45-.31.18,3.47,11.59,30.03,15.26,28.61,2.45-.95,37.29-33.58,38.13-36.06-6.34-6.06-7.65-11.31-3.94-15.76,5.55,3.37,10.05,5.42,16.85,5.34,26.69-.32,61.09-13.06,89.06-15.75,20.16-1.94,46.48-1.63,66.62-.04Z"/>
  <path class="uuid-b6dae234-c815-47ca-abcf-9dbb198ed9d1" d="M1045.04,415.86c-1.18,6.46,1.06,10.97,6.73,13.53l36.5,37.46c3.86-10.73,9.49-17.27,16.89-19.63,5.54,7.47,10.04,11.15,15.68,20.91-.19,6.24-3.31,13.46-9.35,21.68,17,16.7,29.7,35.61,38.1,56.74,3.95,16.21,8.09,30.04,10.46,47.05-1.66,24.19-17.14,45.29-31.28,64.22,13.72,14.21,26.48,36.76,33.9,56.02-1.27,18.96-1.53,28.06-5.23,47.05-5.52,21.22-15.33,37.22-28.81,54.04,0,0,.89,5.51,2.67,16.54-3.75,6.75-5.65,11.46-10.46,18.3-5.21,1.88-10.02-1.4-14.41-9.84-19.07,17.73-40.19,32.37-61.32,46.77,7.57,8.27,8.41,13.38,2.53,15.35-70.79,26.52-147.43,28.64-219.58,5.23l15.64-16.99-60.06-49.68c7.3-.28,11.83,1.34,18.29-3.91,5.06-6.45,12.07-2.81,10.46,5.23,6.21,4.89,44.74,36.97,48,36.41,16.64-17.88,35.63-32.37,54.65-47.54,9.11-7.26,16.6-3.31,1.92-14.99l13.06-10.49c.83-6.94,3.24-6.64,5.23,0l8.8,7.65,76.26-65.12c5.38-8.37-8.83-13.81-8.85-17.01,0-1.45,8.79-9.42,7.48-14.39,4.6-3.39,13.33,12.19,17.31,12.88,8.32,1.43,43.45-48.25,49.53-57.09,10.99-15.97,16.97-9.08,1.02-30.23-11.41-15.13-27.62-28-41.77-40.58-5.08-.18-10.31-3.67-15.68-10.46,2.97-11.54-6.49-6.63-7.56-8.01-5.46-7.1,6.23-18.13,10.17-23.36-3.68-6.36,6.69-18.62,13.07-18.3,6.17-4.58,36.86-47.52,36.33-50.6l-53.32-51.58c-13.13-.15-15.58-6.82-24.83-12.83-4.54,2.77-10.42.97-17.65-5.4-8.06-.45-12.63-3.01-13.72-7.67l23.53-7.84c20.69,1.64,30.92,5.41,49.67,10.46Z"/>
  <path class="uuid-74743cbb-303a-46ae-8066-344629eb550b" d="M1126.07,274.73c-35.9,34.25-66.38,74.67-86.44,120.15l-86.08-10.42c45.65-51.24,103.84-95.53,172.52-109.74Z"/>
  <path class="uuid-e642a570-cbb5-4516-914b-613b3a6a8618" d="M936.56,144.05c8.81.01,36.64,88.78,34.55,102.91l-37.16,53.83c-2.85.11-27.64-43.15-29.8-48.57-11.21-28.15,20.01-81.83,32.41-108.17Z"/>
  <path class="uuid-bad7d522-ab61-4144-9255-e5b37d7f6568" d="M906.5,392.32l-62.65,13.07-83.75-133.28c46.87,14.2,89.15,50.32,121.59,86.2,4.37,4.84,28.36,30.49,24.81,34.01Z"/>
  <path class="uuid-aabb939f-49e5-44b6-a066-6f603ab9c014" d="M1060.71,206.75l-31.28,82.41-81.08,69.19c-9.8-46.8,30.97-91.41,64.08-120.17,5.47-4.75,43.94-35.53,48.28-31.42Z"/>
  <path class="uuid-5e4eafeb-c319-43fb-8daa-4bebc685fa0b" d="M893.42,272.09c-1.26,17.29-2.68,35.5-11.54,51.35l-6.75.93c-6.93-7.69-18.88-14.38-24.06-24.3-6.26-11.99-8.86-32.58-13.95-46.17-6.82-18.23-16.48-34.88-24.71-52.38,38.12,8.88,60.76,40.03,81.02,70.57Z"/>
  <path class="uuid-d871e749-ca5e-4101-ade6-1c0a3a04b8e1" d="M893.42,272.09c22.73,34.26,44.21,69.67,44.43,112.4l-14.56-2.42c-14.82-20.21-31.43-39.13-48.17-57.7,7.88-11.3,10.67-27.21,12.45-40.57.77-5.78-6.26-9.17,5.85-11.71Z"/>
  <path class="uuid-04af971a-87f3-494a-9cd8-30cc6bcf71b0" d="M820.23,408.02c1.47,2.79,1.65,5.95,2.61,7.84,3.92,7.64,4.61,9.3,13.02,14.38l-48.35,45.73-12.21-16.48-7.36-20.09c14.19-14.77,29.35-32.42,52.28-31.37Z"/>
  <path class="uuid-af3cf647-57d5-44c1-8422-2fe7adef3c5c" d="M1105.16,447.23c-4.46,7.36-7.99,15.42-12.53,22.77-.89,1.45.06,5.2-4.43,3.35-4.46-1.84-33.76-34.09-40.52-40.64-5.88-5.71-14.27-4.4-2.65-16.85,11.21,3.02,13.71,1.82,20.91-7.84,1.31,2.29,25.74,17.86,32.74,26.07,4.59,5.39,4.81,10.89,6.47,13.14Z"/>
  <path class="uuid-d8870670-7536-4993-b3a5-cd8f389e8c3f" d="M1162.67,713.86c-16.34-15.16-23.9-38.91-38.45-56.2,13.15-20.7,25.92-41.59,35.84-64.05,5.79,41.66,5.37,79.16,2.61,120.25Z"/>
  <path class="uuid-4ab11358-7941-46f5-b2a4-871bc196690b" d="M1120.85,849.79c-21.19,30.17-39.74,39.75-73.19,52.28v-3.91c-3.81-4.03-10.85-8.08-6.68-14.48,1.23-1.89,30.88-21.54,36.68-26.11,10.05-7.93,19.69-17.03,28.82-26.03l14.38,18.25Z"/>
  <path class="uuid-02073c41-b90b-44c4-9b6e-267812d14ce6" d="M1149.6,546.56c-3.03-10.02-43.57-53.03-44.18-56.57-.4-2.32,10.73-20.65,15.42-21.85,17.11,29.61,20.8,45.77,28.75,78.42Z"/>
  <path class="uuid-3c72ce46-b13e-4361-9229-7470f2e7e2e2" d="M1131.3,831.49c-21.52-15.6,2.93-29.68,13.13-45.68,5.12-8.03,8.12-16.83,13.01-24.9-5.96,30.66-11.2,43.68-26.14,70.58Z"/>
  <path class="uuid-3b53e3c0-2d78-40d1-a69d-13cbca53cf62" d="M702.6,585.77l46.87,76.75c-.52,3.02-36.57,38-41.76,44.77-2.55,3.33-2.19,8.84-2.53,9.18-5.07,5.09-9.71-13.56-13.04-15.69-2.4-39.63,3.07-76.41,10.46-115.02Z"/>
  <path class="uuid-9b6c3230-4069-4d90-a727-1f6ab81af7dd" d="M713.06,549.18c1.09-4.38-1.01-11.48.22-16.74,6.28-26.86,22.1-53.59,38.99-74.75,1.11,8.51,19.72,25.66,18.03,32.15-17.24,16.18-31.59,34.79-47.26,52.33-3,3.36-4.05,7.25-9.98,7.01Z"/>
  <path class="uuid-bd8dd0b1-7b79-4785-a99a-ba4460b76a90" d="M728.74,834.11c-16.74-34.23-21.67-48.33-28.75-86.26,4.31,4.92,4.3,11.03,7.88,16.96,5.98,9.9,40.76,46.89,41.38,50.08,1.66,8.56-13.8,16.78-20.5,19.23Z"/>
  <path class="uuid-91f85317-da5f-4af2-af71-a43aa93a5888" d="M741.81,855.02c-2.66-2.67-6.23-3.83-9.05-7.98s-2.56-7.3-4.02-10.32c5.51,4.47,11.54,11.49,13.07,18.3Z"/>
  <path class="uuid-e8b00d52-c860-480a-bc3a-f60286ac2592" d="M939.76,510.36c3.8-1.07,7.05-.67,10.01,2.09,8.15,12.68,63.92,53.23,64,64.18.05,7.04-63.38,63.07-74.59,69.37-10.21-7.44-75.52-61.94-74.31-69l74.89-66.63Z"/>
  <path class="uuid-092d33c9-0e9c-4325-a411-d186864091f1" d="M935.25,805.35h-5.23l-73.13-58.82,84.89-71.98c9.92,9.07,69.02,52.62,69.24,61.46.44,18.07-59.16,60.92-75.77,69.33Z"/>
  <path class="uuid-c18145cf-7bd2-4382-9b04-4391e58522fc" d="M847.68,591.05l77.07,69.23-84.55,71.7c-8.52-7.6-65.13-63.45-64.21-68.72l71.7-72.2Z"/>
  <path class="uuid-c18145cf-7bd2-4382-9b04-4391e58522fc" d="M866.47,437.09c7.24-1.98,9.25,6.78,13.8,11.53,14.99,15.62,31.3,29.61,47.08,44.36l-79.71,68.78c-4.18-.02-50.96-62.03-50.97-66.21-.02-8.67,60.12-49.87,69.8-58.46Z"/>
  <path class="uuid-488eeba2-0868-480e-b358-5a6e7e947d65" d="M762.77,645.9c-6.63-14.72-40.84-57.38-39.34-71.79.58-5.55,51.92-66.81,56.29-66.71,4.29,12.16,52.67,63.18,52.7,69.22,0,2.57-2.52,5.92-4.29,7.87l-65.35,61.41Z"/>
  <path class="uuid-1eee2bdb-b745-443d-8737-a54e4555fd1f" d="M764.03,679.93c18.94,22.7,37.6,46.15,61.43,64.08,1.35,5.5-53.28,46.53-59.18,55.93-7.11,1.24-50.02-52.73-50.59-61.42-.95-14.38,38.27-46.91,48.34-58.59Z"/>
  <path class="uuid-c18145cf-7bd2-4382-9b04-4391e58522fc" d="M801.93,836.72c-3.57-2.87-21.31-18.46-20.72-21.86.64-3.66,47.59-47.43,53.82-51.01,2.76-1.59,5.19-3.63,8.57-1.69l70.72,56.23c-32.63,15.57-66.23,20.39-101.94,23.56-4.53-3.56-9.39-4.37-10.46-5.23Z"/>
  <path class="uuid-8eeabc79-84aa-4b0a-9675-da8a73cc4bae" d="M1045.04,541.34c-2.9,10.11-8.6,12.37-13.07,18.3l-73.15-64.04,63.64-53.41c27.25,16.14,30.32,72.16,22.57,99.15Z"/>
  <path class="uuid-092d33c9-0e9c-4325-a411-d186864091f1" d="M1045.04,601.46c7.03,32.83-11.54,81.72-23.59,112.4l-65.28-50.96,73.18-71.9,6.3-2.52c1.63.5,8.99,11.16,9.38,12.97Z"/>
  <path class="uuid-c18145cf-7bd2-4382-9b04-4391e58522fc" d="M971.85,413.25c18.54,1.37,17.41,3.98,31.37,13.07l-58.88,52.24-3.81.03c-1.6-13.95-52.02-45.9-52.28-53.58,25.79-10.74,55.92-13.8,83.6-11.76Z"/>
  <path class="uuid-fac12735-8f91-4c5e-b6c6-1deddce8e161" d="M958.78,826.22l77.07-67.3c6.98-.58,48.52,46.14,53.25,56.04.7,8.02-52.76,51.1-63.61,55.72l-66.72-44.45Z"/>
  <path class="uuid-d8e1228c-45d0-4526-8f9b-298f6f62d2eb" d="M1096.3,510.1c6.86-1.43,43.71,55.53,50.13,64.32-8.57,22.71-21.59,43.43-34.79,63.65-5.8,1.36-31.05-33.32-36.51-39.26-4.7-5.1-26.42-22.45-26.94-25.14-2.37-12.36,14.97-19.45,20.34-25.82,5.04-5.97,24.17-37,27.76-37.75Z"/>
  <path class="uuid-d8e1228c-45d0-4526-8f9b-298f6f62d2eb" d="M1112.97,674.65l39.21,64.11c-14.11,21.23-27.4,43.32-45.7,61.31l-53.4-58.41,59.9-67.01Z"/>
  <path class="uuid-d748d1a7-01e4-45bb-994b-ad972bda5b50" d="M1003.19,878.6c1.46,1.78.17,3.66-1.65,5.39-10.98,10.43-47.5,30.22-62.39,31.33-17.78,1.32-44.02-20.74-61.41-26.36-2.69-3.91,57.73-47.98,64.47-51.79l60.99,41.43Z"/>
</svg>