<?xml version="1.0" encoding="utf-8"?>
<!-- Uploaded to: SVG Repo, www.svgrepo.com, Generator: SVG Repo Mixer Tools -->
<svg width="800px" height="800px" viewBox="0 0 1024 1024" class="icon"  version="1.1" xmlns="http://www.w3.org/2000/svg"><path d="M359.612 287.101c-67.154 7.126-118.967 74.586-139.36 115.568-94.098 189.508 149.126 490.461 237.423 470.383 13.471-3.058 27.419-14.276 58.214-17.177 42.772-4.034 65.714 12.996 91.548 15.975 56.243 6.492 107.115-55.994 142.759-99.762 40.201-49.366 157.161-192.987 112.667-346.601-7.229-24.926-25.641-88.545-85.577-123.419-3.875-2.266-74.722-42.181-141.23-17.233-25.142 9.427-34.478 22.524-65.714 27.193-28.801 4.306-49.648-2.266-72.514-7.93-37.038-9.087-101.382-20.903-138.217-16.995z" fill="#FA1919" /><path d="M751.795 634.281c-18.321 82.416-92.907 173.861-163.733 176.921-26.15 1.133-42.953-10.198-80.501-1.734-49.943 11.228-93.587 47.7-88.658 61.534 3.398 9.427 29.198 8.102 31.724 7.93 28.972-1.711 36.438-20.394 59.063-23.045 25.686-2.991 36.608 18.717 61.817 27.193 42.737 14.343 90.822-21.38 117.664-41.322 94.041-69.851 220.553-251.405 170.292-428.279-8.838-31.102-25.062-85.158-76.988-118.683-43.905-28.325-115.419-43.213-139.45-15.862-44.788 50.917 145.683 189.316 108.77 355.347z" fill="#C40000" /><path d="M598.237 907.506c-0.121 0.001-0.263 0.002-0.407 0.002-6.681 0-13.12-1.035-19.165-2.957-7.881-2.506-15.246-6.969-22.359-11.287-12.032-7.298-23.407-14.196-41.127-14.73-18.423-0.577-31.294 6.278-43.769 12.893-6.969 3.705-13.597 7.194-20.903 9.393-59.551 17.778-151.461-58.747-216.123-142.476-3.329-3.92-5.354-9.037-5.354-14.628 0-12.515 10.146-22.661 22.661-22.661 7.615 0 14.352 3.757 18.461 9.517 72.401 93.758 143.691 133.878 167.337 126.82 3.037-0.907 7.693-3.398 12.61-5.993 15.206-8.066 36.019-19.125 66.453-18.128 29.617 0.929 49.025 12.701 63.2 21.301 5.042 3.058 9.812 5.948 12.939 6.934 18.128 5.722 73.646-20.1 140.075-95.435 48.505-54.974 87.174-118.831 108.871-179.798 31.521-88.557 19.261-148.346 3.398-182.915-10.311-22.457-27.193-46.759-45.15-65.013-16.122-16.383-41.921-36.935-73.329-41.74-38.602-5.914-103.829 8.43-132.925 16.838-3.093 0.895-6.141 1.813-9.212 2.741-18.411 5.552-39.27 11.851-68.559 12.226-29.957 0.386-50.793-5.438-70.95-11.069-3.172-0.883-6.368-1.779-9.597-2.639-31.001-8.304-93.145-21.097-129.458-16.406-60.729 7.84-106.277 70.79-121.868 102.98-14.809 30.593-19.918 66.531-15.182 106.934 4.373 37.389 16.995 77.702 37.389 119.793 1.433 2.889 2.27 6.289 2.27 9.885 0 12.517-10.147 22.663-22.663 22.663-8.921 0-16.637-5.153-20.335-12.646-22.719-46.801-36.678-91.987-41.641-134.439-5.744-49.129 0.794-93.532 19.42-131.974 20.722-42.748 77.045-117.833 156.854-128.155 52.243-6.798 131.611 13.461 146.998 17.585 3.398 0.907 6.742 1.849 10.073 2.777 18.638 5.212 34.716 9.71 58.158 9.404 22.898-0.294 39.010-5.155 56.062-10.3 3.229-0.974 6.457-1.948 9.722-2.889 9.597-2.775 95.354-26.829 152.368-18.128 34.58 5.292 68.74 24.224 98.777 54.746 2.050 2.074 6.368 6.278 11.919 12.464 0 0 25.674 28.847 42.114 65.409 16.779 37.299 25.742 122.082-1.054 214.785-27.883 96.409-82.982 161.703-118.366 196.816 0 0-30.705 43.927-96.443 85.486-27.465 17.313-51.607 26.014-72.185 26.014z" fill="#000000" /><path d="M217.521 717.42c-8.050-0.007-15.116-4.211-19.132-10.54l-0.697-1.106c-2.14-3.396-3.409-7.526-3.409-11.953 0-12.515 10.146-22.661 22.661-22.661 7.989 0 15.011 4.134 19.047 10.381l0.677 1.087c2.193 3.427 3.494 7.606 3.494 12.089 0 12.509-10.134 22.649-22.642 22.661z" fill="#000000" /><path d="M773.253 190.5c3.116-19.625-59.257-62.146-112.621-48.889-76.83 19.079-100.487 145.027-84.365 155.223 10.797 6.798 34.284-41.593 107.014-73.941 53.546-23.759 87.707-18.377 89.972-32.393z" fill="#6BE166" /><path d="M566.863 320.22c-5.234-0.011-10.101-1.577-14.165-4.26-13.867-8.769-18.251-28.054-13.267-58.838 6.98-43.191 36.823-120.723 104.407-137.502 44.029-10.934 94.381 8.418 121.358 33.197 18.502 16.995 20.587 31.815 19.081 41.264-1.269 7.93-6.062 18.843-21.641 25.187-6.379 2.605-13.675 4.192-22.898 6.198-14.615 3.185-34.637 7.546-58.577 18.186-39.792 17.697-63.302 40.482-78.87 55.518-6.096 5.914-10.922 10.582-15.76 14.060-3.547 2.605-10.922 6.991-19.669 6.991zM670.681 161.723c-0.067 0-0.146 0-0.226 0-5.551 0-10.942 0.685-16.091 1.977-23.542 5.863-39.926 26.598-49.398 42.958-12.317 21.039-20.479 45.925-22.708 72.5 41.782-61.22 88.203-85.409 139.611-95.883-31.746 6.784-8.667 1.595 6.878-1.805-12.076-8.835-26.563-15.137-42.285-17.817 14.842 3.257 0.228-1.932-15.783-1.932z" fill="#000000" /><path d="M504.989 325.749c-8.871-4.804-14.559-20.961-9.449-30.593 4.85-9.177 15.228-33.356 6.923-59.631-4.255-13.045-11.831-24.030-21.741-32.318 5.017 4.343 2.992-0.775 2.992-6.368 0-12.519 10.148-22.669 22.669-22.669 6.927 0 13.129 3.107 17.286 8.002 13.689 16.021 23.085 36.035 26.237 58.061 1.583 0.016 12.902 51.658-14.302 76.086-7.943 7.115-21.811 14.219-30.614 9.427z" fill="#000000" /></svg>