<?xml version="1.0" ?>
<!DOCTYPE svg  PUBLIC '-//W3C//DTD SVG 1.1//EN'  'http://www.w3.org/Graphics/SVG/1.1/DTD/svg11.dtd'>
<!-- Uploaded to: SVG Repo, www.svgrepo.com, Generator: SVG Repo Mixer Tools -->
<svg width="800px" height="800px" viewBox="0 0 512 512" version="1.1" xml:space="preserve" xmlns="http://www.w3.org/2000/svg" xmlns:xlink="http://www.w3.org/1999/xlink">
<g id="_x34_91_x2C__ball_x2C__sports_x2C__game_x2C__education">
<g>
<path d="M255.98,51c-0.54,2.01-16.38,59.25-74.32,114.21c-26.03-14.14-54.76-26.6-86.39-36.49    c4.86-6.12,10.11-12.02,15.77-17.68C151.06,71.03,203.53,51.01,255.98,51z" style="fill:#EA6A25;"/>
<path d="M109.04,121.79c39.608-39.599,91.411-59.603,143.32-60.021c2.414-6.389,3.486-10.272,3.62-10.77    c-52.45,0.01-104.92,20.03-144.94,60.04c-5.66,5.66-10.91,11.56-15.77,17.68c1.862,0.582,3.711,1.175,5.553,1.774    C103.46,127.534,106.198,124.632,109.04,121.79z" style="fill:#D85D27;"/>
<path d="M397.38,107.55L277.41,233.52c-26.74-24.4-58.47-48.07-95.75-68.31    C239.6,110.25,255.44,53.01,255.98,51C306.9,51,357.83,69.85,397.38,107.55z" style="fill:#F37C2A;"/>
<path d="M262.23,61.75c47.185,0,94.371,16.199,132.511,48.571l2.639-2.771C357.83,69.85,306.9,51,255.98,51    c-0.54,2.01-16.38,59.25-74.32,114.21c3.719,2.019,7.367,4.081,10.976,6.166C246.713,117.862,261.704,63.704,262.23,61.75z" style="fill:#DB6D23;"/>
<path d="M400.96,111.04C440.99,151.08,461,203.55,461,256.02c-1.92,0.51-53.84,14.88-106.23,66.21    c-18.88-27.311-44.319-58.57-77.359-88.71l119.97-125.97C398.59,108.69,399.78,109.86,400.96,111.04z" style="fill:#EA6A25;"/>
<path d="M397.38,122.55c1.21,1.14,2.4,2.31,3.58,3.49c36.251,36.26,56.082,82.713,59.504,130.129    c0.269-0.077,0.452-0.127,0.536-0.149c0-52.47-20.01-104.94-60.04-144.98c-1.18-1.18-2.37-2.35-3.58-3.49L277.41,233.52    c2.572,2.347,5.082,4.701,7.563,7.059L397.38,122.55z" style="fill:#D85D27;"/>
<path d="M354.77,322.23c31.19,45.09,44.53,79.409,44.801,80.1c-36.181,35.5-82.25,54.9-129.24,58.17    C291.4,397.58,323.17,353.18,354.77,322.23z" style="fill:#EA6A25;"/>
<path d="M353.937,337.23c21.295,30.784,34.263,56.538,40.438,70.007c1.751-1.604,3.487-3.231,5.195-4.907    c-0.271-0.69-13.61-35.01-44.801-80.1c-31.6,30.949-63.369,75.35-84.439,138.27c1.56-0.108,3.118-0.237,4.675-0.382    C295.884,405.263,324.979,365.593,353.937,337.23z" style="fill:#D85D27;"/>
<path d="M277.41,233.52c33.04,30.14,58.479,61.4,77.359,88.71c-31.6,30.949-63.369,75.35-84.439,138.27    c-4.771,0.33-9.55,0.5-14.33,0.5c-50.91,0-101.83-18.86-141.38-56.55L277.41,233.52z" style="fill:#F37C2A;"/>
<path d="M277.41,246.862c29.938,27.311,53.617,55.531,71.849,80.909c1.836-1.892,3.674-3.741,5.511-5.54    c-18.88-27.311-44.319-58.57-77.359-88.71L114.62,404.45c2.232,2.127,4.506,4.186,6.808,6.193L277.41,246.862z" style="fill:#DB6D23;"/>
<path d="M277.41,233.52L114.62,404.45c-1.21-1.141-2.4-2.311-3.58-3.49    C67.37,357.28,47.52,298.8,51.5,241.67c57.62-19.29,99.7-47.56,130.16-76.46C218.94,185.45,250.67,209.12,277.41,233.52z" style="fill:#EA6A25;"/>
<path d="M53,254.17c57.62-19.29,99.7-47.56,130.16-76.46c33.975,18.446,63.325,39.743,88.505,61.842    l5.745-6.032c-26.74-24.4-58.47-48.07-95.75-68.31c-30.46,28.9-72.54,57.17-130.16,76.46c-1.043,14.974-0.433,30.039,1.798,44.907    C52.35,275.799,52.248,264.961,53,254.17z" style="fill:#D85D27;"/>
<path d="M95.27,128.72c31.63,9.89,60.36,22.35,86.39,36.49c-30.46,28.9-72.54,57.17-130.16,76.46    C54.3,201.48,68.89,161.95,95.27,128.72z" style="fill:#F37C2A;"/>
<path d="M98.937,139.554c27.713,8.665,53.199,19.303,76.594,31.316c2.092-1.882,4.137-3.77,6.129-5.66    c-26.03-14.14-54.76-26.6-86.39-36.49C68.89,161.95,54.3,201.48,51.5,241.67c1.658-0.555,3.3-1.119,4.932-1.689    C61.14,204.152,75.303,169.325,98.937,139.554z" style="fill:#DB6D23;"/>
<path d="M400.96,400.96c-0.46,0.46-0.93,0.92-1.39,1.37c-0.271-0.69-13.61-35.01-44.801-80.1    C407.16,270.9,459.08,256.53,461,256.02C460.99,308.47,440.97,360.94,400.96,400.96z" style="fill:#F37C2A;"/>
<path d="M450.495,270.27c-0.008,39.904-11.61,79.813-34.773,114.249    C445.888,347.11,460.991,301.56,461,256.02c-1.92,0.51-53.84,14.88-106.23,66.21c0.641,0.927,1.263,1.841,1.889,2.758    C404.553,282.966,448.727,270.739,450.495,270.27z" style="fill:#DB6D23;"/>
<path d="M256,466c-54.194,0-105.628-20.573-144.829-57.931c-1.076-1.014-2.247-2.155-3.666-3.573    c-42.991-43.001-65.222-102.475-60.993-163.174c2.959-42.472,18.465-82.484,44.842-115.711c5.006-6.305,10.44-12.396,16.15-18.107    C147.166,67.853,199.895,46.01,255.979,46c54.218,0,105.661,20.574,144.851,57.931c1.088,1.025,2.26,2.167,3.666,3.575    C444.157,147.176,466,199.92,466,256.02c-0.011,56.085-21.853,108.814-61.504,148.475c-0.473,0.473-0.956,0.945-1.429,1.408    c-35.632,34.961-82.65,56.124-132.391,59.585C265.766,465.828,260.828,466,256,466z M255.98,56    c-53.414,0.01-103.632,20.813-141.405,58.576c-5.442,5.441-10.62,11.247-15.39,17.253c-25.115,31.637-39.88,69.739-42.698,110.188    c-4.027,57.811,17.145,114.455,58.088,155.407c1.347,1.347,2.451,2.423,3.474,3.387C155.402,436.407,204.387,456,256,456    c4.599,0,9.304-0.164,13.985-0.488c47.366-3.296,92.144-23.45,126.083-56.751c0.452-0.441,0.908-0.889,1.355-1.336    c37.764-37.772,58.566-87.991,58.576-141.406c0-53.429-20.803-103.662-58.576-141.444c-1.335-1.335-2.438-2.411-3.473-3.386    C356.607,75.593,307.616,56,255.98,56z"/>
<path d="M50.938,246.861c-2.123,0-4.092-1.362-4.766-3.494c-0.833-2.633,0.627-5.442,3.26-6.275l0.486-0.166    c50.126-16.781,93.294-42.131,128.3-75.344c56.88-53.955,72.304-109.54,72.933-111.88c0.019-0.072,0.04-0.143,0.063-0.214    c0.622-2.054,2.529-3.549,4.786-3.549c2.762,0,5,2.239,5,5c0,0.48-0.077,0.979-0.217,1.453    c-0.977,3.578-17.399,61.16-75.682,116.444c-36.071,34.224-80.487,60.324-132.014,77.574l-0.165,0.057    c-0.156,0.054-0.316,0.109-0.476,0.16C51.946,246.786,51.438,246.861,50.938,246.861z"/>
<path d="M270.135,466.061c-0.814,0-1.641-0.199-2.404-0.62c-2.193-1.206-3.123-3.815-2.289-6.095l0.036-0.108    c0.044-0.133,0.088-0.264,0.134-0.393c18.628-55.595,47.449-102.763,85.659-140.187c52.896-51.824,104.969-66.531,108.345-67.444    c0.473-0.139,0.968-0.214,1.444-0.214c2.762,0,5,2.239,5,5c0,2.253-1.489,4.157-3.537,4.782c-0.079,0.025-0.159,0.049-0.239,0.07    c-0.518,0.138-52.344,14.325-104.015,64.949c-37.086,36.322-65.077,82.176-83.197,136.286c-0.021,0.061-0.042,0.12-0.064,0.181    l-0.101,0.303c-0.101,0.311-0.232,0.62-0.386,0.897C273.61,465.124,271.899,466.061,270.135,466.061z"/>
<path d="M399.57,407.335c-2.19,0-4.053-1.406-4.729-3.366c-1.218-3.07-14.674-36.233-44.185-78.894    c-22.314-32.28-48.093-61.841-76.617-87.861c-29.014-26.475-60.897-49.222-94.766-67.61    c-26.996-14.665-55.761-26.814-85.497-36.112c-2.636-0.824-4.104-3.628-3.28-6.264c0.823-2.636,3.626-4.107,6.264-3.28    c30.354,9.49,59.72,21.895,87.285,36.868c34.577,18.773,67.123,41.991,96.733,69.01c29.081,26.529,55.359,56.662,78.103,89.561    c30.455,44.026,43.904,77.44,45.338,81.105c0.227,0.58,0.35,1.214,0.35,1.837C404.57,405.092,402.332,407.335,399.57,407.335z"/>
<path d="M114.59,409.46c-1.278,0-2.554-0.482-3.526-1.454c-1.953-1.953-1.973-5.099-0.02-7.051l282.714-296.854    c0.028-0.029,0.057-0.059,0.086-0.087c1.951-1.953,5.138-1.973,7.091-0.02c1.951,1.952,1.973,5.095,0.023,7.048L118.241,407.898    c-0.028,0.029-0.056,0.059-0.085,0.087C117.174,408.967,115.881,409.46,114.59,409.46z"/>
<path d="M411,466H71c-2.761,0-5-2.238-5-5s2.239-5,5-5h340c2.762,0,5,2.238,5,5S413.762,466,411,466z"/>
<path d="M451,466h-10c-2.762,0-5-2.238-5-5s2.238-5,5-5h10c2.762,0,5,2.238,5,5S453.762,466,451,466z"/>
</g>
</g>
<g id="Layer_1"/>
</svg>