<?xml version="1.0" encoding="iso-8859-1"?>
<!-- Uploaded to: SVG Repo, www.svgrepo.com, Generator: SVG Repo Mixer Tools -->
<svg fill="#000000" height="800px" width="800px" version="1.1" id="Layer_1" xmlns="http://www.w3.org/2000/svg" xmlns:xlink="http://www.w3.org/1999/xlink" 
	 viewBox="0 0 510.4 510.4" xml:space="preserve">
<g>
	<g>
		<path d="M505.2,80c-6.4-6.4-16-6.4-22.4,0l-89.6,89.6c-1.6,1.6-6.4,3.2-12.8,1.6c-4.8-1.6-9.6-3.2-14.4-6.4L468.4,62.4
			c6.4-6.4,6.4-16,0-22.4c-6.4-6.4-16-6.4-22.4,0L343.6,142.4c-3.2-4.8-4.8-9.6-4.8-12.8c-1.6-6.4-1.6-11.2,1.6-12.8L430,27.2
			c6.4-6.4,6.4-16,0-22.4c-6.4-6.4-16-6.4-22.4,0L290.8,121.6c-16,16-20.8,40-14.4,62.4l-264,256c-16,16-16,43.2,0,59.2
			c6.4,6.4,16,11.2,27.2,11.2c11.2,0,22.4-4.8,30.4-12.8L319.6,232c8,3.2,16,4.8,24,4.8c16,0,32-6.4,44.8-17.6l116.8-116.8
			C511.6,96,511.6,86.4,505.2,80z M46,475.2c-3.2,3.2-9.6,3.2-14.4,0c-3.2-3.2-3.2-9.6,1.6-12.8l257.6-249.6c0,0,1.6,1.6,1.6,3.2
			L46,475.2z M316.4,192c-14.4-14.4-16-35.2-4.8-48c4.8,11.2,11.2,22.4,20.8,32c9.6,9.6,20.8,16,32,20.8
			C351.6,208,329.2,206.4,316.4,192z"/>
	</g>
</g>
</svg>