<?xml version="1.0" encoding="utf-8"?>
<!-- Uploaded to: SVG Repo, www.svgrepo.com, Generator: SVG Repo Mixer Tools -->
<svg width="800px" height="800px" viewBox="0 0 1024 1024" class="icon"  version="1.1" xmlns="http://www.w3.org/2000/svg"><path d="M799.165 406.046c0.302 52.799-40.753 108.907-96.231 108.638-54.985-0.271-95.227-55.798-95.227-107.966 0-52.016 39.99-107.705 95.227-107.966s95.93 55.187 96.231 107.294z" fill="#713FCC" /><path d="M703.327 534.753h-0.491c-31.705-0.161-61.385-14.996-83.581-41.786-20.061-24.243-31.605-55.678-31.605-86.26s11.475-61.947 31.494-86.169c22.177-26.841 51.907-41.706 83.703-41.856s61.746 14.464 84.194 41.125c20.282 24.071 32.017 55.497 32.197 86.079 0.202 34.905-14.644 70.723-39.719 95.818-21.284 21.335-48.326 33.050-76.191 33.050zM703.327 318.813h-0.291c-19.69 0.091-38.496 9.789-52.959 27.293-13.961 16.901-22.308 39.559-22.308 60.613s8.364 43.742 22.378 60.653c14.483 17.483 33.27 27.161 52.889 27.262 22.067 0.121 38.345-11.484 48.085-21.233 17.403-17.412 28.086-43.13 27.984-67.203-0.121-21.065-8.636-43.671-22.778-60.493-14.574-17.372-33.391-26.901-53.009-26.901z" fill="#000000" /><path d="M727.007 604.023c0.331 52.799-40.793 108.908-96.231 108.638-54.985-0.271-95.227-55.798-95.227-107.966 0-52.016 39.99-107.705 95.227-107.966s95.929 55.187 96.231 107.294z" fill="#713FCC" /><path d="M631.168 732.72h-0.491c-31.705-0.161-61.385-15.046-83.582-41.786-20.061-24.244-31.606-55.678-31.606-86.26s11.475-61.947 31.494-86.169c22.178-26.841 51.907-41.707 83.703-41.856s61.746 14.464 84.194 41.125c20.282 24.071 32.017 55.497 32.197 86.079 0.202 34.905-14.644 70.724-39.719 95.818-21.284 21.344-48.326 33.050-76.191 33.050zM631.168 516.779h-0.291c-19.689 0.091-38.496 9.789-52.959 27.292-13.961 16.901-22.308 39.559-22.308 60.613s8.365 43.742 22.378 60.653c14.483 17.483 33.27 27.161 52.889 27.262 22.067 0.13 38.345-11.484 48.085-21.233 17.403-17.412 28.086-43.131 27.984-67.203-0.121-21.063-8.636-43.671-22.778-60.492-14.575-17.362-33.391-26.891-53.009-26.891z" fill="#000000" /><path d="M484.678 601.876c0.302 52.799-40.753 108.907-96.231 108.638-54.995-0.231-95.227-55.798-95.227-107.977 0-52.016 39.99-107.705 95.227-107.966s95.929 55.227 96.231 107.303z" fill="#7C45E0" /><path d="M388.838 730.574h-0.521c-31.705-0.161-61.385-14.996-83.581-41.786-20.061-24.244-31.605-55.678-31.605-86.26s11.475-61.947 31.494-86.169c22.178-26.841 51.907-41.707 83.703-41.856h0.482c31.665 0 61.375 14.603 83.712 41.125 20.282 24.071 32.017 55.497 32.187 86.079 0.202 34.905-14.644 70.724-39.719 95.818-21.244 21.344-48.285 33.050-76.15 33.050zM388.838 514.633h-0.281c-19.69 0.091-38.496 9.789-52.959 27.292-13.982 16.901-22.317 39.569-22.317 60.613s8.364 43.742 22.378 60.653c14.483 17.483 33.27 27.161 52.889 27.262 22.067 0.13 38.345-11.484 48.085-21.233 17.403-17.412 28.086-43.131 27.984-67.203-0.121-21.063-8.636-43.671-22.778-60.492-14.575-17.362-33.391-26.891-53.009-26.891z" fill="#000000" /><path d="M416.281 406.046c5.267 58.667-53.662 117.906-96.231 108.638-33.28-7.242-53.050-55.587-51.706-93.633 1.495-42.217 29.86-96.561 72.539-97.474 38.858-0.833 71.857 43.010 75.398 82.469z" fill="#884CF6" /><path d="M416.281 406.046c-2.548 65.558-87.322 106.882-95.287 99.38-6.079-5.738 35.306-37.492 43.13-98.889 6.841-53.591-17.142-88.527-8.708-92.901 10.421-5.386 62.919 39.458 60.863 92.409z" fill="#713FCC" /><path d="M320.442 534.753h-0.491c-31.705-0.161-61.385-14.996-83.582-41.786-20.080-24.253-31.605-55.689-31.605-86.26 0-0.002 0-0.003 0-0.005 0-11.079 8.981-20.061 20.060-20.061 11.079 0 20.061 8.981 20.061 20.061 0 0.002 0 0.004 0 0.005 0 21.063 8.364 43.741 22.378 60.652 14.483 17.483 33.27 27.162 52.85 27.273 22.067 0.121 38.345-11.484 48.085-21.233 17.403-17.412 28.086-43.131 27.984-67.203-0.119-21.065-8.636-43.673-22.778-60.492-14.644-17.412-33.561-26.941-53.29-26.862-12.788 0.060-24.946 4.013-36.108 11.735-3.184 2.219-7.131 3.547-11.389 3.547-11.079 0-20.061-8.981-20.061-20.061 0-6.821 3.405-12.847 8.606-16.471 16.609-11.753 37.183-18.79 59.394-18.874 31.274-0.117 61.164 14.467 83.612 41.127 20.282 24.071 32.017 55.497 32.187 86.079 0.202 34.905-14.644 70.723-39.719 95.818-21.284 21.294-48.325 33.009-76.191 33.009z" fill="#000000" /><path d="M237.472 375.222c-11.070-0.011-20.041-8.989-20.041-20.061 0-3.293 0.794-6.399 2.198-9.141q0.699-1.381 1.492-2.896c3.451-6.355 10.074-10.597 17.689-10.597 11.079 0 20.061 8.981 20.061 20.061 0 3.466-0.878 6.726-2.425 9.569q-0.509 0.897-1.050 2.010c-3.373 6.608-10.13 11.054-17.924 11.054z" fill="#000000" /><path d="M628.651 755.669c0.39 64.043-49.43 132.148-116.722 131.777-22.729-0.111-43.371-8.025-60.723-20.862-17.27-12.967-30.907-29.862-39.719-49.403q17.483 28.189 16.178 26.565c-14.913-18.608-25.404-41.385-29.521-66.309 1.845 13.837-1.697-3.474-1.726-21.609 0.004-62.417 48.509-129.97 115.511-130.291s116.361 66.942 116.722 130.132z" fill="#884CF6" /><path d="M608.39 681.146c-1.746 24.353-53.532 45.929-97.143 40.602s-88.948-38.967-84.495-63.371c4.172-22.88 51.415-34.464 85.167-32.848 45.847 2.197 98.297 30.262 96.471 55.617z" fill="#713FCC" /><path d="M622.512 786.834c-21.395 74.474-110.634 110.112-119.018 100.613-7.242-8.194 51.796-42.99 61.797-115.137 7.422-53.582-16.72-95.125-0.833-104.505 10.672-6.298 30.482 7.181 40.642 17.423 35.417 35.687 18.596 97.485 17.412 101.606z" fill="#713FCC" /><path d="M512.4 907.508h-0.572c-37.172-0.18-72.017-17.633-98.117-49.148-23.741-28.646-37.353-65.789-37.353-101.888s13.571-73.171 37.222-101.797c26.078-31.565 60.974-49.047 98.297-49.228s72.438 17.051 98.839 48.406c23.972 28.507 37.835 65.568 38.045 101.687 0.242 41.213-17.303 83.522-46.932 113.171-25.045 25.045-56.772 38.797-89.43 38.797zM512.4 645.578h-0.371c-25.165 0.119-49.148 12.427-67.514 34.655-17.554 21.244-28.035 49.749-28.035 76.23s10.512 55.035 28.086 76.289c18.385 22.197 42.337 34.484 67.423 34.614h0.401c28.086 0 48.647-14.675 60.974-27.011 21.886-21.906 35.366-54.314 35.196-84.585-0.151-26.51-10.852-54.956-28.637-76.1-18.466-21.986-42.448-34.093-67.534-34.093z" fill="#000000" /><path d="M628.651 551.153c8.335 66.351-46.329 132.158-116.722 131.777-68.887-0.371-123.713-63.973-115.508-130.965 7.202-58.766 60.995-104.505 121.577-101.757 56.791 2.578 103.883 47.061 110.653 100.944z" fill="#884CF6" /><path d="M613.615 490.21c3.511 25.207-45.758 61.826-93.433 60.934-56.169-1.003-107.324-54.164-99.3-79.359 9.027-28.286 92.971-21.917 97.143-21.564 26.22 2.167 91.766 12.628 95.588 39.99z" fill="#713FCC" /><path d="M619.603 603.962c-20.561 49.399-71.063 80.554-81.246 72.579-10.762-8.386 33.963-51.164 34.515-121.727 0.592-74.695-48.827-121.938-37.462-130.914 9.629-7.602 52.7 20.313 75.478 60.965 3.551 6.369 32.929 60.924 8.717 119.099z" fill="#713FCC" /><path d="M512.4 702.99h-0.572c-37.172-0.18-72.017-17.633-98.117-49.148-23.741-28.646-37.353-65.789-37.353-101.888s13.571-73.171 37.222-101.798c26.078-31.565 60.974-49.049 98.297-49.228s72.438 17.051 98.839 48.406c23.972 28.507 37.835 65.568 38.045 101.687 0.242 41.213-17.303 83.522-46.932 113.171-25.045 25.025-56.772 38.797-89.43 38.797zM512.4 441.061h-0.371c-25.165 0.119-49.148 12.427-67.514 34.655-17.554 21.244-28.035 49.749-28.035 76.23s10.512 55.035 28.086 76.289c18.385 22.197 42.337 34.484 67.423 34.614h0.401c28.086 0 48.647-14.675 60.974-27.011 21.886-21.906 35.366-54.314 35.196-84.585-0.151-26.51-10.852-54.956-28.637-76.1-18.466-21.986-42.448-34.093-67.534-34.093z" fill="#000000" /><path d="M608.049 406.046c0.302 52.799-40.753 108.907-96.231 108.638-54.985-0.271-95.227-55.798-95.227-107.966 0-52.016 39.99-107.705 95.227-107.966s95.929 55.187 96.231 107.294z" fill="#FFFFFF" /><path d="M608.049 406.046c6.32 58.085-51.225 117.253-96.231 108.649-31.977-6.119-52.158-45.407-55.849-76.23-6.019-50 27.443-111.918 73.643-113.222 38.527-1.073 74.044 40.352 78.436 80.803z" fill="#884CF6" /><path d="M608.049 406.046c-1.163 69.76-88.165 115.82-96.231 108.638-6.238-5.546 37.362-40.522 43.922-105.237 5.939-58.587-23.001-96.842-14.514-101.606 10.201-5.738 67.755 40.813 66.821 98.206z" fill="#713FCC" /><path d="M512.209 534.753h-0.521c-31.705-0.161-61.385-14.996-83.582-41.786-20.060-24.243-31.606-55.678-31.606-86.26s11.475-61.947 31.494-86.169c22.178-26.841 51.907-41.706 83.703-41.856s61.746 14.464 84.194 41.125c20.282 24.071 32.017 55.497 32.187 86.079 0.202 34.905-14.644 70.723-39.719 95.818-21.244 21.335-48.285 33.050-76.15 33.050zM512.209 318.813h-0.291c-19.689 0.091-38.497 9.789-52.959 27.293-13.961 16.901-22.308 39.559-22.308 60.613s8.364 43.742 22.378 60.653c14.483 17.483 33.27 27.161 52.889 27.262 22.067 0.121 38.346-11.484 48.086-21.233 17.403-17.412 28.086-43.13 27.984-67.203-0.119-21.065-8.636-43.671-22.778-60.493-14.575-17.372-33.391-26.901-53.009-26.901z" fill="#000000" /><path d="M324.252 172.361c5.125-21.696 76.642-33.761 131.337-8.225 34.353 16.049 69.601 50.433 62.418 68.206-8.455 20.933-75.227 17.693-124.686-2.899-27.363-11.374-73.553-38.105-69.068-57.082z" fill="#6BE166" /><path d="M476.311 266.625c-7.956-0.027-15.77-0.501-23.453-1.396-30.985-3.463-60.683-12.691-87.596-26.567 2.683 1.954-16.223-8.518-30.215-18.688-9.027-6.549-36.4-26.469-30.311-52.227 1.825-7.733 7.583-18.676 24.634-26.931 29.439-14.294 86.65-17.303 134.706 5.146 32.416 15.664 58.793 39.439 77.168 68.745 0.246-5.111-0.055 13.825-4.639 25.17-2.517 6.238-8.355 14.865-21.805 20.492-11.374 4.754-25.327 6.259-38.486 6.259zM346.53 177.045c2.688 3.009 7.834 7.804 17.493 14.213 26.617 17.628 58.173 30.132 92.14 35.313-32.545-6.177-6.327-0.441 21.162 0.123 4.624 0.665 15.066-1.061 20.131-2.656-1.897-3.541-5.948-9.328-13.772-16.73-18.477-17.341-41.622-29.919-67.348-35.652 11.481 1.628-12.944-2.825-36.254-1.661-16.65 0.833-27.875 4.282-33.55 7.052zM324.252 172.361z" fill="#000000" /><path d="M535.089 322.112c-0.009 0-0.022 0-0.034 0-7.143 0-13.415-3.734-16.969-9.356-8.393-13.442-26.999-49.433-19.609-94.918 10.201-62.519 60.754-93.321 70.793-98.848 2.65-1.378 5.786-2.188 9.111-2.188 11.079 0 20.060 8.981 20.060 20.060 0 7.289-3.888 13.671-9.702 17.183-7.271 4.062-43.471 26.018-50.652 70.182-5.206 32.037 8.025 57.634 13.993 67.143 1.933 3.029 3.081 6.721 3.081 10.683 0 11.079-8.981 20.061-20.061 20.061-0.005 0-0.007 0-0.012 0z" fill="#000000" /></svg>