<?xml version="1.0" encoding="UTF-8"?>
<svg version="1.1" xmlns="http://www.w3.org/2000/svg" width="800" height="800">
<path d="M0 0 C264 0 528 0 800 0 C800 264 800 528 800 800 C536 800 272 800 0 800 C0 536 0 272 0 0 Z " fill="#FEFEFE" transform="translate(0,0)"/>
<path d="M0 0 C31.94574863 28.51035975 53.97691016 67.23193328 56.76269531 110.64941406 C58.14745582 156.94858058 45.74021031 199.89399696 13.79003906 234.46582031 C11.17234212 237.22271984 8.51211742 239.93687864 5.85253906 242.65332031 C4.84064064 243.69595684 3.82911107 244.73895141 2.81787109 245.78222656 C-0.06639084 248.75440594 -2.96532751 251.71172957 -5.87252808 254.66146851 C-7.03534618 255.84355995 -8.19507717 257.02869797 -9.35134888 258.2171936 C-19.59914759 268.73007792 -30.53154427 277.79071606 -43.70996094 284.46582031 C-44.41975098 284.83199463 -45.12954102 285.19816895 -45.86083984 285.57543945 C-55.63837508 290.53010823 -65.24071613 294.18888764 -76.14746094 295.65332031 C-75.70303819 305.08744008 -75.70303819 305.08744008 -72.14746094 313.65332031 C-63.68450173 320.04371808 -53.04973182 319.93114349 -42.83496094 320.15332031 C-14.46695969 321.02891327 16.87598826 322.07923271 37.72363281 344.08300781 C57.97622671 368.53476338 57.35740018 399.62402225 56.85253906 429.65332031 C56.83114018 431.65300939 56.80974401 433.6526985 56.78852844 435.65238953 C56.7460439 439.00731321 56.67290938 442.36136409 56.60253906 445.71582031 C56.58860107 446.95775146 56.57466309 448.19968262 56.56030273 449.47924805 C56.32894135 457.90757688 55.26757961 465.24103052 49.99316406 472.05566406 C42.66919523 478.0026057 36.35027561 480.55128813 26.85253906 479.65332031 C19.64256092 478.73568673 14.39744733 474.10403198 9.85253906 468.65332031 C6.41913577 461.79014366 6.43708538 455.38499686 6.47241402 447.79670143 C6.48163231 445.62887593 6.47117844 443.46189596 6.45579529 441.29411316 C6.41600462 435.13610972 6.41447819 428.97817917 6.41674805 422.82006836 C6.41679967 419.03698876 6.39737582 415.25436484 6.36741447 411.47141075 C6.35675565 409.35934645 6.36862 407.24821669 6.38124084 405.13618469 C6.29932011 394.40514364 5.29651543 383.9168212 -2.14746094 375.65332031 C-6.78286611 372.95872029 -12.47223488 372.73641037 -17.70996094 372.09082031 C-19.28052246 371.8925061 -19.28052246 371.8925061 -20.8828125 371.69018555 C-29.05839762 370.73235374 -37.17248948 370.39408614 -45.39746094 370.21582031 C-69.47059863 369.62822903 -92.65638297 364.86171083 -110.02246094 346.96582031 C-120.4664148 334.52889177 -126.42977241 316.54436941 -126.20996094 300.27832031 C-126.2009375 299.40433594 -126.19191406 298.53035156 -126.18261719 297.62988281 C-126.17101562 296.97761719 -126.15941406 296.32535156 -126.14746094 295.65332031 C-127.32888672 295.41548828 -127.32888672 295.41548828 -128.53417969 295.17285156 C-158.71821867 288.70739469 -179.78548236 271.19182347 -201.11499023 249.92602539 C-203.07120099 247.97951205 -205.03786371 246.04398061 -207.00488281 244.10839844 C-239.74860987 211.63873566 -258.92018402 170.51963911 -259.33496094 124.09082031 C-259.25404825 89.31131178 -248.96802727 54.14211969 -227.14746094 26.65332031 C-226.18839844 25.39068359 -226.18839844 25.39068359 -225.20996094 24.10253906 C-198.98375951 -9.42527526 -161.78100623 -30.37716405 -119.58496094 -35.65917969 C-77.09720815 -40.19421997 -32.59434399 -28.15379685 0 0 Z " fill="#000000" transform="translate(501.1474609375,178.3466796875)"/>
<path d="M0 0 C4.90714517 4.29461232 4.90714517 4.29461232 6.97265625 6.5 C6.97265625 7.16 6.97265625 7.82 6.97265625 8.5 C7.63265625 8.5 8.29265625 8.5 8.97265625 8.5 C23.91028073 24.99068562 33.27644396 45.681314 36.97265625 67.5 C37.10414063 68.26183594 37.235625 69.02367187 37.37109375 69.80859375 C41.45507185 99.00351829 32.77344606 129.20592379 15.59765625 152.875 C9.4975335 160.49294857 2.43814339 167.21442499 -4.5390625 174.01953125 C-8.04560157 177.46191049 -11.31371309 181.03460314 -14.5144043 184.76049805 C-26.16438372 198.15506048 -44.43312691 208.32500445 -62.37646484 209.67700195 C-85.38774686 210.25865672 -105.39523779 205.51383688 -122.75 189.6796875 C-127.83779615 184.83785048 -132.58085802 179.6634843 -137.3203125 174.484375 C-140.1843037 171.36871104 -143.14659766 168.39465042 -146.19628906 165.46191406 C-168.29689991 144.12294042 -179.60997574 115.31322294 -180.33984375 84.75 C-180.14688103 52.60398652 -166.99459351 24.80241863 -144.40722656 2.4621582 C-104.12683999 -36.08836255 -41.97930828 -34.66678361 0 0 Z " fill="#881184" transform="translate(471.02734375,217.5)"/>
<path d="M0 0 C0.99 0 1.98 0 3 0 C6.41075077 6.82150154 3.41025176 13.44550221 1.4375 20.375 C1.20353516 21.20644531 0.96957031 22.03789062 0.72851562 22.89453125 C0.15517202 24.93048609 -0.4220244 26.96535527 -1 29 C-1.33 29 -1.66 29 -2 29 C-1.8613598 24.7289011 -1.71286099 20.45820108 -1.5625 16.1875 C-1.52318359 14.97255859 -1.48386719 13.75761719 -1.44335938 12.50585938 C-1.38051758 10.76079102 -1.38051758 10.76079102 -1.31640625 8.98046875 C-1.27974854 7.90692139 -1.24309082 6.83337402 -1.20532227 5.72729492 C-1 3 -1 3 0 0 Z " fill="#CDCDCD" transform="translate(247,240)"/>
<path d="M0 0 C1.32 0 2.64 0 4 0 C3.54705135 1.75140143 3.08741252 3.50107344 2.625 5.25 C2.36976563 6.22453125 2.11453125 7.1990625 1.8515625 8.203125 C1.10401491 10.65837303 0.22876183 12.75617405 -1 15 C-1.02703381 13.06257659 -1.04641125 11.12504521 -1.0625 9.1875 C-1.07410156 8.10855469 -1.08570313 7.02960938 -1.09765625 5.91796875 C-1 3 -1 3 0 0 Z " fill="#7C7C7C" transform="translate(248,246)"/>
</svg>
