<?xml version="1.0" encoding="iso-8859-1"?>
<!-- Uploaded to: SVG Repo, www.svgrepo.com, Generator: SVG Repo Mixer Tools -->
<svg xmlns="http://www.w3.org/2000/svg" xmlns:xlink="http://www.w3.org/1999/xlink" version="1.1" id="Layer_1"  viewBox="0 0 489.687 489.687" xml:space="preserve" width="512" height="512">
<g>
	<path style="fill:#F4A026;" d="M409.91,301.824c-8.893-6.159-29.575-24.45-29.575-61.207c0-25.012,6.969-46.3,20.712-63.274   l3.921-4.844l5.656,2.617c13.613,6.3,26.771,15.251,39.107,26.604c14.835,13.666,24.708,27.507,29.273,34.541l2.825,4.353   l-2.821,4.354c-4.555,7.029-14.416,20.865-29.274,34.554c-9.99,9.196-20.572,16.853-31.455,22.757l-4.325,2.347L409.91,301.824z"/>
	<path style="fill:#F4A026;" d="M353.495,361.266c-25.068,0-43.268-3.812-50.185-7.588l-4.625-2.526l0.495-5.246   c1.136-12.041,5.675-22.147,13.878-30.899l3.114-3.322l4.447,0.98c14.98,3.306,28.022,5.053,37.717,5.053   c16.6,0,33-3.414,48.744-10.146l7.568-3.236l3.02,7.657c5.408,13.715,1.532,27.453-10.913,38.685l-0.384,0.346l-0.426,0.295   C392.96,360.296,364.939,361.266,353.495,361.266z"/>
	<path style="fill:#F4A026;" d="M260.813,182.257c-15.048-15.563-20.633-28.394-16.6-38.132   c5.533-13.338,27.348-16.508,32.452-16.578c-0.003,0,3.478-0.05,4.602-0.069c12.965-0.22,37.093-0.63,84.774-19.205   c4.914-1.917,9.459-2.89,13.507-2.89c7.261,0,11.305,3.131,12.634,4.159c13.886,10.806,14.196,40.313,13.686,52.499l-0.438,10.463   l-9.979-3.174c-12.109-3.852-24.597-5.804-37.116-5.804c-21.528,0-58.058,8.476-88.836,20.612l-4.972,1.96L260.813,182.257z"/>
	<path style="fill:#E46A53;" d="M358.335,317.717c-19.578,0-58.054-7.758-93.711-22.584c-23.069-9.593-61.769-29.432-61.769-54.517   c0-25.07,38.699-44.917,61.767-54.516c35.643-14.82,74.123-22.574,93.713-22.574c12.14,0,24.132,1.764,35.643,5.241l10.77,3.254   l-6.609,9.104c-11.813,16.274-17.804,36.29-17.804,59.491c0,28.906,12.633,46.457,23.23,56.09l9.767,8.878l-12.389,4.551   C387.25,315.166,372.915,317.717,358.335,317.717z"/>
	<path style="fill:#F4A026;" d="M102.055,384.266c-1.994,0-4.059-0.073-6.137-0.219c-49.745-3.432-69.593-26.565-76.996-40.051   l-8.203-14.941l16.735,3.237c6.963,1.347,15.074,2.784,23.21,2.784c19.411,0,30.095-8.512,32.665-26.021   c3.285-22.381,18.942-39.423,45.279-49.284c19.117-7.157,37.171-8.033,37.931-8.067c-43.588-1.72-53.28-23.289-61.832-42.318   c-4.338-9.626-8.415-18.67-16.371-24.331c-5.996-4.266-14.011-6.429-23.822-6.429c-14.367,0-30.021,4.639-40.623,8.53l-16.344,6   l6.093-16.31c16.092-43.072,39.857-64.911,70.634-64.911c53.123,0,111.462,63.446,134.079,90.724l4.857,5.858l-5.608,5.144   c-3.216,2.95-5.945,5.953-8.112,8.926c0,0-2.927,3.771-4.747,8.411c-0.519,1.579-1.27,4.2-1.27,4.2   c-0.41,1.838-0.618,3.66-0.618,5.418c0,3.965,0.93,7.826,2.841,11.807c0,0,1.274,2.591,2.225,3.975   c2.33,3.788,6.289,7.853,6.289,7.853c2.606,2.72,5.677,5.45,9.126,8.115l5.894,4.554l-4.123,6.204   c-2.018,3.037-4.273,6.56-6.41,9.907C196.899,327.163,160.431,384.266,102.055,384.266z"/>
	<g>
		<circle cx="410.229" cy="222.551" r="8"/>
		<path d="M348.333,260.693c-2.048,0-4.095-0.781-5.657-2.344c-4.736-4.736-7.344-11.033-7.344-17.73    c0-6.698,2.608-12.995,7.345-17.731c3.125-3.122,8.19-3.123,11.314,0.001s3.124,8.189,0,11.313    c-1.714,1.714-2.658,3.992-2.658,6.417c0,2.424,0.944,4.703,2.659,6.418c3.124,3.124,3.124,8.189,0,11.313    C352.428,259.911,350.38,260.693,348.333,260.693z"/>
		<path d="M311.331,260.693c-2.048,0-4.095-0.781-5.657-2.344c-9.776-9.777-9.776-25.686,0-35.462c3.124-3.123,8.189-3.123,11.313,0    c3.125,3.125,3.125,8.189,0,11.314c-3.538,3.538-3.538,9.296,0,12.835c3.124,3.124,3.124,8.189-0.001,11.313    C315.426,259.911,313.379,260.693,311.331,260.693z"/>
		<path d="M488.675,236.717c-0.47-0.83-11.64-20.61-33.13-40.51c-13.1-12.14-27.22-21.66-42.01-28.44    c1.12-14.67,1.78-50.34-16.4-64.51c-6.12-4.77-16.99-9.06-34-2.44c-43.22,16.84-66.27,18.37-81.61,18.66    c-1.25,0.02-4.97,0.07-4.97,0.07c-8.04,0.11-32.6,4.3-39.73,21.52c-4.92,11.89-0.16,26.11,14.14,42.32    c-8.95,4.18-17.98,9.02-26.11,14.52c-18.49-22.53-81.78-93.97-140.58-93.97c-38.62,0-66.87,29.5-83.95,87.69    c-0.9,3.06,0.11,6.36,2.55,8.4c2.45,2.04,5.88,2.44,8.72,1c0.29-0.14,28.91-14.4,52.92-14.4c8.12,0,14.57,1.66,19.18,4.94    c6.21,4.42,9.69,12.15,13.71,21.11c6.03,13.39,13.04,28.98,31.43,38.44c-1.23,0.42-2.47,0.87-3.71,1.34    c-28.8,10.94-45.99,30.11-49.71,55.43c-1.97,13.45-9.37,19.19-24.75,19.19c-8.25,0-17.07-1.73-24.15-3.12    c-5.33-1.05-9.54-1.88-12.83-1.88c-2.34,0-4.56,1.03-6.08,2.81c-1.52,1.78-2.19,4.13-1.82,6.44c0.09,0.59,2.43,14.66,15.05,29.08    c11.25,12.86,33.31,28.78,74.54,31.63c2.22,0.15,4.47,0.23,6.68,0.23c62.77,0,102.2-61.75,123.38-94.92    c2.26-3.55,4.35-6.82,6.25-9.66c9.62,5.79,20.05,10.75,29.87,14.83c12.62,5.25,26.51,9.93,40.18,13.69    c-5.37,7.56-9.99,17.79-10.73,31.86c-0.12,2.26,0.38,5.63,3.46,8.88c11.13,11.72,51.13,12.32,59.03,12.32    c15.24,0,42.72-1.49,57.02-11.38c0.83-0.53,1.48-1.16,1.62-1.29c15.5-14.01,19.84-31.69,12.47-48.78    c10.79-6.1,21.15-13.71,30.94-22.78c21.49-19.91,32.66-39.68,33.13-40.52C490.025,242.097,490.025,239.137,488.675,236.717z     M251.605,147.186c3.31-7.98,19.35-11.56,25.17-11.64c0,0,3.5-0.05,4.63-0.07c16.49-0.28,41.26-1.72,87.54-19.75    c12.1-4.72,16.8-1.05,18.35,0.15c9.15,7.12,11.29,28.87,10.58,45.83c-12.86-4.09-26.1-6.18-39.54-6.18    c-22.55,0-60.35,8.78-91.77,21.17C254.295,164.006,248.975,153.536,251.605,147.186z M211.955,288.726    c-20.91,32.74-55.9,87.54-109.9,87.54c-1.84,0-3.72-0.07-5.58-0.2c-45.23-3.12-63.42-22.95-70.54-35.92    c7.29,1.41,15.95,2.93,24.73,2.93c29.56,0,38.38-17.87,40.58-32.86c6.93-47.21,74.97-50.49,75.65-50.52    c4.3-0.16,7.7-3.69,7.7-7.99c0-4.3-3.39-7.83-7.69-8c-38.67-1.52-46.56-19.04-54.9-37.6c-4.57-10.14-9.29-20.64-19.03-27.57    c-7.38-5.25-16.95-7.91-28.46-7.91c-15.31,0-31.61,4.7-43.38,9.02c14.81-39.64,36-59.71,63.14-59.71    c51.03,0,110.31,66.59,127.92,87.83c-3.49,3.2-6.59,6.57-9.17,10.11c-38.73-41.52-81.9-81.55-117.1-81.95    c-0.18-0.01-1.52-0.07-3.19,0.07c-5.2,0.31-9.88,1.57-14.25,3.83c-3.92,2.03-5.46,6.85-3.43,10.78c2.02,3.93,6.85,5.46,10.78,3.43    c2.55-1.32,5.39-2.01,8.67-2.1c34.1-1,88.25,56.63,111.16,81.52c-0.52,2.33-0.81,4.72-0.81,7.16c0,5.35,1.31,10.44,3.63,15.27    c-38.32,58.29-74.51,92.07-95.05,88.5c-4.36-0.76-8.5,2.15-9.26,6.5c-0.76,4.35,2.15,8.5,6.5,9.26c1.94,0.34,3.9,0.51,5.91,0.51    c17.29,0,37.32-12.58,61.01-38.23c16.2-17.55,30.96-37.99,40.84-52.64c2.99,3.12,6.36,6.09,10.01,8.91    C216.445,281.706,214.285,285.077,211.955,288.726z M267.695,287.746c-35.59-14.8-56.84-32.42-56.84-47.13    s21.25-32.32,56.84-47.13c34.68-14.42,71.85-21.96,90.64-21.96c11.41,0,22.54,1.64,33.33,4.9    c-12.82,17.66-19.33,39.18-19.33,64.19c0,32.26,14.54,51.73,25.85,62.01c-12.82,4.71-26.13,7.09-39.85,7.09    C339.545,309.717,302.375,302.166,267.695,287.746z M401.395,344.736c-7.62,5.27-25.89,8.53-47.9,8.53    c-25.18,0-41.59-4.01-46.35-6.61c1.17-12.4,6.37-20.44,11.75-26.18c15,3.31,28.89,5.24,39.44,5.24c17.78,0,35.24-3.67,51.89-10.79    C413.565,323.397,413.285,334.006,401.395,344.736z M444.315,273.637c-9.57,8.81-19.53,16.01-29.85,21.61    c-8.39-5.81-26.13-21.95-26.13-54.63c0-23.18,6.38-42.74,18.93-58.24c12.9,5.97,25.27,14.39,37.05,25.23    c14.34,13.21,23.82,26.6,27.98,33.01C468.135,247.036,458.655,260.427,444.315,273.637z"/>
	</g>
</g>















</svg>