<?xml version="1.0" encoding="iso-8859-1"?>
<!-- Uploaded to: SVG Repo, www.svgrepo.com, Generator: SVG Repo Mixer Tools -->
<svg height="800px" width="800px" version="1.1" id="Layer_1" xmlns="http://www.w3.org/2000/svg" xmlns:xlink="http://www.w3.org/1999/xlink" 
	 viewBox="0 0 512 512" xml:space="preserve">
<g transform="translate(1 1)">
	<path style="fill:#FFDD09;" d="M463.213,86.893l-40.107-40.107L445.293,24.6c11.093-11.093,29.867-11.093,40.96,0l0,0
		c11.093,11.093,11.093,29.013,0,40.107L463.213,86.893z"/>
	<path style="fill:#FFFFFF;" d="M484.547,26.307l-10.24-10.24c-11.093-11.093-29.867-11.093-40.96,0L411.16,38.253l10.24,10.24
		l22.187-22.187C454.68,14.36,472.6,14.36,484.547,26.307"/>
	<path style="fill:#FD9808;" d="M493.933,35.693l-10.24-10.24c11.093,11.093,11.093,29.013,0,40.107l-22.187,22.187l10.24,10.24
		L493.933,75.8C505.027,64.707,505.027,46.787,493.933,35.693"/>
	<polygon style="fill:#FFDD09;" points="333.507,321.56 315.587,303.64 484.547,134.68 502.467,152.6 	"/>
	<path style="fill:#FFFFFF;" d="M420.547,52.76L434.2,66.413l0,0l-30.72-30.72L58.733,380.44
		c-29.867,29.867-45.227,71.68-40.96,113.493c6.827-31.573,28.16-66.56,58.027-96.427L420.547,52.76z"/>
	<path style="fill:#FD9808;" d="M444.44,75.8L444.44,75.8l13.653,13.653L112.493,434.2c-29.867,29.867-64.853,51.2-96.427,58.027
		c41.813,3.413,83.627-11.093,113.493-40.96L474.307,106.52L444.44,75.8z"/>
	<path style="fill:#FFDD09;" d="M19.48,490.52L19.48,490.52L19.48,490.52c6.827-31.573,28.16-66.56,58.027-96.427l345.6-345.6
		l38.4,38.4l-345.6,345.6C86.04,462.36,51.053,483.693,19.48,490.52"/>
	<polygon style="fill:#FCC309;" points="140.653,369.347 119.32,348.013 365.933,101.4 387.267,122.733 	"/>
	<polygon style="fill:#FFFFFF;" points="365.933,101.4 351.427,86.893 103.96,334.36 118.467,348.867 	"/>
	<path d="M32.28,499.907c-4.267,0-9.387,0-13.653-0.853c-4.267,0-7.68-3.413-7.68-7.68C6.68,447,22.893,402.627,54.467,371.053
		l345.6-345.6c3.413-3.413,8.533-3.413,11.947,0l72.533,72.533c1.707,1.707,2.56,3.413,2.56,5.973c0,2.56-1.707,5.12-2.56,5.973
		l-345.6,345.6C110.787,483.693,72.387,499.907,32.28,499.907z M28.013,481.987c37.547,1.707,73.387-12.8,99.84-39.253
		L466.627,103.96L406.04,43.373L66.413,383C39.96,409.453,26.307,445.293,28.013,481.987z"/>
	<path d="M7.533,511c-2.56,0-4.267-0.853-5.973-2.56c-3.413-3.413-3.413-8.533,0-11.947l11.947-11.947
		c3.413-3.413,8.533-3.413,11.947,0c3.413,3.413,3.413,8.533,0,11.947L13.507,508.44C11.8,510.147,10.093,511,7.533,511z"/>
	<path d="M471.747,106.52c-2.56,0-4.267-0.853-5.973-2.56l-60.587-60.587c-1.707-1.707-2.56-3.413-2.56-5.973
		c0-2.56,0.853-4.267,2.56-5.973L427.373,9.24C435.053,3.267,444.44-1,453.827-1c10.24,0,19.627,4.267,26.453,11.093l19.627,19.627
		c14.507,14.507,14.507,37.547,0,52.053L477.72,103.96C476.867,105.667,474.307,106.52,471.747,106.52z M423.96,38.253l48.64,48.64
		l16.213-16.213c7.68-7.68,7.68-20.48,0-28.16l-20.48-20.48c-7.68-7.68-21.333-7.68-29.013,0L423.96,38.253z"/>
	<path d="M333.507,330.093c-2.56,0-4.267-0.853-5.973-2.56l-17.92-17.92c-3.413-3.413-3.413-8.533,0-11.947l168.96-168.96
		c3.413-3.413,8.533-3.413,11.947,0l17.92,17.92c3.413,3.413,3.413,8.533,0,11.947l-168.96,168.96
		C337.773,329.24,335.213,330.093,333.507,330.093z M327.533,303.64l5.973,5.973L490.52,152.6l-5.973-5.973L327.533,303.64z"/>
	<path d="M453.827,173.08c-2.56,0-4.267-0.853-5.973-2.56l-17.92-17.92c-3.413-3.413-3.413-8.533,0-11.947
		c3.413-3.413,8.533-3.413,11.947,0l17.92,17.92c3.413,3.413,3.413,8.533,0,11.947C458.093,172.227,456.387,173.08,453.827,173.08z"
		/>
	<path d="M140.653,377.88c-2.56,0-4.267-0.853-5.973-2.56l-35.84-35.84c-1.707-1.707-2.56-3.413-2.56-5.973
		c0-2.56,0.853-4.267,2.56-5.973L346.307,80.067c1.707-1.707,3.413-2.56,5.973-2.56l0,0c2.56,0,4.267,0.853,5.973,2.56l35.84,35.84
		c3.413,3.413,3.413,8.533,0,11.947L146.627,375.32C144.92,377.027,142.36,377.88,140.653,377.88z M115.907,333.507L139.8,357.4
		l235.52-235.52l-23.893-23.893L115.907,333.507z"/>
	<path d="M32.28,499.907c-4.267,0-9.387,0-13.653-0.853c-4.267,0-7.68-3.413-7.68-7.68C6.68,447,22.893,402.627,54.467,371.053
		l1.707-1.707c1.707-1.707,5.12-2.56,7.68-2.56c2.56,0.853,5.12,2.56,5.973,5.12c6.827,15.36,17.067,29.013,28.16,40.107
		s24.747,21.333,40.107,28.16c2.56,0.853,4.267,3.413,5.12,5.973c0.853,2.56-0.853,5.12-2.56,7.68l-1.707,1.707
		C110.787,483.693,72.387,499.907,32.28,499.907z M28.013,481.987c34.133,0.853,66.56-10.24,92.16-32.427
		c-12.8-6.827-23.893-16.213-34.133-25.6c-10.24-10.24-18.773-21.333-25.6-34.133C38.253,415.427,26.307,448.707,28.013,481.987z"/>
</g>
</svg>