<?xml version="1.0" encoding="iso-8859-1"?>

<!DOCTYPE svg PUBLIC "-//W3C//DTD SVG 1.1//EN" "http://www.w3.org/Graphics/SVG/1.1/DTD/svg11.dtd">
<!-- Uploaded to: SVG Repo, www.svgrepo.com, Generator: SVG Repo Mixer Tools -->
<svg height="800px" width="800px" version="1.1" id="_x34_" xmlns="http://www.w3.org/2000/svg" xmlns:xlink="http://www.w3.org/1999/xlink" 
	 viewBox="0 0 512 512"  xml:space="preserve">
<g>
	<g>
		<polygon style="fill:#FBE6B7;" points="180.006,414.017 171.785,422.16 115.097,478.926 115.019,478.926 113.923,480.023 
			113.844,479.945 113.375,479.474 113.297,479.474 73.6,439.701 72.895,439.074 72.19,438.29 32.494,398.671 31.867,398.046 
			97.95,331.961 		"/>
		<path style="fill:#FFFFFF;" d="M511.439,67.631c-0.627,2.739-2.036,5.402-4.15,7.516l-35.938,35.937l-7.673,7.673l-4.15,4.15
			c-6.264,6.264-16.599,6.264-22.941,0l-23.724-23.724L389.06,75.38c-6.342-6.341-6.342-16.676,0-22.941l4.15-4.15l7.673-7.673
			l9.552-9.552L436.743,4.68c2.114-2.114,4.776-3.525,7.595-4.15c5.324-1.409,11.275,0,15.425,4.15l23.724,23.803l23.802,23.722
			C511.439,56.355,512.848,62.305,511.439,67.631z"/>
		<polygon style="fill:#F9F5AB;" points="477.145,116.88 404.72,189.306 363.692,148.276 322.664,107.248 395.089,34.823 
			471.351,111.085 		"/>
		<polygon style="fill:#EA5346;" points="486.697,107.248 477.145,116.88 469.472,124.473 463.678,118.757 393.21,48.29 
			387.416,42.498 404.641,25.271 480.903,101.533 		"/>
		<polygon style="fill:#E4AC23;" points="417.874,176.072 404.72,189.306 309.901,284.123 180.006,414.017 171.785,422.16 
			130.835,381.134 89.808,340.105 97.95,331.961 227.845,202.067 322.664,107.248 335.818,94.095 376.846,135.122 		"/>
		<path style="fill:#FBE6B7;" d="M115.019,478.926l-1.096,0.314l-0.548,0.235h-0.078l-72.112,20.907
			c-0.078-0.157-0.157-0.237-0.157-0.392c-3.132-6.029-7.125-11.745-12.214-16.835c-5.089-5.089-10.805-9.16-16.912-12.215
			c-0.078-0.076-0.235-0.076-0.313-0.157l20.906-72.112l0.235-0.703l0.314-1.097l0.861,0.862L74.07,437.9l1.488,1.487l38.601,38.6
			L115.019,478.926z"/>
		<path style="fill:#595A59;" d="M41.654,499.833l-0.626,0.157l-0.078,0.078l-26.543,7.751L0,511.969l4.15-14.407l7.751-26.622
			l0.235-0.703c6.186,3.131,12.058,7.203,17.226,12.372C34.529,487.775,38.601,493.647,41.654,499.833z"/>
		<polygon style="fill:#E4AC23;" points="309.901,284.123 180.006,414.017 115.097,478.926 113.766,480.258 113.844,479.945 
			113.923,479.239 114.158,477.987 122.457,431.087 75.557,439.387 73.6,439.701 71.955,440.012 71.877,440.012 72.19,438.29 
			72.504,436.333 80.803,389.432 33.903,397.732 32.728,397.968 31.945,398.124 31.789,398.124 97.95,331.961 227.845,202.067 		"/>
	</g>
	<g>
		<polygon style="fill:#FBE6B7;" points="180.006,414.017 171.785,422.16 115.097,478.926 115.019,478.926 113.923,480.023 
			113.844,479.945 113.375,479.474 113.297,479.474 73.6,439.701 72.895,439.074 72.19,438.29 32.494,398.671 31.867,398.046 
			97.95,331.961 		"/>
		<path style="fill:#FFFFFF;" d="M511.439,67.631c-0.627,2.739-2.036,5.402-4.15,7.516l-35.938,35.937l-7.673,7.673l-4.15,4.15
			c-6.264,6.264-16.599,6.264-22.941,0l-23.724-23.724L389.06,75.38c-6.342-6.341-6.342-16.676,0-22.941l4.15-4.15l7.673-7.673
			l9.552-9.552L436.743,4.68c2.114-2.114,4.776-3.525,7.595-4.15c5.324-1.409,11.275,0,15.425,4.15l23.724,23.803l23.802,23.722
			C511.439,56.355,512.848,62.305,511.439,67.631z"/>
		<polygon style="fill:#F9F5AB;" points="477.145,116.88 404.72,189.306 363.692,148.276 322.664,107.248 395.089,34.823 
			471.351,111.085 		"/>
		<polygon style="fill:#EA5346;" points="486.697,107.248 477.145,116.88 469.472,124.473 463.678,118.757 393.21,48.29 
			387.416,42.498 404.641,25.271 480.903,101.533 		"/>
		<polygon style="fill:#E4AC23;" points="417.874,176.072 404.72,189.306 309.901,284.123 180.006,414.017 171.785,422.16 
			130.835,381.134 89.808,340.105 97.95,331.961 227.845,202.067 322.664,107.248 335.818,94.095 376.846,135.122 		"/>
		<path style="fill:#FBE6B7;" d="M115.019,478.926l-1.096,0.314l-0.548,0.235h-0.078l-72.112,20.907
			c-0.078-0.157-0.157-0.237-0.157-0.392c-3.132-6.029-7.125-11.745-12.214-16.835c-5.089-5.089-10.805-9.16-16.912-12.215
			c-0.078-0.076-0.235-0.076-0.313-0.157l20.906-72.112l0.235-0.703l0.314-1.097l0.861,0.862L74.07,437.9l1.488,1.487l38.601,38.6
			L115.019,478.926z"/>
		<path style="fill:#595A59;" d="M41.654,499.833l-0.626,0.157l-0.078,0.078l-26.543,7.751L0,511.969l4.15-14.407l7.751-26.622
			l0.235-0.703c6.186,3.131,12.058,7.203,17.226,12.372C34.529,487.775,38.601,493.647,41.654,499.833z"/>
		<polygon style="fill:#E4AC23;" points="309.901,284.123 180.006,414.017 115.097,478.926 113.766,480.258 113.844,479.945 
			113.923,479.239 114.158,477.987 122.457,431.087 75.557,439.387 73.6,439.701 71.955,440.012 71.877,440.012 72.19,438.29 
			72.504,436.333 80.803,389.432 33.903,397.732 32.728,397.968 31.945,398.124 31.789,398.124 97.95,331.961 227.845,202.067 		"/>
	</g>
	<path style="opacity:0.08;fill:#040000;" d="M480.94,101.506l26.324-26.324c6.315-6.315,6.314-16.646,0-22.961L483.5,28.457
		L0.016,511.941l40.964-11.888c0.056,0.11,0.124,0.215,0.178,0.325l72.172-20.943l0.49,0.49l-0.056,0.317l0.187-0.187l57.868-57.868
		l8.176-8.176l129.927-129.927l94.799-94.799l13.182-13.182l51.598-51.598l7.613-7.613l9.608-9.608L480.94,101.506z"/>
</g>
</svg>